<svg width="26" height="26" viewBox="0 0 26 26" fill="none" xmlns="http://www.w3.org/2000/svg">
<g id="icon_ui_send-again-v1" clip-path="url(#clip0_37_4117)">
<g id="icon_ui_send-again-v1_2">
<g id="color_stroke">
<path id="Vector" d="M21.4257 5.98694H4.57424C4.05093 5.98694 3.54903 6.1947 3.17884 6.56457C2.80864 6.93445 2.60044 7.43616 2.59998 7.95947V18.0405C2.60043 18.5635 2.8084 19.065 3.17822 19.4348C3.54805 19.8046 4.0495 20.0126 4.57251 20.0131H21.424C21.6832 20.0133 21.94 19.9625 22.1796 19.8635C22.4192 19.7644 22.637 19.6192 22.8205 19.436C23.004 19.2529 23.1496 19.0354 23.249 18.7959C23.3485 18.5565 23.3997 18.2998 23.4 18.0405V7.95947C23.3995 7.43616 23.1913 6.93445 22.8211 6.56457C22.4509 6.1947 21.949 5.98694 21.4257 5.98694ZM15.957 12.8665L22.1866 8.42574V17.3073L15.957 12.8665ZM21.4257 7.20027C21.5295 7.2002 21.6321 7.22144 21.7273 7.26267L13 13.4853L4.27264 7.26267C4.36784 7.22144 4.4705 7.2002 4.57424 7.20027H21.4257ZM3.81331 17.3073V8.42574L10.0429 12.8665L3.81331 17.3073ZM4.57251 18.7997C4.38926 18.7992 4.21247 18.732 4.07504 18.6108L11.0933 13.6119L12.6533 14.7229C12.756 14.7963 12.879 14.8358 13.0052 14.8358C13.1314 14.8358 13.2544 14.7963 13.357 14.7229L14.917 13.6119L21.9284 18.6108C21.7909 18.732 21.6142 18.7992 21.4309 18.7997H4.57251Z" fill="#151752"></path>
</g>
</g>
</g>
<defs>
<clipPath id="clip0_37_4117">
<rect width="26" height="26" fill="white"></rect>
</clipPath>
</defs>
</svg>