<svg width="26" height="26" viewBox="0 0 26 26" fill="none" xmlns="http://www.w3.org/2000/svg">
<g id="icon_ui_remind-password" clip-path="url(#clip0_37_4113)">
<g id="icon_ui_remind-password_2">
<g id="color_stroke">
<g id="Vector">
<path d="M13 1.99329C11.3089 1.99536 9.64105 2.38613 8.12509 3.13539C6.60914 3.88465 5.2857 4.97235 4.25702 6.31449L4.06115 5.62115C4.04207 5.54454 4.00778 5.47254 3.96033 5.40944C3.91288 5.34633 3.85323 5.2934 3.78493 5.2538C3.71662 5.21419 3.64106 5.18871 3.56272 5.17888C3.48438 5.16904 3.40486 5.17505 3.32889 5.19654C3.25291 5.21803 3.18203 5.25457 3.12045 5.30398C3.05887 5.3534 3.00785 5.41469 2.97042 5.4842C2.93298 5.55372 2.9099 5.63005 2.90253 5.70866C2.89517 5.78727 2.90368 5.86656 2.92755 5.94182L3.54462 8.11889C3.57943 8.24233 3.65366 8.35099 3.756 8.42829C3.85834 8.5056 3.98317 8.54729 4.11142 8.54702C4.16525 8.54705 4.21886 8.54006 4.27089 8.52622L6.44795 7.91262C6.52457 7.89353 6.59656 7.85925 6.65967 7.81179C6.72277 7.76434 6.7757 7.70469 6.81531 7.63639C6.85491 7.56809 6.88039 7.49252 6.89023 7.41418C6.90006 7.33584 6.89406 7.25633 6.87257 7.18035C6.85108 7.10438 6.81454 7.0335 6.76512 6.97192C6.71571 6.91034 6.65442 6.85932 6.5849 6.82188C6.51539 6.78445 6.43906 6.76136 6.36045 6.754C6.28183 6.74664 6.20255 6.75515 6.12729 6.77902L5.24155 7.02862C6.48852 5.40808 8.21153 4.21858 10.1689 3.627C12.1262 3.03543 14.2196 3.07146 16.1554 3.73005C18.0912 4.38863 19.7723 5.63673 20.9627 7.29922C22.1532 8.96171 22.7933 10.9552 22.7933 13C22.7931 13.4096 22.7676 13.8189 22.717 14.2254C22.6968 14.3839 22.7402 14.544 22.8376 14.6706C22.9351 14.7973 23.0786 14.8803 23.237 14.9014H23.3133C23.4613 14.9027 23.6046 14.8498 23.7164 14.7528C23.8281 14.6557 23.9005 14.5212 23.92 14.3745C23.9767 13.9185 24.0056 13.4595 24.0066 13C24.0029 10.0819 22.8421 7.28447 20.7788 5.22112C18.7154 3.15776 15.918 1.99696 13 1.99329Z" fill="#151752"></path>
<path d="M22.2958 18.5986C22.2784 18.4445 22.2009 18.3036 22.0802 18.2062C21.9595 18.1089 21.8053 18.063 21.651 18.0786L19.3977 18.3057C19.2421 18.3215 19.0991 18.3986 19.0003 18.5198C18.9015 18.6411 18.8549 18.7966 18.8708 18.9522C18.8866 19.1078 18.9636 19.2508 19.0849 19.3496C19.2061 19.4484 19.3617 19.495 19.5173 19.4792L20.4273 19.3873C19.124 20.9053 17.3869 21.9876 15.4499 22.4886C13.5129 22.9895 11.4689 22.8851 9.59309 22.1893C7.71723 21.4935 6.09954 20.2398 4.95773 18.5969C3.81592 16.954 3.2048 15.0007 3.20662 13C3.20718 12.5944 3.23207 12.1892 3.28115 11.7866C3.29698 11.7051 3.29589 11.6211 3.27794 11.54C3.25999 11.4589 3.22558 11.3823 3.17683 11.315C3.12807 11.2478 3.06603 11.1912 2.99452 11.1489C2.92302 11.1066 2.8436 11.0795 2.76116 11.0691C2.67873 11.0588 2.59505 11.0655 2.51531 11.0888C2.43557 11.1121 2.36147 11.1515 2.29761 11.2047C2.23374 11.2578 2.18147 11.3235 2.14403 11.3977C2.10659 11.4718 2.08478 11.5529 2.07995 11.6358C2.02325 12.0883 1.9943 12.5439 1.99329 13C1.99321 15.2387 2.67581 17.4242 3.95003 19.265C5.22425 21.1057 7.02949 22.5141 9.12491 23.3023C11.2203 24.0905 13.5063 24.221 15.6777 23.6763C17.8492 23.1316 19.803 21.9378 21.2784 20.254L21.3512 20.9681C21.3678 21.1116 21.4367 21.244 21.5448 21.34C21.6529 21.4359 21.7925 21.4886 21.937 21.4881H21.996C22.1504 21.4706 22.2916 21.3929 22.389 21.2718C22.4864 21.1508 22.532 20.9961 22.516 20.8416L22.2958 18.5986Z" fill="#151752"></path>
<path d="M6.64035 16.6001L7.02169 18.4392C7.04595 18.5549 7.1035 18.661 7.18726 18.7444C7.27102 18.8279 7.37734 18.8851 7.49315 18.9089L9.33049 19.292C9.4298 19.3107 9.5322 19.3047 9.62863 19.2744C9.72507 19.2442 9.81258 19.1907 9.88342 19.1186L11.2857 17.7164C11.3981 17.6017 11.4604 17.4471 11.459 17.2865V16.2933H12.4592C12.619 16.2937 12.7727 16.2314 12.8873 16.12L14.2185 14.787C14.5667 14.877 14.9249 14.9225 15.2845 14.9222C16.1798 14.9238 17.0532 14.6452 17.7823 14.1254C18.5113 13.6057 19.0595 12.8709 19.3499 12.024C19.6404 11.177 19.6586 10.2605 19.402 9.40269C19.1454 8.54491 18.6268 7.78891 17.919 7.24064C17.2111 6.69237 16.3495 6.37931 15.4548 6.34532C14.5601 6.31133 13.6772 6.55812 12.9298 7.05111C12.1824 7.5441 11.608 8.25858 11.287 9.09442C10.9661 9.93026 10.9147 10.8456 11.1401 11.7121L6.80675 16.0454C6.73498 16.1167 6.68216 16.2047 6.6531 16.3016C6.62404 16.3985 6.61966 16.5011 6.64035 16.6001ZM15.2897 7.55555C15.8536 7.55441 16.4069 7.70827 16.8893 8.00032C17.3717 8.29236 17.7646 8.71136 18.0249 9.21155C18.2853 9.71173 18.4032 10.2739 18.3658 10.8365C18.3283 11.3992 18.137 11.9407 17.8126 12.402C17.4883 12.8632 17.0434 13.2265 16.5265 13.452C16.0097 13.6776 15.4408 13.7568 14.8821 13.6809C14.3233 13.6051 13.7961 13.3771 13.3581 13.0219C12.9201 12.6668 12.5881 12.1981 12.3985 11.667C12.3985 11.667 12.3985 11.6514 12.3985 11.6445C12.2353 11.1819 12.1853 10.687 12.2529 10.2012C12.3204 9.71534 12.5034 9.25278 12.7866 8.85229C13.0698 8.45179 13.4449 8.12503 13.8804 7.8994C14.3159 7.67378 14.7992 7.55586 15.2897 7.55555ZM11.6584 12.9098C12.0057 13.4602 12.4725 13.9253 13.0242 14.2705L12.213 15.08H10.8576C10.6967 15.08 10.5423 15.1439 10.4286 15.2576C10.3148 15.3714 10.2509 15.5257 10.2509 15.6866V17.0421L9.25769 18.0353L8.12929 17.8013L7.89355 16.6746L11.6584 12.9098Z" fill="#151752"></path>
</g>
</g>
</g>
</g>
<defs>
<clipPath id="clip0_37_4113">
<rect width="26" height="26" fill="white"></rect>
</clipPath>
</defs>
</svg>