<svg width="26" height="26" viewBox="0 0 26 26" fill="none" xmlns="http://www.w3.org/2000/svg">
<g id="icon_ui_microphone-off" clip-path="url(#clip0_37_3985)">
<g id="icon_ui_microphone-off_2">
<g id="color_stroke">
<g id="Vector">
<path d="M13.0001 17.5223C15.1823 17.5223 16.959 15.6728 16.959 13.3987V9.89906L20.7827 6.07533C20.8391 6.01842 20.8836 5.95098 20.9139 5.87684C20.9442 5.80271 20.9596 5.72334 20.9592 5.64326C20.9587 5.56319 20.9426 5.48398 20.9116 5.41015C20.8805 5.33633 20.8353 5.26933 20.7784 5.213C20.7215 5.15666 20.654 5.11208 20.5799 5.08181C20.5058 5.05154 20.4264 5.03616 20.3463 5.03657C20.2663 5.03697 20.187 5.05314 20.1132 5.08415C20.0394 5.11517 19.9724 5.16042 19.9161 5.21733L5.21739 19.9333C5.10246 20.0471 5.03744 20.2019 5.03663 20.3636C5.03582 20.5253 5.09928 20.6807 5.21306 20.7957C5.32684 20.9106 5.48161 20.9756 5.64333 20.9764C5.80505 20.9772 5.96046 20.9138 6.07539 20.8L8.53326 18.3421C9.59113 19.3338 10.9495 19.9443 12.3934 20.0772V22.204H10.4001C10.2392 22.204 10.0849 22.2679 9.97108 22.3817C9.85731 22.4955 9.79339 22.6498 9.79339 22.8107C9.79339 22.9716 9.85731 23.1259 9.97108 23.2396C10.0849 23.3534 10.2392 23.4173 10.4001 23.4173H15.6001C15.761 23.4173 15.9153 23.3534 16.029 23.2396C16.1428 23.1259 16.2067 22.9716 16.2067 22.8107C16.2067 22.6498 16.1428 22.4955 16.029 22.3817C15.9153 22.2679 15.761 22.204 15.6001 22.204H13.6067V20.0772C15.2178 19.9246 16.7141 19.1772 17.8038 17.9808C18.8934 16.7844 19.4982 15.2249 19.5001 13.6067C19.5001 13.4458 19.4361 13.2915 19.3224 13.1777C19.2086 13.0639 19.0543 13 18.8934 13C18.7325 13 18.5782 13.0639 18.4644 13.1777C18.3506 13.2915 18.2867 13.4458 18.2867 13.6067C18.2869 14.637 17.9858 15.6449 17.4207 16.5064C16.8555 17.3679 16.0508 18.0454 15.1056 18.4556C14.1604 18.8657 13.116 18.9907 12.1007 18.815C11.0854 18.6393 10.1437 18.1707 9.39126 17.4668L10.3741 16.484C11.0881 17.1473 12.0255 17.5179 13.0001 17.5223ZM15.7162 13.3987C15.7162 14.9864 14.5029 16.2795 13.0001 16.2795C12.354 16.2777 11.7318 16.0355 11.2546 15.6L15.7162 11.1419V13.3987Z" fill="#151752"></path>
<path d="M9.66339 13.6743C9.82843 13.6743 9.9867 13.6087 10.1034 13.492C10.2201 13.3753 10.2857 13.217 10.2857 13.052V6.76C10.2857 5.17226 11.499 3.88093 13.0001 3.88093C14.5011 3.88093 15.7162 5.174 15.7162 6.76C15.7117 6.84436 15.7245 6.92875 15.7537 7.00802C15.7829 7.08729 15.828 7.15978 15.8861 7.22107C15.9443 7.28236 16.0143 7.33118 16.0919 7.36453C16.1695 7.39789 16.2531 7.41509 16.3376 7.41509C16.4221 7.41509 16.5057 7.39789 16.5833 7.36453C16.6609 7.33118 16.7309 7.28236 16.7891 7.22107C16.8472 7.15978 16.8922 7.08729 16.9215 7.00802C16.9507 6.92875 16.9634 6.84436 16.959 6.76C16.959 4.48933 15.1823 2.63986 13.0001 2.63986C10.8178 2.63986 9.04286 4.48933 9.04286 6.76V13.052C9.04263 13.1336 9.05851 13.2145 9.08959 13.29C9.12068 13.3655 9.16635 13.4341 9.22399 13.4919C9.28164 13.5497 9.35012 13.5956 9.42552 13.6269C9.50092 13.6582 9.58175 13.6743 9.66339 13.6743Z" fill="#151752"></path>
</g>
</g>
</g>
</g>
<defs>
<clipPath id="clip0_37_3985">
<rect width="26" height="26" fill="white"></rect>
</clipPath>
</defs>
</svg>