<svg width="26" height="26" viewBox="0 0 26 26" fill="none" xmlns="http://www.w3.org/2000/svg">
<g id="icon_ui_go-to" clip-path="url(#clip0_37_4105)">
<g id="icon_ui_go-to_2">
<g id="color_stroke">
<g id="Vector">
<path d="M12.714 16.328C12.6561 16.3843 12.6101 16.4517 12.5787 16.5261C12.5473 16.6006 12.5311 16.6805 12.5311 16.7613C12.5311 16.8421 12.5473 16.922 12.5787 16.9965C12.6101 17.0709 12.6561 17.1383 12.714 17.1946C12.7703 17.2525 12.8377 17.2985 12.9122 17.3299C12.9866 17.3613 13.0665 17.3775 13.1473 17.3775C13.2281 17.3775 13.3081 17.3613 13.3825 17.3299C13.4569 17.2985 13.5243 17.2525 13.5806 17.1946L17.3333 13.4281C17.3912 13.3717 17.4372 13.3044 17.4686 13.2299C17.5 13.1555 17.5162 13.0756 17.5162 12.9948C17.5162 12.914 17.5 12.834 17.4686 12.7596C17.4372 12.6852 17.3912 12.6178 17.3333 12.5614L13.572 8.81397C13.5156 8.75707 13.4487 8.71182 13.3748 8.6808C13.301 8.64979 13.2218 8.63362 13.1417 8.63321C12.98 8.6324 12.8246 8.69586 12.7097 8.80964C12.5947 8.92342 12.5297 9.07819 12.5289 9.23991C12.5281 9.40163 12.5915 9.55705 12.7053 9.67198L15.4266 12.3933H2.76292C2.60202 12.3933 2.44771 12.4572 2.33394 12.571C2.22017 12.6848 2.15625 12.8391 2.15625 13C2.15625 13.1609 2.22017 13.3152 2.33394 13.429C2.44771 13.5427 2.60202 13.6066 2.76292 13.6066H15.4353L12.714 16.328Z" fill="#151752"></path>
<path d="M21.2853 2.59998H7.34585C6.82254 2.60044 6.32082 2.80864 5.95095 3.17884C5.58108 3.54903 5.37332 4.05093 5.37332 4.57424V10.4C5.37332 10.5609 5.43723 10.7152 5.55101 10.829C5.66478 10.9427 5.81909 11.0066 5.97998 11.0066C6.14088 11.0066 6.29519 10.9427 6.40896 10.829C6.52273 10.7152 6.58665 10.5609 6.58665 10.4V4.57424C6.58665 4.37273 6.66658 4.17945 6.80891 4.03679C6.95124 3.89414 7.14434 3.81377 7.34585 3.81331H21.2853C21.4865 3.81377 21.6794 3.8939 21.8216 4.03618C21.9639 4.17846 22.0441 4.3713 22.0445 4.57251V21.424C22.0447 21.5239 22.0253 21.6229 21.9873 21.7153C21.9492 21.8077 21.8934 21.8917 21.8229 21.9625C21.7524 22.0334 21.6686 22.0896 21.5764 22.1281C21.4841 22.1665 21.3852 22.1864 21.2853 22.1866H7.34585C7.14434 22.1862 6.95124 22.1058 6.80891 21.9632C6.66658 21.8205 6.58665 21.6272 6.58665 21.4257V15.6C6.58665 15.4391 6.52273 15.2848 6.40896 15.171C6.29519 15.0572 6.14088 14.9933 5.97998 14.9933C5.81909 14.9933 5.66478 15.0572 5.55101 15.171C5.43723 15.2848 5.37332 15.4391 5.37332 15.6V21.4257C5.37332 21.949 5.58108 22.4509 5.95095 22.8211C6.32082 23.1913 6.82254 23.3995 7.34585 23.4H21.2853C21.8083 23.3995 22.3098 23.1915 22.6796 22.8217C23.0494 22.4519 23.2574 21.9505 23.2579 21.4274V4.57424C23.2579 4.05093 23.0501 3.54903 22.6802 3.17884C22.3103 2.80864 21.8086 2.60044 21.2853 2.59998Z" fill="#151752"></path>
</g>
</g>
</g>
</g>
<defs>
<clipPath id="clip0_37_4105">
<rect width="26" height="26" fill="white"></rect>
</clipPath>
</defs>
</svg>