<svg width="26" height="26" viewBox="0 0 26 26" fill="none" xmlns="http://www.w3.org/2000/svg">
<g id="icon_ui_proxy" clip-path="url(#clip0_37_4015)">
<g id="icon_ui_proxy_2">
<g id="color_stroke">
<g id="Vector">
<path d="M6.43245 17.9764C6.40336 18.0508 6.38925 18.1303 6.39093 18.2101C6.39262 18.29 6.41007 18.3688 6.44228 18.4419C6.47449 18.515 6.52083 18.5811 6.57864 18.6362C6.63644 18.6914 6.70457 18.7346 6.77912 18.7633C6.84962 18.7918 6.92494 18.8066 7.00099 18.8067C7.12294 18.8068 7.24208 18.7701 7.34288 18.7015C7.44368 18.6328 7.52145 18.5354 7.56605 18.4219C7.90181 17.5635 8.48911 16.8267 9.25094 16.308C10.0128 15.7893 10.9136 15.5129 11.8353 15.5151H14.1649C15.0192 15.5165 15.8561 15.7566 16.5811 16.2084C16.6494 16.2504 16.7253 16.2785 16.8045 16.2912C16.8836 16.3039 16.9645 16.3008 17.0425 16.2822C17.1205 16.2637 17.194 16.2299 17.259 16.1829C17.3239 16.1358 17.3789 16.0765 17.4209 16.0082C17.4629 15.9399 17.4911 15.864 17.5037 15.7849C17.5164 15.7057 17.5133 15.6248 17.4947 15.5469C17.4762 15.4689 17.4424 15.3953 17.3954 15.3304C17.3484 15.2654 17.289 15.2104 17.2207 15.1684C16.3024 14.6011 15.2442 14.301 14.1649 14.3017H11.8353C10.669 14.2974 9.52878 14.646 8.56445 15.3019C7.60013 15.9578 6.85688 16.8902 6.43245 17.9764Z" fill="#151752"></path>
<path d="M16.9434 9.80895C16.9434 9.02903 16.7121 8.26663 16.2788 7.61815C15.8455 6.96967 15.2297 6.46424 14.5091 6.16578C13.7886 5.86732 12.9957 5.78923 12.2307 5.94138C11.4658 6.09354 10.7632 6.4691 10.2117 7.02059C9.66021 7.57207 9.28464 8.27471 9.13249 9.03964C8.98034 9.80457 9.05843 10.5974 9.35689 11.318C9.65535 12.0385 10.1608 12.6544 10.8093 13.0877C11.4577 13.521 12.2201 13.7523 13.0001 13.7523C14.0456 13.7514 15.0481 13.3356 15.7874 12.5963C16.5267 11.857 16.9425 10.8545 16.9434 9.80895ZM10.2701 9.80895C10.2701 9.269 10.4302 8.74119 10.7301 8.29224C11.0301 7.84329 11.4565 7.49338 11.9553 7.28676C12.4542 7.08013 13.0031 7.02607 13.5326 7.1314C14.0622 7.23674 14.5487 7.49675 14.9305 7.87855C15.3123 8.26034 15.5723 8.74678 15.6776 9.27635C15.7829 9.80592 15.7289 10.3548 15.5222 10.8537C15.3156 11.3525 14.9657 11.7789 14.5168 12.0789C14.0678 12.3788 13.54 12.5389 13.0001 12.5389C12.2763 12.538 11.5824 12.2501 11.0707 11.7383C10.5589 11.2266 10.271 10.5327 10.2701 9.80895Z" fill="#151752"></path>
<path d="M13.0001 1.99335C11.312 1.99369 9.64658 2.38231 8.13269 3.12915C6.61881 3.876 5.29699 4.96105 4.26947 6.30039C3.24196 7.63974 2.53628 9.19748 2.20701 10.8531C1.87775 12.5088 1.93372 14.218 2.3706 15.8486C2.80749 17.4792 3.61357 18.9874 4.72652 20.2566C5.83946 21.5259 7.22943 22.5221 8.78894 23.1683C10.3484 23.8145 12.0357 24.0933 13.7202 23.9832C15.4047 23.8731 17.0413 23.3771 18.5034 22.5333C18.5743 22.4945 18.6368 22.442 18.6871 22.3787C18.7374 22.3154 18.7746 22.2427 18.7964 22.1648C18.8182 22.087 18.8243 22.0055 18.8142 21.9253C18.8041 21.8451 18.778 21.7677 18.7376 21.6977C18.6972 21.6277 18.6431 21.5665 18.5787 21.5176C18.5142 21.4688 18.4407 21.4333 18.3624 21.4133C18.284 21.3933 18.2025 21.3892 18.1225 21.4011C18.0425 21.4131 17.9658 21.4409 17.8967 21.4829C16.0295 22.5613 13.8586 22.9933 11.7208 22.7121C9.58293 22.4308 7.59765 21.452 6.07281 19.9275C4.54797 18.4029 3.5688 16.4178 3.28717 14.28C3.00553 12.1423 3.43717 9.97131 4.51513 8.10386C5.59309 6.2364 7.25714 4.77683 9.24918 3.95151C11.2412 3.12619 13.4499 2.98125 15.5328 3.53917C17.6156 4.09709 19.4561 5.32669 20.7688 7.03726C22.0816 8.74783 22.7932 10.8438 22.7934 13C22.7932 13.4097 22.7678 13.819 22.7171 14.2255C22.6974 14.3852 22.7419 14.5463 22.8408 14.6732C22.9398 14.8002 23.0852 14.8826 23.2449 14.9023C23.4047 14.9221 23.5657 14.8776 23.6927 14.7786C23.8196 14.6797 23.902 14.5343 23.9218 14.3745C23.9779 13.9185 24.0063 13.4595 24.0067 13C24.003 10.082 22.8422 7.28453 20.7789 5.22118C18.7155 3.15782 15.9181 1.99702 13.0001 1.99335Z" fill="#151752"></path>
<path d="M22.7501 17.5933H21.4067V16.25C21.4067 16.0891 21.3428 15.9348 21.229 15.821C21.1153 15.7073 20.961 15.6433 20.8001 15.6433C20.6392 15.6433 20.4848 15.7073 20.3711 15.821C20.2573 15.9348 20.1934 16.0891 20.1934 16.25V17.5933H18.8501C18.6892 17.5933 18.5348 17.6573 18.4211 17.771C18.3073 17.8848 18.2434 18.0391 18.2434 18.2C18.2434 18.3609 18.3073 18.5152 18.4211 18.629C18.5348 18.7428 18.6892 18.8067 18.8501 18.8067H20.1934V20.15C20.1934 20.3109 20.2573 20.4652 20.3711 20.579C20.4848 20.6928 20.6392 20.7567 20.8001 20.7567C20.961 20.7567 21.1153 20.6928 21.229 20.579C21.3428 20.4652 21.4067 20.3109 21.4067 20.15V18.8067H22.7501C22.911 18.8067 23.0653 18.7428 23.179 18.629C23.2928 18.5152 23.3567 18.3609 23.3567 18.2C23.3567 18.0391 23.2928 17.8848 23.179 17.771C23.0653 17.6573 22.911 17.5933 22.7501 17.5933Z" fill="#151752"></path>
</g>
</g>
</g>
</g>
<defs>
<clipPath id="clip0_37_4015">
<rect width="26" height="26" fill="white"></rect>
</clipPath>
</defs>
</svg>