<svg viewBox="0 0 26 26" fill="none" xmlns="http://www.w3.org/2000/svg">
<g id="icon_ui_full-screen" clip-path="url(#clip0_37_4021)">
<g id="icon_ui_full-screen_2">
<g id="color_stroke">
<g id="Vector">
<path d="M21.4068 2.60001H4.59343C4.06491 2.60047 3.55816 2.81062 3.18444 3.18435C2.81072 3.55807 2.60056 4.06482 2.6001 4.59334V21.4067C2.60056 21.9352 2.81072 22.4419 3.18444 22.8157C3.55816 23.1894 4.06491 23.3995 4.59343 23.4H21.4068C21.9353 23.3995 22.442 23.1894 22.8158 22.8157C23.1895 22.4419 23.3996 21.9352 23.4001 21.4067V4.59334C23.3996 4.06482 23.1895 3.55807 22.8158 3.18435C22.442 2.81062 21.9353 2.60047 21.4068 2.60001ZM22.1868 21.4067C22.1863 21.6134 22.104 21.8115 21.9578 21.9577C21.8116 22.1039 21.6135 22.1862 21.4068 22.1867H4.59343C4.3867 22.1862 4.18857 22.1039 4.04239 21.9577C3.89621 21.8115 3.81389 21.6134 3.81343 21.4067V4.59334C3.81389 4.38661 3.89621 4.18848 4.04239 4.0423C4.18857 3.89612 4.3867 3.8138 4.59343 3.81334H21.4068C21.6135 3.8138 21.8116 3.89612 21.9578 4.0423C22.104 4.18848 22.1863 4.38661 22.1868 4.59334V21.4067Z" fill="#151752"></path>
<path d="M19.4706 6.93334C19.4706 6.91254 19.4602 6.89174 19.4516 6.87094C19.4422 6.85132 19.4318 6.83223 19.4204 6.81374L19.3961 6.76001C19.3735 6.72711 19.348 6.69636 19.3198 6.66814C19.2923 6.64044 19.2621 6.61548 19.2297 6.59361C19.2148 6.58417 19.1992 6.57605 19.1829 6.56934C19.1642 6.55725 19.1445 6.54681 19.124 6.53814C19.1047 6.53075 19.085 6.52438 19.065 6.51907C19.0474 6.51284 19.0295 6.50764 19.0113 6.50347C18.9747 6.49677 18.9376 6.49272 18.9004 6.49134H13.0001C12.8392 6.49134 12.6849 6.55526 12.5711 6.66903C12.4573 6.7828 12.3934 6.93711 12.3934 7.09801C12.3934 7.2589 12.4573 7.41321 12.5711 7.52698C12.6849 7.64076 12.8392 7.70467 13.0001 7.70467H17.427L7.4309 17.7008C7.34535 17.7858 7.28699 17.8943 7.26323 18.0125C7.23947 18.1307 7.25137 18.2534 7.29744 18.3648C7.3435 18.4763 7.42164 18.5715 7.52194 18.6384C7.62224 18.7054 7.74017 18.741 7.86076 18.7408C7.94004 18.7416 8.0187 18.7268 8.09219 18.697C8.16567 18.6673 8.23253 18.6232 8.2889 18.5675L18.285 8.57307V13C18.285 13.1609 18.3489 13.3152 18.4627 13.429C18.5765 13.5428 18.7308 13.6067 18.8917 13.6067C19.0526 13.6067 19.2069 13.5428 19.3207 13.429C19.4344 13.3152 19.4984 13.1609 19.4984 13V7.10667C19.4978 7.06653 19.4937 7.02651 19.4862 6.98707C19.4828 6.96281 19.4758 6.94721 19.4706 6.93334Z" fill="#151752"></path>
</g>
</g>
</g>
</g>
<defs>
<clipPath id="clip0_37_4021">
<rect width="26" height="26" fill="white"></rect>
</clipPath>
</defs>
</svg>
