<svg width="26" height="26" viewBox="0 0 26 26" fill="none" xmlns="http://www.w3.org/2000/svg">
<g id="icon_ui_navigation" clip-path="url(#clip0_37_4107)">
<g id="icon_ui_navigation_2">
<g id="color_stroke">
<g id="Vector">
<path d="M22.3115 13.9118C22.1515 13.9127 21.9976 13.8504 21.8833 13.7385L20.3233 12.1785C20.2664 12.1216 20.2213 12.054 20.1905 11.9796C20.1597 11.9053 20.1438 11.8256 20.1438 11.7451C20.1438 11.6646 20.1597 11.585 20.1905 11.5106C20.2213 11.4363 20.2664 11.3687 20.3233 11.3118C20.3802 11.2549 20.4478 11.2097 20.5221 11.1789C20.5965 11.1482 20.6762 11.1323 20.7567 11.1323C20.8371 11.1323 20.9168 11.1482 20.9912 11.1789C21.0655 11.2097 21.1331 11.2549 21.19 11.3118L22.75 12.8718C22.8355 12.9568 22.8939 13.0653 22.9177 13.1835C22.9414 13.3017 22.9295 13.4244 22.8835 13.5358C22.8374 13.6472 22.7592 13.7425 22.6589 13.8094C22.5586 13.8764 22.4407 13.912 22.3201 13.9118H22.3115Z" fill="#151752"></path>
<path d="M20.7567 15.4666C20.6774 15.4674 20.5987 15.4525 20.5252 15.4228C20.4518 15.393 20.3849 15.349 20.3285 15.2933C20.2707 15.2369 20.2247 15.1695 20.1933 15.0951C20.1619 15.0207 20.1457 14.9407 20.1457 14.8599C20.1457 14.7791 20.1619 14.6992 20.1933 14.6248C20.2247 14.5503 20.2707 14.483 20.3285 14.4266L21.8885 12.8666C21.9454 12.8103 22.0129 12.7657 22.087 12.7354C22.1611 12.7051 22.2405 12.6898 22.3206 12.6902C22.4007 12.6906 22.4799 12.7067 22.5537 12.7378C22.6275 12.7688 22.6945 12.814 22.7509 12.8709C22.8072 12.9278 22.8518 12.9953 22.882 13.0694C22.9123 13.1435 22.9277 13.2229 22.9273 13.303C22.9269 13.3831 22.9107 13.4623 22.8797 13.5361C22.8487 13.6099 22.8034 13.6769 22.7465 13.7333L21.1865 15.2933C21.1298 15.3491 21.0627 15.3931 20.9889 15.4229C20.9151 15.4526 20.8362 15.4675 20.7567 15.4666Z" fill="#151752"></path>
<path d="M21.5349 13.9118H4.46506C4.30416 13.9118 4.14986 13.8479 4.03608 13.7341C3.92231 13.6203 3.8584 13.466 3.8584 13.3051C3.8584 13.1442 3.92231 12.9899 4.03608 12.8761C4.14986 12.7624 4.30416 12.6985 4.46506 12.6985H21.5349C21.6958 12.6985 21.8501 12.7624 21.9639 12.8761C22.0777 12.9899 22.1416 13.1442 22.1416 13.3051C22.1416 13.466 22.0777 13.6203 21.9639 13.7341C21.8501 13.8479 21.6958 13.9118 21.5349 13.9118Z" fill="#151752"></path>
<path d="M13 22.445C12.8391 22.445 12.6848 22.3811 12.571 22.2673C12.4572 22.1535 12.3933 21.9992 12.3933 21.8383V4.77019C12.3933 4.6093 12.4572 4.45499 12.571 4.34122C12.6848 4.22744 12.8391 4.16353 13 4.16353C13.1609 4.16353 13.3152 4.22744 13.429 4.34122C13.5427 4.45499 13.6067 4.6093 13.6067 4.77019V21.8401C13.6062 22.0007 13.5421 22.1545 13.4284 22.2679C13.3146 22.3813 13.1606 22.445 13 22.445Z" fill="#151752"></path>
<path d="M11.44 6.15339C11.319 6.15445 11.2005 6.11932 11.0997 6.05252C10.9988 5.98572 10.9202 5.89029 10.874 5.77849C10.8278 5.66669 10.8161 5.54364 10.8403 5.42512C10.8646 5.30661 10.9237 5.19805 11.0101 5.11339L12.5701 3.55339C12.6851 3.43847 12.8409 3.3739 13.0035 3.3739C13.166 3.3739 13.3219 3.43847 13.4368 3.55339C13.5517 3.66832 13.6163 3.8242 13.6163 3.98673C13.6163 4.14926 13.5517 4.30513 13.4368 4.42006L11.8768 5.98006C11.8192 6.03663 11.7509 6.08111 11.6759 6.11088C11.6009 6.14064 11.5207 6.1551 11.44 6.15339Z" fill="#151752"></path>
<path d="M14.56 6.15339C14.4 6.15452 14.246 6.09219 14.1319 5.98006L12.5719 4.42006C12.4569 4.30513 12.3924 4.14926 12.3924 3.98673C12.3924 3.8242 12.4569 3.66832 12.5719 3.55339C12.6868 3.43847 12.8427 3.3739 13.0052 3.3739C13.1677 3.3739 13.3236 3.43847 13.4385 3.55339L14.9985 5.11339C15.0849 5.19805 15.1441 5.30661 15.1683 5.42512C15.1926 5.54364 15.1808 5.66669 15.1346 5.77849C15.0884 5.89029 15.0099 5.98572 14.909 6.05252C14.8081 6.11932 14.6896 6.15445 14.5687 6.15339H14.56Z" fill="#151752"></path>
<path d="M13 23.2267C12.8794 23.2269 12.7615 23.1913 12.6612 23.1244C12.5609 23.0574 12.4827 22.9622 12.4367 22.8507C12.3906 22.7393 12.3787 22.6167 12.4025 22.4984C12.4262 22.3802 12.4846 22.2717 12.5701 22.1867L14.1301 20.6267C14.187 20.5698 14.2546 20.5247 14.3289 20.4939C14.4033 20.4631 14.483 20.4472 14.5635 20.4472C14.6439 20.4472 14.7236 20.4631 14.798 20.4939C14.8723 20.5247 14.9399 20.5698 14.9968 20.6267C15.0537 20.6836 15.0988 20.7512 15.1296 20.8255C15.1604 20.8999 15.1763 20.9796 15.1763 21.0601C15.1763 21.1405 15.1604 21.2202 15.1296 21.2946C15.0988 21.3689 15.0537 21.4365 14.9968 21.4934L13.4368 23.0534C13.3793 23.11 13.311 23.1546 13.236 23.1843C13.1609 23.2141 13.0807 23.2285 13 23.2267Z" fill="#151752"></path>
<path d="M13 23.2267C12.9205 23.2276 12.8415 23.2127 12.7677 23.183C12.694 23.1533 12.6268 23.1092 12.5701 23.0534L11.0101 21.4934C10.9532 21.4365 10.9081 21.3689 10.8773 21.2946C10.8465 21.2202 10.8306 21.1405 10.8306 21.0601C10.8306 20.9796 10.8465 20.8999 10.8773 20.8255C10.9081 20.7512 10.9532 20.6836 11.0101 20.6267C11.067 20.5698 11.1346 20.5247 11.2089 20.4939C11.2833 20.4631 11.363 20.4472 11.4435 20.4472C11.5239 20.4472 11.6036 20.4631 11.678 20.4939C11.7523 20.5247 11.8199 20.5698 11.8768 20.6267L13.4368 22.1867C13.5228 22.2721 13.5813 22.3813 13.6048 22.5002C13.6284 22.619 13.6159 22.7422 13.569 22.854C13.522 22.9657 13.4428 23.0609 13.3414 23.1273C13.2401 23.1937 13.1212 23.2283 13 23.2267Z" fill="#151752"></path>
<path d="M5.24333 15.4666C5.16379 15.4675 5.08486 15.4526 5.01108 15.4229C4.93731 15.3931 4.87015 15.3491 4.81346 15.2933L3.25346 13.7333C3.13854 13.6195 3.07351 13.4647 3.0727 13.303C3.07189 13.1413 3.13535 12.9859 3.24913 12.8709C3.36291 12.756 3.51768 12.691 3.6794 12.6902C3.84112 12.6894 3.99653 12.7528 4.11146 12.8666L5.67146 14.4266C5.72933 14.483 5.77532 14.5503 5.80672 14.6248C5.83812 14.6992 5.8543 14.7791 5.8543 14.8599C5.8543 14.9407 5.83812 15.0207 5.80672 15.0951C5.77532 15.1695 5.72933 15.2369 5.67146 15.2933C5.6151 15.349 5.54824 15.393 5.47475 15.4228C5.40126 15.4525 5.32261 15.4674 5.24333 15.4666Z" fill="#151752"></path>
<path d="M3.68853 13.9118C3.56794 13.912 3.45001 13.8764 3.34971 13.8094C3.24941 13.7425 3.17126 13.6472 3.1252 13.5358C3.07914 13.4244 3.06723 13.3017 3.09099 13.1835C3.11476 13.0653 3.17312 12.9568 3.25866 12.8718L4.81866 11.3118C4.93359 11.198 5.08901 11.1346 5.25073 11.1354C5.41244 11.1362 5.56722 11.2012 5.681 11.3161C5.79477 11.4311 5.85824 11.5865 5.85742 11.7482C5.85661 11.9099 5.79159 12.0647 5.67666 12.1785L4.11666 13.7385C4.00239 13.8504 3.84851 13.9127 3.68853 13.9118Z" fill="#151752"></path>
</g>
</g>
</g>
</g>
<defs>
<clipPath id="clip0_37_4107">
<rect width="26" height="26" fill="white"></rect>
</clipPath>
</defs>
</svg>