<svg width="26" height="26" viewBox="0 0 26 26" fill="none" xmlns="http://www.w3.org/2000/svg">
<g id="icon_ui_participant" clip-path="url(#clip0_37_4045)">
<g id="icon_ui_participant_2">
<g id="color_stroke">
<g id="Vector">
<path d="M6.99569 18.8067C6.91965 18.8065 6.84433 18.7918 6.77383 18.7633C6.69928 18.7346 6.63115 18.6914 6.57334 18.6362C6.51554 18.581 6.4692 18.515 6.43699 18.4419C6.40478 18.3688 6.38732 18.29 6.38564 18.2101C6.38395 18.1302 6.39806 18.0508 6.42716 17.9764C6.85158 16.8901 7.59483 15.9578 8.55916 15.3019C9.52348 14.646 10.6637 14.2973 11.83 14.3017H14.1648C15.331 14.2973 16.4712 14.646 17.4356 15.3019C18.3999 15.9578 19.1431 16.8901 19.5676 17.9764C19.5984 18.0508 19.6142 18.1306 19.6139 18.2112C19.6136 18.2917 19.5973 18.3714 19.5659 18.4456C19.5345 18.5198 19.4886 18.587 19.4309 18.6432C19.3732 18.6995 19.305 18.7437 19.23 18.7733C19.1551 18.8029 19.075 18.8172 18.9945 18.8155C18.9139 18.8138 18.8345 18.7961 18.7609 18.7634C18.6873 18.7307 18.6209 18.6836 18.5657 18.625C18.5104 18.5663 18.4674 18.4973 18.4392 18.4219C18.1031 17.5627 17.515 16.8253 16.7521 16.3065C15.9893 15.7877 15.0873 15.5118 14.1648 15.5151H11.8352C10.9126 15.5116 10.0105 15.7874 9.24759 16.3062C8.48468 16.825 7.89663 17.5626 7.56076 18.4219C7.51616 18.5354 7.43839 18.6328 7.33759 18.7014C7.23679 18.7701 7.11764 18.8067 6.99569 18.8067Z" fill="#151752"></path>
<path d="M13 13.7523C12.22 13.7523 11.4576 13.521 10.8092 13.0877C10.1607 12.6544 9.65525 12.0385 9.35679 11.318C9.05833 10.5974 8.98024 9.80455 9.13239 9.03962C9.28455 8.27468 9.66012 7.57205 10.2116 7.02056C10.7631 6.46908 11.4657 6.09351 12.2307 5.94136C12.9956 5.7892 13.7885 5.8673 14.509 6.16576C15.2296 6.46422 15.8454 6.96965 16.2787 7.61812C16.712 8.2666 16.9433 9.029 16.9433 9.80892C16.9419 10.8543 16.526 11.8565 15.7868 12.5958C15.0476 13.335 14.0454 13.7509 13 13.7523ZM13 7.07892C12.46 7.07892 11.9322 7.23903 11.4833 7.53901C11.0343 7.83899 10.6844 8.26535 10.4778 8.7642C10.2711 9.26304 10.2171 9.81195 10.3224 10.3415C10.4278 10.8711 10.6878 11.3575 11.0696 11.7393C11.4514 12.1211 11.9378 12.3811 12.4674 12.4865C12.9969 12.5918 13.5458 12.5377 14.0447 12.3311C14.5435 12.1245 14.9699 11.7746 15.2699 11.3256C15.5698 10.8767 15.73 10.3489 15.73 9.80892C15.729 9.08516 15.4411 8.39131 14.9293 7.87953C14.4176 7.36776 13.7237 7.07984 13 7.07892Z" fill="#151752"></path>
<path d="M13 24.0067C10.823 24.0067 8.69502 23.3611 6.88498 22.1517C5.07494 20.9423 3.66419 19.2233 2.83112 17.2121C1.99806 15.2009 1.78009 12.9878 2.20478 10.8527C2.62948 8.71761 3.67776 6.75641 5.21707 5.2171C6.75638 3.67779 8.71758 2.62951 10.8527 2.20481C12.9877 1.78012 15.2008 1.99809 17.212 2.83115C19.2232 3.66422 20.9422 5.07498 22.1517 6.88501C23.3611 8.69505 24.0066 10.8231 24.0066 13C24.003 15.918 22.8421 18.7155 20.7788 20.7788C18.7154 22.8422 15.918 24.003 13 24.0067ZM13 3.20665C11.063 3.20665 9.16958 3.78102 7.55907 4.85713C5.94857 5.93323 4.69333 7.46274 3.9521 9.25224C3.21086 11.0417 3.01692 13.0109 3.3948 14.9106C3.77268 16.8103 4.7054 18.5553 6.07503 19.9249C7.44465 21.2945 9.18965 22.2273 11.0894 22.6051C12.9891 22.983 14.9582 22.7891 16.7477 22.0478C18.5372 21.3066 20.0667 20.0514 21.1428 18.4409C22.2189 16.8304 22.7933 14.9369 22.7933 13C22.7901 10.4036 21.7573 7.91451 19.9213 6.0786C18.0854 4.24269 15.5963 3.20987 13 3.20665Z" fill="#151752"></path>
</g>
</g>
</g>
</g>
<defs>
<clipPath id="clip0_37_4045">
<rect width="26" height="26" fill="white"></rect>
</clipPath>
</defs>
</svg>