<svg viewBox="0 0 26 26" fill="none" xmlns="http://www.w3.org/2000/svg">
<g id="icon_iu_download" clip-path="url(#clip0_37_4101)">
<g id="icon_iu_download_2">
<g id="color_stroke">
<g id="Vector">
<path d="M12.5719 19.7062C12.6861 19.8182 12.84 19.8805 13 19.8796C13.1604 19.8802 13.3148 19.818 13.4299 19.7062L19.7063 13.4281C19.7632 13.3712 19.8083 13.3036 19.8391 13.2293C19.8699 13.1549 19.8858 13.0752 19.8858 12.9948C19.8858 12.9143 19.8699 12.8346 19.8391 12.7602C19.8083 12.6859 19.7632 12.6183 19.7063 12.5614C19.6494 12.5045 19.5818 12.4594 19.5075 12.4286C19.4331 12.3978 19.3534 12.3819 19.2729 12.3819C19.1925 12.3819 19.1128 12.3978 19.0384 12.4286C18.9641 12.4594 18.8965 12.5045 18.8396 12.5614L13.6067 17.8117V3.25169C13.6067 3.09079 13.5428 2.93648 13.429 2.82271C13.3152 2.70894 13.1609 2.64502 13 2.64502C12.8391 2.64502 12.6848 2.70894 12.571 2.82271C12.4573 2.93648 12.3933 3.09079 12.3933 3.25169V17.8117L7.15173 12.5701C7.09483 12.5137 7.02738 12.4692 6.95325 12.4389C6.87912 12.4086 6.79975 12.3933 6.71967 12.3937C6.6396 12.3941 6.56038 12.4102 6.48656 12.4412C6.41273 12.4723 6.34574 12.5175 6.2894 12.5744C6.23306 12.6313 6.18849 12.6988 6.15822 12.7729C6.12794 12.847 6.11257 12.9264 6.11297 13.0065C6.11379 13.1682 6.17881 13.323 6.29374 13.4368L12.5719 19.7062Z" fill="#151752"></path>
<path d="M22.1 22.119H3.9C3.7391 22.119 3.5848 22.1829 3.47102 22.2967C3.35725 22.4105 3.29333 22.5648 3.29333 22.7257C3.29333 22.8866 3.35725 23.0409 3.47102 23.1547C3.5848 23.2684 3.7391 23.3324 3.9 23.3324H22.1C22.2609 23.3324 22.4152 23.2684 22.529 23.1547C22.6427 23.0409 22.7067 22.8866 22.7067 22.7257C22.7067 22.5648 22.6427 22.4105 22.529 22.2967C22.4152 22.1829 22.2609 22.119 22.1 22.119Z" fill="#151752"></path>
</g>
</g>
</g>
</g>
<defs>
<clipPath id="clip0_37_4101">
<rect width="26" height="26" fill="white"></rect>
</clipPath>
</defs>
</svg>
