<svg width="26" height="26" viewBox="0 0 26 26" fill="none" xmlns="http://www.w3.org/2000/svg">
<g id="icon_ui_preview" clip-path="url(#clip0_136_23)">
<g id="icon_ui_preview_2">
<g id="color_stroke">
<g id="Vector">
<path d="M23.2596 22.4016L16.094 15.2308C17.2415 13.8875 17.9348 12.1472 17.9348 10.2475C17.9348 6.00949 14.4872 2.56189 10.2492 2.56189C6.0112 2.56189 2.5636 6.00949 2.5636 10.2475C2.5636 14.4855 6.0112 17.9331 10.2492 17.9331C12.1507 17.9331 13.8927 17.238 15.236 16.0888L22.4016 23.2596C22.5195 23.3775 22.6755 23.4382 22.8315 23.4382C22.9875 23.4382 23.1417 23.3792 23.2596 23.2614C23.4971 23.0239 23.4971 22.6408 23.2596 22.4034V22.4016ZM10.2492 16.7198C6.68027 16.7198 3.77693 13.8164 3.77693 10.2475C3.77693 6.67856 6.68027 3.77696 10.2492 3.77696C13.8181 3.77696 16.7215 6.68029 16.7215 10.2492C16.7215 13.8182 13.8181 16.7215 10.2492 16.7215V16.7198Z" fill="#151752"></path>
<path d="M10.2492 5.55882C9.91467 5.55882 9.64253 5.83096 9.64253 6.16549C9.64253 6.50002 9.91467 6.77216 10.2492 6.77216C12.1663 6.77216 13.7245 8.33216 13.7245 10.2475C13.7245 10.582 13.9967 10.8542 14.3312 10.8542C14.6657 10.8542 14.9379 10.582 14.9379 10.2475C14.9379 7.66136 12.8336 5.55882 10.2492 5.55882Z" fill="#151752"></path>
</g>
</g>
</g>
</g>
<defs>
<clipPath id="clip0_136_23">
<rect width="26" height="26" fill="white"></rect>
</clipPath>
</defs>
</svg>