<svg width="26" height="26" viewBox="0 0 26 26" fill="none" xmlns="http://www.w3.org/2000/svg">
<g id="icon_ui_time-v2" clip-path="url(#clip0_37_4123)">
<g id="icon_ui_time-v2_2">
<g id="color_stroke">
<g id="Vector">
<path d="M12.9168 14.6674C12.7559 14.6674 12.6015 14.6035 12.4878 14.4898C12.374 14.376 12.3101 14.2217 12.3101 14.0608V11.0361C12.3101 10.8752 12.374 10.7209 12.4878 10.6071C12.6015 10.4934 12.7559 10.4294 12.9168 10.4294C13.0777 10.4294 13.232 10.4934 13.3457 10.6071C13.4595 10.7209 13.5234 10.8752 13.5234 11.0361V14.0608C13.5234 14.2217 13.4595 14.376 13.3457 14.4898C13.232 14.6035 13.0777 14.6674 12.9168 14.6674Z" fill="#151752"></path>
<path d="M10.712 16.4753C10.5867 16.4755 10.4645 16.4369 10.362 16.3649C10.2596 16.2928 10.182 16.1908 10.1398 16.0729C10.0977 15.9549 10.093 15.8268 10.1266 15.7062C10.1601 15.5855 10.2302 15.4782 10.3272 15.3989L12.532 13.591C12.5936 13.5405 12.6647 13.5026 12.741 13.4795C12.8173 13.4565 12.8975 13.4486 12.9768 13.4565C13.0562 13.4644 13.1332 13.4879 13.2035 13.5255C13.2738 13.5632 13.336 13.6143 13.3865 13.676C13.437 13.7377 13.4749 13.8087 13.498 13.885C13.5211 13.9614 13.5289 14.0415 13.521 14.1208C13.5131 14.2002 13.4897 14.2772 13.452 14.3475C13.4144 14.4178 13.3632 14.48 13.3016 14.5305L11.0933 16.3384C10.9856 16.4263 10.851 16.4746 10.712 16.4753Z" fill="#151752"></path>
<path d="M12.9168 23.7674C10.997 23.7674 9.12027 23.1982 7.52402 22.1316C5.92777 21.065 4.68364 19.549 3.94896 17.7754C3.21429 16.0017 3.02206 14.05 3.3966 12.1671C3.77113 10.2842 4.6956 8.55463 6.0531 7.19713C7.41061 5.83963 9.14017 4.91516 11.0231 4.54062C12.906 4.16609 14.8577 4.35832 16.6313 5.09299C18.405 5.82766 19.921 7.07179 20.9876 8.66805C22.0541 10.2643 22.6234 12.141 22.6234 14.0608C22.6207 16.6343 21.5971 19.1016 19.7774 20.9214C17.9576 22.7411 15.4903 23.7647 12.9168 23.7674ZM12.9168 5.56745C11.2369 5.56745 9.59483 6.06557 8.19811 6.99883C6.80139 7.93209 5.71278 9.25857 5.06994 10.8105C4.4271 12.3625 4.2589 14.0702 4.58662 15.7177C4.91434 17.3653 5.72325 18.8787 6.91106 20.0665C8.09888 21.2543 9.61224 22.0632 11.2598 22.3909C12.9073 22.7186 14.6151 22.5504 16.167 21.9076C17.719 21.2648 19.0454 20.1761 19.9787 18.7794C20.912 17.3827 21.4101 15.7406 21.4101 14.0608C21.4078 11.8089 20.5122 9.64993 18.9199 8.05762C17.3276 6.46531 15.1686 5.56974 12.9168 5.56745Z" fill="#151752"></path>
<path d="M20.1066 8.77585C19.9814 8.77603 19.8591 8.73744 19.7567 8.66539C19.6543 8.59333 19.5766 8.49133 19.5345 8.3734C19.4923 8.25547 19.4877 8.12737 19.5212 8.0067C19.5548 7.88604 19.6248 7.77871 19.7218 7.69945L21.8018 5.99905C21.8619 5.93981 21.9336 5.89374 22.0125 5.86379C22.0913 5.83384 22.1756 5.82066 22.2598 5.8251C22.3441 5.82954 22.4264 5.8515 22.5017 5.88958C22.577 5.92766 22.6435 5.98101 22.697 6.04624C22.7505 6.11147 22.7898 6.18714 22.8124 6.26841C22.835 6.34968 22.8404 6.43477 22.8282 6.51825C22.8161 6.60173 22.7867 6.68176 22.7419 6.75322C22.697 6.82469 22.6378 6.88603 22.568 6.93331L20.488 8.63545C20.3809 8.72494 20.2461 8.77456 20.1066 8.77585Z" fill="#151752"></path>
<path d="M14.9916 5.63505C14.9401 5.63554 14.8888 5.62913 14.839 5.61598C14.7617 5.5962 14.6891 5.56133 14.6253 5.51335C14.5615 5.46538 14.5079 5.40527 14.4674 5.33647C14.427 5.26767 14.4006 5.19156 14.3897 5.1125C14.3788 5.03345 14.3836 4.95302 14.404 4.87585L14.7697 3.46665H11.0777L11.3845 4.70598C11.4036 4.78337 11.4073 4.86377 11.3953 4.94259C11.3834 5.02141 11.356 5.0971 11.3148 5.16535C11.2316 5.30317 11.0971 5.4023 10.9408 5.44091C10.7845 5.47953 10.6192 5.45447 10.4814 5.37126C10.3436 5.28804 10.2444 5.15348 10.2058 4.99718L9.70662 3.01078C9.68384 2.92063 9.68202 2.82646 9.70131 2.73549C9.72059 2.64453 9.76047 2.5592 9.81789 2.48606C9.8753 2.41291 9.94871 2.3539 10.0325 2.31355C10.1163 2.27321 10.2082 2.2526 10.3012 2.25331H15.5532C15.6448 2.25342 15.7353 2.27366 15.8183 2.31259C15.9012 2.35153 15.9746 2.40822 16.0333 2.47865C16.0896 2.55142 16.1287 2.63602 16.1477 2.7261C16.1666 2.81617 16.1648 2.90936 16.1425 2.99865L15.5774 5.18091C15.5437 5.31072 15.4679 5.4257 15.3619 5.50787C15.2559 5.59003 15.1257 5.63476 14.9916 5.63505Z" fill="#151752"></path>
<path d="M12.9497 7.83465C12.7888 7.83465 12.6345 7.77073 12.5207 7.65696C12.4069 7.54319 12.343 7.38888 12.343 7.22798V4.95385C12.343 4.79295 12.4069 4.63864 12.5207 4.52487C12.6345 4.4111 12.7888 4.34718 12.9497 4.34718C13.1106 4.34718 13.2649 4.4111 13.3787 4.52487C13.4924 4.63864 13.5564 4.79295 13.5564 4.95385V7.22798C13.5564 7.38888 13.4924 7.54319 13.3787 7.65696C13.2649 7.77073 13.1106 7.83465 12.9497 7.83465Z" fill="#151752"></path>
<path d="M12.9497 23.7466C12.7888 23.7466 12.6345 23.6827 12.5207 23.569C12.4069 23.4552 12.343 23.3009 12.343 23.14V20.8658C12.343 20.7049 12.4069 20.5506 12.5207 20.4369C12.6345 20.3231 12.7888 20.2592 12.9497 20.2592C13.1106 20.2592 13.2649 20.3231 13.3787 20.4369C13.4924 20.5506 13.5564 20.7049 13.5564 20.8658V23.1382C13.5566 23.2181 13.5411 23.2971 13.5107 23.3709C13.4803 23.4447 13.4356 23.5118 13.3793 23.5683C13.3229 23.6249 13.256 23.6697 13.1822 23.7003C13.1085 23.7309 13.0295 23.7466 12.9497 23.7466Z" fill="#151752"></path>
<path d="M6.09782 14.6536H3.82542C3.66452 14.6536 3.51021 14.5897 3.39644 14.4759C3.28267 14.3621 3.21875 14.2078 3.21875 14.0469C3.21875 13.886 3.28267 13.7317 3.39644 13.6179C3.51021 13.5042 3.66452 13.4402 3.82542 13.4402H6.09782C6.25872 13.4402 6.41303 13.5042 6.5268 13.6179C6.64057 13.7317 6.70449 13.886 6.70449 14.0469C6.70449 14.2078 6.64057 14.3621 6.5268 14.4759C6.41303 14.5897 6.25872 14.6536 6.09782 14.6536Z" fill="#151752"></path>
<path d="M22.0133 14.6536H19.7357C19.5748 14.6536 19.4205 14.5897 19.3067 14.4759C19.1929 14.3621 19.129 14.2078 19.129 14.0469C19.129 13.886 19.1929 13.7317 19.3067 13.6179C19.4205 13.5042 19.5748 13.4402 19.7357 13.4402H22.0133C22.1742 13.4402 22.3285 13.5042 22.4423 13.6179C22.556 13.7317 22.62 13.886 22.62 14.0469C22.62 14.2078 22.556 14.3621 22.4423 14.4759C22.3285 14.5897 22.1742 14.6536 22.0133 14.6536Z" fill="#151752"></path>
</g>
</g>
</g>
</g>
<defs>
<clipPath id="clip0_37_4123">
<rect width="26" height="26" fill="white"></rect>
</clipPath>
</defs>
</svg>