<svg width="26" height="26" viewBox="0 0 26 26" fill="none" xmlns="http://www.w3.org/2000/svg">
<g id="icon_ui_time-v1" clip-path="url(#clip0_37_4127)">
<g id="icon_ui_time-v1_2">
<g id="color_stroke">
<g id="Vector">
<path d="M13 1.94995C10.1201 1.95385 7.35626 3.08507 5.30006 5.10141C3.24386 7.11776 2.05878 9.85899 1.99854 12.7382C1.943 12.8791 1.943 13.0358 1.99854 13.1768C2.04223 15.3435 2.72469 17.4491 3.96033 19.2295C5.19598 21.0099 6.92979 22.3858 8.94433 23.1847C10.9589 23.9837 13.1645 24.17 15.2845 23.7204C17.4045 23.2707 19.3446 22.2051 20.8614 20.6573C22.3782 19.1094 23.4042 17.1481 23.8108 15.0194C24.2173 12.8907 23.9863 10.6894 23.1468 8.69143C22.3072 6.6935 20.8964 4.98794 19.0913 3.78864C17.2862 2.58935 15.1672 1.94971 13 1.94995ZM13.6067 22.7292V20.7566C13.6067 20.5957 13.5428 20.4414 13.429 20.3276C13.3152 20.2139 13.1609 20.15 13 20.15C12.8391 20.15 12.6848 20.2139 12.571 20.3276C12.4573 20.4414 12.3933 20.5957 12.3933 20.7566V22.7292C10.0117 22.5786 7.7668 21.5646 6.0794 19.8772C4.39199 18.1898 3.37798 15.9449 3.22747 13.5633H5.1636C5.3245 13.5633 5.47881 13.4994 5.59258 13.3856C5.70635 13.2718 5.77027 13.1175 5.77027 12.9566C5.77027 12.7957 5.70635 12.6414 5.59258 12.5276C5.47881 12.4139 5.3245 12.35 5.1636 12.35H3.22747C3.37835 9.96848 4.39247 7.72375 6.0798 6.03642C7.76714 4.34909 10.0119 3.33496 12.3933 3.18408V5.15662C12.3933 5.31752 12.4573 5.47182 12.571 5.5856C12.6848 5.69937 12.8391 5.76328 13 5.76328C13.1609 5.76328 13.3152 5.69937 13.429 5.5856C13.5428 5.47182 13.6067 5.31752 13.6067 5.15662V3.18408C15.9881 3.33496 18.2329 4.34909 19.9202 6.03642C21.6075 7.72375 22.6217 9.96848 22.7725 12.35H20.7636C20.6027 12.35 20.4484 12.4139 20.3346 12.5276C20.2209 12.6414 20.1569 12.7957 20.1569 12.9566C20.1569 13.1175 20.2209 13.2718 20.3346 13.3856C20.4484 13.4994 20.6027 13.5633 20.7636 13.5633H22.7725C22.622 15.9449 21.608 18.1898 19.9206 19.8772C18.2332 21.5646 15.9883 22.5786 13.6067 22.7292Z" fill="#151752"></path>
<path d="M13 7.86062C12.8391 7.86062 12.6848 7.92453 12.571 8.03831C12.4573 8.15208 12.3933 8.30639 12.3933 8.46728V12.6706L9.34267 15.1718C9.22673 15.2762 9.15544 15.4212 9.14362 15.5767C9.13179 15.7323 9.18033 15.8864 9.27916 16.0071C9.37798 16.1278 9.5195 16.2058 9.67432 16.2248C9.82914 16.2439 9.98536 16.2026 10.1105 16.1096L13.3848 13.4264C13.3848 13.4264 13.3969 13.4125 13.4056 13.4056C13.4213 13.3918 13.4358 13.3767 13.4489 13.3605C13.4625 13.3473 13.4747 13.3328 13.4853 13.3172C13.4973 13.3011 13.5083 13.2843 13.5183 13.2669C13.5292 13.2511 13.5385 13.2343 13.546 13.2166C13.546 13.1976 13.5616 13.1802 13.5685 13.1612C13.5753 13.143 13.5811 13.1245 13.5859 13.1057C13.5859 13.0866 13.5945 13.0676 13.598 13.0485C13.5997 13.0277 13.5997 13.0068 13.598 12.9861C13.5988 12.9763 13.5988 12.9664 13.598 12.9566V8.46728C13.598 8.30788 13.5353 8.15487 13.4234 8.04134C13.3115 7.92782 13.1594 7.86289 13 7.86062Z" fill="#151752"></path>
</g>
</g>
</g>
</g>
<defs>
<clipPath id="clip0_37_4127">
<rect width="26" height="26" fill="white"></rect>
</clipPath>
</defs>
</svg>