<svg width="26" height="26" viewBox="0 0 26 26" fill="none" xmlns="http://www.w3.org/2000/svg">
<g id="icon_ui_chat" clip-path="url(#clip0_37_3967)">
<g id="icon_ui_chat_rectangle">
<g id="color_stroke">
<g id="Vector">
<path d="M13 1.99335C11.0821 1.99332 9.19747 2.49444 7.53288 3.44705C5.86829 4.39966 4.4815 5.77069 3.50994 7.42429C2.53838 9.07789 2.01576 10.9567 1.99388 12.8744C1.972 14.7922 2.45161 16.6824 3.38519 18.3577V23.4C3.38509 23.4972 3.40815 23.593 3.45246 23.6795C3.49677 23.7661 3.56106 23.8408 3.63999 23.8975C3.74162 23.9686 3.86264 24.0067 3.98665 24.0067C4.05756 24.0066 4.12792 23.9942 4.19465 23.9703L7.74278 22.6737C9.2156 23.4731 10.8515 23.9256 12.5257 23.9968C14.2 24.0679 15.8684 23.7558 17.4037 23.0843C18.939 22.4128 20.3007 21.3996 21.385 20.1219C22.4693 18.8443 23.2476 17.3359 23.6605 15.7118C24.0733 14.0877 24.1099 12.3908 23.7674 10.7504C23.4249 9.11001 22.7124 7.56949 21.6841 6.24629C20.6559 4.92309 19.3391 3.85215 17.8341 3.11511C16.3291 2.37807 14.6757 1.9944 13 1.99335ZM13 22.7933C11.341 22.7938 9.70917 22.3728 8.25759 21.5696C8.23122 21.5563 8.204 21.5447 8.17612 21.5349C8.09523 21.47 7.99894 21.4272 7.89659 21.4105C7.79424 21.3938 7.68931 21.4038 7.59199 21.4396L4.59852 22.5333V18.2C4.59852 18.1879 4.59852 18.1757 4.59852 18.1636C4.59852 18.1515 4.59852 18.122 4.59852 18.1029C4.59852 18.0839 4.59852 18.0613 4.58465 18.0405L4.56905 17.9885C4.56039 17.9677 4.54999 17.9469 4.53959 17.9261C4.52919 17.9053 4.53959 17.9053 4.52745 17.8967C3.44892 16.029 3.01693 13.8577 3.29851 11.7194C3.58009 9.5812 4.5595 7.59568 6.08477 6.07093C7.61004 4.54619 9.5959 3.56746 11.7342 3.28662C13.8726 3.00578 16.0438 3.43852 17.9111 4.5177C19.7783 5.59688 21.2372 7.26216 22.0614 9.25516C22.8855 11.2482 23.0289 13.4575 22.4692 15.5403C21.9095 17.6231 20.6781 19.4629 18.9659 20.7743C17.2538 22.0858 15.1567 22.7955 13 22.7933Z" fill="#151752"></path>
<path d="M18.2 14.3C18.918 14.3 19.5 13.718 19.5 13C19.5 12.282 18.918 11.7 18.2 11.7C17.482 11.7 16.9 12.282 16.9 13C16.9 13.718 17.482 14.3 18.2 14.3Z" fill="#151752"></path>
<path d="M13 14.3C13.718 14.3 14.3 13.718 14.3 13C14.3 12.282 13.718 11.7 13 11.7C12.282 11.7 11.7 12.282 11.7 13C11.7 13.718 12.282 14.3 13 14.3Z" fill="#151752"></path>
<path d="M7.79999 14.3C8.51796 14.3 9.09999 13.718 9.09999 13C9.09999 12.282 8.51796 11.7 7.79999 11.7C7.08202 11.7 6.49999 12.282 6.49999 13C6.49999 13.718 7.08202 14.3 7.79999 14.3Z" fill="#151752"></path>
</g>
</g>
</g>
</g>
<defs>
<clipPath id="clip0_37_3967">
<rect width="26" height="26" fill="white"></rect>
</clipPath>
</defs>
</svg>