<svg width="26" height="26" viewBox="0 0 26 26" fill="none" xmlns="http://www.w3.org/2000/svg">
<g id="icon_ui_settings" clip-path="url(#clip0_37_4051)">
<g id="icon_ui_settings_2">
<g id="color_stroke">
<g id="Vector">
<path d="M14.5912 24.0067H11.4088C11.1088 24.0071 10.8209 23.8889 10.6079 23.6778C10.3948 23.4667 10.274 23.1799 10.2717 22.88V21.2767C9.86937 21.1447 9.47718 20.9836 9.09822 20.7948L7.94729 21.9336C7.73058 22.139 7.44335 22.2535 7.14475 22.2535C6.84616 22.2535 6.55893 22.139 6.34222 21.9336L4.08889 19.7097C3.98229 19.605 3.89762 19.4801 3.83982 19.3423C3.78202 19.2045 3.75225 19.0566 3.75225 18.9072C3.75225 18.7578 3.78202 18.6098 3.83982 18.4721C3.89762 18.3343 3.98229 18.2094 4.08889 18.1047L5.23462 16.9693C5.04634 16.5976 4.88473 16.213 4.75102 15.8184H3.13035C2.82938 15.8184 2.54069 15.6991 2.32755 15.4866C2.11441 15.2741 1.9942 14.9858 1.99329 14.6848V11.3221C1.9942 11.0212 2.11441 10.7328 2.32755 10.5203C2.54069 10.3078 2.82938 10.1885 3.13035 10.1885H4.75795C4.89166 9.79391 5.05327 9.40929 5.24155 9.0376L4.09582 7.90226C3.98901 7.79768 3.90415 7.67282 3.84622 7.53501C3.78828 7.3972 3.75844 7.24922 3.75844 7.09973C3.75844 6.95024 3.78828 6.80226 3.84622 6.66445C3.90415 6.52664 3.98901 6.40178 4.09582 6.2972L6.34915 4.0716C6.56577 3.86668 6.85263 3.75249 7.15082 3.75249C7.44901 3.75249 7.73587 3.86668 7.95249 4.0716L9.10342 5.2104C9.48238 5.02155 9.87457 4.86051 10.2769 4.72853V3.12C10.2778 2.81919 10.3981 2.53104 10.6113 2.31882C10.8244 2.10661 11.1131 1.98767 11.414 1.98813H14.5912C14.8918 1.98813 15.1803 2.10721 15.3933 2.31933C15.6064 2.53145 15.7268 2.81933 15.7282 3.12V4.72333C16.1308 4.85515 16.5231 5.01679 16.9017 5.20693L18.0526 4.0664C18.2695 3.86136 18.5567 3.74712 18.8552 3.74712C19.1536 3.74712 19.4408 3.86136 19.6577 4.0664L21.911 6.29373C22.0169 6.39865 22.101 6.52351 22.1584 6.66111C22.2158 6.79871 22.2453 6.94631 22.2453 7.0954C22.2453 7.24448 22.2158 7.39208 22.1584 7.52968C22.101 7.66728 22.0169 7.79215 21.911 7.89706L20.7653 9.0324C20.9543 9.4041 21.1154 9.78939 21.2472 10.1851H22.8748C23.1756 10.1846 23.4643 10.3035 23.6775 10.5158C23.8906 10.728 24.0109 11.0161 24.0118 11.3169V14.6779C24.0109 14.9787 23.8906 15.2668 23.6775 15.479C23.4643 15.6913 23.1756 15.8102 22.8748 15.8097H21.2472C21.1154 16.2054 20.9543 16.5907 20.7653 16.9624L21.911 18.096C22.0173 18.2011 22.1016 18.3262 22.1591 18.4641C22.2167 18.602 22.2463 18.75 22.2463 18.8994C22.2463 19.0488 22.2167 19.1968 22.1591 19.3347C22.1016 19.4726 22.0173 19.5977 21.911 19.7028L19.6577 21.9284C19.4408 22.1334 19.1536 22.2477 18.8552 22.2477C18.5567 22.2477 18.2695 22.1334 18.0526 21.9284L16.9034 20.7896C16.5248 20.9797 16.1326 21.1414 15.73 21.2732V22.88C15.7272 23.1801 15.606 23.4669 15.3926 23.6779C15.1793 23.889 14.8912 24.0071 14.5912 24.0067ZM11.485 22.7933H14.5149V20.8191C14.5149 20.6856 14.5588 20.5559 14.64 20.45C14.7212 20.3441 14.835 20.2679 14.9638 20.2332C15.5742 20.0687 16.1612 19.8275 16.711 19.5156C16.8258 19.4499 16.959 19.4236 17.0902 19.4408C17.2214 19.4581 17.3433 19.5178 17.4373 19.6109L18.8552 21.0149L20.9924 18.8933L19.5866 17.5067C19.4913 17.4118 19.4301 17.2881 19.4126 17.1549C19.395 17.0216 19.4221 16.8863 19.4896 16.77C19.8047 16.2258 20.0482 15.6432 20.2141 15.0367C20.2506 14.9096 20.3276 14.7979 20.4333 14.7184C20.539 14.639 20.6677 14.5961 20.8 14.5964H22.7933V11.4036H20.8C20.6673 11.4032 20.5385 11.3594 20.4331 11.279C20.3276 11.1986 20.2513 11.0859 20.2158 10.9581C20.0499 10.3516 19.8064 9.76897 19.4913 9.2248C19.4249 9.10926 19.3982 8.97511 19.4155 8.84297C19.4327 8.71082 19.4928 8.58798 19.5866 8.49333L20.9958 7.10666L18.8552 4.98506L17.4373 6.38906C17.3433 6.48219 17.2214 6.54193 17.0902 6.55915C16.959 6.57637 16.8258 6.55011 16.711 6.4844C16.1612 6.17246 15.5742 5.93134 14.9638 5.7668C14.835 5.7321 14.7212 5.6559 14.64 5.54999C14.5588 5.44408 14.5149 5.31436 14.5149 5.18093V3.20666H11.485V5.18093C11.485 5.31436 11.4411 5.44408 11.3599 5.54999C11.2787 5.6559 11.1649 5.7321 11.0361 5.7668C10.4259 5.93028 9.83932 6.17145 9.29062 6.4844C9.17545 6.54996 9.04202 6.57613 8.91062 6.55892C8.77921 6.54172 8.65702 6.48207 8.56262 6.38906L7.14475 4.98506L5.00929 7.10666L6.41329 8.49333C6.50843 8.58787 6.56957 8.71127 6.58713 8.84425C6.60469 8.97722 6.57769 9.11226 6.51035 9.22826C6.19625 9.77274 5.95333 10.3553 5.78755 10.9616C5.75118 11.0891 5.67404 11.2012 5.56792 11.2807C5.4618 11.3602 5.33255 11.4028 5.19995 11.4019H3.20662V14.5981H5.19995C5.33293 14.5979 5.4623 14.6414 5.56815 14.7219C5.67401 14.8024 5.75049 14.9154 5.78582 15.0436C5.9516 15.6499 6.19452 16.2325 6.50862 16.7769C6.57489 16.8922 6.60146 17.0261 6.58424 17.1579C6.56701 17.2897 6.50695 17.4123 6.41329 17.5067L5.00409 18.8933L7.13955 21.0097L8.55742 19.6057C8.65182 19.5127 8.77401 19.4531 8.90542 19.4359C9.03682 19.4187 9.17025 19.4448 9.28542 19.5104C9.83412 19.8233 10.4207 20.0645 11.0309 20.228C11.1597 20.2627 11.2735 20.3389 11.3547 20.4448C11.4359 20.5507 11.4798 20.6804 11.4798 20.8139L11.485 22.7933Z" fill="#151752"></path>
<path d="M13 16.9433C12.22 16.9433 11.4576 16.7121 10.8092 16.2788C10.1607 15.8455 9.65525 15.2296 9.35679 14.509C9.05833 13.7885 8.98023 12.9956 9.13239 12.2307C9.28454 11.4658 9.66011 10.7631 10.2116 10.2116C10.7631 9.66015 11.4657 9.28459 12.2306 9.13243C12.9956 8.98028 13.7885 9.05837 14.509 9.35683C15.2296 9.65529 15.8454 10.1607 16.2787 10.8092C16.712 11.4577 16.9433 12.2201 16.9433 13C16.9419 14.0454 16.526 15.0476 15.7868 15.7868C15.0476 16.5261 14.0454 16.942 13 16.9433ZM13 10.27C12.46 10.27 11.9322 10.4301 11.4832 10.7301C11.0343 11.0301 10.6844 11.4564 10.4778 11.9553C10.2711 12.4541 10.2171 13.003 10.3224 13.5326C10.4277 14.0622 10.6878 14.5486 11.0696 14.9304C11.4513 15.3122 11.9378 15.5722 12.4674 15.6775C12.9969 15.7829 13.5458 15.7288 14.0447 15.5222C14.5435 15.3156 14.9699 14.9656 15.2699 14.5167C15.5698 14.0678 15.73 13.5399 15.73 13C15.729 12.2762 15.4411 11.5824 14.9293 11.0706C14.4176 10.5588 13.7237 10.2709 13 10.27Z" fill="#151752"></path>
</g>
</g>
</g>
</g>
<defs>
<clipPath id="clip0_37_4051">
<rect width="26" height="26" fill="white"></rect>
</clipPath>
</defs>
</svg>