<svg width="26" height="26" viewBox="0 0 26 26" fill="none" xmlns="http://www.w3.org/2000/svg">
<g id="icon_ui_list-of-participants-v1" clip-path="url(#clip0_37_4003)">
<g id="icon_ui_list-of-participants-v1_2">
<g id="color_stroke">
<g id="Vector">
<path d="M9.4918 11.2164C10.2719 11.216 11.0344 10.9843 11.6828 10.5505C12.3312 10.1167 12.8364 9.50027 13.1344 8.77929C13.4324 8.0583 13.5098 7.26513 13.3569 6.50012C13.204 5.73512 12.8276 5.03266 12.2754 4.48162C11.7231 3.93059 11.0198 3.55574 10.2545 3.40451C9.48914 3.25328 8.69614 3.33247 7.97581 3.63204C7.25548 3.93162 6.6402 4.43812 6.20781 5.08748C5.77542 5.73683 5.54536 6.49984 5.54673 7.27998C5.54949 8.32463 5.96629 9.32559 6.70578 10.0635C7.44528 10.8013 8.44714 11.2159 9.4918 11.2164ZM9.4918 4.54305C10.0314 4.54339 10.5587 4.70362 11.0073 5.0035C11.4559 5.30338 11.8055 5.72946 12.0121 6.22793C12.2186 6.72639 12.2729 7.2749 12.1679 7.80416C12.0629 8.33342 11.8035 8.81971 11.4223 9.20161C11.0411 9.58351 10.5553 9.84389 10.0263 9.94987C9.4972 10.0558 8.9486 10.0027 8.44974 9.79706C7.95088 9.59144 7.52413 9.24261 7.2234 8.79461C6.92267 8.34662 6.76144 7.81955 6.76007 7.27998C6.75961 6.92087 6.82992 6.56519 6.96698 6.23326C7.10404 5.90134 7.30515 5.59967 7.55884 5.3455C7.81253 5.09133 8.11381 4.88964 8.44548 4.75195C8.77714 4.61426 9.13269 4.54327 9.4918 4.54305Z" fill="#151752"></path>
<path d="M22.7882 16.7873C22.3158 16.2149 21.7224 15.7542 21.0508 15.4384C20.3792 15.1225 19.646 14.9592 18.9038 14.9604H16.9139C16.4766 14.9614 16.0413 15.0197 15.6191 15.1337C15.2299 14.1419 14.5513 13.2902 13.6715 12.6892C12.7917 12.0883 11.7515 11.766 10.6861 11.7641H8.37207C6.96684 11.7659 5.6197 12.325 4.62605 13.3186C3.6324 14.3123 3.07337 15.6594 3.07153 17.0646C3.07153 17.2255 3.13545 17.3799 3.24922 17.4936C3.36299 17.6074 3.5173 17.6713 3.6782 17.6713C3.8391 17.6713 3.99341 17.6074 4.10718 17.4936C4.22095 17.3799 4.28487 17.2255 4.28487 17.0646C4.28624 15.9811 4.7173 14.9423 5.4835 14.1761C6.2497 13.4099 7.2885 12.9788 8.37207 12.9774H10.6861C11.7695 12.9788 12.8081 13.4099 13.574 14.1762C14.3399 14.9424 14.7706 15.9812 14.7715 17.0646V22.0636C14.7715 22.2245 14.8354 22.3788 14.9492 22.4926C15.063 22.6063 15.2173 22.6702 15.3782 22.6702C15.5391 22.6702 15.6934 22.6063 15.8072 22.4926C15.9209 22.3788 15.9849 22.2245 15.9849 22.0636V17.0646C15.9849 16.81 15.9663 16.5557 15.9294 16.3037C16.2506 16.2179 16.5815 16.1742 16.9139 16.1737H18.9038C19.4668 16.1737 20.0228 16.298 20.5321 16.5377C21.0415 16.7774 21.4917 17.1266 21.8505 17.5604C21.9002 17.6252 21.9624 17.6793 22.0335 17.7194C22.1046 17.7596 22.1831 17.785 22.2643 17.7941C22.3454 17.8032 22.4276 17.7958 22.5058 17.7724C22.5841 17.749 22.6568 17.71 22.7196 17.6578C22.7824 17.6056 22.834 17.5413 22.8714 17.4687C22.9087 17.3961 22.931 17.3166 22.9369 17.2352C22.9429 17.1538 22.9323 17.0719 22.9058 16.9947C22.8794 16.9174 22.8376 16.8463 22.783 16.7856L22.7882 16.7873Z" fill="#151752"></path>
<path d="M17.9089 14.2861C18.5431 14.2861 19.1631 14.098 19.6904 13.7457C20.2177 13.3933 20.6287 12.8925 20.8714 12.3066C21.1141 11.7206 21.1776 11.0759 21.0539 10.4539C20.9302 9.83182 20.6248 9.26045 20.1763 8.81199C19.7279 8.36353 19.1565 8.05812 18.5345 7.93439C17.9124 7.81067 17.2677 7.87417 16.6817 8.11687C16.0958 8.35958 15.595 8.77058 15.2426 9.29792C14.8903 9.82525 14.7022 10.4452 14.7022 11.0794C14.7031 11.9296 15.0413 12.7447 15.6424 13.3459C16.2436 13.9471 17.0587 14.2852 17.9089 14.2861ZM17.9089 9.08611C18.3031 9.08611 18.6885 9.20302 19.0163 9.42205C19.3441 9.64108 19.5996 9.9524 19.7505 10.3166C19.9013 10.6809 19.9408 11.0817 19.8639 11.4683C19.787 11.855 19.5971 12.2102 19.3184 12.4889C19.0396 12.7677 18.6844 12.9576 18.2977 13.0345C17.9111 13.1114 17.5103 13.0719 17.1461 12.921C16.7818 12.7702 16.4705 12.5147 16.2515 12.1869C16.0324 11.8591 15.9155 11.4737 15.9155 11.0794C15.916 10.5509 16.1262 10.0442 16.4999 9.67045C16.8736 9.29673 17.3803 9.08657 17.9089 9.08611Z" fill="#151752"></path>
</g>
</g>
</g>
</g>
<defs>
<clipPath id="clip0_37_4003">
<rect width="26" height="26" fill="white"></rect>
</clipPath>
</defs>
</svg>