<svg width="26" height="26" viewBox="0 0 26 26" fill="none" xmlns="http://www.w3.org/2000/svg">
<g id="icon_ui_agenda" clip-path="url(#clip0_37_4033)">
<g id="icon_ui_agenda_2">
<g id="color_stroke">
<g id="Vector">
<path d="M19.4133 2.60001H7.88486C7.35664 2.60092 6.85034 2.81129 6.47699 3.18496C6.10364 3.55863 5.89372 4.06512 5.89326 4.59334V9.79334H5.19993C5.03903 9.79334 4.88472 9.85726 4.77095 9.97103C4.65718 10.0848 4.59326 10.2391 4.59326 10.4C4.59326 10.5609 4.65718 10.7152 4.77095 10.829C4.88472 10.9428 5.03903 11.0067 5.19993 11.0067H5.89326V12.3933H5.19993C5.03903 12.3933 4.88472 12.4573 4.77095 12.571C4.65718 12.6848 4.59326 12.8391 4.59326 13C4.59326 13.1609 4.65718 13.3152 4.77095 13.429C4.88472 13.5428 5.03903 13.6067 5.19993 13.6067H5.89326V14.9933H5.19993C5.03903 14.9933 4.88472 15.0573 4.77095 15.171C4.65718 15.2848 4.59326 15.4391 4.59326 15.6C4.59326 15.7609 4.65718 15.9152 4.77095 16.029C4.88472 16.1428 5.03903 16.2067 5.19993 16.2067H5.89326V21.4067C5.89372 21.9349 6.10364 22.4414 6.47699 22.8151C6.85034 23.1887 7.35664 23.3991 7.88486 23.4H19.4133C19.9418 23.3995 20.4485 23.1894 20.8223 22.8157C21.196 22.4419 21.4061 21.9352 21.4066 21.4067V4.59334C21.4061 4.06482 21.196 3.55807 20.8223 3.18435C20.4485 2.81062 19.9418 2.60047 19.4133 2.60001ZM20.1933 21.4067C20.1928 21.6134 20.1105 21.8115 19.9643 21.9577C19.8181 22.1039 19.62 22.1862 19.4133 22.1867H7.88486C7.67813 22.1862 7.48 22.1039 7.33382 21.9577C7.18764 21.8115 7.10532 21.6134 7.10486 21.4067V15.6243C7.10486 15.6243 7.10486 15.6087 7.10486 15.6C7.10486 15.5913 7.10486 15.5844 7.10486 15.5757V13.0243C7.10486 13.0243 7.10486 13.0087 7.10486 13C7.10486 12.9913 7.10486 12.9844 7.10486 12.9757V10.4243C7.10486 10.4243 7.10486 10.4087 7.10486 10.4C7.10486 10.3913 7.10486 10.3844 7.10486 10.3757V4.59334C7.10532 4.38661 7.18764 4.18848 7.33382 4.0423C7.48 3.89612 7.67813 3.8138 7.88486 3.81334H19.4133C19.62 3.8138 19.8181 3.89612 19.9643 4.0423C20.1105 4.18848 20.1928 4.38661 20.1933 4.59334V21.4067Z" fill="#151752"></path>
<path d="M9.0982 7.19334C8.9376 7.1938 8.78373 7.25792 8.67034 7.37164C8.55694 7.48536 8.49326 7.63941 8.49326 7.80001V18.2C8.49326 18.3609 8.55718 18.5152 8.67095 18.629C8.78472 18.7428 8.93903 18.8067 9.09993 18.8067C9.26083 18.8067 9.41513 18.7428 9.52891 18.629C9.64268 18.5152 9.70659 18.3609 9.70659 18.2V7.80001C9.70659 7.72019 9.69085 7.64116 9.66025 7.56744C9.62965 7.49373 9.58481 7.42677 9.52829 7.37041C9.47178 7.31406 9.40469 7.26941 9.33089 7.23902C9.25708 7.20863 9.17801 7.19311 9.0982 7.19334Z" fill="#151752"></path>
<path d="M11.6982 8.40667H14.2982C14.4591 8.40667 14.6134 8.34276 14.7272 8.22898C14.8409 8.11521 14.9049 7.9609 14.9049 7.80001C14.9049 7.63911 14.8409 7.4848 14.7272 7.37103C14.6134 7.25726 14.4591 7.19334 14.2982 7.19334H11.6982C11.5373 7.19334 11.383 7.25726 11.2692 7.37103C11.1554 7.4848 11.0915 7.63911 11.0915 7.80001C11.0915 7.9609 11.1554 8.11521 11.2692 8.22898C11.383 8.34276 11.5373 8.40667 11.6982 8.40667Z" fill="#151752"></path>
<path d="M16.7925 9.79334H11.6982C11.5373 9.79334 11.383 9.85726 11.2692 9.97103C11.1554 10.0848 11.0915 10.2391 11.0915 10.4C11.0915 10.5609 11.1554 10.7152 11.2692 10.829C11.383 10.9428 11.5373 11.0067 11.6982 11.0067H16.7925C16.9534 11.0067 17.1077 10.9428 17.2214 10.829C17.3352 10.7152 17.3991 10.5609 17.3991 10.4C17.3991 10.2391 17.3352 10.0848 17.2214 9.97103C17.1077 9.85726 16.9534 9.79334 16.7925 9.79334Z" fill="#151752"></path>
<path d="M15.5999 12.3933H11.6982C11.5373 12.3933 11.383 12.4573 11.2692 12.571C11.1554 12.6848 11.0915 12.8391 11.0915 13C11.0915 13.1609 11.1554 13.3152 11.2692 13.429C11.383 13.5428 11.5373 13.6067 11.6982 13.6067H15.5999C15.7608 13.6067 15.9151 13.5428 16.0289 13.429C16.1427 13.3152 16.2066 13.1609 16.2066 13C16.2066 12.8391 16.1427 12.6848 16.0289 12.571C15.9151 12.4573 15.7608 12.3933 15.5999 12.3933Z" fill="#151752"></path>
</g>
</g>
</g>
</g>
<defs>
<clipPath id="clip0_37_4033">
<rect width="26" height="26" fill="white"></rect>
</clipPath>
</defs>
</svg>