<svg width="26" height="26" viewBox="0 0 26 26" fill="none" xmlns="http://www.w3.org/2000/svg">
<g id="icon_ui_report-problem" clip-path="url(#clip0_37_4075)">
<g id="icon_ui_report-problem_2">
<g id="color_stroke">
<g id="Vector">
<path d="M13.0001 16.1755C12.8392 16.1755 12.6849 16.1116 12.5711 15.9978C12.4573 15.884 12.3934 15.7297 12.3934 15.5688V6.36135C12.3934 6.20045 12.4573 6.04615 12.5711 5.93237C12.6849 5.8186 12.8392 5.75469 13.0001 5.75469C13.161 5.75469 13.3153 5.8186 13.4291 5.93237C13.5428 6.04615 13.6067 6.20045 13.6067 6.36135V15.5688C13.6067 15.7297 13.5428 15.884 13.4291 15.9978C13.3153 16.1116 13.161 16.1755 13.0001 16.1755Z" fill="#151752"></path>
<path d="M13.0001 19.6387C13.4787 19.6387 13.8667 19.2507 13.8667 18.772C13.8667 18.2934 13.4787 17.9054 13.0001 17.9054C12.5214 17.9054 12.1334 18.2934 12.1334 18.772C12.1334 19.2507 12.5214 19.6387 13.0001 19.6387Z" fill="#151752"></path>
<path d="M13.0001 24.0067C10.8232 24.0067 8.69514 23.3612 6.8851 22.1517C5.07507 20.9423 3.66431 19.2233 2.83125 17.2121C1.99818 15.2009 1.78021 12.9878 2.2049 10.8527C2.6296 8.71764 3.67788 6.75644 5.21719 5.21713C6.7565 3.67782 8.7177 2.62954 10.8528 2.20484C12.9879 1.78015 15.2009 1.99812 17.2121 2.83118C19.2234 3.66425 20.9424 5.07501 22.1518 6.88504C23.3612 8.69508 24.0067 10.8231 24.0067 13C24.0031 15.918 22.8423 18.7155 20.7789 20.7789C18.7156 22.8422 15.9181 24.003 13.0001 24.0067ZM13.0001 3.20669C11.0631 3.20669 9.1697 3.78105 7.5592 4.85716C5.94869 5.93326 4.69345 7.46277 3.95222 9.25227C3.21099 11.0418 3.01704 13.0109 3.39492 14.9106C3.7728 16.8103 4.70552 18.5553 6.07515 19.925C7.44477 21.2946 9.18977 22.2273 11.0895 22.6052C12.9892 22.9831 14.9583 22.7891 16.7478 22.0479C18.5373 21.3066 20.0668 20.0514 21.1429 18.4409C22.219 16.8304 22.7934 14.937 22.7934 13C22.7902 10.4037 21.7574 7.91454 19.9215 6.07863C18.0856 4.24272 15.5964 3.2099 13.0001 3.20669Z" fill="#151752"></path>
</g>
</g>
</g>
</g>
<defs>
<clipPath id="clip0_37_4075">
<rect width="26" height="26" fill="white"></rect>
</clipPath>
</defs>
</svg>