<svg width="26" height="26" viewBox="0 0 26 26" fill="none" xmlns="http://www.w3.org/2000/svg">
<g id="icon_ui_pin" clip-path="url(#clip0_37_4039)">
<g id="icon_ui_pin_2">
<g id="color_stroke">
<path id="Vector" d="M16.0646 10.5456V5.76679C16.7957 5.62491 17.4547 5.23338 17.929 4.65918C18.4033 4.08498 18.6633 3.36381 18.6646 2.61906C18.6646 2.45816 18.6006 2.30385 18.4869 2.19008C18.3731 2.07631 18.2188 2.01239 18.0579 2.01239H7.65789C7.49699 2.01239 7.34268 2.07631 7.22891 2.19008C7.11514 2.30385 7.05122 2.45816 7.05122 2.61906C7.05212 3.36389 7.312 4.08524 7.78635 4.65951C8.26069 5.23377 8.91996 5.62522 9.65122 5.76679V10.5456C8.47849 11.1385 7.49313 12.0451 6.80464 13.1644C6.11615 14.2837 5.75151 15.572 5.75122 16.8861C5.75122 17.047 5.81514 17.2013 5.92891 17.3151C6.04268 17.4289 6.19699 17.4928 6.35789 17.4928H12.2512V23.3861C12.2512 23.547 12.3151 23.7013 12.4289 23.8151C12.5427 23.9289 12.697 23.9928 12.8579 23.9928C13.0188 23.9928 13.1731 23.9289 13.2869 23.8151C13.4006 23.7013 13.4646 23.547 13.4646 23.3861V17.4928H19.3579C19.5188 17.4928 19.6731 17.4289 19.7869 17.3151C19.9006 17.2013 19.9646 17.047 19.9646 16.8861C19.9643 15.572 19.5996 14.2837 18.9111 13.1644C18.2226 12.0451 17.2373 11.1385 16.0646 10.5456ZM6.99575 16.2795C7.10264 15.241 7.48346 14.2495 8.09927 13.4065C8.71507 12.5635 9.54376 11.8992 10.5006 11.4816L10.5248 11.4677C10.5515 11.4556 10.577 11.4411 10.6011 11.4244C10.6167 11.414 10.6288 11.4019 10.6427 11.3915C10.6566 11.3811 10.6756 11.3655 10.6912 11.3499L10.7259 11.3065C10.7397 11.2943 10.7524 11.281 10.764 11.2667C10.7744 11.2511 10.7814 11.2355 10.79 11.2199C10.7987 11.2043 10.8108 11.1817 10.8195 11.1627L10.8351 11.1124C10.8351 11.0916 10.849 11.0708 10.8524 11.05C10.8559 11.0292 10.8524 11.0032 10.8524 10.9789C10.8533 10.9645 10.8533 10.95 10.8524 10.9356V5.25546C10.8524 5.25546 10.8524 5.24332 10.8524 5.23639C10.8524 5.22946 10.8524 5.22426 10.8524 5.21906C10.8524 5.05816 10.7885 4.90385 10.6747 4.79008C10.561 4.67631 10.4067 4.61239 10.2458 4.61239C9.82191 4.61353 9.40871 4.47977 9.06593 4.23048C8.72315 3.98119 8.46859 3.62929 8.33909 3.22572H17.3368C17.2078 3.62788 16.9545 3.97877 16.6135 4.22793C16.2724 4.47709 15.8612 4.61169 15.4388 4.61239C15.2779 4.61239 15.1236 4.67631 15.0098 4.79008C14.8961 4.90385 14.8322 5.05816 14.8322 5.21906C14.8313 5.2248 14.8313 5.23064 14.8322 5.23639C14.8313 5.24272 14.8313 5.24913 14.8322 5.25546V10.92C14.8322 10.9391 14.8322 10.9564 14.8322 10.9755C14.8322 10.9945 14.8322 11.0136 14.8322 11.0327C14.8375 11.0568 14.8444 11.0805 14.853 11.1037C14.8562 11.1178 14.8602 11.1317 14.8651 11.1453C14.8755 11.1679 14.8859 11.1887 14.898 11.2095C14.9045 11.2233 14.912 11.2366 14.9206 11.2493C14.9329 11.2684 14.9468 11.2863 14.9622 11.3031C14.9716 11.3165 14.982 11.3293 14.9934 11.3412C15.0101 11.3581 15.028 11.3738 15.0471 11.388C15.0584 11.3987 15.0706 11.4086 15.0835 11.4175C15.109 11.4357 15.1363 11.4514 15.165 11.4643C15.1715 11.4684 15.1785 11.4719 15.1858 11.4747C16.149 11.8887 16.9844 12.5523 17.6056 13.3969C18.2269 14.2415 18.6116 15.2366 18.72 16.2795H6.99575Z" fill="#151752"></path>
</g>
</g>
</g>
<defs>
<clipPath id="clip0_37_4039">
<rect width="26" height="26" fill="white"></rect>
</clipPath>
</defs>
</svg>