<svg width="26" height="26" viewBox="0 0 26 26" fill="none" xmlns="http://www.w3.org/2000/svg">
<g id="icon_ui_voting" clip-path="url(#clip0_37_4093)">
<g id="icon_ui_voting_2">
<g id="color_stroke">
<path id="Vector" d="M21.4656 6.44108H17.5569L12.6828 1.53921C12.5655 1.42641 12.4087 1.36416 12.246 1.36588C12.165 1.3667 12.0851 1.38386 12.0109 1.41633C11.9367 1.44879 11.8699 1.4959 11.8144 1.55481L7.13437 6.44801H4.53437C4.01103 6.44892 3.5093 6.65687 3.13875 7.02645C2.7682 7.39602 2.55893 7.8972 2.55664 8.42055V21.32C2.5571 21.8446 2.76556 22.3475 3.13631 22.7186C3.50705 23.0897 4.00983 23.2986 4.53437 23.2995H21.4656C21.9901 23.2986 22.4929 23.0897 22.8636 22.7186C23.2344 22.3475 23.4429 21.8446 23.4433 21.32V8.42055C23.4429 7.896 23.2344 7.39304 22.8636 7.02197C22.4929 6.6509 21.9901 6.442 21.4656 6.44108ZM12.2616 2.83575L19.0337 9.64775L16.7076 12.1108H10.705L6.96971 8.37375L12.2616 2.83575ZM22.23 21.32C22.2295 21.5228 22.1489 21.7171 22.0057 21.8606C21.8625 22.0042 21.6683 22.0852 21.4656 22.0861H4.53437C4.33162 22.0852 4.13747 22.0042 3.99426 21.8606C3.85106 21.7171 3.77043 21.5228 3.76997 21.32V8.42055C3.76997 8.21766 3.85045 8.02305 3.99376 7.87942C4.13706 7.73579 4.33148 7.65487 4.53437 7.65441H5.97824L5.68184 7.96295C5.57247 8.07791 5.51235 8.23106 5.51429 8.38973C5.51624 8.54839 5.58009 8.70002 5.69224 8.81228L8.98557 12.1056H5.97304C5.81214 12.1056 5.65783 12.1695 5.54406 12.2833C5.43029 12.3971 5.36637 12.5514 5.36637 12.7123C5.36637 12.8732 5.43029 13.0275 5.54406 13.1413C5.65783 13.255 5.81214 13.3189 5.97304 13.3189H16.9693C17.0107 13.3187 17.052 13.3141 17.0924 13.3051C17.1328 13.3141 17.174 13.3187 17.2154 13.3189H20.0269C20.1878 13.3189 20.3421 13.255 20.4559 13.1413C20.5697 13.0275 20.6336 12.8732 20.6336 12.7123C20.6336 12.5514 20.5697 12.3971 20.4559 12.2833C20.3421 12.1695 20.1878 12.1056 20.0269 12.1056H18.3733L20.3198 10.0533C20.4281 9.93884 20.4875 9.78672 20.4855 9.62917C20.4836 9.47163 20.4204 9.32102 20.3094 9.20921L18.7633 7.64921H21.4656C21.6685 7.64967 21.8629 7.73059 22.0062 7.87422C22.1495 8.01785 22.23 8.21245 22.23 8.41535V21.32Z" fill="#151752"></path>
</g>
</g>
</g>
<defs>
<clipPath id="clip0_37_4093">
<rect width="26" height="26" fill="white"></rect>
</clipPath>
</defs>
</svg>