<svg width="26" height="26" viewBox="0 0 26 26" fill="none" xmlns="http://www.w3.org/2000/svg">
<g id="icon_ui_camera-off" clip-path="url(#clip0_37_3955)">
<g id="icon_ui_camera-off_2">
<g id="color_stroke">
<g id="Vector">
<path d="M4.04211 16.4164C4.203 16.4164 4.35731 16.3525 4.47109 16.2387C4.58486 16.1249 4.64877 15.9706 4.64877 15.8097V8.64413C4.64877 8.43727 4.73095 8.23887 4.87723 8.09259C5.02351 7.94631 5.2219 7.86414 5.42877 7.86414H15.1597C15.3206 7.86414 15.4749 7.80022 15.5887 7.68645C15.7025 7.57267 15.7664 7.41837 15.7664 7.25747C15.7664 7.09657 15.7025 6.94226 15.5887 6.82849C15.4749 6.71472 15.3206 6.6508 15.1597 6.6508H5.42877C4.90025 6.65126 4.3935 6.86142 4.01978 7.23514C3.64606 7.60887 3.4359 8.11561 3.43544 8.64413V15.8097C3.43544 15.9706 3.49936 16.1249 3.61313 16.2387C3.7269 16.3525 3.88121 16.4164 4.04211 16.4164Z" fill="#151752"></path>
<path d="M23.9425 10.1053C23.8727 10.0482 23.7911 10.0074 23.7035 9.9858C23.616 9.96421 23.5247 9.96241 23.4364 9.98054L19.0424 10.8888V8.63547C19.0415 8.35708 18.9825 8.08195 18.869 7.82774L20.8208 6.26774C20.9465 6.16729 21.0272 6.02101 21.0451 5.86108C21.0629 5.70115 21.0166 5.54067 20.9161 5.41494C20.8157 5.2892 20.6694 5.20853 20.5095 5.19065C20.3495 5.17277 20.189 5.21916 20.0633 5.3196L2.06264 19.7253C1.93691 19.8258 1.85623 19.9721 1.83835 20.132C1.82047 20.2919 1.86686 20.4524 1.96731 20.5781C2.06775 20.7039 2.21403 20.7845 2.37396 20.8024C2.53389 20.8203 2.69438 20.7739 2.82011 20.6735L4.39744 19.4116C4.70872 19.5994 5.06525 19.6988 5.42877 19.6993H17.0421C17.5706 19.6989 18.0774 19.4887 18.4511 19.115C18.8248 18.7413 19.035 18.2345 19.0354 17.706V15.4631L23.4294 16.3696C23.4699 16.378 23.5112 16.3821 23.5525 16.3817C23.6322 16.382 23.7112 16.3664 23.7849 16.336C23.8586 16.3056 23.9256 16.2609 23.982 16.2046C24.0384 16.1482 24.0831 16.0812 24.1135 16.0075C24.1439 15.9338 24.1594 15.8548 24.1592 15.7751V10.5733C24.1595 10.4842 24.1403 10.3961 24.1029 10.3152C24.0654 10.2344 24.0107 10.1627 23.9425 10.1053ZM17.049 18.486H5.54664L17.829 8.66667V17.7025C17.8295 17.8053 17.8097 17.9071 17.7707 18.0021C17.7317 18.0971 17.6743 18.1835 17.6018 18.2563C17.5293 18.3291 17.4432 18.3869 17.3483 18.4263C17.2535 18.4657 17.1518 18.486 17.049 18.486ZM22.9528 15.0315L19.129 14.2411V12.1091L22.9528 11.3204V15.0315Z" fill="#151752"></path>
</g>
</g>
</g>
</g>
<defs>
<clipPath id="clip0_37_3955">
<rect width="26" height="26" fill="white"></rect>
</clipPath>
</defs>
</svg>