<svg viewBox="0 0 26 26" fill="none" xmlns="http://www.w3.org/2000/svg">
<g id="icon_ui_camera-on" clip-path="url(#clip0_37_3961)">
<g id="icon_ui_camera-on_2">
<g id="color_stroke">
<path id="Vector" d="M23.1417 9.93027C23.0719 9.87316 22.9903 9.83233 22.9028 9.81074C22.8152 9.78915 22.7239 9.78735 22.6356 9.80547L18.2416 10.7137V8.4604C18.2411 7.93188 18.031 7.42514 17.6573 7.05141C17.2835 6.67769 16.7768 6.46753 16.2483 6.46707H4.63493C4.10641 6.46753 3.59967 6.67769 3.22594 7.05141C2.85222 7.42514 2.64206 7.93188 2.6416 8.4604V17.5223C2.64206 18.0508 2.85222 18.5575 3.22594 18.9313C3.59967 19.305 4.10641 19.5151 4.63493 19.5156H16.2483C16.7768 19.5151 17.2835 19.305 17.6573 18.9313C18.031 18.5575 18.2411 18.0508 18.2416 17.5223V15.2689L22.6356 16.1772C22.6761 16.1855 22.7173 16.1896 22.7587 16.1893C22.9194 16.1889 23.0735 16.1248 23.1871 16.0111C23.3008 15.8975 23.3649 15.7434 23.3653 15.5827V10.4C23.3655 10.31 23.3455 10.2211 23.3068 10.1398C23.2681 10.0585 23.2117 9.98692 23.1417 9.93027ZM17.0283 17.5309C17.0283 17.7378 16.9461 17.9362 16.7998 18.0825C16.6535 18.2288 16.4551 18.3109 16.2483 18.3109H4.63493C4.42821 18.3105 4.23008 18.2282 4.0839 18.082C3.93772 17.9358 3.85539 17.7377 3.85493 17.5309V8.46907C3.85539 8.26234 3.93772 8.06421 4.0839 7.91803C4.23008 7.77185 4.42821 7.68953 4.63493 7.68907H16.2483C16.4551 7.68907 16.6535 7.77125 16.7998 7.91753C16.9461 8.06381 17.0283 8.2622 17.0283 8.46907V17.5309ZM22.152 14.8547L18.3283 14.066V11.934L22.152 11.1453V14.8547Z" fill="#151752"></path>
</g>
</g>
</g>
<defs>
<clipPath id="clip0_37_3961">
<rect width="26" height="26" fill="white"></rect>
</clipPath>
</defs>
</svg>
