<svg viewBox="0 0 26 26" fill="none" xmlns="http://www.w3.org/2000/svg">
<g id="icon_menu_settings" clip-path="url(#clip0_51_14)">
<g id="icon_menu_settings_2">
<g id="color_stroke">
<g id="Vector">
<path d="M22.7711 10.0164H21.2899C21.1777 9.69407 21.0467 9.37858 20.8976 9.07155L21.9471 8.02232C22.1911 7.77738 22.328 7.44565 22.3277 7.0999C22.3274 6.75416 22.19 6.42265 21.9456 6.17812L19.72 3.95144C19.4733 3.71022 19.1413 3.57619 18.7963 3.57854H18.7943C18.4504 3.57643 18.1196 3.71017 17.8738 3.95069L16.8259 4.99863C16.5185 4.84931 16.2026 4.71824 15.8798 4.60609V3.12506C15.8794 2.77906 15.7418 2.44735 15.4971 2.2027C15.2524 1.95805 14.9207 1.82044 14.5747 1.82007H11.425C11.079 1.82046 10.7473 1.95808 10.5027 2.20273C10.258 2.44738 10.1204 2.77908 10.12 3.12506V4.60601C9.7974 4.71801 9.48172 4.84903 9.17462 4.99838L8.127 3.95068C7.8802 3.70989 7.54843 3.57609 7.20363 3.57828H7.19991C6.8566 3.57661 6.5265 3.7105 6.28136 3.95085L4.05723 6.176C3.9356 6.29707 3.83906 6.44094 3.77312 6.59938C3.70719 6.75781 3.67316 6.9277 3.67297 7.09931C3.67279 7.27091 3.70647 7.44087 3.77207 7.59945C3.83767 7.75802 3.93391 7.9021 4.05528 8.02342L5.1034 9.07146C4.95441 9.37837 4.82348 9.69372 4.71128 10.0159H3.22915C2.88294 10.0165 2.55109 10.1544 2.30643 10.3993C2.06176 10.6443 1.92425 10.9763 1.92407 11.3225V14.6775C1.92425 15.0238 2.06176 15.3558 2.30643 15.6007C2.55109 15.8457 2.88294 15.9836 3.22915 15.9841H4.71129C4.82345 16.3063 4.95437 16.6217 5.1034 16.9286L4.05552 17.9765C3.93423 18.0976 3.83801 18.2415 3.77237 18.3999C3.70673 18.5583 3.67295 18.7281 3.67297 18.8995C3.67298 19.071 3.7068 19.2407 3.77247 19.3991C3.83814 19.5575 3.93438 19.7014 4.0557 19.8225L6.27839 22.0462C6.52392 22.2882 6.85519 22.4232 7.1999 22.4218H7.20363C7.54843 22.424 7.8802 22.2902 8.127 22.0494L9.17462 21.0017C9.48172 21.1511 9.7974 21.2821 10.12 21.3941V22.875C10.1204 23.221 10.258 23.5527 10.5026 23.7974C10.7473 24.042 11.079 24.1797 11.425 24.1801H14.5747C14.9207 24.1797 15.2524 24.0421 15.4971 23.7974C15.7418 23.5527 15.8794 23.221 15.8798 22.875V21.3939C16.2026 21.2818 16.5185 21.1507 16.8259 21.0014L17.8715 22.047C18.1176 22.2889 18.4495 22.4235 18.7945 22.4215H18.7964C19.1411 22.4239 19.4728 22.2901 19.7194 22.0492L21.9441 19.8235C22.0656 19.7024 22.162 19.5584 22.2278 19.4C22.2937 19.2415 22.3276 19.0717 22.3277 18.9001C22.3279 18.7285 22.2942 18.5585 22.2286 18.4C22.163 18.2414 22.0667 18.0974 21.9454 17.976L20.8976 16.9286C21.0467 16.6215 21.1777 16.306 21.2899 15.9836H22.7711C23.1171 15.9832 23.4488 15.8456 23.6935 15.601C23.9381 15.3563 24.0757 15.0246 24.0761 14.6786V11.3215C24.0758 10.9755 23.9381 10.6438 23.6935 10.3991C23.4488 10.1544 23.1171 10.0168 22.7711 10.0164ZM22.5161 14.4236H20.7156C20.5445 14.4236 20.3781 14.4799 20.2421 14.5838C20.1062 14.6876 20.0081 14.8333 19.9631 14.9984C19.8023 15.5881 19.5669 16.1548 19.2626 16.6849C19.1773 16.8335 19.1433 17.0061 19.1658 17.1761C19.1884 17.346 19.2663 17.5038 19.3876 17.625L20.6623 18.8993L18.7965 20.7659L17.522 19.4914C17.4008 19.3702 17.243 19.2923 17.0731 19.2697C16.9032 19.2472 16.7305 19.2812 16.5819 19.3666C16.0521 19.671 15.4854 19.9061 14.8957 20.0661C14.7304 20.1109 14.5844 20.209 14.4803 20.345C14.3762 20.4811 14.3198 20.6476 14.3198 20.819V22.6201H11.68V20.8189C11.68 20.6476 11.6235 20.4809 11.5194 20.3448C11.4152 20.2088 11.2691 20.1108 11.1036 20.066C10.5145 19.9065 9.94841 19.6715 9.41947 19.3669C9.2708 19.2814 9.09807 19.2472 8.92802 19.2697C8.75796 19.2921 8.60005 19.3701 8.47875 19.4913L7.20423 20.7659L5.33869 18.8995L6.6133 17.6249C6.73444 17.5037 6.81232 17.346 6.83491 17.1762C6.8575 17.0063 6.82356 16.8338 6.73831 16.6852C6.43422 16.1552 6.19898 15.5887 6.03829 14.9992C5.99333 14.8341 5.89529 14.6883 5.75929 14.5844C5.62329 14.4804 5.45687 14.4241 5.28571 14.4242H3.48408V11.5759H5.28571C5.45687 11.5759 5.62329 11.5196 5.75929 11.4157C5.89529 11.3118 5.99333 11.166 6.03828 11.0008C6.19901 10.4113 6.43425 9.84476 6.7383 9.3148C6.82355 9.16619 6.85751 8.99364 6.83491 8.82381C6.81232 8.65398 6.73444 8.49632 6.6133 8.37516L5.33869 7.10064L7.20423 5.23418L8.47875 6.5087C8.60001 6.63003 8.7579 6.70798 8.92796 6.73048C9.09802 6.75297 9.27075 6.71875 9.41939 6.63312C9.94842 6.3286 10.5145 6.09363 11.1037 5.93403C11.2691 5.88927 11.4152 5.79127 11.5194 5.65518C11.6236 5.51909 11.68 5.35249 11.68 5.18111V3.38007H14.3198V5.18111C14.3198 5.35242 14.3762 5.51897 14.4803 5.65503C14.5844 5.79109 14.7304 5.88911 14.8957 5.93394C15.4854 6.09391 16.0521 6.32901 16.5819 6.63345C16.7306 6.71881 16.9032 6.75285 17.0731 6.7303C17.243 6.70776 17.4008 6.62987 17.522 6.5087L18.7965 5.23418L20.6623 7.10089L19.3876 8.37516C19.2663 8.49636 19.1884 8.65413 19.1658 8.82406C19.1432 8.994 19.1773 9.16664 19.2627 9.31529C19.5669 9.84532 19.8023 10.412 19.9631 11.0017C20.0081 11.1667 20.1062 11.3124 20.2421 11.4163C20.3781 11.5201 20.5445 11.5764 20.7156 11.5764H22.5161L22.5161 14.4236Z" fill="white"></path>
<path d="M13.0001 8.84946C12.1792 8.84945 11.3768 9.09287 10.6942 9.54894C10.0116 10.005 9.47965 10.6532 9.16549 11.4116C8.85134 12.17 8.76914 13.0046 8.92928 13.8097C9.08942 14.6149 9.48471 15.3544 10.0652 15.9349C10.6456 16.5154 11.3852 16.9107 12.1903 17.0708C12.9955 17.231 13.83 17.1488 14.5884 16.8347C15.3468 16.5205 15.9951 15.9885 16.4511 15.306C16.9072 14.6234 17.1507 13.821 17.1507 13.0001C17.1494 11.8997 16.7117 10.8447 15.9336 10.0666C15.1555 9.28845 14.1006 8.85074 13.0001 8.84946ZM13.0001 15.5906C12.4878 15.5906 11.9869 15.4387 11.5609 15.154C11.1349 14.8694 10.8028 14.4648 10.6067 13.9914C10.4107 13.518 10.3594 12.9972 10.4593 12.4946C10.5593 11.9921 10.806 11.5305 11.1683 11.1682C11.5306 10.8059 11.9922 10.5592 12.4947 10.4592C12.9972 10.3593 13.5181 10.4106 13.9915 10.6067C14.4648 10.8027 14.8694 11.1348 15.1541 11.5608C15.4387 11.9868 15.5907 12.4877 15.5907 13.0001C15.5899 13.6869 15.3167 14.3453 14.831 14.831C14.3454 15.3166 13.6869 15.5898 13.0001 15.5906Z" fill="white"></path>
</g>
</g>
</g>
</g>
<defs>
<clipPath id="clip0_51_14">
<rect width="26" height="26" fill="white"></rect>
</clipPath>
</defs>
</svg>
