<svg viewBox="0 0 26 26" fill="none" xmlns="http://www.w3.org/2000/svg">
<g id="icon_menu_participants" clip-path="url(#clip0_51_12)">
<g id="icon_menu_participants_2">
<g id="color_stroke">
<g id="Vector">
<path d="M7.5331 13.8232C8.2665 13.8232 8.98342 13.6058 9.59322 13.1983C10.203 12.7909 10.6783 12.2118 10.959 11.5342C11.2396 10.8566 11.3131 10.111 11.17 9.39174C11.0269 8.67244 10.6737 8.01172 10.1552 7.49313C9.63657 6.97454 8.97585 6.62138 8.25655 6.4783C7.53724 6.33523 6.79167 6.40866 6.1141 6.68933C5.43653 6.96999 4.85741 7.44527 4.44996 8.05507C4.04252 8.66487 3.82505 9.38179 3.82505 10.1152C3.82617 11.0983 4.2172 12.0408 4.91235 12.7359C5.6075 13.4311 6.55001 13.8221 7.5331 13.8232ZM7.5331 7.96706C7.95795 7.96705 8.37327 8.09302 8.72652 8.32905C9.07978 8.56508 9.35511 8.90056 9.5177 9.29307C9.68029 9.68558 9.72284 10.1175 9.63997 10.5342C9.55709 10.9509 9.35251 11.3336 9.0521 11.634C8.75169 11.9345 8.36894 12.1391 7.95226 12.222C7.53557 12.3048 7.10366 12.2623 6.71114 12.0997C6.31863 11.9372 5.98314 11.6618 5.7471 11.3086C5.51105 10.9553 5.38506 10.54 5.38505 10.1152C5.3857 9.54568 5.61222 8.99968 6.01491 8.59697C6.41761 8.19426 6.9636 7.96773 7.5331 7.96706Z" fill="white"></path>
<path d="M18.3802 9.23625C19.1136 9.23626 19.8305 9.01879 20.4403 8.61135C21.0501 8.2039 21.5254 7.62478 21.8061 6.94722C22.0867 6.26966 22.1602 5.52409 22.0171 4.80479C21.8741 4.08549 21.5209 3.42476 21.0023 2.90617C20.4837 2.38758 19.823 2.03441 19.1037 1.89133C18.3844 1.74824 17.6389 1.82167 16.9613 2.10232C16.2837 2.38296 15.7046 2.85823 15.2971 3.46802C14.8897 4.07781 14.6722 4.79473 14.6722 5.52812C14.6733 6.51122 15.0643 7.45375 15.7595 8.14892C16.4546 8.84409 17.3971 9.23513 18.3802 9.23625ZM18.3802 3.38007C18.8051 3.38006 19.2204 3.50604 19.5737 3.74207C19.9269 3.9781 20.2022 4.31359 20.3648 4.7061C20.5274 5.09862 20.57 5.53053 20.4871 5.94722C20.4042 6.36391 20.1996 6.74667 19.8992 7.04709C19.5988 7.34751 19.216 7.55209 18.7993 7.63497C18.3826 7.71786 17.9507 7.67531 17.5582 7.51273C17.1657 7.35014 16.8302 7.0748 16.5942 6.72155C16.3582 6.36829 16.2322 5.95297 16.2322 5.52812C16.2328 4.95862 16.4594 4.41263 16.8621 4.00994C17.2647 3.60724 17.8107 3.38072 18.3802 3.38007Z" fill="white"></path>
<path d="M19.3708 10.3678H17.3897C15.9538 10.3695 14.5772 10.9406 13.5619 11.9559C12.5466 12.9713 11.9755 14.3479 11.9738 15.7838V16.1993C11.0046 15.394 9.78383 14.9537 8.52367 14.9549H6.54261C5.10672 14.9565 3.73011 15.5276 2.71478 16.543C1.69945 17.5583 1.12833 18.9349 1.12671 20.3708V23.4001C1.12671 23.5025 1.14688 23.6039 1.18608 23.6986C1.22528 23.7932 1.28273 23.8792 1.35516 23.9516C1.42759 24.024 1.51358 24.0815 1.60821 24.1207C1.70285 24.1599 1.80428 24.1801 1.90671 24.1801H13.1596C13.262 24.1801 13.3634 24.1599 13.4581 24.1207C13.5527 24.0815 13.6387 24.024 13.7111 23.9516C13.7836 23.8792 13.841 23.7932 13.8802 23.6986C13.9194 23.6039 13.9396 23.5025 13.9396 23.4001V20.3708C13.9394 20.0791 13.9156 19.7879 13.8687 19.5001H24.0067C24.1091 19.5001 24.2106 19.4799 24.3052 19.4407C24.3998 19.4015 24.4858 19.344 24.5583 19.2716C24.6307 19.1992 24.6881 19.1132 24.7273 19.0186C24.7665 18.9239 24.7867 18.8225 24.7867 18.7201V15.7838C24.7851 14.3479 24.214 12.9713 23.1987 11.9559C22.1833 10.9406 20.8067 10.3695 19.3708 10.3678ZM12.3796 22.6201H2.68671V20.3708C2.68788 19.3485 3.0945 18.3684 3.81737 17.6456C4.54024 16.9227 5.52032 16.5161 6.54261 16.5149H8.52367C9.54597 16.5161 10.5261 16.9227 11.2489 17.6456C11.9718 18.3684 12.3784 19.3485 12.3796 20.3708L12.3796 22.6201ZM23.2267 17.9401H13.5338V15.7838C13.535 14.7615 13.9416 13.7814 14.6645 13.0585C15.3873 12.3356 16.3674 11.929 17.3897 11.9278H19.3708C20.3931 11.929 21.3732 12.3356 22.0961 13.0585C22.8189 13.7814 23.2256 14.7615 23.2267 15.7838L23.2267 17.9401Z" fill="white"></path>
</g>
</g>
</g>
</g>
<defs>
<clipPath id="clip0_51_12">
<rect width="26" height="26" fill="white"></rect>
</clipPath>
</defs>
</svg>
