<svg viewBox="0 0 26 26" fill="none" xmlns="http://www.w3.org/2000/svg">
<g id="icon_menu_button-show-table" clip-path="url(#clip0_37_126)">
<g id="icon_menu_button-show-table_2">
<g id="color_stroke">
<g id="Vector">
<path d="M2.60005 4.53613H23.4001C23.5327 4.5417 23.6651 4.52038 23.7893 4.47346C23.9135 4.42654 24.0269 4.35498 24.1228 4.26309C24.2186 4.1712 24.2948 4.06087 24.3469 3.93875C24.399 3.81663 24.4259 3.68523 24.4259 3.55247C24.4259 3.4197 24.399 3.2883 24.3469 3.16618C24.2948 3.04406 24.2186 2.93373 24.1228 2.84184C24.0269 2.74995 23.9135 2.67839 23.7893 2.63147C23.6651 2.58455 23.5327 2.56323 23.4001 2.5688H2.60005C2.4674 2.56323 2.335 2.58455 2.2108 2.63147C2.0866 2.67839 1.97317 2.74995 1.87734 2.84184C1.78151 2.93373 1.70526 3.04406 1.65316 3.16618C1.60107 3.2883 1.57422 3.4197 1.57422 3.55247C1.57422 3.68523 1.60107 3.81663 1.65316 3.93875C1.70526 4.06087 1.78151 4.1712 1.87734 4.26309C1.97317 4.35498 2.0866 4.42654 2.2108 4.47346C2.335 4.52038 2.4674 4.5417 2.60005 4.53613Z" fill="#06064D"></path>
<path d="M23.4001 8.84866H2.60005C2.4674 8.8431 2.335 8.86441 2.2108 8.91134C2.0866 8.95826 1.97317 9.02982 1.87734 9.12171C1.78151 9.2136 1.70526 9.32392 1.65316 9.44605C1.60107 9.56817 1.57422 9.69956 1.57422 9.83233C1.57422 9.9651 1.60107 10.0965 1.65316 10.2186C1.70526 10.3407 1.78151 10.4511 1.87734 10.543C1.97317 10.6348 2.0866 10.7064 2.2108 10.7533C2.335 10.8003 2.4674 10.8216 2.60005 10.816H23.4001C23.5327 10.8216 23.6651 10.8003 23.7893 10.7533C23.9135 10.7064 24.0269 10.6348 24.1228 10.543C24.2186 10.4511 24.2948 10.3407 24.3469 10.2186C24.399 10.0965 24.4259 9.9651 24.4259 9.83233C24.4259 9.69956 24.399 9.56817 24.3469 9.44605C24.2948 9.32392 24.2186 9.2136 24.1228 9.12171C24.0269 9.02982 23.9135 8.95826 23.7893 8.91134C23.6651 8.86441 23.5327 8.8431 23.4001 8.84866Z" fill="#06064D"></path>
<path d="M23.4001 15.1303H2.60005C2.4674 15.1247 2.335 15.146 2.2108 15.1929C2.0866 15.2399 1.97317 15.3114 1.87734 15.4033C1.78151 15.4952 1.70526 15.6055 1.65316 15.7276C1.60107 15.8498 1.57422 15.9812 1.57422 16.1139C1.57422 16.2467 1.60107 16.3781 1.65316 16.5002C1.70526 16.6223 1.78151 16.7327 1.87734 16.8246C1.97317 16.9164 2.0866 16.988 2.2108 17.0349C2.335 17.0819 2.4674 17.1032 2.60005 17.0976H23.4001C23.5327 17.1032 23.6651 17.0819 23.7893 17.0349C23.9135 16.988 24.0269 16.9164 24.1228 16.8246C24.2186 16.7327 24.2948 16.6223 24.3469 16.5002C24.399 16.3781 24.4259 16.2467 24.4259 16.1139C24.4259 15.9812 24.399 15.8498 24.3469 15.7276C24.2948 15.6055 24.2186 15.4952 24.1228 15.4033C24.0269 15.3114 23.9135 15.2399 23.7893 15.1929C23.6651 15.146 23.5327 15.1247 23.4001 15.1303Z" fill="#06064D"></path>
<path d="M23.4001 21.4119H2.60005C2.4674 21.4063 2.335 21.4276 2.2108 21.4745C2.0866 21.5215 1.97317 21.593 1.87734 21.6849C1.78151 21.7768 1.70526 21.8871 1.65316 22.0092C1.60107 22.1314 1.57422 22.2628 1.57422 22.3955C1.57422 22.5283 1.60107 22.6597 1.65316 22.7818C1.70526 22.9039 1.78151 23.0143 1.87734 23.1062C1.97317 23.198 2.0866 23.2696 2.2108 23.3165C2.335 23.3635 2.4674 23.3848 2.60005 23.3792H23.4001C23.5327 23.3848 23.6651 23.3635 23.7893 23.3165C23.9135 23.2696 24.0269 23.198 24.1228 23.1062C24.2186 23.0143 24.2948 22.9039 24.3469 22.7818C24.399 22.6597 24.4259 22.5283 24.4259 22.3955C24.4259 22.2628 24.399 22.1314 24.3469 22.0092C24.2948 21.8871 24.2186 21.7768 24.1228 21.6849C24.0269 21.593 23.9135 21.5215 23.7893 21.4745C23.6651 21.4276 23.5327 21.4063 23.4001 21.4119Z" fill="#06064D"></path>
</g>
</g>
</g>
</g>
<defs>
<clipPath id="clip0_37_126">
<rect width="26" height="26" fill="white"></rect>
</clipPath>
</defs>
</svg>
