<svg width="200" height="140" viewBox="0 0 200 140" fill="none" xmlns="http://www.w3.org/2000/svg">
<g id="illu_spot_delivered_simple/Default" clip-path="url(#clip0_66_3974)">
<g id="illu_spot_delivered_simple">
<g id="background">
<path d="M12.9063 24.7333C17.7836 24.7333 21.7375 20.797 21.7375 15.9413C21.7375 11.0856 17.7836 7.14932 12.9063 7.14932C8.0289 7.14932 4.07501 11.0856 4.07501 15.9413C4.07501 20.797 8.0289 24.7333 12.9063 24.7333Z" fill="#2BF5BA"></path>
<path d="M177.219 133.716C183.536 133.716 188.656 128.618 188.656 122.329C188.656 116.04 183.536 110.942 177.219 110.942C170.902 110.942 165.781 116.04 165.781 122.329C165.781 128.618 170.902 133.716 177.219 133.716Z" fill="#2BF5BA"></path>
<path d="M20.1375 133.933C21.9255 133.933 23.375 132.49 23.375 130.71C23.375 128.93 21.9255 127.487 20.1375 127.487C18.3495 127.487 16.9 128.93 16.9 130.71C16.9 132.49 18.3495 133.933 20.1375 133.933Z" fill="#2BF5BA"></path>
<path d="M30.575 12.5129C32.363 12.5129 33.8125 11.0698 33.8125 9.28976C33.8125 7.50969 32.363 6.06665 30.575 6.06665C28.787 6.06665 27.3375 7.50969 27.3375 9.28976C27.3375 11.0698 28.787 12.5129 30.575 12.5129Z" fill="#2BF5BA"></path>
<path d="M37.925 128.271C3.30001 111.558 1.06251 66.5466 10.8438 45.7706C28.8875 7.4542 64.6375 17.192 100.55 14.6035C144.075 11.4613 178.638 25.368 192.181 61.6871C206.369 99.7235 177.994 107.819 144.738 115.472C129.8 118.907 68.5125 143.036 37.925 128.277V128.271Z" fill="#2BF5BA"></path>
</g>
<g id="illu_spot_delivered_simple_2">
<g id="stroke">
<path id="Vector" d="M156.012 49.2053H93.6687C91.4562 49.2053 89.6625 50.9973 89.6625 53.1938V74.4862H71.125C69.4687 74.4862 68.1187 75.8302 68.1187 77.4791V103.55C68.1187 105.199 69.4687 106.543 71.125 106.543H119.206C120.862 106.543 122.212 105.199 122.212 103.55V90.8258H156.019C158.231 90.8258 160.025 89.0338 160.025 86.8373V53.1938C160.025 50.9911 158.225 49.2053 156.019 49.2053H156.012Z" fill="#2AEDB4"></path>
<g id="Group">
<g id="Group_2">
<g id="Group_3">
<path id="Vector_2" d="M156.1 47.3013H93.75C91.71 47.3013 90.0562 48.9477 90.0562 50.9787V84.6222C90.0562 86.6532 91.71 88.2996 93.75 88.2996H156.1C158.14 88.2996 159.794 86.6532 159.794 84.6222V50.9787C159.794 48.9477 158.14 47.3013 156.1 47.3013Z" fill="white"></path>
<g id="Group_4">
<path id="Vector_3" d="M159.787 54.5502C159.787 52.0053 157.825 49.9458 155.406 49.9458H94.4375C92.0188 49.9458 90.0562 52.0053 90.0562 54.5502V56.1555V56.2053L121.763 83.2471C123.656 84.8649 126.456 84.8649 128.356 83.2471L158.819 57.3129C159.438 56.7902 159.794 56.0187 159.787 55.2098V54.544V54.5502Z" fill="#EDEDED"></path>
<path id="Vector_4" d="M159.787 51.9058C159.787 49.3609 157.825 47.3013 155.406 47.3013H94.4375C92.0187 47.3013 90.0562 49.3609 90.0562 51.9058V53.5111V53.5609L123.375 81.9778C124.344 82.8053 125.775 82.8053 126.75 81.9778L159.694 53.9342C159.762 53.8782 159.8 53.7973 159.8 53.704V51.8996L159.787 51.9058Z" fill="white"></path>
</g>
<path id="Vector_5" d="M156.094 88.6107H93.75C91.5375 88.6107 89.7437 86.8187 89.7437 84.6222V50.9787C89.7437 48.776 91.5437 46.9902 93.75 46.9902H156.094C158.306 46.9902 160.1 48.7822 160.1 50.9787V84.6222C160.1 86.8249 158.3 88.6107 156.094 88.6107ZM93.75 47.6124C91.8875 47.6124 90.3687 49.1244 90.3687 50.9787V84.6222C90.3687 86.4764 91.8875 87.9884 93.75 87.9884H156.094C157.956 87.9884 159.475 86.4764 159.475 84.6222V50.9787C159.475 49.1244 157.956 47.6124 156.094 47.6124H93.75Z" fill="#07064E"></path>
<path id="Vector_6" d="M125.056 83.0106C124.456 83.0106 123.85 82.7991 123.362 82.3822L89.925 53.872C89.7937 53.76 89.7812 53.5609 89.8937 53.4302C90.0062 53.2995 90.2062 53.2809 90.3375 53.3991L123.775 81.9093C124.519 82.544 125.606 82.544 126.35 81.9093L159.531 53.6604C159.662 53.5484 159.862 53.5671 159.969 53.6915C160.081 53.8222 160.062 54.0213 159.931 54.1333L126.75 82.3822C126.256 82.7991 125.656 83.0106 125.056 83.0106Z" fill="#07064E"></path>
</g>
<g id="Group_5">
<path id="Vector_7" d="M119.281 72.5822H71.2063C69.7185 72.5822 68.5125 73.7829 68.5125 75.264V101.335C68.5125 102.816 69.7185 104.017 71.2063 104.017H119.281C120.769 104.017 121.975 102.816 121.975 101.335V75.264C121.975 73.7829 120.769 72.5822 119.281 72.5822Z" fill="white"></path>
<g id="Group_6">
<path id="Vector_8" d="M121.975 78.7609C121.975 76.8133 120.469 75.2329 118.613 75.2329H71.8688C70.0125 75.2329 68.5063 76.8133 68.5063 78.7609V79.9929V80.0302L93.1188 101.024C94.4 102.119 96.2875 102.119 97.5688 101.024L121.388 80.7458C121.756 80.4284 121.969 79.968 121.969 79.4827V78.7609H121.975Z" fill="#EDEDED"></path>
<path id="Vector_9" d="M121.975 76.1102C121.975 74.1627 120.469 72.5822 118.613 72.5822H71.8688C70.0125 72.5822 68.5063 74.1627 68.5063 76.1102V77.3422V77.3795L93.1188 98.3733C94.4 99.4684 96.2875 99.4684 97.5688 98.3733L121.388 78.0951C121.756 77.7778 121.969 77.3173 121.969 76.832V76.1102H121.975Z" fill="white"></path>
</g>
<path id="Vector_10" d="M119.281 104.328H71.2C69.5438 104.328 68.1938 102.984 68.1938 101.335V75.264C68.1938 73.6151 69.5438 72.2711 71.2 72.2711H119.281C120.938 72.2711 122.288 73.6151 122.288 75.264V101.335C122.288 102.984 120.938 104.328 119.281 104.328ZM71.2 72.8933C69.8875 72.8933 68.8188 73.9573 68.8188 75.264V101.335C68.8188 102.642 69.8875 103.706 71.2 103.706H119.281C120.594 103.706 121.663 102.642 121.663 101.335V75.264C121.663 73.9573 120.594 72.8933 119.281 72.8933H71.2Z" fill="#07064E"></path>
<path id="Vector_11" d="M95.35 100.035C94.8688 100.035 94.3938 99.8666 94 99.5369L68.3688 77.6782C68.2375 77.5662 68.225 77.3671 68.3375 77.2364C68.45 77.1057 68.65 77.0933 68.7813 77.2053L94.4188 99.064C94.9625 99.5306 95.7563 99.5306 96.3 99.064L121.744 77.4044C121.875 77.2924 122.075 77.3111 122.181 77.4355C122.294 77.5662 122.275 77.7653 122.144 77.8773L96.7 99.5369C96.3125 99.8666 95.8313 100.035 95.3563 100.035H95.35Z" fill="#07064E"></path>
</g>
</g>
<g id="Group_7">
<path id="Vector_12" d="M49.95 58.1778C49.775 58.1778 49.6375 58.041 49.6375 57.8667C49.6375 57.6925 49.775 57.5556 49.95 57.5556H79.325C79.5 57.5494 79.6375 57.6863 79.6375 57.8605C79.6375 58.0347 79.5 58.1716 79.325 58.1716H49.95V58.1778Z" fill="#07064E"></path>
<path id="Vector_13" d="M43.1125 58.1715L32.7313 58.1591C32.5563 58.1591 32.4188 58.0222 32.4188 57.848C32.4188 57.6738 32.5563 57.5369 32.7313 57.5369L43.1125 57.5493C43.2875 57.5493 43.425 57.6862 43.425 57.8604C43.425 58.0346 43.2875 58.1715 43.1125 58.1715Z" fill="white"></path>
<path id="Vector_14" d="M49.95 83.9564C49.775 83.9564 49.6375 83.8195 49.6375 83.6453C49.6375 83.4711 49.775 83.3342 49.95 83.3342H58.625V83.328C58.8 83.328 58.9375 83.4649 58.9375 83.6391C58.9375 83.8133 58.8 83.9502 58.625 83.9502H49.95V83.9564Z" fill="#07064E"></path>
<path id="Vector_15" d="M43.1125 83.9502L32.7313 83.9377C32.5563 83.9377 32.4188 83.8009 32.4188 83.6266C32.4188 83.4524 32.5563 83.3155 32.7313 83.3155L43.1125 83.328C43.2875 83.328 43.425 83.4649 43.425 83.6391C43.425 83.8133 43.2875 83.9502 43.1125 83.9502Z" fill="white"></path>
<path id="Vector_16" d="M35.4125 70.7715C35.2375 70.7715 35.1 70.6346 35.1 70.4604C35.1 70.2862 35.2375 70.1493 35.4125 70.1493H55.9125C56.0875 70.1431 56.225 70.28 56.225 70.4542C56.225 70.6284 56.0875 70.7653 55.9125 70.7653H35.4125V70.7715Z" fill="#07064E"></path>
<path id="Vector_17" d="M28.5687 70.7653L18.1875 70.7529C18.0125 70.7529 17.875 70.616 17.875 70.4418C17.875 70.2675 18.0125 70.1306 18.1875 70.1306L28.5687 70.1431C28.7437 70.1431 28.8812 70.28 28.8812 70.4542C28.8812 70.6284 28.7437 70.7653 28.5687 70.7653Z" fill="white"></path>
</g>
</g>
</g>
</g>
</g>
</g>
<defs>
<clipPath id="clip0_66_3974">
<rect width="200" height="140" fill="white"></rect>
</clipPath>
</defs>
</svg>