<svg width="200" height="140" viewBox="0 0 200 140" fill="none" xmlns="http://www.w3.org/2000/svg">
<g id="illu_spot_answers-question-public_simple/Default" clip-path="url(#clip0_66_4292)">
<g id="illu_spot_answers-question-public_simple">
<g id="background">
<path d="M12.46 31.54C6.30003 31.455 1.70503 27.285 2.19003 22.23C2.67503 17.175 8.06503 13.15 14.225 13.235C20.385 13.32 24.98 17.49 24.495 22.545C24.01 27.6 18.62 31.625 12.46 31.54Z" fill="#2BF5BA"></path>
<path d="M28.71 9.74499C27.985 11.155 26.15 11.765 24.61 11.105C23.07 10.445 22.405 8.76999 23.13 7.35999C23.855 5.95 25.69 5.33999 27.23 5.99999C28.77 6.65999 29.435 8.33499 28.71 9.74499Z" fill="#2BF5BA"></path>
<path d="M38.66 136.325C0.285027 127.795 -5.48497 90.785 14.5 56.79C40.25 12.99 71.27 4.51999 102.51 2.86999C135.45 1.12999 165.995 4.23499 161.14 31.845C154.88 67.455 196.65 58.945 197.83 94.05C198.465 112.96 177.2 122.925 146.795 118.715C61.975 106.97 75.835 144.585 38.665 136.325H38.66Z" fill="#2BF5BA"></path>
</g>
<g id="illu_spot_answers-question-public_simple_2">
<g id="stroke">
<g id="Vector">
<path d="M130.16 47.775C130.07 47.775 129.985 47.73 129.94 47.645C129.875 47.525 129.92 47.37 130.04 47.305L141.015 41.285C141.135 41.22 141.29 41.265 141.355 41.385C141.42 41.505 141.375 41.66 141.255 41.725L130.28 47.745C130.24 47.765 130.2 47.775 130.16 47.775Z" fill="#2AEDB4"></path>
<path d="M143.025 40.755C142.935 40.755 142.85 40.705 142.805 40.62C142.74 40.5 142.785 40.345 142.91 40.28L145.785 38.76C145.905 38.695 146.06 38.74 146.125 38.865C146.19 38.985 146.145 39.14 146.02 39.205L143.145 40.725C143.11 40.745 143.07 40.755 143.03 40.755H143.025Z" fill="#2AEDB4"></path>
<path d="M134.045 35.88C133.955 35.88 133.87 35.83 133.825 35.745C133.76 35.625 133.805 35.47 133.93 35.405L136.805 33.885C136.925 33.82 137.08 33.865 137.145 33.99C137.21 34.11 137.165 34.265 137.04 34.33L134.165 35.85C134.13 35.87 134.09 35.88 134.05 35.88H134.045Z" fill="#2AEDB4"></path>
<path d="M121.175 42.9C121.085 42.9 121 42.855 120.955 42.77C120.89 42.65 120.935 42.495 121.055 42.43L132.03 36.41C132.15 36.345 132.305 36.39 132.37 36.51C132.435 36.63 132.39 36.785 132.27 36.85L121.295 42.87C121.255 42.89 121.215 42.9 121.175 42.9Z" fill="#2AEDB4"></path>
<path d="M141.985 50.92C141.895 50.92 141.81 50.87 141.765 50.785C141.7 50.665 141.745 50.51 141.87 50.445L144.745 48.925C144.865 48.86 145.02 48.905 145.085 49.03C145.15 49.15 145.105 49.305 144.98 49.37L142.105 50.89C142.07 50.91 142.03 50.92 141.99 50.92H141.985Z" fill="#2AEDB4"></path>
<path d="M129.115 57.94C129.025 57.94 128.94 57.895 128.895 57.81C128.83 57.69 128.875 57.535 128.995 57.47L139.97 51.45C140.09 51.385 140.245 51.43 140.31 51.55C140.375 51.67 140.33 51.825 140.21 51.89L129.235 57.91C129.195 57.93 129.155 57.94 129.115 57.94Z" fill="#2AEDB4"></path>
</g>
<path id="Vector_2" d="M127.05 75.8799L120.49 63.4599C124.185 60.4799 125.305 55.3149 123.04 51.0199C122.115 49.2749 120.745 47.9149 119.14 46.9999C119.125 46.9899 119.11 46.9849 119.095 46.9749C118.925 46.8799 118.75 46.7849 118.57 46.6999C118.41 46.6199 118.245 46.5449 118.08 46.4699C118.055 46.4599 118.03 46.4499 118.005 46.4399C115.925 45.5599 113.565 45.3999 111.32 46.0899L104.74 33.6349C104.565 33.3049 104.295 33.0599 103.98 32.9049C103.56 32.6549 103.025 32.6149 102.56 32.8599C102.54 32.8699 102.525 32.8849 102.5 32.8999C102.48 32.9099 102.46 32.9149 102.44 32.9249C101.61 33.3649 101.29 34.3949 101.73 35.2249L101.755 35.2749L84.125 58.9849C84.125 58.9849 84.115 59.0199 84.105 59.0349L53.585 77.7649C49.66 80.1749 48.27 85.2449 50.42 89.3199C51.98 92.2749 55.025 93.9849 58.18 93.9849C59.375 93.9849 60.59 93.7399 61.745 93.2199L74.565 87.4749L76.27 89.2399C77.175 90.1799 78.415 90.6749 79.665 90.6749C80.185 90.6749 80.705 90.5849 81.21 90.4099L89.02 105.2C89.39 105.9 90.01 106.415 90.765 106.65C91.055 106.74 91.35 106.785 91.645 106.785C92.12 106.785 92.595 106.67 93.025 106.44C93.725 106.07 94.24 105.45 94.475 104.695C94.71 103.94 94.635 103.135 94.265 102.435L86.45 87.6349C87.855 86.5499 88.56 84.7299 88.19 82.9549L87.89 81.5149L94.405 78.5949C94.405 78.5949 94.45 78.6149 94.475 78.6149H94.485L124.01 77.4249L124.035 77.4749C124.34 78.0499 124.93 78.3799 125.54 78.3799C125.81 78.3799 126.08 78.3149 126.33 78.1849C127.16 77.7449 127.475 76.7149 127.04 75.8849L127.05 75.8799Z" fill="#2AEDB4"></path>
<g id="Vector_3">
<path d="M130.16 45.7749C130.07 45.7749 129.985 45.7299 129.94 45.6449C129.875 45.5249 129.92 45.3699 130.04 45.3049L141.015 39.2849C141.135 39.2199 141.29 39.2649 141.355 39.3849C141.42 39.5049 141.375 39.6599 141.255 39.7249L130.28 45.7449C130.24 45.7649 130.2 45.7749 130.16 45.7749Z" fill="#07064E"></path>
<path d="M121.175 40.8999C121.085 40.8999 121 40.8549 120.955 40.7699C120.89 40.6499 120.935 40.4949 121.055 40.4299L132.03 34.4099C132.15 34.3449 132.305 34.3899 132.37 34.5099C132.435 34.6299 132.39 34.7849 132.27 34.8499L121.295 40.8699C121.255 40.8899 121.215 40.8999 121.175 40.8999Z" fill="#07064E"></path>
<path d="M129.115 55.9399C129.025 55.9399 128.94 55.8949 128.895 55.8099C128.83 55.6899 128.875 55.5349 128.995 55.4699L139.97 49.4499C140.09 49.3849 140.245 49.4299 140.31 49.5499C140.375 49.6699 140.33 49.8249 140.21 49.8899L129.235 55.9099C129.195 55.9299 129.155 55.9399 129.115 55.9399Z" fill="#07064E"></path>
</g>
<g id="Vector_4">
<path d="M143.025 38.755C142.935 38.755 142.85 38.705 142.805 38.62C142.74 38.5 142.785 38.345 142.91 38.28L145.785 36.76C145.905 36.695 146.06 36.74 146.125 36.865C146.19 36.985 146.145 37.14 146.02 37.205L143.145 38.725C143.11 38.745 143.07 38.755 143.03 38.755H143.025Z" fill="white"></path>
<path d="M134.045 33.88C133.955 33.88 133.87 33.83 133.825 33.745C133.76 33.625 133.805 33.47 133.93 33.405L136.805 31.885C136.925 31.82 137.08 31.865 137.145 31.99C137.21 32.11 137.165 32.265 137.04 32.33L134.165 33.85C134.13 33.87 134.09 33.88 134.05 33.88H134.045Z" fill="white"></path>
<path d="M141.985 48.92C141.895 48.92 141.81 48.87 141.765 48.785C141.7 48.665 141.745 48.51 141.87 48.445L144.745 46.925C144.865 46.86 145.02 46.905 145.085 47.03C145.15 47.15 145.105 47.305 144.98 47.37L142.105 48.89C142.07 48.91 142.03 48.92 141.99 48.92H141.985Z" fill="white"></path>
</g>
<path id="Vector_5" d="M92.915 103.935C91.59 104.635 89.95 104.13 89.25 102.8L81.33 87.7999L86.13 85.2649L94.05 100.265C94.75 101.59 94.245 103.23 92.915 103.93V103.935Z" fill="white"></path>
<path id="Vector_6" d="M85.7 85.5449L81.8 87.6049C80.06 88.5249 77.92 88.1799 76.555 86.7599L73.675 83.7649L87.115 76.6699L87.965 80.7399C88.365 82.6649 87.445 84.6299 85.705 85.5499L85.7 85.5449Z" fill="#EDEDED"></path>
<g id="Vector_7">
<path d="M124.055 74.885L94.48 76.075L84.33 56.855L101.99 33.105L124.055 74.885Z" fill="white"></path>
<path d="M122.82 48.855C120.47 44.405 115.16 42.52 110.59 44.345C114.145 49.635 115.82 56.29 119.535 61.575C123.705 58.85 125.195 53.35 122.82 48.855Z" fill="white"></path>
</g>
<path id="Vector_8" d="M94.45 76.0149L61.65 90.7099C57.555 92.5449 52.745 90.8849 50.65 86.9199C48.555 82.9549 49.9 78.0399 53.725 75.6949L84.36 56.8949L94.455 76.0149H94.45Z" fill="white"></path>
<g id="Vector_9">
<path d="M93.5 66.7449C92.535 67.3949 91.545 68.0149 90.55 68.6299L94.485 76.0799L124.06 74.8899L105.485 39.7099C107.95 49.7949 102.285 61.2099 93.505 66.7449H93.5Z" fill="#EDEDED"></path>
<path d="M65.22 89.1149L94.455 76.0149L90.535 68.5949C83.355 72.9849 75.535 76.6799 70 83.0649C68.265 84.9399 66.72 86.9949 65.22 89.1149Z" fill="#EDEDED"></path>
<path d="M104.515 31.466C104.141 30.7579 103.264 30.487 102.556 30.861C101.848 31.235 101.577 32.1122 101.951 32.8203L124.262 75.0656C124.636 75.7737 125.513 76.0446 126.221 75.6706C126.929 75.2966 127.2 74.4194 126.826 73.7113L104.515 31.466Z" fill="#EDEDED"></path>
</g>
<path id="Vector_10" d="M54.75 75.1399L53.72 75.6999C49.895 78.0449 48.55 82.9549 50.645 86.9249C52.74 90.8899 57.555 92.5499 61.645 90.7149L62.715 90.2399C60.03 85.1299 57.325 80.0249 54.745 75.1449L54.75 75.1399Z" fill="#EDEDED"></path>
<path id="Vector_11" d="M127.05 73.8799L120.49 61.4599C124.185 58.4799 125.305 53.3149 123.04 49.0199C120.785 44.7499 115.87 42.7449 111.33 44.1099L104.74 31.6349C104.3 30.8049 103.27 30.4849 102.44 30.9249C101.61 31.3649 101.29 32.3949 101.73 33.2249L101.755 33.2749L84.125 56.9849C84.125 56.9849 84.115 57.0199 84.105 57.0349L53.585 75.7649C49.66 78.1749 48.27 83.2449 50.42 87.3199C51.98 90.2749 55.025 91.9849 58.18 91.9849C59.375 91.9849 60.59 91.7399 61.745 91.2199L74.565 85.4749L76.27 87.2399C77.175 88.1799 78.415 88.6749 79.665 88.6749C80.185 88.6749 80.705 88.5849 81.21 88.4099L89.02 103.2C89.39 103.9 90.01 104.415 90.765 104.65C91.055 104.74 91.35 104.785 91.645 104.785C92.12 104.785 92.595 104.67 93.025 104.44C93.725 104.07 94.24 103.45 94.475 102.695C94.71 101.94 94.635 101.135 94.265 100.435L86.45 85.6349C87.855 84.5499 88.56 82.7299 88.19 80.9549L87.89 79.5149L94.405 76.5949C94.405 76.5949 94.45 76.6149 94.475 76.6149H94.485L124.01 75.4249L124.035 75.4749C124.34 76.0499 124.93 76.3799 125.54 76.3799C125.81 76.3799 126.08 76.3149 126.33 76.1849C127.16 75.7449 127.475 74.7149 127.04 73.8849L127.05 73.8799ZM122.6 49.2549C124.735 53.3049 123.705 58.1699 120.255 61.0099L111.57 44.5649C115.855 43.3249 120.475 45.2299 122.6 49.2549ZM61.55 90.7649C57.59 92.5399 52.9 90.9249 50.87 87.0849C48.84 83.2449 50.155 78.4599 53.855 76.1899L54.6 75.7299L62.35 90.4049L61.55 90.7649ZM93.825 100.665C94.13 101.245 94.195 101.915 94 102.545C93.805 103.175 93.38 103.69 92.795 103.995C92.215 104.305 91.545 104.365 90.92 104.17C90.29 103.975 89.775 103.55 89.47 102.965L81.685 88.2149C81.745 88.1849 81.805 88.1649 81.86 88.1349L85.785 86.0599C85.87 86.0149 85.955 85.9649 86.04 85.9099L93.83 100.66L93.825 100.665ZM85.55 85.6199L81.625 87.6949C79.98 88.5649 77.93 88.2349 76.64 86.8949L75.06 85.2599L87.43 79.7199L87.705 81.0549C88.08 82.8749 87.195 84.7549 85.55 85.6249V85.6199ZM62.805 90.2049L55.025 75.4749L84.255 57.5349L94.1 76.1799L62.8 90.2049H62.805ZM94.63 76.1049L84.625 57.1599L102.015 33.7699L123.75 74.9349L94.625 76.1099L94.63 76.1049ZM126.105 75.7399C125.52 76.0499 124.79 75.8249 124.48 75.2399L102.175 32.9949C101.865 32.4099 102.09 31.6799 102.675 31.3699C102.855 31.2749 103.045 31.2299 103.235 31.2299C103.665 31.2299 104.085 31.4599 104.3 31.8699L126.61 74.1149C126.92 74.6999 126.695 75.4299 126.11 75.7399H126.105Z" fill="#07064E"></path>
</g>
</g>
</g>
</g>
<defs>
<clipPath id="clip0_66_4292">
<rect width="200" height="140" fill="white"></rect>
</clipPath>
</defs>
</svg>