<svg width="200" height="140" viewBox="0 0 200 140" fill="none" xmlns="http://www.w3.org/2000/svg">
<g id="illu_spot_clicked_simple/Default" clip-path="url(#clip0_66_3981)">
<g id="illu_spot_clicked_simple">
<g id="background">
<path d="M15.3187 26.3698C20.1961 26.3698 24.15 22.4335 24.15 17.5778C24.15 12.7221 20.1961 8.78577 15.3187 8.78577C10.4414 8.78577 6.48749 12.7221 6.48749 17.5778C6.48749 22.4335 10.4414 26.3698 15.3187 26.3698Z" fill="#2BF5BA"></path>
<path d="M188.062 33.3075C191.072 33.3075 193.512 30.8783 193.512 27.8818C193.512 24.8852 191.072 22.456 188.062 22.456C185.053 22.456 182.612 24.8852 182.612 27.8818C182.612 30.8783 185.053 33.3075 188.062 33.3075Z" fill="#2BF5BA"></path>
<path d="M186.787 17.192C188.576 17.192 190.025 15.749 190.025 13.9689C190.025 12.1888 188.576 10.7458 186.787 10.7458C184.999 10.7458 183.55 12.1888 183.55 13.9689C183.55 15.749 184.999 17.192 186.787 17.192Z" fill="#2BF5BA"></path>
<path d="M42.4937 119.386C10.3812 98.28 6.94999 62.5707 16.7312 41.7947C34.7687 3.48443 67.075 16.9493 104.081 10.6338C152.55 2.35821 168.35 29.7671 184.325 65.0844C192.7 83.6018 187.944 109.648 146.512 125.228C116.194 136.634 58.7937 130.1 42.4937 119.386Z" fill="#2BF5BA"></path>
</g>
<g id="illu_spot_clicked_simple_2">
<g id="stroke">
<path id="Vector" d="M143.944 89.936C143.744 89.4009 143.506 88.9529 143.163 88.4738L126.331 64.9289C125.669 64.008 124.613 63.4542 123.356 63.3671C122.119 63.2862 120.838 63.672 119.738 64.4498C117.944 65.7191 117.088 67.704 117.444 69.4275C115.925 68.5315 113.763 68.6871 111.969 69.9564C110.175 71.2258 109.319 73.2106 109.675 74.9342C108.156 74.0382 105.994 74.1938 104.2 75.4631C102.644 76.5644 101.794 78.2382 101.844 79.7938L89.6438 62.7324C88.0125 60.4551 84.8313 59.92 82.5438 61.544C81.4375 62.328 80.7 63.4978 80.475 64.8355C80.25 66.1733 80.5563 67.5173 81.35 68.6186L105.425 102.287L95.025 100.545C92.2563 100.084 89.625 101.945 89.1563 104.701C88.6875 107.458 90.5625 110.077 93.3313 110.544L117.6 114.613C118.231 114.769 118.881 114.881 119.506 114.937L119.631 114.956C119.869 114.993 120.113 115.018 120.369 115.018C120.556 115.018 120.756 115.005 120.963 114.987C123.388 114.918 125.713 114.134 127.688 112.734L139.45 104.396C144.019 101.161 145.906 95.0818 143.95 89.936H143.944Z" fill="#2AEDB4"></path>
<g id="Vector_2">
<path d="M126.075 62.4649C124.825 60.7164 122.069 60.536 119.919 62.0604C117.8 63.56 117.069 66.1547 118.244 67.9031C116.969 66.2293 114.269 66.0675 112.15 67.5671C110.031 69.0667 109.3 71.6613 110.475 73.4098C109.2 71.736 106.5 71.5742 104.381 73.0738C102.294 74.5547 101.562 77.0871 102.656 78.8293L89.3874 60.2684C87.8562 58.128 84.8687 57.624 82.7187 59.1484C80.5687 60.6729 80.0624 63.6471 81.5937 65.7875L106.106 100.072L94.9624 98.2053C92.3562 97.7698 89.8937 99.5182 89.4562 102.107C89.0187 104.701 90.7749 107.153 93.3749 107.588L117.669 111.664C118.287 111.82 118.919 111.925 119.55 111.981L119.675 112C120.106 112.075 120.525 112.062 120.944 112.025C123.219 111.956 125.506 111.247 127.5 109.828L139.262 101.491C143.775 98.2924 145.531 92.3191 143.65 87.3911C143.469 86.912 143.256 86.4827 142.912 86.0035L126.081 62.4587L126.075 62.4649Z" fill="white"></path>
<path d="M64.9562 34.0853C64.8499 34.0853 64.7499 34.0293 64.6874 33.936L62.1687 29.7795C62.0812 29.6302 62.1249 29.4435 62.2749 29.3502C62.4249 29.2631 62.6124 29.3067 62.7062 29.456L65.2249 33.6124C65.3124 33.7618 65.2687 33.9484 65.1187 34.0418C65.0687 34.0729 65.0124 34.0853 64.9562 34.0853Z" fill="white"></path>
<path d="M50.4874 55.5955C50.4874 55.5955 50.4374 55.5955 50.4124 55.5893L45.6812 54.4195C45.5124 54.376 45.4124 54.208 45.4562 54.04C45.4999 53.872 45.6687 53.7724 45.8374 53.8098L50.5687 54.9795C50.7374 55.0231 50.8374 55.1911 50.7937 55.3591C50.7562 55.5022 50.6312 55.5955 50.4937 55.5955H50.4874Z" fill="white"></path>
<path d="M89.95 31.7271C89.95 31.7271 89.9 31.7271 89.8812 31.7209C89.7125 31.6835 89.6062 31.5155 89.65 31.3475L90.75 26.6187C90.7875 26.4507 90.9562 26.3511 91.125 26.3884C91.2937 26.4258 91.4 26.5938 91.3562 26.7618L90.2562 31.4907C90.225 31.6338 90.0937 31.7333 89.95 31.7333V31.7271Z" fill="white"></path>
</g>
<g id="Vector_3">
<path d="M120.356 112.367C120.1 112.367 119.856 112.348 119.619 112.305L119.494 112.286C118.869 112.23 118.219 112.124 117.587 111.963L93.3187 107.893C90.55 107.427 88.675 104.807 89.1437 102.051C89.6125 99.2942 92.2437 97.4338 95.0125 97.8942L105.412 99.6364L81.3375 65.968C80.55 64.8667 80.2375 63.5227 80.4625 62.1849C80.6875 60.8471 81.425 59.6836 82.5312 58.8933C84.8187 57.2693 88.0062 57.8044 89.6312 60.0818L101.831 77.1431C101.781 75.5876 102.637 73.9138 104.187 72.8124C105.981 71.5431 108.144 71.3876 109.662 72.2836C109.312 70.5662 110.169 68.5751 111.956 67.3058C113.75 66.0364 115.912 65.8809 117.431 66.7769C117.075 65.0596 117.937 63.0684 119.725 61.7991C120.825 61.0213 122.106 60.6356 123.344 60.7164C124.6 60.7973 125.656 61.3511 126.319 62.2782L143.15 85.8231C143.487 86.296 143.731 86.7502 143.931 87.2853C145.887 92.4249 144 98.5102 139.431 101.746L127.669 110.084C125.687 111.484 123.362 112.261 120.944 112.336C120.737 112.355 120.544 112.367 120.35 112.367H120.356ZM94.1625 98.448C92.025 98.448 90.125 99.9849 89.7562 102.156C89.35 104.577 90.9937 106.873 93.4187 107.284L117.712 111.353C118.337 111.508 118.95 111.614 119.569 111.664L119.719 111.689C120.075 111.751 120.45 111.757 120.906 111.708C123.225 111.639 125.431 110.899 127.312 109.567L139.075 101.229C143.412 98.1556 145.212 92.3813 143.35 87.4969C143.169 87.0053 142.956 86.6133 142.65 86.1778L125.819 62.6329C125.269 61.8676 124.381 61.4009 123.312 61.3324C122.219 61.264 121.081 61.6062 120.1 62.3031C118.144 63.6907 117.425 66.1173 118.5 67.7164C118.594 67.8533 118.556 68.0462 118.419 68.1396C118.281 68.2391 118.087 68.208 117.987 68.0711C116.819 66.5342 114.281 66.416 112.325 67.8036C110.369 69.1911 109.65 71.6178 110.725 73.2169C110.819 73.3538 110.781 73.5467 110.644 73.64C110.506 73.7396 110.312 73.7084 110.212 73.5716C109.044 72.0347 106.506 71.9164 104.55 73.304C102.612 74.6791 101.894 77.0249 102.912 78.6427C103 78.7858 102.962 78.9724 102.819 79.0658C102.681 79.1591 102.487 79.1218 102.387 78.9849L89.1187 60.424C87.6875 58.4267 84.8937 57.96 82.8875 59.3787C81.9125 60.0693 81.2687 61.0898 81.075 62.2658C80.875 63.4356 81.15 64.6178 81.8437 65.5822L106.356 99.8667C106.431 99.9724 106.431 100.103 106.369 100.215C106.3 100.321 106.175 100.377 106.05 100.358L94.9062 98.4916C94.6562 98.448 94.4062 98.4293 94.1625 98.4293V98.448Z" fill="#07064E"></path>
<path d="M76.5562 52.6773C76.4499 52.6773 76.3499 52.6276 76.2937 52.528L66.3499 36.68C66.2562 36.5369 66.3062 36.344 66.4499 36.2507C66.5937 36.1573 66.7874 36.2009 66.8812 36.3502L76.8249 52.1982C76.9187 52.3413 76.8687 52.5342 76.7249 52.6276C76.6749 52.6587 76.6187 52.6773 76.5624 52.6773H76.5562Z" fill="#07064E"></path>
<path d="M85.2687 53.1129C85.2687 53.1129 85.2249 53.1129 85.1999 53.1067C85.0312 53.0693 84.9249 52.9076 84.9624 52.7396L88.9124 34.4711C88.9499 34.3031 89.1124 34.2036 89.2812 34.2347C89.4499 34.272 89.5562 34.4338 89.5187 34.6018L85.5687 52.8702C85.5374 53.0133 85.4062 53.1129 85.2624 53.1129H85.2687Z" fill="#07064E"></path>
<path d="M71.8937 60.5733C71.8937 60.5733 71.8437 60.5733 71.8249 60.5671L53.5374 56.3609C53.3687 56.3236 53.2624 56.1556 53.3062 55.9876C53.3437 55.8196 53.5124 55.7138 53.6812 55.7511L71.9687 59.9573C72.1374 59.9947 72.2437 60.1627 72.1999 60.3307C72.1687 60.4738 72.0374 60.5733 71.8937 60.5733Z" fill="#07064E"></path>
</g>
</g>
</g>
</g>
</g>
<defs>
<clipPath id="clip0_66_3981">
<rect width="200" height="140" fill="white"></rect>
</clipPath>
</defs>
</svg>