<svg width="200" height="140" viewBox="0 0 200 140" fill="none" xmlns="http://www.w3.org/2000/svg">
<g id="illu_spot_answers-open-secret-question_simple/Default" clip-path="url(#clip0_66_4264)">
<g id="illu_spot_answers-open-secret-question_simple">
<g id="background">
<path d="M14.6315 78.1129C15.8299 76.0371 14.6398 73.1064 11.9734 71.5669C9.30689 70.0274 6.17374 70.4621 4.97528 72.5379C3.77682 74.6137 4.96689 77.5445 7.63337 79.084C10.2998 80.6235 13.433 80.1887 14.6315 78.1129Z" fill="#2BF5BA"></path>
<path d="M192.82 130.994C193.728 128.501 191.338 125.341 187.482 123.938C183.626 122.534 179.764 123.418 178.856 125.912C177.949 128.405 180.339 131.565 184.195 132.968C188.051 134.372 191.912 133.488 192.82 130.994Z" fill="#2BF5BA"></path>
<path d="M182.035 13.995C209.555 34.865 186.145 55.28 177.535 88.735C160.125 156.39 120.99 115.605 55.055 131.585C-6.07999 146.4 14.795 114.88 22.51 88.345C30.25 61.735 7.93001 60.29 7.14001 30.43C6.65001 11.87 15.045 -4.85001 69.87 10.865C143.595 31.995 148.17 -11.685 182.035 13.995Z" fill="#2BF5BA"></path>
<path d="M193.436 111.287C195.512 110.088 196.119 107.254 194.792 104.955C193.465 102.657 190.707 101.766 188.631 102.964C186.555 104.163 185.948 106.997 187.275 109.295C188.602 111.594 191.36 112.485 193.436 111.287Z" fill="#2BF5BA"></path>
</g>
<g id="illu_spot_answers-open-secret-question_simple_2">
<g id="illu_spot_answers-open-secret-question_simple_3">
<path id="Vector" d="M108.135 51.115C103.705 55.38 96.685 55.355 92.29 51.055L70.38 29.625V114.34H130.445V29.62L108.135 51.11V51.115Z" fill="#2AEDB4"></path>
<path id="Vector_2" d="M108.135 48.985C103.705 53.25 96.685 53.225 92.29 48.925L70.38 27.495V112.21H130.445V27.495L108.135 48.985Z" fill="white"></path>
<path id="Vector_3" opacity="0.07" d="M92.29 51.055L70.38 29.625L70.51 27.66C94.92 45.795 92.67 64.48 130.345 27.515L130.445 29.625L108.135 51.115C103.705 55.38 96.685 55.355 92.29 51.055Z" fill="#07064E"></path>
<path id="Vector_4" d="M79.575 103.015H121.25C126.33 103.015 130.445 107.13 130.445 112.21V39.905C125.725 56.075 124.59 77.8 112.9 89.905C105.09 97.715 86.795 97.895 76.12 103.69C77.185 103.255 78.35 103.015 79.575 103.015Z" fill="#EDEDED"></path>
<path id="Vector_5" d="M92.29 48.925L70.38 27.495H130.445L108.135 48.985C103.705 53.25 96.685 53.225 92.29 48.925Z" fill="#EDEDED"></path>
<path id="Vector_6" d="M100.415 98.26C100.275 98.26 100.165 98.15 100.165 98.01V62.52C100.165 62.38 100.275 62.27 100.415 62.27C100.555 62.27 100.665 62.38 100.665 62.52V98.01C100.665 98.15 100.555 98.26 100.415 98.26Z" fill="#07064E"></path>
<path id="Vector_7" d="M96.36 55.49C96.15 54.98 96.035 54.42 96.035 53.835C96.035 51.415 97.995 49.455 100.415 49.455C102.835 49.455 104.795 51.415 104.795 53.835C104.795 56.255 102.835 58.215 100.415 58.215C98.58 58.215 97.01 57.09 96.36 55.49Z" fill="#EDEDED"></path>
<path id="Vector_8" d="M100.415 56.14C99.97 56.14 99.535 56.01 99.16 55.77C99.045 55.695 99.01 55.54 99.085 55.425C99.16 55.31 99.315 55.28 99.43 55.35C99.72 55.54 100.06 55.64 100.41 55.64C101.405 55.64 102.215 54.83 102.215 53.835C102.215 52.84 101.405 52.03 100.41 52.03C99.415 52.03 98.605 52.84 98.605 53.835C98.605 53.985 98.625 54.135 98.66 54.28C98.695 54.415 98.615 54.55 98.48 54.585C98.345 54.62 98.21 54.54 98.175 54.405C98.13 54.22 98.105 54.03 98.105 53.835C98.105 52.565 99.14 51.53 100.41 51.53C101.68 51.53 102.715 52.565 102.715 53.835C102.715 55.105 101.68 56.14 100.41 56.14H100.415Z" fill="#07064E"></path>
<path id="Vector_9" d="M130.69 27.465C130.69 27.465 130.69 27.425 130.68 27.405C130.67 27.385 130.655 27.365 130.645 27.345C130.64 27.34 130.635 27.33 130.63 27.325C130.595 27.29 130.555 27.27 130.505 27.26C130.49 27.26 130.47 27.25 130.455 27.25H70.39C70.365 27.25 70.345 27.255 70.32 27.265C70.28 27.275 70.245 27.295 70.215 27.325C70.21 27.33 70.205 27.34 70.2 27.345C70.185 27.365 70.17 27.385 70.16 27.405C70.15 27.425 70.15 27.445 70.145 27.47C70.145 27.48 70.14 27.49 70.14 27.5V112.215C70.14 112.355 70.25 112.465 70.39 112.465H130.455C130.595 112.465 130.705 112.355 130.705 112.215V27.495C130.705 27.495 130.7 27.475 130.7 27.46L130.69 27.465ZM129.825 27.745L107.96 48.805C106.845 49.88 105.565 50.675 104.21 51.2C103.375 49.995 101.985 49.205 100.41 49.205C98.835 49.205 97.37 50.04 96.545 51.295C95.065 50.77 93.67 49.92 92.465 48.745L70.99 27.74H129.82L129.825 27.745ZM70.645 111.965C70.78 107.15 74.73 103.27 79.58 103.27H121.255C126.105 103.27 130.055 107.15 130.19 111.965H70.65H70.645ZM130.195 109.205C128.935 105.47 125.405 102.77 121.25 102.77H79.575C75.42 102.77 71.89 105.47 70.63 109.205V28.09L92.115 49.105C93.35 50.31 94.775 51.185 96.29 51.74C95.97 52.37 95.785 53.08 95.785 53.835C95.785 54.405 95.885 54.96 96.09 55.485C96.14 55.615 96.285 55.68 96.415 55.63C96.545 55.58 96.61 55.435 96.56 55.305C96.38 54.835 96.29 54.34 96.29 53.835C96.29 51.56 98.14 49.71 100.42 49.71C102.7 49.71 104.55 51.56 104.55 53.835C104.55 56.11 102.7 57.965 100.42 57.965C99.205 57.965 98.055 57.435 97.27 56.505C97.18 56.4 97.025 56.385 96.92 56.475C96.815 56.565 96.8 56.72 96.89 56.83C97.77 57.87 99.06 58.465 100.42 58.465C102.97 58.465 105.05 56.39 105.05 53.835C105.05 53.04 104.845 52.29 104.49 51.63C105.87 51.085 107.175 50.265 108.32 49.165L130.205 28.08V109.2L130.195 109.205Z" fill="#07064E"></path>
<path id="Vector_10" d="M94.01 90.555H76.23C75.4485 90.555 74.815 91.1885 74.815 91.97V96.59C74.815 97.3715 75.4485 98.005 76.23 98.005H94.01C94.7915 98.005 95.425 97.3715 95.425 96.59V91.97C95.425 91.1885 94.7915 90.555 94.01 90.555Z" fill="#EDEDED"></path>
<path id="Vector_11" d="M94.005 98.26H76.23C75.31 98.26 74.565 97.51 74.565 96.595V91.975C74.565 91.055 75.315 90.31 76.23 90.31H94.005C94.925 90.31 95.67 91.06 95.67 91.975V96.595C95.67 97.515 94.92 98.26 94.005 98.26ZM76.235 90.805C75.59 90.805 75.07 91.33 75.07 91.97V96.59C75.07 97.235 75.595 97.755 76.235 97.755H94.01C94.655 97.755 95.175 97.23 95.175 96.59V91.97C95.175 91.325 94.65 90.805 94.01 90.805H76.235Z" fill="#07064E"></path>
</g>
</g>
</g>
</g>
<defs>
<clipPath id="clip0_66_4264">
<rect width="200" height="140" fill="white"></rect>
</clipPath>
</defs>
</svg>