<svg width="26" height="26" viewBox="0 0 26 26" fill="none" xmlns="http://www.w3.org/2000/svg">
<g id="icon_ui_hand" clip-path="url(#clip0_37_3973)">
<g id="icon_ui_hand_2">
<g id="color_stroke">
<path id="Vector" d="M18.2 6.23999C17.9627 6.24066 17.7276 6.28532 17.5066 6.37173V5.55879C17.5066 5.24556 17.4294 4.93716 17.2819 4.66085C17.1344 4.38454 16.921 4.14883 16.6607 3.97457C16.4004 3.8003 16.1012 3.69285 15.7896 3.6617C15.4779 3.63056 15.1633 3.67668 14.8737 3.79599C14.7913 3.35755 14.5578 2.96188 14.2138 2.67783C13.8698 2.39378 13.4371 2.23935 12.991 2.24141C12.5449 2.24348 12.1137 2.4019 11.7723 2.68911C11.4309 2.97633 11.2011 3.37414 11.1228 3.81333C10.8333 3.69475 10.5192 3.6492 10.2079 3.6807C9.89674 3.71221 9.59807 3.81979 9.33826 3.99397C9.07844 4.16815 8.86547 4.40357 8.71812 4.67949C8.57077 4.9554 8.49357 5.26333 8.49331 5.57612V8.95439C7.9266 8.50413 7.22378 8.25968 6.49998 8.26106C6.33908 8.26106 6.18477 8.32498 6.071 8.43875C5.95723 8.55252 5.89331 8.70683 5.89331 8.86773V16.9988C5.89373 17.0461 5.89955 17.0932 5.91064 17.1392C6.039 18.9749 6.87443 20.6893 8.24115 21.9216C9.60787 23.1539 11.3993 23.8079 13.2385 23.7462C15.0777 23.6844 16.8212 22.9116 18.1022 21.5905C19.3832 20.2693 20.1017 18.5027 20.1066 16.6625V8.14666C20.1066 7.64098 19.9058 7.15601 19.5482 6.79844C19.1906 6.44087 18.7057 6.23999 18.2 6.23999ZM18.8933 16.6677C18.8933 18.2307 18.2724 19.7297 17.1672 20.8349C16.062 21.9402 14.563 22.5611 13 22.5611C11.437 22.5611 9.93798 21.9402 8.83276 20.8349C7.72755 19.7297 7.10664 18.2307 7.10664 16.6677V9.56106C7.50993 9.69104 7.86152 9.94572 8.11073 10.2884C8.35995 10.6311 8.49391 11.044 8.49331 11.4677V14.4144C8.49403 14.451 8.49751 14.4875 8.50371 14.5236C8.49767 14.5597 8.4942 14.5962 8.49331 14.6328C8.49331 14.7937 8.55723 14.948 8.671 15.0618C8.78477 15.1755 8.93908 15.2395 9.09998 15.2395C9.82374 15.2404 10.5176 15.5283 11.0294 16.0401C11.5411 16.5518 11.8291 17.2457 11.83 17.9695C11.83 18.1304 11.8939 18.2847 12.0077 18.3984C12.1214 18.5122 12.2757 18.5761 12.4366 18.5761C12.5975 18.5761 12.7519 18.5122 12.8656 18.3984C12.9794 18.2847 13.0433 18.1304 13.0433 17.9695C13.0432 17.0282 12.707 16.118 12.0952 15.4027C11.4835 14.6873 10.6364 14.2139 9.70664 14.0677V5.57439C9.70664 5.39051 9.77969 5.21416 9.90972 5.08413C10.0397 4.95411 10.2161 4.88106 10.4 4.88106C10.5839 4.88106 10.7602 4.95411 10.8902 5.08413C11.0203 5.21416 11.0933 5.39051 11.0933 5.57439V11.7971C11.0933 11.958 11.1572 12.1123 11.271 12.226C11.3848 12.3398 11.5391 12.4037 11.7 12.4037C11.8609 12.4037 12.0152 12.3398 12.129 12.226C12.2427 12.1123 12.3066 11.958 12.3066 11.7971V4.13746C12.3066 3.95358 12.3797 3.77722 12.5097 3.6472C12.6397 3.51717 12.8161 3.44413 13 3.44413C13.1839 3.44413 13.3602 3.51717 13.4902 3.6472C13.6203 3.77722 13.6933 3.95358 13.6933 4.13746V11.7867C13.6933 11.9476 13.7572 12.1019 13.871 12.2156C13.9848 12.3294 14.1391 12.3933 14.3 12.3933C14.4609 12.3933 14.6152 12.3294 14.729 12.2156C14.8427 12.1019 14.9066 11.9476 14.9066 11.7867V5.55879C14.9066 5.37491 14.9797 5.19856 15.1097 5.06853C15.2397 4.93851 15.4161 4.86546 15.6 4.86546C15.7839 4.86546 15.9602 4.93851 16.0902 5.06853C16.2203 5.19856 16.2933 5.37491 16.2933 5.55879V14.3641C16.2933 14.525 16.3572 14.6793 16.471 14.7931C16.5848 14.9069 16.7391 14.9708 16.9 14.9708C17.0609 14.9708 17.2152 14.9069 17.329 14.7931C17.4427 14.6793 17.5066 14.525 17.5066 14.3641V8.14666C17.5066 7.96278 17.5797 7.78642 17.7097 7.6564C17.8397 7.52637 18.0161 7.45333 18.2 7.45333C18.3839 7.45333 18.5602 7.52637 18.6902 7.6564C18.8203 7.78642 18.8933 7.96278 18.8933 8.14666V16.6677Z" fill="#151752"></path>
</g>
</g>
</g>
<defs>
<clipPath id="clip0_37_3973">
<rect width="26" height="26" fill="white"></rect>
</clipPath>
</defs>
</svg>