<svg width="26" height="26" viewBox="0 0 26 26" fill="none" xmlns="http://www.w3.org/2000/svg">
<g id="icon_ui_calendar" clip-path="url(#clip0_37_3942)">
<g id="icon_ui_calendar_2">
<g id="color_stroke">
<g id="Vector">
<path d="M16.2153 12.9479L12.0397 17.1218L9.7864 14.8685C9.67147 14.7547 9.51605 14.6912 9.35433 14.6921C9.19262 14.6929 9.03784 14.7579 8.92406 14.8728C8.81029 14.9877 8.74682 15.1432 8.74764 15.3049C8.74845 15.4666 8.81347 15.6214 8.9284 15.7351L11.6133 18.4097C11.728 18.5221 11.8826 18.5844 12.0432 18.583C12.1225 18.584 12.2012 18.5691 12.2747 18.5394C12.3482 18.5096 12.415 18.4655 12.4713 18.4097L17.0733 13.8042C17.1296 13.7473 17.174 13.6799 17.2042 13.6058C17.2344 13.5317 17.2496 13.4524 17.2491 13.3724C17.2487 13.2924 17.2324 13.2133 17.2014 13.1396C17.1703 13.0659 17.125 12.999 17.0681 12.9427C17.0112 12.8865 16.9438 12.8421 16.8697 12.8119C16.7956 12.7817 16.7163 12.7665 16.6363 12.7669C16.5563 12.7674 16.4772 12.7837 16.4035 12.8147C16.3298 12.8458 16.2629 12.891 16.2067 12.9479H16.2153Z" fill="#151752"></path>
<path d="M21.4257 4.02302H19.2019V3.13902C19.2019 2.97812 19.1379 2.82381 19.0242 2.71004C18.9104 2.59627 18.7561 2.53235 18.5952 2.53235C18.4343 2.53235 18.28 2.59627 18.1662 2.71004C18.0524 2.82381 17.9885 2.97812 17.9885 3.13902V4.02302H8.01147V3.13902C8.01147 2.97812 7.94755 2.82381 7.83378 2.71004C7.72 2.59627 7.5657 2.53235 7.4048 2.53235C7.2439 2.53235 7.08959 2.59627 6.97582 2.71004C6.86205 2.82381 6.79813 2.97812 6.79813 3.13902V4.02302H4.57427C4.05066 4.02302 3.54849 4.23102 3.17825 4.60126C2.808 4.97151 2.6 5.47367 2.6 5.99728V21.4933C2.60046 22.0163 2.80842 22.5177 3.17825 22.8876C3.54807 23.2574 4.04952 23.4654 4.57253 23.4658H21.424C21.6833 23.466 21.94 23.4152 22.1796 23.3162C22.4193 23.2172 22.637 23.072 22.8205 22.8888C23.004 22.7056 23.1496 22.4881 23.2491 22.2487C23.3485 22.0092 23.3998 21.7525 23.4 21.4933V5.99728C23.4 5.47367 23.192 4.97151 22.8217 4.60126C22.4515 4.23102 21.9493 4.02302 21.4257 4.02302ZM4.57427 5.23635H6.79813V6.30928C6.79813 6.47018 6.86205 6.62449 6.97582 6.73826C7.08959 6.85203 7.2439 6.91595 7.4048 6.91595C7.5657 6.91595 7.72 6.85203 7.83378 6.73826C7.94755 6.62449 8.01147 6.47018 8.01147 6.30928V5.23635H17.9885V6.30928C17.9885 6.47018 18.0524 6.62449 18.1662 6.73826C18.28 6.85203 18.4343 6.91595 18.5952 6.91595C18.7561 6.91595 18.9104 6.85203 19.0242 6.73826C19.1379 6.62449 19.2019 6.47018 19.2019 6.30928V5.23635H21.4257C21.5257 5.23635 21.6246 5.25603 21.7169 5.29427C21.8092 5.33251 21.8931 5.38856 21.9638 5.45922C22.0345 5.52988 22.0905 5.61376 22.1287 5.70609C22.167 5.79841 22.1867 5.89735 22.1867 5.99728V8.91968C22.1587 8.91414 22.1303 8.91124 22.1017 8.91102H3.9C3.87148 8.91124 3.84304 8.91414 3.81507 8.91968V5.99728C3.81506 5.79577 3.895 5.60249 4.03732 5.45983C4.17965 5.31718 4.37275 5.23681 4.57427 5.23635ZM21.4257 22.2542H4.57427C4.47427 22.2544 4.37522 22.2349 4.2828 22.1968C4.19037 22.1586 4.1064 22.1026 4.03569 22.0319C3.96499 21.9611 3.90895 21.8772 3.87079 21.7847C3.83263 21.6923 3.8131 21.5933 3.81333 21.4933V10.1157C3.84161 10.1175 3.86998 10.1175 3.89827 10.1157H22.0983C22.1265 10.1175 22.1549 10.1175 22.1832 10.1157V21.4933C22.1834 21.593 22.164 21.6917 22.1261 21.7839C22.0881 21.8761 22.0324 21.96 21.9621 22.0306C21.8917 22.1013 21.8082 22.1574 21.7161 22.1958C21.6241 22.2341 21.5254 22.254 21.4257 22.2542Z" fill="#151752"></path>
</g>
</g>
</g>
</g>
<defs>
<clipPath id="clip0_37_3942">
<rect width="26" height="26" fill="white"></rect>
</clipPath>
</defs>
</svg>