<svg width="26" height="26" viewBox="0 0 26 26" fill="none" xmlns="http://www.w3.org/2000/svg">
<g id="icon_ui_list-of-participants-v2" clip-path="url(#clip0_37_4009)">
<g id="icon_ui_list-of-participants-v2_2">
<g id="color_stroke">
<g id="Vector">
<path d="M9.40335 22.1867H5.56401C5.35714 22.1867 5.15875 22.1045 5.01247 21.9582C4.86619 21.8119 4.78401 21.6135 4.78401 21.4067V4.59334C4.78401 4.38647 4.86619 4.18807 5.01247 4.0418C5.15875 3.89552 5.35714 3.81334 5.56401 3.81334H17.0907C17.2974 3.8138 17.4955 3.89612 17.6417 4.0423C17.7879 4.18848 17.8702 4.38661 17.8707 4.59334V7.80001C17.8707 7.9609 17.9346 8.11521 18.0484 8.22898C18.1621 8.34276 18.3164 8.40667 18.4773 8.40667C18.6382 8.40667 18.7926 8.34276 18.9063 8.22898C19.0201 8.11521 19.084 7.9609 19.084 7.80001V4.59334C19.0836 4.06482 18.8734 3.55807 18.4997 3.18435C18.1259 2.81062 17.6192 2.60047 17.0907 2.60001H5.56401C5.03549 2.60047 4.52874 2.81062 4.15502 3.18435C3.7813 3.55807 3.57114 4.06482 3.57068 4.59334V21.4067C3.57114 21.9352 3.7813 22.4419 4.15502 22.8157C4.52874 23.1894 5.03549 23.3995 5.56401 23.4H9.40335C9.56424 23.4 9.71855 23.3361 9.83232 23.2223C9.94609 23.1085 10.01 22.9542 10.01 22.7933C10.01 22.6324 9.94609 22.4781 9.83232 22.3644C9.71855 22.2506 9.56424 22.1867 9.40335 22.1867Z" fill="#151752"></path>
<path d="M21.9613 19.3301C21.2329 19.0134 20.4469 18.8505 19.6525 18.8517H17.3212C16.1542 18.8481 15.0135 19.1979 14.0491 19.8551C13.0848 20.5122 12.3419 21.4459 11.9184 22.5333C11.8893 22.6078 11.8752 22.6872 11.8769 22.7671C11.8786 22.847 11.896 22.9257 11.9282 22.9988C11.9605 23.072 12.0068 23.138 12.0646 23.1932C12.1224 23.2483 12.1905 23.2915 12.2651 23.3203C12.3361 23.3489 12.4121 23.3637 12.4887 23.3636C12.6104 23.3636 12.7293 23.3268 12.8298 23.2582C12.9303 23.1895 13.0077 23.0922 13.052 22.9788C13.3883 22.1198 13.9764 21.3825 14.7393 20.8638C15.5021 20.345 16.4039 20.069 17.3264 20.072H19.6577C20.2856 20.0713 20.907 20.1999 21.4829 20.4499C21.6305 20.514 21.7975 20.5169 21.9472 20.4579C22.0969 20.3989 22.217 20.2828 22.2811 20.1353C22.3453 19.9877 22.3482 19.8207 22.2892 19.671C22.2302 19.5213 22.1141 19.4012 21.9665 19.3371L21.9613 19.3301Z" fill="#151752"></path>
<path d="M14.5427 14.3572C14.5427 15.1371 14.774 15.8995 15.2073 16.548C15.6406 17.1965 16.2564 17.7019 16.977 18.0004C17.6975 18.2988 18.4904 18.3769 19.2553 18.2248C20.0203 18.0726 20.7229 17.697 21.2744 17.1456C21.8259 16.5941 22.2014 15.8914 22.3536 15.1265C22.5057 14.3616 22.4276 13.5687 22.1292 12.8482C21.8307 12.1276 21.3253 11.5117 20.6768 11.0784C20.0283 10.6451 19.2659 10.4139 18.486 10.4139C17.4405 10.4148 16.438 10.8305 15.6987 11.5699C14.9593 12.3092 14.5436 13.3117 14.5427 14.3572ZM21.216 14.3572C21.216 14.8971 21.0559 15.425 20.7559 15.8739C20.4559 16.3229 20.0296 16.6728 19.5307 16.8794C19.0319 17.086 18.483 17.1401 17.9534 17.0347C17.4238 16.9294 16.9374 16.6694 16.5556 16.2876C16.1738 15.9058 15.9138 15.4194 15.8085 14.8898C15.7031 14.3602 15.7572 13.8113 15.9638 13.3125C16.1704 12.8136 16.5204 12.3873 16.9693 12.0873C17.4183 11.7873 17.9461 11.6272 18.486 11.6272C19.2099 11.6277 19.904 11.9154 20.4159 12.4273C20.9278 12.9392 21.2156 13.6333 21.216 14.3572Z" fill="#151752"></path>
<path d="M13.234 7.73067C13.234 7.56977 13.1701 7.41547 13.0563 7.30169C12.9426 7.18792 12.7882 7.12401 12.6273 7.12401H7.42734C7.26645 7.12401 7.11214 7.18792 6.99837 7.30169C6.88459 7.41547 6.82068 7.56977 6.82068 7.73067C6.82068 7.89157 6.88459 8.04588 6.99837 8.15965C7.11214 8.27342 7.26645 8.33734 7.42734 8.33734H12.6273C12.7882 8.33734 12.9426 8.27342 13.0563 8.15965C13.1701 8.04588 13.234 7.89157 13.234 7.73067Z" fill="#151752"></path>
<path d="M7.42734 9.75001C7.26645 9.75001 7.11214 9.81392 6.99837 9.92769C6.88459 10.0415 6.82068 10.1958 6.82068 10.3567C6.82068 10.5176 6.88459 10.6719 6.99837 10.7857C7.11214 10.8994 7.26645 10.9633 7.42734 10.9633H11.3273C11.4882 10.9633 11.6426 10.8994 11.7563 10.7857C11.8701 10.6719 11.934 10.5176 11.934 10.3567C11.934 10.1958 11.8701 10.0415 11.7563 9.92769C11.6426 9.81392 11.4882 9.75001 11.3273 9.75001H7.42734Z" fill="#151752"></path>
<path d="M11.3273 12.3933H7.42734C7.26645 12.3933 7.11214 12.4573 6.99837 12.571C6.88459 12.6848 6.82068 12.8391 6.82068 13C6.82068 13.1609 6.88459 13.3152 6.99837 13.429C7.11214 13.5428 7.26645 13.6067 7.42734 13.6067H11.3273C11.4882 13.6067 11.6426 13.5428 11.7563 13.429C11.8701 13.3152 11.934 13.1609 11.934 13C11.934 12.8391 11.8701 12.6848 11.7563 12.571C11.6426 12.4573 11.4882 12.3933 11.3273 12.3933Z" fill="#151752"></path>
</g>
</g>
</g>
</g>
<defs>
<clipPath id="clip0_37_4009">
<rect width="26" height="26" fill="white"></rect>
</clipPath>
</defs>
</svg>