<svg viewBox="0 0 26 26" fill="none" xmlns="http://www.w3.org/2000/svg">
<g id="icon_ui_anuluj" clip-path="url(#clip0_37_3949)">
<g id="icon_ui_anuluj_2">
<g id="color_stroke">
<g id="Vector">
<path d="M13 1.99335C10.8231 1.99335 8.69506 2.63888 6.88503 3.8483C5.07499 5.05773 3.66424 6.77674 2.83117 8.78795C1.9981 10.7992 1.78013 13.0122 2.20483 15.1473C2.62952 17.2824 3.6778 19.2436 5.21711 20.7829C6.75642 22.3222 8.71762 23.3705 10.8527 23.7952C12.9878 24.2199 15.2009 24.0019 17.2121 23.1688C19.2233 22.3358 20.9423 20.925 22.1517 19.115C23.3611 17.305 24.0067 15.1769 24.0067 13C24.003 10.082 22.8422 7.28453 20.7788 5.22118C18.7155 3.15782 15.918 1.99702 13 1.99335ZM13 22.7933C11.0631 22.7933 9.16962 22.219 7.55912 21.1429C5.94861 20.0668 4.69338 18.5373 3.95214 16.7478C3.21091 14.9583 3.01697 12.9892 3.39485 11.0894C3.77272 9.18971 4.70545 7.4447 6.07507 6.07508C7.44469 4.70546 9.1897 3.77273 11.0894 3.39486C12.9891 3.01698 14.9583 3.21092 16.7478 3.95215C18.5372 4.69339 20.0668 5.94862 21.1429 7.55913C22.219 9.16964 22.7933 11.0631 22.7933 13C22.7901 15.5964 21.7573 18.0855 19.9214 19.9214C18.0855 21.7573 15.5964 22.7901 13 22.7933Z" fill="#151752"></path>
<path d="M17.1063 8.89375C17.0498 8.8361 16.9824 8.7903 16.908 8.75903C16.8335 8.72776 16.7536 8.71166 16.6729 8.71166C16.5922 8.71166 16.5123 8.72776 16.4379 8.75903C16.3635 8.7903 16.2961 8.8361 16.2396 8.89375L13 12.142L9.75174 8.89375C9.6954 8.83741 9.62852 8.79272 9.55491 8.76223C9.4813 8.73174 9.40241 8.71605 9.32274 8.71605C9.24306 8.71605 9.16417 8.73174 9.09056 8.76223C9.01696 8.79272 8.95007 8.83741 8.89374 8.89375C8.8374 8.95008 8.79271 9.01697 8.76222 9.09057C8.73173 9.16418 8.71604 9.24307 8.71604 9.32275C8.71604 9.40242 8.73173 9.48131 8.76222 9.55492C8.79271 9.62853 8.8374 9.69541 8.89374 9.75175L12.142 13L8.89374 16.2483C8.77881 16.3621 8.71379 16.5168 8.71297 16.6785C8.71216 16.8403 8.77563 16.9957 8.8894 17.1106C9.00318 17.2255 9.15795 17.2906 9.31967 17.2914C9.48139 17.2922 9.63681 17.2287 9.75174 17.1149L13 13.8667L16.2483 17.1063C16.3052 17.1632 16.3727 17.2083 16.4471 17.2391C16.5214 17.2699 16.6011 17.2858 16.6816 17.2858C16.7621 17.2858 16.8418 17.2699 16.9161 17.2391C16.9905 17.2083 17.058 17.1632 17.1149 17.1063C17.1718 17.0494 17.217 16.9818 17.2478 16.9075C17.2786 16.8331 17.2944 16.7534 17.2944 16.6729C17.2944 16.5925 17.2786 16.5128 17.2478 16.4384C17.217 16.3641 17.1718 16.2965 17.1149 16.2396L13.8667 13L17.1063 9.75175C17.2196 9.63775 17.2833 9.48352 17.2833 9.32275C17.2833 9.16198 17.2196 9.00775 17.1063 8.89375Z" fill="#151752"></path>
</g>
</g>
</g>
</g>
<defs>
<clipPath id="clip0_37_3949">
<rect width="26" height="26" fill="white"></rect>
</clipPath>
</defs>
</svg>
