<svg width="26" height="26" viewBox="0 0 26 26" fill="none" xmlns="http://www.w3.org/2000/svg">
<g id="icon_ui_video" clip-path="url(#clip0_37_4063)">
<g id="icon_ui_video_2">
<g id="color_stroke">
<path id="Vector" d="M23.1417 9.93024C23.0719 9.87313 22.9903 9.8323 22.9028 9.81071C22.8152 9.78912 22.7239 9.78732 22.6356 9.80544L18.2416 10.7137V8.46037C18.2411 7.93185 18.031 7.4251 17.6573 7.05138C17.2835 6.67766 16.7768 6.4675 16.2483 6.46704H4.63493C4.10641 6.4675 3.59967 6.67766 3.22594 7.05138C2.85222 7.4251 2.64206 7.93185 2.6416 8.46037V17.5222C2.64206 18.0508 2.85222 18.5575 3.22594 18.9312C3.59967 19.305 4.10641 19.5151 4.63493 19.5156H16.2483C16.7768 19.5151 17.2835 19.305 17.6573 18.9312C18.031 18.5575 18.2411 18.0508 18.2416 17.5222V15.2689L22.6356 16.1772C22.6761 16.1855 22.7173 16.1896 22.7587 16.1893C22.9194 16.1888 23.0735 16.1248 23.1871 16.0111C23.3008 15.8974 23.3649 15.7434 23.3653 15.5826V10.4C23.3655 10.31 23.3455 10.221 23.3068 10.1398C23.2681 10.0585 23.2117 9.98689 23.1417 9.93024ZM17.0283 17.5309C17.0283 17.7378 16.9461 17.9362 16.7998 18.0825C16.6535 18.2287 16.4551 18.3109 16.2483 18.3109H4.63493C4.42821 18.3105 4.23008 18.2281 4.0839 18.0819C3.93772 17.9358 3.85539 17.7376 3.85493 17.5309V8.46904C3.85539 8.26231 3.93772 8.06418 4.0839 7.918C4.23008 7.77182 4.42821 7.6895 4.63493 7.68904H16.2483C16.4551 7.68904 16.6535 7.77122 16.7998 7.9175C16.9461 8.06378 17.0283 8.26217 17.0283 8.46904V17.5309ZM22.152 14.8546L18.3283 14.066V11.934L22.152 11.1453V14.8546Z" fill="#151752"></path>
</g>
</g>
</g>
<defs>
<clipPath id="clip0_37_4063">
<rect width="26" height="26" fill="white"></rect>
</clipPath>
</defs>
</svg>