<svg viewBox="0 0 26 26" fill="none" xmlns="http://www.w3.org/2000/svg">
<g id="icon_ui_edit" clip-path="url(#clip0_37_4087)">
<g id="icon_ui_edit_2">
<g id="color_stroke">
<g id="Vector">
<path d="M3.38161 19.3735C3.40701 19.3752 3.43249 19.3752 3.45788 19.3735L7.76695 18.8292C8.22528 18.7711 8.66288 18.6035 9.04268 18.3404L20.24 10.5578C20.2602 10.5472 20.2799 10.5357 20.2989 10.5231C20.313 10.5125 20.3263 10.5009 20.3388 10.4884L22.3425 9.10175C22.7505 8.817 23.0288 8.3821 23.1165 7.89243C23.2043 7.40276 23.0942 6.89828 22.8105 6.48962L21.6665 4.83255C21.3821 4.42485 20.9476 4.1465 20.4584 4.05846C19.9691 3.97041 19.4649 4.07986 19.0561 4.36282L5.75455 13.6067C5.37642 13.8718 5.06734 14.2237 4.85321 14.6328L2.84428 18.486C2.79653 18.5785 2.77332 18.6817 2.77685 18.7857C2.78038 18.8898 2.81055 18.9912 2.86446 19.0802C2.91837 19.1692 2.99423 19.243 3.08477 19.2943C3.17532 19.3457 3.27752 19.3729 3.38161 19.3735ZM19.746 5.35948C19.8904 5.25989 20.0683 5.22131 20.241 5.25215C20.4136 5.28298 20.5672 5.38073 20.6681 5.52415L21.8156 7.17255C21.9143 7.31799 21.9515 7.49659 21.9191 7.66935C21.8866 7.84212 21.7871 7.99502 21.6423 8.09468L20.1065 9.17108L18.1999 6.43588L19.746 5.35948ZM5.92788 15.1944C6.05018 14.9578 6.22874 14.7548 6.44788 14.6034L17.1945 7.12748L19.1012 9.86268L8.35108 17.3334C8.1323 17.4851 7.88023 17.582 7.61615 17.6159L4.45455 18.0267L5.92788 15.1944Z" fill="#151752"></path>
<path d="M22.7256 21.4934H3.27415C3.11325 21.4934 2.95894 21.5573 2.84517 21.671C2.7314 21.7848 2.66748 21.9391 2.66748 22.1C2.66748 22.2609 2.7314 22.4152 2.84517 22.529C2.95894 22.6428 3.11325 22.7067 3.27415 22.7067H22.7256C22.8865 22.7067 23.0408 22.6428 23.1546 22.529C23.2684 22.4152 23.3323 22.2609 23.3323 22.1C23.3323 21.9391 23.2684 21.7848 23.1546 21.671C23.0408 21.5573 22.8865 21.4934 22.7256 21.4934Z" fill="#151752"></path>
</g>
</g>
</g>
</g>
<defs>
<clipPath id="clip0_37_4087">
<rect width="26" height="26" fill="white"></rect>
</clipPath>
</defs>
</svg>
