<svg width="26" height="26" viewBox="0 0 26 26" fill="none" xmlns="http://www.w3.org/2000/svg">
<g id="icon_ui_menu" clip-path="url(#clip0_37_3979)">
<g id="icon_ui_menu_2">
<g id="color_stroke">
<g id="Vector">
<path d="M21.0894 6.67336H4.9105C4.7496 6.67336 4.59529 6.60944 4.48152 6.49567C4.36775 6.38189 4.30383 6.22759 4.30383 6.06669C4.30383 5.90579 4.36775 5.75148 4.48152 5.63771C4.59529 5.52394 4.7496 5.46002 4.9105 5.46002H21.0894C21.2503 5.46002 21.4046 5.52394 21.5184 5.63771C21.6322 5.75148 21.6961 5.90579 21.6961 6.06669C21.6961 6.22759 21.6322 6.38189 21.5184 6.49567C21.4046 6.60944 21.2503 6.67336 21.0894 6.67336Z" fill="#151752"></path>
<path d="M21.0894 20.54H4.9105C4.7496 20.54 4.59529 20.4761 4.48152 20.3623C4.36775 20.2486 4.30383 20.0943 4.30383 19.9334C4.30383 19.7725 4.36775 19.6181 4.48152 19.5044C4.59529 19.3906 4.7496 19.3267 4.9105 19.3267H21.0894C21.2503 19.3267 21.4046 19.3906 21.5184 19.5044C21.6322 19.6181 21.6961 19.7725 21.6961 19.9334C21.6961 20.0943 21.6322 20.2486 21.5184 20.3623C21.4046 20.4761 21.2503 20.54 21.0894 20.54Z" fill="#151752"></path>
<path d="M21.0894 13.6067H4.9105C4.7496 13.6067 4.59529 13.5428 4.48152 13.429C4.36775 13.3152 4.30383 13.1609 4.30383 13C4.30383 12.8391 4.36775 12.6848 4.48152 12.571C4.59529 12.4573 4.7496 12.3934 4.9105 12.3934H21.0894C21.2503 12.3934 21.4046 12.4573 21.5184 12.571C21.6322 12.6848 21.6961 12.8391 21.6961 13C21.6961 13.1609 21.6322 13.3152 21.5184 13.429C21.4046 13.5428 21.2503 13.6067 21.0894 13.6067Z" fill="#151752"></path>
</g>
</g>
</g>
</g>
<defs>
<clipPath id="clip0_37_3979">
<rect width="26" height="26" fill="white"></rect>
</clipPath>
</defs>
</svg>