<svg width="26" height="26" viewBox="0 0 26 26" fill="none" xmlns="http://www.w3.org/2000/svg">
<g id="icon_ui_observer" clip-path="url(#clip0_37_3997)">
<g id="icon_ui_observer_2">
<g id="color_stroke">
<g id="Vector">
<path d="M13.0001 20.1066C8.63206 20.1066 4.42873 17.6418 1.46819 13.3466C1.39712 13.245 1.35901 13.124 1.35901 13C1.35901 12.876 1.39712 12.7549 1.46819 12.6533C4.42873 8.35811 8.63206 5.89331 13.0001 5.89331C17.3681 5.89331 21.5714 8.35811 24.5319 12.6533C24.603 12.7549 24.6411 12.876 24.6411 13C24.6411 13.124 24.603 13.245 24.5319 13.3466C21.5714 17.6418 17.3681 20.1066 13.0001 20.1066ZM2.70926 13C5.42366 16.7509 9.15379 18.8933 13.0001 18.8933C16.8463 18.8933 20.5765 16.7509 23.2909 13C20.5765 9.24904 16.8463 7.10664 13.0001 7.10664C9.15379 7.10664 5.42366 9.24904 2.70926 13Z" fill="#151752"></path>
<path d="M13.0001 16.9433C12.2201 16.9433 11.4577 16.712 10.8093 16.2787C10.1608 15.8454 9.65536 15.2296 9.35689 14.509C9.05843 13.7885 8.98034 12.9956 9.1325 12.2307C9.28465 11.4657 9.66022 10.7631 10.2117 10.2116C10.7632 9.66013 11.4658 9.28457 12.2308 9.13241C12.9957 8.98026 13.7886 9.05835 14.5091 9.35681C15.2297 9.65527 15.8455 10.1607 16.2788 10.8092C16.7121 11.4577 16.9434 12.2201 16.9434 13C16.942 14.0454 16.5261 15.0476 15.7869 15.7868C15.0477 16.526 14.0455 16.9419 13.0001 16.9433ZM13.0001 10.27C12.4601 10.27 11.9323 10.4301 11.4834 10.7301C11.0344 11.03 10.6845 11.4564 10.4779 11.9553C10.2712 12.4541 10.2172 13.003 10.3225 13.5326C10.4279 14.0621 10.6879 14.5486 11.0697 14.9304C11.4515 15.3122 11.9379 15.5722 12.4675 15.6775C12.997 15.7829 13.5459 15.7288 14.0448 15.5222C14.5436 15.3155 14.97 14.9656 15.27 14.5167C15.5699 14.0677 15.7301 13.5399 15.7301 13C15.7291 12.2762 15.4412 11.5824 14.9294 11.0706C14.4177 10.5588 13.7238 10.2709 13.0001 10.27Z" fill="#151752"></path>
<path d="M13.0001 14.3C13.718 14.3 14.3001 13.7179 14.3001 13C14.3001 12.282 13.718 11.7 13.0001 11.7C12.2821 11.7 11.7001 12.282 11.7001 13C11.7001 13.7179 12.2821 14.3 13.0001 14.3Z" fill="#151752"></path>
</g>
</g>
</g>
</g>
<defs>
<clipPath id="clip0_37_3997">
<rect width="26" height="26" fill="white"></rect>
</clipPath>
</defs>
</svg>