<svg width="26" height="26" viewBox="0 0 26 26" fill="none" xmlns="http://www.w3.org/2000/svg">
<g id="icon_ui_hang-up" clip-path="url(#clip0_37_4081)">
<g id="icon_ui_hang-up_2">
<g id="color_stroke">
<path id="Vector" d="M17.2484 22.2768C16.6021 22.2779 15.962 22.1514 15.3647 21.9046C14.7674 21.6577 14.2248 21.2953 13.7679 20.8381L5.16188 12.2321C4.24017 11.3083 3.72253 10.0566 3.72253 8.75161C3.72253 7.44662 4.24017 6.19491 5.16188 5.27108L6.53468 3.89828C6.64868 3.78492 6.80291 3.72128 6.96368 3.72128C7.12445 3.72128 7.27869 3.78492 7.39268 3.89828L11.9895 8.49335C12.0473 8.54971 12.0933 8.61709 12.1247 8.69152C12.1561 8.76594 12.1723 8.8459 12.1723 8.92668C12.1723 9.00746 12.1561 9.08742 12.1247 9.16184C12.0933 9.23627 12.0473 9.30365 11.9895 9.36001L10.5075 10.842L15.1649 15.4925L16.64 14.0105C16.6962 13.954 16.7631 13.9091 16.8367 13.8785C16.9103 13.8479 16.9893 13.8321 17.069 13.8321C17.1488 13.8321 17.2277 13.8479 17.3013 13.8785C17.375 13.9091 17.4418 13.954 17.498 14.0105L22.0948 18.6073C22.1523 18.664 22.1979 18.7314 22.229 18.8058C22.2601 18.8802 22.2762 18.96 22.2762 19.0407C22.2762 19.1213 22.2601 19.2012 22.229 19.2756C22.1979 19.3499 22.1523 19.4174 22.0948 19.474L20.722 20.8468C19.7993 21.7649 18.55 22.2792 17.2484 22.2768ZM6.96455 5.18615L6.01988 6.12908C5.32574 6.82536 4.93595 7.76843 4.93595 8.75161C4.93595 9.73479 5.32574 10.6779 6.01988 11.3741L14.6259 19.9801C15.3222 20.6743 16.2652 21.0641 17.2484 21.0641C18.2316 21.0641 19.1747 20.6743 19.8709 19.9801L20.8139 19.0355L17.0768 15.2967L15.6 16.7804C15.486 16.8938 15.3318 16.9574 15.171 16.9574C15.0102 16.9574 14.856 16.8938 14.742 16.7804L9.21962 11.2667C9.10625 11.1527 9.04262 10.9984 9.04262 10.8377C9.04262 10.6769 9.10625 10.5227 9.21962 10.4087L10.7033 8.92495L6.96455 5.18615Z" fill="#151752"></path>
</g>
</g>
</g>
<defs>
<clipPath id="clip0_37_4081">
<rect width="26" height="26" fill="white"></rect>
</clipPath>
</defs>
</svg>