<svg width="26" height="26" viewBox="0 0 26 26" fill="none" xmlns="http://www.w3.org/2000/svg">
<g id="icon_ui_download" clip-path="url(#clip0_37_4027)">
<g id="icon_ui_download_2">
<g id="color_stroke">
<g id="Vector">
<path d="M20.5885 8.64761L14.8234 2.92761C14.773 2.82936 14.6965 2.74685 14.6024 2.68908C14.5082 2.63131 14.4 2.6005 14.2896 2.60001H7.22624C6.69772 2.60047 6.19097 2.81062 5.81725 3.18435C5.44353 3.55807 5.23337 4.06482 5.23291 4.59334V21.4067C5.23337 21.9352 5.44353 22.4419 5.81725 22.8157C6.19097 23.1894 6.69772 23.3995 7.22624 23.4H18.7529C19.2814 23.3995 19.7882 23.1894 20.1619 22.8157C20.5356 22.4419 20.7458 21.9352 20.7462 21.4067V9.23521C20.774 9.13205 20.7741 9.02338 20.7464 8.9202C20.7187 8.81702 20.6642 8.72299 20.5885 8.64761ZM14.8737 4.68001L18.687 8.46734H15.6537C15.447 8.46688 15.2489 8.38456 15.1027 8.23838C14.9565 8.0922 14.8742 7.89407 14.8737 7.68734V4.68001ZM18.7529 22.1867H7.22624C7.01952 22.1862 6.82138 22.1039 6.67521 21.9577C6.52903 21.8115 6.4467 21.6134 6.44624 21.4067V4.59334C6.4467 4.38661 6.52903 4.18848 6.67521 4.0423C6.82138 3.89612 7.01952 3.8138 7.22624 3.81334H13.6604V7.69254C13.6608 8.22106 13.871 8.72781 14.2447 9.10153C14.6184 9.47526 15.1252 9.68541 15.6537 9.68587H19.5329V21.4067C19.5325 21.6134 19.4501 21.8115 19.3039 21.9577C19.1578 22.1039 18.9596 22.1862 18.7529 22.1867Z" fill="#151752"></path>
<path d="M11.7988 15.3261L10.9962 16.1287V9.18667C10.9962 9.02577 10.9323 8.87147 10.8186 8.75769C10.7048 8.64392 10.5505 8.58001 10.3896 8.58001C10.2287 8.58001 10.0744 8.64392 9.9606 8.75769C9.84683 8.87147 9.78291 9.02577 9.78291 9.18667V16.1287L8.98038 15.3261C8.92347 15.2692 8.85591 15.2241 8.78156 15.1933C8.70721 15.1625 8.62752 15.1466 8.54704 15.1466C8.46657 15.1466 8.38688 15.1625 8.31252 15.1933C8.23817 15.2241 8.17062 15.2692 8.11371 15.3261C8.0568 15.383 8.01166 15.4506 7.98087 15.525C7.95007 15.5993 7.93422 15.679 7.93422 15.7595C7.93422 15.84 7.95007 15.9196 7.98087 15.994C8.01166 16.0683 8.0568 16.1359 8.11371 16.1928L9.95971 18.0267C9.98845 18.055 10.0198 18.0805 10.0533 18.1029C10.0672 18.1133 10.0845 18.1185 10.0984 18.1272C10.1175 18.1386 10.1371 18.149 10.1573 18.1584C10.1771 18.1661 10.1974 18.1725 10.218 18.1775L10.27 18.1931C10.3094 18.2006 10.3494 18.2046 10.3896 18.2052C10.4291 18.2047 10.4686 18.2006 10.5074 18.1931C10.5265 18.1931 10.5421 18.1827 10.5612 18.1775C10.5818 18.1725 10.6021 18.1661 10.6218 18.1584C10.6426 18.1584 10.66 18.1376 10.6808 18.1272C10.7016 18.1168 10.712 18.1133 10.7258 18.1029C10.7594 18.0805 10.7907 18.055 10.8194 18.0267L12.6533 16.1841C12.7682 16.0692 12.8328 15.9133 12.8328 15.7508C12.8328 15.5883 12.7682 15.4324 12.6533 15.3175C12.5384 15.2025 12.3825 15.138 12.22 15.138C12.0574 15.138 11.9016 15.2025 11.7866 15.3175L11.7988 15.3261Z" fill="#151752"></path>
</g>
</g>
</g>
</g>
<defs>
<clipPath id="clip0_37_4027">
<rect width="26" height="26" fill="white"></rect>
</clipPath>
</defs>
</svg>