<svg width="26" height="26" viewBox="0 0 26 26" fill="none" xmlns="http://www.w3.org/2000/svg">
<g id="icon_ui_no-limit" clip-path="url(#clip0_37_4109)">
<g id="icon_ui_no-limit_2">
<g id="color_stroke">
<g id="Vector">
<path d="M6.93329 17.9851C6.12627 17.9848 5.3315 17.7876 4.61792 17.4107C3.90435 17.0337 3.2935 16.4884 2.83838 15.8219C2.38326 15.1555 2.0976 14.3881 2.00618 13.5862C1.91476 12.7844 2.02034 11.9724 2.31376 11.2206C2.60718 10.4688 3.07959 9.79995 3.69 9.27205C4.30041 8.74414 5.0304 8.37313 5.81664 8.19119C6.60289 8.00925 7.42165 8.02187 8.20192 8.22797C8.98218 8.43406 9.70038 8.8274 10.2942 9.37388C10.3514 9.42761 10.3982 9.47094 10.4433 9.51601L13.52 12.5961C13.5778 12.6525 13.6238 12.7199 13.6552 12.7943C13.6866 12.8687 13.7028 12.9487 13.7028 13.0295C13.7028 13.1103 13.6866 13.1902 13.6552 13.2646C13.6238 13.3391 13.5778 13.4064 13.52 13.4628L10.445 16.5343C9.98424 16.9957 9.43675 17.3614 8.83406 17.6104C8.23137 17.8594 7.58539 17.9867 6.93329 17.9851ZM6.93329 9.27334C6.31648 9.27353 5.70923 9.42582 5.16532 9.71673C4.62142 10.0076 4.15765 10.4282 3.8151 10.9412C3.47254 11.4541 3.26177 12.0436 3.20145 12.6575C3.14113 13.2713 3.23313 13.8906 3.46929 14.4604C3.70546 15.0302 4.0785 15.533 4.55537 15.9242C5.03225 16.3154 5.59825 16.583 6.20323 16.7033C6.80822 16.8235 7.43352 16.7927 8.02375 16.6135C8.61398 16.4344 9.15092 16.1125 9.58703 15.6763L12.2373 13.026L9.58529 10.3757C9.54889 10.3376 9.51076 10.3012 9.47089 10.2648C8.78048 9.62589 7.87398 9.27172 6.93329 9.27334Z" fill="#151752"></path>
<path d="M19.2538 17.9712C18.6022 17.972 17.9569 17.8441 17.3548 17.5948C16.7528 17.3455 16.2059 16.9798 15.7456 16.5187L12.6654 13.4403C12.608 13.3837 12.5624 13.3162 12.5312 13.2418C12.5001 13.1674 12.4841 13.0876 12.4841 13.0069C12.4841 12.9263 12.5001 12.8465 12.5312 12.7721C12.5624 12.6977 12.608 12.6302 12.6654 12.5736L15.7456 9.50214L15.8894 9.36348C16.4829 8.81526 17.2012 8.42022 17.982 8.21268C18.7628 8.00514 19.5824 7.99136 20.3698 8.17256C21.1571 8.35375 21.8883 8.72443 22.4998 9.25239C23.1113 9.78036 23.5847 10.4496 23.8788 11.2021C24.1729 11.9546 24.2789 12.7675 24.1875 13.5702C24.096 14.3729 23.81 15.1412 23.3542 15.8083C22.8985 16.4753 22.2867 17.021 21.5721 17.398C20.8575 17.7749 20.0617 17.9717 19.2538 17.9712ZM13.9533 13.0121L16.6036 15.6607C17.1229 16.1799 17.7834 16.5352 18.5029 16.6822C19.2225 16.8293 19.9693 16.7616 20.6508 16.4878C21.3322 16.2139 21.9181 15.7458 22.3358 15.1417C22.7534 14.5376 22.9843 13.8241 22.9999 13.0899C23.0154 12.3556 22.8148 11.633 22.4231 11.0118C22.0314 10.3906 21.4658 9.89814 20.7965 9.59569C20.1273 9.29325 19.3839 9.19412 18.6588 9.31061C17.9337 9.4271 17.2588 9.75409 16.718 10.2509L16.6036 10.3601L13.9533 13.0121Z" fill="#151752"></path>
<path d="M18.9557 15.6693C18.6064 15.6699 18.2605 15.6014 17.9377 15.4678C17.615 15.3343 17.3218 15.1383 17.075 14.8911C16.9601 14.7773 16.8951 14.6225 16.8943 14.4608C16.8935 14.2991 16.9569 14.1437 17.0707 14.0287C17.1845 13.9138 17.3392 13.8488 17.501 13.848C17.6627 13.8472 17.8181 13.9106 17.933 14.0244C18.0673 14.1587 18.2268 14.2652 18.4022 14.3379C18.5777 14.4106 18.7658 14.448 18.9557 14.448C19.1456 14.448 19.3337 14.4106 19.5092 14.3379C19.6846 14.2652 19.8441 14.1587 19.9784 14.0244C20.1127 13.8901 20.2192 13.7307 20.2919 13.5552C20.3646 13.3797 20.402 13.1917 20.402 13.0017C20.402 12.8118 20.3646 12.6237 20.2919 12.4483C20.2192 12.2728 20.1127 12.1134 19.9784 11.9791C19.8634 11.8653 19.7984 11.7105 19.7976 11.5488C19.7968 11.3871 19.8603 11.2317 19.974 11.1167C20.0878 11.0018 20.2426 10.9368 20.4043 10.936C20.566 10.9352 20.7214 10.9986 20.8364 11.1124C21.2144 11.4833 21.4731 11.9587 21.5793 12.4776C21.6854 12.9965 21.6342 13.5353 21.4321 14.0248C21.2301 14.5144 20.8864 14.9325 20.4452 15.2255C20.004 15.5185 19.4853 15.673 18.9557 15.6693Z" fill="#151752"></path>
<path d="M5.33169 15.0696C5.25242 15.0705 5.17376 15.0556 5.10027 15.0258C5.02678 14.9961 4.95992 14.952 4.90356 14.8963C4.39397 14.4081 4.0992 13.7374 4.08408 13.0319C4.06897 12.3263 4.33475 11.6437 4.82296 11.1341C5.31117 10.6245 5.98182 10.3297 6.68737 10.3146C7.39292 10.2995 8.07557 10.5653 8.58516 11.0535L8.6649 11.1297C8.7218 11.1866 8.76694 11.2542 8.79774 11.3286C8.82854 11.4029 8.84439 11.4826 8.84439 11.5631C8.84439 11.6436 8.82854 11.7232 8.79774 11.7976C8.76694 11.8719 8.7218 11.9395 8.6649 11.9964C8.60799 12.0533 8.54043 12.0985 8.46608 12.1293C8.39173 12.1601 8.31204 12.1759 8.23156 12.1759C8.15108 12.1759 8.07139 12.1601 7.99704 12.1293C7.92269 12.0985 7.85513 12.0533 7.79823 11.9964L7.74796 11.9496C7.46566 11.7177 7.10601 11.6013 6.74135 11.6238C6.3767 11.6463 6.03408 11.806 5.78241 12.0708C5.53074 12.3357 5.38869 12.686 5.38482 13.0513C5.38095 13.4167 5.51556 13.7699 5.76156 14.04C5.84711 14.125 5.90547 14.2335 5.92923 14.3517C5.95299 14.4699 5.94109 14.5926 5.89502 14.704C5.84896 14.8155 5.77082 14.9107 5.67052 14.9776C5.57022 15.0446 5.45228 15.0802 5.33169 15.08V15.0696Z" fill="#151752"></path>
</g>
</g>
</g>
</g>
<defs>
<clipPath id="clip0_37_4109">
<rect width="26" height="26" fill="white"></rect>
</clipPath>
</defs>
</svg>