<svg width="26" height="26" viewBox="0 0 26 26" fill="none" xmlns="http://www.w3.org/2000/svg">
<g id="icon_ui_microphone-on" clip-path="url(#clip0_37_3991)">
<g id="icon_ui_microphone-on_2">
<g id="color_stroke">
<g id="Vector">
<path d="M13 17.5066C15.1736 17.5066 16.9433 15.6641 16.9433 13.3986V6.75998C16.9433 4.49451 15.1736 2.65198 13 2.65198C10.8264 2.65198 9.05667 4.49624 9.05667 6.75998V13.3986C9.05667 15.6641 10.8264 17.5066 13 17.5066ZM10.27 6.75998C10.27 5.16358 11.4955 3.86531 13 3.86531C14.5045 3.86531 15.73 5.16531 15.73 6.75998V13.3986C15.73 14.995 14.5045 16.2933 13 16.2933C11.4955 16.2933 10.27 14.995 10.27 13.3986V6.75998Z" fill="#151752"></path>
<path d="M19.5 13.6066C19.5 13.4457 19.4361 13.2914 19.3223 13.1777C19.2085 13.0639 19.0542 13 18.8933 13C18.7324 13 18.5781 13.0639 18.4644 13.1777C18.3506 13.2914 18.2867 13.4457 18.2867 13.6066C18.2867 15.0088 17.7297 16.3534 16.7382 17.3449C15.7468 18.3363 14.4021 18.8933 13 18.8933C11.5979 18.8933 10.2532 18.3363 9.26176 17.3449C8.27032 16.3534 7.71333 15.0088 7.71333 13.6066C7.71333 13.4457 7.64942 13.2914 7.53564 13.1777C7.42187 13.0639 7.26756 13 7.10667 13C6.94577 13 6.79146 13.0639 6.67769 13.1777C6.56392 13.2914 6.5 13.4457 6.5 13.6066C6.50184 15.2249 7.10661 16.7844 8.19627 17.9808C9.28594 19.1772 10.7823 19.9246 12.3933 20.0772V22.204H10.4C10.2391 22.204 10.0848 22.2679 9.97102 22.3817C9.85725 22.4954 9.79333 22.6497 9.79333 22.8106C9.79333 22.9715 9.85725 23.1259 9.97102 23.2396C10.0848 23.3534 10.2391 23.4173 10.4 23.4173H15.6C15.7609 23.4173 15.9152 23.3534 16.029 23.2396C16.1428 23.1259 16.2067 22.9715 16.2067 22.8106C16.2067 22.6497 16.1428 22.4954 16.029 22.3817C15.9152 22.2679 15.7609 22.204 15.6 22.204H13.6067V20.0772C15.2177 19.9246 16.7141 19.1772 17.8037 17.9808C18.8934 16.7844 19.4982 15.2249 19.5 13.6066Z" fill="#151752"></path>
</g>
</g>
</g>
</g>
<defs>
<clipPath id="clip0_37_3991">
<rect width="26" height="26" fill="white"></rect>
</clipPath>
</defs>
</svg>