<svg viewBox="0 0 26 26" fill="none" xmlns="http://www.w3.org/2000/svg">
<g id="icon_ui_delete" clip-path="url(#clip0_37_4097)">
<g id="icon_ui_delete_2">
<g id="color_stroke">
<g id="Vector">
<path d="M23.4 4.60022H2.60001C2.43912 4.60022 2.28481 4.66414 2.17104 4.77791C2.05726 4.89168 1.99335 5.04599 1.99335 5.20689C1.99335 5.36778 2.05726 5.52209 2.17104 5.63586C2.28481 5.74964 2.43912 5.81355 2.60001 5.81355H3.86015L5.06135 21.5869C5.09964 22.0789 5.32164 22.5386 5.68323 22.8745C6.04482 23.2104 6.51955 23.398 7.01308 23.4H18.9505C19.4421 23.3977 19.915 23.2114 20.276 22.8777C20.637 22.544 20.8598 22.0872 20.9005 21.5973L22.1364 5.81529H23.4C23.5609 5.81529 23.7152 5.75137 23.829 5.6376C23.9428 5.52383 24.0067 5.36952 24.0067 5.20862C24.0067 5.04772 23.9428 4.89341 23.829 4.77964C23.7152 4.66587 23.5609 4.60195 23.4 4.60195V4.60022ZM19.6907 21.4933C19.6755 21.6794 19.591 21.853 19.454 21.9798C19.3169 22.1065 19.1372 22.1773 18.9505 22.178H7.01308C6.82481 22.1771 6.6438 22.1053 6.50625 21.9767C6.3687 21.8482 6.28475 21.6724 6.27121 21.4846L5.07695 5.81355H20.9196L19.6907 21.4933Z" fill="#151752"></path>
<path d="M11.1592 3.20662H14.8408C15.0017 3.20662 15.156 3.1427 15.2698 3.02893C15.3836 2.91516 15.4475 2.76085 15.4475 2.59995C15.4475 2.43905 15.3836 2.28475 15.2698 2.17097C15.156 2.0572 15.0017 1.99329 14.8408 1.99329H11.1592C10.9983 1.99329 10.844 2.0572 10.7302 2.17097C10.6165 2.28475 10.5525 2.43905 10.5525 2.59995C10.5525 2.76085 10.6165 2.91516 10.7302 3.02893C10.844 3.1427 10.9983 3.20662 11.1592 3.20662Z" fill="#151752"></path>
<path d="M12.9844 19.4133C13.1453 19.4133 13.2996 19.3494 13.4134 19.2356C13.5272 19.1218 13.5911 18.9675 13.5911 18.8066V9.70662C13.5911 9.54572 13.5272 9.39141 13.4134 9.27764C13.2996 9.16387 13.1453 9.09995 12.9844 9.09995C12.8235 9.09995 12.6692 9.16387 12.5554 9.27764C12.4417 9.39141 12.3777 9.54572 12.3777 9.70662V18.8066C12.3777 18.9675 12.4417 19.1218 12.5554 19.2356C12.6692 19.3494 12.8235 19.4133 12.9844 19.4133Z" fill="#151752"></path>
<path d="M16.8601 19.4133H16.9C17.0539 19.4132 17.2021 19.3546 17.3144 19.2493C17.4267 19.1441 17.4948 19.0001 17.5049 18.8465L18.1029 9.74649C18.1082 9.66682 18.0977 9.5869 18.072 9.51129C18.0464 9.43568 18.0061 9.36587 17.9534 9.30583C17.9008 9.24579 17.8369 9.19671 17.7653 9.16139C17.6937 9.12606 17.6158 9.10519 17.5361 9.09995C17.4565 9.09472 17.3766 9.10523 17.301 9.13088C17.2253 9.15653 17.1555 9.19682 17.0955 9.24945C17.0355 9.30208 16.9864 9.36602 16.951 9.43763C16.9157 9.50923 16.8948 9.58708 16.8896 9.66675L16.2933 18.7685C16.2879 18.8481 16.2983 18.928 16.3239 19.0036C16.3496 19.0792 16.3899 19.1489 16.4425 19.2089C16.4952 19.2688 16.5592 19.3177 16.6309 19.3528C16.7026 19.3879 16.7805 19.4084 16.8601 19.4133Z" fill="#151752"></path>
<path d="M9.06881 19.4133H9.10868C9.26922 19.4026 9.41898 19.3288 9.52521 19.2079C9.63143 19.0871 9.68546 18.9291 9.67548 18.7685L9.07748 9.66849C9.07225 9.58882 9.05137 9.51096 9.01604 9.43936C8.98072 9.36776 8.93164 9.30382 8.8716 9.25118C8.81157 9.19855 8.74175 9.15826 8.66614 9.13261C8.59054 9.10696 8.51062 9.09645 8.43095 9.10169C8.35128 9.10692 8.27342 9.1278 8.20182 9.16312C8.13022 9.19845 8.06628 9.24753 8.01365 9.30757C7.96101 9.3676 7.92072 9.43742 7.89507 9.51302C7.86942 9.58863 7.85891 9.66855 7.86415 9.74822L8.46215 18.8482C8.4727 19.0018 8.54125 19.1456 8.6539 19.2505C8.76655 19.3555 8.91487 19.4136 9.06881 19.4133Z" fill="#151752"></path>
</g>
</g>
</g>
</g>
<defs>
<clipPath id="clip0_37_4097">
<rect width="26" height="26" fill="white"></rect>
</clipPath>
</defs>
</svg>
