<svg viewBox="0 0 26 26" fill="none" xmlns="http://www.w3.org/2000/svg">
<g id="icon_iu_send-again-v2" clip-path="url(#clip0_37_4121)">
<g id="icon_iu_send-again-v2_2">
<g id="color_stroke">
<path id="Vector" d="M21.4257 5.98694H4.57427C4.05096 5.98694 3.54907 6.1947 3.17887 6.56457C2.80867 6.93445 2.60047 7.43616 2.60001 7.95947V18.0405C2.60047 18.5635 2.80843 19.065 3.17825 19.4348C3.54808 19.8046 4.04953 20.0126 4.57254 20.0131H21.424C21.6833 20.0133 21.94 19.9625 22.1797 19.8635C22.4193 19.7644 22.637 19.6192 22.8205 19.436C23.004 19.2529 23.1496 19.0354 23.2491 18.7959C23.3485 18.5565 23.3998 18.2998 23.4 18.0405V7.95947C23.3995 7.43616 23.1913 6.93445 22.8211 6.56457C22.4509 6.1947 21.949 5.98694 21.4257 5.98694ZM4.57427 7.20027H21.4257C21.5281 7.20034 21.6294 7.2211 21.7235 7.26131C21.8176 7.30153 21.9027 7.36036 21.9735 7.43427L13 13.832L4.02654 7.43427C4.09735 7.36036 4.18237 7.30153 4.2765 7.26131C4.37063 7.2211 4.47192 7.20034 4.57427 7.20027ZM21.4257 18.7997H4.57427C4.47443 18.8 4.37552 18.7805 4.28321 18.7424C4.1909 18.7044 4.107 18.6485 4.03632 18.578C3.96563 18.5075 3.90956 18.4237 3.8713 18.3315C3.83303 18.2392 3.81334 18.1404 3.81334 18.0405V8.77241L12.6533 15.0696C12.756 15.143 12.879 15.1825 13.0052 15.1825C13.1314 15.1825 13.2544 15.143 13.3571 15.0696L22.1971 8.77241V18.0405C22.1971 18.1413 22.1771 18.241 22.1381 18.3339C22.0992 18.4268 22.0422 18.5111 21.9704 18.5817C21.8986 18.6524 21.8135 18.708 21.72 18.7455C21.6265 18.7829 21.5265 18.8013 21.4257 18.7997Z" fill="#151752"></path>
</g>
</g>
</g>
<defs>
<clipPath id="clip0_37_4121">
<rect width="26" height="26" fill="white"></rect>
</clipPath>
</defs>
</svg>
