<svg width="26" height="26" viewBox="0 0 26 26" fill="none" xmlns="http://www.w3.org/2000/svg">
<g id="icon_ui_videoconference" clip-path="url(#clip0_37_4069)">
<g id="icon_ui_videoconference_2">
<g id="color_stroke">
<g id="Vector">
<path d="M13 1.99335C11.0821 1.99332 9.19747 2.49444 7.53288 3.44705C5.86829 4.39966 4.4815 5.77069 3.50994 7.42429C2.53838 9.07789 2.01576 10.9567 1.99388 12.8744C1.972 14.7922 2.45161 16.6824 3.38519 18.3577V23.4C3.38496 23.4797 3.40049 23.5587 3.4309 23.6324C3.46131 23.7062 3.50598 23.7731 3.56236 23.8295C3.61874 23.8859 3.68571 23.9306 3.75942 23.961C3.83313 23.9914 3.91212 24.0069 3.99185 24.0067C4.06276 24.0066 4.13312 23.9942 4.19985 23.9703L7.74799 22.6737C9.22099 23.4732 10.8571 23.9257 12.5316 23.9968C14.206 24.0678 15.8746 23.7556 17.4101 23.0838C18.9455 22.412 20.3073 21.3985 21.3915 20.1204C22.4757 18.8424 23.2538 17.3337 23.6663 15.7093C24.0788 14.0849 24.115 12.3877 23.7719 10.7472C23.4289 9.10671 22.7158 7.56622 21.6869 6.24321C20.6581 4.92021 19.3407 3.84962 17.8352 3.11311C16.3297 2.3766 14.676 1.99361 13 1.99335ZM13 22.7933C11.341 22.7938 9.70917 22.3728 8.25759 21.5696C8.23122 21.5563 8.204 21.5447 8.17612 21.5349C8.09523 21.47 7.99894 21.4272 7.89659 21.4105C7.79424 21.3938 7.68931 21.4038 7.59199 21.4396L4.59852 22.5333V18.2C4.59852 18.1879 4.59852 18.1775 4.59852 18.1653C4.59852 18.1532 4.59852 18.122 4.59852 18.1012C4.59492 18.0813 4.59029 18.0617 4.58465 18.0423C4.58465 18.0249 4.57425 18.0059 4.56732 17.9885C4.56077 17.9675 4.55206 17.9471 4.54132 17.9279L4.52745 17.8967C3.44892 16.029 3.01693 13.8577 3.29851 11.7194C3.58009 9.5812 4.5595 7.59568 6.08477 6.07093C7.61004 4.54619 9.5959 3.56746 11.7342 3.28662C13.8726 3.00578 16.0438 3.43852 17.9111 4.5177C19.7783 5.59688 21.2372 7.26216 22.0614 9.25516C22.8855 11.2482 23.0289 13.4575 22.4692 15.5403C21.9095 17.6231 20.6781 19.4629 18.9659 20.7743C17.2538 22.0858 15.1567 22.7955 13 22.7933Z" fill="#151752"></path>
<path d="M18.7703 10.8351L16.406 11.3239V10.2631C16.4055 9.88028 16.2533 9.5133 15.9826 9.24262C15.7119 8.97194 15.3449 8.81967 14.9621 8.81921H7.94385C7.56106 8.81967 7.19407 8.97194 6.92339 9.24262C6.65271 9.5133 6.50044 9.88028 6.49999 10.2631V15.7369C6.50044 16.1197 6.65271 16.4867 6.92339 16.7574C7.19407 17.0281 7.56106 17.1804 7.94385 17.1808H14.9621C15.3449 17.1804 15.7119 17.0281 15.9826 16.7574C16.2533 16.4867 16.4055 16.1197 16.406 15.7369V14.6761L18.7703 15.1649C18.8107 15.1733 18.852 15.1773 18.8933 15.1771C19.0541 15.1766 19.2081 15.1126 19.3218 14.9989C19.4355 14.8852 19.4995 14.7312 19.5 14.5704V11.4296C19.4997 11.3396 19.4795 11.2507 19.4408 11.1694C19.402 11.0881 19.3457 11.0165 19.2759 10.9596C19.2061 10.9027 19.1245 10.862 19.0371 10.8405C18.9496 10.819 18.8585 10.8171 18.7703 10.8351ZM15.1927 15.7369C15.1922 15.7979 15.1678 15.8563 15.1246 15.8995C15.0815 15.9426 15.0231 15.967 14.9621 15.9675H7.94385C7.88285 15.967 7.82448 15.9426 7.78134 15.8995C7.73821 15.8563 7.71377 15.7979 7.71332 15.7369V10.2631C7.71377 10.2021 7.73821 10.1437 7.78134 10.1006C7.82448 10.0574 7.88285 10.033 7.94385 10.0325H14.9621C15.0231 10.033 15.0815 10.0574 15.1246 10.1006C15.1678 10.1437 15.1922 10.2021 15.1927 10.2631V15.7369ZM18.2867 13.8303L16.4667 13.4472V12.5528L18.2953 12.1749L18.2867 13.8303Z" fill="#151752"></path>
</g>
</g>
</g>
</g>
<defs>
<clipPath id="clip0_37_4069">
<rect width="26" height="26" fill="white"></rect>
</clipPath>
</defs>
</svg>