<svg viewBox="0 0 885 360" fill="none" xmlns="http://www.w3.org/2000/svg">
<g id="illu_bg_agenda">
<rect x="0.5" y="0.5" width="884" height="359" rx="4.5" stroke="#8A38F5" stroke-dasharray="10 5"></rect>
<g id="Size=Small" clip-path="url(#clip0_86_87)">
<g id="illu_bg_agenda">
<g id="background">
<path id="Vector" d="M151.838 147.214C174.394 155.86 161.71 201.418 143.803 210.966C131.919 217.302 102.163 208.474 76.5627 213.669C56.6065 217.72 49.7221 214.6 56.9752 200.161C64.6627 184.865 42.3846 179.94 41.9283 162.529C41.644 151.702 46.6033 138.879 68.7346 143.514C113.903 152.971 131.35 139.363 151.841 147.214H151.838Z" fill="#EDEDED"></path>
<g id="Vector_2">
<path d="M150.988 145.501C173.544 154.147 160.859 199.706 142.953 209.254C131.069 215.59 101.313 206.761 75.7126 211.956C55.7564 216.008 48.872 212.887 56.1251 198.448C63.8126 183.152 41.5345 178.23 41.0782 160.816C40.7939 149.989 45.7501 137.166 67.8814 141.802C113.05 151.258 130.497 137.65 150.988 145.501Z" fill="#2BF5BA"></path>
<path d="M161.747 211.68C162.383 210.134 161.042 208.107 158.75 207.153C156.459 206.199 154.085 206.679 153.449 208.225C152.812 209.771 154.154 211.798 156.445 212.752C158.737 213.706 161.11 213.226 161.747 211.68Z" fill="#2BF5BA"></path>
</g>
<g id="Vector_3">
<path d="M46.0937 190.085C45.7312 188.52 46.9249 186.839 48.7562 186.33C50.5874 185.821 52.3655 186.679 52.728 188.244C53.0905 189.809 51.8968 191.49 50.0655 191.999C48.2343 192.509 46.4562 191.651 46.0937 190.085Z" fill="#FFC391"></path>
<path d="M143.023 218.754C143.808 218.163 144.069 217.181 143.607 216.56C143.145 215.939 142.134 215.914 141.349 216.504C140.564 217.095 140.303 218.077 140.765 218.698C141.227 219.32 142.238 219.345 143.023 218.754Z" fill="#FFC391"></path>
</g>
</g>
<g id="illu_bg_agenda__2">
<g id="stroke">
<g id="Group">
<path id="Vector_4" d="M49.6187 178.12L67.1437 164.795L43.7437 164.854L41.8687 165.75C42.828 169.267 44.9874 173.073 49.6187 178.12Z" fill="#2AEDB4"></path>
<g id="Vector_5">
<path d="M49.9531 148.062H47.6562C47.2852 148.062 46.9844 148.365 46.9844 148.738V164.1C46.9844 164.473 47.2852 164.776 47.6562 164.776H49.9531C50.3242 164.776 50.625 164.473 50.625 164.1V148.738C50.625 148.365 50.3242 148.062 49.9531 148.062Z" fill="#2BF5BA"></path>
<path d="M58.425 145.089H56.8781C56.507 145.089 56.2062 145.392 56.2062 145.765V164.097C56.2062 164.47 56.507 164.773 56.8781 164.773H58.425C58.796 164.773 59.0968 164.47 59.0968 164.097V145.765C59.0968 145.392 58.796 145.089 58.425 145.089Z" fill="#2BF5BA"></path>
</g>
<path id="Vector_6" d="M54.175 146.544H51.3281C50.9398 146.544 50.625 146.861 50.625 147.251V164.066C50.625 164.456 50.9398 164.773 51.3281 164.773H54.175C54.5633 164.773 54.8781 164.456 54.8781 164.066V147.251C54.8781 146.861 54.5633 146.544 54.175 146.544Z" fill="#2AEDB4"></path>
<g id="Vector_7">
<path d="M59.0688 162.048H56.1626V162.362H59.0688V162.048Z" fill="#FF8578"></path>
<path d="M59.0688 147.503H56.1626V147.817H59.0688V147.503Z" fill="#FF8578"></path>
</g>
<g id="Vector_8">
<path d="M50.625 150.878H46.9844V161.96H50.625V150.878Z" fill="#FFC391"></path>
<path d="M56.2218 150.41C56.2218 150.037 55.921 149.734 55.55 149.734C55.1789 149.734 54.8781 150.037 54.8781 150.41V164.097C54.8781 164.47 55.1789 164.773 55.55 164.773C55.921 164.773 56.2218 164.47 56.2218 164.097V150.41Z" fill="#FFC391"></path>
<path d="M60.5152 151.012C60.3877 150.661 60.0019 150.481 59.6534 150.609C59.3049 150.737 59.1257 151.125 59.2532 151.476L63.928 164.33C64.0554 164.681 64.4412 164.861 64.7897 164.733C65.1382 164.604 65.3174 164.216 65.1899 163.866L60.5152 151.012Z" fill="#FFC391"></path>
</g>
<path id="Vector_9" d="M67.1438 164.619H65.2031C65.2438 164.568 65.2812 164.512 65.3094 164.452C65.4031 164.251 65.4125 164.025 65.3375 163.814L60.6625 150.96C60.5063 150.529 60.0281 150.306 59.6 150.463C59.4625 150.514 59.3469 150.598 59.2562 150.708V145.768C59.2562 145.309 58.8844 144.935 58.4281 144.935H56.8812C56.425 144.935 56.0531 145.309 56.0531 145.768V149.756C55.9125 149.649 55.7406 149.583 55.5531 149.583C55.3656 149.583 55.1781 149.656 55.0375 149.769V147.254C55.0375 146.78 54.6531 146.39 54.1781 146.39H51.3281C50.8562 146.39 50.4688 146.777 50.4688 147.254V148.094C50.3281 147.977 50.15 147.908 49.9531 147.908H47.6562C47.2 147.908 46.8281 148.282 46.8281 148.741V164.103C46.8281 164.301 46.9 164.48 47.0125 164.622H43.8594C43.7719 164.622 43.7031 164.691 43.7031 164.779C43.7031 164.867 43.7719 164.936 43.8594 164.936H64.5563C64.5563 164.936 64.5562 164.936 64.5594 164.936H67.1406C67.2281 164.936 67.2969 164.867 67.2969 164.779C67.2969 164.691 67.2281 164.622 67.1406 164.622L67.1438 164.619ZM59.4156 151.026C59.475 150.9 59.5781 150.806 59.7062 150.756C59.7656 150.734 59.825 150.724 59.8812 150.724C60.0906 150.724 60.2906 150.856 60.3656 151.064L65.0406 163.918C65.0875 164.047 65.0813 164.188 65.025 164.314C64.9656 164.44 64.8625 164.534 64.7344 164.584C64.6063 164.631 64.4656 164.625 64.3406 164.568C64.2156 164.509 64.1219 164.405 64.075 164.276L59.4 151.422C59.3531 151.293 59.3594 151.152 59.4156 151.026ZM63.7812 164.383C63.8125 164.468 63.8594 164.546 63.9156 164.616H59.0719C59.1875 164.474 59.2562 164.295 59.2562 164.097V151.94L63.7812 164.383ZM55.55 149.891C55.7937 149.891 55.9969 150.064 56.05 150.294V164.1C56.05 164.125 56.0562 164.147 56.0562 164.172C56.0219 164.424 55.8063 164.619 55.5469 164.619C55.2625 164.619 55.0312 164.386 55.0312 164.1V150.413C55.0312 150.127 55.2625 149.894 55.5469 149.894L55.55 149.891ZM56.2156 164.59C56.2156 164.59 56.2312 164.609 56.2375 164.616H56.1938C56.1938 164.616 56.2094 164.6 56.2156 164.59ZM54.8688 164.572C54.8813 164.587 54.8937 164.603 54.9062 164.616H54.8313C54.8313 164.616 54.8563 164.587 54.8688 164.572ZM50.6687 164.619H50.5938C50.5938 164.619 50.6188 164.59 50.6312 164.575C50.6438 164.59 50.6562 164.606 50.6687 164.619ZM47.6562 164.619C47.3719 164.619 47.1406 164.386 47.1406 164.1V148.738C47.1406 148.452 47.3719 148.219 47.6562 148.219H49.9531C50.2375 148.219 50.4688 148.452 50.4688 148.738V164.1C50.4688 164.386 50.2375 164.619 49.9531 164.619H47.6562ZM51.325 164.619C51.025 164.619 50.7781 164.374 50.7781 164.069V147.251C50.7781 146.95 51.0219 146.701 51.325 146.701H54.175C54.475 146.701 54.7219 146.946 54.7219 147.251V164.069C54.7219 164.37 54.4781 164.619 54.175 164.619H51.325ZM56.8781 164.619C56.6187 164.619 56.4062 164.424 56.3687 164.172C56.3687 164.147 56.375 164.125 56.375 164.1V150.413C56.375 150.363 56.3687 150.316 56.3594 150.268V145.768C56.3594 145.482 56.5906 145.249 56.875 145.249H58.4219C58.7062 145.249 58.9375 145.482 58.9375 145.768V164.1C58.9375 164.386 58.7062 164.619 58.4219 164.619H56.875H56.8781Z" fill="#07064E"></path>
</g>
<path id="Vector_10" d="M50.5781 196.006C50.4906 196.006 50.4219 195.937 50.4219 195.849C50.4219 195.761 50.4906 195.692 50.5781 195.692L157.625 195.573C157.712 195.573 157.781 195.642 157.781 195.73C157.781 195.818 157.712 195.887 157.625 195.887L50.5781 196.006Z" fill="#07064E"></path>
<path id="Vector_11" d="M49.2935 196.006H47.3403C47.2528 196.006 47.1841 195.937 47.1841 195.849C47.1841 195.761 47.2528 195.692 47.3403 195.692H49.2935C49.381 195.692 49.4497 195.761 49.4497 195.849C49.4497 195.937 49.381 196.006 49.2935 196.006Z" fill="#2BF5BA"></path>
<g id="Group_2">
<path id="Vector_12" d="M84.3125 203.996C83.7938 204.719 77.8281 206.372 69.5906 206.538C59.3438 206.746 55.9625 205.548 56.3469 204.854C57.1844 203.342 68.6813 202.035 76.9219 202.035C85.1625 202.035 84.7844 203.339 84.3125 203.993V203.996Z" fill="#2AEDB4"></path>
<path id="Vector_13" d="M82.1595 199.168H65.4813L58.6782 201.733V205.156H75.3532L82.1595 202.591V199.168Z" fill="#2BF5BA"></path>
<path id="Vector_14" d="M81.4186 199.448C80.6529 199.31 79.8686 199.209 79.0811 199.168H77.6373C76.4498 199.234 75.2686 199.473 74.1404 199.976C69.0779 202.371 63.4248 199.423 58.9404 201.736H75.3529L81.4186 199.448Z" fill="#2AEDB4"></path>
<g id="Vector_15">
<path d="M58.6782 201.89H75.3532C75.372 201.89 75.3907 201.887 75.4095 201.881L82.2157 199.313C82.2876 199.288 82.3282 199.212 82.3157 199.137C82.3032 199.061 82.2376 199.008 82.1626 199.008H65.4876C65.4688 199.008 65.4501 199.011 65.4313 199.017L58.6251 201.585C58.5532 201.61 58.5126 201.686 58.5251 201.761C58.5376 201.837 58.6032 201.89 58.6782 201.89ZM65.5095 199.325H81.297L75.3251 201.579H59.5376L65.5095 199.325Z" fill="#07064E"></path>
<path d="M58.6782 202.748H75.3532C75.372 202.748 75.3907 202.745 75.4095 202.739L82.2157 200.171C82.297 200.139 82.3376 200.051 82.3063 199.97C82.2751 199.888 82.1845 199.847 82.1063 199.879L75.3282 202.434H58.6813C58.5938 202.434 58.5251 202.503 58.5251 202.591C58.5251 202.679 58.5938 202.748 58.6813 202.748H58.6782Z" fill="#07064E"></path>
<path d="M82.1032 200.73L75.3251 203.285H58.6782C58.5907 203.285 58.522 203.355 58.522 203.443C58.522 203.531 58.5907 203.6 58.6782 203.6H75.3532C75.372 203.6 75.3907 203.597 75.4095 203.59L82.2157 201.023C82.297 200.991 82.3376 200.903 82.3063 200.821C82.2751 200.74 82.1845 200.699 82.1063 200.73H82.1032Z" fill="#07064E"></path>
<path d="M82.1032 201.588L75.3251 204.143H58.6782C58.5907 204.143 58.522 204.213 58.522 204.301C58.522 204.389 58.5907 204.458 58.6782 204.458H75.3532C75.372 204.458 75.3907 204.455 75.4095 204.448L82.2157 201.881C82.297 201.849 82.3376 201.761 82.3063 201.679C82.2751 201.598 82.1845 201.557 82.1063 201.588H82.1032Z" fill="#07064E"></path>
<path d="M82.1032 202.443L75.3251 204.998H58.6782C58.5907 204.998 58.522 205.067 58.522 205.155C58.522 205.243 58.5907 205.313 58.6782 205.313H75.3532C75.372 205.313 75.3907 205.309 75.4095 205.303L82.2157 202.735C82.297 202.704 82.3376 202.616 82.3063 202.534C82.2751 202.453 82.1845 202.412 82.1063 202.443H82.1032Z" fill="#07064E"></path>
</g>
</g>
<path id="Vector_16" d="M113.597 197.326C113.387 198.238 112.569 198.926 111.6 198.926H89.7312C88.7624 198.926 87.9468 198.241 87.7343 197.326C74.3187 199.284 88.8343 201.23 100.666 201.142C112.5 201.227 127.003 199.281 113.597 197.326Z" fill="#2AEDB4"></path>
<path id="Vector_17" d="M76.5092 149.998H124.822C126.809 149.998 128.422 151.62 128.422 153.619V180.097H72.9092V153.622C72.9092 151.623 74.5217 150.001 76.5092 150.001V149.998Z" fill="#EDEDED"></path>
<g id="Group_3">
<path id="Vector_18" d="M72.7905 180.038V182.002C72.7905 183.994 74.4124 185.622 76.3905 185.622H95.9468V194.611H105.381V185.622H124.706C126.687 185.622 128.306 183.991 128.306 182.002V180.038H72.7905Z" fill="white"></path>
<path id="Vector_19" d="M111.6 194.624H89.7312C88.603 194.624 87.6812 195.551 87.6812 196.685C87.6812 197.82 88.603 198.747 89.7312 198.747H111.6C112.728 198.747 113.65 197.82 113.65 196.685C113.65 195.551 112.728 194.624 111.6 194.624Z" fill="white"></path>
</g>
<path id="Vector_20" d="M96.0844 185.553C96.0844 185.582 96.0781 185.61 96.0781 185.638C96.0781 187.967 98.1312 189.856 100.662 189.856C103.194 189.856 105.247 187.967 105.247 185.638C105.247 185.61 105.244 185.582 105.241 185.553H96.0781H96.0844Z" fill="#EBEBEB"></path>
<path id="Vector_21" d="M124.822 149.841H76.5092C74.4373 149.841 72.7529 151.535 72.7529 153.619V182.046C72.7529 184.13 74.4373 185.824 76.5092 185.824H95.7779V194.463H89.7311C88.5154 194.463 87.5248 195.46 87.5248 196.682C87.5248 197.905 88.5154 198.901 89.7311 198.901H111.6C112.815 198.901 113.806 197.905 113.806 196.682C113.806 195.46 112.815 194.463 111.6 194.463H105.553V185.824H124.822C126.894 185.824 128.578 184.13 128.578 182.046V153.622C128.578 151.538 126.894 149.844 124.822 149.844V149.841ZM76.5092 150.155H124.822C126.722 150.155 128.265 151.711 128.265 153.619V179.924H73.0654V153.622C73.0654 151.711 74.6123 150.158 76.5092 150.158V150.155ZM96.0904 194.466V185.827H105.24V194.466H96.0904ZM113.494 196.685C113.494 197.735 112.644 198.59 111.6 198.59H89.7311C88.6873 198.59 87.8373 197.735 87.8373 196.685C87.8373 195.636 88.6873 194.781 89.7311 194.781H95.8279C95.8561 194.809 95.8936 194.825 95.9342 194.825C95.9748 194.825 96.0123 194.809 96.0404 194.781H111.6C112.644 194.781 113.494 195.636 113.494 196.685ZM124.822 185.512H76.5092C74.6092 185.512 73.0654 183.957 73.0654 182.049V180.242H128.269V182.049C128.269 183.96 126.722 185.512 124.825 185.512H124.822Z" fill="#07064E"></path>
<path id="Vector_22" d="M120.831 154.163H80.2718C78.8065 154.163 77.6187 155.357 77.6187 156.831V174.597C77.6187 176.071 78.8065 177.266 80.2718 177.266H120.831C122.296 177.266 123.484 176.071 123.484 174.597V156.831C123.484 155.357 122.296 154.163 120.831 154.163Z" fill="#DDDDDD"></path>
<path id="Vector_23" d="M120.831 152.88H80.2718C78.8065 152.88 77.6187 154.075 77.6187 155.548V173.315C77.6187 174.789 78.8065 175.983 80.2718 175.983H120.831C122.296 175.983 123.484 174.789 123.484 173.315V155.548C123.484 154.075 122.296 152.88 120.831 152.88Z" fill="white"></path>
<path id="Vector_24" d="M79.6405 152.525H121.462C122.578 152.525 123.481 153.437 123.481 154.555V156.953H77.6187V154.555C77.6187 153.433 78.5249 152.525 79.6374 152.525H79.6405Z" fill="#07064E"></path>
<path id="Vector_25" d="M116.172 155.919C116.821 155.919 117.347 155.39 117.347 154.738C117.347 154.085 116.821 153.556 116.172 153.556C115.523 153.556 114.997 154.085 114.997 154.738C114.997 155.39 115.523 155.919 116.172 155.919Z" fill="white"></path>
<path id="Vector_26" d="M119.575 155.919C120.224 155.919 120.75 155.39 120.75 154.738C120.75 154.085 120.224 153.556 119.575 153.556C118.926 153.556 118.4 154.085 118.4 154.738C118.4 155.39 118.926 155.919 119.575 155.919Z" fill="#2BF5BA"></path>
<g id="Vector_27">
<path d="M98.2593 160.69H85.3562C84.7607 160.69 84.278 161.176 84.278 161.774V162.676C84.278 163.275 84.7607 163.761 85.3562 163.761H98.2593C98.8547 163.761 99.3374 163.275 99.3374 162.676V161.774C99.3374 161.176 98.8547 160.69 98.2593 160.69Z" fill="#2BF5BA"></path>
<path d="M82.0686 160.693H81.7311L80.8218 161.482L80.9499 161.664C80.9499 161.664 80.9687 161.683 80.9812 161.693C80.9937 161.702 81.0093 161.708 81.028 161.712C81.0468 161.712 81.0655 161.712 81.0843 161.712C81.103 161.708 81.1249 161.699 81.1437 161.683L81.6593 161.243C81.6562 161.312 81.653 161.378 81.653 161.441V163.446H81.0093V163.764H82.653V163.446H82.0655V160.7L82.0686 160.693Z" fill="#2BF5BA"></path>
</g>
<g id="Vector_28">
<path d="M98.2594 168.525H85.3563C84.7608 168.525 84.2781 169.011 84.2781 169.61V170.512C84.2781 171.111 84.7608 171.596 85.3563 171.596H98.2594C98.8548 171.596 99.3375 171.111 99.3375 170.512V169.61C99.3375 169.011 98.8548 168.525 98.2594 168.525Z" fill="#EBEBEB"></path>
<path d="M82.725 171.247C82.7688 171.247 82.8063 171.26 82.8313 171.288C82.8563 171.316 82.8687 171.348 82.8687 171.392V171.643H80.8281V171.502C80.8281 171.473 80.8344 171.442 80.8438 171.411C80.8563 171.379 80.875 171.351 80.9 171.326L81.8625 170.358C81.9438 170.276 82.0156 170.197 82.0813 170.122C82.1469 170.047 82.2 169.971 82.2469 169.899C82.2906 169.823 82.3281 169.748 82.3531 169.669C82.3781 169.591 82.3906 169.509 82.3906 169.421C82.3906 169.333 82.3781 169.261 82.35 169.198C82.3219 169.132 82.2875 169.079 82.2406 169.038C82.1938 168.994 82.1406 168.962 82.075 168.94C82.0125 168.918 81.9438 168.909 81.8688 168.909C81.7938 168.909 81.7281 168.918 81.6656 168.94C81.6031 168.962 81.55 168.991 81.5 169.028C81.4531 169.066 81.4125 169.113 81.3781 169.163C81.3469 169.217 81.3219 169.273 81.3094 169.333C81.2906 169.387 81.2656 169.424 81.2344 169.443C81.2031 169.462 81.1594 169.465 81.1031 169.456L80.8875 169.418C80.9063 169.277 80.9469 169.151 81.0031 169.044C81.0594 168.937 81.1344 168.846 81.2219 168.774C81.3094 168.701 81.4094 168.645 81.525 168.61C81.6375 168.573 81.7625 168.554 81.8938 168.554C82.025 168.554 82.15 168.573 82.2625 168.613C82.375 168.651 82.4719 168.708 82.5531 168.783C82.6344 168.855 82.7 168.947 82.7469 169.053C82.7937 169.16 82.8156 169.28 82.8156 169.412C82.8156 169.525 82.8 169.632 82.7656 169.729C82.7313 169.827 82.6875 169.918 82.6313 170.006C82.575 170.094 82.5063 170.179 82.4313 170.263C82.3563 170.348 82.275 170.43 82.1906 170.515L81.4187 171.307C81.4781 171.291 81.5375 171.279 81.5969 171.269C81.6563 171.26 81.7125 171.253 81.7688 171.253H82.7281L82.725 171.247Z" fill="#EBEBEB"></path>
</g>
<g id="Vector_29">
<path d="M98.2594 167.705H85.3563C84.7608 167.705 84.2781 168.19 84.2781 168.789V169.691C84.2781 170.29 84.7608 170.776 85.3563 170.776H98.2594C98.8548 170.776 99.3375 170.29 99.3375 169.691V168.789C99.3375 168.19 98.8548 167.705 98.2594 167.705Z" fill="#07064E"></path>
<path d="M82.725 170.392C82.7688 170.392 82.8063 170.405 82.8313 170.433C82.8563 170.461 82.8687 170.493 82.8687 170.537V170.788H80.8281V170.647C80.8281 170.618 80.8344 170.587 80.8438 170.556C80.8563 170.524 80.875 170.496 80.9 170.471L81.8625 169.503C81.9438 169.421 82.0156 169.342 82.0813 169.267C82.1469 169.192 82.2 169.116 82.2469 169.044C82.2906 168.968 82.3281 168.893 82.3531 168.814C82.3781 168.736 82.3906 168.654 82.3906 168.566C82.3906 168.478 82.3781 168.406 82.35 168.343C82.3219 168.277 82.2875 168.224 82.2406 168.183C82.1938 168.139 82.1406 168.107 82.075 168.085C82.0125 168.063 81.9438 168.054 81.8688 168.054C81.7938 168.054 81.7281 168.063 81.6656 168.085C81.6031 168.107 81.55 168.136 81.5 168.173C81.4531 168.211 81.4125 168.258 81.3781 168.308C81.3469 168.362 81.3219 168.418 81.3094 168.478C81.2906 168.532 81.2656 168.569 81.2344 168.588C81.2031 168.607 81.1594 168.61 81.1031 168.601L80.8875 168.563C80.9063 168.422 80.9469 168.296 81.0031 168.189C81.0594 168.082 81.1344 167.991 81.2219 167.919C81.3094 167.846 81.4094 167.79 81.525 167.755C81.6375 167.718 81.7625 167.699 81.8938 167.699C82.025 167.699 82.15 167.718 82.2625 167.758C82.375 167.796 82.4719 167.853 82.5531 167.928C82.6344 168 82.7 168.092 82.7469 168.198C82.7937 168.305 82.8156 168.425 82.8156 168.557C82.8156 168.67 82.8 168.777 82.7656 168.874C82.7313 168.972 82.6875 169.063 82.6313 169.151C82.575 169.239 82.5063 169.324 82.4313 169.408C82.3563 169.493 82.275 169.575 82.1906 169.66L81.4187 170.452C81.4781 170.436 81.5375 170.424 81.5969 170.414C81.6563 170.405 81.7125 170.398 81.7688 170.398H82.7281L82.725 170.392Z" fill="#07064E"></path>
</g>
<g id="Vector_30">
<path d="M119.484 167.705H106.581C105.986 167.705 105.503 168.191 105.503 168.789V169.691C105.503 170.29 105.986 170.776 106.581 170.776H119.484C120.08 170.776 120.562 170.29 120.562 169.691V168.789C120.562 168.191 120.08 167.705 119.484 167.705Z" fill="#2BF5BA"></path>
<path d="M103.784 167.743H103.394L101.925 169.707L101.969 169.921C101.975 169.949 101.99 169.971 102.012 169.987C102.034 170.006 102.059 170.012 102.09 170.012H103.425V170.801H103.787V170.012H104.137C104.165 170.012 104.187 170.003 104.203 169.987C104.219 169.971 104.225 169.949 104.225 169.924V169.682H103.784V167.737V167.743ZM103.428 168.362C103.428 168.409 103.425 168.453 103.425 168.494V169.685H102.378L103.444 168.217C103.437 168.268 103.431 168.315 103.431 168.362H103.428Z" fill="#2BF5BA"></path>
</g>
<g id="Vector_31">
<path d="M119.485 160.69H106.581C105.986 160.69 105.503 161.176 105.503 161.774V162.676C105.503 163.275 105.986 163.761 106.581 163.761H119.485C120.08 163.761 120.563 163.275 120.563 162.676V161.774C120.563 161.176 120.08 160.69 119.485 160.69Z" fill="#FFC391"></path>
<path d="M103.522 162.177C103.6 162.152 103.672 162.12 103.735 162.079C103.797 162.042 103.853 161.991 103.897 161.935C103.941 161.878 103.975 161.812 104 161.737C104.025 161.661 104.038 161.576 104.038 161.476C104.038 161.36 104.016 161.253 103.972 161.155C103.928 161.058 103.866 160.976 103.788 160.907C103.71 160.838 103.616 160.784 103.506 160.747C103.397 160.709 103.275 160.69 103.144 160.69C103.013 160.69 102.891 160.709 102.775 160.747C102.663 160.784 102.56 160.838 102.472 160.91C102.385 160.982 102.313 161.074 102.253 161.18C102.194 161.287 102.156 161.413 102.135 161.554L102.353 161.592C102.41 161.602 102.453 161.598 102.485 161.58C102.516 161.561 102.541 161.526 102.56 161.47C102.575 161.41 102.597 161.35 102.628 161.3C102.66 161.246 102.7 161.202 102.75 161.165C102.797 161.127 102.853 161.096 102.916 161.077C102.978 161.055 103.047 161.045 103.119 161.045C103.191 161.045 103.26 161.055 103.322 161.077C103.385 161.099 103.441 161.127 103.485 161.171C103.531 161.212 103.566 161.265 103.591 161.328C103.616 161.391 103.628 161.463 103.628 161.548C103.628 161.624 103.616 161.696 103.591 161.756C103.566 161.818 103.525 161.872 103.472 161.916C103.416 161.96 103.344 161.998 103.256 162.023C103.166 162.048 103.056 162.06 102.928 162.064V162.365C103.088 162.365 103.216 162.378 103.313 162.406C103.41 162.434 103.488 162.469 103.544 162.519C103.6 162.566 103.638 162.623 103.656 162.692C103.675 162.758 103.688 162.83 103.688 162.912C103.688 162.975 103.675 163.041 103.65 163.107C103.625 163.173 103.588 163.233 103.535 163.286C103.485 163.34 103.419 163.384 103.344 163.415C103.269 163.45 103.178 163.465 103.078 163.465C102.978 163.465 102.885 163.45 102.816 163.415C102.747 163.384 102.688 163.343 102.641 163.296C102.594 163.248 102.556 163.198 102.528 163.145C102.5 163.091 102.475 163.044 102.456 163C102.438 162.959 102.406 162.934 102.36 162.925C102.316 162.915 102.272 162.925 102.225 162.94L102.044 163.016C102.081 163.132 102.125 163.242 102.178 163.34C102.231 163.437 102.297 163.522 102.378 163.594C102.46 163.666 102.556 163.72 102.672 163.758C102.788 163.795 102.922 163.817 103.081 163.817C103.222 163.817 103.353 163.795 103.475 163.754C103.6 163.714 103.706 163.651 103.8 163.572C103.894 163.494 103.966 163.396 104.019 163.283C104.072 163.17 104.1 163.041 104.1 162.896C104.1 162.711 104.05 162.557 103.953 162.434C103.856 162.312 103.71 162.224 103.516 162.17L103.522 162.177Z" fill="#FFC391"></path>
</g>
<path id="Vector_32" d="M131.056 172.039C129.078 172.118 127.847 173.359 127.181 174.481C126.303 175.958 126.319 178.969 126.478 180.17C126.553 180.745 126.815 185.934 126.728 186.656C127.115 186.176 129.856 184.944 131.312 184.617C134.15 183.985 135.525 183.51 137.019 182.159C138.775 180.569 140.631 176.954 138.4 174.597C137.225 173.356 133.937 173.39 133.937 173.39C133.937 173.39 132.762 171.97 131.059 172.039H131.056Z" fill="#2BF5BA"></path>
<path id="Vector_33" d="M143.859 200.768C147.273 200.768 150.041 200.253 150.041 199.618C150.041 198.982 147.273 198.467 143.859 198.467C140.446 198.467 137.678 198.982 137.678 199.618C137.678 200.253 140.446 200.768 143.859 200.768Z" fill="#2AEDB4"></path>
<path id="Vector_34" d="M151.565 184.428H136.153V189.193H142.322L137.253 189.202L139.581 199.567H148.137L150.468 189.193H151.565V184.428Z" fill="#FFC391"></path>
<g id="Vector_35">
<path d="M139.409 176.995C139.384 176.172 138.941 175.276 138.412 174.648C137.856 173.988 136.797 173.482 134.744 173.406C135.278 176.222 135.225 179.767 132.731 181.436C130.012 183.259 128.472 183.938 126.741 186.207C126.741 186.411 126.741 186.565 126.728 186.656C127.116 186.176 130.441 184.849 131.891 184.491C134.2 183.919 135.109 183.768 136.653 182.473C138.237 181.144 139.484 179.371 139.412 176.995H139.409Z" fill="#2AEDB4"></path>
<path d="M137.5 158.914C138.209 158.914 138.962 158.566 139.487 158.141C140.037 157.695 140.437 156.831 140.431 155.13C138.025 155.511 134.975 155.388 133.453 153.289C131.794 150.998 131.156 149.706 129.147 148.222C128.972 148.222 128.837 148.213 128.762 148.204C129.191 148.534 130.444 151.318 130.8 152.525C131.369 154.448 131.531 155.206 132.697 156.51C133.894 157.852 135.462 158.924 137.503 158.918L137.5 158.914Z" fill="#2AEDB4"></path>
<path d="M150.294 164.766C149.6 164.905 148.791 164.716 148.194 164.402C147.569 164.075 147.006 163.305 146.678 161.639C149.766 162.94 152.919 162.051 153.997 159.688C155.175 157.11 154.703 154.474 156.381 152.622C156.553 152.585 156.681 152.55 156.756 152.525C156.403 152.934 155.722 155.913 155.609 157.167C155.431 159.166 155.419 159.939 154.534 161.451C153.625 163.003 152.3 164.367 150.297 164.766H150.294Z" fill="#2AEDB4"></path>
<path d="M147.947 175.125C147.669 174.572 147.637 173.846 147.759 173.271C147.887 172.664 148.394 172.011 149.709 171.344C150.369 173.372 151.45 174.28 153.672 174.635C156.097 175.025 157.562 176.436 159.5 177.416C159.572 177.552 159.628 177.652 159.669 177.709C159.244 177.508 156.603 177.63 155.528 177.828C153.819 178.146 153.172 178.318 151.703 177.926C150.194 177.523 148.747 176.722 147.947 175.128V175.125Z" fill="#2AEDB4"></path>
<path d="M140.859 167.931C141.197 167.454 141.366 166.778 141.384 166.218C141.403 165.631 141.297 165.593 141.184 165.426C140.244 167.227 137.734 167.903 135.866 167.9C133.825 167.894 132.822 167.692 131.056 168.315C130.972 168.431 130.903 168.519 130.862 168.563C131.247 168.437 133.359 168.956 134.187 169.308C135.506 169.867 135.994 170.125 137.262 169.984C138.562 169.836 139.894 169.308 140.862 167.931H140.859Z" fill="#2AEDB4"></path>
</g>
<path id="Vector_36" d="M151.566 184.413H151.538L145.763 184.422C146.038 185.993 145.781 187.581 145.85 189.177H147.063C147.247 193.059 146.816 196.997 145.366 199.483L148.138 199.567L150.472 189.18H151.566V184.416V184.413Z" fill="#FFAF6E"></path>
<path id="Vector_37" d="M159.797 177.618C159.491 177.181 157.812 173.67 157.659 173.277C157.337 172.451 156.25 170.389 155.106 169.644C154.431 169.204 153.072 168.56 151.562 169.179C150.591 169.581 150.228 170.524 150.119 170.895C149.675 170.829 149.241 170.848 148.812 170.958C146.837 171.467 145.687 173.664 145.381 174.324C145.381 174.33 145.378 174.336 145.375 174.34C145.197 173.095 145.028 171.91 144.897 170.826C144.634 168.664 144.884 165.989 145.569 163.673C145.781 162.956 146.072 162.148 146.466 161.331C146.616 162.092 147.078 163.927 148.072 164.531C148.594 164.845 149.141 164.98 149.691 164.98C151.591 164.98 153.519 163.358 154.45 161.891C155.412 160.376 155.634 159.112 155.797 156.674C155.881 155.423 156.566 152.981 156.875 152.622C156.922 152.569 156.925 152.49 156.887 152.431C156.847 152.371 156.772 152.346 156.706 152.371C156.128 152.575 151.744 153.361 151.266 153.411C150.259 153.512 147.662 154.084 146.497 155.124C145.806 155.737 144.684 157.044 144.9 158.902C145.031 160.04 145.875 160.725 146.278 160.989C144.622 164.276 144.278 168.324 144.587 170.864C144.737 172.105 144.934 173.472 145.144 174.921C144.281 177.344 144.219 181.122 144.272 184.252H144.072C143.981 183.831 143.922 183.19 143.853 182.451C143.7 180.782 143.491 178.498 142.731 176.98C142.494 176.502 142.181 175.933 141.812 175.352C141.803 172.47 142.116 169.204 143.166 165.967C145.094 160.018 143.059 156.762 140.578 154.527C140.834 154.301 141.747 153.392 141.637 152.094C141.484 150.231 140.125 149.172 139.328 148.71C137.978 147.924 135.322 147.877 134.316 147.98C133.837 148.028 129.381 148.128 128.778 148.043C128.709 148.037 128.641 148.072 128.612 148.138C128.584 148.204 128.606 148.279 128.662 148.323C129.037 148.612 130.187 150.869 130.516 152.082C131.153 154.439 131.622 155.633 132.862 156.928C133.912 158.022 135.728 159.081 137.412 159.081C138.216 159.081 138.991 158.839 139.634 158.245C140.434 157.51 140.566 155.816 140.578 154.961C142.859 157.107 144.637 160.216 142.922 165.694C142.344 164.653 141.572 164 140.619 163.754C140.403 163.698 140.187 163.67 139.978 163.657C139.966 163.299 139.869 162.34 139.144 161.803C138.031 160.976 136.787 161.378 136.144 161.693C135.066 162.218 133.772 163.984 133.347 164.71C133.144 165.056 131.081 168.092 130.747 168.456C130.7 168.51 130.691 168.588 130.731 168.648C130.769 168.708 130.844 168.736 130.912 168.714C131.241 168.604 132.994 168.937 133.8 169.302C135.056 169.874 135.869 170.166 136.794 170.166C137.047 170.166 137.306 170.144 137.587 170.1C139.216 169.848 141.603 168.428 141.556 166.181C141.537 165.332 140.778 164.468 140.3 164.009C140.381 164.022 140.462 164.04 140.544 164.059C141.487 164.301 142.244 164.993 142.794 166.112C141.85 169.132 141.525 172.162 141.503 174.88C140.506 173.428 139.144 172.001 137.531 171.75C136.328 171.564 135.134 172.055 133.981 173.202C133.691 172.888 132.587 171.819 131.053 171.879C128.816 171.967 127.584 173.494 127.05 174.396C126.144 175.927 126.172 179.013 126.325 180.185C126.397 180.745 126.659 185.93 126.575 186.631C126.566 186.7 126.606 186.766 126.669 186.795C126.687 186.804 126.709 186.807 126.728 186.807C126.775 186.807 126.819 186.785 126.85 186.748C127.197 186.314 129.856 185.098 131.347 184.764C134.172 184.136 135.6 183.649 137.122 182.269C138.291 181.21 139.503 179.29 139.575 177.379C139.619 176.247 139.259 175.273 138.512 174.481C137.559 173.475 135.356 173.274 134.394 173.233C135.409 172.294 136.447 171.894 137.481 172.055C139.134 172.312 140.525 173.912 141.5 175.436C141.516 178.498 141.891 181.119 142.134 182.806C142.222 183.41 142.291 183.9 142.322 184.246H136.181C136.153 184.246 136.125 184.255 136.1 184.271C136.041 184.293 136 184.35 136 184.416V189.18C136 189.268 136.069 189.337 136.156 189.337H137.128L138.719 196.418L139.431 199.586C139.447 199.658 139.509 199.709 139.584 199.709H148.141C148.212 199.709 148.278 199.658 148.294 199.586L150.597 189.334H151.569C151.656 189.334 151.725 189.265 151.725 189.177V184.412C151.725 184.346 151.684 184.29 151.625 184.268C151.6 184.252 151.575 184.243 151.544 184.243H146.412C146.497 182.118 145.975 178.488 145.466 174.974C145.466 174.962 145.462 174.952 145.459 174.94C145.522 174.767 145.591 174.6 145.662 174.446C145.869 173.997 146.997 171.737 148.887 171.253C149.156 171.184 149.428 171.156 149.703 171.165C149.031 171.53 147.844 172.284 147.597 173.18C146.966 175.477 149.437 177.394 151.303 177.966C151.969 178.171 152.559 178.262 153.191 178.262C153.975 178.262 154.828 178.12 155.978 177.882C157.041 177.658 159.228 177.665 159.597 177.841C159.662 177.872 159.737 177.853 159.784 177.8C159.831 177.746 159.834 177.668 159.794 177.608L159.797 177.618ZM145.206 158.87C145.006 157.154 146.056 155.938 146.7 155.363C147.812 154.373 150.322 153.826 151.294 153.729C151.687 153.688 155.178 153.075 156.434 152.773C156.05 153.628 155.556 155.567 155.484 156.658C155.319 159.15 155.097 160.291 154.187 161.727C152.266 164.754 149.5 165.03 148.234 164.267C147.119 163.591 146.719 160.986 146.716 160.96C146.712 160.938 146.703 160.916 146.691 160.898C147.409 159.543 148.422 158.21 149.856 157.274C149.928 157.227 149.95 157.129 149.903 157.057C149.856 156.985 149.759 156.963 149.687 157.01C148.281 157.928 147.216 159.235 146.425 160.712C146.059 160.461 145.325 159.845 145.209 158.87H145.206ZM140.341 154.32C139.625 153.697 138.878 153.157 138.191 152.654C137.475 152.135 136.803 151.642 136.309 151.164C136.247 151.104 136.147 151.104 136.087 151.167C136.028 151.23 136.028 151.331 136.091 151.39C136.6 151.884 137.284 152.384 138.006 152.908C138.731 153.436 139.516 154.008 140.266 154.675C140.272 155.31 140.228 157.274 139.422 158.012C138.331 159.015 135.566 159.295 133.087 156.708C131.912 155.482 131.472 154.408 130.819 151.997C130.534 150.944 129.669 149.14 129.122 148.38C130.409 148.424 133.953 148.332 134.347 148.292C135.322 148.194 137.887 148.232 139.172 148.98C139.916 149.414 141.184 150.397 141.325 152.12C141.425 153.33 140.487 154.188 140.341 154.316V154.32ZM141.241 166.19C141.266 167.406 140.109 169.393 137.537 169.792C136.325 169.98 135.537 169.751 133.925 169.019C133.287 168.726 131.934 168.412 131.203 168.387C131.862 167.507 133.453 165.153 133.616 164.873C134.025 164.172 135.266 162.472 136.278 161.979C136.856 161.696 137.975 161.331 138.956 162.06C139.55 162.5 139.647 163.33 139.662 163.657C138.625 163.682 137.747 164.125 137.434 164.348C137.041 164.628 136.678 164.98 136.325 165.32C135.822 165.807 135.347 166.266 134.859 166.438C134.778 166.467 134.734 166.558 134.766 166.64C134.787 166.706 134.85 166.743 134.912 166.743C134.931 166.743 134.947 166.743 134.966 166.734C135.516 166.536 136.016 166.055 136.544 165.543C136.887 165.213 137.241 164.867 137.616 164.603C137.894 164.405 138.775 163.965 139.784 163.968C140.056 164.198 141.222 165.244 141.241 166.19ZM138.284 174.707C138.972 175.433 139.303 176.332 139.262 177.376C139.194 179.195 138.031 181.031 136.912 182.046C135.462 183.356 134.178 183.822 131.278 184.466C130.016 184.749 127.759 185.72 126.9 186.311C126.922 184.887 126.694 180.619 126.631 180.151C126.484 179.013 126.45 176.024 127.316 174.563C127.819 173.714 128.975 172.281 131.062 172.199C132.462 172.14 133.509 173.164 133.756 173.431C132.631 174.644 132.269 175.798 131.887 177.014C131.472 178.353 130.997 179.871 129.406 181.791C129.35 181.857 129.359 181.958 129.425 182.014C129.491 182.068 129.591 182.062 129.644 181.996C131.275 180.025 131.756 178.479 132.181 177.112C132.575 175.845 132.919 174.748 134.069 173.554C134.7 173.563 137.297 173.676 138.278 174.714L138.284 174.707ZM142.441 182.772C142.212 181.191 141.869 178.784 141.816 175.964C142.062 176.379 142.275 176.778 142.447 177.124C143.181 178.589 143.387 180.839 143.537 182.483C143.603 183.193 143.659 183.818 143.747 184.255H142.628C142.597 183.897 142.528 183.397 142.437 182.769L142.441 182.772ZM151.409 189.036H142.281C142.194 189.036 142.125 189.105 142.125 189.193C142.125 189.281 142.194 189.35 142.281 189.35H150.272L148.012 199.41H139.706L137.447 189.35H138.878C138.966 189.35 139.034 189.281 139.034 189.193C139.034 189.105 138.966 189.036 138.878 189.036H136.309V184.585H151.409V189.036ZM146.097 184.255H144.581C144.531 181.402 144.581 178.007 145.244 175.638C145.722 178.953 146.181 182.285 146.1 184.255H146.097ZM155.919 177.583C153.806 178.026 152.806 178.108 151.4 177.677C149.887 177.215 147.306 175.446 147.903 173.274C148.181 172.259 150 171.37 150.262 171.247C150.844 171.37 151.437 171.649 152.041 172.099C152.109 172.149 152.209 172.136 152.259 172.064C152.309 171.995 152.297 171.894 152.225 171.844C151.619 171.395 151.019 171.099 150.428 170.958C150.537 170.615 150.869 169.808 151.681 169.471C153.056 168.906 154.309 169.503 154.937 169.908C156.019 170.612 157.059 172.592 157.369 173.39C157.494 173.711 158.794 176.445 159.35 177.467C158.503 177.344 156.769 177.404 155.922 177.583H155.919Z" fill="#07064E"></path>
</g>
</g>
</g>
</g>
<g id="Size=Default" clip-path="url(#clip1_86_87)">
<g id="illu_bg_agenda__3">
<g id="background_2">
<path id="Vector_38" d="M383.94 127.84C420.03 141.595 399.735 214.075 371.085 229.265C352.07 239.345 304.46 225.3 263.5 233.565C231.57 240.01 220.555 235.045 232.16 212.075C244.46 187.74 208.815 179.905 208.085 152.205C207.63 134.98 215.565 114.58 250.975 121.955C323.245 137 351.16 115.35 383.945 127.84H383.94Z" fill="#EDEDED"></path>
<g id="Vector_39">
<path d="M382.58 125.115C418.67 138.87 398.375 211.35 369.725 226.54C350.71 236.62 303.1 222.575 262.14 230.84C230.21 237.285 219.195 232.32 230.8 209.35C243.1 185.015 207.455 177.185 206.725 149.48C206.27 132.255 214.2 111.855 249.61 119.23C321.88 134.275 349.795 112.625 382.58 125.115Z" fill="#2BF5BA"></path>
<path d="M399.794 230.4C400.813 227.94 398.666 224.716 395 223.198C391.333 221.68 387.536 222.444 386.517 224.903C385.499 227.363 387.646 230.587 391.312 232.105C394.978 233.623 398.776 232.86 399.794 230.4Z" fill="#2BF5BA"></path>
</g>
<g id="Vector_40">
<path d="M214.75 196.045C214.17 193.555 216.08 190.88 219.01 190.07C221.94 189.26 224.785 190.625 225.365 193.115C225.945 195.605 224.035 198.28 221.105 199.09C218.175 199.9 215.33 198.535 214.75 196.045Z" fill="#FFC391"></path>
<path d="M369.836 241.654C371.092 240.715 371.511 239.152 370.772 238.163C370.032 237.175 368.415 237.135 367.159 238.075C365.903 239.014 365.484 240.577 366.223 241.566C366.963 242.554 368.58 242.594 369.836 241.654Z" fill="#FFC391"></path>
</g>
</g>
<g id="illu_bg_agenda__4">
<g id="stroke_2">
<g id="Group_4">
<path id="Vector_41" d="M220.39 177.01L248.43 155.81L210.99 155.905L207.99 157.33C209.525 162.925 212.98 168.98 220.39 177.01Z" fill="#2AEDB4"></path>
<g id="Vector_42">
<path d="M220.925 129.19H217.25C216.656 129.19 216.175 129.671 216.175 130.265V154.705C216.175 155.299 216.656 155.78 217.25 155.78H220.925C221.519 155.78 222 155.299 222 154.705V130.265C222 129.671 221.519 129.19 220.925 129.19Z" fill="#2BF5BA"></path>
<path d="M234.48 124.46H232.005C231.411 124.46 230.93 124.941 230.93 125.535V154.7C230.93 155.294 231.411 155.775 232.005 155.775H234.48C235.073 155.775 235.555 155.294 235.555 154.7V125.535C235.555 124.941 235.073 124.46 234.48 124.46Z" fill="#2BF5BA"></path>
</g>
<path id="Vector_43" d="M227.68 126.775H223.125C222.503 126.775 222 127.279 222 127.9V154.65C222 155.271 222.503 155.775 223.125 155.775H227.68C228.301 155.775 228.805 155.271 228.805 154.65V127.9C228.805 127.279 228.301 126.775 227.68 126.775Z" fill="#2AEDB4"></path>
<g id="Vector_44">
<path d="M235.51 151.44H230.86V151.94H235.51V151.44Z" fill="#FF8578"></path>
<path d="M235.51 128.3H230.86V128.8H235.51V128.3Z" fill="#FF8578"></path>
</g>
<g id="Vector_45">
<path d="M222 133.67H216.175V151.3H222V133.67Z" fill="#FFC391"></path>
<path d="M230.955 132.925C230.955 132.331 230.473 131.85 229.88 131.85C229.286 131.85 228.805 132.331 228.805 132.925V154.7C228.805 155.294 229.286 155.775 229.88 155.775C230.473 155.775 230.955 155.294 230.955 154.7V132.925Z" fill="#FFC391"></path>
<path d="M237.824 133.882C237.62 133.325 237.003 133.038 236.445 133.242C235.888 133.446 235.601 134.063 235.805 134.621L243.285 155.071C243.488 155.628 244.106 155.915 244.663 155.711C245.221 155.507 245.508 154.89 245.304 154.332L237.824 133.882Z" fill="#FFC391"></path>
</g>
<path id="Vector_46" d="M248.43 155.53H245.325C245.39 155.45 245.45 155.36 245.495 155.265C245.645 154.945 245.66 154.585 245.54 154.25L238.06 133.8C237.81 133.115 237.045 132.76 236.36 133.01C236.14 133.09 235.955 133.225 235.81 133.4V125.54C235.81 124.81 235.215 124.215 234.485 124.215H232.01C231.28 124.215 230.685 124.81 230.685 125.54V131.885C230.46 131.715 230.185 131.61 229.885 131.61C229.585 131.61 229.285 131.725 229.06 131.905V127.905C229.06 127.15 228.445 126.53 227.685 126.53H223.125C222.37 126.53 221.75 127.145 221.75 127.905V129.24C221.525 129.055 221.24 128.945 220.925 128.945H217.25C216.52 128.945 215.925 129.54 215.925 130.27V154.71C215.925 155.025 216.04 155.31 216.22 155.535H211.175C211.035 155.535 210.925 155.645 210.925 155.785C210.925 155.925 211.035 156.035 211.175 156.035H244.29C244.29 156.035 244.29 156.035 244.295 156.035H248.425C248.565 156.035 248.675 155.925 248.675 155.785C248.675 155.645 248.565 155.535 248.425 155.535L248.43 155.53ZM236.065 133.905C236.16 133.705 236.325 133.555 236.53 133.475C236.625 133.44 236.72 133.425 236.81 133.425C237.145 133.425 237.465 133.635 237.585 133.965L245.065 154.415C245.14 154.62 245.13 154.845 245.04 155.045C244.945 155.245 244.78 155.395 244.575 155.475C244.37 155.55 244.145 155.54 243.945 155.45C243.745 155.355 243.595 155.19 243.52 154.985L236.04 134.535C235.965 134.33 235.975 134.105 236.065 133.905ZM243.05 155.155C243.1 155.29 243.175 155.415 243.265 155.525H235.515C235.7 155.3 235.81 155.015 235.81 154.7V135.36L243.05 155.155ZM229.88 132.1C230.27 132.1 230.595 132.375 230.68 132.74V154.705C230.68 154.745 230.69 154.78 230.69 154.82C230.635 155.22 230.29 155.53 229.875 155.53C229.42 155.53 229.05 155.16 229.05 154.705V132.93C229.05 132.475 229.42 132.105 229.875 132.105L229.88 132.1ZM230.945 155.485C230.945 155.485 230.97 155.515 230.98 155.525H230.91C230.91 155.525 230.935 155.5 230.945 155.485ZM228.79 155.455C228.81 155.48 228.83 155.505 228.85 155.525H228.73C228.73 155.525 228.77 155.48 228.79 155.455ZM222.07 155.53H221.95C221.95 155.53 221.99 155.485 222.01 155.46C222.03 155.485 222.05 155.51 222.07 155.53ZM217.25 155.53C216.795 155.53 216.425 155.16 216.425 154.705V130.265C216.425 129.81 216.795 129.44 217.25 129.44H220.925C221.38 129.44 221.75 129.81 221.75 130.265V154.705C221.75 155.16 221.38 155.53 220.925 155.53H217.25ZM223.12 155.53C222.64 155.53 222.245 155.14 222.245 154.655V127.9C222.245 127.42 222.635 127.025 223.12 127.025H227.68C228.16 127.025 228.555 127.415 228.555 127.9V154.655C228.555 155.135 228.165 155.53 227.68 155.53H223.12ZM232.005 155.53C231.59 155.53 231.25 155.22 231.19 154.82C231.19 154.78 231.2 154.745 231.2 154.705V132.93C231.2 132.85 231.19 132.775 231.175 132.7V125.54C231.175 125.085 231.545 124.715 232 124.715H234.475C234.93 124.715 235.3 125.085 235.3 125.54V154.705C235.3 155.16 234.93 155.53 234.475 155.53H232H232.005Z" fill="#07064E"></path>
</g>
<path id="Vector_47" d="M221.925 205.465C221.785 205.465 221.675 205.355 221.675 205.215C221.675 205.075 221.785 204.965 221.925 204.965L393.2 204.775C393.34 204.775 393.45 204.885 393.45 205.025C393.45 205.165 393.34 205.275 393.2 205.275L221.925 205.465Z" fill="#07064E"></path>
<path id="Vector_48" d="M219.87 205.465H216.745C216.605 205.465 216.495 205.355 216.495 205.215C216.495 205.075 216.605 204.965 216.745 204.965H219.87C220.01 204.965 220.12 205.075 220.12 205.215C220.12 205.355 220.01 205.465 219.87 205.465Z" fill="#2BF5BA"></path>
<g id="Group_5">
<path id="Vector_49" d="M275.9 218.175C275.07 219.325 265.525 221.955 252.345 222.22C235.95 222.55 230.54 220.645 231.155 219.54C232.495 217.135 250.89 215.055 264.075 215.055C277.26 215.055 276.655 217.13 275.9 218.17V218.175Z" fill="#2AEDB4"></path>
<path id="Vector_50" d="M272.455 210.495H245.77L234.885 214.575V220.02H261.565L272.455 215.94V210.495Z" fill="#2BF5BA"></path>
<path id="Vector_51" d="M271.27 210.94C270.045 210.72 268.79 210.56 267.53 210.495H265.22C263.32 210.6 261.43 210.98 259.625 211.78C251.525 215.59 242.48 210.9 235.305 214.58H261.565L271.27 210.94Z" fill="#2AEDB4"></path>
<g id="Vector_52">
<path d="M234.885 214.825H261.565C261.595 214.825 261.625 214.82 261.655 214.81L272.545 210.725C272.66 210.685 272.725 210.565 272.705 210.445C272.685 210.325 272.58 210.24 272.46 210.24H245.78C245.75 210.24 245.72 210.245 245.69 210.255L234.8 214.34C234.685 214.38 234.62 214.5 234.64 214.62C234.66 214.74 234.765 214.825 234.885 214.825ZM245.815 210.745H271.075L261.52 214.33H236.26L245.815 210.745Z" fill="#07064E"></path>
<path d="M234.885 216.19H261.565C261.595 216.19 261.625 216.185 261.655 216.175L272.545 212.09C272.675 212.04 272.74 211.9 272.69 211.77C272.64 211.64 272.495 211.575 272.37 211.625L261.525 215.69H234.89C234.75 215.69 234.64 215.8 234.64 215.94C234.64 216.08 234.75 216.19 234.89 216.19H234.885Z" fill="#07064E"></path>
<path d="M272.365 212.98L261.52 217.045H234.885C234.745 217.045 234.635 217.155 234.635 217.295C234.635 217.435 234.745 217.545 234.885 217.545H261.565C261.595 217.545 261.625 217.54 261.655 217.53L272.545 213.445C272.675 213.395 272.74 213.255 272.69 213.125C272.64 212.995 272.495 212.93 272.37 212.98H272.365Z" fill="#07064E"></path>
<path d="M272.365 214.345L261.52 218.41H234.885C234.745 218.41 234.635 218.52 234.635 218.66C234.635 218.8 234.745 218.91 234.885 218.91H261.565C261.595 218.91 261.625 218.905 261.655 218.895L272.545 214.81C272.675 214.76 272.74 214.62 272.69 214.49C272.64 214.36 272.495 214.295 272.37 214.345H272.365Z" fill="#07064E"></path>
<path d="M272.365 215.705L261.52 219.77H234.885C234.745 219.77 234.635 219.88 234.635 220.02C234.635 220.16 234.745 220.27 234.885 220.27H261.565C261.595 220.27 261.625 220.265 261.655 220.255L272.545 216.17C272.675 216.12 272.74 215.98 272.69 215.85C272.64 215.72 272.495 215.655 272.37 215.705H272.365Z" fill="#07064E"></path>
</g>
</g>
<path id="Vector_53" d="M322.755 207.565C322.42 209.015 321.11 210.11 319.56 210.11H284.57C283.02 210.11 281.715 209.02 281.375 207.565C259.91 210.68 283.135 213.775 302.065 213.635C321 213.77 344.205 210.675 322.755 207.565Z" fill="#2AEDB4"></path>
<path id="Vector_54" d="M263.415 132.27H340.715C343.895 132.27 346.475 134.85 346.475 138.03V180.155H257.655V138.035C257.655 134.855 260.235 132.275 263.415 132.275V132.27Z" fill="#EDEDED"></path>
<g id="Group_6">
<path id="Vector_55" d="M257.465 180.06V183.185C257.465 186.355 260.06 188.945 263.225 188.945H294.515V203.245H309.61V188.945H340.53C343.7 188.945 346.29 186.35 346.29 183.185V180.06H257.465Z" fill="white"></path>
<path id="Vector_56" d="M319.56 203.265H284.57C282.765 203.265 281.29 204.74 281.29 206.545C281.29 208.35 282.765 209.825 284.57 209.825H319.56C321.365 209.825 322.84 208.35 322.84 206.545C322.84 204.74 321.365 203.265 319.56 203.265Z" fill="white"></path>
</g>
<path id="Vector_57" d="M294.735 188.835C294.735 188.88 294.725 188.925 294.725 188.97C294.725 192.675 298.01 195.68 302.06 195.68C306.11 195.68 309.395 192.675 309.395 188.97C309.395 188.925 309.39 188.88 309.385 188.835H294.725H294.735Z" fill="#EBEBEB"></path>
<path id="Vector_58" d="M340.715 132.02H263.415C260.1 132.02 257.405 134.715 257.405 138.03V183.255C257.405 186.57 260.1 189.265 263.415 189.265H294.245V203.01H284.57C282.625 203.01 281.04 204.595 281.04 206.54C281.04 208.485 282.625 210.07 284.57 210.07H319.56C321.505 210.07 323.09 208.485 323.09 206.54C323.09 204.595 321.505 203.01 319.56 203.01H309.885V189.265H340.715C344.03 189.265 346.725 186.57 346.725 183.255V138.035C346.725 134.72 344.03 132.025 340.715 132.025V132.02ZM263.415 132.52H340.715C343.755 132.52 346.225 134.995 346.225 138.03V179.88H257.905V138.035C257.905 134.995 260.38 132.525 263.415 132.525V132.52ZM294.745 203.015V189.27H309.385V203.015H294.745ZM322.59 206.545C322.59 208.215 321.23 209.575 319.56 209.575H284.57C282.9 209.575 281.54 208.215 281.54 206.545C281.54 204.875 282.9 203.515 284.57 203.515H294.325C294.37 203.56 294.43 203.585 294.495 203.585C294.56 203.585 294.62 203.56 294.665 203.515H319.56C321.23 203.515 322.59 204.875 322.59 206.545ZM340.715 188.77H263.415C260.375 188.77 257.905 186.295 257.905 183.26V180.385H346.23V183.26C346.23 186.3 343.755 188.77 340.72 188.77H340.715Z" fill="#07064E"></path>
<path id="Vector_59" d="M334.33 138.895H269.435C267.09 138.895 265.19 140.795 265.19 143.14V171.405C265.19 173.749 267.09 175.65 269.435 175.65H334.33C336.674 175.65 338.575 173.749 338.575 171.405V143.14C338.575 140.795 336.674 138.895 334.33 138.895Z" fill="#DDDDDD"></path>
<path id="Vector_60" d="M334.33 136.855H269.435C267.09 136.855 265.19 138.755 265.19 141.1V169.365C265.19 171.709 267.09 173.61 269.435 173.61H334.33C336.674 173.61 338.575 171.709 338.575 169.365V141.1C338.575 138.755 336.674 136.855 334.33 136.855Z" fill="white"></path>
<path id="Vector_61" d="M268.425 136.29H335.34C337.125 136.29 338.57 137.74 338.57 139.52V143.335H265.19V139.52C265.19 137.735 266.64 136.29 268.42 136.29H268.425Z" fill="#07064E"></path>
<path id="Vector_62" d="M326.875 141.69C327.913 141.69 328.755 140.848 328.755 139.81C328.755 138.772 327.913 137.93 326.875 137.93C325.836 137.93 324.995 138.772 324.995 139.81C324.995 140.848 325.836 141.69 326.875 141.69Z" fill="white"></path>
<path id="Vector_63" d="M332.32 141.69C333.358 141.69 334.2 140.848 334.2 139.81C334.2 138.772 333.358 137.93 332.32 137.93C331.282 137.93 330.44 138.772 330.44 139.81C330.44 140.848 331.282 141.69 332.32 141.69Z" fill="#2BF5BA"></path>
<g id="Vector_64">
<path d="M298.215 149.28H277.57C276.617 149.28 275.845 150.052 275.845 151.005V152.44C275.845 153.392 276.617 154.165 277.57 154.165H298.215C299.168 154.165 299.94 153.392 299.94 152.44V151.005C299.94 150.052 299.168 149.28 298.215 149.28Z" fill="#2BF5BA"></path>
<path d="M272.31 149.285H271.77L270.315 150.54L270.52 150.83C270.52 150.83 270.55 150.86 270.57 150.875C270.59 150.89 270.615 150.9 270.645 150.905C270.675 150.905 270.705 150.905 270.735 150.905C270.765 150.9 270.8 150.885 270.83 150.86L271.655 150.16C271.65 150.27 271.645 150.375 271.645 150.475V153.665H270.615V154.17H273.245V153.665H272.305V149.295L272.31 149.285Z" fill="#2BF5BA"></path>
</g>
<g id="Vector_65">
<path d="M298.215 161.745H277.57C276.618 161.745 275.845 162.517 275.845 163.47V164.905C275.845 165.858 276.618 166.63 277.57 166.63H298.215C299.168 166.63 299.94 165.858 299.94 164.905V163.47C299.94 162.517 299.168 161.745 298.215 161.745Z" fill="#EBEBEB"></path>
<path d="M273.36 166.075C273.43 166.075 273.49 166.095 273.53 166.14C273.57 166.185 273.59 166.235 273.59 166.305V166.705H270.325V166.48C270.325 166.435 270.335 166.385 270.35 166.335C270.37 166.285 270.4 166.24 270.44 166.2L271.98 164.66C272.11 164.53 272.225 164.405 272.33 164.285C272.435 164.165 272.52 164.045 272.595 163.93C272.665 163.81 272.725 163.69 272.765 163.565C272.805 163.44 272.825 163.31 272.825 163.17C272.825 163.03 272.805 162.915 272.76 162.815C272.715 162.71 272.66 162.625 272.585 162.56C272.51 162.49 272.425 162.44 272.32 162.405C272.22 162.37 272.11 162.355 271.99 162.355C271.87 162.355 271.765 162.37 271.665 162.405C271.565 162.44 271.48 162.485 271.4 162.545C271.325 162.605 271.26 162.68 271.205 162.76C271.155 162.845 271.115 162.935 271.095 163.03C271.065 163.115 271.025 163.175 270.975 163.205C270.925 163.235 270.855 163.24 270.765 163.225L270.42 163.165C270.45 162.94 270.515 162.74 270.605 162.57C270.695 162.4 270.815 162.255 270.955 162.14C271.095 162.025 271.255 161.935 271.44 161.88C271.62 161.82 271.82 161.79 272.03 161.79C272.24 161.79 272.44 161.82 272.62 161.885C272.8 161.945 272.955 162.035 273.085 162.155C273.215 162.27 273.32 162.415 273.395 162.585C273.47 162.755 273.505 162.945 273.505 163.155C273.505 163.335 273.48 163.505 273.425 163.66C273.37 163.815 273.3 163.96 273.21 164.1C273.12 164.24 273.01 164.375 272.89 164.51C272.77 164.645 272.64 164.775 272.505 164.91L271.27 166.17C271.365 166.145 271.46 166.125 271.555 166.11C271.65 166.095 271.74 166.085 271.83 166.085H273.365L273.36 166.075Z" fill="#EBEBEB"></path>
</g>
<g id="Vector_66">
<path d="M298.215 160.44H277.57C276.618 160.44 275.845 161.212 275.845 162.165V163.6C275.845 164.553 276.618 165.325 277.57 165.325H298.215C299.168 165.325 299.94 164.553 299.94 163.6V162.165C299.94 161.212 299.168 160.44 298.215 160.44Z" fill="#07064E"></path>
<path d="M273.36 164.715C273.43 164.715 273.49 164.735 273.53 164.78C273.57 164.825 273.59 164.875 273.59 164.945V165.345H270.325V165.12C270.325 165.075 270.335 165.025 270.35 164.975C270.37 164.925 270.4 164.88 270.44 164.84L271.98 163.3C272.11 163.17 272.225 163.045 272.33 162.925C272.435 162.805 272.52 162.685 272.595 162.57C272.665 162.45 272.725 162.33 272.765 162.205C272.805 162.08 272.825 161.95 272.825 161.81C272.825 161.67 272.805 161.555 272.76 161.455C272.715 161.35 272.66 161.265 272.585 161.2C272.51 161.13 272.425 161.08 272.32 161.045C272.22 161.01 272.11 160.995 271.99 160.995C271.87 160.995 271.765 161.01 271.665 161.045C271.565 161.08 271.48 161.125 271.4 161.185C271.325 161.245 271.26 161.32 271.205 161.4C271.155 161.485 271.115 161.575 271.095 161.67C271.065 161.755 271.025 161.815 270.975 161.845C270.925 161.875 270.855 161.88 270.765 161.865L270.42 161.805C270.45 161.58 270.515 161.38 270.605 161.21C270.695 161.04 270.815 160.895 270.955 160.78C271.095 160.665 271.255 160.575 271.44 160.52C271.62 160.46 271.82 160.43 272.03 160.43C272.24 160.43 272.44 160.46 272.62 160.525C272.8 160.585 272.955 160.675 273.085 160.795C273.215 160.91 273.32 161.055 273.395 161.225C273.47 161.395 273.505 161.585 273.505 161.795C273.505 161.975 273.48 162.145 273.425 162.3C273.37 162.455 273.3 162.6 273.21 162.74C273.12 162.88 273.01 163.015 272.89 163.15C272.77 163.285 272.64 163.415 272.505 163.55L271.27 164.81C271.365 164.785 271.46 164.765 271.555 164.75C271.65 164.735 271.74 164.725 271.83 164.725H273.365L273.36 164.715Z" fill="#07064E"></path>
</g>
<g id="Vector_67">
<path d="M332.175 160.44H311.53C310.577 160.44 309.805 161.212 309.805 162.165V163.6C309.805 164.553 310.577 165.325 311.53 165.325H332.175C333.128 165.325 333.9 164.553 333.9 163.6V162.165C333.9 161.212 333.128 160.44 332.175 160.44Z" fill="#2BF5BA"></path>
<path d="M307.055 160.5H306.43L304.08 163.625L304.15 163.965C304.16 164.01 304.185 164.045 304.22 164.07C304.255 164.1 304.295 164.11 304.345 164.11H306.48V165.365H307.06V164.11H307.62C307.665 164.11 307.7 164.095 307.725 164.07C307.75 164.045 307.76 164.01 307.76 163.97V163.585H307.055V160.49V160.5ZM306.485 161.485C306.485 161.56 306.48 161.63 306.48 161.695V163.59H304.805L306.51 161.255C306.5 161.335 306.49 161.41 306.49 161.485H306.485Z" fill="#2BF5BA"></path>
</g>
<g id="Vector_68">
<path d="M332.175 149.28H311.53C310.577 149.28 309.805 150.052 309.805 151.005V152.44C309.805 153.392 310.577 154.165 311.53 154.165H332.175C333.128 154.165 333.9 153.392 333.9 152.44V151.005C333.9 150.052 333.128 149.28 332.175 149.28Z" fill="#FFC391"></path>
<path d="M306.635 151.645C306.76 151.605 306.875 151.555 306.975 151.49C307.075 151.43 307.165 151.35 307.235 151.26C307.305 151.17 307.36 151.065 307.4 150.945C307.44 150.825 307.46 150.69 307.46 150.53C307.46 150.345 307.425 150.175 307.355 150.02C307.285 149.865 307.185 149.735 307.06 149.625C306.935 149.515 306.785 149.43 306.61 149.37C306.435 149.31 306.24 149.28 306.03 149.28C305.82 149.28 305.625 149.31 305.44 149.37C305.26 149.43 305.095 149.515 304.955 149.63C304.815 149.745 304.7 149.89 304.605 150.06C304.51 150.23 304.45 150.43 304.415 150.655L304.765 150.715C304.855 150.73 304.925 150.725 304.975 150.695C305.025 150.665 305.065 150.61 305.095 150.52C305.12 150.425 305.155 150.33 305.205 150.25C305.255 150.165 305.32 150.095 305.4 150.035C305.475 149.975 305.565 149.925 305.665 149.895C305.765 149.86 305.875 149.845 305.99 149.845C306.105 149.845 306.215 149.86 306.315 149.895C306.415 149.93 306.505 149.975 306.575 150.045C306.65 150.11 306.705 150.195 306.745 150.295C306.785 150.395 306.805 150.51 306.805 150.645C306.805 150.765 306.785 150.88 306.745 150.975C306.705 151.075 306.64 151.16 306.555 151.23C306.465 151.3 306.35 151.36 306.21 151.4C306.065 151.44 305.89 151.46 305.685 151.465V151.945C305.94 151.945 306.145 151.965 306.3 152.01C306.455 152.055 306.58 152.11 306.67 152.19C306.76 152.265 306.82 152.355 306.85 152.465C306.88 152.57 306.9 152.685 306.9 152.815C306.9 152.915 306.88 153.02 306.84 153.125C306.8 153.23 306.74 153.325 306.655 153.41C306.575 153.495 306.47 153.565 306.35 153.615C306.23 153.67 306.085 153.695 305.925 153.695C305.765 153.695 305.615 153.67 305.505 153.615C305.395 153.565 305.3 153.5 305.225 153.425C305.15 153.35 305.09 153.27 305.045 153.185C305 153.1 304.96 153.025 304.93 152.955C304.9 152.89 304.85 152.85 304.775 152.835C304.705 152.82 304.635 152.835 304.56 152.86L304.27 152.98C304.33 153.165 304.4 153.34 304.485 153.495C304.57 153.65 304.675 153.785 304.805 153.9C304.935 154.015 305.09 154.1 305.275 154.16C305.46 154.22 305.675 154.255 305.93 154.255C306.155 154.255 306.365 154.22 306.56 154.155C306.76 154.09 306.93 153.99 307.08 153.865C307.23 153.74 307.345 153.585 307.43 153.405C307.515 153.225 307.56 153.02 307.56 152.79C307.56 152.495 307.48 152.25 307.325 152.055C307.17 151.86 306.935 151.72 306.625 151.635L306.635 151.645Z" fill="#FFC391"></path>
</g>
<path id="Vector_69" d="M350.69 167.335C347.525 167.46 345.555 169.435 344.49 171.22C343.085 173.57 343.11 178.36 343.365 180.27C343.485 181.185 343.905 189.44 343.765 190.59C344.385 189.825 348.77 187.865 351.1 187.345C355.64 186.34 357.84 185.585 360.23 183.435C363.04 180.905 366.01 175.155 362.44 171.405C360.56 169.43 355.3 169.485 355.3 169.485C355.3 169.485 353.42 167.225 350.695 167.335H350.69Z" fill="#2BF5BA"></path>
<path id="Vector_70" d="M371.175 213.04C376.637 213.04 381.065 212.221 381.065 211.21C381.065 210.199 376.637 209.38 371.175 209.38C365.713 209.38 361.285 210.199 361.285 211.21C361.285 212.221 365.713 213.04 371.175 213.04Z" fill="#2AEDB4"></path>
<path id="Vector_71" d="M383.505 187.045H358.845V194.625H368.715L360.605 194.64L364.33 211.13H378.02L381.75 194.625H383.505V187.045Z" fill="#FFC391"></path>
<g id="Vector_72">
<path d="M364.055 175.22C364.015 173.91 363.305 172.485 362.46 171.485C361.57 170.435 359.875 169.63 356.59 169.51C357.445 173.99 357.36 179.63 353.37 182.285C349.02 185.185 346.555 186.265 343.785 189.875C343.785 190.2 343.785 190.445 343.765 190.59C344.385 189.825 349.705 187.715 352.025 187.145C355.72 186.235 357.175 185.995 359.645 183.935C362.18 181.82 364.175 179 364.06 175.22H364.055Z" fill="#2AEDB4"></path>
<path d="M361 146.455C362.135 146.455 363.34 145.9 364.18 145.225C365.06 144.515 365.7 143.14 365.69 140.435C361.84 141.04 356.96 140.845 354.525 137.505C351.87 133.86 350.85 131.805 347.635 129.445C347.355 129.445 347.14 129.43 347.02 129.415C347.705 129.94 349.71 134.37 350.28 136.29C351.19 139.35 351.45 140.555 353.315 142.63C355.23 144.765 357.74 146.47 361.005 146.46L361 146.455Z" fill="#2AEDB4"></path>
<path d="M381.47 155.765C380.36 155.985 379.065 155.685 378.11 155.185C377.11 154.665 376.21 153.44 375.685 150.79C380.625 152.86 385.67 151.445 387.395 147.685C389.28 143.585 388.525 139.39 391.21 136.445C391.485 136.385 391.69 136.33 391.81 136.29C391.245 136.94 390.155 141.68 389.975 143.675C389.69 146.855 389.67 148.085 388.255 150.49C386.8 152.96 384.68 155.13 381.475 155.765H381.47Z" fill="#2AEDB4"></path>
<path d="M377.715 172.245C377.27 171.365 377.22 170.21 377.415 169.295C377.62 168.33 378.43 167.29 380.535 166.23C381.59 169.455 383.32 170.9 386.875 171.465C390.755 172.085 393.1 174.33 396.2 175.89C396.315 176.105 396.405 176.265 396.47 176.355C395.79 176.035 391.565 176.23 389.845 176.545C387.11 177.05 386.075 177.325 383.725 176.7C381.31 176.06 378.995 174.785 377.715 172.25V172.245Z" fill="#2AEDB4"></path>
<path d="M366.375 160.8C366.915 160.04 367.185 158.965 367.215 158.075C367.245 157.14 367.075 157.08 366.895 156.815C365.39 159.68 361.375 160.755 358.385 160.75C355.12 160.74 353.515 160.42 350.69 161.41C350.555 161.595 350.445 161.735 350.38 161.805C350.995 161.605 354.375 162.43 355.7 162.99C357.81 163.88 358.59 164.29 360.62 164.065C362.7 163.83 364.83 162.99 366.38 160.8H366.375Z" fill="#2AEDB4"></path>
</g>
<path id="Vector_73" d="M383.505 187.02H383.46L374.22 187.035C374.66 189.535 374.25 192.06 374.36 194.6H376.3C376.595 200.775 375.905 207.04 373.585 210.995L378.02 211.13L381.755 194.605H383.505V187.025V187.02Z" fill="#FFAF6E"></path>
<path id="Vector_74" d="M396.675 176.21C396.185 175.515 393.5 169.93 393.255 169.305C392.74 167.99 391 164.71 389.17 163.525C388.09 162.825 385.915 161.8 383.5 162.785C381.945 163.425 381.365 164.925 381.19 165.515C380.48 165.41 379.785 165.44 379.1 165.615C375.94 166.425 374.1 169.92 373.61 170.97C373.61 170.98 373.605 170.99 373.6 170.995C373.315 169.015 373.045 167.13 372.835 165.405C372.415 161.965 372.815 157.71 373.91 154.025C374.25 152.885 374.715 151.6 375.345 150.3C375.585 151.51 376.325 154.43 377.915 155.39C378.75 155.89 379.625 156.105 380.505 156.105C383.545 156.105 386.63 153.525 388.12 151.19C389.66 148.78 390.015 146.77 390.275 142.89C390.41 140.9 391.505 137.015 392 136.445C392.075 136.36 392.08 136.235 392.02 136.14C391.955 136.045 391.835 136.005 391.73 136.045C390.805 136.37 383.79 137.62 383.025 137.7C381.415 137.86 377.26 138.77 375.395 140.425C374.29 141.4 372.495 143.48 372.84 146.435C373.05 148.245 374.4 149.335 375.045 149.755C372.395 154.985 371.845 161.425 372.34 165.465C372.58 167.44 372.895 169.615 373.23 171.92C371.85 175.775 371.75 181.785 371.835 186.765H371.515C371.37 186.095 371.275 185.075 371.165 183.9C370.92 181.245 370.585 177.61 369.37 175.195C368.99 174.435 368.49 173.53 367.9 172.605C367.885 168.02 368.385 162.825 370.065 157.675C373.15 148.21 369.895 143.03 365.925 139.475C366.335 139.115 367.795 137.67 367.62 135.605C367.375 132.64 365.2 130.955 363.925 130.22C361.765 128.97 357.515 128.895 355.905 129.06C355.14 129.135 348.01 129.295 347.045 129.16C346.935 129.15 346.825 129.205 346.78 129.31C346.735 129.415 346.77 129.535 346.86 129.605C347.46 130.065 349.3 133.655 349.825 135.585C350.845 139.335 351.595 141.235 353.58 143.295C355.26 145.035 358.165 146.72 360.86 146.72C362.145 146.72 363.385 146.335 364.415 145.39C365.695 144.22 365.905 141.525 365.925 140.165C369.575 143.58 372.42 148.525 369.675 157.24C368.75 155.585 367.515 154.545 365.99 154.155C365.645 154.065 365.3 154.02 364.965 154C364.945 153.43 364.79 151.905 363.63 151.05C361.85 149.735 359.86 150.375 358.83 150.875C357.105 151.71 355.035 154.52 354.355 155.675C354.03 156.225 350.73 161.055 350.195 161.635C350.12 161.72 350.105 161.845 350.17 161.94C350.23 162.035 350.35 162.08 350.46 162.045C350.985 161.87 353.79 162.4 355.08 162.98C357.09 163.89 358.39 164.355 359.87 164.355C360.275 164.355 360.69 164.32 361.14 164.25C363.745 163.85 367.565 161.59 367.49 158.015C367.46 156.665 366.245 155.29 365.48 154.56C365.61 154.58 365.74 154.61 365.87 154.64C367.38 155.025 368.59 156.125 369.47 157.905C367.96 162.71 367.44 167.53 367.405 171.855C365.81 169.545 363.63 167.275 361.05 166.875C359.125 166.58 357.215 167.36 355.37 169.185C354.905 168.685 353.14 166.985 350.685 167.08C347.105 167.22 345.135 169.65 344.28 171.085C342.83 173.52 342.875 178.43 343.12 180.295C343.235 181.185 343.655 189.435 343.52 190.55C343.505 190.66 343.57 190.765 343.67 190.81C343.7 190.825 343.735 190.83 343.765 190.83C343.84 190.83 343.91 190.795 343.96 190.735C344.515 190.045 348.77 188.11 351.155 187.58C355.675 186.58 357.96 185.805 360.395 183.61C362.265 181.925 364.205 178.87 364.32 175.83C364.39 174.03 363.815 172.48 362.62 171.22C361.095 169.62 357.57 169.3 356.03 169.235C357.655 167.74 359.315 167.105 360.97 167.36C363.615 167.77 365.84 170.315 367.4 172.74C367.425 177.61 368.025 181.78 368.415 184.465C368.555 185.425 368.665 186.205 368.715 186.755H358.89C358.845 186.755 358.8 186.77 358.76 186.795C358.665 186.83 358.6 186.92 358.6 187.025V194.605C358.6 194.745 358.71 194.855 358.85 194.855H360.405L362.95 206.12L364.09 211.16C364.115 211.275 364.215 211.355 364.335 211.355H378.025C378.14 211.355 378.245 211.275 378.27 211.16L381.955 194.85H383.51C383.65 194.85 383.76 194.74 383.76 194.6V187.02C383.76 186.915 383.695 186.825 383.6 186.79C383.56 186.765 383.52 186.75 383.47 186.75H375.26C375.395 183.37 374.56 177.595 373.745 172.005C373.745 171.985 373.74 171.97 373.735 171.95C373.835 171.675 373.945 171.41 374.06 171.165C374.39 170.45 376.195 166.855 379.22 166.085C379.65 165.975 380.085 165.93 380.525 165.945C379.45 166.525 377.55 167.725 377.155 169.15C376.145 172.805 380.1 175.855 383.085 176.765C384.15 177.09 385.095 177.235 386.105 177.235C387.36 177.235 388.725 177.01 390.565 176.63C392.265 176.275 395.765 176.285 396.355 176.565C396.46 176.615 396.58 176.585 396.655 176.5C396.73 176.415 396.735 176.29 396.67 176.195L396.675 176.21ZM373.33 146.385C373.01 143.655 374.69 141.72 375.72 140.805C377.5 139.23 381.515 138.36 383.07 138.205C383.7 138.14 389.285 137.165 391.295 136.685C390.68 138.045 389.89 141.13 389.775 142.865C389.51 146.83 389.155 148.645 387.7 150.93C384.625 155.745 380.2 156.185 378.175 154.97C376.39 153.895 375.75 149.75 375.745 149.71C375.74 149.675 375.725 149.64 375.705 149.61C376.855 147.455 378.475 145.335 380.77 143.845C380.885 143.77 380.92 143.615 380.845 143.5C380.77 143.385 380.615 143.35 380.5 143.425C378.25 144.885 376.545 146.965 375.28 149.315C374.695 148.915 373.52 147.935 373.335 146.385H373.33ZM365.545 139.145C364.4 138.155 363.205 137.295 362.105 136.495C360.96 135.67 359.885 134.885 359.095 134.125C358.995 134.03 358.835 134.03 358.74 134.13C358.645 134.23 358.645 134.39 358.745 134.485C359.56 135.27 360.655 136.065 361.81 136.9C362.97 137.74 364.225 138.65 365.425 139.71C365.435 140.72 365.365 143.845 364.075 145.02C362.33 146.615 357.905 147.06 353.94 142.945C352.06 140.995 351.355 139.285 350.31 135.45C349.855 133.775 348.47 130.905 347.595 129.695C349.655 129.765 355.325 129.62 355.955 129.555C357.515 129.4 361.62 129.46 363.675 130.65C364.865 131.34 366.895 132.905 367.12 135.645C367.28 137.57 365.78 138.935 365.545 139.14V139.145ZM366.985 158.03C367.025 159.965 365.175 163.125 361.06 163.76C359.12 164.06 357.86 163.695 355.28 162.53C354.26 162.065 352.095 161.565 350.925 161.525C351.98 160.125 354.525 156.38 354.785 155.935C355.44 154.82 357.425 152.115 359.045 151.33C359.97 150.88 361.76 150.3 363.33 151.46C364.28 152.16 364.435 153.48 364.46 154C362.8 154.04 361.395 154.745 360.895 155.1C360.265 155.545 359.685 156.105 359.12 156.645C358.315 157.42 357.555 158.15 356.775 158.425C356.645 158.47 356.575 158.615 356.625 158.745C356.66 158.85 356.76 158.91 356.86 158.91C356.89 158.91 356.915 158.91 356.945 158.895C357.825 158.58 358.625 157.815 359.47 157C360.02 156.475 360.585 155.925 361.185 155.505C361.63 155.19 363.04 154.49 364.655 154.495C365.09 154.86 366.955 156.525 366.985 158.03ZM362.255 171.58C363.355 172.735 363.885 174.165 363.82 175.825C363.71 178.72 361.85 181.64 360.06 183.255C357.74 185.34 355.685 186.08 351.045 187.105C349.025 187.555 345.415 189.1 344.04 190.04C344.075 187.775 343.71 180.985 343.61 180.24C343.375 178.43 343.32 173.675 344.705 171.35C345.51 170 347.36 167.72 350.7 167.59C352.94 167.495 354.615 169.125 355.01 169.55C353.21 171.48 352.63 173.315 352.02 175.25C351.355 177.38 350.595 179.795 348.05 182.85C347.96 182.955 347.975 183.115 348.08 183.205C348.185 183.29 348.345 183.28 348.43 183.175C351.04 180.04 351.81 177.58 352.49 175.405C353.12 173.39 353.67 171.645 355.51 169.745C356.52 169.76 360.675 169.94 362.245 171.59L362.255 171.58ZM368.905 184.41C368.54 181.895 367.99 178.065 367.905 173.58C368.3 174.24 368.64 174.875 368.915 175.425C370.09 177.755 370.42 181.335 370.66 183.95C370.765 185.08 370.855 186.075 370.995 186.77H369.205C369.155 186.2 369.045 185.405 368.9 184.405L368.905 184.41ZM383.255 194.375H368.65C368.51 194.375 368.4 194.485 368.4 194.625C368.4 194.765 368.51 194.875 368.65 194.875H381.435L377.82 210.88H364.53L360.915 194.875H363.205C363.345 194.875 363.455 194.765 363.455 194.625C363.455 194.485 363.345 194.375 363.205 194.375H359.095V187.295H383.255V194.375ZM374.755 186.77H372.33C372.25 182.23 372.33 176.83 373.39 173.06C374.155 178.335 374.89 183.635 374.76 186.77H374.755ZM390.47 176.155C387.09 176.86 385.49 176.99 383.24 176.305C380.82 175.57 376.69 172.755 377.645 169.3C378.09 167.685 381 166.27 381.42 166.075C382.35 166.27 383.3 166.715 384.265 167.43C384.375 167.51 384.535 167.49 384.615 167.375C384.695 167.265 384.675 167.105 384.56 167.025C383.59 166.31 382.63 165.84 381.685 165.615C381.86 165.07 382.39 163.785 383.69 163.25C385.89 162.35 387.895 163.3 388.9 163.945C390.63 165.065 392.295 168.215 392.79 169.485C392.99 169.995 395.07 174.345 395.96 175.97C394.605 175.775 391.83 175.87 390.475 176.155H390.47Z" fill="#07064E"></path>
</g>
</g>
</g>
</g>
<g id="Size=Extra_Large" clip-path="url(#clip2_86_87)">
<g id="illu_bg_agenda__5">
<g id="background_3">
<path id="Vector_75" d="M802.88 75.6799C875.06 103.19 834.47 248.15 777.17 278.53C739.14 298.69 643.92 270.6 562 287.13C498.14 300.02 476.11 290.09 499.32 244.15C523.92 195.48 452.63 179.81 451.17 124.41C450.26 89.9599 466.13 49.1599 536.95 63.9099C681.49 93.9999 737.32 50.6999 802.89 75.6799H802.88Z" fill="#EDEDED"></path>
<g id="Vector_76">
<path d="M800.16 70.23C872.34 97.74 831.75 242.7 774.45 273.08C736.42 293.24 641.2 265.15 559.28 281.68C495.42 294.57 473.39 284.64 496.6 238.7C521.2 190.03 449.91 174.37 448.45 118.96C447.54 84.51 463.4 43.71 534.22 58.46C678.76 88.55 734.59 45.25 800.16 70.23Z" fill="#2BF5BA"></path>
<path d="M834.589 280.8C836.626 275.881 832.332 269.432 825 266.397C817.667 263.361 810.072 264.887 808.035 269.807C805.998 274.726 810.292 281.174 817.625 284.21C824.957 287.246 832.553 285.719 834.589 280.8Z" fill="#2BF5BA"></path>
</g>
<g id="Vector_77">
<path d="M464.5 212.09C463.34 207.11 467.16 201.76 473.02 200.14C478.88 198.52 484.57 201.25 485.73 206.23C486.89 211.21 483.07 216.56 477.21 218.18C471.35 219.8 465.66 217.07 464.5 212.09Z" fill="#FFC391"></path>
<path d="M774.673 303.308C777.185 301.429 778.023 298.303 776.544 296.327C775.065 294.35 771.83 294.271 769.318 296.15C766.806 298.029 765.969 301.155 767.447 303.132C768.926 305.108 772.161 305.188 774.673 303.308Z" fill="#FFC391"></path>
</g>
</g>
<g id="illu_bg_agenda__6">
<g id="stroke_3">
<g id="Group_7">
<path id="Vector_78" d="M475.78 174.02L531.86 131.62L456.98 131.81L450.98 134.66C454.05 145.85 460.96 157.96 475.78 174.02Z" fill="#2AEDB4"></path>
<g id="Vector_79">
<path d="M476.85 78.3799H469.5C468.313 78.3799 467.35 79.3425 467.35 80.5299V129.41C467.35 130.597 468.313 131.56 469.5 131.56H476.85C478.038 131.56 479 130.597 479 129.41V80.5299C479 79.3425 478.038 78.3799 476.85 78.3799Z" fill="#2BF5BA"></path>
<path d="M503.96 68.9199H499.01C497.823 68.9199 496.86 69.8825 496.86 71.0699V129.4C496.86 130.587 497.823 131.55 499.01 131.55H503.96C505.147 131.55 506.11 130.587 506.11 129.4V71.0699C506.11 69.8825 505.147 68.9199 503.96 68.9199Z" fill="#2BF5BA"></path>
</g>
<path id="Vector_80" d="M490.36 73.5499H481.25C480.007 73.5499 479 74.5573 479 75.7999V129.3C479 130.543 480.007 131.55 481.25 131.55H490.36C491.603 131.55 492.61 130.543 492.61 129.3V75.7999C492.61 74.5573 491.603 73.5499 490.36 73.5499Z" fill="#2AEDB4"></path>
<g id="Vector_81">
<path d="M506.02 122.88H496.72V123.88H506.02V122.88Z" fill="#FF8578"></path>
<path d="M506.02 76.6H496.72V77.6H506.02V76.6Z" fill="#FF8578"></path>
</g>
<g id="Vector_82">
<path d="M479 87.3401H467.35V122.6H479V87.3401Z" fill="#FFC391"></path>
<path d="M496.91 85.8501C496.91 84.6627 495.947 83.7001 494.76 83.7001C493.573 83.7001 492.61 84.6627 492.61 85.8501V129.4C492.61 130.587 493.573 131.55 494.76 131.55C495.947 131.55 496.91 130.587 496.91 129.4V85.8501Z" fill="#FFC391"></path>
<path d="M510.649 87.7648C510.241 86.6497 509.006 86.0763 507.891 86.4842C506.776 86.8921 506.202 88.1267 506.61 89.2419L521.57 130.142C521.977 131.257 523.212 131.831 524.327 131.423C525.442 131.015 526.016 129.78 525.608 128.665L510.649 87.7648Z" fill="#FFC391"></path>
</g>
<path id="Vector_83" d="M531.86 131.06H525.65C525.78 130.9 525.9 130.72 525.99 130.53C526.29 129.89 526.32 129.17 526.08 128.5L511.12 87.5999C510.62 86.2299 509.09 85.5199 507.72 86.0199C507.28 86.1799 506.91 86.4499 506.62 86.7999V71.0799C506.62 69.6199 505.43 68.4299 503.97 68.4299H499.02C497.56 68.4299 496.37 69.6199 496.37 71.0799V83.7699C495.92 83.4299 495.37 83.2199 494.77 83.2199C494.17 83.2199 493.57 83.4499 493.12 83.8099V75.8099C493.12 74.2999 491.89 73.0599 490.37 73.0599H481.25C479.74 73.0599 478.5 74.2899 478.5 75.8099V78.4799C478.05 78.1099 477.48 77.8899 476.85 77.8899H469.5C468.04 77.8899 466.85 79.0799 466.85 80.5399V129.42C466.85 130.05 467.08 130.62 467.44 131.07H457.35C457.07 131.07 456.85 131.29 456.85 131.57C456.85 131.85 457.07 132.07 457.35 132.07H523.58C523.58 132.07 523.58 132.07 523.59 132.07H531.85C532.13 132.07 532.35 131.85 532.35 131.57C532.35 131.29 532.13 131.07 531.85 131.07L531.86 131.06ZM507.13 87.8099C507.32 87.4099 507.65 87.1099 508.06 86.9499C508.25 86.8799 508.44 86.8499 508.62 86.8499C509.29 86.8499 509.93 87.2699 510.17 87.9299L525.13 128.83C525.28 129.24 525.26 129.69 525.08 130.09C524.89 130.49 524.56 130.79 524.15 130.95C523.74 131.1 523.29 131.08 522.89 130.9C522.49 130.71 522.19 130.38 522.04 129.97L507.08 89.0699C506.93 88.6599 506.95 88.2099 507.13 87.8099ZM521.1 130.31C521.2 130.58 521.35 130.83 521.53 131.05H506.03C506.4 130.6 506.62 130.03 506.62 129.4V90.7199L521.1 130.31ZM494.76 84.1999C495.54 84.1999 496.19 84.7499 496.36 85.4799V129.41C496.36 129.49 496.38 129.56 496.38 129.64C496.27 130.44 495.58 131.06 494.75 131.06C493.84 131.06 493.1 130.32 493.1 129.41V85.8599C493.1 84.9499 493.84 84.2099 494.75 84.2099L494.76 84.1999ZM496.89 130.97C496.89 130.97 496.94 131.03 496.96 131.05H496.82C496.82 131.05 496.87 131 496.89 130.97ZM492.58 130.91C492.62 130.96 492.66 131.01 492.7 131.05H492.46C492.46 131.05 492.54 130.96 492.58 130.91ZM479.14 131.06H478.9C478.9 131.06 478.98 130.97 479.02 130.92C479.06 130.97 479.1 131.02 479.14 131.06ZM469.5 131.06C468.59 131.06 467.85 130.32 467.85 129.41V80.5299C467.85 79.6199 468.59 78.8799 469.5 78.8799H476.85C477.76 78.8799 478.5 79.6199 478.5 80.5299V129.41C478.5 130.32 477.76 131.06 476.85 131.06H469.5ZM481.24 131.06C480.28 131.06 479.49 130.28 479.49 129.31V75.7999C479.49 74.8399 480.27 74.0499 481.24 74.0499H490.36C491.32 74.0499 492.11 74.8299 492.11 75.7999V129.31C492.11 130.27 491.33 131.06 490.36 131.06H481.24ZM499.01 131.06C498.18 131.06 497.5 130.44 497.38 129.64C497.38 129.56 497.4 129.49 497.4 129.41V85.8599C497.4 85.6999 497.38 85.5499 497.35 85.3999V71.0799C497.35 70.1699 498.09 69.4299 499 69.4299H503.95C504.86 69.4299 505.6 70.1699 505.6 71.0799V129.41C505.6 130.32 504.86 131.06 503.95 131.06H499H499.01Z" fill="#07064E"></path>
</g>
<path id="Vector_84" d="M478.85 230.93C478.57 230.93 478.35 230.71 478.35 230.43C478.35 230.15 478.57 229.93 478.85 229.93L821.4 229.55C821.68 229.55 821.9 229.77 821.9 230.05C821.9 230.33 821.68 230.55 821.4 230.55L478.85 230.93Z" fill="#07064E"></path>
<path id="Vector_85" d="M474.74 230.93H468.49C468.21 230.93 467.99 230.71 467.99 230.43C467.99 230.15 468.21 229.93 468.49 229.93H474.74C475.02 229.93 475.24 230.15 475.24 230.43C475.24 230.71 475.02 230.93 474.74 230.93Z" fill="#2BF5BA"></path>
<g id="Group_8">
<path id="Vector_86" d="M586.8 256.35C585.14 258.65 566.05 263.91 539.69 264.44C506.9 265.1 496.08 261.29 497.31 259.08C499.99 254.27 536.78 250.11 563.15 250.11C589.52 250.11 588.31 254.26 586.8 256.34V256.35Z" fill="#2AEDB4"></path>
<path id="Vector_87" d="M579.91 240.99H526.54L504.77 249.15V260.04H558.13L579.91 251.88V240.99Z" fill="#2BF5BA"></path>
<path id="Vector_88" d="M577.54 241.88C575.09 241.44 572.58 241.12 570.06 240.99H565.44C561.64 241.2 557.86 241.96 554.25 243.56C538.05 251.18 519.96 241.8 505.61 249.16H558.13L577.54 241.88Z" fill="#2AEDB4"></path>
<g id="Vector_89">
<path d="M504.77 249.65H558.13C558.19 249.65 558.25 249.64 558.31 249.62L580.09 241.45C580.32 241.37 580.45 241.13 580.41 240.89C580.37 240.65 580.16 240.48 579.92 240.48H526.56C526.5 240.48 526.44 240.49 526.38 240.51L504.6 248.68C504.37 248.76 504.24 249 504.28 249.24C504.32 249.48 504.53 249.65 504.77 249.65ZM526.63 241.49H577.15L558.04 248.66H507.52L526.63 241.49Z" fill="#07064E"></path>
<path d="M504.77 252.38H558.13C558.19 252.38 558.25 252.37 558.31 252.35L580.09 244.18C580.35 244.08 580.48 243.8 580.38 243.54C580.28 243.28 579.99 243.15 579.74 243.25L558.05 251.38H504.78C504.5 251.38 504.28 251.6 504.28 251.88C504.28 252.16 504.5 252.38 504.78 252.38H504.77Z" fill="#07064E"></path>
<path d="M579.73 245.96L558.04 254.09H504.77C504.49 254.09 504.27 254.31 504.27 254.59C504.27 254.87 504.49 255.09 504.77 255.09H558.13C558.19 255.09 558.25 255.08 558.31 255.06L580.09 246.89C580.35 246.79 580.48 246.51 580.38 246.25C580.28 245.99 579.99 245.86 579.74 245.96H579.73Z" fill="#07064E"></path>
<path d="M579.73 248.69L558.04 256.82H504.77C504.49 256.82 504.27 257.04 504.27 257.32C504.27 257.6 504.49 257.82 504.77 257.82H558.13C558.19 257.82 558.25 257.81 558.31 257.79L580.09 249.62C580.35 249.52 580.48 249.24 580.38 248.98C580.28 248.72 579.99 248.59 579.74 248.69H579.73Z" fill="#07064E"></path>
<path d="M579.73 251.41L558.04 259.54H504.77C504.49 259.54 504.27 259.76 504.27 260.04C504.27 260.32 504.49 260.54 504.77 260.54H558.13C558.19 260.54 558.25 260.53 558.31 260.51L580.09 252.34C580.35 252.24 580.48 251.96 580.38 251.7C580.28 251.44 579.99 251.31 579.74 251.41H579.73Z" fill="#07064E"></path>
</g>
</g>
<path id="Vector_90" d="M680.51 235.13C679.84 238.03 677.22 240.22 674.12 240.22H604.14C601.04 240.22 598.43 238.04 597.75 235.13C554.82 241.36 601.27 247.55 639.13 247.27C677 247.54 723.41 241.35 680.51 235.13Z" fill="#2AEDB4"></path>
<path id="Vector_91" d="M561.83 84.5399H716.43C722.79 84.5399 727.95 89.6999 727.95 96.0599V180.31H550.31V96.0699C550.31 89.7099 555.47 84.5499 561.83 84.5499V84.5399Z" fill="#EDEDED"></path>
<g id="Group_9">
<path id="Vector_92" d="M549.93 180.12V186.37C549.93 192.71 555.12 197.89 561.45 197.89H624.03V226.49H654.22V197.89H716.06C722.4 197.89 727.58 192.7 727.58 186.37V180.12H549.93Z" fill="white"></path>
<path id="Vector_93" d="M674.12 226.53H604.14C600.53 226.53 597.58 229.48 597.58 233.09C597.58 236.7 600.53 239.65 604.14 239.65H674.12C677.73 239.65 680.68 236.7 680.68 233.09C680.68 229.48 677.73 226.53 674.12 226.53Z" fill="white"></path>
</g>
<path id="Vector_94" d="M624.47 197.67C624.47 197.76 624.45 197.85 624.45 197.94C624.45 205.35 631.02 211.36 639.12 211.36C647.22 211.36 653.79 205.35 653.79 197.94C653.79 197.85 653.78 197.76 653.77 197.67H624.45H624.47Z" fill="#EBEBEB"></path>
<path id="Vector_95" d="M716.43 84.0399H561.83C555.2 84.0399 549.81 89.4299 549.81 96.0599V186.51C549.81 193.14 555.2 198.53 561.83 198.53H623.49V226.02H604.14C600.25 226.02 597.08 229.19 597.08 233.08C597.08 236.97 600.25 240.14 604.14 240.14H674.12C678.01 240.14 681.18 236.97 681.18 233.08C681.18 229.19 678.01 226.02 674.12 226.02H654.77V198.53H716.43C723.06 198.53 728.45 193.14 728.45 186.51V96.0699C728.45 89.4399 723.06 84.0499 716.43 84.0499V84.0399ZM561.83 85.0399H716.43C722.51 85.0399 727.45 89.9899 727.45 96.0599V179.76H550.81V96.0699C550.81 89.9899 555.76 85.0499 561.83 85.0499V85.0399ZM624.49 226.03V198.54H653.77V226.03H624.49ZM680.18 233.09C680.18 236.43 677.46 239.15 674.12 239.15H604.14C600.8 239.15 598.08 236.43 598.08 233.09C598.08 229.75 600.8 227.03 604.14 227.03H623.65C623.74 227.12 623.86 227.17 623.99 227.17C624.12 227.17 624.24 227.12 624.33 227.03H674.12C677.46 227.03 680.18 229.75 680.18 233.09ZM716.43 197.54H561.83C555.75 197.54 550.81 192.59 550.81 186.52V180.77H727.46V186.52C727.46 192.6 722.51 197.54 716.44 197.54H716.43Z" fill="#07064E"></path>
<path id="Vector_96" d="M703.66 97.7899H573.87C569.181 97.7899 565.38 101.591 565.38 106.28V162.81C565.38 167.499 569.181 171.3 573.87 171.3H703.66C708.349 171.3 712.15 167.499 712.15 162.81V106.28C712.15 101.591 708.349 97.7899 703.66 97.7899Z" fill="#DDDDDD"></path>
<path id="Vector_97" d="M703.66 93.71H573.87C569.181 93.71 565.38 97.5111 565.38 102.2V158.73C565.38 163.419 569.181 167.22 573.87 167.22H703.66C708.349 167.22 712.15 163.419 712.15 158.73V102.2C712.15 97.5111 708.349 93.71 703.66 93.71Z" fill="white"></path>
<path id="Vector_98" d="M571.85 92.58H705.68C709.25 92.58 712.14 95.48 712.14 99.04V106.67H565.38V99.04C565.38 95.47 568.28 92.58 571.84 92.58H571.85Z" fill="#07064E"></path>
<path id="Vector_99" d="M688.75 103.38C690.826 103.38 692.51 101.697 692.51 99.62C692.51 97.5434 690.826 95.86 688.75 95.86C686.673 95.86 684.99 97.5434 684.99 99.62C684.99 101.697 686.673 103.38 688.75 103.38Z" fill="white"></path>
<path id="Vector_100" d="M699.64 103.38C701.716 103.38 703.4 101.697 703.4 99.62C703.4 97.5434 701.716 95.86 699.64 95.86C697.563 95.86 695.88 97.5434 695.88 99.62C695.88 101.697 697.563 103.38 699.64 103.38Z" fill="#2BF5BA"></path>
<g id="Vector_101">
<path d="M631.43 118.56H590.14C588.234 118.56 586.69 120.105 586.69 122.01V124.88C586.69 126.785 588.234 128.33 590.14 128.33H631.43C633.335 128.33 634.88 126.785 634.88 124.88V122.01C634.88 120.105 633.335 118.56 631.43 118.56Z" fill="#2BF5BA"></path>
<path d="M579.62 118.57H578.54L575.63 121.08L576.04 121.66C576.04 121.66 576.1 121.72 576.14 121.75C576.18 121.78 576.23 121.8 576.29 121.81C576.35 121.81 576.41 121.81 576.47 121.81C576.53 121.8 576.6 121.77 576.66 121.72L578.31 120.32C578.3 120.54 578.29 120.75 578.29 120.95V127.33H576.23V128.34H581.49V127.33H579.61V118.59L579.62 118.57Z" fill="#2BF5BA"></path>
</g>
<g id="Vector_102">
<path d="M631.43 143.49H590.14C588.235 143.49 586.69 145.035 586.69 146.94V149.81C586.69 151.715 588.235 153.26 590.14 153.26H631.43C633.335 153.26 634.88 151.715 634.88 149.81V146.94C634.88 145.035 633.335 143.49 631.43 143.49Z" fill="#EBEBEB"></path>
<path d="M581.72 152.15C581.86 152.15 581.98 152.19 582.06 152.28C582.14 152.37 582.18 152.47 582.18 152.61V153.41H575.65V152.96C575.65 152.87 575.67 152.77 575.7 152.67C575.74 152.57 575.8 152.48 575.88 152.4L578.96 149.32C579.22 149.06 579.45 148.81 579.66 148.57C579.87 148.33 580.04 148.09 580.19 147.86C580.33 147.62 580.45 147.38 580.53 147.13C580.61 146.88 580.65 146.62 580.65 146.34C580.65 146.06 580.61 145.83 580.52 145.63C580.43 145.42 580.32 145.25 580.17 145.12C580.02 144.98 579.85 144.88 579.64 144.81C579.44 144.74 579.22 144.71 578.98 144.71C578.74 144.71 578.53 144.74 578.33 144.81C578.13 144.88 577.96 144.97 577.8 145.09C577.65 145.21 577.52 145.36 577.41 145.52C577.31 145.69 577.23 145.87 577.19 146.06C577.13 146.23 577.05 146.35 576.95 146.41C576.85 146.47 576.71 146.48 576.53 146.45L575.84 146.33C575.9 145.88 576.03 145.48 576.21 145.14C576.39 144.8 576.63 144.51 576.91 144.28C577.19 144.05 577.51 143.87 577.88 143.76C578.24 143.64 578.64 143.58 579.06 143.58C579.48 143.58 579.88 143.64 580.24 143.77C580.6 143.89 580.91 144.07 581.17 144.31C581.43 144.54 581.64 144.83 581.79 145.17C581.94 145.51 582.01 145.89 582.01 146.31C582.01 146.67 581.96 147.01 581.85 147.32C581.74 147.63 581.6 147.92 581.42 148.2C581.24 148.48 581.02 148.75 580.78 149.02C580.54 149.29 580.28 149.55 580.01 149.82L577.54 152.34C577.73 152.29 577.92 152.25 578.11 152.22C578.3 152.19 578.48 152.17 578.66 152.17H581.73L581.72 152.15Z" fill="#EBEBEB"></path>
</g>
<g id="Vector_103">
<path d="M631.43 140.88H590.14C588.235 140.88 586.69 142.425 586.69 144.33V147.2C586.69 149.106 588.235 150.65 590.14 150.65H631.43C633.335 150.65 634.88 149.106 634.88 147.2V144.33C634.88 142.425 633.335 140.88 631.43 140.88Z" fill="#07064E"></path>
<path d="M581.72 149.43C581.86 149.43 581.98 149.47 582.06 149.56C582.14 149.65 582.18 149.75 582.18 149.89V150.69H575.65V150.24C575.65 150.15 575.67 150.05 575.7 149.95C575.74 149.85 575.8 149.76 575.88 149.68L578.96 146.6C579.22 146.34 579.45 146.09 579.66 145.85C579.87 145.61 580.04 145.37 580.19 145.14C580.33 144.9 580.45 144.66 580.53 144.41C580.61 144.16 580.65 143.9 580.65 143.62C580.65 143.34 580.61 143.11 580.52 142.91C580.43 142.7 580.32 142.53 580.17 142.4C580.02 142.26 579.85 142.16 579.64 142.09C579.44 142.02 579.22 141.99 578.98 141.99C578.74 141.99 578.53 142.02 578.33 142.09C578.13 142.16 577.96 142.25 577.8 142.37C577.65 142.49 577.52 142.64 577.41 142.8C577.31 142.97 577.23 143.15 577.19 143.34C577.13 143.51 577.05 143.63 576.95 143.69C576.85 143.75 576.71 143.76 576.53 143.73L575.84 143.61C575.9 143.16 576.03 142.76 576.21 142.42C576.39 142.08 576.63 141.79 576.91 141.56C577.19 141.33 577.51 141.15 577.88 141.04C578.24 140.92 578.64 140.86 579.06 140.86C579.48 140.86 579.88 140.92 580.24 141.05C580.6 141.17 580.91 141.35 581.17 141.59C581.43 141.82 581.64 142.11 581.79 142.45C581.94 142.79 582.01 143.17 582.01 143.59C582.01 143.95 581.96 144.29 581.85 144.6C581.74 144.91 581.6 145.2 581.42 145.48C581.24 145.76 581.02 146.03 580.78 146.3C580.54 146.57 580.28 146.83 580.01 147.1L577.54 149.62C577.73 149.57 577.92 149.53 578.11 149.5C578.3 149.47 578.48 149.45 578.66 149.45H581.73L581.72 149.43Z" fill="#07064E"></path>
</g>
<g id="Vector_104">
<path d="M699.35 140.88H658.06C656.154 140.88 654.61 142.425 654.61 144.33V147.2C654.61 149.106 656.154 150.65 658.06 150.65H699.35C701.255 150.65 702.8 149.106 702.8 147.2V144.33C702.8 142.425 701.255 140.88 699.35 140.88Z" fill="#2BF5BA"></path>
<path d="M649.11 141H647.86L643.16 147.25L643.3 147.93C643.32 148.02 643.37 148.09 643.44 148.14C643.51 148.2 643.59 148.22 643.69 148.22H647.96V150.73H649.12V148.22H650.24C650.33 148.22 650.4 148.19 650.45 148.14C650.5 148.09 650.52 148.02 650.52 147.94V147.17H649.11V140.98V141ZM647.97 142.97C647.97 143.12 647.96 143.26 647.96 143.39V147.18H644.61L648.02 142.51C648 142.67 647.98 142.82 647.98 142.97H647.97Z" fill="#2BF5BA"></path>
</g>
<g id="Vector_105">
<path d="M699.35 118.56H658.06C656.155 118.56 654.61 120.105 654.61 122.01V124.88C654.61 126.785 656.155 128.33 658.06 128.33H699.35C701.255 128.33 702.8 126.785 702.8 124.88V122.01C702.8 120.105 701.255 118.56 699.35 118.56Z" fill="#FFC391"></path>
<path d="M648.27 123.29C648.52 123.21 648.75 123.11 648.95 122.98C649.15 122.86 649.33 122.7 649.47 122.52C649.61 122.34 649.72 122.13 649.8 121.89C649.88 121.65 649.92 121.38 649.92 121.06C649.92 120.69 649.85 120.35 649.71 120.04C649.57 119.73 649.37 119.47 649.12 119.25C648.87 119.03 648.57 118.86 648.22 118.74C647.87 118.62 647.48 118.56 647.06 118.56C646.64 118.56 646.25 118.62 645.88 118.74C645.52 118.86 645.19 119.03 644.91 119.26C644.63 119.49 644.4 119.78 644.21 120.12C644.02 120.46 643.9 120.86 643.83 121.31L644.53 121.43C644.71 121.46 644.85 121.45 644.95 121.39C645.05 121.33 645.13 121.22 645.19 121.04C645.24 120.85 645.31 120.66 645.41 120.5C645.51 120.33 645.64 120.19 645.8 120.07C645.95 119.95 646.13 119.85 646.33 119.79C646.53 119.72 646.75 119.69 646.98 119.69C647.21 119.69 647.43 119.72 647.63 119.79C647.83 119.86 648.01 119.95 648.15 120.09C648.3 120.22 648.41 120.39 648.49 120.59C648.57 120.79 648.61 121.02 648.61 121.29C648.61 121.53 648.57 121.76 648.49 121.95C648.41 122.15 648.28 122.32 648.11 122.46C647.93 122.6 647.7 122.72 647.42 122.8C647.13 122.88 646.78 122.92 646.37 122.93V123.89C646.88 123.89 647.29 123.93 647.6 124.02C647.91 124.11 648.16 124.22 648.34 124.38C648.52 124.53 648.64 124.71 648.7 124.93C648.76 125.14 648.8 125.37 648.8 125.63C648.8 125.83 648.76 126.04 648.68 126.25C648.6 126.46 648.48 126.65 648.31 126.82C648.15 126.99 647.94 127.13 647.7 127.23C647.46 127.34 647.17 127.39 646.85 127.39C646.53 127.39 646.23 127.34 646.01 127.23C645.79 127.13 645.6 127 645.45 126.85C645.3 126.7 645.18 126.54 645.09 126.37C645 126.2 644.92 126.05 644.86 125.91C644.8 125.78 644.7 125.7 644.55 125.67C644.41 125.64 644.27 125.67 644.12 125.72L643.54 125.96C643.66 126.33 643.8 126.68 643.97 126.99C644.14 127.3 644.35 127.57 644.61 127.8C644.87 128.03 645.18 128.2 645.55 128.32C645.92 128.44 646.35 128.51 646.86 128.51C647.31 128.51 647.73 128.44 648.12 128.31C648.52 128.18 648.86 127.98 649.16 127.73C649.46 127.48 649.69 127.17 649.86 126.81C650.03 126.45 650.12 126.04 650.12 125.58C650.12 124.99 649.96 124.5 649.65 124.11C649.34 123.72 648.87 123.44 648.25 123.27L648.27 123.29Z" fill="#FFC391"></path>
</g>
<path id="Vector_106" d="M736.38 154.67C730.05 154.92 726.11 158.87 723.98 162.44C721.17 167.14 721.22 176.72 721.73 180.54C721.97 182.37 722.81 198.88 722.53 201.18C723.77 199.65 732.54 195.73 737.2 194.69C746.28 192.68 750.68 191.17 755.46 186.87C761.08 181.81 767.02 170.31 759.88 162.81C756.12 158.86 745.6 158.97 745.6 158.97C745.6 158.97 741.84 154.45 736.39 154.67H736.38Z" fill="#2BF5BA"></path>
<path id="Vector_107" d="M777.35 246.08C788.274 246.08 797.13 244.441 797.13 242.42C797.13 240.399 788.274 238.76 777.35 238.76C766.426 238.76 757.57 240.399 757.57 242.42C757.57 244.441 766.426 246.08 777.35 246.08Z" fill="#2AEDB4"></path>
<path id="Vector_108" d="M802.01 194.09H752.69V209.25H772.43L756.21 209.28L763.66 242.26H791.04L798.5 209.25H802.01V194.09Z" fill="#FFC391"></path>
<g id="Vector_109">
<path d="M763.11 170.44C763.03 167.82 761.61 164.97 759.92 162.97C758.14 160.87 754.75 159.26 748.18 159.02C749.89 167.98 749.72 179.26 741.74 184.57C733.04 190.37 728.11 192.53 722.57 199.75C722.57 200.4 722.57 200.89 722.53 201.18C723.77 199.65 734.41 195.43 739.05 194.29C746.44 192.47 749.35 191.99 754.29 187.87C759.36 183.64 763.35 178 763.12 170.44H763.11Z" fill="#2AEDB4"></path>
<path d="M757 112.91C759.27 112.91 761.68 111.8 763.36 110.45C765.12 109.03 766.4 106.28 766.38 100.87C758.68 102.08 748.92 101.69 744.05 95.01C738.74 87.72 736.7 83.61 730.27 78.89C729.71 78.89 729.28 78.86 729.04 78.83C730.41 79.88 734.42 88.74 735.56 92.58C737.38 98.7 737.9 101.11 741.63 105.26C745.46 109.53 750.48 112.94 757.01 112.92L757 112.91Z" fill="#2AEDB4"></path>
<path d="M797.94 131.53C795.72 131.97 793.13 131.37 791.22 130.37C789.22 129.33 787.42 126.88 786.37 121.58C796.25 125.72 806.34 122.89 809.79 115.37C813.56 107.17 812.05 98.78 817.42 92.89C817.97 92.77 818.38 92.66 818.62 92.58C817.49 93.88 815.31 103.36 814.95 107.35C814.38 113.71 814.34 116.17 811.51 120.98C808.6 125.92 804.36 130.26 797.95 131.53H797.94Z" fill="#2AEDB4"></path>
<path d="M790.43 164.49C789.54 162.73 789.44 160.42 789.83 158.59C790.24 156.66 791.86 154.58 796.07 152.46C798.18 158.91 801.64 161.8 808.75 162.93C816.51 164.17 821.2 168.66 827.4 171.78C827.63 172.21 827.81 172.53 827.94 172.71C826.58 172.07 818.13 172.46 814.69 173.09C809.22 174.1 807.15 174.65 802.45 173.4C797.62 172.12 792.99 169.57 790.43 164.5V164.49Z" fill="#2AEDB4"></path>
<path d="M767.75 141.6C768.83 140.08 769.37 137.93 769.43 136.15C769.49 134.28 769.15 134.16 768.79 133.63C765.78 139.36 757.75 141.51 751.77 141.5C745.24 141.48 742.03 140.84 736.38 142.82C736.11 143.19 735.89 143.47 735.76 143.61C736.99 143.21 743.75 144.86 746.4 145.98C750.62 147.76 752.18 148.58 756.24 148.13C760.4 147.66 764.66 145.98 767.76 141.6H767.75Z" fill="#2AEDB4"></path>
</g>
<path id="Vector_110" d="M802.01 194.04H801.92L783.44 194.07C784.32 199.07 783.5 204.12 783.72 209.2H787.6C788.19 221.55 786.81 234.08 782.17 241.99L791.04 242.26L798.51 209.21H802.01V194.05V194.04Z" fill="#FFAF6E"></path>
<path id="Vector_111" d="M828.35 172.42C827.37 171.03 822 159.86 821.51 158.61C820.48 155.98 817 149.42 813.34 147.05C811.18 145.65 806.83 143.6 802 145.57C798.89 146.85 797.73 149.85 797.38 151.03C795.96 150.82 794.57 150.88 793.2 151.23C786.88 152.85 783.2 159.84 782.22 161.94C782.22 161.96 782.21 161.98 782.2 161.99C781.63 158.03 781.09 154.26 780.67 150.81C779.83 143.93 780.63 135.42 782.82 128.05C783.5 125.77 784.43 123.2 785.69 120.6C786.17 123.02 787.65 128.86 790.83 130.78C792.5 131.78 794.25 132.21 796.01 132.21C802.09 132.21 808.26 127.05 811.24 122.38C814.32 117.56 815.03 113.54 815.55 105.78C815.82 101.8 818.01 94.0299 819 92.8899C819.15 92.7199 819.16 92.4699 819.04 92.2799C818.91 92.0899 818.67 92.0099 818.46 92.0899C816.61 92.7399 802.58 95.24 801.05 95.4C797.83 95.7199 789.52 97.5399 785.79 100.85C783.58 102.8 779.99 106.96 780.68 112.87C781.1 116.49 783.8 118.67 785.09 119.51C779.79 129.97 778.69 142.85 779.68 150.93C780.16 154.88 780.79 159.23 781.46 163.84C778.7 171.55 778.5 183.57 778.67 193.53H778.03C777.74 192.19 777.55 190.15 777.33 187.8C776.84 182.49 776.17 175.22 773.74 170.39C772.98 168.87 771.98 167.06 770.8 165.21C770.77 156.04 771.77 145.65 775.13 135.35C781.3 116.42 774.79 106.06 766.85 98.9499C767.67 98.2299 770.59 95.3399 770.24 91.2099C769.75 85.2799 765.4 81.9099 762.85 80.4399C758.53 77.9399 750.03 77.7899 746.81 78.1199C745.28 78.2699 731.02 78.5899 729.09 78.3199C728.87 78.2999 728.65 78.4099 728.56 78.6199C728.47 78.8299 728.54 79.0699 728.72 79.2099C729.92 80.1299 733.6 87.3099 734.65 91.1699C736.69 98.6699 738.19 102.47 742.16 106.59C745.52 110.07 751.33 113.44 756.72 113.44C759.29 113.44 761.77 112.67 763.83 110.78C766.39 108.44 766.81 103.05 766.85 100.33C774.15 107.16 779.84 117.05 774.35 134.48C772.5 131.17 770.03 129.09 766.98 128.31C766.29 128.13 765.6 128.04 764.93 128C764.89 126.86 764.58 123.81 762.26 122.1C758.7 119.47 754.72 120.75 752.66 121.75C749.21 123.42 745.07 129.04 743.71 131.35C743.06 132.45 736.46 142.11 735.39 143.27C735.24 143.44 735.21 143.69 735.34 143.88C735.46 144.07 735.7 144.16 735.92 144.09C736.97 143.74 742.58 144.8 745.16 145.96C749.18 147.78 751.78 148.71 754.74 148.71C755.55 148.71 756.38 148.64 757.28 148.5C762.49 147.7 770.13 143.18 769.98 136.03C769.92 133.33 767.49 130.58 765.96 129.12C766.22 129.16 766.48 129.22 766.74 129.28C769.76 130.05 772.18 132.25 773.94 135.81C770.92 145.42 769.88 155.06 769.81 163.71C766.62 159.09 762.26 154.55 757.1 153.75C753.25 153.16 749.43 154.72 745.74 158.37C744.81 157.37 741.28 153.97 736.37 154.16C729.21 154.44 725.27 159.3 723.56 162.17C720.66 167.04 720.75 176.86 721.24 180.59C721.47 182.37 722.31 198.87 722.04 201.1C722.01 201.32 722.14 201.53 722.34 201.62C722.4 201.65 722.47 201.66 722.53 201.66C722.68 201.66 722.82 201.59 722.92 201.47C724.03 200.09 732.54 196.22 737.31 195.16C746.35 193.16 750.92 191.61 755.79 187.22C759.53 183.85 763.41 177.74 763.64 171.66C763.78 168.06 762.63 164.96 760.24 162.44C757.19 159.24 750.14 158.6 747.06 158.47C750.31 155.48 753.63 154.21 756.94 154.72C762.23 155.54 766.68 160.63 769.8 165.48C769.85 175.22 771.05 183.56 771.83 188.93C772.11 190.85 772.33 192.41 772.43 193.51H752.78C752.69 193.51 752.6 193.54 752.52 193.59C752.33 193.66 752.2 193.84 752.2 194.05V209.21C752.2 209.49 752.42 209.71 752.7 209.71H755.81L760.9 232.24L763.18 242.32C763.23 242.55 763.43 242.71 763.67 242.71H791.05C791.28 242.71 791.49 242.55 791.54 242.32L798.91 209.7H802.02C802.3 209.7 802.52 209.48 802.52 209.2V194.04C802.52 193.83 802.39 193.65 802.2 193.58C802.12 193.53 802.04 193.5 801.94 193.5H785.52C785.79 186.74 784.12 175.19 782.49 164.01C782.49 163.97 782.48 163.94 782.47 163.9C782.67 163.35 782.89 162.82 783.12 162.33C783.78 160.9 787.39 153.71 793.44 152.17C794.3 151.95 795.17 151.86 796.05 151.89C793.9 153.05 790.1 155.45 789.31 158.3C787.29 165.61 795.2 171.71 801.17 173.53C803.3 174.18 805.19 174.47 807.21 174.47C809.72 174.47 812.45 174.02 816.13 173.26C819.53 172.55 826.53 172.57 827.71 173.13C827.92 173.23 828.16 173.17 828.31 173C828.46 172.83 828.47 172.58 828.34 172.39L828.35 172.42ZM781.66 112.77C781.02 107.31 784.38 103.44 786.44 101.61C790 98.4599 798.03 96.7199 801.14 96.4099C802.4 96.2799 813.57 94.3299 817.59 93.3699C816.36 96.0899 814.78 102.26 814.55 105.73C814.02 113.66 813.31 117.29 810.4 121.86C804.25 131.49 795.4 132.37 791.35 129.94C787.78 127.79 786.5 119.5 786.49 119.42C786.48 119.35 786.45 119.28 786.41 119.22C788.71 114.91 791.95 110.67 796.54 107.69C796.77 107.54 796.84 107.23 796.69 107C796.54 106.77 796.23 106.7 796 106.85C791.5 109.77 788.09 113.93 785.56 118.63C784.39 117.83 782.04 115.87 781.67 112.77H781.66ZM766.09 98.2899C763.8 96.3099 761.41 94.59 759.21 92.99C756.92 91.34 754.77 89.7699 753.19 88.2499C752.99 88.0599 752.67 88.0599 752.48 88.2599C752.29 88.4599 752.29 88.78 752.49 88.9699C754.12 90.5399 756.31 92.1299 758.62 93.7999C760.94 95.4799 763.45 97.2999 765.85 99.4199C765.87 101.44 765.73 107.69 763.15 110.04C759.66 113.23 750.81 114.12 742.88 105.89C739.12 101.99 737.71 98.57 735.62 90.9C734.71 87.5499 731.94 81.8099 730.19 79.3899C734.31 79.5299 745.65 79.2399 746.91 79.1099C750.03 78.7999 758.24 78.9199 762.35 81.2999C764.73 82.6799 768.79 85.8099 769.24 91.2899C769.56 95.1399 766.56 97.8699 766.09 98.2799V98.2899ZM768.97 136.06C769.05 139.93 765.35 146.25 757.12 147.52C753.24 148.12 750.72 147.39 745.56 145.06C743.52 144.13 739.19 143.13 736.85 143.05C738.96 140.25 744.05 132.76 744.57 131.87C745.88 129.64 749.85 124.23 753.09 122.66C754.94 121.76 758.52 120.6 761.66 122.92C763.56 124.32 763.87 126.96 763.92 128C760.6 128.08 757.79 129.49 756.79 130.2C755.53 131.09 754.37 132.21 753.24 133.29C751.63 134.84 750.11 136.3 748.55 136.85C748.29 136.94 748.15 137.23 748.25 137.49C748.32 137.7 748.52 137.82 748.72 137.82C748.78 137.82 748.83 137.82 748.89 137.79C750.65 137.16 752.25 135.63 753.94 134C755.04 132.95 756.17 131.85 757.37 131.01C758.26 130.38 761.08 128.98 764.31 128.99C765.18 129.72 768.91 133.05 768.97 136.06ZM759.51 163.16C761.71 165.47 762.77 168.33 762.64 171.65C762.42 177.44 758.7 183.28 755.12 186.51C750.48 190.68 746.37 192.16 737.09 194.21C733.05 195.11 725.83 198.2 723.08 200.08C723.15 195.55 722.42 181.97 722.22 180.48C721.75 176.86 721.64 167.35 724.41 162.7C726.02 160 729.72 155.44 736.4 155.18C740.88 154.99 744.23 158.25 745.02 159.1C741.42 162.96 740.26 166.63 739.04 170.5C737.71 174.76 736.19 179.59 731.1 185.7C730.92 185.91 730.95 186.23 731.16 186.41C731.37 186.58 731.69 186.56 731.86 186.35C737.08 180.08 738.62 175.16 739.98 170.81C741.24 166.78 742.34 163.29 746.02 159.49C748.04 159.52 756.35 159.88 759.49 163.18L759.51 163.16ZM772.81 188.82C772.08 183.79 770.98 176.13 770.81 167.16C771.6 168.48 772.28 169.75 772.83 170.85C775.18 175.51 775.84 182.67 776.32 187.9C776.53 190.16 776.71 192.15 776.99 193.54H773.41C773.31 192.4 773.09 190.81 772.8 188.81L772.81 188.82ZM801.51 208.75H772.3C772.02 208.75 771.8 208.97 771.8 209.25C771.8 209.53 772.02 209.75 772.3 209.75H797.87L790.64 241.76H764.06L756.83 209.75H761.41C761.69 209.75 761.91 209.53 761.91 209.25C761.91 208.97 761.69 208.75 761.41 208.75H753.19V194.59H801.51V208.75ZM784.51 193.54H779.66C779.5 184.46 779.66 173.66 781.78 166.12C783.31 176.67 784.78 187.27 784.52 193.54H784.51ZM815.94 172.31C809.18 173.72 805.98 173.98 801.48 172.61C796.64 171.14 788.38 165.51 790.29 158.6C791.18 155.37 797 152.54 797.84 152.15C799.7 152.54 801.6 153.43 803.53 154.86C803.75 155.02 804.07 154.98 804.23 154.75C804.39 154.53 804.35 154.21 804.12 154.05C802.18 152.62 800.26 151.68 798.37 151.23C798.72 150.14 799.78 147.57 802.38 146.5C806.78 144.7 810.79 146.6 812.8 147.89C816.26 150.13 819.59 156.43 820.58 158.97C820.98 159.99 825.14 168.69 826.92 171.94C824.21 171.55 818.66 171.74 815.95 172.31H815.94Z" fill="#07064E"></path>
</g>
</g>
</g>
</g>
</g>
<defs>
<clipPath id="clip0_86_87">
<rect width="125" height="88" fill="white" transform="translate(40 136)"></rect>
</clipPath>
<clipPath id="clip1_86_87">
<rect width="200" height="140" fill="white" transform="translate(205 110)"></rect>
</clipPath>
<clipPath id="clip2_86_87">
<rect width="400" height="280" fill="white" transform="translate(445 40)"></rect>
</clipPath>
</defs>
</svg>
