<svg width="200" height="140" viewBox="0 0 200 140" fill="none" xmlns="http://www.w3.org/2000/svg">
<g id="illu_bg_first-time-participant/Default" clip-path="url(#clip0_86_449)">
<g id="illu_bg_first-time-participant">
<g id="background">
<path d="M38.2 18.5349C9.06501 42.0249 26.965 57.4399 12.415 75.8949C-10.265 104.67 -2.05499 154.545 85.94 128.32C119.37 118.36 163.26 154.52 188.12 123.215C204.715 102.315 204.97 38.4399 165.095 16.1349C126.195 -5.62514 56.7 3.61986 38.2 18.5349Z" fill="#2AF5BA"></path>
<path d="M193.983 135.831C197.276 134.132 198.88 130.687 197.564 128.137C196.249 125.588 192.513 124.898 189.219 126.597C185.926 128.296 184.323 131.741 185.638 134.29C186.953 136.84 190.69 137.53 193.983 135.831Z" fill="#2BF5BA"></path>
<path d="M9.29501 36.6999C10.071 36.6999 10.7 36.0708 10.7 35.2949C10.7 34.5189 10.071 33.8899 9.29501 33.8899C8.51905 33.8899 7.89001 34.5189 7.89001 35.2949C7.89001 36.0708 8.51905 36.6999 9.29501 36.6999Z" fill="#2BF5BA"></path>
<path d="M17.0857 23.3228C22.6321 19.7154 25.0352 13.5727 22.4531 9.60265C19.871 5.63264 13.2815 5.33869 7.73509 8.9461C2.18865 12.5535 -0.214425 18.6962 2.36767 22.6662C4.94977 26.6362 11.5392 26.9302 17.0857 23.3228Z" fill="#2BF5BA"></path>
</g>
<g id="illu_bg_first-time-participant_2">
<g id="stroke">
<g id="Group">
<path id="Vector" d="M96.5951 64.0748C94.7001 60.3398 91.1651 54.7448 90.5301 47.0948C89.2401 31.4448 76.7601 27.5998 72.7451 32.7898C68.7301 27.5998 56.2501 31.4448 54.9601 47.0948C54.3301 54.7498 50.7951 60.3398 48.8951 64.0748C48.5901 64.6748 49.1201 65.3648 49.7801 65.2298L53.8901 64.3998C54.3901 64.2998 54.8551 64.6798 54.8601 65.1898L54.8951 70.5548C54.8951 71.1548 55.5351 71.5448 56.0701 71.2698L60.3601 69.1048C60.8501 68.8598 61.4351 69.1598 61.5251 69.6998L62.2251 74.0198C62.3151 74.5798 62.9401 74.8748 63.4301 74.5898L66.5301 72.7898H78.9551L82.0551 74.5898C82.5451 74.8748 83.1701 74.5798 83.2601 74.0198L83.9601 69.6998C84.0501 69.1598 84.6351 68.8598 85.1251 69.1048L89.4151 71.2698C89.9501 71.5398 90.5851 71.1548 90.5901 70.5548L90.6251 65.1898C90.6251 64.6798 91.0951 64.2998 91.5951 64.3998L95.7051 65.2298C96.3651 65.3648 96.8951 64.6748 96.5901 64.0748H96.5951Z" fill="#9FF0D8"></path>
<path id="Vector_2" d="M83.465 80.1747C83.08 89.2747 72.815 96.5897 72.815 96.5897C72.815 96.5897 62.345 87.7897 62.165 80.2447C64.845 78.5847 66.815 76.5847 66.72 68.6047C70.51 72.9097 73.775 73.3847 78.845 68.6047C78.745 75.2347 80.155 78.6547 83.465 80.1747Z" fill="#AAFBE3"></path>
<path id="Vector_3" d="M104.795 112.235L105.475 91.0898C105.58 86.3448 101.75 82.4498 97.0051 82.4748L85.4651 80.4648C84.9401 91.4998 72.8151 100.46 72.8151 100.46C72.8151 100.46 60.5951 90.1648 60.3351 80.6798L49.5601 82.4648C43.9151 82.6448 40.6101 86.9448 40.8501 92.5848L41.7151 117.33L104.635 117.37L104.8 112.235" fill="#AAFBE3"></path>
<path id="Vector_4" d="M41.2301 109.125H51.0251L50.8651 104.79H41.0801L41.2301 109.125Z" fill="#2AF5BA"></path>
<path id="Vector_5" d="M72.7848 72.3948C70.4048 72.3948 68.3148 70.8598 67.1098 68.5498C67.0848 68.8498 67.0698 69.1548 67.0698 69.4648C67.0698 73.8848 69.6298 77.4648 72.7848 77.4648C75.9398 77.4648 78.4948 73.8848 78.4948 69.4648C78.4948 69.1548 78.4798 68.8498 78.4548 68.5498C77.2548 70.8598 75.1648 72.3948 72.7798 72.3948H72.7848Z" fill="#9FF0D8"></path>
<path id="Vector_6" d="M72.64 34.8199C82.055 30.5549 86.64 39.7599 90.24 44.7449C88.015 32.4999 78.245 27.5799 72.75 32.7899C66.435 26.4999 55.91 34.5649 55.04 46.2899C59 39.4049 63.645 30.5899 72.64 34.8249V34.8199Z" fill="#AAFBE3"></path>
<path id="Vector_7" d="M87.8948 52.9748C88.3848 50.5998 87.3498 49.4698 86.2398 49.3198C85.4148 49.2098 84.7698 50.0098 84.7698 51.6848C84.7598 51.7798 84.7548 51.8698 84.7498 51.9648C84.5748 48.5798 83.6248 44.5798 83.6248 44.5798C83.6248 44.5798 80.3498 45.2898 77.0248 42.8798C73.1998 40.1798 72.7698 36.8398 72.7698 36.8398C71.9698 40.3898 67.6948 44.9548 62.2498 44.8348C61.4948 47.5048 61.3698 52.2448 61.3448 51.6848C61.3448 50.0098 60.6998 49.2048 59.8748 49.3198C58.7648 49.4698 57.7348 50.5998 58.2198 52.9748C58.4848 54.2748 59.1898 57.0998 60.5348 58.3348C60.1798 58.5348 59.9298 58.9248 59.9298 59.3848C59.9298 60.0398 60.4298 60.5698 61.0448 60.5698C61.6598 60.5698 62.1598 60.0398 62.1598 59.3848C62.1598 59.2198 62.1298 59.0648 62.0748 58.9248C62.0848 58.9248 62.0998 58.9248 62.1098 58.9248C63.9998 67.1148 69.3548 72.5998 72.6898 72.3948C76.0298 72.1898 82.5748 65.5998 84.3248 57.1248C84.2498 57.7148 84.1548 58.2298 84.0298 58.6598C83.8798 58.8598 83.7898 59.1098 83.7898 59.3898C83.7898 60.0448 84.2898 60.5748 84.9048 60.5748C85.5198 60.5748 86.0198 60.0448 86.0198 59.3898C86.0198 58.9748 85.8198 58.6098 85.5148 58.3998C86.8998 57.1948 87.6198 54.2998 87.8898 52.9798L87.8948 52.9748Z" fill="#AAFBE3"></path>
<path id="Vector_8" d="M83.6249 44.5798C83.6249 44.5798 82.4999 44.8198 80.9049 44.5398C84.1849 55.5098 78.7449 69.5048 71.2549 72.1698C71.7599 72.3398 72.2449 72.4198 72.6949 72.3948C76.5399 72.1598 84.6249 63.4698 84.7749 53.1848C84.8249 49.6348 83.6249 44.5848 83.6249 44.5848V44.5798Z" fill="#9FF0D8"></path>
<g id="Group_2">
<path id="Vector_9" d="M72.765 65.1348C71.125 65.1348 69.485 64.5948 68.085 63.5148C67.975 63.4298 67.955 63.2748 68.04 63.1648C68.125 63.0548 68.285 63.0348 68.39 63.1198C71.005 65.1398 74.525 65.1398 77.15 63.1198C77.26 63.0348 77.415 63.0548 77.5 63.1648C77.585 63.2748 77.565 63.4298 77.455 63.5148C76.05 64.5948 74.41 65.1348 72.765 65.1348Z" fill="#156678"></path>
<path id="Vector_10" d="M72.6296 58.7699C72.1546 58.7699 71.7196 58.5449 71.4246 58.1349C71.0546 57.6199 71.0096 56.9299 71.3096 56.3749C71.9396 55.2049 72.3246 53.6199 72.5546 51.2299C72.5696 51.0899 72.6946 50.9949 72.8296 51.0049C72.9696 51.0199 73.0696 51.1399 73.0546 51.2799C72.8146 53.7399 72.4146 55.3849 71.7496 56.6149C71.5396 56.9999 71.5746 57.4849 71.8296 57.8449C72.0646 58.1699 72.4196 58.3199 72.8046 58.2549C72.9146 58.2349 73.0096 58.2049 73.0896 58.1599C73.2096 58.0949 73.3596 58.1349 73.4296 58.2549C73.4996 58.3749 73.4546 58.5299 73.3346 58.5949C73.2046 58.6649 73.0596 58.7199 72.8896 58.7449C72.7996 58.7599 72.7146 58.7699 72.6296 58.7699Z" fill="#156678"></path>
<g id="Group_3">
<path id="Vector_11" d="M68.6096 53.2599C69.0146 52.8549 69.2696 52.2849 69.2696 51.6499C69.2696 51.5099 69.1596 51.3999 69.0196 51.3999C68.8796 51.3999 68.7696 51.5099 68.7696 51.6499C68.7696 52.5899 68.0696 53.3549 67.2096 53.3549C66.3496 53.3549 65.6496 52.5899 65.6496 51.6499C65.6496 51.5099 65.5396 51.3999 65.3996 51.3999C65.2596 51.3999 65.1496 51.5099 65.1496 51.6499C65.1496 52.2849 65.4046 52.8549 65.8096 53.2599L65.0496 54.0199C64.9496 54.1199 64.9496 54.2749 65.0496 54.3749C65.0996 54.4249 65.1646 54.4499 65.2246 54.4499C65.2846 54.4499 65.3546 54.4249 65.3996 54.3749L66.2046 53.5699C66.4346 53.7049 66.6846 53.7949 66.9546 53.8349V54.8899C66.9546 55.0299 67.0646 55.1399 67.2046 55.1399C67.3446 55.1399 67.4546 55.0299 67.4546 54.8899V53.8349C67.7246 53.7999 67.9796 53.7099 68.2046 53.5699L69.0096 54.3749C69.0596 54.4249 69.1246 54.4499 69.1846 54.4499C69.2446 54.4499 69.3146 54.4249 69.3596 54.3749C69.4596 54.2749 69.4596 54.1199 69.3596 54.0199L68.5996 53.2599H68.6096Z" fill="#156678"></path>
<path id="Vector_12" d="M80.0996 54.0199L79.3396 53.2599C79.7446 52.8549 79.9996 52.2849 79.9996 51.6499C79.9996 51.5099 79.8896 51.3999 79.7496 51.3999C79.6096 51.3999 79.4996 51.5099 79.4996 51.6499C79.4996 52.5899 78.7996 53.3549 77.9396 53.3549C77.0796 53.3549 76.3796 52.5899 76.3796 51.6499C76.3796 51.5099 76.2696 51.3999 76.1296 51.3999C75.9896 51.3999 75.8796 51.5099 75.8796 51.6499C75.8796 52.2849 76.1346 52.8549 76.5396 53.2599L75.7796 54.0199C75.6796 54.1199 75.6796 54.2749 75.7796 54.3749C75.8296 54.4249 75.8946 54.4499 75.9546 54.4499C76.0146 54.4499 76.0846 54.4249 76.1296 54.3749L76.9346 53.5699C77.1646 53.7049 77.4146 53.7949 77.6846 53.8349V54.8899C77.6846 55.0299 77.7946 55.1399 77.9346 55.1399C78.0746 55.1399 78.1846 55.0299 78.1846 54.8899V53.8349C78.4546 53.7999 78.7096 53.7099 78.9346 53.5699L79.7396 54.3749C79.7896 54.4249 79.8546 54.4499 79.9146 54.4499C79.9746 54.4499 80.0446 54.4249 80.0896 54.3749C80.1896 54.2749 80.1896 54.1199 80.0896 54.0199H80.0996Z" fill="#156678"></path>
</g>
<path id="Vector_13" d="M63.5748 48.8749C63.4748 48.8749 63.3848 48.8149 63.3448 48.7199C63.2948 48.5899 63.3548 48.4449 63.4798 48.3949C65.6548 47.5099 67.6248 47.1699 70.1698 48.3999C70.2948 48.4599 70.3448 48.6099 70.2848 48.7349C70.2248 48.8599 70.0748 48.9099 69.9498 48.8499C67.5648 47.6999 65.7098 48.0199 63.6648 48.8549C63.6348 48.8699 63.6048 48.8749 63.5698 48.8749H63.5748Z" fill="#156678"></path>
<path id="Vector_14" d="M81.8697 48.8749C81.8397 48.8749 81.8047 48.8699 81.7747 48.8549C79.7247 48.0199 77.8747 47.6999 75.4897 48.8499C75.3647 48.9099 75.2147 48.8599 75.1547 48.7349C75.0947 48.6099 75.1447 48.4599 75.2697 48.3999C77.8197 47.1699 79.7897 47.5099 81.9597 48.3949C82.0897 48.4449 82.1497 48.5949 82.0947 48.7199C82.0547 48.8149 81.9597 48.8749 81.8647 48.8749H81.8697Z" fill="#156678"></path>
</g>
<path id="Vector_15" d="M96.8199 63.9598C96.5549 63.4348 96.2549 62.8748 95.9399 62.2798C93.9899 58.6198 91.3249 53.6048 90.7849 47.0698C89.9649 37.1048 84.7749 32.1048 80.1899 30.7498C77.2049 29.8648 74.3949 30.4998 72.7499 32.3948C71.1099 30.4998 68.2949 29.8698 65.3099 30.7498C60.7249 32.1048 55.5349 37.1048 54.7149 47.0698C54.1749 53.6048 51.5049 58.6198 49.5599 62.2798C49.2449 62.8748 48.9449 63.4348 48.6799 63.9548C48.4949 64.3198 48.5349 64.7448 48.7799 65.0698C49.0299 65.3948 49.4349 65.5498 49.8349 65.4698L53.9449 64.6398C54.1099 64.6048 54.2799 64.6498 54.4099 64.7548C54.5399 64.8598 54.6149 65.0198 54.6149 65.1848L54.6499 70.5498C54.6499 70.9198 54.8399 71.2548 55.1549 71.4448C55.4699 71.6398 55.8549 71.6548 56.1849 71.4848L60.4749 69.3198C60.6349 69.2398 60.8199 69.2398 60.9799 69.3198C61.1399 69.3998 61.2499 69.5498 61.2799 69.7298L61.9799 74.0498C62.0349 74.3948 62.2549 74.6898 62.5749 74.8398C62.7199 74.9098 62.8749 74.9398 63.0299 74.9398C63.2149 74.9398 63.3999 74.8898 63.5599 74.7948L66.3299 73.1848C66.0899 74.5348 65.6999 75.5948 65.3599 76.3998C64.5949 78.2048 63.2399 79.6448 62.0549 79.9148L47.2849 82.5248C43.2449 83.3998 40.3149 87.0348 40.3149 91.1798L41.2299 117.32C41.2299 117.455 41.3449 117.56 41.4799 117.56H78.0699C78.2099 117.56 78.3199 117.45 78.3199 117.31C78.3199 117.17 78.2099 117.06 78.0699 117.06H51.7849L50.7049 97.3448C50.6999 97.2048 50.5949 97.0948 50.4399 97.1098C50.2999 97.1148 50.1949 97.2348 50.2049 97.3748L51.2849 117.06H41.7199L40.8149 91.1698C40.8149 87.2698 43.5799 83.8398 47.3799 83.0148L60.0849 80.7698C60.0949 89.8048 72.1349 100.2 72.6499 100.64C72.6599 100.65 72.6749 100.655 72.6899 100.665C72.6999 100.67 72.7049 100.675 72.7149 100.68C72.7449 100.695 72.7799 100.7 72.8099 100.7C72.8599 100.7 72.9049 100.68 72.9449 100.655C72.9499 100.655 72.9599 100.655 72.9649 100.65C72.9849 100.635 74.8499 99.1498 77.2149 96.6348C77.3099 96.5348 77.3049 96.3748 77.2049 96.2798C77.1049 96.1848 76.9449 96.1898 76.8499 96.2898C74.8999 98.3598 73.3049 99.7198 72.8149 100.125C71.3749 98.8548 60.5149 88.9648 60.5749 80.6848L61.9099 80.4498C62.0399 87.9048 72.2099 96.4148 72.6499 96.7748C72.7399 96.8498 72.8699 96.8498 72.9599 96.7748C72.9799 96.7598 74.9399 95.2298 77.1499 92.8848C77.2449 92.7848 77.2399 92.6248 77.1399 92.5298C77.0399 92.4348 76.8799 92.4398 76.7849 92.5398C74.9649 94.4748 73.3199 95.8398 72.8149 96.2498C71.5099 95.1298 62.4399 87.0948 62.4149 80.3248C63.8699 79.8448 65.1549 78.1398 65.8149 76.5898C66.4499 75.0948 67.2399 72.7548 67.0299 69.3348C68.9549 71.4898 71.0049 72.6648 72.6349 72.6648H72.6549C74.1499 72.6548 76.3899 71.4048 78.5499 69.1198C78.2899 72.6548 79.0999 75.0648 79.7449 76.5898C80.4149 78.1648 81.7249 79.8898 83.2049 80.3448C83.1949 80.7548 83.1649 81.1598 83.0999 81.5948C83.0799 81.7298 83.1749 81.8598 83.3099 81.8798C83.3249 81.8798 83.3349 81.8798 83.3499 81.8798C83.4699 81.8798 83.5799 81.7898 83.5949 81.6648C83.6599 81.2498 83.6949 80.8598 83.7049 80.4648L85.0449 80.6398C85.0449 80.8698 85.0399 80.9698 85.0199 81.2248C85.0099 81.3648 85.1149 81.4848 85.2499 81.4948C85.2549 81.4948 85.2649 81.4948 85.2699 81.4948C85.3999 81.4948 85.5099 81.3948 85.5199 81.2648C85.5399 81.0148 85.5449 80.9098 85.5449 80.7098L87.6099 81.0748C87.6099 81.0748 87.6399 81.0748 87.6549 81.0748C87.7749 81.0748 87.8799 80.9898 87.8999 80.8698C87.9249 80.7348 87.8349 80.6048 87.6949 80.5798L85.5099 80.1948C85.5099 80.1948 85.5099 80.1948 85.5049 80.1948C85.5049 80.1948 85.5049 80.1948 85.4999 80.1948L83.8199 79.9798L83.5199 79.9098C82.3349 79.6448 80.9749 78.1998 80.2049 76.3948C79.8649 75.5998 79.4849 74.5548 79.2399 73.2248L81.9299 74.7898C82.0949 74.8848 82.2799 74.9348 82.4599 74.9348C82.6149 74.9348 82.7699 74.8998 82.9149 74.8348C83.2299 74.6848 83.4499 74.3898 83.5099 74.0448L84.2099 69.7248C84.2399 69.5448 84.3499 69.3998 84.5099 69.3148C84.6699 69.2348 84.8549 69.2348 85.0149 69.3148L89.3049 71.4798C89.6349 71.6448 90.0199 71.6298 90.3349 71.4398C90.6499 71.2498 90.8399 70.9098 90.8399 70.5448L90.8749 65.1798C90.8749 65.0098 90.9499 64.8548 91.0799 64.7498C91.2099 64.6448 91.3799 64.5998 91.5449 64.6348L95.6549 65.4648C96.0599 65.5448 96.4599 65.3948 96.7099 65.0648C96.9549 64.7398 96.9949 64.3148 96.8099 63.9498L96.8199 63.9598ZM72.6549 72.1798H72.6399C69.1299 72.1798 63.1999 65.8698 61.8749 55.9398C61.8549 55.8048 61.7249 55.7048 61.5949 55.7248C61.4599 55.7448 61.3599 55.8698 61.3799 56.0048C61.4799 56.7448 61.6099 57.4548 61.7549 58.1548C61.5499 58.0248 61.3149 57.9448 61.0549 57.9448C60.8949 57.9448 60.7449 57.9798 60.6049 58.0298C59.3699 56.7598 58.6899 53.9698 58.4749 52.9198C58.1799 51.4948 58.4799 50.6848 58.7849 50.2598C59.0599 49.8748 59.4599 49.6248 59.9199 49.5648C60.1499 49.5348 60.3549 49.5948 60.5299 49.7448C60.8999 50.0698 61.1049 50.7548 61.1049 51.6798C61.1049 51.6798 61.1049 51.6798 61.1049 51.6848C61.1049 51.8198 61.1999 51.9298 61.3549 51.9298C61.4199 51.9298 61.4799 51.9048 61.5249 51.8598C61.5249 51.8598 61.5299 51.8598 61.5299 51.8548C61.5449 51.8398 61.5599 51.8148 61.5699 51.7948C61.5699 51.7898 61.5799 51.7798 61.5849 51.7748C61.5949 51.7548 61.5949 51.7348 61.5949 51.7148C61.5949 51.6998 61.6049 51.6898 61.6049 51.6748C61.6149 49.2448 61.9149 46.9648 62.4999 44.8948C62.7349 44.9198 62.9799 44.9298 63.2299 44.9298C64.7999 44.9298 66.5699 44.4648 68.1449 43.4098C70.5949 41.7598 72.1799 39.8748 72.7599 37.9748C73.3399 39.8748 74.9249 41.7598 77.3749 43.4098C78.8299 44.3898 80.6149 44.9398 82.3199 44.9398C82.3999 44.9398 82.4849 44.9398 82.5649 44.9398C82.8749 44.9298 83.1749 44.8948 83.4599 44.8498C83.8699 46.1348 84.1699 47.5098 84.3449 48.9348C84.4699 49.9398 84.5249 50.8298 84.5299 51.8198C84.5299 51.9598 84.6449 52.0698 84.7799 52.0698C84.9199 52.0698 85.0299 51.9548 85.0299 51.8198C85.0299 51.7748 85.0299 51.7298 85.0299 51.6848C85.0299 50.7598 85.2349 50.0698 85.6049 49.7498C85.7799 49.5998 85.9849 49.5348 86.2149 49.5648C86.6699 49.6248 87.0749 49.8748 87.3499 50.2598C87.6549 50.6848 87.9549 51.4948 87.6599 52.9198C87.4399 53.9798 86.7449 56.8248 85.4799 58.0748C85.3099 57.9948 85.1199 57.9448 84.9199 57.9448C84.7049 57.9448 84.5099 57.9998 84.3299 58.0898C84.4899 57.4148 84.6349 56.7198 84.7449 56.0048C84.7649 55.8698 84.6699 55.7398 84.5349 55.7198C84.3999 55.6998 84.2699 55.7948 84.2499 55.9298C82.7599 65.8148 75.8049 72.1548 72.6649 72.1748L72.6549 72.1798ZM61.9199 59.3848C61.9199 59.8998 61.5299 60.3198 61.0549 60.3198C60.5799 60.3198 60.1899 59.8998 60.1899 59.3848C60.1899 58.8698 60.5799 58.4498 61.0549 58.4498C61.5299 58.4498 61.9199 58.8698 61.9199 59.3848ZM85.7749 59.3848C85.7749 59.8998 85.3849 60.3198 84.9099 60.3198C84.4349 60.3198 84.0449 59.8998 84.0449 59.3848C84.0449 58.8698 84.4349 58.4498 84.9099 58.4498C85.3849 58.4498 85.7749 58.8698 85.7749 59.3848ZM96.3199 64.7698C96.1849 64.9448 95.9799 65.0248 95.7599 64.9798L91.6499 64.1498C91.3399 64.0898 91.0199 64.1648 90.7699 64.3648C90.5249 64.5648 90.3799 64.8598 90.3799 65.1798L90.3449 70.5448C90.3449 70.7398 90.2449 70.9148 90.0749 71.0198C89.9099 71.1198 89.7049 71.1298 89.5299 71.0398L85.2399 68.8748C84.9349 68.7198 84.5849 68.7198 84.2799 68.8748C83.9749 69.0298 83.7699 69.3148 83.7149 69.6498L83.0149 73.9698C82.9849 74.1548 82.8699 74.3048 82.6999 74.3848C82.5299 74.4648 82.3399 74.4548 82.1799 74.3648L79.1349 72.5998C78.9799 71.4648 78.9299 70.1498 79.0849 68.6248C79.0849 68.5948 79.0849 68.5648 79.0749 68.5398C80.9099 66.4398 82.6199 63.5848 83.7349 60.1248C83.9749 60.5398 84.4049 60.8198 84.8999 60.8198C85.6499 60.8198 86.2649 60.1748 86.2649 59.3848C86.2649 58.9998 86.1199 58.6498 85.8799 58.3898C87.0949 57.1448 87.7799 54.7048 88.1299 53.0248C88.4599 51.4248 88.0999 50.4798 87.7399 49.9748C87.3849 49.4748 86.8599 49.1548 86.2649 49.0748C85.8899 49.0248 85.5399 49.1298 85.2549 49.3748C85.1249 49.4898 85.0149 49.6298 84.9149 49.7948C84.8899 49.4948 84.8599 49.1948 84.8199 48.8798C84.6449 47.4448 84.3449 46.0598 83.9299 44.7598C84.9999 44.5048 85.8549 43.9948 86.3249 43.2948C86.3999 43.1798 86.3699 43.0248 86.2549 42.9498C86.1399 42.8748 85.9849 42.9048 85.9099 43.0198C85.3399 43.8648 84.0749 44.3998 82.5249 44.4498C80.8349 44.4998 79.0649 43.9798 77.6299 43.0098C74.6349 40.9948 72.9849 38.6398 72.9849 36.3898C72.9849 36.2498 72.8749 36.1398 72.7349 36.1398C72.5949 36.1398 72.4849 36.2498 72.4849 36.3898C72.4849 38.6398 70.8349 40.9948 67.8399 43.0098C64.6799 45.1348 60.7299 44.7548 59.5599 43.0198C59.4799 42.9048 59.3249 42.8748 59.2149 42.9498C59.0999 43.0248 59.0699 43.1798 59.1449 43.2948C59.6749 44.0848 60.7099 44.6248 61.9799 44.8398C61.5549 46.3748 61.2799 48.0248 61.1549 49.7548C61.0649 49.6048 60.9549 49.4748 60.8349 49.3698C60.5499 49.1198 60.2049 49.0198 59.8299 49.0698C59.2349 49.1498 58.7099 49.4698 58.3549 49.9698C57.9949 50.4798 57.6349 51.4198 57.9649 53.0198C58.3049 54.6648 58.9699 57.0398 60.1399 58.3048C59.8549 58.5698 59.6699 58.9498 59.6699 59.3798C59.6699 60.1698 60.2799 60.8148 61.0349 60.8148C61.5399 60.8148 61.9749 60.5198 62.2099 60.0948C63.2049 63.6548 64.7499 66.5798 66.4599 68.6948C66.6049 70.1698 66.5599 71.4498 66.4099 72.5548C66.4049 72.5548 66.3949 72.5548 66.3899 72.5598L63.2899 74.3598C63.1299 74.4548 62.9399 74.4598 62.7699 74.3798C62.5999 74.2998 62.4849 74.1498 62.4549 73.9648L61.7549 69.6448C61.6999 69.3098 61.4949 69.0248 61.1899 68.8698C60.8849 68.7148 60.5349 68.7148 60.2299 68.8698L55.9399 71.0348C55.7649 71.1248 55.5599 71.1148 55.3949 71.0148C55.2299 70.9148 55.1299 70.7348 55.1249 70.5398L55.0899 65.1748C55.0899 64.8548 54.9449 64.5598 54.6999 64.3598C54.4549 64.1598 54.1349 64.0798 53.8249 64.1448L49.7149 64.9748C49.4999 65.0198 49.2899 64.9398 49.1549 64.7648C49.0249 64.5898 49.0049 64.3748 49.0999 64.1798C49.3649 63.6598 49.6599 63.1048 49.9749 62.5098C51.9449 58.8098 54.6399 53.7398 55.1899 47.1048C55.9899 37.3948 61.0049 32.5348 65.4299 31.2248C68.3099 30.3698 71.0149 31.0148 72.5049 32.8998C72.5199 32.9298 72.5449 32.9598 72.5699 32.9798C72.5799 32.9898 72.5949 32.9898 72.6049 32.9998C72.6049 32.9998 72.6049 32.9998 72.6099 32.9998C72.6349 33.0098 72.6599 33.0198 72.6849 33.0248C72.6949 33.0248 72.7099 33.0248 72.7199 33.0248C72.7349 33.0248 72.7499 33.0248 72.7649 33.0248C72.7899 33.0248 72.8099 33.0148 72.8349 32.9998C72.8349 32.9998 72.8399 32.9998 72.8449 32.9948C72.8549 32.9898 72.8699 32.9848 72.8799 32.9798C72.9099 32.9598 72.9299 32.9298 72.9449 32.8998C74.4299 31.0148 77.1299 30.3698 80.0149 31.2248C84.4399 32.5348 89.4549 37.3898 90.2549 47.1048C90.7999 53.7398 93.4999 58.8098 95.4649 62.5098C95.7799 63.1048 96.0749 63.6598 96.3399 64.1798C96.4399 64.3748 96.4199 64.5898 96.2849 64.7648L96.3199 64.7698Z" fill="#156678"></path>
</g>
<g id="Group_4">
<path id="Vector_16" d="M163.965 36.1598H157.92V30.1148C157.92 28.8398 156.89 27.8098 155.615 27.8098H154.82C153.545 27.8098 152.515 28.8398 152.515 30.1148V36.1598H146.47C145.195 36.1598 144.165 37.1898 144.165 38.4648V39.2598C144.165 40.5348 145.195 41.5648 146.47 41.5648H152.515V47.6098C152.515 48.8848 153.545 49.9148 154.82 49.9148H155.615C156.89 49.9148 157.92 48.8848 157.92 47.6098V41.5648H163.965C165.24 41.5648 166.27 40.5348 166.27 39.2598V38.4648C166.27 37.1898 165.24 36.1598 163.965 36.1598Z" fill="white"></path>
<path id="Vector_17" d="M155.615 50.1648H154.82C153.41 50.1648 152.265 49.0198 152.265 47.6098V41.8148H146.47C145.06 41.8148 143.915 40.6698 143.915 39.2598V38.4648C143.915 37.0548 145.06 35.9098 146.47 35.9098H152.265V30.1148C152.265 28.7048 153.41 27.5598 154.82 27.5598H155.615C157.025 27.5598 158.17 28.7048 158.17 30.1148V35.9098H163.965C165.375 35.9098 166.52 37.0548 166.52 38.4648V39.2598C166.52 40.6698 165.375 41.8148 163.965 41.8148H158.17V47.6098C158.17 49.0198 157.025 50.1648 155.615 50.1648ZM146.475 36.4098C145.34 36.4098 144.42 37.3298 144.42 38.4648V39.2598C144.42 40.3948 145.34 41.3148 146.475 41.3148H152.52C152.66 41.3148 152.77 41.4248 152.77 41.5648V47.6098C152.77 48.7448 153.69 49.6648 154.825 49.6648H155.62C156.755 49.6648 157.675 48.7448 157.675 47.6098V41.5648C157.675 41.4248 157.785 41.3148 157.925 41.3148H163.97C165.105 41.3148 166.025 40.3948 166.025 39.2598V38.4648C166.025 37.3298 165.105 36.4098 163.97 36.4098H157.925C157.785 36.4098 157.675 36.2998 157.675 36.1598V30.1148C157.675 28.9798 156.755 28.0598 155.62 28.0598H154.825C153.69 28.0598 152.77 28.9798 152.77 30.1148V36.1598C152.77 36.2998 152.66 36.4098 152.52 36.4098H146.475Z" fill="#07064E"></path>
</g>
<g id="Group_5">
<path id="Vector_18" d="M135.38 81.2049L122.06 78.7449C121.715 79.2249 121.365 79.6699 121.015 80.0949C121.245 79.6899 121.47 79.2699 121.695 78.8399C117.625 77.8949 116.555 73.2949 117.28 65.9849C112.03 70.9399 107.66 70.7299 103.735 66.2699C103.835 74.3949 102.18 77.7349 99.43 78.8349L86.215 81.1949C80.365 81.3799 76.43 85.8899 77.19 91.6849L78.085 117.33L143.29 117.37L144.17 90.1349C144.28 85.2199 140.31 81.1799 135.395 81.2099L135.38 81.2049Z" fill="white"></path>
<path id="Vector_19" d="M123.835 79.3498C123.42 81.1748 122.03 82.8348 121.605 83.3748C116.07 90.3898 104.47 90.3949 99.0802 83.2849C98.6952 82.7799 97.1402 80.4049 96.9102 79.2299L99.1102 78.8398C106.13 89.4748 116.825 86.4948 121.55 79.1248L123.84 79.3498H123.835Z" fill="#2BF5BA"></path>
<path id="Vector_20" d="M124.26 47.2249C123.475 47.1199 122.705 47.4999 122.585 48.9149C122.285 38.3299 121.45 36.0799 121.45 36.0799C121.115 35.5949 121.26 35.9699 118.37 35.3599L115.365 34.1449C113.5 39.9549 109.205 35.2099 109.205 35.2099C107.595 36.8949 106.42 35.0749 106.42 35.0749C104.98 37.4449 100.945 34.4449 100.945 34.4449C100.945 34.4449 103.54 29.7249 100.875 34.5449C98.2149 39.3699 98.1899 44.2899 98.1899 44.2899C98.1899 44.2899 98.2649 46.2099 98.3249 48.3949C98.0799 47.4099 97.4099 47.1349 96.7349 47.2299C95.5849 47.3849 94.0799 48.3899 95.1899 50.6449C96.6449 53.5899 95.9399 56.8649 98.7649 56.7149L98.7449 56.2899C100.385 64.7349 107.665 70.9749 110.51 70.7699C113.58 70.5499 120.62 64.1849 122.285 55.5249L122.23 56.7149C125.055 56.8599 124.35 53.5899 125.805 50.6449C126.915 48.3899 125.41 47.3899 124.26 47.2299V47.2249Z" fill="white"></path>
<path id="Vector_21" d="M128.22 36.375C128.53 36.625 128.835 36.875 129.145 37.13C128.88 36.83 128.57 36.575 128.22 36.375Z" fill="#EDEDED"></path>
<path id="Vector_22" d="M130.04 39.715C130.04 37.64 128.44 35.95 126.445 35.8899C127.135 35.4 127.57 34.5849 127.53 33.6749C127.47 32.2499 126.26 31.14 124.835 31.2C124.765 31.2 124.705 31.2199 124.635 31.2299C124.835 30.7549 124.945 30.24 124.945 29.695C124.945 27.5 123.165 25.7199 120.97 25.7199C119.93 25.7199 118.985 26.125 118.275 26.78C118.3 26.615 118.31 26.445 118.305 26.275C118.245 24.85 117.035 23.7399 115.61 23.7999C114.87 23.8299 114.225 24.175 113.775 24.69C113.41 23.47 112.295 22.575 110.955 22.575C110.02 22.575 109.195 23.02 108.655 23.695C107.465 22.965 105.91 23.3049 105.14 24.4799C105.085 24.5649 105.05 24.65 105.005 24.74C104.31 24.15 103.415 23.795 102.435 23.795C100.24 23.795 98.4601 25.575 98.4601 27.77C98.4601 28.03 98.4851 28.28 98.5351 28.525C98.3851 28.4999 98.2401 28.4799 98.0851 28.4799C96.4551 28.4799 95.1301 29.8049 95.1301 31.4349C95.1301 31.8949 95.2451 32.33 95.4351 32.715C94.2151 32.925 93.2851 33.9799 93.2851 35.2599C93.2851 35.7599 93.4351 36.22 93.6751 36.615C92.1401 37.045 91.0151 38.4499 91.0151 40.1199C91.0151 41.4849 91.7651 42.6749 92.8801 43.2999C92.4451 43.8149 92.1751 44.4699 92.1751 45.195C92.1751 46.8249 93.5001 48.15 95.1301 48.15C95.8851 47 97.9951 47.1399 98.3551 48.09C98.3551 46.3549 98.2451 45.12 98.2401 44.2C98.4101 44.225 98.5851 44.24 98.7651 44.24C100.825 44.24 102.505 42.5899 102.55 40.5449C102.955 40.3899 103.32 40.145 103.62 39.83C104.825 40.045 106.07 39.5999 106.875 38.7449C107.45 39.0599 108.14 39.1899 108.8 39.1049C109.455 40.27 110.7 41.0449 112.095 41.0449C113.49 41.0449 114.825 40.2099 115.455 38.9749C115.59 38.9749 115.725 38.96 115.86 38.935C116.545 39.955 117.7 40.595 118.995 40.595C119.035 40.595 119.07 40.5949 119.105 40.59C120.805 49.735 121.42 59.195 114.89 67.0299C113.755 68.4499 111.79 69.46 109.935 70.72C107.345 70.3899 104.79 67.9249 103.73 66.2699C103.705 66.5299 103.895 67.98 103.895 68.245C103.895 72.47 106.845 75.8899 110.485 75.8899C114.125 75.8899 117.075 72.465 117.075 68.245C117.075 67.715 117.15 66.83 117.275 65.985C117.08 66.165 116.9 66.345 116.72 66.525C119.86 63.015 122.75 57.6199 122.64 51.465C122.625 50.5 122.6 49.595 122.575 48.74C123.005 46.845 124.38 47.065 126.14 48.145C127.77 48.145 129.095 46.8199 129.095 45.1899C129.095 44.3399 128.73 43.58 128.155 43.04C129.275 42.38 130.035 41.1399 130.035 39.7099L130.04 39.715ZM110.005 70.735C110.005 70.735 109.98 70.735 109.965 70.735C109.98 70.735 109.99 70.735 110.005 70.735ZM110.51 70.7649C111.81 70.6699 113.82 69.475 115.835 67.47C114.215 69.245 112.99 70.7649 110.51 70.7649Z" fill="#EDEDED"></path>
<path id="Vector_23" d="M130.12 39.715C130.12 37.64 128.52 35.95 126.525 35.8899C127.215 35.4 127.65 34.5849 127.61 33.6749C127.55 32.2499 126.34 31.14 124.915 31.2C124.845 31.2 124.785 31.2199 124.715 31.2299C124.915 30.7549 125.025 30.24 125.025 29.695C125.025 27.5 123.245 25.7199 121.05 25.7199C120.01 25.7199 119.065 26.125 118.355 26.78C118.38 26.615 118.39 26.445 118.385 26.275C118.325 24.85 117.115 23.7399 115.69 23.7999C114.95 23.8299 114.305 24.175 113.855 24.69C113.49 23.47 112.375 22.575 111.035 22.575C110.1 22.575 109.275 23.02 108.735 23.695C107.545 22.965 105.99 23.3049 105.22 24.4799C105.165 24.5649 105.13 24.65 105.085 24.74C104.39 24.15 103.495 23.795 102.515 23.795C100.32 23.795 98.5402 25.575 98.5402 27.77C98.5402 28.03 98.5652 28.28 98.6152 28.525C98.4652 28.4999 98.3202 28.4799 98.1652 28.4799C96.5352 28.4799 95.2102 29.8049 95.2102 31.4349C95.2102 31.8949 95.3252 32.33 95.5152 32.715C94.2952 32.925 93.3652 33.9799 93.3652 35.2599C93.3652 35.7599 93.5152 36.22 93.7552 36.615C92.2202 37.045 91.0952 38.4499 91.0952 40.1199C91.0952 41.4849 91.8452 42.6749 92.9602 43.2999C96.1402 21.7249 127.905 18 126.485 48.125C127.995 47.99 129.18 46.74 129.18 45.195C129.18 44.3449 128.815 43.5849 128.24 43.0449C129.36 42.3849 130.12 41.145 130.12 39.715Z" fill="white"></path>
<path id="Vector_24" d="M143.14 117.255L77.8402 117.32L77.1802 100.47H143.46L143.14 117.255Z" fill="#2BF5BA"></path>
<g id="Group_6">
<path id="Vector_25" d="M106.67 61.8101C106.57 61.9051 106.565 62.0651 106.66 62.1651C107.7 63.2751 108.945 63.8601 110.25 63.8651C111.555 63.8651 112.795 63.2801 113.845 62.1701C113.94 62.0701 113.935 61.9101 113.835 61.8151C113.735 61.7201 113.575 61.7251 113.48 61.8251C112.53 62.8351 111.41 63.3651 110.25 63.3651C109.085 63.3651 107.97 62.8301 107.025 61.8251C106.93 61.7251 106.77 61.7201 106.67 61.8151V61.8101Z" fill="#07064E"></path>
<path id="Vector_26" d="M111.775 66.02L108.74 66.03C108.6 66.03 108.49 66.145 108.49 66.28C108.49 66.415 108.6 66.53 108.74 66.53L111.775 66.52C111.915 66.52 112.025 66.405 112.025 66.27C112.025 66.135 111.915 66.02 111.775 66.02Z" fill="#07064E"></path>
<path id="Vector_27" d="M106.925 49.2C106.925 49.06 106.815 48.95 106.675 48.95C106.535 48.95 106.425 49.06 106.425 49.2C106.425 50.18 105.695 50.9799 104.795 50.9799C103.895 50.9799 103.17 50.18 103.17 49.2C103.17 49.06 103.06 48.95 102.92 48.95C102.78 48.95 102.67 49.06 102.67 49.2C102.67 50.455 103.625 51.4799 104.795 51.4799C105.965 51.4799 106.925 50.46 106.925 49.2Z" fill="#07064E"></path>
<path id="Vector_28" d="M117.795 48.95C117.655 48.95 117.545 49.06 117.545 49.2C117.545 50.18 116.815 50.9799 115.915 50.9799C115.015 50.9799 114.29 50.18 114.29 49.2C114.29 49.06 114.18 48.95 114.04 48.95C113.9 48.95 113.79 49.06 113.79 49.2C113.79 50.455 114.745 51.4799 115.915 51.4799C117.085 51.4799 118.045 50.46 118.045 49.2C118.045 49.06 117.935 48.95 117.795 48.95Z" fill="#07064E"></path>
<path id="Vector_29" d="M109.06 57.2499C109.36 57.4999 109.79 57.6249 110.22 57.6249C110.57 57.6249 110.91 57.5399 111.175 57.3649C111.29 57.2899 111.32 57.1349 111.245 57.0199C111.165 56.9049 111.01 56.8749 110.9 56.9499C110.545 57.1849 109.79 57.1999 109.385 56.8649C109.1 56.6299 109.06 56.2749 109.245 55.8349C110.135 54.3149 110.745 52.6599 111.05 50.9249L111.285 49.5749C111.31 49.4399 111.22 49.3099 111.08 49.2849C110.945 49.2599 110.815 49.3499 110.79 49.4899L110.555 50.8399C110.26 52.5199 109.675 54.1149 108.795 55.6149C108.405 56.5299 108.795 57.0349 109.06 57.2549V57.2499Z" fill="#07064E"></path>
<path id="Vector_30" d="M106.795 45.415C107.15 45.45 107.52 45.49 107.9 45.525C108.035 45.535 108.16 45.435 108.17 45.3C108.18 45.165 108.08 45.04 107.945 45.03C107.57 44.995 107.205 44.955 106.85 44.92C103.85 44.61 101.48 44.365 100.335 46.63C100.275 46.755 100.32 46.905 100.445 46.965C100.48 46.985 100.52 46.99 100.56 46.99C100.65 46.99 100.74 46.94 100.785 46.855C101.775 44.895 103.885 45.115 106.8 45.415H106.795Z" fill="#07064E"></path>
<path id="Vector_31" d="M113.06 45.525C113.435 45.49 113.805 45.45 114.165 45.415C117.085 45.11 119.19 44.895 120.18 46.855C120.225 46.94 120.31 46.99 120.405 46.99C120.445 46.99 120.48 46.98 120.52 46.965C120.645 46.905 120.695 46.75 120.63 46.63C119.485 44.365 117.115 44.61 114.115 44.92C113.76 44.955 113.395 44.995 113.02 45.03C112.88 45.045 112.78 45.165 112.795 45.3C112.81 45.435 112.93 45.535 113.065 45.525H113.06Z" fill="#07064E"></path>
<path id="Vector_32" d="M137.055 81.2799L121.895 78.5999C121.895 78.5999 121.885 78.6 121.885 78.595C120.625 78.315 119.1 76.74 118.33 74.93C117.73 73.51 117.27 70.1199 117.69 66.0149C117.695 65.9549 117.71 65.8249 117.715 65.6999C119.56 63.3499 121.225 60.34 122.145 56.945C122.17 56.9549 122.19 56.9599 122.215 56.965C122.28 56.965 122.35 56.97 122.41 56.97C124.31 56.97 124.67 55.4399 125.085 53.6699C125.3 52.7599 125.54 51.7299 126.025 50.75C126.56 49.665 126.49 48.8899 126.29 48.3899C128.01 48.295 129.43 46.875 129.43 45.195C129.43 44.41 129.15 43.6749 128.63 43.09C129.71 42.335 130.37 41.07 130.37 39.715C130.37 37.7 128.98 36.04 127.115 35.7C127.62 35.15 127.895 34.425 127.86 33.665C127.825 32.91 127.5 32.21 126.945 31.695C126.43 31.2249 125.78 30.96 125.085 30.95C125.21 30.545 125.275 30.1249 125.275 29.695C125.275 27.365 123.38 25.4699 121.05 25.4699C120.18 25.4699 119.34 25.74 118.63 26.235C118.59 25.49 118.265 24.8 117.715 24.295C117.155 23.785 116.43 23.5199 115.675 23.5499C115.03 23.5799 114.43 23.82 113.95 24.235C113.445 23.08 112.315 22.325 111.035 22.325C110.135 22.325 109.29 22.7049 108.68 23.3799C107.395 22.7149 105.82 23.1149 105.015 24.3449C105.015 24.3449 105.01 24.355 105.005 24.36C104.285 23.835 103.415 23.5499 102.52 23.5499C100.19 23.5499 98.295 25.445 98.295 27.775C98.295 27.93 98.305 28.0849 98.32 28.24C98.27 28.24 98.22 28.235 98.17 28.235C96.405 28.235 94.965 29.675 94.965 31.44C94.965 31.815 95.035 32.1849 95.17 32.5449C93.965 32.8899 93.12 33.99 93.12 35.2649C93.12 35.6799 93.215 36.0949 93.4 36.4749C91.89 37.0349 90.855 38.495 90.855 40.125C90.855 41.4349 91.515 42.65 92.6 43.3699C92.215 43.9149 92.01 44.54 92.01 45.2C92.01 46.8 93.175 48.125 94.72 48.365C94.51 48.86 94.425 49.645 94.97 50.755C95.45 51.73 95.695 52.7649 95.91 53.6749C96.325 55.4399 96.685 56.97 98.585 56.97C98.645 56.97 98.71 56.97 98.775 56.97C99.66 60.47 101.38 63.5999 103.315 66.0149C103.315 66.0149 103.315 66.02 103.315 66.025C103.725 70.025 103.23 73.45 102.595 74.94C101.8 76.81 100.395 78.305 99.17 78.5849L83.86 81.29C79.68 82.195 76.645 85.96 76.645 90.25L77.595 117.34C77.595 117.475 77.71 117.58 77.845 117.58H143.09C143.225 117.58 143.335 117.475 143.34 117.34L144.29 90.2449C144.29 85.965 141.255 82.2049 137.065 81.2949L137.055 81.2799ZM98.66 52.935C98.655 52.795 98.55 52.6849 98.4 52.695C98.26 52.6999 98.155 52.82 98.165 52.955C98.225 54.155 98.395 55.325 98.65 56.4599C97.165 56.4949 96.845 55.4749 96.395 53.5499C96.175 52.615 95.925 51.55 95.42 50.525C95.005 49.685 94.945 48.9799 95.235 48.43C95.555 47.83 96.24 47.54 96.775 47.47C97.03 47.435 97.395 47.445 97.68 47.695C98.01 47.9799 98.18 48.535 98.18 49.2999C98.18 49.4399 98.29 49.5499 98.43 49.5499C98.57 49.5499 98.68 49.4399 98.68 49.2999C98.68 48.375 98.455 47.7099 98.005 47.32C97.665 47.025 97.22 46.9049 96.7 46.9749C96.14 47.0499 95.445 47.33 95 47.88C93.595 47.775 92.505 46.6149 92.505 45.1899C92.505 44.5549 92.73 43.955 93.15 43.455C93.2 43.4 93.22 43.325 93.205 43.25C93.19 43.1749 93.145 43.115 93.08 43.075C92.01 42.475 91.345 41.34 91.345 40.115C91.345 38.6 92.365 37.2599 93.82 36.8499C93.895 36.8299 93.955 36.775 93.985 36.7C94.015 36.625 94.005 36.5449 93.965 36.4799C93.735 36.1049 93.61 35.68 93.61 35.255C93.61 34.12 94.425 33.1499 95.55 32.9599C95.625 32.9449 95.695 32.9 95.73 32.83C95.765 32.76 95.765 32.6749 95.73 32.6049C95.545 32.2249 95.45 31.83 95.45 31.43C95.45 29.94 96.665 28.725 98.155 28.725C98.29 28.725 98.425 28.7449 98.565 28.7649C98.645 28.7799 98.73 28.75 98.785 28.69C98.84 28.63 98.865 28.5499 98.85 28.4699C98.805 28.2299 98.78 27.99 98.78 27.76C98.78 25.705 100.45 24.035 102.505 24.035C103.385 24.035 104.24 24.35 104.91 24.92C104.97 24.97 105.045 24.99 105.12 24.975C105.195 24.96 105.26 24.91 105.295 24.84L105.335 24.76C105.36 24.71 105.385 24.6549 105.415 24.6049C106.11 23.545 107.505 23.23 108.59 23.9C108.695 23.965 108.84 23.9399 108.915 23.8449C109.435 23.1899 110.205 22.815 111.02 22.815C112.215 22.815 113.25 23.59 113.6 24.75C113.625 24.835 113.7 24.9049 113.785 24.9249C113.875 24.9449 113.965 24.9149 114.025 24.8449C114.455 24.3549 115.04 24.07 115.685 24.04C116.31 24.01 116.905 24.23 117.365 24.655C117.825 25.075 118.095 25.655 118.12 26.275C118.125 26.425 118.12 26.5749 118.095 26.7299C118.08 26.8349 118.13 26.9399 118.225 26.99C118.315 27.04 118.435 27.025 118.51 26.955C119.2 26.315 120.1 25.9599 121.035 25.9599C123.09 25.9599 124.76 27.6299 124.76 29.6849C124.76 30.1849 124.665 30.67 124.47 31.125C124.435 31.205 124.445 31.3 124.5 31.37C124.555 31.44 124.64 31.4799 124.73 31.4699C124.76 31.4699 124.79 31.46 124.825 31.455C124.855 31.45 124.88 31.445 124.91 31.445C125.535 31.42 126.13 31.635 126.59 32.06C127.05 32.485 127.32 33.06 127.345 33.68C127.38 34.47 127.015 35.22 126.365 35.68C126.28 35.74 126.24 35.855 126.27 35.955C126.3 36.06 126.395 36.13 126.5 36.13C128.38 36.19 129.85 37.76 129.85 39.705C129.85 40.99 129.175 42.1849 128.095 42.82C128.025 42.86 127.98 42.9299 127.975 43.0099C127.97 43.0899 127.995 43.165 128.055 43.22C128.61 43.74 128.915 44.4399 128.915 45.1899C128.915 46.6549 127.625 47.895 126.095 47.895C126.06 47.895 126.03 47.9 126.005 47.915C125.56 47.34 124.845 47.0499 124.275 46.9749C123.76 46.9049 123.31 47.025 122.97 47.32C122.935 47.35 122.915 47.3899 122.88 47.4249C122.985 42.285 121.85 36.815 121.84 36.755C121.815 36.63 121.705 36.545 121.57 36.56C121.445 36.575 121.345 36.68 121.345 36.81C121.345 38.115 120.28 39.18 118.975 39.18C117.87 39.18 116.92 38.425 116.67 37.345C116.65 37.26 116.585 37.19 116.5 37.165C116.415 37.14 116.325 37.16 116.26 37.215C115.855 37.58 115.28 37.67 114.77 37.41C114.7 37.375 114.615 37.375 114.54 37.41C114.47 37.445 114.42 37.515 114.41 37.595C114.245 38.75 113.24 39.625 112.075 39.625C110.91 39.625 109.905 38.75 109.74 37.5849C109.73 37.4999 109.675 37.4249 109.595 37.3899C109.515 37.3549 109.425 37.36 109.355 37.41C109.065 37.6049 108.725 37.7099 108.375 37.7099C107.725 37.7099 107.13 37.3499 106.82 36.7649C106.77 36.6749 106.675 36.6199 106.57 36.6349C106.47 36.6449 106.385 36.7199 106.355 36.82C106.095 37.79 105.215 38.465 104.22 38.465C103.885 38.465 103.555 38.385 103.23 38.22C103.165 38.19 103.095 38.1849 103.025 38.2099C102.96 38.2349 102.905 38.29 102.88 38.3549C102.66 38.9399 102.115 39.3149 101.495 39.3149C101.405 39.3149 101.315 39.305 101.23 39.29C101.14 39.275 101.05 39.305 100.995 39.375C100.94 39.445 100.92 39.54 100.955 39.625C101.06 39.905 101.115 40.185 101.115 40.455C101.115 41.76 100.05 42.825 98.745 42.825C97.44 42.825 96.375 41.76 96.375 40.455C96.375 40.315 96.265 40.205 96.125 40.205C95.985 40.205 95.875 40.315 95.875 40.455C95.875 42.04 97.165 43.325 98.745 43.325C100.325 43.325 101.615 42.035 101.615 40.455C101.615 40.245 101.59 40.035 101.54 39.82C102.265 39.805 102.905 39.4099 103.245 38.7799C103.565 38.9049 103.89 38.97 104.22 38.97C105.27 38.97 106.215 38.3549 106.66 37.4249C107.085 37.9199 107.705 38.215 108.37 38.215C108.7 38.215 109.02 38.1449 109.315 38.0099C109.65 39.2399 110.78 40.13 112.075 40.13C113.37 40.13 114.52 39.225 114.845 37.9799C115.33 38.1349 115.86 38.065 116.29 37.81C116.7 38.93 117.76 39.68 118.975 39.68C120.12 39.68 121.11 39.0049 121.57 38.035C121.94 40.165 122.615 44.82 122.315 48.88C122.315 48.9 122.315 48.915 122.32 48.935C122.31 49.055 122.295 49.175 122.295 49.305C122.295 49.4349 122.405 49.555 122.545 49.555C122.685 49.555 122.795 49.445 122.795 49.305C122.795 48.545 122.97 47.99 123.295 47.7C123.58 47.45 123.945 47.4399 124.2 47.4749C124.735 47.5449 125.42 47.84 125.74 48.435C126.03 48.985 125.97 49.6899 125.555 50.5299C125.05 51.5549 124.8 52.62 124.58 53.555C124.12 55.51 123.81 56.5299 122.25 56.465C122.64 54.875 122.87 53.2 122.87 51.47C122.87 51.33 122.76 51.22 122.62 51.22C122.48 51.22 122.37 51.33 122.37 51.47C122.37 62.07 113.835 70.5149 110.485 70.5149C107.135 70.5149 99.125 63.09 98.635 52.935H98.66ZM103.05 75.125C103.67 73.6699 104.16 70.455 103.87 66.675C106.21 69.37 108.775 71.0149 110.51 71.0149C112.07 71.0149 114.71 69.2799 117.155 66.3899C116.8 70.3899 117.265 73.705 117.87 75.125C118.63 76.915 120.045 78.44 121.36 78.955C121.18 79.375 120.91 79.83 120.56 80.315C118.22 83.545 114.435 85.4649 110.415 85.4649C110.375 85.4649 110.335 85.4649 110.295 85.4649C106.23 85.4249 102.585 83.52 100.295 80.23C99.985 79.785 99.75 79.3699 99.58 78.985C101.065 78.465 102.375 76.725 103.05 75.135V75.125ZM99.085 79.095C99.27 79.535 99.54 80.0049 99.885 80.5049C102.265 83.9299 106.06 85.915 110.29 85.955C110.33 85.955 110.375 85.955 110.415 85.955C114.6 85.955 118.535 83.9599 120.965 80.5999C121.35 80.0649 121.645 79.56 121.845 79.095L123.375 79.3649L123.56 79.4C123.15 81.025 121.955 82.5349 121.495 83.1149L121.41 83.22C118.72 86.63 114.325 88.585 109.675 88.45C105.33 88.32 101.545 86.3849 99.285 83.1399L99.125 82.91C98.61 82.175 97.845 81.08 97.195 79.43L99.085 79.095ZM142.84 117.07H133.16L134.28 96.66C134.29 96.52 134.18 96.4049 134.045 96.3949C133.9 96.3799 133.79 96.4949 133.78 96.6299L132.66 117.07H88.47L87.35 96.6299C87.345 96.4899 87.245 96.3799 87.085 96.3949C86.945 96.3999 86.84 96.52 86.85 96.66L87.97 117.07H78.075L77.135 90.2299C77.135 86.185 80.005 82.6299 83.945 81.7699L96.69 79.5149C97.365 81.2749 98.17 82.4249 98.715 83.195L98.875 83.4199C101.23 86.795 105.16 88.81 109.66 88.94C109.82 88.94 109.98 88.9449 110.135 88.9449C114.77 88.9449 119.105 86.9399 121.8 83.5199L121.88 83.415C122.36 82.81 123.62 81.22 124.05 79.48L136.955 81.76C140.91 82.615 143.775 86.1749 143.775 90.2099L142.835 117.055L142.84 117.07Z" fill="#07064E"></path>
</g>
</g>
</g>
</g>
</g>
</g>
<defs>
<clipPath id="clip0_86_449">
<rect width="200" height="140" fill="white"></rect>
</clipPath>
</defs>
</svg>