<svg width="200" height="140" viewBox="0 0 200 140" fill="none" xmlns="http://www.w3.org/2000/svg">
<g id="illu_bg_login/Default" clip-path="url(#clip0_86_690)">
<g id="illu_bg_login">
<g id="Vector">
<path d="M15.4736 131.834C18.6151 129.543 19.9602 126.038 18.478 124.005C16.9958 121.973 13.2475 122.182 10.106 124.473C6.96446 126.764 5.61932 130.268 7.10153 132.301C8.58375 134.334 12.332 134.124 15.4736 131.834Z" fill="#2BF5BA"></path>
<path d="M192.92 104.876C194.744 103.935 195.733 102.226 195.131 101.057C194.528 99.8893 192.561 99.7049 190.738 100.646C188.915 101.586 187.925 103.296 188.528 104.464C189.13 105.632 191.097 105.817 192.92 104.876Z" fill="#2BF5BA"></path>
<path d="M175.78 11.17C217.575 27.565 191.99 109.51 163.89 125.795C145.415 136.505 97.2851 114.695 56.9851 123.115C25.5751 129.675 15.8651 128.52 27.2851 105.13C39.3901 80.345 -1.87492 56.595 2.53508 28.745C5.23008 11.7 13.0901 3.68004 46.0501 7.07004C129.855 15.69 143.51 -1.48996 175.78 11.17Z" fill="#2BF5BA"></path>
</g>
<g id="illu_bg_login_2">
<g id="stroke">
<path id="Vector_2" d="M18.8799 101.8C18.7399 101.8 18.6299 101.69 18.6299 101.55C18.6299 101.41 18.7399 101.3 18.8799 101.3L187.91 101.11C188.05 101.11 188.16 101.22 188.16 101.36C188.16 101.5 188.05 101.61 187.91 101.61L18.8799 101.8Z" fill="#07064E"></path>
<path id="Vector_3" d="M16.85 101.8H13.77C13.63 101.8 13.52 101.69 13.52 101.55C13.52 101.41 13.63 101.3 13.77 101.3H16.85C16.99 101.3 17.1 101.41 17.1 101.55C17.1 101.69 16.99 101.8 16.85 101.8Z" fill="#2BF5BA"></path>
<path id="Vector_4" d="M29.5603 55.05C37.9081 55.05 44.6753 48.1597 44.6753 39.66C44.6753 31.1604 37.9081 24.27 29.5603 24.27C21.2125 24.27 14.4453 31.1604 14.4453 39.66C14.4453 48.1597 21.2125 55.05 29.5603 55.05Z" fill="#2AEDB4"></path>
<path id="Vector_5" d="M29.5603 53.0354C37.9081 53.0354 44.6753 46.145 44.6753 37.6454C44.6753 29.1457 37.9081 22.2554 29.5603 22.2554C21.2125 22.2554 14.4453 29.1457 14.4453 37.6454C14.4453 46.145 21.2125 53.0354 29.5603 53.0354Z" fill="#2AEDB4"></path>
<path id="Vector_6" d="M39.8253 25.0649C41.2353 45.7599 30.1053 50.0849 23.5303 50.7449C25.5453 51.7549 27.8103 52.3249 30.2053 52.3249C38.5503 52.3249 45.3203 45.4349 45.3203 36.9349C45.3203 32.1549 43.1803 27.8899 39.8253 25.0649Z" fill="#2DEBC8"></path>
<g id="Group">
<path id="Vector_7" d="M30.2 21.2949C21.73 21.2949 14.835 28.3099 14.835 36.9349C14.835 45.5599 21.725 52.5749 30.2 52.5749C38.675 52.5749 45.565 45.5599 45.565 36.9349C45.565 28.3099 38.675 21.2949 30.2 21.2949ZM30.2 52.0799C22.005 52.0799 15.335 45.2899 15.335 36.9399C15.335 28.5899 22.005 21.7999 30.2 21.7999C38.395 21.7999 45.065 28.5899 45.065 36.9399C45.065 45.2899 38.395 52.0799 30.2 52.0799Z" fill="#07064E"></path>
<path id="Vector_8" d="M30.1351 24.4849C26.2051 24.4849 22.5901 26.2799 20.2101 29.4149C20.1251 29.5249 20.1501 29.6799 20.2601 29.7649C20.3701 29.8499 20.5251 29.8249 20.6101 29.7149C22.8951 26.7049 26.3651 24.9849 30.1351 24.9849C36.7251 24.9849 42.0901 30.3449 42.0901 36.9399C42.0901 43.5349 36.7301 48.8949 30.1351 48.8949C23.5401 48.8949 18.1801 43.5349 18.1801 36.9399C18.1801 35.3649 18.4801 33.8299 19.0801 32.3849C19.1351 32.2549 19.0701 32.1099 18.9451 32.0599C18.8151 32.0049 18.6701 32.0699 18.6201 32.1949C18.0001 33.6999 17.6851 35.2999 17.6851 36.9399C17.6851 43.8049 23.2701 49.3949 30.1401 49.3949C37.0101 49.3949 42.5951 43.8099 42.5951 36.9399C42.5951 30.0699 37.0101 24.4849 30.1401 24.4849H30.1351Z" fill="#07064E"></path>
<path id="Vector_9" d="M30.6198 38.2647C30.6198 38.2647 30.6698 38.2647 30.6898 38.2547C30.7948 38.2247 30.8698 38.1247 30.8698 38.0147V28.8247C30.8698 28.6847 30.7598 28.5747 30.6198 28.5747C30.4798 28.5747 30.3698 28.6847 30.3698 28.8247V37.1797L27.6148 32.9947C27.5398 32.8797 27.3848 32.8497 27.2698 32.9247C27.1548 32.9997 27.1248 33.1547 27.1998 33.2697L30.4148 38.1547C30.4598 38.2247 30.5398 38.2697 30.6248 38.2697L30.6198 38.2647Z" fill="#07064E"></path>
</g>
<g id="Group_2">
<path id="Vector_10" d="M151.525 65.145C149.49 65.225 148.22 66.495 147.535 67.645C146.63 69.16 146.65 72.24 146.81 73.47C146.885 74.06 147.155 79.375 147.07 80.115C147.47 79.62 150.295 78.36 151.795 78.025C154.72 77.375 156.135 76.89 157.67 75.51C159.48 73.88 161.39 70.18 159.09 67.765C157.88 66.495 154.49 66.53 154.49 66.53C154.49 66.53 153.28 65.075 151.525 65.145Z" fill="#2BF5BA"></path>
<path id="Vector_11" d="M168.48 109.615C173.87 109.615 178.24 108.639 178.24 107.435C178.24 106.231 173.87 105.255 168.48 105.255C163.089 105.255 158.72 106.231 158.72 107.435C158.72 108.639 163.089 109.615 168.48 109.615Z" fill="#2AEDB4"></path>
<path id="Vector_12" d="M178.92 91.0752L175.235 107.385H161.72L158.045 91.1102" fill="#2BF5BA"></path>
<path id="Vector_13" d="M180.65 83.6152H156.31V91.0952H180.65V83.6152Z" fill="#2BF5BA"></path>
<path id="Vector_14" d="M180.645 83.5952H180.6L171.48 83.6102C171.915 86.0802 171.51 88.5702 171.62 91.0752H173.535C173.825 97.1702 173.145 103.355 170.855 107.255L175.23 107.385L178.915 91.0752H180.645V83.5952Z" fill="#2DEBC8"></path>
<path id="Vector_15" d="M160.13 70.2253C160.105 69.3803 159.65 68.4653 159.1 67.8203C158.525 67.1453 157.435 66.6253 155.32 66.5503C155.87 69.4353 155.815 73.0653 153.25 74.7753C150.45 76.6453 148.86 77.3403 147.08 79.6603C147.08 79.8703 147.08 80.0303 147.065 80.1203C147.465 79.6253 150.89 78.2703 152.385 77.9003C154.765 77.3153 155.7 77.1603 157.29 75.8353C158.925 74.4753 160.21 72.6553 160.135 70.2253H160.13Z" fill="#2DEBC8"></path>
<path id="Vector_16" d="M159.145 40.3751C160.045 40.5551 161.095 40.3101 161.865 39.9051C162.675 39.4801 163.405 38.4901 163.83 36.3451C160.675 36.2101 156.83 35.2701 155.43 32.2301C153.905 28.9101 153.425 27.1151 151.25 24.7251C151.03 24.6751 150.86 24.6351 150.765 24.6001C151.225 25.1301 152.11 28.9651 152.255 30.5851C152.49 33.1651 152.5 34.1601 153.65 36.1101C154.83 38.1101 156.55 39.8701 159.145 40.3801V40.3751Z" fill="#2DEBC8"></path>
<path id="Vector_17" d="M159.925 40.7051C157.445 40.7051 154.93 38.6051 153.715 36.7001C152.465 34.7401 152.175 33.1051 151.96 29.9551C151.85 28.3501 150.97 25.2201 150.575 24.7601C150.5 24.6751 150.495 24.5501 150.555 24.4551C150.62 24.3601 150.74 24.3201 150.845 24.3601C151.59 24.6251 157.265 25.6351 157.885 25.6951C159.195 25.8251 162.57 26.5651 164.095 27.9151C164.995 28.7101 166.465 30.4101 166.18 32.8251C165.985 34.4901 164.615 35.4101 164.205 35.6551C164.095 36.3001 163.52 39.2301 162.04 40.1151C161.355 40.5251 160.64 40.7051 159.92 40.7051H159.925ZM151.265 24.9851C151.78 26.1651 152.375 28.6451 152.465 29.9201C152.68 33.1251 152.965 34.5901 154.14 36.4301C155.405 38.4101 158.95 41.4001 161.795 39.6851C163.22 38.8251 163.735 35.4901 163.74 35.4551C163.75 35.3751 163.8 35.3051 163.875 35.2701C163.89 35.2601 165.5 34.4201 165.695 32.7651C165.95 30.5751 164.6 29.0201 163.775 28.2851C162.34 27.0151 159.105 26.3151 157.845 26.1901C157.345 26.1401 152.975 25.3751 151.27 24.9801L151.265 24.9851Z" fill="#07064E"></path>
<path id="Vector_18" d="M179.485 58.0601C178.375 57.9201 177.26 57.2351 176.52 56.4701C175.745 55.6701 175.28 54.2451 175.615 51.5951C179.595 55.0751 184.765 55.3151 187.55 52.3351C190.59 49.0801 191.19 44.9201 194.62 42.9951C194.895 43.0251 195.105 43.0401 195.23 43.0351C194.495 43.4701 192 47.5651 191.21 49.3801C189.95 52.2701 189.55 53.4151 187.475 55.2301C185.4 57.0451 182.68 58.4601 179.485 58.0601Z" fill="#2DEBC8"></path>
<path id="Vector_19" d="M174.93 69.0103C174.49 68.1403 174.44 67.0003 174.635 66.0953C174.835 65.1453 175.64 64.1203 177.715 63.0703C178.755 66.2553 180.465 67.6803 183.975 68.2403C187.805 68.8503 190.12 71.0653 193.18 72.6053C193.295 72.8203 193.385 72.9753 193.445 73.0653C192.775 72.7453 188.6 72.9403 186.91 73.2503C184.21 73.7503 183.19 74.0203 180.87 73.4003C178.49 72.7653 176.205 71.5103 174.94 69.0053L174.93 69.0103Z" fill="#2DEBC8"></path>
<path id="Vector_20" d="M160.57 61.1752C161.565 60.8552 162.54 60.0752 163.165 59.2952C163.825 58.4752 163.715 58.3102 163.73 57.9452C160.44 59.5052 156.11 57.7502 153.43 55.7252C150.505 53.5102 149.28 52.1352 146.07 51.1152C145.825 51.1902 145.635 51.2402 145.52 51.2602C146.205 51.4952 148.685 54.5252 149.495 55.9202C150.79 58.1452 151.21 59.0452 153.185 60.2102C155.215 61.4052 157.695 62.0902 160.565 61.1752H160.57Z" fill="#2DEBC8"></path>
<path id="Vector_21" d="M195.47 42.97C195.44 42.86 195.345 42.79 195.225 42.79C194.255 42.82 187.3 41.795 186.56 41.63C185.005 41.28 180.83 40.84 178.56 41.805C177.225 42.375 174.89 43.765 174.295 46.64C173.905 48.535 175.005 50.06 175.425 50.56C171.39 54.625 168.91 60.41 168.125 64.305C167.665 66.595 167.265 69.055 166.88 71.44C166.22 70.275 165.035 68.82 163.585 67.615C164.235 64.165 165.405 60.455 167.47 56.8C168.645 54.72 169.405 52.815 169.84 51.06C171.195 48.94 172.255 46.125 172.785 44.57C173.23 43.26 173.445 42.08 173.43 41.05C173.685 41.025 173.935 40.97 174.175 40.885C175.475 40.41 176.385 39.015 176.295 37.635C176.24 36.785 175.86 36.025 175.49 35.29C175.165 34.645 174.855 34.03 174.755 33.365C174.545 32 175.385 30.525 176.665 30.005C177.945 29.485 179.575 29.96 180.375 31.085C180.455 31.2 180.61 31.225 180.725 31.145C180.835 31.065 180.865 30.91 180.785 30.795C179.84 29.47 177.99 28.93 176.48 29.54C174.97 30.15 174.015 31.825 174.26 33.44C174.375 34.185 174.715 34.86 175.04 35.515C175.405 36.235 175.745 36.92 175.795 37.665C175.87 38.83 175.1 40.01 174.005 40.415C173.81 40.485 173.61 40.53 173.405 40.555C173.325 39.72 173.08 38.99 172.67 38.365C172.35 37.885 171.845 37.515 171.37 37.425C171.055 37.365 170.76 37.425 170.515 37.6C170.275 37.77 170.12 38.03 170.07 38.345C169.995 38.8 170.145 39.345 170.46 39.77C171.03 40.545 171.975 41.01 172.93 41.065C172.945 42.04 172.74 43.16 172.31 44.415C171.885 45.655 171.12 47.715 170.14 49.555C171.185 42.655 167.095 38.215 163.905 34.755C162.96 33.73 162.07 32.765 161.455 31.875C161.375 31.76 161.22 31.73 161.105 31.81C160.99 31.89 160.965 32.045 161.04 32.16C161.675 33.08 162.575 34.06 163.535 35.095C166.855 38.695 171.175 43.38 169.36 50.885C169.317 51.1383 169.257 51.3633 169.18 51.56C168.74 53.105 168.045 54.77 167.035 56.565C166.605 57.33 166.22 58.095 165.86 58.86C166.01 57.18 165.64 55.76 164.74 54.64C164.49 54.33 164.21 54.06 163.92 53.82C164.255 53.355 165.225 51.825 164.755 50.235C164.05 47.865 161.84 47.1 160.585 46.85C158.48 46.435 154.725 47.56 153.335 48.135C152.675 48.41 146.435 50.515 145.56 50.675C145.45 50.695 145.365 50.79 145.355 50.9C145.345 51.015 145.415 51.12 145.525 51.155C146.115 51.36 148.29 53.735 149.06 55.135C150.57 57.9 151.54 59.24 153.635 60.36C154.83 61 156.515 61.465 158.22 61.465C160.225 61.465 162.25 60.82 163.515 59.065C164.405 57.83 164.23 55.76 164.035 54.595C164.145 54.705 164.25 54.82 164.35 54.945C165.315 56.145 165.615 57.735 165.245 59.67C165.225 59.78 165.28 59.885 165.38 59.935C164.315 62.43 163.605 64.905 163.145 67.265C161.645 66.115 159.905 65.27 158.175 65.27C158.16 65.27 158.14 65.27 158.125 65.27C157.1 65.28 156.16 65.58 155.31 66.165C155.155 66.16 155.025 66.155 154.945 66.155C154.635 65.825 153.475 64.705 151.86 64.77C149.515 64.865 148.225 66.455 147.665 67.39C146.72 68.98 146.745 72.165 146.905 73.38C146.98 73.95 147.25 79.25 147.16 79.965C147.145 80.075 147.21 80.18 147.31 80.225C147.34 80.24 147.375 80.245 147.405 80.245C147.48 80.245 147.55 80.21 147.6 80.15C147.945 79.725 150.695 78.48 152.18 78.15C155.11 77.5 156.585 77 158.17 75.575C159.39 74.48 160.65 72.485 160.725 70.505C160.77 69.32 160.395 68.3 159.605 67.475C158.835 66.67 157.305 66.36 156.18 66.235C156.785 65.935 157.435 65.78 158.125 65.77C158.14 65.77 158.155 65.77 158.17 65.77C159.845 65.77 161.56 66.66 163.03 67.83C162.125 72.865 162.3 77.33 162.42 80.3C162.47 81.6 162.515 82.65 162.45 83.34H156.335C156.295 83.34 156.255 83.355 156.22 83.38C156.12 83.415 156.045 83.505 156.045 83.615V91.095C156.045 91.235 156.155 91.345 156.295 91.345H157.83L161.465 107.44C161.49 107.555 161.59 107.635 161.71 107.635H175.225C175.34 107.635 175.445 107.555 175.47 107.44L179.105 91.345H180.64C180.78 91.345 180.89 91.235 180.89 91.095V83.615C180.89 83.51 180.825 83.42 180.73 83.385C180.69 83.36 180.65 83.345 180.6 83.345H170.08C170.195 81.975 170.38 80.55 171.125 79.41C171.735 78.47 172.925 77.685 174.09 77.85C173.705 78.45 173.57 79.19 173.75 79.85C173.865 80.265 174.165 80.74 174.665 80.835C174.915 80.885 175.19 80.825 175.44 80.675C176.015 80.33 176.29 79.545 176.08 78.855C175.92 78.33 175.515 77.875 174.975 77.605C175.515 77.17 176.275 76.97 177.03 77.075C177.81 77.18 178.54 77.585 179.245 77.975L179.51 78.12C180.375 78.59 181.31 79.01 182.295 78.935C183.32 78.855 184.4 78.03 184.37 76.935C184.37 76.795 184.255 76.69 184.115 76.69C183.975 76.69 183.87 76.81 183.87 76.945C183.89 77.745 183.035 78.37 182.255 78.43C181.395 78.495 180.545 78.11 179.75 77.675L179.485 77.53C178.74 77.12 177.965 76.695 177.095 76.575C176.15 76.445 175.2 76.72 174.545 77.31C174.51 77.34 174.475 77.375 174.445 77.41C172.98 77.045 171.455 77.985 170.705 79.14C170.24 79.855 169.98 80.66 169.82 81.485C169.795 76.61 170.06 71.17 171.55 67.97C171.875 67.265 173.66 63.72 176.64 62.955C176.985 62.865 177.335 62.825 177.69 62.82C176.63 63.395 174.765 64.58 174.38 65.975C173.385 69.585 177.285 72.595 180.235 73.495C181.285 73.815 182.22 73.96 183.22 73.96C184.46 73.96 185.805 73.74 187.62 73.36C189.295 73.01 192.75 73.02 193.33 73.295C193.435 73.345 193.555 73.315 193.63 73.23C193.705 73.145 193.71 73.02 193.645 72.925C193.165 72.235 190.51 66.725 190.27 66.11C189.765 64.815 188.045 61.575 186.235 60.405C185.165 59.715 183.02 58.7 180.64 59.675C179.13 60.295 178.55 61.74 178.365 62.345C177.74 62.28 177.125 62.315 176.52 62.47C173.4 63.265 171.58 66.72 171.1 67.755C169.38 71.46 169.255 78.005 169.345 83.345H169.25C169.105 82.675 169 81.655 168.88 80.475C168.63 77.985 168.28 74.62 167.26 72.235C167.295 72.025 167.33 71.82 167.36 71.61C167.75 69.205 168.15 66.72 168.615 64.41C169.29 61.06 170.99 57.2 173.16 54.09C173.775 53.21 174.525 52.255 175.405 51.32C175.265 52.655 175.15 55.315 176.26 56.615C177.355 57.895 178.85 58.39 180.425 58.39C182.85 58.39 185.47 57.205 187.13 55.86C189.32 54.08 190.28 52.31 191.73 48.755C192.475 46.93 194.71 43.635 195.35 43.255C195.45 43.195 195.495 43.08 195.465 42.97H195.47ZM170.865 39.465C170.635 39.155 170.515 38.735 170.57 38.42C170.6 38.24 170.68 38.1 170.81 38.005C170.91 37.935 171.02 37.9 171.145 37.9C171.19 37.9 171.235 37.9 171.28 37.915C171.62 37.98 172.01 38.27 172.255 38.64C172.615 39.185 172.83 39.825 172.905 40.565C172.11 40.505 171.335 40.11 170.865 39.47V39.465ZM163.11 58.77C161.83 60.545 158.01 62.14 153.875 59.92C151.925 58.87 151.035 57.69 149.505 54.895C148.89 53.775 147.25 51.82 146.235 51.02C148.085 50.495 152.995 48.82 153.535 48.595C154.88 48.035 158.5 46.945 160.495 47.34C161.64 47.565 163.65 48.26 164.28 50.375C164.685 51.73 163.82 53.105 163.525 53.515C162.22 52.625 160.755 52.365 160.17 52.345C159.405 52.32 158.62 52.415 157.855 52.51C156.76 52.64 155.73 52.77 154.95 52.525C154.82 52.485 154.68 52.555 154.635 52.69C154.59 52.825 154.665 52.96 154.8 53.005C155.68 53.28 156.765 53.15 157.915 53.01C158.66 52.92 159.43 52.825 160.155 52.85C160.685 52.865 162.17 53.14 163.425 54.07C163.585 54.805 164.07 57.44 163.11 58.775V58.77ZM159.255 67.815C159.945 68.54 160.28 69.44 160.24 70.485C160.17 72.31 158.95 74.21 157.85 75.205C156.37 76.535 155.055 77.005 152.085 77.665C150.9 77.925 148.695 78.83 147.685 79.475C147.685 77.865 147.47 73.785 147.41 73.32C147.26 72.165 147.22 69.13 148.105 67.655C148.615 66.8 149.78 65.36 151.895 65.275C153.5 65.21 154.645 66.555 154.655 66.57C154.68 66.6 154.705 66.625 154.735 66.64C153.86 67.425 153.09 68.545 152.44 70.005C152.385 70.13 152.44 70.28 152.565 70.335C152.69 70.39 152.84 70.335 152.895 70.21C153.615 68.595 154.48 67.415 155.475 66.68C156.485 66.735 158.44 66.96 159.26 67.82L159.255 67.815ZM174.61 77.98C175.105 78.18 175.475 78.555 175.61 78.995C175.755 79.465 175.57 80.015 175.19 80.245C175.05 80.33 174.895 80.365 174.77 80.34C174.495 80.285 174.315 79.97 174.245 79.715C174.09 79.14 174.235 78.49 174.615 77.985L174.61 77.98ZM180.83 60.135C183 59.245 184.98 60.185 185.965 60.82C187.67 61.925 189.315 65.035 189.805 66.285C190 66.785 192.05 71.075 192.93 72.685C191.625 72.5 188.955 72.565 187.52 72.865C184.185 73.56 182.605 73.685 180.385 73.01C177.995 72.28 173.925 69.51 174.865 66.1C175.335 64.39 178.605 62.91 178.64 62.895C178.64 62.895 178.645 62.89 178.65 62.885C179.615 63.055 180.605 63.505 181.615 64.25C181.725 64.33 181.885 64.31 181.965 64.195C182.045 64.085 182.025 63.925 181.91 63.845C180.88 63.085 179.86 62.615 178.865 62.415C179.05 61.85 179.58 60.64 180.83 60.13V60.135ZM163.485 68.2C164.985 69.5 166.17 71.05 166.685 72.145C166.705 72.19 166.725 72.245 166.745 72.295C166.04 76.64 165.355 80.685 164.33 83.345H162.96C163.02 82.62 162.975 81.57 162.925 80.285C162.81 77.395 162.64 73.07 163.48 68.2H163.485ZM175.035 107.135H161.92L158.355 91.345H178.6L175.035 107.135ZM180.395 83.865V90.845H156.555V83.865H180.395ZM168.385 80.525C168.5 81.655 168.6 82.645 168.74 83.34H164.865C165.8 80.81 166.455 77.16 167.105 73.2C167.87 75.44 168.165 78.325 168.385 80.52V80.525ZM191.275 48.565C189.795 52.195 188.895 53.785 186.82 55.47C182.445 59.02 178.165 58.06 176.645 56.285C175.43 54.87 175.89 51.39 175.99 50.725C177.77 48.975 180.03 47.39 182.765 46.68C182.9 46.645 182.98 46.51 182.945 46.375C182.91 46.24 182.775 46.16 182.64 46.195C180.02 46.875 177.73 48.34 175.79 50.21C175.405 49.735 174.455 48.375 174.79 46.745C175.34 44.09 177.515 42.8 178.76 42.265C180.915 41.345 184.945 41.78 186.45 42.115C187.06 42.25 192.585 43.075 194.62 43.255C193.62 44.34 191.92 46.98 191.275 48.565Z" fill="#07064E"></path>
</g>
<g id="Group_3">
<path id="Vector_22" d="M56.1699 76.8599V79.9449C56.1699 83.0749 58.7299 85.6299 61.8549 85.6299H92.7949V99.6849H82.9849C81.1749 99.6849 79.7099 101.15 79.7099 102.96C79.7099 104.77 81.1749 106.235 82.9849 106.235H117.39C119.2 106.235 120.665 104.77 120.665 102.96C120.665 101.15 119.2 99.6849 117.39 99.6849H107.575V85.6299H138.145C141.275 85.6299 143.83 83.0699 143.83 79.9449V76.8599H56.1699Z" fill="white"></path>
<path id="Vector_23" d="M62.04 29.5498H138.325C141.465 29.5498 144.01 32.0998 144.01 35.2348V76.8098H56.355V35.2348C56.355 32.0948 58.905 29.5498 62.04 29.5498Z" fill="#EDEDED"></path>
<path id="Vector_24" d="M120.605 103.645C120.27 105.08 118.985 106.155 117.455 106.155H82.92C81.39 106.155 80.1 105.08 79.77 103.645C58.59 106.715 81.51 109.77 100.19 109.64C118.875 109.775 141.78 106.72 120.61 103.645H120.605Z" fill="#2AEDB4"></path>
<path id="Vector_25" d="M92.9498 85.3701C92.9498 85.4151 92.9448 85.4601 92.9448 85.5051C92.9448 89.1601 96.1848 92.1251 100.185 92.1251C104.185 92.1251 107.425 89.1601 107.425 85.5051C107.425 85.4601 107.42 85.4151 107.42 85.3701H92.9548H92.9498Z" fill="#EBEBEB"></path>
<path id="Vector_26" d="M133.85 20.915H67.405C64.9253 20.915 62.915 22.9253 62.915 25.405V72.255C62.915 74.7348 64.9253 76.745 67.405 76.745H133.85C136.33 76.745 138.34 74.7348 138.34 72.255V25.405C138.34 22.9253 136.33 20.915 133.85 20.915Z" fill="#DDDDDD"></path>
<path id="Vector_27" d="M138.33 29.2998H62.04C58.765 29.2998 56.105 31.9648 56.105 35.2348V79.8648C56.105 83.1398 58.77 85.7998 62.04 85.7998H92.46V99.2848H82.98C81.035 99.2848 79.455 100.865 79.455 102.81C79.455 104.755 81.035 106.335 82.98 106.335H117.385C119.33 106.335 120.91 104.755 120.91 102.81C120.91 100.865 119.33 99.2848 117.385 99.2848H107.905V85.7998H138.325C141.6 85.7998 144.26 83.1348 144.26 79.8648V35.2348C144.26 31.9598 141.595 29.2998 138.325 29.2998H138.33ZM62.04 29.7998H138.325C141.325 29.7998 143.76 32.2398 143.76 35.2348V76.5298H56.605V35.2348C56.605 32.2348 59.045 29.7998 62.04 29.7998ZM120.41 102.81C120.41 104.475 119.055 105.835 117.385 105.835H82.98C81.315 105.835 79.955 104.48 79.955 102.81C79.955 101.14 81.31 99.7848 82.98 99.7848H92.485C92.525 99.8698 92.61 99.9248 92.705 99.9248C92.8 99.9248 92.885 99.8648 92.925 99.7848H107.605C107.605 99.7848 107.63 99.7948 107.64 99.7948C107.65 99.7948 107.665 99.7898 107.675 99.7848H117.37C119.035 99.7848 120.395 101.14 120.395 102.81H120.41ZM107.405 99.2898H92.965V85.8048H107.405V99.2898ZM138.33 85.3048H62.04C59.04 85.3048 56.605 82.8648 56.605 79.8698V77.0348H143.765V79.8698C143.765 82.8698 141.325 85.3048 138.33 85.3048Z" fill="#07064E"></path>
<path id="Vector_28" d="M133.85 18.79H67.405C64.9253 18.79 62.915 20.8003 62.915 23.28V70.13C62.915 72.6098 64.9253 74.62 67.405 74.62H133.85C136.33 74.62 138.34 72.6098 138.34 70.13V23.28C138.34 20.8003 136.33 18.79 133.85 18.79Z" fill="white"></path>
<path id="Vector_29" d="M66.55 18.79H134.71C136.715 18.79 138.345 20.42 138.345 22.425V25.17H62.915V22.425C62.915 20.42 64.545 18.79 66.55 18.79Z" fill="#07064E"></path>
<path id="Vector_30" d="M129.565 23.5399C130.426 23.5399 131.125 22.8415 131.125 21.9799C131.125 21.1184 130.426 20.4199 129.565 20.4199C128.703 20.4199 128.005 21.1184 128.005 21.9799C128.005 22.8415 128.703 23.5399 129.565 23.5399Z" fill="white"></path>
<path id="Vector_31" d="M134.085 23.5399C134.946 23.5399 135.645 22.8415 135.645 21.9799C135.645 21.1184 134.946 20.4199 134.085 20.4199C133.223 20.4199 132.525 21.1184 132.525 21.9799C132.525 22.8415 133.223 23.5399 134.085 23.5399Z" fill="#2BF5BA"></path>
<path id="Vector_32" d="M124.835 65.375H104.695C102.942 65.375 101.52 66.7954 101.52 68.5475C101.52 70.2996 102.942 71.72 104.695 71.72H124.835C126.589 71.72 128.01 70.2996 128.01 68.5475C128.01 66.7954 126.589 65.375 124.835 65.375Z" fill="#2BF5BA"></path>
<path id="Vector_33" d="M109.91 38.27H75.1201C74.1895 38.27 73.4351 39.0233 73.4351 39.9525C73.4351 40.8817 74.1895 41.635 75.1201 41.635H109.91C110.841 41.635 111.595 40.8817 111.595 39.9525C111.595 39.0233 110.841 38.27 109.91 38.27Z" fill="#EDEDED"></path>
<g id="Vector_34">
<path d="M73.245 43.9648H128.005C128.145 43.9648 128.255 43.8548 128.255 43.7148C128.255 43.5748 128.145 43.4648 128.005 43.4648H73.245C73.105 43.4648 72.995 43.5748 72.995 43.7148C72.995 43.8548 73.105 43.9648 73.245 43.9648Z" fill="#07064E"></path>
<path d="M128.01 57.1948H73.25C73.11 57.1948 73 57.3048 73 57.4448C73 57.5848 73.11 57.6948 73.25 57.6948H128.01C128.15 57.6948 128.26 57.5848 128.26 57.4448C128.26 57.3048 128.15 57.1948 128.01 57.1948Z" fill="#07064E"></path>
<path d="M74.065 52.5448C73.465 52.5448 72.98 53.0298 72.98 53.6298C72.98 54.2298 73.465 54.7148 74.065 54.7148C74.665 54.7148 75.15 54.2298 75.15 53.6298C75.15 53.0298 74.665 52.5448 74.065 52.5448Z" fill="#07064E"></path>
<path d="M77.005 52.5448C76.405 52.5448 75.92 53.0298 75.92 53.6298C75.92 54.2298 76.405 54.7148 77.005 54.7148C77.605 54.7148 78.09 54.2298 78.09 53.6298C78.09 53.0298 77.605 52.5448 77.005 52.5448Z" fill="#07064E"></path>
<path d="M79.945 52.5448C79.345 52.5448 78.86 53.0298 78.86 53.6298C78.86 54.2298 79.345 54.7148 79.945 54.7148C80.545 54.7148 81.03 54.2298 81.03 53.6298C81.03 53.0298 80.545 52.5448 79.945 52.5448Z" fill="#07064E"></path>
<path d="M82.885 52.5448C82.285 52.5448 81.8 53.0298 81.8 53.6298C81.8 54.2298 82.285 54.7148 82.885 54.7148C83.485 54.7148 83.97 54.2298 83.97 53.6298C83.97 53.0298 83.485 52.5448 82.885 52.5448Z" fill="#07064E"></path>
<path d="M85.825 52.5448C85.225 52.5448 84.74 53.0298 84.74 53.6298C84.74 54.2298 85.225 54.7148 85.825 54.7148C86.425 54.7148 86.91 54.2298 86.91 53.6298C86.91 53.0298 86.425 52.5448 85.825 52.5448Z" fill="#07064E"></path>
<path d="M88.765 52.5448C88.165 52.5448 87.68 53.0298 87.68 53.6298C87.68 54.2298 88.165 54.7148 88.765 54.7148C89.365 54.7148 89.85 54.2298 89.85 53.6298C89.85 53.0298 89.365 52.5448 88.765 52.5448Z" fill="#07064E"></path>
<path d="M91.685 52.5448C91.085 52.5448 90.6 53.0298 90.6 53.6298C90.6 54.2298 91.085 54.7148 91.685 54.7148C92.285 54.7148 92.77 54.2298 92.77 53.6298C92.77 53.0298 92.285 52.5448 91.685 52.5448Z" fill="#07064E"></path>
<path d="M94.625 52.5448C94.025 52.5448 93.54 53.0298 93.54 53.6298C93.54 54.2298 94.025 54.7148 94.625 54.7148C95.225 54.7148 95.71 54.2298 95.71 53.6298C95.71 53.0298 95.225 52.5448 94.625 52.5448Z" fill="#07064E"></path>
<path d="M97.565 52.5448C96.965 52.5448 96.48 53.0298 96.48 53.6298C96.48 54.2298 96.965 54.7148 97.565 54.7148C98.165 54.7148 98.65 54.2298 98.65 53.6298C98.65 53.0298 98.165 52.5448 97.565 52.5448Z" fill="#07064E"></path>
<path d="M100.5 52.5448C99.9 52.5448 99.415 53.0298 99.415 53.6298C99.415 54.2298 99.9 54.7148 100.5 54.7148C101.1 54.7148 101.585 54.2298 101.585 53.6298C101.585 53.0298 101.1 52.5448 100.5 52.5448Z" fill="#07064E"></path>
</g>
<path id="Vector_35" d="M122.53 86.4451C121.905 86.8901 121.19 87.1151 120.48 87.1351C120.35 87.1501 120.22 87.1501 120.085 87.1301H120.045C119.845 87.1051 119.65 87.0751 119.455 87.0251L112.355 85.8301H110.685C110.665 85.8951 110.645 85.9651 110.635 86.0401C110.5 86.8551 111.045 87.6251 111.86 87.7651L119.455 89.0451C119.65 89.0951 119.845 89.1251 120.045 89.1451H120.085C120.22 89.1751 120.35 89.1701 120.48 89.1601C121.19 89.1401 121.905 88.9151 122.53 88.4701L126.21 85.8501C126.21 85.8501 126.22 85.8401 126.23 85.8351H123.405L122.535 86.4551L122.53 86.4451Z" fill="#2AEDB4"></path>
<path id="Vector_36" d="M128.04 81.5698C127.81 82.3948 127.315 83.1548 126.58 83.6798L124.125 85.4298H126.9C127.985 84.4548 128.42 82.9248 128.04 81.5698Z" fill="#EDEDED"></path>
<path id="Vector_37" d="M122.085 71.5651C121.695 71.0151 120.83 70.9601 120.16 71.4401C119.495 71.9101 119.27 72.7251 119.635 73.2751C119.235 72.7501 118.39 72.7001 117.73 73.1701C117.065 73.6401 116.84 74.4551 117.205 75.0051C116.805 74.4801 115.96 74.4301 115.3 74.9001C114.64 75.3701 114.42 76.1601 114.76 76.7101L110.61 70.8801C110.13 70.2051 109.2 70.0501 108.525 70.5301C107.85 71.0101 107.695 71.9401 108.175 72.6151L115.84 83.3851L112.355 82.8001C111.54 82.6651 110.77 83.2101 110.63 84.0251C110.495 84.8401 111.04 85.6101 111.855 85.7501L119.45 87.0301C119.645 87.0801 119.84 87.1101 120.04 87.1301H120.08C120.215 87.1601 120.345 87.1551 120.475 87.1451C121.185 87.1251 121.9 86.9001 122.525 86.4551L126.205 83.8351C127.615 82.8301 128.165 80.9551 127.575 79.4051C127.52 79.2551 127.45 79.1201 127.345 78.9701L122.08 71.5751L122.085 71.5651Z" fill="white"></path>
<path id="Vector_38" d="M108.285 72.7603C107.825 73.2703 107.765 74.0453 108.18 74.6253L114.215 83.1053L115.845 83.3802L108.285 72.7603Z" fill="#EDEDED"></path>
<g id="Vector_39">
<path d="M120.3 87.2448C120.21 87.2448 120.13 87.2398 120.045 87.2248C119.815 87.1998 119.6 87.1648 119.395 87.1148L111.815 85.8398C110.865 85.6798 110.225 84.7798 110.385 83.8298C110.545 82.8798 111.445 82.2398 112.395 82.3998L115.285 82.8848L107.97 72.6098C107.7 72.2298 107.595 71.7698 107.67 71.3098C107.75 70.8498 108 70.4498 108.38 70.1798C109.165 69.6198 110.255 69.8048 110.815 70.5898L114.4 75.6248C114.5 75.2198 114.76 74.8298 115.155 74.5498C115.675 74.1798 116.285 74.0898 116.78 74.2598C116.78 73.7348 117.07 73.1898 117.585 72.8198C118.1 72.4498 118.715 72.3598 119.21 72.5298C119.21 72.0048 119.5 71.4598 120.015 71.0898C120.8 70.5298 121.82 70.6148 122.29 71.2748L127.555 78.6698C127.67 78.8298 127.75 78.9848 127.815 79.1648C128.45 80.8398 127.835 82.8298 126.355 83.8848L122.675 86.5048C122.03 86.9648 121.275 87.2148 120.485 87.2398C120.42 87.2448 120.355 87.2498 120.295 87.2498L120.3 87.2448ZM112.105 82.8748C111.85 82.8748 111.6 82.9548 111.385 83.1048C111.115 83.2998 110.935 83.5848 110.88 83.9148C110.765 84.5898 111.225 85.2348 111.9 85.3498L119.495 86.6298C119.695 86.6798 119.88 86.7098 120.065 86.7248C120.07 86.7248 120.12 86.7348 120.125 86.7348C120.22 86.7498 120.325 86.7548 120.455 86.7398C121.16 86.7198 121.825 86.4948 122.385 86.0948L126.065 83.4748C127.365 82.5498 127.905 80.8098 127.35 79.3398C127.3 79.1998 127.235 79.0848 127.15 78.9598L121.885 71.5648C121.575 71.1298 120.865 71.0998 120.31 71.4948C119.765 71.8848 119.56 72.5498 119.85 72.9848C119.925 73.0948 119.895 73.2498 119.785 73.3298C119.675 73.4098 119.52 73.3848 119.44 73.2748C119.125 72.8598 118.425 72.8348 117.88 73.2248C117.335 73.6148 117.13 74.2798 117.42 74.7148C117.495 74.8248 117.465 74.9798 117.355 75.0598C117.245 75.1398 117.09 75.1148 117.01 75.0048C116.695 74.5898 115.995 74.5648 115.45 74.9548C114.91 75.3398 114.7 75.9848 114.98 76.4298C115.05 76.5448 115.02 76.6948 114.905 76.7698C114.79 76.8448 114.64 76.8148 114.56 76.7048L110.41 70.8748C110.01 70.3148 109.235 70.1848 108.675 70.5848C108.405 70.7798 108.225 71.0648 108.17 71.3948C108.115 71.7248 108.19 72.0548 108.385 72.3248L116.05 83.0948C116.11 83.1748 116.11 83.2848 116.06 83.3748C116.005 83.4598 115.905 83.5048 115.805 83.4898L112.32 82.9048C112.25 82.8948 112.18 82.8848 112.11 82.8848L112.105 82.8748Z" fill="#07064E"></path>
<path d="M120.3 87.3948C120.21 87.3948 120.13 87.3898 120.045 87.3748C119.815 87.3498 119.6 87.3148 119.395 87.2648L111.815 85.9898C110.865 85.8298 110.225 84.9298 110.385 83.9798C110.46 83.5198 110.715 83.1198 111.095 82.8498C111.475 82.5798 111.935 82.4748 112.395 82.5498L115.285 83.0348L107.97 72.7598C107.7 72.3798 107.595 71.9198 107.67 71.4598C107.75 70.9998 108 70.5998 108.38 70.3298C109.165 69.7698 110.255 69.9548 110.815 70.7398L114.4 75.7748C114.5 75.3698 114.76 74.9798 115.155 74.6998C115.675 74.3298 116.285 74.2398 116.78 74.4098C116.78 73.8848 117.07 73.3398 117.585 72.9698C118.1 72.5998 118.715 72.5098 119.21 72.6798C119.21 72.1548 119.5 71.6098 120.015 71.2398C120.8 70.6798 121.82 70.7648 122.29 71.4248L127.555 78.8198C127.67 78.9798 127.75 79.1348 127.815 79.3148C128.45 80.9898 127.835 82.9748 126.355 84.0348L122.675 86.6548C122.03 87.1148 121.275 87.3648 120.485 87.3898C120.42 87.3948 120.355 87.3998 120.295 87.3998L120.3 87.3948ZM112.105 83.0198C111.85 83.0198 111.6 83.0998 111.385 83.2498C111.115 83.4448 110.935 83.7298 110.88 84.0598C110.765 84.7348 111.225 85.3798 111.9 85.4948L119.495 86.7748C119.695 86.8248 119.88 86.8548 120.065 86.8698C120.07 86.8698 120.12 86.8798 120.125 86.8798C120.22 86.8948 120.325 86.8998 120.455 86.8848C121.16 86.8648 121.825 86.6398 122.385 86.2398L126.065 83.6198C127.365 82.6948 127.905 80.9548 127.35 79.4848C127.3 79.3448 127.24 79.2298 127.15 79.1048L121.885 71.7098C121.575 71.2748 120.865 71.2448 120.31 71.6398C119.765 72.0298 119.56 72.6948 119.85 73.1298C119.925 73.2398 119.895 73.3948 119.785 73.4748C119.675 73.5548 119.52 73.5298 119.44 73.4198C119.125 73.0048 118.425 72.9798 117.88 73.3648C117.335 73.7548 117.13 74.4198 117.42 74.8548C117.495 74.9648 117.465 75.1198 117.355 75.1998C117.245 75.2798 117.09 75.2548 117.01 75.1448C116.695 74.7298 115.995 74.7048 115.45 75.0948C114.91 75.4798 114.7 76.1248 114.98 76.5698C115.05 76.6848 115.02 76.8348 114.905 76.9098C114.79 76.9848 114.64 76.9548 114.56 76.8448L110.41 71.0148C110.01 70.4548 109.235 70.3248 108.675 70.7248C108.405 70.9198 108.225 71.2048 108.17 71.5348C108.115 71.8648 108.19 72.1948 108.385 72.4648L116.05 83.2348C116.11 83.3148 116.11 83.4248 116.06 83.5148C116.005 83.5998 115.91 83.6448 115.805 83.6298L112.32 83.0448C112.25 83.0348 112.18 83.0248 112.11 83.0248L112.105 83.0198Z" fill="#07064E"></path>
</g>
</g>
<g id="Group_4">
<g id="Vector_40">
<path d="M54.8499 114.65L54.8149 116.465L74.5299 116.445C74.7799 116.445 75.0999 116.125 75.0999 115.875L75.0899 115.035C68.2549 113.86 61.9949 115.35 54.8449 114.65H54.8499Z" fill="#2DEBC8"></path>
<path d="M50.2699 111.73L50.2549 112.945L75.0449 112.925C75.3549 112.925 75.7599 112.605 75.7599 112.355L75.7349 111.71C67.1449 110.535 58.8499 112.175 50.2699 111.725V111.73Z" fill="#2DEBC8"></path>
<path d="M64.5999 91.4053C64.5549 95.6603 63.8799 100.16 62.0049 102.955C60.2349 105.44 54.4449 108.035 54.3549 108.085C56.4049 108.995 56.2849 109.205 58.5599 109.205C63.7799 109.205 68.0149 104.97 68.0149 99.7503V91.3203L64.5949 91.4103L64.5999 91.4053Z" fill="#2DEBC8"></path>
</g>
<path id="Vector_41" d="M54.6248 87.3953C51.7148 85.1153 53.9898 80.9703 55.8048 78.6003C57.4448 74.5503 50.7348 74.3903 51.2298 69.5853C51.5948 66.0803 57.0948 62.0703 60.0898 65.7403C62.0948 68.2003 60.0048 70.2253 60.7098 72.6353C61.0598 73.8403 62.8898 74.2603 63.4298 75.4803C65.0198 79.0553 59.7198 81.7003 58.6648 85.3303C57.7248 88.5653 59.7298 89.9953 60.3148 92.0703C61.2698 95.4803 58.9148 90.7503 54.6198 87.3903L54.6248 87.3953Z" fill="#AAFBE3"></path>
<path id="Vector_42" d="M49.105 91.3154H68.015V99.7454C68.015 104.965 63.78 109.2 58.56 109.2C53.34 109.2 49.105 104.965 49.105 99.7454V91.3154Z" fill="#2BF5BA"></path>
<path id="Vector_43" d="M78.655 117.15C78.655 117.74 69.37 118.22 56.255 118.22C43.14 118.22 31.48 117.755 31.48 117.165C31.48 116.575 42.96 116.445 56.075 116.445C69.19 116.445 78.655 116.56 78.655 117.15Z" fill="#2AEDB4"></path>
<g id="Vector_44">
<path d="M75.0852 109.155H61.4252C65.3902 107.935 68.2752 104.24 68.2752 99.8801V98.1751H69.9352C71.8852 98.1751 73.4702 96.5901 73.4702 94.6401C73.4702 93.0751 72.2002 91.8051 70.6352 91.8051C69.6502 91.8051 68.7852 92.3101 68.2752 93.0701V91.0801H48.8652V99.8751C48.8652 104.235 51.7552 107.93 55.7152 109.15H36.9702C36.8402 109.15 36.7302 109.255 36.7302 109.39C36.7302 109.525 36.8352 109.63 36.9702 109.63H48.8802V110.29H38.4052C38.2752 110.29 38.1652 110.395 38.1652 110.53C38.1652 110.665 38.2702 110.77 38.4052 110.77H48.8802V111.375H38.4052C38.2752 111.375 38.1652 111.48 38.1652 111.615C38.1652 111.75 38.2702 111.855 38.4052 111.855H48.8802V112.695H33.5702C33.4402 112.695 33.3302 112.8 33.3302 112.935C33.3302 113.07 33.4352 113.175 33.5702 113.175H36.9402C36.9402 113.175 36.9602 113.18 36.9702 113.18H53.5752V113.835H35.0002C34.8702 113.835 34.7602 113.94 34.7602 114.075C34.7602 114.21 34.8652 114.315 35.0002 114.315H53.5752V114.92H35.0002C34.8702 114.92 34.7602 115.025 34.7602 115.16C34.7602 115.295 34.8652 115.4 35.0002 115.4H53.5752V116.245H33.5652C33.4352 116.245 33.3252 116.35 33.3252 116.485C33.3252 116.62 33.4302 116.725 33.5652 116.725H74.3702C74.8752 116.725 75.2902 116.315 75.2902 115.805V113.625C75.2902 113.46 75.2452 113.31 75.1702 113.18C75.6302 113.13 75.9952 112.745 75.9952 112.27V110.09C75.9952 109.585 75.5852 109.17 75.0752 109.17L75.0852 109.155ZM68.2802 94.6401C68.2802 93.3401 69.3402 92.2801 70.6402 92.2801C71.9402 92.2801 73.0002 93.3401 73.0002 94.6401C73.0002 96.3251 71.6302 97.7001 69.9402 97.7001H68.2802V94.6401ZM49.3452 99.8751V91.5551H67.8052V99.8751C67.8052 104.965 63.6652 109.105 58.5752 109.105C53.4852 109.105 49.3452 104.965 49.3452 99.8751ZM49.8802 112.685H49.3602V109.625H49.8802V112.685ZM54.5802 116.23H54.0602V113.17H54.5802V116.23ZM75.5302 112.25C75.5302 112.495 75.3302 112.695 75.0902 112.695H74.4502C74.4502 112.695 74.4102 112.69 74.3902 112.69H69.1302C69.0002 112.69 68.8902 112.795 68.8902 112.93C68.8902 113.065 68.9952 113.17 69.1302 113.17C69.1302 113.17 71.2702 113.175 71.2852 113.175H74.4202C74.6502 113.19 74.8302 113.38 74.8302 113.61V115.79C74.8302 116.035 74.6302 116.235 74.3902 116.235H55.0602V113.175H63.7302C63.8602 113.17 63.9702 113.06 63.9702 112.93C63.9702 112.8 63.8652 112.69 63.7302 112.69H50.3652V109.63H75.0902C75.3352 109.63 75.5302 109.83 75.5302 110.07V112.25Z" fill="#07064E"></path>
<path d="M69.8553 98.095H67.9653C67.8253 98.095 67.7153 97.985 67.7153 97.845V94.565C67.7153 93 68.9853 91.73 70.5503 91.73C72.1153 91.73 73.3853 93 73.3853 94.565C73.3853 96.51 71.8003 98.095 69.8553 98.095ZM68.2153 97.595H69.8553C71.5253 97.595 72.8853 96.235 72.8853 94.565C72.8853 93.28 71.8403 92.23 70.5503 92.23C69.2603 92.23 68.2153 93.275 68.2153 94.565V97.595Z" fill="#07064E"></path>
</g>
</g>
</g>
</g>
</g>
</g>
<defs>
<clipPath id="clip0_86_690">
<rect width="200" height="140" fill="white"></rect>
</clipPath>
</defs>
</svg>