<svg width="200" height="140" viewBox="0 0 200 140" fill="none" xmlns="http://www.w3.org/2000/svg">
<g id="illu_bg_voting-ended-v3/Default" clip-path="url(#clip0_85_2531)">
<g id="illu_bg_voting-ended-v3">
<g id="background">
<path id="Vector" d="M178.94 17.8399C215.03 31.5949 194.735 104.075 166.085 119.265C147.07 129.345 99.4595 115.3 58.4995 123.565C26.5695 130.01 15.5545 125.045 27.1595 102.075C39.4595 77.7399 3.81455 69.9049 3.08455 42.2049C2.62955 24.9799 10.5645 4.5799 45.9745 11.9549C118.245 26.9999 146.16 5.3499 178.945 17.8399H178.94Z" fill="#EDEDED"></path>
<g id="Vector_2">
<path d="M194.795 120.4C195.813 117.941 193.666 114.716 190 113.198C186.334 111.68 182.536 112.444 181.518 114.903C180.499 117.363 182.646 120.587 186.313 122.105C189.979 123.623 193.777 122.86 194.795 120.4Z" fill="#2BF5BA"></path>
<path d="M177.58 15.115C213.67 28.87 193.375 101.35 164.725 116.54C145.71 126.62 98.1002 112.575 57.1402 120.84C25.2102 127.285 14.1952 122.32 25.8002 99.35C38.1002 75.015 2.45518 67.185 1.72518 39.48C1.27018 22.255 9.20018 1.85504 44.6102 9.23004C116.88 24.275 144.795 2.62504 177.58 15.115Z" fill="#2BF5BA"></path>
<path d="M9.75012 86.045C9.17012 83.555 11.0801 80.88 14.0101 80.07C16.9401 79.26 19.7851 80.625 20.3651 83.115C20.9451 85.605 19.0351 88.28 16.1051 89.09C13.1751 89.9 10.3301 88.535 9.75012 86.045Z" fill="#2BF5BA"></path>
<path d="M164.837 131.654C166.093 130.715 166.511 129.152 165.772 128.163C165.033 127.175 163.415 127.135 162.159 128.075C160.903 129.015 160.484 130.577 161.224 131.566C161.963 132.554 163.581 132.594 164.837 131.654Z" fill="#2BF5BA"></path>
</g>
</g>
<g id="illu_bg_voting-ended-v3_2">
<g id="stroke">
<g id="Vector_3">
<path d="M15.3902 67.0101L43.4302 45.8101L5.99023 45.9051L2.99023 47.3301C4.52523 52.9251 7.98024 58.9801 15.3902 67.0101Z" fill="#2AEDB4"></path>
<path d="M117.755 99.405C117.42 100.855 116.11 101.95 114.56 101.95H79.5703C78.0203 101.95 76.7153 100.86 76.3753 99.405C54.9103 102.52 78.1353 105.615 97.0653 105.475C116 105.61 139.205 102.515 117.755 99.405Z" fill="#2AEDB4"></path>
</g>
<g id="Vector_4">
<path d="M15.9248 19.19H12.2498C11.6561 19.19 11.1748 19.6713 11.1748 20.265V44.705C11.1748 45.2987 11.6561 45.78 12.2498 45.78H15.9248C16.5185 45.78 16.9998 45.2987 16.9998 44.705V20.265C16.9998 19.6713 16.5185 19.19 15.9248 19.19Z" fill="#2BF5BA"></path>
<path d="M29.4797 14.46H27.0047C26.411 14.46 25.9297 14.9413 25.9297 15.535V44.7C25.9297 45.2937 26.411 45.775 27.0047 45.775H29.4797C30.0734 45.775 30.5547 45.2937 30.5547 44.7V15.535C30.5547 14.9413 30.0734 14.46 29.4797 14.46Z" fill="#2BF5BA"></path>
</g>
<path id="Vector_5" d="M22.68 16.7749H18.125C17.5037 16.7749 17 17.2786 17 17.8999V44.6499C17 45.2712 17.5037 45.7749 18.125 45.7749H22.68C23.3013 45.7749 23.805 45.2712 23.805 44.6499V17.8999C23.805 17.2786 23.3013 16.7749 22.68 16.7749Z" fill="#2AEDB4"></path>
<g id="Vector_6">
<path d="M16.9998 23.67H11.1748V41.3H16.9998V23.67Z" fill="#FFC391"></path>
<path d="M25.9547 22.925C25.9547 22.3313 25.4734 21.85 24.8797 21.85C24.286 21.85 23.8047 22.3313 23.8047 22.925V44.7C23.8047 45.2937 24.286 45.775 24.8797 45.775C25.4734 45.775 25.9547 45.2937 25.9547 44.7V22.925Z" fill="#FFC391"></path>
</g>
<g id="Vector_7">
<path d="M30.5099 41.4401H25.8599V41.9401H30.5099V41.4401Z" fill="#FF8578"></path>
<path d="M30.5099 18.3H25.8599V18.8H30.5099V18.3Z" fill="#FF8578"></path>
</g>
<g id="Group">
<path id="Vector_8" d="M70.8998 110.31C70.0698 111.46 60.5248 114.09 47.3448 114.355C30.9498 114.685 25.5398 112.78 26.1548 111.675C27.4948 109.27 45.8898 107.19 59.0748 107.19C72.2598 107.19 71.6548 109.265 70.8998 110.305V110.31Z" fill="#2AEDB4"></path>
<path id="Vector_9" d="M67.4548 102.625H40.7698L29.8848 106.71V112.155H56.5648L67.4548 108.07V102.625Z" fill="#2BF5BA"></path>
<path id="Vector_10" d="M66.2697 103.07C65.0447 102.85 63.7897 102.69 62.5297 102.625H60.2197C58.3197 102.73 56.4297 103.11 54.6247 103.91C46.5247 107.72 37.4797 103.03 30.3047 106.71H56.5647L66.2697 103.07Z" fill="#2AEDB4"></path>
<g id="Vector_11">
<path d="M29.8848 106.96H56.5648C56.5948 106.96 56.6248 106.955 56.6548 106.945L67.5448 102.86C67.6598 102.82 67.7248 102.7 67.7048 102.58C67.6848 102.46 67.5798 102.375 67.4598 102.375H40.7798C40.7498 102.375 40.7198 102.38 40.6898 102.39L29.7998 106.475C29.6848 106.515 29.6198 106.635 29.6398 106.755C29.6598 106.875 29.7648 106.96 29.8848 106.96ZM40.8148 102.875H66.0748L56.5198 106.46H31.2598L40.8148 102.875Z" fill="#07064E"></path>
<path d="M29.8848 108.32H56.5648C56.5948 108.32 56.6248 108.315 56.6548 108.305L67.5448 104.22C67.6748 104.17 67.7398 104.03 67.6898 103.9C67.6398 103.77 67.4948 103.705 67.3698 103.755L56.5248 107.82H29.8898C29.7498 107.82 29.6398 107.93 29.6398 108.07C29.6398 108.21 29.7498 108.32 29.8898 108.32H29.8848Z" fill="#07064E"></path>
<path d="M67.3648 105.115L56.5198 109.18H29.8848C29.7448 109.18 29.6348 109.29 29.6348 109.43C29.6348 109.57 29.7448 109.68 29.8848 109.68H56.5648C56.5948 109.68 56.6248 109.675 56.6548 109.665L67.5448 105.58C67.6748 105.53 67.7398 105.39 67.6898 105.26C67.6398 105.13 67.4948 105.065 67.3698 105.115H67.3648Z" fill="#07064E"></path>
<path d="M67.3648 106.475L56.5198 110.54H29.8848C29.7448 110.54 29.6348 110.65 29.6348 110.79C29.6348 110.93 29.7448 111.04 29.8848 111.04H56.5648C56.5948 111.04 56.6248 111.035 56.6548 111.025L67.5448 106.94C67.6748 106.89 67.7398 106.75 67.6898 106.62C67.6398 106.49 67.4948 106.425 67.3698 106.475H67.3648Z" fill="#07064E"></path>
<path d="M67.3648 107.835L56.5198 111.9H29.8848C29.7448 111.9 29.6348 112.01 29.6348 112.15C29.6348 112.29 29.7448 112.4 29.8848 112.4H56.5648C56.5948 112.4 56.6248 112.395 56.6548 112.385L67.5448 108.3C67.6748 108.25 67.7398 108.11 67.6898 107.98C67.6398 107.85 67.4948 107.785 67.3698 107.835H67.3648Z" fill="#07064E"></path>
</g>
</g>
<path id="Vector_12" d="M32.824 23.8824C32.6201 23.3248 32.0027 23.0381 31.4451 23.2421C30.8876 23.446 30.6009 24.0633 30.8048 24.6209L38.2844 45.071C38.4884 45.6286 39.1057 45.9153 39.6633 45.7113C40.2209 45.5074 40.5075 44.8901 40.3036 44.3325L32.824 23.8824Z" fill="#FFC391"></path>
<path id="Vector_13" d="M43.4298 45.53H40.3248C40.3898 45.45 40.4498 45.36 40.4948 45.265C40.6448 44.945 40.6598 44.585 40.5398 44.25L33.0598 23.8C32.8098 23.115 32.0448 22.76 31.3598 23.01C31.1398 23.09 30.9548 23.225 30.8098 23.4V15.54C30.8098 14.81 30.2148 14.215 29.4848 14.215H27.0098C26.2798 14.215 25.6848 14.81 25.6848 15.54V21.885C25.4598 21.715 25.1848 21.61 24.8848 21.61C24.5848 21.61 24.2848 21.725 24.0598 21.905V17.905C24.0598 17.15 23.4448 16.53 22.6848 16.53H18.1248C17.3698 16.53 16.7498 17.145 16.7498 17.905V19.24C16.5248 19.055 16.2398 18.945 15.9248 18.945H12.2498C11.5198 18.945 10.9248 19.54 10.9248 20.27V44.71C10.9248 45.025 11.0398 45.31 11.2198 45.535H6.1748C6.0348 45.535 5.9248 45.645 5.9248 45.785C5.9248 45.925 6.0348 46.035 6.1748 46.035H39.2898C39.2898 46.035 39.2898 46.035 39.2948 46.035H43.4248C43.5648 46.035 43.6748 45.925 43.6748 45.785C43.6748 45.645 43.5648 45.535 43.4248 45.535L43.4298 45.53ZM31.0648 23.905C31.1598 23.705 31.3248 23.555 31.5298 23.475C31.6248 23.44 31.7198 23.425 31.8098 23.425C32.1448 23.425 32.4648 23.635 32.5848 23.965L40.0648 44.415C40.1398 44.62 40.1298 44.845 40.0398 45.045C39.9448 45.245 39.7798 45.395 39.5748 45.475C39.3698 45.55 39.1448 45.54 38.9448 45.45C38.7448 45.355 38.5948 45.19 38.5198 44.985L31.0398 24.535C30.9648 24.33 30.9748 24.105 31.0648 23.905ZM38.0498 45.155C38.0998 45.29 38.1748 45.415 38.2648 45.525H30.5148C30.6998 45.3 30.8098 45.015 30.8098 44.7V25.36L38.0498 45.155ZM24.8798 22.1C25.2698 22.1 25.5948 22.375 25.6798 22.74V44.705C25.6798 44.745 25.6898 44.78 25.6898 44.82C25.6348 45.22 25.2898 45.53 24.8748 45.53C24.4198 45.53 24.0498 45.16 24.0498 44.705V22.93C24.0498 22.475 24.4198 22.105 24.8748 22.105L24.8798 22.1ZM25.9448 45.485C25.9448 45.485 25.9698 45.515 25.9798 45.525H25.9098C25.9098 45.525 25.9348 45.5 25.9448 45.485ZM23.7898 45.455C23.8098 45.48 23.8298 45.505 23.8498 45.525H23.7298C23.7298 45.525 23.7698 45.48 23.7898 45.455ZM17.0698 45.53H16.9498C16.9498 45.53 16.9898 45.485 17.0098 45.46C17.0298 45.485 17.0498 45.51 17.0698 45.53ZM12.2498 45.53C11.7948 45.53 11.4248 45.16 11.4248 44.705V20.265C11.4248 19.81 11.7948 19.44 12.2498 19.44H15.9248C16.3798 19.44 16.7498 19.81 16.7498 20.265V44.705C16.7498 45.16 16.3798 45.53 15.9248 45.53H12.2498ZM18.1198 45.53C17.6398 45.53 17.2448 45.14 17.2448 44.655V17.9C17.2448 17.42 17.6348 17.025 18.1198 17.025H22.6798C23.1598 17.025 23.5548 17.415 23.5548 17.9V44.655C23.5548 45.135 23.1648 45.53 22.6798 45.53H18.1198ZM27.0048 45.53C26.5898 45.53 26.2498 45.22 26.1898 44.82C26.1898 44.78 26.1998 44.745 26.1998 44.705V22.93C26.1998 22.85 26.1898 22.775 26.1748 22.7V15.54C26.1748 15.085 26.5448 14.715 26.9998 14.715H29.4748C29.9298 14.715 30.2998 15.085 30.2998 15.54V44.705C30.2998 45.16 29.9298 45.53 29.4748 45.53H26.9998H27.0048Z" fill="#07064E"></path>
<g id="Group_2">
<path id="Vector_14" d="M17.0098 97.535C16.8698 97.535 16.7598 97.425 16.7598 97.285C16.7598 97.145 16.8698 97.035 17.0098 97.035L188.285 96.845C188.425 96.845 188.535 96.955 188.535 97.095C188.535 97.235 188.425 97.345 188.285 97.345L17.0098 97.535Z" fill="#07064E"></path>
<path id="Vector_15" d="M14.9546 97.5349H11.8296C11.6896 97.5349 11.5796 97.4249 11.5796 97.2849C11.5796 97.1449 11.6896 97.0349 11.8296 97.0349H14.9546C15.0946 97.0349 15.2046 97.1449 15.2046 97.2849C15.2046 97.4249 15.0946 97.5349 14.9546 97.5349Z" fill="#2BF5BA"></path>
<g id="Group_3">
<path id="Vector_16" d="M58.4148 24.325H135.715C138.895 24.325 141.475 26.9049 141.475 30.0849V72.2099H52.6548V30.09C52.6548 26.91 55.2348 24.33 58.4148 24.33V24.325Z" fill="#EDEDED"></path>
<g id="Group_4">
<path id="Vector_17" d="M52.4648 72.12V75.245C52.4648 78.415 55.0598 81.005 58.2248 81.005H89.5148V95.305H104.61V81.005H135.53C138.7 81.005 141.29 78.41 141.29 75.245V72.12H52.4648Z" fill="white"></path>
<path id="Vector_18" d="M114.56 95.3199H79.57C77.765 95.3199 76.29 96.7949 76.29 98.5999C76.29 100.405 77.765 101.88 79.57 101.88H114.56C116.365 101.88 117.84 100.405 117.84 98.5999C117.84 96.7949 116.365 95.3199 114.56 95.3199Z" fill="white"></path>
</g>
<path id="Vector_19" d="M123.825 30.11H69.9297C67.7785 30.11 66.0347 31.8538 66.0347 34.005V62.975C66.0347 65.1261 67.7785 66.87 69.9297 66.87H123.825C125.976 66.87 127.72 65.1261 127.72 62.975V34.005C127.72 31.8538 125.976 30.11 123.825 30.11Z" fill="#DDDDDD"></path>
<path id="Vector_20" d="M123.825 28.0699H69.9297C67.7785 28.0699 66.0347 29.8138 66.0347 31.9649V60.9349C66.0347 63.0861 67.7785 64.8299 69.9297 64.8299H123.825C125.976 64.8299 127.72 63.0861 127.72 60.9349V31.9649C127.72 29.8138 125.976 28.0699 123.825 28.0699Z" fill="white"></path>
<path id="Vector_21" d="M68.9995 28.0699H124.76C126.395 28.0699 127.725 29.3999 127.725 31.0349V34.4399H66.0396V31.0349C66.0396 29.3999 67.3695 28.0699 69.0045 28.0699H68.9995Z" fill="#07064E"></path>
<g id="Vector_22">
<path d="M91.3547 45.6249C91.2697 45.6249 91.1896 45.5849 91.1446 45.5049C91.0696 45.3899 91.1097 45.2349 91.2247 45.1599L97.3747 41.3249C97.4897 41.2499 97.6447 41.2849 97.7197 41.4049C97.7947 41.5199 97.7547 41.6749 97.6397 41.7499L91.4897 45.5849C91.4497 45.6099 91.4047 45.6249 91.3597 45.6249H91.3547Z" fill="#07064E"></path>
<path d="M97.4697 55.4349C97.3847 55.4349 97.3047 55.3949 97.2597 55.3149C97.1847 55.1999 97.2247 55.0449 97.3397 54.9699L103.49 51.1349C103.61 51.0599 103.76 51.0949 103.835 51.2149C103.91 51.3299 103.87 51.4849 103.755 51.5599L97.6047 55.3949C97.5647 55.4199 97.5197 55.4349 97.4747 55.4349H97.4697Z" fill="#07064E"></path>
</g>
<g id="Vector_23">
<path d="M97.7748 57.02L98.2098 57.715C98.3198 57.895 98.4948 58.02 98.6998 58.065C98.7598 58.08 98.8198 58.085 98.8798 58.085C99.0248 58.085 99.1698 58.045 99.2948 57.965L105.655 54C105.835 53.89 105.96 53.715 106.005 53.51C106.055 53.305 106.015 53.095 105.905 52.915L105.47 52.22C105.24 51.85 104.755 51.735 104.385 51.97L104.325 52.01L97.2248 40.625C97.3298 40.52 97.3998 40.395 97.4348 40.25C97.4848 40.045 97.4448 39.835 97.3348 39.655L96.8998 38.96C96.6698 38.59 96.1848 38.475 95.8148 38.71L89.4548 42.675C89.0848 42.905 88.9748 43.39 89.2048 43.76L89.6398 44.455C89.7898 44.695 90.0448 44.825 90.3098 44.825C90.4298 44.825 90.5448 44.79 90.6548 44.735L93.3348 49.03L81.4848 56.42C81.1098 56.65 80.8498 57.015 80.7548 57.445C80.6548 57.875 80.7298 58.315 80.9598 58.69C81.2698 59.19 81.8098 59.465 82.3598 59.465C82.6548 59.465 82.9598 59.385 83.2298 59.215L95.0798 51.825L97.7898 56.175C97.6248 56.425 97.6098 56.755 97.7748 57.025V57.02Z" fill="#EBEBEB"></path>
<path d="M110.16 53.93L109.775 53.31C109.645 53.105 109.445 52.96 109.21 52.905C108.975 52.85 108.73 52.89 108.525 53.02L96.8248 60.315C96.6198 60.445 96.4748 60.645 96.4198 60.88C96.3648 61.115 96.4048 61.36 96.5348 61.565L96.9198 62.185C97.0898 62.46 97.3898 62.615 97.6948 62.615C97.8598 62.615 98.0248 62.57 98.1748 62.475L109.875 55.18C110.3 54.915 110.43 54.355 110.165 53.925L110.16 53.93Z" fill="#EBEBEB"></path>
</g>
<g id="Vector_24">
<path d="M96.8968 39.2516L90.7451 43.0881L98.0981 54.8782L104.25 51.0416L96.8968 39.2516Z" fill="white"></path>
<path d="M108.652 51.9227L96.9507 59.2201C96.6414 59.413 96.547 59.8201 96.7399 60.1293L97.1262 60.7488C97.3191 61.058 97.7262 61.1524 98.0355 60.9595L109.736 53.6621C110.046 53.4692 110.14 53.0622 109.947 52.7529L109.561 52.1334C109.368 51.8242 108.961 51.7298 108.652 51.9227Z" fill="white"></path>
</g>
<g id="Vector_25">
<path d="M94.2697 55.06C94.2347 55.035 94.1847 55.04 94.1597 55.075C94.1347 55.11 94.1397 55.16 94.1747 55.185L94.9147 55.76C94.9497 55.785 94.9997 55.78 95.0247 55.745C95.0497 55.71 95.0447 55.66 95.0097 55.635L94.2697 55.06Z" fill="#EBEBEB"></path>
<path d="M95.9797 56.39C95.9447 56.365 95.8947 56.37 95.8697 56.405C95.8447 56.44 95.8497 56.49 95.8847 56.515L97.1597 57.505C97.1947 57.53 97.2447 57.525 97.2697 57.49C97.2947 57.455 97.2897 57.405 97.2547 57.38L95.9797 56.39Z" fill="#EBEBEB"></path>
<path d="M94.1347 59.145L93.2147 59.335C93.1747 59.345 93.1447 59.385 93.1547 59.43C93.1647 59.475 93.2047 59.5 93.2497 59.49L94.1697 59.3C94.2097 59.29 94.2397 59.25 94.2297 59.205C94.2197 59.16 94.1797 59.135 94.1347 59.145Z" fill="#EBEBEB"></path>
<path d="M96.9147 58.565L95.3297 58.895C95.2897 58.905 95.2597 58.945 95.2697 58.99C95.2797 59.035 95.3197 59.06 95.3647 59.05L96.9497 58.72C96.9897 58.71 97.0197 58.67 97.0097 58.625C96.9997 58.585 96.9597 58.555 96.9147 58.565Z" fill="#EBEBEB"></path>
<path d="M109.59 49.175C109.555 49.15 109.505 49.155 109.48 49.19L108.905 49.93C108.88 49.965 108.885 50.015 108.92 50.04C108.955 50.065 109.005 50.06 109.03 50.025L109.605 49.285C109.63 49.25 109.625 49.2 109.59 49.175Z" fill="#EBEBEB"></path>
<path d="M108.155 50.9L107.165 52.175C107.14 52.21 107.145 52.26 107.18 52.285C107.215 52.31 107.265 52.305 107.29 52.27L108.28 50.995C108.305 50.96 108.3 50.91 108.265 50.885C108.23 50.86 108.18 50.865 108.155 50.9Z" fill="#EBEBEB"></path>
<path d="M105.235 48.165C105.195 48.175 105.165 48.215 105.175 48.26L105.365 49.18C105.375 49.22 105.415 49.25 105.46 49.24C105.505 49.23 105.53 49.19 105.52 49.145L105.33 48.225C105.32 48.185 105.28 48.155 105.235 48.165Z" fill="#EBEBEB"></path>
<path d="M105.675 50.285C105.635 50.295 105.605 50.335 105.615 50.38L105.945 51.965C105.955 52.005 105.995 52.035 106.04 52.025C106.085 52.015 106.11 51.975 106.1 51.93L105.77 50.345C105.76 50.305 105.72 50.275 105.675 50.285Z" fill="#EBEBEB"></path>
<path d="M95.7998 47.835C94.1098 46.2 93.0248 44.37 91.5548 42.665L90.7748 43.15L98.1298 54.94L104.28 51.105L104.215 50.995C100.855 51.135 97.8598 49.9 95.7998 47.835Z" fill="#EDEDED"></path>
<path d="M81.1749 57.2451C80.7649 56.5901 80.9649 55.7301 81.6199 55.3201L93.6799 47.8001L95.1549 50.1701L83.0949 57.6901C82.4399 58.1001 81.5799 57.9001 81.1699 57.2451H81.1749Z" fill="#EDEDED"></path>
<path d="M95.9508 37.6036L89.5955 41.5672C89.3424 41.725 89.2652 42.0581 89.423 42.3111L89.8543 43.0026C90.0121 43.2557 90.3452 43.3329 90.5983 43.1751L96.9536 39.2115C97.2067 39.0537 97.2839 38.7206 97.126 38.4676L96.6948 37.776C96.5369 37.523 96.2039 37.4458 95.9508 37.6036Z" fill="#EDEDED"></path>
<path d="M104.516 50.8759L98.1602 54.8395C97.9071 54.9973 97.8299 55.3304 97.9877 55.5834L98.419 56.275C98.5768 56.528 98.9099 56.6052 99.163 56.4474L105.518 52.4838C105.771 52.326 105.849 51.9929 105.691 51.7399L105.259 51.0484C105.102 50.7953 104.769 50.7181 104.516 50.8759Z" fill="#EDEDED"></path>
</g>
<g id="Vector_26">
<path d="M97.2599 54.01L97.7899 54.865C97.7399 54.945 97.6999 55.03 97.6749 55.12C97.6249 55.325 97.6649 55.535 97.7749 55.715L98.2099 56.41C98.3199 56.59 98.4949 56.715 98.6999 56.76C98.7599 56.775 98.8199 56.78 98.8799 56.78C99.0249 56.78 99.1699 56.74 99.2949 56.66L105.655 52.695C105.835 52.585 105.96 52.41 106.005 52.205C106.055 52 106.015 51.79 105.905 51.61L105.47 50.915C105.36 50.735 105.185 50.61 104.98 50.565C104.775 50.515 104.565 50.55 104.385 50.665L104.325 50.705L97.2249 39.32C97.3299 39.215 97.3999 39.09 97.4349 38.945C97.4849 38.74 97.4449 38.53 97.3349 38.35L96.8999 37.655C96.7899 37.475 96.6149 37.35 96.4099 37.305C96.2049 37.255 95.9949 37.29 95.8149 37.405L89.4549 41.37C89.2749 41.48 89.1499 41.655 89.1049 41.86C89.0549 42.065 89.0949 42.275 89.2049 42.455L89.6399 43.15C89.7499 43.33 89.9249 43.455 90.1299 43.5C90.1899 43.515 90.2499 43.52 90.3099 43.52C90.4299 43.52 90.5449 43.485 90.6549 43.43L91.1399 44.205L93.3349 47.725L81.4849 55.115C80.7149 55.595 80.4799 56.615 80.9599 57.385C81.2699 57.885 81.8099 58.16 82.3599 58.16C82.6549 58.16 82.9599 58.08 83.2299 57.91L95.0799 50.52L97.2599 54.015V54.01ZM104.65 51.085C104.695 51.055 104.75 51.04 104.8 51.04C104.82 51.04 104.845 51.04 104.865 51.05C104.94 51.065 105.005 51.115 105.045 51.18L105.48 51.875C105.565 52.01 105.525 52.19 105.39 52.275L99.0299 56.24C98.9649 56.28 98.8899 56.295 98.8149 56.275C98.7399 56.26 98.6749 56.21 98.6349 56.145L98.1999 55.45C98.1599 55.385 98.1449 55.305 98.1649 55.23C98.1799 55.155 98.2299 55.09 98.2949 55.05L104.655 51.085H104.65ZM103.9 50.965L98.1749 54.535L97.8149 53.955L103.54 50.385L103.9 50.965ZM90.4649 42.97C90.3999 43.01 90.3249 43.025 90.2499 43.005C90.1749 42.99 90.1099 42.94 90.0699 42.875L89.6349 42.18C89.5499 42.045 89.5899 41.865 89.7249 41.78L96.0849 37.815C96.1499 37.775 96.2249 37.76 96.2999 37.78C96.3749 37.795 96.4399 37.845 96.4799 37.91L96.9149 38.605C96.9549 38.67 96.9699 38.75 96.9499 38.825C96.9349 38.9 96.8849 38.965 96.8199 39.005L96.7599 39.045L96.4599 39.23L90.4599 42.97H90.4649ZM91.0899 43.17L96.8149 39.6L97.1599 40.155L91.4349 43.725L91.0899 43.17ZM82.9649 57.48C82.4299 57.815 81.7199 57.65 81.3849 57.115C81.0499 56.58 81.2149 55.87 81.7499 55.535L93.5999 48.145L94.8149 50.09L82.9649 57.48ZM91.6999 44.145L97.4249 40.575L103.28 49.96L97.5549 53.53L91.7049 44.145H91.6999Z" fill="#07064E"></path>
<path d="M110.16 52.625L109.775 52.005C109.645 51.8 109.445 51.655 109.21 51.6C108.975 51.545 108.73 51.585 108.525 51.715L96.8249 59.01C96.6199 59.14 96.4749 59.34 96.4199 59.575C96.3649 59.81 96.4049 60.055 96.5349 60.26L96.9199 60.88C97.0499 61.085 97.2499 61.23 97.4849 61.285C97.5549 61.3 97.6249 61.31 97.6899 61.31C97.8599 61.31 98.0249 61.265 98.1699 61.17L109.87 53.875C110.075 53.745 110.22 53.545 110.275 53.31C110.33 53.075 110.29 52.83 110.16 52.625ZM109.785 53.2C109.76 53.305 109.695 53.395 109.605 53.455L97.9049 60.75C97.8099 60.81 97.6999 60.825 97.5949 60.8C97.4899 60.775 97.3999 60.71 97.3399 60.62L96.9549 60C96.8949 59.905 96.8799 59.795 96.9049 59.69C96.9299 59.585 96.9949 59.495 97.0849 59.435L108.785 52.14C108.85 52.1 108.925 52.08 109 52.08C109.03 52.08 109.06 52.08 109.095 52.09C109.2 52.115 109.29 52.18 109.35 52.27L109.735 52.89C109.795 52.985 109.81 53.095 109.785 53.2Z" fill="#07064E"></path>
<path d="M94.135 57.835L93.215 58.025C93.175 58.035 93.145 58.075 93.155 58.12C93.165 58.165 93.205 58.19 93.25 58.18L94.17 57.99C94.21 57.98 94.24 57.94 94.23 57.895C94.22 57.85 94.18 57.825 94.135 57.835Z" fill="#07064E"></path>
<path d="M96.915 57.26L95.33 57.59C95.29 57.6 95.26 57.64 95.27 57.685C95.28 57.73 95.32 57.755 95.365 57.745L96.95 57.415C96.99 57.405 97.02 57.365 97.01 57.32C97 57.275 96.96 57.25 96.915 57.26Z" fill="#07064E"></path>
<path d="M94.27 53.755C94.235 53.73 94.185 53.735 94.16 53.77C94.135 53.805 94.14 53.855 94.175 53.88L94.915 54.455C94.95 54.48 95 54.475 95.025 54.44C95.05 54.405 95.045 54.355 95.01 54.33L94.27 53.755Z" fill="#07064E"></path>
<path d="M95.98 55.08C95.945 55.055 95.895 55.06 95.87 55.095C95.845 55.13 95.85 55.18 95.885 55.205L97.16 56.195C97.195 56.22 97.245 56.215 97.27 56.18C97.295 56.145 97.29 56.095 97.255 56.07L95.98 55.08Z" fill="#07064E"></path>
<path d="M109.59 47.87C109.555 47.845 109.505 47.85 109.48 47.885L108.905 48.625C108.88 48.66 108.885 48.71 108.92 48.735C108.955 48.76 109.005 48.755 109.03 48.72L109.605 47.98C109.63 47.945 109.625 47.895 109.59 47.87Z" fill="#07064E"></path>
<path d="M108.155 49.59L107.165 50.865C107.14 50.9 107.145 50.95 107.18 50.975C107.215 51 107.265 50.995 107.29 50.96L108.28 49.685C108.305 49.65 108.3 49.6 108.265 49.575C108.23 49.55 108.18 49.555 108.155 49.59Z" fill="#07064E"></path>
<path d="M105.235 46.86C105.195 46.87 105.165 46.91 105.175 46.95L105.365 47.87C105.375 47.91 105.415 47.94 105.46 47.93C105.505 47.92 105.53 47.88 105.52 47.835L105.33 46.915C105.32 46.875 105.28 46.845 105.235 46.855V46.86Z" fill="#07064E"></path>
<path d="M105.675 48.98C105.635 48.99 105.605 49.03 105.615 49.075L105.945 50.66C105.955 50.7 105.995 50.73 106.04 50.72C106.085 50.71 106.11 50.67 106.1 50.625L105.77 49.04C105.76 49 105.72 48.97 105.675 48.98Z" fill="#07064E"></path>
</g>
<path id="Vector_27" d="M89.7346 80.8949C89.7346 80.9399 89.7246 80.9849 89.7246 81.0299C89.7246 84.7349 93.0096 87.7399 97.0596 87.7399C101.11 87.7399 104.395 84.7349 104.395 81.0299C104.395 80.9849 104.39 80.9399 104.385 80.8949H89.7246H89.7346Z" fill="#EBEBEB"></path>
<path id="Vector_28" d="M135.715 24.075H58.4148C55.0998 24.075 52.4048 26.7699 52.4048 30.0849V75.3099C52.4048 78.6249 55.0998 81.32 58.4148 81.32H89.2448V95.065H79.5698C77.6248 95.065 76.0398 96.65 76.0398 98.595C76.0398 100.54 77.6248 102.125 79.5698 102.125H114.56C116.505 102.125 118.09 100.54 118.09 98.595C118.09 96.65 116.505 95.065 114.56 95.065H104.885V81.32H135.715C139.03 81.32 141.725 78.6249 141.725 75.3099V30.09C141.725 26.775 139.03 24.08 135.715 24.08V24.075ZM58.4148 24.575H135.715C138.755 24.575 141.225 27.0499 141.225 30.0849V71.9349H52.9048V30.09C52.9048 27.05 55.3798 24.58 58.4148 24.58V24.575ZM89.7448 95.0699V81.3249H104.385V95.0699H89.7448ZM117.59 98.5999C117.59 100.27 116.23 101.63 114.56 101.63H79.5698C77.8998 101.63 76.5398 100.27 76.5398 98.5999C76.5398 96.9299 77.8998 95.5699 79.5698 95.5699H89.3248C89.3698 95.6149 89.4298 95.64 89.4948 95.64C89.5598 95.64 89.6198 95.6149 89.6648 95.5699H114.56C116.23 95.5699 117.59 96.9299 117.59 98.5999ZM135.715 80.8249H58.4148C55.3748 80.8249 52.9048 78.35 52.9048 75.315V72.44H141.23V75.315C141.23 78.355 138.755 80.8249 135.72 80.8249H135.715Z" fill="#07064E"></path>
<path id="Vector_29" d="M116.755 32.955C117.688 32.955 118.445 32.1983 118.445 31.2649C118.445 30.3316 117.688 29.575 116.755 29.575C115.822 29.575 115.065 30.3316 115.065 31.2649C115.065 32.1983 115.822 32.955 116.755 32.955Z" fill="white"></path>
<path id="Vector_30" d="M121.655 32.955C122.588 32.955 123.345 32.1983 123.345 31.2649C123.345 30.3316 122.588 29.575 121.655 29.575C120.721 29.575 119.965 30.3316 119.965 31.2649C119.965 32.1983 120.721 32.955 121.655 32.955Z" fill="#2BF5BA"></path>
</g>
</g>
<g id="Group_5">
<g id="Group_6">
<path id="Vector_31" d="M161.775 112.03C167.237 112.03 171.665 111.211 171.665 110.2C171.665 109.189 167.237 108.37 161.775 108.37C156.313 108.37 151.885 109.189 151.885 110.2C151.885 111.211 156.313 112.03 161.775 112.03Z" fill="#2AEDB4"></path>
<path id="Vector_32" d="M168.884 81.935H168.914V74.965H169.494C170.719 74.965 171.714 73.97 171.714 72.745C171.714 71.52 170.719 70.525 169.494 70.525H154.014C152.789 70.525 151.794 71.52 151.794 72.745C151.794 73.97 152.789 74.965 154.014 74.965H154.594V81.935H154.654C145.359 88.095 152.749 100.08 154.749 109.705H168.789C170.784 100.08 178.179 88.095 168.884 81.935Z" fill="#FFC391"></path>
<path id="Vector_33" d="M168.884 81.935H168.914V74.965H169.494C170.719 74.965 171.714 73.975 171.714 72.745C171.714 71.515 170.719 70.525 169.494 70.525L164.469 70.5C165.094 71.775 164.984 73.525 164.369 74.945L168.469 74.965L164.244 75.02C164.484 77.405 164.449 79.615 164.344 81.92H164.149C165.744 85.425 166.319 86.205 166.989 89.57C168.149 95.365 167.044 104.06 165.034 109.705H168.789C170.784 100.08 178.179 88.095 168.884 81.935Z" fill="#FFAF6E"></path>
</g>
<g id="Vector_34">
<path d="M169.055 54.015C169.055 54.015 166.465 59.41 169.32 61C169.62 61.17 169.87 61.23 170.08 61.22C169.52 58.875 169.36 57.05 169.655 54.785C169.46 54.45 169.26 54.185 169.055 54.015Z" fill="#2AEDB4"></path>
<path d="M162.16 51.715C161.82 51.22 161.475 50.835 161.15 50.615C161.15 50.615 158.545 58.105 162.495 59.785C162.8 59.915 163.055 59.97 163.28 59.98C162.325 57.19 161.86 54.535 162.16 51.715Z" fill="#2AEDB4"></path>
<path d="M166.435 65.985C165.63 67.365 164.67 68.58 163.91 68.28C163.565 68.145 163.505 67.815 163.625 67.38C164.61 66.595 165.39 65.975 166.44 65.985H166.435Z" fill="#2AEDB4"></path>
<path d="M170.77 64.43C170.845 64.48 170.92 64.525 171.015 64.57C174.37 66.235 179.415 59.81 179.415 59.81C178.56 59.585 176.79 59.93 175.03 60.54C173.42 61.46 172.045 62.8 170.77 64.43Z" fill="#2AEDB4"></path>
<path d="M171.695 57.93C171.795 58.205 172.06 58.425 172.56 58.575C174.99 59.285 177.055 56.305 178.075 54.45C176.245 56.3 174.085 57.57 171.69 57.935L171.695 57.93Z" fill="#2AEDB4"></path>
<path d="M173.31 50.43C173.435 50.535 173.595 50.635 173.81 50.72C176.275 51.715 179.285 48.575 180.815 46.67C177.855 46.23 175.04 47.96 173.31 50.43Z" fill="#2AEDB4"></path>
<path d="M173.51 43.995C173.435 44.5 173.69 44.855 174.435 44.925C176.7 45.14 178.285 42.065 179.07 40.085C177.415 41.69 175.83 43.215 173.51 43.99V43.995Z" fill="#2AEDB4"></path>
<path d="M171.04 29.09C172.105 32.255 173.355 35.665 173.06 38.935C176.305 40.305 173.575 29.945 171.04 29.09Z" fill="#2AEDB4"></path>
<path d="M155.7 69.46C155.605 69.495 155.505 69.53 155.385 69.555C151.115 70.515 146.25 61.32 146.25 61.32C147.3 61.315 149.345 62.265 151.325 63.53C153.075 65.115 154.475 67.13 155.7 69.46Z" fill="#2AEDB4"></path>
<path d="M157.095 54.3C156.985 54.535 156.725 54.715 156.265 54.81C154.015 55.265 152.365 52.46 151.58 50.735C153.1 52.515 154.96 53.8 157.095 54.3Z" fill="#2AEDB4"></path>
<path d="M157.67 45.005C157.47 45.005 157.24 44.95 156.975 44.91C153.66 44.405 153.7 38.63 154.325 36.12C155.645 41.025 158.205 42.17 157.67 45.01V45.005Z" fill="#2AEDB4"></path>
</g>
<g id="Group_7">
<path id="Vector_35" d="M134.17 53.5149C134.17 53.5149 141.8 55.1699 145.96 53.1499C149.545 51.4099 135.955 49.1449 134.17 53.5149Z" fill="#2AEDB4"></path>
<path id="Vector_36" d="M141.205 40.1749C141.205 40.1749 146.505 46.3649 147.105 51.2699C147.62 55.4949 138.715 44.1199 141.205 40.1749Z" fill="#2BF5BA"></path>
<path id="Vector_37" d="M134.75 50.7149C134.75 50.7149 141.93 54.1099 146.48 53.1599C150.395 52.3399 137.46 46.9399 134.75 50.7149Z" fill="#2BF5BA"></path>
<path id="Vector_38" d="M139.405 41.9949C139.405 41.9949 145.835 46.8499 147.475 51.5549C148.885 55.6049 137.87 46.4799 139.405 41.9949Z" fill="#2AEDB4"></path>
<path id="Vector_39" d="M135.63 48.05C135.63 48.05 142.055 52.915 146.75 53C150.795 53.075 139.075 45.01 135.63 48.05Z" fill="#2AEDB4"></path>
<path id="Vector_40" d="M137.685 44.0499C137.685 44.0499 144.87 47.4399 147.4 51.7349C149.58 55.4349 137.11 48.8299 137.685 44.0499Z" fill="#2BF5BA"></path>
</g>
<g id="Group_8">
<path id="Vector_41" d="M146.08 25.665C146.08 25.665 152.18 31.8949 157.305 32.5649C161.715 33.1449 150.43 22.685 146.08 25.665Z" fill="#2AEDB4"></path>
<path id="Vector_42" d="M160.83 17.5449C160.83 17.5449 161.975 26.5699 159.52 31.5199C157.405 35.7799 156.09 19.6949 160.83 17.5449Z" fill="#2BF5BA"></path>
<path id="Vector_43" d="M148.339 23.41C148.339 23.41 152.949 30.99 157.779 32.895C161.934 34.535 153.184 21.555 148.339 23.41Z" fill="#2BF5BA"></path>
<path id="Vector_44" d="M158.034 18.1349C158.034 18.1349 161.049 26.6149 159.689 32.0099C158.519 36.6549 153.849 21.3749 158.034 18.1349Z" fill="#2AEDB4"></path>
<path id="Vector_45" d="M150.794 21.4649C150.794 21.4649 153.799 29.9449 158.129 32.9149C161.854 35.4699 155.879 20.7449 150.794 21.4649Z" fill="#2AEDB4"></path>
<path id="Vector_46" d="M155.17 18.9949C155.17 18.9949 159.79 26.5699 159.51 32.1299C159.27 36.9199 151.695 23.0999 155.17 18.9949Z" fill="#2BF5BA"></path>
</g>
<g id="Group_1">
<path id="Vector_47" d="M176.25 43.7499C176.25 43.7499 173.05 49.2399 169.46 50.6799C166.37 51.9199 172.5 42.4999 176.25 43.7499Z" fill="#2AEDB4"></path>
<path id="Vector_48" d="M163.915 40.8949C163.915 40.8949 164.875 47.3899 167.635 50.3649C170.015 52.9249 167.785 41.4899 163.915 40.8949Z" fill="#2BF5BA"></path>
<path id="Vector_49" d="M174.16 42.605C174.16 42.605 172.31 48.75 169.18 50.995C166.485 52.925 170.27 42.235 174.16 42.605Z" fill="#2BF5BA"></path>
<path id="Vector_50" d="M166.065 40.7749C166.065 40.7749 165.555 47.2449 167.61 50.7399C169.38 53.7499 169.75 42.2349 166.065 40.7749Z" fill="#2AEDB4"></path>
<path id="Vector_51" d="M171.99 41.72C171.99 41.72 171.485 48.19 168.925 51.075C166.72 53.56 168.15 42.185 171.99 41.72Z" fill="#2AEDB4"></path>
<path id="Vector_52" d="M168.32 40.83C168.32 40.83 166.465 46.975 167.765 50.79C168.89 54.08 171.655 43.025 168.32 40.83Z" fill="#2BF5BA"></path>
</g>
<g id="Vector_53">
<path d="M169.165 81.8251V75.2151H169.495C170.855 75.2151 171.965 74.1051 171.965 72.7451C171.965 71.3851 170.855 70.2751 169.495 70.2751H154.015C152.655 70.2751 151.545 71.3851 151.545 72.7451C151.545 74.1051 152.655 75.2151 154.015 75.2151H154.345V81.8451C147.33 86.6551 149.935 94.7651 152.465 102.605C153.235 105 154.035 107.47 154.505 109.75C154.53 109.865 154.63 109.95 154.75 109.95H168.79C168.91 109.95 169.01 109.865 169.035 109.75C169.51 107.47 170.305 104.995 171.075 102.605C173.605 94.7501 176.22 86.6301 169.16 81.8201L169.165 81.8251ZM152.045 72.7451C152.045 71.6601 152.93 70.7751 154.015 70.7751H169.495C170.58 70.7751 171.465 71.6601 171.465 72.7451C171.465 73.8301 170.58 74.7151 169.495 74.7151H168.965C168.965 74.7151 168.93 74.7051 168.91 74.7051C168.89 74.7051 168.875 74.7101 168.855 74.7151H154.645C154.645 74.7151 154.61 74.7051 154.59 74.7051C154.57 74.7051 154.555 74.7101 154.535 74.7151H154.005C152.92 74.7151 152.035 73.8301 152.035 72.7451H152.045ZM170.605 102.455C169.85 104.79 169.075 107.205 168.59 109.455H154.955C154.475 107.205 153.695 104.79 152.94 102.455C150.455 94.7451 147.89 86.7801 154.735 82.1851H156.205C156.345 82.1851 156.455 82.0751 156.455 81.9351C156.455 81.7951 156.345 81.6851 156.205 81.6851H154.845V75.2151H168.66V81.6851H159.46C159.32 81.6851 159.21 81.7951 159.21 81.9351C159.21 82.0751 159.32 82.1851 159.46 82.1851H168.8C175.645 86.7801 173.08 94.7451 170.595 102.455H170.605Z" fill="#07064E"></path>
<path d="M147.895 52.4751C147.895 52.3701 147.885 52.2551 147.845 52.1301C147.845 51.9451 147.795 51.7301 147.705 51.4751C147.565 51.0751 147.38 50.6501 147.16 50.2101C146.055 45.5001 141.58 40.2351 141.39 40.0101C141.34 39.9501 141.26 39.9151 141.18 39.9251C141.1 39.9301 141.03 39.9751 140.985 40.0401C140.575 40.6901 140.43 41.5501 140.55 42.6001C139.945 42.0901 139.555 41.7951 139.55 41.7901C139.485 41.7401 139.405 41.7251 139.325 41.7501C139.25 41.7751 139.19 41.8351 139.16 41.9101C138.9 42.6701 138.96 43.5801 139.33 44.6301C138.41 44.1201 137.79 43.8251 137.785 43.8201C137.71 43.7851 137.63 43.7901 137.555 43.8251C137.485 43.8651 137.435 43.9351 137.43 44.0151C137.315 44.9601 137.66 46.0151 138.455 47.1501C137.15 47.0151 136.14 47.2551 135.455 47.8601C135.4 47.9101 135.37 47.9801 135.37 48.0551C135.37 48.1301 135.41 48.2001 135.47 48.2451C135.475 48.2501 136.03 48.6701 136.915 49.2501C135.82 49.4451 135.025 49.8851 134.54 50.5601C134.495 50.6201 134.48 50.6951 134.5 50.7701C134.52 50.8401 134.57 50.9001 134.635 50.9351C134.64 50.9351 135.17 51.1851 136.01 51.5251C134.96 51.9801 134.26 52.6151 133.935 53.4151C133.905 53.4851 133.91 53.5601 133.945 53.6251C133.98 53.6901 134.04 53.7351 134.115 53.7501C134.305 53.7901 137.165 54.3951 140.315 54.3951C142.18 54.3951 144.15 54.1801 145.73 53.5151C146.02 53.4851 146.28 53.4451 146.525 53.3951C146.715 53.3551 146.875 53.3001 147.015 53.2301C147.395 53.1951 147.6 53.0751 147.71 52.9351C151.205 53.8501 155.73 59.6801 156.38 67.7401C155.58 66.2051 153.09 64.4101 152.25 63.8301C150.235 62.4501 147.6 61.0601 146.25 61.0601C146.16 61.0601 146.075 61.1051 146.025 61.1801C145.98 61.2551 145.98 61.3501 146.02 61.4251C146.21 61.7851 150.54 69.8651 154.74 69.8651C154.97 69.8651 155.2 69.8401 155.43 69.7901C155.98 69.6651 156.285 69.4451 156.45 69.2001C156.46 69.6201 156.46 70.0451 156.45 70.4751C156.45 70.6151 156.555 70.7301 156.69 70.7301H156.7C156.835 70.7301 156.945 70.6251 156.95 70.4851C157.24 60.8301 151.93 53.5751 147.89 52.4601L147.895 52.4751ZM145.52 53.0701C141.91 54.5901 135.965 53.6051 134.535 53.3351C134.925 52.6601 135.68 52.1351 136.785 51.7751C136.885 51.7401 136.955 51.6501 136.955 51.5451C136.955 51.4401 136.895 51.3451 136.795 51.3051C136.055 51.0201 135.47 50.7701 135.145 50.6251C135.665 50.0851 136.505 49.7651 137.645 49.6701C137.75 49.6601 137.84 49.5851 137.865 49.4801C137.89 49.3751 137.845 49.2651 137.755 49.2101C136.97 48.7101 136.365 48.2851 136.035 48.0501C136.705 47.6151 137.69 47.5101 138.965 47.7351C139.07 47.7551 139.17 47.7051 139.225 47.6151C139.28 47.5251 139.27 47.4151 139.205 47.3301C138.36 46.2701 137.925 45.3001 137.905 44.4451C138.275 44.6301 138.92 44.9651 139.705 45.4201C139.8 45.4751 139.92 45.4601 140 45.3901C140.08 45.3201 140.105 45.2001 140.06 45.1001C139.585 44.0601 139.41 43.1601 139.54 42.4251C139.805 42.6351 140.225 42.9801 140.735 43.4251C140.815 43.4951 140.935 43.5051 141.025 43.4501C141.12 43.3951 141.165 43.2901 141.145 43.1851C140.93 42.1301 140.96 41.2701 141.24 40.6251C142.195 41.8001 145.75 46.3651 146.675 50.3551C146.675 50.3701 146.685 50.3851 146.69 50.4001C146.1 52.1251 145.535 53.0351 145.51 53.0701H145.52ZM155.33 69.3101C151.795 70.1051 147.7 63.3701 146.7 61.6151C149.395 62.1101 155.91 66.5251 156.14 68.5301C156.16 68.6901 156.205 69.1151 155.335 69.3101H155.33Z" fill="#07064E"></path>
<path d="M159.66 32.7651C159.77 32.5951 159.86 32.3701 159.935 32.0701C160.05 31.6101 160.14 31.1001 160.2 30.5551C162.06 25.4851 161.12 17.8301 161.08 17.5101C161.07 17.4301 161.025 17.3601 160.955 17.3251C160.885 17.2851 160.8 17.2851 160.73 17.3151C159.94 17.6751 159.27 18.4051 158.735 19.4901C158.47 18.6051 158.28 18.0551 158.275 18.0501C158.25 17.9751 158.185 17.9151 158.11 17.8951C158.035 17.8751 157.95 17.8901 157.885 17.9351C157.17 18.4901 156.66 19.3951 156.365 20.6351C155.8 19.5551 155.385 18.8701 155.385 18.8651C155.345 18.7951 155.27 18.7501 155.19 18.7451C155.11 18.7351 155.03 18.7701 154.98 18.8301C154.29 19.6501 153.965 20.8551 154.02 22.4251C152.87 21.4751 151.775 21.0701 150.76 21.2101C150.685 21.2201 150.62 21.2651 150.58 21.3301C150.54 21.3951 150.535 21.4701 150.56 21.5451C150.56 21.5551 150.835 22.3151 151.32 23.4401C150.16 22.9301 149.13 22.8401 148.255 23.1751C148.185 23.2001 148.13 23.2601 148.11 23.3301C148.085 23.4001 148.095 23.4751 148.135 23.5401C148.135 23.5451 148.495 24.1251 149.095 24.9901C147.81 24.7501 146.755 24.9101 145.95 25.4651C145.89 25.5051 145.85 25.5751 145.845 25.6451C145.84 25.7201 145.865 25.7901 145.915 25.8451C146.155 26.0901 151.825 31.8301 156.885 32.7551C157.17 32.9051 157.44 33.0251 157.7 33.1301C157.9 33.2101 158.08 33.2551 158.255 33.2751C158.485 33.4001 158.69 33.4651 158.865 33.4651C158.87 33.4651 158.88 33.4651 158.885 33.4651C159.575 36.6301 159.4 39.7051 158.945 42.8401C158.445 40.3351 156.09 36.6551 154.44 35.9001C154.37 35.8701 154.29 35.8701 154.225 35.9001C154.16 35.9301 154.11 35.9951 154.09 36.0701C154.02 36.3951 152.42 43.9901 156.92 45.1551C157.2 45.2301 157.445 45.2601 157.66 45.2601C158.105 45.2601 158.405 45.1201 158.605 44.9351C158.49 45.6051 158.365 46.2751 158.24 46.9551C157.865 48.9951 157.475 51.1251 157.23 53.3651C156.365 51.6501 152.665 49.2101 151.085 49.2101H151.07C150.99 49.2101 150.915 49.2501 150.87 49.3151C150.825 49.3801 150.81 49.4651 150.835 49.5401C150.915 49.7801 152.72 55.1201 155.79 55.1201C155.965 55.1201 156.145 55.1001 156.33 55.0651C156.695 54.9901 156.94 54.8651 157.105 54.7251C156.74 59.4251 157.13 64.6301 159.685 70.6051C159.725 70.7001 159.82 70.7551 159.915 70.7551C159.95 70.7551 159.98 70.7501 160.015 70.7351C160.14 70.6801 160.2 70.5351 160.145 70.4051C156.15 61.0851 157.465 53.9451 158.73 47.0501C159.59 42.3651 160.4 37.9401 159.36 33.2751C159.5 33.1751 159.605 33.0101 159.675 32.7751L159.66 32.7651ZM158.45 44.2551C158.39 44.4301 158.2 44.9651 157.035 44.6651C153.495 43.7501 154.255 37.9651 154.505 36.5051C156.335 37.7001 159.065 42.5301 158.45 44.2551ZM156.215 54.5651C153.695 55.0801 151.92 51.0101 151.43 49.7401C153.165 50.0851 156.76 52.6251 156.905 53.9601C156.92 54.0851 156.955 54.4151 156.215 54.5651ZM146.485 25.7151C147.275 25.3051 148.32 25.2701 149.6 25.6201C149.7 25.6451 149.81 25.6101 149.87 25.5201C149.93 25.4351 149.93 25.3151 149.87 25.2301C149.335 24.4851 148.935 23.8801 148.725 23.5501C149.555 23.3501 150.555 23.5601 151.705 24.1901C151.8 24.2401 151.915 24.2301 151.995 24.1551C152.075 24.0801 152.095 23.9651 152.055 23.8701C151.615 22.8901 151.305 22.1001 151.15 21.6901H151.165C152.075 21.6901 153.07 22.1951 154.14 23.2051C154.215 23.2751 154.33 23.2951 154.42 23.2501C154.515 23.2051 154.57 23.1051 154.56 23.0001C154.425 21.4601 154.62 20.2701 155.15 19.4501C155.375 19.8451 155.785 20.5701 156.255 21.5101C156.305 21.6051 156.41 21.6601 156.515 21.6451C156.62 21.6301 156.705 21.5451 156.725 21.4351C156.925 20.1401 157.33 19.1801 157.925 18.5701C158.04 18.9251 158.23 19.5201 158.445 20.2851C158.475 20.3901 158.565 20.4601 158.67 20.4651C158.775 20.4801 158.875 20.4101 158.915 20.3101C159.375 19.1651 159.95 18.3701 160.625 17.9351C160.79 19.5401 161.325 26.0701 159.72 30.4101C159.715 30.4251 159.71 30.4451 159.71 30.4601C158.55 31.5151 157.38 32.1351 157.075 32.2851C157.05 32.2751 157.03 32.2651 157.005 32.2601C152.65 31.4851 147.61 26.7951 146.495 25.7101L146.485 25.7151Z" fill="#07064E"></path>
<path d="M173.715 50.9551C174.07 51.1001 174.435 51.1651 174.805 51.1651C178.18 51.1651 181.855 45.7301 182.025 45.4701C182.07 45.4001 182.08 45.3101 182.045 45.2351C182.01 45.1551 181.94 45.1001 181.86 45.0851C180.005 44.7451 174.705 47.0351 173.19 48.9101C173.205 48.6601 173.22 48.4151 173.23 48.1651C174.325 47.0051 175.22 45.7701 175.79 44.9251C178.385 43.7301 179.785 38.7951 179.855 38.5501C179.875 38.4701 179.855 38.3851 179.805 38.3201C179.75 38.2551 179.67 38.2251 179.59 38.2351C178.235 38.3801 175.465 40.5151 174.075 42.3651C174.03 42.3651 173.985 42.3651 173.94 42.3651C174.065 41.3001 174.085 40.2251 174.095 39.1751C174.125 39.1551 174.16 39.1451 174.19 39.1251C174.93 38.5651 174.85 36.9951 174.65 35.7751C174.235 33.2351 172.775 29.4151 171.11 28.8551C171.04 28.8301 170.965 28.8401 170.9 28.8751C170.835 28.9151 170.795 28.9751 170.78 29.0451C170.72 29.3901 169.37 37.5101 172.87 39.1351C173.13 39.2551 173.37 39.3201 173.59 39.3201C173.58 40.3451 173.555 41.3901 173.43 42.4201C172.985 42.5151 172.535 42.7151 172.075 43.0501C172.185 42.2701 172.225 41.7701 172.23 41.7401C172.235 41.6651 172.21 41.5901 172.155 41.5401C172.1 41.4901 172.025 41.4651 171.95 41.4751C171.195 41.5651 170.49 42.0351 169.855 42.8651C169.575 41.8101 169.1 41.0601 168.45 40.6301C168.385 40.5901 168.3 40.5751 168.225 40.6051C168.15 40.6351 168.095 40.6901 168.07 40.7701C168.06 40.7951 167.92 41.2751 167.74 42.0401C167.29 41.2951 166.755 40.7951 166.145 40.5551C166.07 40.5251 165.99 40.5351 165.92 40.5751C165.855 40.6151 165.81 40.6901 165.805 40.7701C165.805 40.7901 165.775 41.1351 165.76 41.7101C165.175 41.1101 164.565 40.7551 163.945 40.6601C163.865 40.6501 163.785 40.6751 163.73 40.7301C163.675 40.7851 163.645 40.8651 163.66 40.9451C163.695 41.1801 164.53 46.6901 166.895 49.8801C167.045 50.2451 167.215 50.5851 167.39 50.8851C167.505 51.0801 167.615 51.2251 167.735 51.3251C167.795 51.4201 167.865 51.4951 167.94 51.5501C167.505 52.6951 166.965 53.6001 166.395 54.5551C165.8 55.5451 165.175 56.5851 164.635 57.9851C164.49 55.4151 162.745 51.3951 161.285 50.4301C161.22 50.3901 161.14 50.3751 161.065 50.4001C160.99 50.4251 160.935 50.4801 160.91 50.5551C160.8 50.8701 158.275 58.2851 162.395 60.0351C162.765 60.1901 163.07 60.2551 163.325 60.2551C163.605 60.2551 163.815 60.1801 163.98 60.0751C163.4 62.4051 163.045 65.5901 163.175 70.3351C163.175 70.4701 163.29 70.5801 163.425 70.5801H163.43C163.57 70.5801 163.675 70.4601 163.675 70.3251C163.655 69.6701 163.65 69.0451 163.65 68.4501C163.71 68.4901 163.765 68.5201 163.82 68.5401C163.925 68.5801 164.035 68.6001 164.145 68.6001C165.865 68.6001 167.915 63.7301 168.33 62.7001C168.36 62.6251 168.35 62.5351 168.305 62.4651C168.26 62.3951 168.18 62.3551 168.1 62.3551C167.19 62.3551 164.63 64.8351 163.685 66.6351C163.91 59.6751 165.45 57.1101 166.83 54.8201C167.42 53.8351 167.98 52.9051 168.435 51.6951C168.58 51.6801 168.75 51.6151 168.955 51.4301C169.08 51.3851 169.205 51.3151 169.335 51.2201C169.5 51.1001 169.67 50.9651 169.85 50.8051C170.87 50.3351 171.84 49.5751 172.715 48.7251C172.54 51.7651 171.94 54.7951 171.345 57.7301C171.275 58.0701 171.205 58.4201 171.135 58.7651C170.945 56.8751 170.105 54.5701 169.225 53.8401C169.165 53.7901 169.085 53.7701 169.01 53.7901C168.935 53.8051 168.87 53.8551 168.84 53.9251C168.73 54.1551 166.185 59.5501 169.21 61.2351C169.545 61.4201 169.82 61.4901 170.05 61.4901C170.28 61.4901 170.45 61.4201 170.58 61.3251C170.535 61.5101 170.5 61.6951 170.455 61.8801C169.755 64.7801 168.81 67.6451 167.645 70.3951C167.59 70.5201 167.65 70.6701 167.78 70.7251C167.81 70.7401 167.845 70.7451 167.875 70.7451C167.97 70.7451 168.065 70.6901 168.105 70.5901C168.96 68.5651 169.695 66.4801 170.31 64.3651C170.44 64.5201 170.63 64.6751 170.91 64.8151C171.33 65.0251 171.775 65.1151 172.23 65.1151C175.54 65.1151 179.43 60.2201 179.615 59.9851C179.665 59.9201 179.68 59.8301 179.655 59.7501C179.63 59.6701 179.565 59.6101 179.48 59.5901C177.745 59.1351 172.715 60.8151 170.805 62.4851C170.845 62.3251 170.895 62.1651 170.935 62.0001C171.225 60.8001 171.47 59.6001 171.71 58.4201C171.875 58.5801 172.12 58.7301 172.49 58.8401C172.765 58.9201 173.04 58.9601 173.305 58.9601C176.54 58.9601 178.885 53.4401 178.995 53.1851C179.025 53.1101 179.02 53.0301 178.98 52.9601C178.94 52.8901 178.87 52.8451 178.79 52.8401C177.26 52.7051 173.69 54.5751 172.14 56.2851C172.51 54.4051 172.855 52.4901 173.065 50.5601C173.21 50.7101 173.41 50.8601 173.72 50.9801L173.715 50.9551ZM173.305 49.7001C173.76 48.1201 179.165 45.6101 181.36 45.5501C180.37 46.9101 176.695 51.6151 173.905 50.4901C173.165 50.1901 173.27 49.8351 173.305 49.7001ZM173.09 38.6851C170.305 37.3901 171.02 30.9951 171.235 29.4651C172.455 30.2401 173.75 33.3301 174.165 35.8551C174.41 37.3401 174.305 38.4101 173.895 38.7251C173.715 38.8601 173.445 38.8501 173.09 38.6851ZM163.835 67.5751C164.085 66.2401 166.495 63.6851 167.65 63.0001C166.6 65.4601 164.905 68.4051 164 68.0501C163.92 68.0201 163.76 67.9551 163.83 67.5751H163.835ZM163.955 59.3651C163.87 59.5201 163.615 59.9951 162.59 59.5551C159.365 58.1801 160.84 52.4951 161.275 51.0351C162.855 52.5051 164.805 57.7801 163.95 59.3601L163.955 59.3651ZM170.42 60.7651C170.345 60.8751 170.145 61.1701 169.445 60.7801C167.22 59.5401 168.645 55.6251 169.135 54.4551C170.17 55.7451 171.155 59.6801 170.415 60.7651H170.42ZM178.76 59.9901C178.82 59.9901 178.88 59.9901 178.935 59.9901C177.845 61.2701 173.825 65.6801 171.125 64.3451C170.41 63.9901 170.54 63.6401 170.59 63.5101C171.15 62.0101 176.46 59.9851 178.765 59.9851L178.76 59.9901ZM178.375 53.3201C177.755 54.6351 175.405 59.1451 172.63 58.3401C171.805 58.1001 171.88 57.7101 171.91 57.5651C172.195 56.0701 176.455 53.5251 178.375 53.3251V53.3201ZM179.26 38.8101C178.935 39.8201 177.95 42.5101 176.465 43.8701C176.5 43.8051 176.51 43.7301 176.48 43.6601C176.455 43.5901 176.395 43.5351 176.325 43.5101C175.65 43.2851 174.885 43.3551 174.04 43.7201C174.18 43.3351 174.28 43.0401 174.335 42.8601C175.42 41.3301 177.74 39.2601 179.255 38.8101H179.26ZM169.685 50.3001C168.535 49.9201 167.74 49.7101 167.335 49.6151C167.335 49.6051 167.325 49.6001 167.32 49.5901C165.365 46.9701 164.455 42.5301 164.225 41.2251C164.76 41.4101 165.29 41.8401 165.815 42.5001C165.88 42.5851 165.99 42.6151 166.09 42.5801C166.19 42.5451 166.26 42.4501 166.26 42.3451C166.26 41.8451 166.28 41.4351 166.29 41.1651C166.795 41.4801 167.245 42.0451 167.62 42.8501C167.665 42.9451 167.765 43.0051 167.875 42.9951C167.98 42.9801 168.07 42.9051 168.09 42.8001C168.23 42.1301 168.37 41.5901 168.455 41.2601C168.95 41.7251 169.3 42.4801 169.495 43.5151C169.515 43.6151 169.59 43.6951 169.695 43.7151C169.795 43.7351 169.9 43.6901 169.955 43.6051C170.5 42.7501 171.09 42.2251 171.71 42.0351C171.675 42.3701 171.605 42.9301 171.495 43.6201C171.48 43.7251 171.53 43.8301 171.625 43.8801C171.72 43.9301 171.835 43.9151 171.915 43.8451C172.58 43.2351 173.22 42.9001 173.825 42.8551C173.73 43.1351 173.575 43.5901 173.36 44.1401C173.32 44.2401 173.35 44.3501 173.43 44.4201C173.51 44.4901 173.625 44.5001 173.715 44.4501C174.525 43.9951 175.245 43.8151 175.865 43.9151C175.18 45.0151 172.57 48.9451 169.695 50.3051L169.685 50.3001Z" fill="#07064E"></path>
</g>
</g>
</g>
</g>
</g>
</g>
<defs>
<clipPath id="clip0_85_2531">
<rect width="200" height="140" fill="white"></rect>
</clipPath>
</defs>
</svg>