<svg width="200" height="140" viewBox="0 0 200 140" fill="none" xmlns="http://www.w3.org/2000/svg">
<g id="Size=Default" clip-path="url(#clip0_86_988)">
<g id="illu_bg_many-voted">
<g id="background">
<path d="M176.3 13.6752C207.715 37.8952 194.36 103.48 164.565 112.505C133.115 122.035 146.505 95.2352 74.4948 130.215C43.9198 145.065 14.9048 130.79 26.9448 104.365C39.7048 76.3602 6.44478 75.2852 5.68978 43.4102C5.21978 23.6002 18.5148 1.84023 42.6698 4.09023C107.82 10.1552 151.52 -5.42977 176.3 13.6752Z" fill="#2BF5BA"></path>
<path d="M190.756 13.9567C192.065 12.9774 192.503 11.35 191.734 10.3218C190.964 9.29365 189.28 9.25399 187.971 10.2333C186.662 11.2125 186.224 12.8399 186.993 13.8681C187.762 14.8962 189.447 14.9359 190.756 13.9567Z" fill="#2BF5BA"></path>
</g>
<g id="illu_bg_many-voted_2">
<g id="stroke">
<path id="Vector" d="M61.2749 21.5352H141.765C145.075 21.5352 147.765 24.2252 147.765 27.5352V71.4002H55.2749V27.5352C55.2749 24.2252 57.9649 21.5352 61.2749 21.5352Z" fill="#EDEDED"></path>
<path id="Vector_2" d="M86.77 64.5605H55.27V66.6855H86.77C90.07 66.6855 92.77 63.9855 92.77 60.6855V58.5605C92.77 61.8605 90.07 64.5605 86.77 64.5605Z" fill="#DDDDDD"></path>
<path id="Vector_3" d="M52.2246 64.5605C48.9246 64.5605 46.2246 61.8605 46.2246 58.5605V60.6855C46.2246 63.9855 48.9246 66.6855 52.2246 66.6855H55.2696V64.5605H52.2246Z" fill="#2AEDB4"></path>
<g id="Vector_4">
<path d="M103.265 79.6406V80.4906H103.33C103.29 80.2106 103.265 79.9306 103.265 79.6406Z" fill="#2AEDB4"></path>
<path d="M135.055 85.6406H109.375V87.7656H135.055C138.355 87.7656 141.055 85.0656 141.055 81.7656V79.6406C141.055 82.9406 138.355 85.6406 135.055 85.6406Z" fill="#2AEDB4"></path>
</g>
<path id="Vector_5" d="M15.0449 97.7503C14.9049 97.7503 14.7949 97.6403 14.7949 97.5003C14.7949 97.3603 14.9049 97.2503 15.0449 97.2503L193.385 97.0503C193.525 97.0503 193.635 97.1603 193.635 97.3003C193.635 97.4403 193.525 97.5503 193.385 97.5503L15.0449 97.7503Z" fill="#07064E"></path>
<path id="Vector_6" d="M12.8999 97.7505H9.6499C9.5099 97.7505 9.3999 97.6405 9.3999 97.5005C9.3999 97.3605 9.5099 97.2505 9.6499 97.2505H12.8999C13.0399 97.2505 13.1499 97.3605 13.1499 97.5005C13.1499 97.6405 13.0399 97.7505 12.8999 97.7505Z" fill="#2BF5BA"></path>
<g id="Vector_7">
<path d="M109.375 80.4854H93.6596V95.4354H109.375V80.4854Z" fill="white"></path>
<path d="M119.735 95.4554H83.2996C81.4196 95.4554 79.8846 96.9904 79.8846 98.8704C79.8846 100.75 81.4196 102.285 83.2996 102.285H119.735C121.615 102.285 123.15 100.75 123.15 98.8704C123.15 96.9904 121.615 95.4554 119.735 95.4554Z" fill="white"></path>
<path d="M55.2744 71.2954H147.764V74.5504C147.764 77.8604 145.074 80.5504 141.764 80.5504H61.2744C57.9644 80.5504 55.2744 77.8604 55.2744 74.5504V71.2954Z" fill="white"></path>
<path d="M119.735 95.4554H83.2996C81.4136 95.4554 79.8846 96.9844 79.8846 98.8704C79.8846 100.756 81.4136 102.285 83.2996 102.285H119.735C121.621 102.285 123.15 100.756 123.15 98.8704C123.15 96.9844 121.621 95.4554 119.735 95.4554Z" fill="white"></path>
</g>
<path id="Vector_8" d="M119.735 102.535H83.2998C81.2798 102.535 79.6348 100.89 79.6348 98.8701C79.6348 96.8501 81.2798 95.2051 83.2998 95.2051H119.735C121.755 95.2051 123.4 96.8501 123.4 98.8701C123.4 100.89 121.755 102.535 119.735 102.535ZM83.2998 95.7051C81.5548 95.7051 80.1348 97.1251 80.1348 98.8701C80.1348 100.615 81.5548 102.035 83.2998 102.035H119.735C121.48 102.035 122.9 100.615 122.9 98.8701C122.9 97.1251 121.48 95.7051 119.735 95.7051H83.2998Z" fill="#07064E"></path>
<path id="Vector_9" d="M123.06 99.7104C122.71 101.22 121.35 102.36 119.735 102.36H83.2997C81.6847 102.36 80.3247 101.225 79.9747 99.7104C57.6247 102.95 81.8097 106.175 101.515 106.035C121.23 106.18 145.395 102.955 123.06 99.7104Z" fill="#2AEDB4"></path>
<path id="Vector_10" d="M111.22 47.1602C107.92 47.1602 105.22 44.4602 105.22 41.1602V43.2852C105.22 46.5852 107.92 49.2852 111.22 49.2852H147.76V47.1602H111.22Z" fill="#DDDDDD"></path>
<path id="Vector_11" d="M152.41 47.1602H147.765V49.2852H152.41C155.71 49.2852 158.41 46.5852 158.41 43.2852V41.1602C158.41 44.4602 155.71 47.1602 152.41 47.1602Z" fill="#2AEDB4"></path>
<path id="Vector_12" d="M93.885 80.4355C93.885 80.4855 93.875 80.5306 93.875 80.5806C93.875 84.4406 97.295 87.5656 101.515 87.5656C105.735 87.5656 109.155 84.4406 109.155 80.5806C109.155 80.5306 109.15 80.4855 109.145 80.4355H93.88H93.885Z" fill="#EBEBEB"></path>
<path id="Vector_13" d="M103.265 81.7654C103.265 85.0654 105.965 87.7654 109.265 87.7654H109.375V80.4854H103.265V81.7654Z" fill="#DDDDDD"></path>
<path id="Vector_14" d="M141.76 21.2852H61.2749C57.8299 21.2852 55.0249 24.0902 55.0249 27.5352V74.6252C55.0249 78.0702 57.8299 80.8752 61.2749 80.8752H93.3849V95.2052H83.2999C81.2799 95.2052 79.6349 96.8502 79.6349 98.8702C79.6349 100.89 81.2799 102.535 83.2999 102.535H119.735C121.755 102.535 123.4 100.89 123.4 98.8702C123.4 96.8502 121.755 95.2052 119.735 95.2052H109.65V80.8752H141.76C145.205 80.8752 148.01 78.0702 148.01 74.6252V27.5352C148.01 24.0902 145.205 21.2852 141.76 21.2852ZM61.2749 21.7852H141.765C144.935 21.7852 147.515 24.3652 147.515 27.5352V71.1202H55.5249V27.5352C55.5249 24.3652 58.1049 21.7852 61.2749 21.7852ZM119.735 95.7052C121.48 95.7052 122.9 97.1252 122.9 98.8702C122.9 100.615 121.48 102.035 119.735 102.035H83.2999C81.5549 102.035 80.1349 100.615 80.1349 98.8702C80.1349 97.1252 81.5549 95.7052 83.2999 95.7052H119.735ZM93.8849 95.2052V80.8752H109.15V95.2052H93.8849ZM141.76 80.3752H61.2749C58.1049 80.3752 55.5249 77.7952 55.5249 74.6252V71.6202H147.515V74.6252C147.515 77.7952 144.935 80.3752 141.765 80.3752H141.76Z" fill="#07064E"></path>
<g id="Group">
<path id="Vector_15" d="M86.7696 32.9756H52.2246C48.9109 32.9756 46.2246 35.6619 46.2246 38.9756V58.5606C46.2246 61.8743 48.9109 64.5606 52.2246 64.5606H86.7696C90.0833 64.5606 92.7696 61.8743 92.7696 58.5606V38.9756C92.7696 35.6619 90.0833 32.9756 86.7696 32.9756Z" fill="white"></path>
<path id="Vector_16" d="M51.5996 32.9756H87.3996C90.3646 32.9756 92.7696 35.3806 92.7696 38.3456V38.5556H46.2246V38.3456C46.2246 35.3806 48.6296 32.9756 51.5946 32.9756H51.5996Z" fill="#07064E"></path>
<path id="Vector_17" d="M84.1448 37.1304C84.8987 37.1304 85.5098 36.5193 85.5098 35.7654C85.5098 35.0115 84.8987 34.4004 84.1448 34.4004C83.3909 34.4004 82.7798 35.0115 82.7798 35.7654C82.7798 36.5193 83.3909 37.1304 84.1448 37.1304Z" fill="white"></path>
<path id="Vector_18" d="M88.0994 37.1304C88.8532 37.1304 89.4644 36.5193 89.4644 35.7654C89.4644 35.0115 88.8532 34.4004 88.0994 34.4004C87.3455 34.4004 86.7344 35.0115 86.7344 35.7654C86.7344 36.5193 87.3455 37.1304 88.0994 37.1304Z" fill="#2BF5BA"></path>
<path id="Vector_19" d="M71.8895 46.3804H67.1045C65.5388 46.3804 64.2695 47.6496 64.2695 49.2154V54.0004C64.2695 55.5661 65.5388 56.8354 67.1045 56.8354H71.8895C73.4553 56.8354 74.7245 55.5661 74.7245 54.0004V49.2154C74.7245 47.6496 73.4553 46.3804 71.8895 46.3804Z" fill="#EDEDED"></path>
<path id="Vector_20" d="M71.8895 44.2505H67.1045C65.5388 44.2505 64.2695 45.5198 64.2695 47.0855V51.8705C64.2695 53.4362 65.5388 54.7055 67.1045 54.7055H71.8895C73.4553 54.7055 74.7245 53.4362 74.7245 51.8705V47.0855C74.7245 45.5198 73.4553 44.2505 71.8895 44.2505Z" fill="#07064E"></path>
<g id="Vector_21">
<path d="M58.0194 44.251H53.2344C51.6687 44.251 50.3994 45.5202 50.3994 47.086V51.871C50.3994 53.4367 51.6687 54.706 53.2344 54.706H58.0194C59.5851 54.706 60.8544 53.4367 60.8544 51.871V47.086C60.8544 45.5202 59.5851 44.251 58.0194 44.251Z" fill="#2BF5BA"></path>
<path d="M85.7594 44.251H80.9744C79.4087 44.251 78.1394 45.5202 78.1394 47.086V51.871C78.1394 53.4367 79.4087 54.706 80.9744 54.706H85.7594C87.3251 54.706 88.5944 53.4367 88.5944 51.871V47.086C88.5944 45.5202 87.3251 44.251 85.7594 44.251Z" fill="#2BF5BA"></path>
</g>
<g id="Vector_22">
<path d="M58.0494 52.8057C57.9694 52.8057 57.9044 52.7857 57.8544 52.7457C57.8044 52.7057 57.7694 52.6557 57.7444 52.5907L57.1244 50.9857H54.1394L53.5194 52.5907C53.4994 52.6457 53.4644 52.6957 53.4144 52.7407C53.3594 52.7857 53.2944 52.8057 53.2194 52.8057H52.5244L55.1844 46.1557H56.0944L58.7544 52.8057H58.0494ZM56.8694 50.3357L55.8244 47.6307C55.7944 47.5507 55.7594 47.4557 55.7294 47.3507C55.6944 47.2457 55.6644 47.1307 55.6294 47.0107C55.5644 47.2607 55.4994 47.4707 55.4294 47.6357L54.3844 50.3357H56.8694Z" fill="white"></path>
<path d="M69.2744 46.1557C69.6844 46.1557 70.0344 46.1957 70.3294 46.2757C70.6244 46.3557 70.8694 46.4707 71.0594 46.6207C71.2494 46.7707 71.3894 46.9507 71.4794 47.1657C71.5694 47.3807 71.6144 47.6207 71.6144 47.8907C71.6144 48.0557 71.5894 48.2107 71.5394 48.3607C71.4894 48.5107 71.4094 48.6507 71.3094 48.7807C71.2094 48.9107 71.0794 49.0257 70.9194 49.1307C70.7644 49.2357 70.5794 49.3207 70.3694 49.3857C70.8594 49.4807 71.2244 49.6507 71.4694 49.9057C71.7144 50.1607 71.8394 50.4957 71.8394 50.9107C71.8394 51.1907 71.7894 51.4507 71.6844 51.6807C71.5794 51.9107 71.4294 52.1107 71.2294 52.2807C71.0294 52.4457 70.7844 52.5757 70.4944 52.6707C70.2044 52.7607 69.8744 52.8057 69.4994 52.8057H67.1494V46.1557H69.2744ZM68.0494 46.8657V49.1357H69.2394C69.4944 49.1357 69.7144 49.1057 69.8994 49.0507C70.0844 48.9957 70.2394 48.9157 70.3644 48.8207C70.4844 48.7207 70.5794 48.6007 70.6344 48.4607C70.6944 48.3207 70.7244 48.1657 70.7244 48.0007C70.7244 47.6057 70.6044 47.3207 70.3694 47.1407C70.1344 46.9607 69.7694 46.8707 69.2744 46.8707H68.0494V46.8657ZM69.4894 52.0907C69.7444 52.0907 69.9694 52.0607 70.1544 52.0007C70.3394 51.9407 70.4944 51.8607 70.6094 51.7507C70.7294 51.6457 70.8144 51.5157 70.8694 51.3707C70.9244 51.2257 70.9544 51.0607 70.9544 50.8857C70.9544 50.5407 70.8344 50.2707 70.5894 50.0707C70.3444 49.8707 69.9794 49.7707 69.4894 49.7707H68.0494V52.0857H69.4894V52.0907Z" fill="white"></path>
<path d="M85.6644 51.4307C85.7144 51.4307 85.7594 51.4507 85.7944 51.4907L86.1494 51.8757C85.8794 52.1907 85.5444 52.4357 85.1594 52.6157C84.7694 52.7907 84.2994 52.8807 83.7494 52.8807C83.2744 52.8807 82.8394 52.7957 82.4494 52.6307C82.0594 52.4657 81.7244 52.2307 81.4494 51.9357C81.1744 51.6357 80.9594 51.2807 80.8094 50.8607C80.6594 50.4457 80.5844 49.9857 80.5844 49.4807C80.5844 48.9757 80.6644 48.5207 80.8194 48.1007C80.9794 47.6807 81.1994 47.3257 81.4844 47.0257C81.7694 46.7257 82.1144 46.4907 82.5144 46.3257C82.9144 46.1607 83.3544 46.0757 83.8394 46.0757C84.3244 46.0757 84.7294 46.1507 85.0944 46.3007C85.4544 46.4507 85.7744 46.6607 86.0494 46.9207L85.7544 47.3357C85.7344 47.3657 85.7094 47.3907 85.6844 47.4107C85.6544 47.4307 85.6144 47.4407 85.5644 47.4407C85.5094 47.4407 85.4394 47.4107 85.3594 47.3507C85.2794 47.2907 85.1744 47.2257 85.0444 47.1507C84.9144 47.0757 84.7544 47.0107 84.5594 46.9507C84.3644 46.8907 84.1244 46.8607 83.8394 46.8607C83.4944 46.8607 83.1794 46.9207 82.8994 47.0407C82.6144 47.1607 82.3694 47.3307 82.1644 47.5607C81.9594 47.7857 81.7994 48.0607 81.6844 48.3857C81.5694 48.7107 81.5144 49.0757 81.5144 49.4857C81.5144 49.8957 81.5744 50.2707 81.6944 50.5957C81.8144 50.9207 81.9744 51.1957 82.1794 51.4207C82.3844 51.6457 82.6294 51.8157 82.9094 51.9357C83.1894 52.0557 83.4944 52.1107 83.8194 52.1107C84.0194 52.1107 84.1944 52.1007 84.3544 52.0757C84.5144 52.0507 84.6594 52.0157 84.7944 51.9657C84.9294 51.9157 85.0544 51.8557 85.1694 51.7757C85.2844 51.7007 85.3994 51.6107 85.5144 51.5057C85.5694 51.4607 85.6194 51.4357 85.6744 51.4357L85.6644 51.4307Z" fill="white"></path>
</g>
</g>
<g id="Group_2">
<path id="Vector_23" d="M152.41 11.0654H111.22C107.906 11.0654 105.22 13.7517 105.22 17.0654V41.1604C105.22 44.4741 107.906 47.1604 111.22 47.1604H152.41C155.723 47.1604 158.41 44.4741 158.41 41.1604V17.0654C158.41 13.7517 155.723 11.0654 152.41 11.0654Z" fill="white"></path>
<path id="Vector_24" d="M110.59 11.0654H153.035C156 11.0654 158.405 13.4704 158.405 16.4354V17.4404H105.215V16.4354C105.215 13.4704 107.62 11.0654 110.585 11.0654H110.59Z" fill="#07064E"></path>
<path id="Vector_25" d="M148.55 15.8153C149.411 15.8153 150.11 15.1169 150.11 14.2553C150.11 13.3937 149.411 12.6953 148.55 12.6953C147.688 12.6953 146.99 13.3937 146.99 14.2553C146.99 15.1169 147.688 15.8153 148.55 15.8153Z" fill="white"></path>
<path id="Vector_26" d="M153.07 15.8153C153.931 15.8153 154.63 15.1169 154.63 14.2553C154.63 13.3937 153.931 12.6953 153.07 12.6953C152.208 12.6953 151.51 13.3937 151.51 14.2553C151.51 15.1169 152.208 15.8153 153.07 15.8153Z" fill="#2BF5BA"></path>
<path id="Vector_27" d="M119.105 26.0806H112.825C111.259 26.0806 109.99 27.3498 109.99 28.9156V35.1956C109.99 36.7613 111.259 38.0306 112.825 38.0306H119.105C120.67 38.0306 121.94 36.7613 121.94 35.1956V28.9156C121.94 27.3498 120.67 26.0806 119.105 26.0806Z" fill="#EDEDED"></path>
<path id="Vector_28" d="M119.105 23.9502H112.825C111.259 23.9502 109.99 25.2195 109.99 26.7852V33.0652C109.99 34.6309 111.259 35.9002 112.825 35.9002H119.105C120.67 35.9002 121.94 34.6309 121.94 33.0652V26.7852C121.94 25.2195 120.67 23.9502 119.105 23.9502Z" fill="#07064E"></path>
<g id="Vector_29">
<path d="M134.955 23.9507H128.675C127.109 23.9507 125.84 25.22 125.84 26.7857V33.0657C125.84 34.6314 127.109 35.9007 128.675 35.9007H134.955C136.521 35.9007 137.79 34.6314 137.79 33.0657V26.7857C137.79 25.22 136.521 23.9507 134.955 23.9507Z" fill="#2BF5BA"></path>
<path d="M150.805 23.9507H144.525C142.959 23.9507 141.69 25.22 141.69 26.7857V33.0657C141.69 34.6314 142.959 35.9007 144.525 35.9007H150.805C152.371 35.9007 153.64 34.6314 153.64 33.0657V26.7857C153.64 25.22 152.371 23.9507 150.805 23.9507Z" fill="#2BF5BA"></path>
</g>
<g id="Vector_30">
<path d="M118.73 33.7305C118.64 33.7305 118.565 33.7055 118.505 33.6605C118.45 33.6155 118.405 33.5555 118.38 33.4855L117.67 31.6505H114.26L113.55 33.4855C113.53 33.5505 113.49 33.6055 113.43 33.6555C113.37 33.7055 113.295 33.7305 113.205 33.7305H112.41L115.45 26.1305H116.49L119.53 33.7305H118.73ZM117.38 30.9055L116.185 27.8155C116.15 27.7255 116.11 27.6155 116.075 27.4955C116.035 27.3755 116 27.2455 115.965 27.1055C115.89 27.3905 115.815 27.6305 115.735 27.8205L114.54 30.9055H117.38Z" fill="white"></path>
<path d="M131.56 26.1255C132.025 26.1255 132.43 26.1705 132.765 26.2655C133.105 26.3555 133.38 26.4905 133.6 26.6555C133.82 26.8255 133.975 27.0355 134.08 27.2805C134.18 27.5255 134.235 27.8005 134.235 28.1105C134.235 28.3005 134.205 28.4755 134.145 28.6505C134.085 28.8205 134 28.9805 133.88 29.1305C133.765 29.2805 133.615 29.4105 133.435 29.5305C133.255 29.6505 133.045 29.7455 132.805 29.8205C133.365 29.9255 133.785 30.1255 134.065 30.4155C134.345 30.7055 134.485 31.0905 134.485 31.5655C134.485 31.8855 134.425 32.1805 134.305 32.4455C134.185 32.7105 134.015 32.9405 133.785 33.1305C133.555 33.3205 133.275 33.4705 132.945 33.5755C132.615 33.6805 132.235 33.7305 131.81 33.7305H129.125V26.1305H131.55L131.56 26.1255ZM130.16 26.9405V29.5355H131.52C131.81 29.5355 132.06 29.5055 132.275 29.4405C132.49 29.3755 132.665 29.2905 132.805 29.1755C132.945 29.0605 133.05 28.9255 133.115 28.7655C133.18 28.6055 133.215 28.4305 133.215 28.2355C133.215 27.7855 133.08 27.4605 132.81 27.2505C132.54 27.0455 132.125 26.9405 131.56 26.9405H130.16ZM131.805 32.9105C132.1 32.9105 132.35 32.8755 132.565 32.8105C132.775 32.7455 132.95 32.6505 133.085 32.5255C133.22 32.4055 133.32 32.2605 133.385 32.0905C133.45 31.9205 133.48 31.7355 133.48 31.5355C133.48 31.1405 133.34 30.8305 133.06 30.6055C132.78 30.3755 132.36 30.2655 131.805 30.2655H130.16V32.9105H131.805Z" fill="white"></path>
<path d="M150.285 32.1605C150.34 32.1605 150.39 32.1855 150.435 32.2305L150.845 32.6705C150.535 33.0305 150.155 33.3105 149.715 33.5155C149.27 33.7155 148.735 33.8155 148.105 33.8155C147.56 33.8155 147.065 33.7205 146.62 33.5305C146.175 33.3405 145.795 33.0755 145.48 32.7355C145.165 32.3955 144.92 31.9855 144.75 31.5055C144.575 31.0305 144.49 30.5005 144.49 29.9305C144.49 29.3605 144.58 28.8305 144.76 28.3555C144.94 27.8805 145.195 27.4655 145.52 27.1255C145.845 26.7805 146.24 26.5155 146.695 26.3255C147.15 26.1355 147.655 26.0405 148.205 26.0405C148.755 26.0405 149.225 26.1255 149.635 26.3005C150.05 26.4755 150.415 26.7105 150.73 27.0055L150.39 27.4755C150.37 27.5105 150.34 27.5405 150.31 27.5655C150.275 27.5905 150.23 27.6005 150.175 27.6005C150.11 27.6005 150.035 27.5655 149.94 27.4955C149.85 27.4255 149.73 27.3505 149.58 27.2655C149.43 27.1805 149.245 27.1055 149.025 27.0355C148.8 26.9655 148.53 26.9305 148.205 26.9305C147.815 26.9305 147.455 27.0005 147.13 27.1355C146.805 27.2705 146.525 27.4705 146.29 27.7255C146.055 27.9855 145.87 28.3005 145.74 28.6705C145.61 29.0405 145.545 29.4605 145.545 29.9255C145.545 30.3905 145.615 30.8205 145.75 31.1955C145.885 31.5655 146.07 31.8805 146.305 32.1355C146.54 32.3905 146.82 32.5855 147.14 32.7205C147.46 32.8555 147.805 32.9205 148.175 32.9205C148.4 32.9205 148.605 32.9055 148.79 32.8805C148.97 32.8555 149.14 32.8105 149.295 32.7555C149.45 32.7005 149.59 32.6255 149.725 32.5405C149.86 32.4555 149.99 32.3505 150.12 32.2305C150.18 32.1755 150.24 32.1505 150.3 32.1505L150.285 32.1605Z" fill="white"></path>
</g>
</g>
<g id="Group_3">
<path id="Vector_31" d="M135.055 59.9956H109.265C105.951 59.9956 103.265 62.6819 103.265 65.9956V79.6406C103.265 82.9543 105.951 85.6406 109.265 85.6406H135.055C138.368 85.6406 141.055 82.9543 141.055 79.6406V65.9956C141.055 62.6819 138.368 59.9956 135.055 59.9956Z" fill="white"></path>
<path id="Vector_32" d="M107.795 59.9956H136.525C139.025 59.9956 141.055 62.0256 141.055 64.5256H103.265C103.265 62.0256 105.295 59.9956 107.795 59.9956Z" fill="#07064E"></path>
<path id="Vector_33" d="M134.049 63.3704C134.662 63.3704 135.159 62.8734 135.159 62.2604C135.159 61.6474 134.662 61.1504 134.049 61.1504C133.436 61.1504 132.939 61.6474 132.939 62.2604C132.939 62.8734 133.436 63.3704 134.049 63.3704Z" fill="white"></path>
<path id="Vector_34" d="M137.265 63.3704C137.878 63.3704 138.375 62.8734 138.375 62.2604C138.375 61.6474 137.878 61.1504 137.265 61.1504C136.652 61.1504 136.155 61.6474 136.155 62.2604C136.155 62.8734 136.652 63.3704 137.265 63.3704Z" fill="#2BF5BA"></path>
<g id="Vector_35">
<path d="M112.31 69.1509H109.49C107.924 69.1509 106.655 70.4202 106.655 71.9859V74.8059C106.655 76.3716 107.924 77.6409 109.49 77.6409H112.31C113.876 77.6409 115.145 76.3716 115.145 74.8059V71.9859C115.145 70.4202 113.876 69.1509 112.31 69.1509Z" fill="#2BF5BA"></path>
<path d="M123.57 69.1509H120.75C119.184 69.1509 117.915 70.4202 117.915 71.9859V74.8059C117.915 76.3716 119.184 77.6409 120.75 77.6409H123.57C125.136 77.6409 126.405 76.3716 126.405 74.8059V71.9859C126.405 70.4202 125.136 69.1509 123.57 69.1509Z" fill="#2BF5BA"></path>
</g>
<path id="Vector_36" d="M134.83 71.2754H132.01C130.444 71.2754 129.175 72.5447 129.175 74.1104V76.9304C129.175 78.4961 130.444 79.7654 132.01 79.7654H134.83C136.396 79.7654 137.665 78.4961 137.665 76.9304V74.1104C137.665 72.5447 136.396 71.2754 134.83 71.2754Z" fill="#EDEDED"></path>
<path id="Vector_37" d="M134.83 69.1504H132.01C130.444 69.1504 129.175 70.4197 129.175 71.9854V74.8054C129.175 76.3711 130.444 77.6404 132.01 77.6404H134.83C136.396 77.6404 137.665 76.3711 137.665 74.8054V71.9854C137.665 70.4197 136.396 69.1504 134.83 69.1504Z" fill="#07064E"></path>
<g id="Vector_38">
<path d="M113.43 76.0956H112.865C112.8 76.0956 112.745 76.0806 112.705 76.0456C112.665 76.0106 112.635 75.9706 112.615 75.9206L112.11 74.6156H109.685L109.18 75.9206C109.165 75.9656 109.135 76.0056 109.095 76.0406C109.05 76.0756 109 76.0956 108.935 76.0956H108.37L110.53 70.6956H111.27L113.43 76.0956ZM111.905 74.0906L111.055 71.8956C111.03 71.8306 111.005 71.7556 110.975 71.6656C110.945 71.5806 110.92 71.4856 110.895 71.3906C110.84 71.5956 110.79 71.7656 110.735 71.9006L109.885 74.0956H111.9L111.905 74.0906Z" fill="white"></path>
<path d="M121.98 70.6956C122.31 70.6956 122.595 70.7256 122.835 70.7956C123.075 70.8606 123.27 70.9556 123.425 71.0756C123.58 71.1956 123.695 71.3456 123.765 71.5206C123.84 71.6956 123.875 71.8906 123.875 72.1106C123.875 72.2456 123.855 72.3706 123.815 72.4956C123.775 72.6156 123.71 72.7306 123.63 72.8356C123.545 72.9406 123.44 73.0356 123.315 73.1206C123.19 73.2056 123.04 73.2756 122.87 73.3256C123.265 73.4006 123.565 73.5406 123.765 73.7506C123.965 73.9556 124.065 74.2306 124.065 74.5656C124.065 74.7956 124.025 75.0006 123.94 75.1906C123.855 75.3806 123.735 75.5406 123.57 75.6756C123.41 75.8106 123.21 75.9156 122.975 75.9906C122.74 76.0656 122.47 76.1006 122.17 76.1006H120.265V70.7006H121.985L121.98 70.6956ZM120.985 71.2706V73.1156H121.95C122.155 73.1156 122.335 73.0956 122.485 73.0456C122.635 73.0006 122.765 72.9356 122.86 72.8556C122.96 72.7756 123.035 72.6756 123.08 72.5656C123.13 72.4506 123.15 72.3256 123.15 72.1906C123.15 71.8706 123.055 71.6406 122.865 71.4906C122.675 71.3456 122.38 71.2706 121.975 71.2706H120.98H120.985ZM122.155 75.5156C122.365 75.5156 122.545 75.4906 122.695 75.4456C122.845 75.3956 122.97 75.3306 123.065 75.2456C123.16 75.1606 123.235 75.0556 123.28 74.9356C123.325 74.8156 123.35 74.6856 123.35 74.5406C123.35 74.2606 123.25 74.0406 123.05 73.8806C122.85 73.7206 122.555 73.6356 122.155 73.6356H120.985V75.5156H122.155Z" fill="white"></path>
<path d="M135.285 74.9806C135.325 74.9806 135.36 74.9956 135.39 75.0306L135.68 75.3456C135.46 75.6006 135.19 75.8006 134.875 75.9456C134.56 76.0906 134.18 76.1606 133.73 76.1606C133.345 76.1606 132.99 76.0956 132.675 75.9606C132.36 75.8256 132.09 75.6356 131.865 75.3956C131.64 75.1506 131.47 74.8606 131.345 74.5206C131.22 74.1806 131.16 73.8106 131.16 73.4006C131.16 72.9906 131.225 72.6206 131.35 72.2806C131.48 71.9406 131.66 71.6506 131.89 71.4056C132.12 71.1606 132.4 70.9706 132.725 70.8406C133.05 70.7056 133.405 70.6406 133.8 70.6406C134.195 70.6406 134.525 70.7006 134.82 70.8256C135.115 70.9506 135.375 71.1156 135.595 71.3256L135.355 71.6606C135.34 71.6856 135.32 71.7056 135.295 71.7206C135.27 71.7356 135.24 71.7456 135.2 71.7456C135.155 71.7456 135.1 71.7206 135.035 71.6706C134.97 71.6206 134.885 71.5656 134.78 71.5056C134.675 71.4456 134.545 71.3906 134.385 71.3406C134.225 71.2906 134.03 71.2656 133.8 71.2656C133.52 71.2656 133.265 71.3156 133.035 71.4106C132.805 71.5056 132.605 71.6456 132.44 71.8306C132.275 72.0156 132.145 72.2356 132.05 72.5006C131.955 72.7656 131.91 73.0606 131.91 73.3956C131.91 73.7306 131.96 74.0306 132.055 74.2956C132.15 74.5606 132.285 74.7806 132.45 74.9656C132.615 75.1456 132.815 75.2856 133.04 75.3806C133.265 75.4756 133.515 75.5256 133.775 75.5256C133.935 75.5256 134.08 75.5156 134.21 75.4956C134.34 75.4756 134.46 75.4456 134.57 75.4056C134.68 75.3656 134.78 75.3156 134.875 75.2506C134.97 75.1906 135.065 75.1156 135.155 75.0306C135.2 74.9906 135.24 74.9756 135.285 74.9756V74.9806Z" fill="white"></path>
</g>
</g>
<path id="Vector_39" d="M80.4496 93.2305C80.3146 92.8105 80.0196 92.4355 79.6196 92.1705C79.0546 91.8005 78.4046 91.7355 77.8896 91.9405C77.8746 91.3855 77.5496 90.8155 76.9846 90.4505C76.4196 90.0805 75.7696 90.0155 75.2546 90.2205C75.2396 89.6655 74.9146 89.0955 74.3496 88.7305C73.9146 88.4455 73.4246 88.3455 72.9846 88.4105L76.5646 82.9205C77.1146 82.0755 76.8746 80.9405 76.0346 80.3905C75.1896 79.8405 74.0546 80.0805 73.5046 80.9205L66.2146 92.0955L65.5696 89.0355C65.3596 88.0505 64.3896 87.4155 63.4046 87.6255C62.9246 87.7255 62.5146 88.0055 62.2496 88.4155C61.9846 88.8255 61.8896 89.3105 61.9896 89.7905L63.6596 97.7255C63.6896 97.9455 63.7346 98.1655 63.7996 98.4005C63.8296 98.5455 63.8846 98.6905 63.9596 98.8405C64.2846 99.6005 64.8246 100.245 65.5196 100.7L69.5096 103.305C70.2196 103.765 71.0396 103.995 71.8546 103.995C72.8846 103.995 73.9096 103.63 74.6946 102.925C74.8446 102.79 74.9646 102.655 75.0746 102.48L80.3096 94.4605C80.5396 94.1105 80.5896 93.6705 80.4496 93.2355V93.2305Z" fill="#2AEDB4"></path>
<path id="Vector_40" d="M80.0996 92.1954C80.4896 91.6004 80.2096 90.7304 79.4796 90.2554C78.7596 89.7854 77.8746 89.8754 77.4746 90.4504C77.8396 89.8554 77.5596 89.0054 76.8446 88.5404C76.1246 88.0704 75.2396 88.1604 74.8396 88.7354C75.2046 88.1404 74.9246 87.2904 74.2096 86.8254C73.4996 86.3654 72.6296 86.4454 72.2246 86.9954L76.3496 80.6704C76.8246 79.9404 76.6196 78.9654 75.8896 78.4854C75.1596 78.0104 74.1846 78.2154 73.7046 78.9454L66.0846 90.6254L65.3146 86.9754C65.1346 86.1254 64.2996 85.5754 63.4446 85.7554C62.5946 85.9354 62.0446 86.7704 62.2246 87.6254L63.8996 95.5804C63.9246 95.7904 63.9696 95.9954 64.0296 96.1954L64.0396 96.2354C64.0696 96.3754 64.1246 96.5054 64.1846 96.6254C64.4796 97.3154 64.9746 97.9304 65.6546 98.3754L69.6446 100.98C71.1746 101.98 73.2296 101.795 74.5246 100.62C74.6496 100.505 74.7546 100.39 74.8646 100.225L80.0996 92.2054V92.1954Z" fill="white"></path>
<path id="Vector_41" d="M71.8549 101.871C71.0399 101.871 70.2199 101.646 69.5099 101.181L65.5198 98.5755C64.8248 98.1205 64.2849 97.4805 63.9599 96.7155C63.8849 96.5705 63.8299 96.4255 63.7999 96.2755C63.7349 96.0405 63.6849 95.8205 63.6599 95.6005L61.9899 87.6655C61.8899 87.1855 61.9799 86.7005 62.2499 86.2905C62.5199 85.8805 62.9249 85.6005 63.4049 85.5005C64.3899 85.2905 65.3599 85.9255 65.5699 86.9105L66.2148 89.9705L73.5048 78.7955C74.0548 77.9505 75.1899 77.7105 76.0349 78.2655C76.8799 78.8155 77.1199 79.9505 76.5649 80.7955L72.9849 86.2855C73.4249 86.2205 73.9149 86.3255 74.3499 86.6055C74.9149 86.9755 75.2398 87.5455 75.2548 88.0955C75.7648 87.8855 76.4199 87.9555 76.9849 88.3255C77.5499 88.6955 77.8749 89.2655 77.8899 89.8155C78.4049 89.6105 79.0549 89.6755 79.6199 90.0455C80.0199 90.3055 80.3148 90.6805 80.4498 91.1055C80.5898 91.5455 80.5398 91.9805 80.3098 92.3305L75.0748 100.351C74.9598 100.526 74.8449 100.661 74.6949 100.796C73.9149 101.506 72.8899 101.866 71.8549 101.866V101.871ZM63.7799 85.9655C63.6899 85.9655 63.5999 85.9755 63.5049 85.9955C63.1599 86.0705 62.8599 86.2705 62.6649 86.5705C62.4699 86.8655 62.4049 87.2205 62.4799 87.5705L64.1549 95.5255C64.1849 95.7405 64.2249 95.9355 64.2799 96.1205C64.2799 96.1255 64.2898 96.1755 64.2948 96.1805C64.3148 96.2855 64.3548 96.3905 64.4198 96.5105C64.7148 97.1955 65.1899 97.7655 65.7999 98.1605L69.7899 100.766C71.2049 101.691 73.1299 101.546 74.3649 100.431C74.4848 100.326 74.5749 100.221 74.6599 100.086L79.8948 92.0655C80.0398 91.8405 80.0698 91.5555 79.9748 91.2655C79.8748 90.9555 79.6549 90.6705 79.3498 90.4755C78.7549 90.0855 78.0049 90.1405 77.6899 90.6005C77.6149 90.7105 77.4599 90.7405 77.3499 90.6655C77.2349 90.5905 77.2049 90.4405 77.2749 90.3255C77.5649 89.8505 77.3199 89.1405 76.7199 88.7555C76.1249 88.3655 75.3748 88.4205 75.0598 88.8805C74.9848 88.9905 74.8299 89.0205 74.7199 88.9455C74.6049 88.8705 74.5748 88.7205 74.6448 88.6055C74.9348 88.1305 74.6898 87.4255 74.0898 87.0355C73.4948 86.6505 72.7749 86.6955 72.4449 87.1455C72.3649 87.2555 72.2099 87.2805 72.0999 87.2005C71.9899 87.1255 71.9599 86.9705 72.0349 86.8605L76.1599 80.5355C76.5599 79.9205 76.3849 79.1005 75.7749 78.7005C75.1599 78.3005 74.3399 78.4755 73.9399 79.0855L66.3199 90.7655C66.2649 90.8505 66.1649 90.8955 66.0649 90.8755C65.9649 90.8555 65.8848 90.7805 65.8648 90.6805L65.0949 87.0305C64.9649 86.4055 64.4099 85.9755 63.7948 85.9755L63.7799 85.9655Z" fill="#07064E"></path>
</g>
</g>
</g>
</g>
<defs>
<clipPath id="clip0_86_988">
<rect width="200" height="140" fill="white"></rect>
</clipPath>
</defs>
</svg>