<svg width="200" height="140" viewBox="0 0 200 140" fill="none" xmlns="http://www.w3.org/2000/svg">
<g id="illu_bg_add-participants-to-vote/Default" clip-path="url(#clip0_86_845)">
<g id="illu_bg_add-participants-to-vote">
<g id="background">
<path d="M174.955 15.8252C212.585 29.1902 186.435 103.905 162.27 118.335C144.53 128.925 98.6651 109.375 59.3451 117.315C28.6951 123.5 19.2251 122.41 30.3651 100.36C42.1701 76.9952 6.85006 65.8052 6.15006 39.2152C5.71006 22.6802 14.0601 0.205215 47.3151 10.1752C119.34 31.7602 143.22 4.55521 174.955 15.8252Z" fill="#2BF5BA"></path>
<path d="M17.8581 130.474C20.9149 128.245 22.2243 124.836 20.7827 122.859C19.3412 120.882 15.6946 121.086 12.6378 123.315C9.58109 125.544 8.27171 128.954 9.71325 130.931C11.1548 132.908 14.8014 132.703 17.8581 130.474Z" fill="#2BF5BA"></path>
<path d="M190.455 104.257C192.229 103.342 193.192 101.678 192.606 100.542C192.02 99.4059 190.106 99.2269 188.332 100.142C186.558 101.058 185.595 102.721 186.181 103.857C186.767 104.993 188.681 105.172 190.455 104.257Z" fill="#2BF5BA"></path>
<path d="M135.965 13.5932C136.524 12.5111 136.075 11.1687 134.964 10.595C133.852 10.0213 132.498 10.4334 131.94 11.5155C131.381 12.5977 131.829 13.9401 132.941 14.5138C134.053 15.0875 135.407 14.6754 135.965 13.5932Z" fill="#2BF5BA"></path>
</g>
<g id="illu_bg_add-participants-to-vote_2">
<g id="stroke">
<path id="Vector" d="M20.7652 94.8799C20.6402 94.8799 20.5352 94.7749 20.5352 94.6499C20.5352 94.5249 20.6402 94.4199 20.7652 94.4199L185.175 94.2349C185.3 94.2349 185.405 94.3399 185.405 94.4649C185.405 94.5899 185.3 94.6949 185.175 94.6949L20.7652 94.8799Z" fill="#07064E"></path>
<path id="Vector_2" d="M18.7901 94.8799H15.7901C15.6651 94.8799 15.5601 94.7749 15.5601 94.6499C15.5601 94.5249 15.6651 94.4199 15.7901 94.4199H18.7901C18.9151 94.4199 19.0201 94.5249 19.0201 94.6499C19.0201 94.7749 18.9151 94.8799 18.7901 94.8799Z" fill="#2BF5BA"></path>
<path id="Vector_3" d="M62.7453 24.6147H136.945C140 24.6147 142.475 27.0947 142.475 30.1447V70.5847H57.2153V30.1447C57.2153 27.0897 59.6953 24.6147 62.7453 24.6147Z" fill="#EDEDED"></path>
<path id="Vector_4" d="M119.71 96.6851C119.385 98.0801 118.135 99.1251 116.645 99.1251H83.055C81.565 99.1251 80.315 98.0751 79.99 96.6851C59.385 99.6751 81.68 102.645 99.85 102.515C118.025 102.645 140.305 99.6751 119.71 96.6851Z" fill="#2AEDB4"></path>
<g id="Vector_5">
<path d="M57.0352 70.4902V73.4902C57.0352 76.5302 59.5252 79.0202 62.5652 79.0202H92.6002V92.7452H107.09V79.0202H136.77C139.81 79.0202 142.3 76.5302 142.3 73.4902V70.4902H57.0352Z" fill="white"></path>
<path d="M116.64 92.7652H83.0502C81.3202 92.7652 79.9002 94.1802 79.9002 95.9152C79.9002 97.6502 81.3152 99.0652 83.0502 99.0652H116.64C118.37 99.0652 119.79 97.6502 119.79 95.9152C119.79 94.1802 118.375 92.7652 116.64 92.7652Z" fill="white"></path>
</g>
<path id="Vector_6" d="M46.45 21.3746C46.16 22.2546 45.815 23.1196 45.395 23.9596C40.56 38.1546 31.385 47.6596 19.75 54.8746H46.45V21.3696V21.3746Z" fill="#00EBA6"></path>
<path id="Vector_7" d="M81.3299 39.3647H65.1399C63.0965 39.3647 61.4399 41.0213 61.4399 43.0647V57.9997C61.4399 60.0432 63.0965 61.6997 65.1399 61.6997H81.3299C83.3734 61.6997 85.0299 60.0432 85.0299 57.9997V43.0647C85.0299 41.0213 83.3734 39.3647 81.3299 39.3647Z" fill="#DDDDDD"></path>
<path id="Vector_8" d="M81.3299 37.4048H65.1399C63.0965 37.4048 61.4399 39.0613 61.4399 41.1048V56.0398C61.4399 58.0832 63.0965 59.7398 65.1399 59.7398H81.3299C83.3734 59.7398 85.0299 58.0832 85.0299 56.0398V41.1048C85.0299 39.0613 83.3734 37.4048 81.3299 37.4048Z" fill="white"></path>
<path id="Vector_9" d="M64.7899 37.4048H81.6799C83.5299 37.4048 85.0299 38.9048 85.0299 40.7548H61.4399C61.4399 38.9048 62.9399 37.4048 64.7899 37.4048Z" fill="#07064E"></path>
<path id="Vector_10" d="M78.8351 39.8998C79.288 39.8998 79.6551 39.5326 79.6551 39.0798C79.6551 38.6269 79.288 38.2598 78.8351 38.2598C78.3823 38.2598 78.0151 38.6269 78.0151 39.0798C78.0151 39.5326 78.3823 39.8998 78.8351 39.8998Z" fill="white"></path>
<path id="Vector_11" d="M81.2053 39.8998C81.6581 39.8998 82.0253 39.5326 82.0253 39.0798C82.0253 38.6269 81.6581 38.2598 81.2053 38.2598C80.7524 38.2598 80.3853 38.6269 80.3853 39.0798C80.3853 39.5326 80.7524 39.8998 81.2053 39.8998Z" fill="#2BF5BA"></path>
<path id="Vector_12" d="M108.255 39.3647H91.5153C89.6238 39.3647 88.0903 40.8982 88.0903 42.7897V58.2747C88.0903 60.1663 89.6238 61.6997 91.5153 61.6997H108.255C110.147 61.6997 111.68 60.1663 111.68 58.2747V42.7897C111.68 40.8982 110.147 39.3647 108.255 39.3647Z" fill="#DDDDDD"></path>
<path id="Vector_13" d="M108.255 37.4048H91.5153C89.6238 37.4048 88.0903 38.9382 88.0903 40.8298V56.3148C88.0903 58.2064 89.6238 59.7398 91.5153 59.7398H108.255C110.147 59.7398 111.68 58.2064 111.68 56.3148V40.8298C111.68 38.9382 110.147 37.4048 108.255 37.4048Z" fill="white"></path>
<path id="Vector_14" d="M91.435 37.4048H108.325C110.175 37.4048 111.675 38.9048 111.675 40.7548H88.085C88.085 38.9048 89.585 37.4048 91.435 37.4048Z" fill="#07064E"></path>
<path id="Vector_15" d="M105.71 39.8998C106.163 39.8998 106.53 39.5326 106.53 39.0798C106.53 38.6269 106.163 38.2598 105.71 38.2598C105.257 38.2598 104.89 38.6269 104.89 39.0798C104.89 39.5326 105.257 39.8998 105.71 39.8998Z" fill="white"></path>
<path id="Vector_16" d="M108.085 39.8998C108.538 39.8998 108.905 39.5326 108.905 39.0798C108.905 38.6269 108.538 38.2598 108.085 38.2598C107.632 38.2598 107.265 38.6269 107.265 39.0798C107.265 39.5326 107.632 39.8998 108.085 39.8998Z" fill="#2BF5BA"></path>
<path id="Vector_17" d="M135.03 39.3647H117.75C116.008 39.3647 114.595 40.7773 114.595 42.5197V58.5447C114.595 60.2872 116.008 61.6997 117.75 61.6997H135.03C136.773 61.6997 138.185 60.2872 138.185 58.5447V42.5197C138.185 40.7773 136.773 39.3647 135.03 39.3647Z" fill="#DDDDDD"></path>
<path id="Vector_18" d="M135.03 37.4048H117.75C116.008 37.4048 114.595 38.8173 114.595 40.5598V56.5848C114.595 58.3272 116.008 59.7398 117.75 59.7398H135.03C136.773 59.7398 138.185 58.3272 138.185 56.5848V40.5598C138.185 38.8173 136.773 37.4048 135.03 37.4048Z" fill="white"></path>
<path id="Vector_19" d="M117.945 37.4048H134.835C136.685 37.4048 138.185 38.9048 138.185 40.7548H114.595C114.595 38.9048 116.095 37.4048 117.945 37.4048Z" fill="#07064E"></path>
<path id="Vector_20" d="M132.22 39.8998C132.673 39.8998 133.04 39.5326 133.04 39.0798C133.04 38.6269 132.673 38.2598 132.22 38.2598C131.768 38.2598 131.4 38.6269 131.4 39.0798C131.4 39.5326 131.768 39.8998 132.22 39.8998Z" fill="white"></path>
<path id="Vector_21" d="M134.595 39.8998C135.048 39.8998 135.415 39.5326 135.415 39.0798C135.415 38.6269 135.048 38.2598 134.595 38.2598C134.143 38.2598 133.775 38.6269 133.775 39.0798C133.775 39.5326 134.143 39.8998 134.595 39.8998Z" fill="#2BF5BA"></path>
<path id="Vector_22" d="M79.8901 44.4297H66.5851C65.9501 44.4297 65.4351 44.9447 65.4351 45.5797V52.6847C65.4351 53.3197 65.9501 53.8347 66.5851 53.8347H79.8901C80.5251 53.8347 81.0401 53.3197 81.0401 52.6847V45.5797C81.0401 44.9447 80.5251 44.4297 79.8901 44.4297ZM66.5801 44.8897H79.8851C80.2651 44.8897 80.5751 45.1997 80.5751 45.5797V45.9797L73.4351 52.0847C73.3351 52.1697 73.1851 52.1697 73.0851 52.0847L65.8851 45.9197V45.5797C65.8851 45.1997 66.1951 44.8897 66.5751 44.8897H66.5801ZM79.8901 53.3747H66.5851C66.2051 53.3747 65.8951 53.0647 65.8951 52.6847V46.5297L72.7951 52.4397C72.9301 52.5547 73.1001 52.6147 73.2701 52.6147C73.4401 52.6147 73.6051 52.5547 73.7451 52.4397L80.5851 46.5897V52.6847C80.5851 53.0647 80.2751 53.3747 79.8951 53.3747H79.8901Z" fill="#07064E"></path>
<g id="Group">
<g id="Vector_23">
<path d="M97.1851 47.21H93.9551C93.8301 47.21 93.7251 47.105 93.7251 46.98V43.75C93.7251 43.625 93.8301 43.52 93.9551 43.52H97.1851C97.3101 43.52 97.4151 43.625 97.4151 43.75V46.98C97.4151 47.105 97.3101 47.21 97.1851 47.21ZM94.1851 46.75H96.9551V43.98H94.1851V46.75Z" fill="#07064E"></path>
<path d="M105.81 47.21H102.58C102.455 47.21 102.35 47.105 102.35 46.98V43.75C102.35 43.625 102.455 43.52 102.58 43.52H105.81C105.935 43.52 106.04 43.625 106.04 43.75V46.98C106.04 47.105 105.935 47.21 105.81 47.21ZM102.81 46.75H105.58V43.98H102.81V46.75Z" fill="#07064E"></path>
<path d="M97.1851 55.67H93.9551C93.8301 55.67 93.7251 55.565 93.7251 55.44V52.21C93.7251 52.085 93.8301 51.98 93.9551 51.98H97.1851C97.3101 51.98 97.4151 52.085 97.4151 52.21V55.44C97.4151 55.565 97.3101 55.67 97.1851 55.67ZM94.1851 55.21H96.9551V52.44H94.1851V55.21Z" fill="#07064E"></path>
<path d="M105.81 55.67H102.58C102.455 55.67 102.35 55.565 102.35 55.44V52.21C102.35 52.085 102.455 51.98 102.58 51.98H105.81C105.935 51.98 106.04 52.085 106.04 52.21V55.44C106.04 55.565 105.935 55.67 105.81 55.67ZM102.81 55.21H105.58V52.44H102.81V55.21Z" fill="#07064E"></path>
<path d="M99.3152 48.5949H93.9552C93.8302 48.5949 93.7252 48.4899 93.7252 48.3649C93.7252 48.2399 93.8302 48.1349 93.9552 48.1349H99.0852V45.4099C99.0852 45.2849 99.1902 45.1799 99.3152 45.1799C99.4402 45.1799 99.5452 45.2849 99.5452 45.4099V48.3649C99.5452 48.4899 99.4402 48.5949 99.3152 48.5949Z" fill="#07064E"></path>
<path d="M99.9951 54.2499C99.8701 54.2499 99.7651 54.1449 99.7651 54.0199V50.1699H98.1101C97.9851 50.1699 97.8801 50.0649 97.8801 49.9399C97.8801 49.8149 97.9851 49.7099 98.1101 49.7099H99.9951C100.12 49.7099 100.225 49.8149 100.225 49.9399V54.0199C100.225 54.1449 100.12 54.2499 99.9951 54.2499Z" fill="#07064E"></path>
<path d="M98.4199 55.825C98.2949 55.825 98.1899 55.72 98.1899 55.595V51.745H95.3549C95.2299 51.745 95.1249 51.64 95.1249 51.515C95.1249 51.39 95.2299 51.285 95.3549 51.285H98.4249C98.5499 51.285 98.6549 51.39 98.6549 51.515V55.595C98.6549 55.72 98.5499 55.825 98.4249 55.825H98.4199Z" fill="#07064E"></path>
<path d="M103.15 49.52H101.265C101.14 49.52 101.035 49.415 101.035 49.29V45.21C101.035 45.085 101.14 44.98 101.265 44.98C101.39 44.98 101.495 45.085 101.495 45.21V49.06H103.15C103.275 49.06 103.38 49.165 103.38 49.29C103.38 49.415 103.275 49.52 103.15 49.52Z" fill="#07064E"></path>
<path d="M105.515 50.96H101.66C101.535 50.96 101.43 50.855 101.43 50.73C101.43 50.605 101.535 50.5 101.66 50.5H105.515C105.64 50.5 105.745 50.605 105.745 50.73C105.745 50.855 105.64 50.96 105.515 50.96Z" fill="#07064E"></path>
<path d="M104.725 48.595H103.63C103.505 48.595 103.4 48.49 103.4 48.365C103.4 48.24 103.505 48.135 103.63 48.135H104.725C104.85 48.135 104.955 48.24 104.955 48.365C104.955 48.49 104.85 48.595 104.725 48.595Z" fill="#07064E"></path>
</g>
<g id="Vector_24">
<path d="M97.2352 50.17H96.1402C96.0152 50.17 95.9102 50.065 95.9102 49.94C95.9102 49.815 96.0152 49.71 96.1402 49.71H97.2352C97.3602 49.71 97.4651 49.815 97.4651 49.94C97.4651 50.065 97.3602 50.17 97.2352 50.17Z" fill="#2BF5BA"></path>
<path d="M98.2651 45.865C98.1401 45.865 98.0351 45.76 98.0351 45.635V43.75C98.0351 43.625 98.1401 43.52 98.2651 43.52C98.3901 43.52 98.4951 43.625 98.4951 43.75V45.635C98.4951 45.76 98.3901 45.865 98.2651 45.865Z" fill="#2BF5BA"></path>
<path d="M101.415 54.925C101.29 54.925 101.185 54.82 101.185 54.695V53.595C101.185 53.47 101.29 53.365 101.415 53.365C101.54 53.365 101.645 53.47 101.645 53.595V54.695C101.645 54.82 101.54 54.925 101.415 54.925Z" fill="#2BF5BA"></path>
</g>
</g>
<g id="Group_2">
<g id="Vector_25">
<path d="M128.66 48.46L123.516 53.6042C123.346 53.774 123.345 54.0487 123.514 54.2176C123.683 54.3865 123.958 54.3857 124.128 54.2158L129.272 49.0716C129.442 48.9017 129.443 48.6271 129.274 48.4582C129.105 48.2893 128.83 48.2901 128.66 48.46Z" fill="#EDEDED"></path>
<path d="M128.659 46.499L123.515 51.6432C123.345 51.8131 123.344 52.0877 123.513 52.2566C123.682 52.4255 123.957 52.4248 124.127 52.2549L129.271 47.1107C129.441 46.9408 129.442 46.6662 129.273 46.4973C129.104 46.3284 128.829 46.3291 128.659 46.499Z" fill="#EDEDED"></path>
</g>
<path id="Vector_26" d="M126.015 46.9098L127.79 45.1348C128.55 44.3748 129.78 44.2898 130.585 44.9948C131.465 45.7698 131.5 47.1148 130.685 47.9298L128.86 49.7548C128.69 49.9248 128.69 50.1998 128.86 50.3698C129.03 50.5398 129.305 50.5398 129.475 50.3698L131.285 48.5598C132.41 47.4348 132.495 45.5948 131.39 44.4548C130.265 43.2898 128.415 43.2748 127.275 44.4148L125.4 46.2898C125.23 46.4598 125.23 46.7348 125.4 46.9048C125.57 47.0748 125.845 47.0748 126.015 46.9048V46.9098Z" fill="white"></path>
<path id="Vector_27" d="M126.765 51.8497L124.99 53.6247C124.23 54.3847 123 54.4697 122.195 53.7647C121.315 52.9897 121.28 51.6447 122.095 50.8297L123.92 49.0047C124.09 48.8347 124.09 48.5597 123.92 48.3897C123.75 48.2197 123.475 48.2197 123.305 48.3897L121.495 50.1997C120.37 51.3247 120.285 53.1647 121.39 54.3047C122.515 55.4697 124.365 55.4847 125.505 54.3447L127.38 52.4697C127.55 52.2997 127.55 52.0247 127.38 51.8547C127.21 51.6847 126.935 51.6847 126.765 51.8547V51.8497Z" fill="white"></path>
<g id="Vector_28">
<path d="M123.82 52.6149C123.65 52.6149 123.48 52.5499 123.35 52.4199C123.225 52.2949 123.155 52.1299 123.155 51.9499C123.155 51.7699 123.225 51.6049 123.35 51.4799L128.495 46.3349C128.745 46.0849 129.18 46.0849 129.435 46.3349C129.56 46.4599 129.63 46.6249 129.63 46.8049C129.63 46.9849 129.56 47.1499 129.435 47.2749L124.29 52.4199C124.16 52.5499 123.99 52.6149 123.82 52.6149ZM128.965 46.6049C128.91 46.6049 128.86 46.6249 128.82 46.6649L123.675 51.8099C123.635 51.8499 123.615 51.8999 123.615 51.9549C123.615 52.0099 123.635 52.0599 123.675 52.0999C123.755 52.1799 123.885 52.1799 123.96 52.0999L129.105 46.9549C129.145 46.9149 129.165 46.8649 129.165 46.8099C129.165 46.7549 129.145 46.7049 129.105 46.6649C129.065 46.6249 129.015 46.6049 128.96 46.6049H128.965Z" fill="#07064E"></path>
<path d="M129.17 50.7299C128.99 50.7299 128.825 50.6599 128.7 50.5349C128.44 50.2749 128.44 49.8499 128.7 49.5899L130.525 47.7649C130.875 47.4149 131.06 46.9449 131.045 46.4499C131.03 45.9549 130.815 45.4949 130.435 45.1649C129.735 44.5499 128.645 44.6049 127.955 45.2949L126.18 47.0699C125.92 47.3299 125.5 47.3299 125.235 47.0699C124.975 46.8099 124.975 46.3849 125.235 46.1249L127.11 44.2499C127.705 43.6549 128.515 43.3349 129.34 43.3399C130.18 43.3499 130.97 43.6849 131.555 44.2949C132.725 45.5099 132.675 47.4949 131.445 48.7249L129.635 50.5349C129.51 50.6599 129.34 50.7299 129.165 50.7299H129.17ZM129.29 44.2799C129.815 44.2799 130.33 44.4599 130.745 44.8199C131.22 45.2349 131.49 45.8099 131.51 46.4349C131.53 47.0499 131.29 47.6549 130.855 48.0949L129.03 49.9199C128.95 49.9999 128.95 50.1299 129.03 50.2099C129.11 50.2899 129.245 50.2899 129.32 50.2099L131.13 48.3999C132.185 47.3449 132.23 45.6499 131.235 44.6149C130.735 44.0999 130.065 43.8099 129.35 43.7999C129.34 43.7999 129.335 43.7999 129.325 43.7999C128.615 43.7999 127.95 44.0749 127.45 44.5749L125.575 46.4499C125.495 46.5299 125.495 46.6599 125.575 46.7399C125.655 46.8199 125.785 46.8199 125.865 46.7399L127.64 44.9649C128.1 44.5049 128.7 44.2749 129.295 44.2749L129.29 44.2799Z" fill="#07064E"></path>
<path d="M123.47 55.4149C123.47 55.4149 123.45 55.4149 123.44 55.4149C122.595 55.4049 121.81 55.0699 121.225 54.4599C120.055 53.2449 120.105 51.2599 121.335 50.0299L123.145 48.2199C123.395 47.9699 123.835 47.9699 124.09 48.2199C124.35 48.4799 124.35 48.9049 124.09 49.1649L122.265 50.9899C121.915 51.3399 121.73 51.8099 121.745 52.3049C121.76 52.7999 121.975 53.2599 122.355 53.5899C123.055 54.2049 124.145 54.1499 124.835 53.4599L126.61 51.6849C126.87 51.4249 127.295 51.4249 127.555 51.6849C127.815 51.9449 127.815 52.3699 127.555 52.6299L125.68 54.5049C125.09 55.0949 124.31 55.4149 123.48 55.4149H123.47ZM123.615 48.4899C123.56 48.4899 123.51 48.5099 123.47 48.5499L121.66 50.3599C120.605 51.4149 120.56 53.1099 121.555 54.1449C122.055 54.6599 122.725 54.9499 123.44 54.9599C124.14 54.9549 124.835 54.6899 125.34 54.1849L127.215 52.3099C127.295 52.2299 127.295 52.0999 127.215 52.0199C127.135 51.9399 127.005 51.9399 126.925 52.0199L125.15 53.7949C124.29 54.6549 122.925 54.7199 122.04 53.9449C121.565 53.5299 121.295 52.9549 121.275 52.3299C121.255 51.7149 121.495 51.1099 121.93 50.6699L123.755 48.8449C123.835 48.7649 123.835 48.6349 123.755 48.5549C123.715 48.5149 123.665 48.4949 123.61 48.4949L123.615 48.4899Z" fill="#07064E"></path>
<path d="M123.41 47.2249L122.225 46.7899C122.195 46.7799 122.175 46.7449 122.19 46.7099C122.205 46.6749 122.235 46.6599 122.27 46.6749L123.455 47.1099C123.485 47.1199 123.505 47.1549 123.49 47.1899C123.475 47.2249 123.445 47.2399 123.41 47.2249Z" fill="#07064E"></path>
<path d="M124.17 46.4648L123.735 45.2798C123.725 45.2498 123.69 45.2298 123.655 45.2448C123.62 45.2598 123.605 45.2898 123.62 45.3248L124.055 46.5098C124.065 46.5398 124.1 46.5598 124.135 46.5448C124.17 46.5298 124.185 46.4998 124.17 46.4648Z" fill="#07064E"></path>
<path d="M128.735 52.5548L129.17 53.7398C129.18 53.7698 129.215 53.7898 129.25 53.7748C129.285 53.7598 129.3 53.7298 129.285 53.6948L128.85 52.5098C128.84 52.4798 128.805 52.4598 128.77 52.4748C128.735 52.4898 128.72 52.5198 128.735 52.5548Z" fill="#07064E"></path>
<path d="M129.495 51.7949L130.68 52.2299C130.71 52.2399 130.73 52.2749 130.715 52.3099C130.7 52.3449 130.67 52.3599 130.635 52.3449L129.45 51.9099C129.42 51.8999 129.4 51.8649 129.415 51.8299C129.43 51.7949 129.46 51.7799 129.495 51.7949Z" fill="#07064E"></path>
</g>
<g id="Vector_29">
<path d="M121.33 46.4599L120.64 46.2049C120.61 46.1949 120.59 46.1599 120.605 46.1249C120.62 46.0899 120.65 46.0749 120.685 46.0899L121.375 46.3449C121.405 46.3549 121.425 46.3899 121.41 46.4249C121.395 46.4599 121.365 46.4749 121.33 46.4599Z" fill="#2BF5BA"></path>
<path d="M123.405 44.3849L123.15 43.6949C123.14 43.6649 123.105 43.6449 123.07 43.6599C123.035 43.6749 123.02 43.7049 123.035 43.7399L123.29 44.4299C123.3 44.4599 123.335 44.4799 123.37 44.4649C123.405 44.4499 123.42 44.4199 123.405 44.3849Z" fill="#2BF5BA"></path>
<path d="M129.505 54.6349L129.76 55.3249C129.77 55.3549 129.805 55.3749 129.84 55.3599C129.875 55.3449 129.89 55.3149 129.875 55.2799L129.62 54.5899C129.61 54.5599 129.575 54.5399 129.54 54.5549C129.505 54.5699 129.49 54.5999 129.505 54.6349Z" fill="#2BF5BA"></path>
<path d="M131.575 52.5599L132.265 52.8149C132.295 52.8249 132.315 52.8599 132.3 52.8949C132.285 52.9299 132.255 52.9449 132.22 52.9299L131.53 52.6749C131.5 52.6649 131.48 52.6299 131.495 52.5949C131.51 52.5599 131.54 52.5449 131.575 52.5599Z" fill="#2BF5BA"></path>
</g>
</g>
<g id="Vector_30">
<path d="M43.74 51.7799H19.445C19.32 51.7799 19.215 51.6749 19.215 51.5499V21.1299C19.215 21.0049 19.32 20.8999 19.445 20.8999H43.74C43.865 20.8999 43.97 21.0049 43.97 21.1299V51.5499C43.97 51.6749 43.865 51.7799 43.74 51.7799ZM19.675 51.3199H43.51V21.3649H19.675V51.3199Z" fill="#07064E"></path>
<path d="M26.8548 38.0248C24.0198 38.0248 21.7098 35.7148 21.7098 32.8798C21.7098 30.0448 24.0198 27.7348 26.8548 27.7348C29.6898 27.7348 31.9998 30.0448 31.9998 32.8798C31.9998 35.7148 29.6898 38.0248 26.8548 38.0248ZM26.8548 28.1948C24.2698 28.1948 22.1698 30.2948 22.1698 32.8798C22.1698 35.4648 24.2698 37.5648 26.8548 37.5648C29.4398 37.5648 31.5398 35.4648 31.5398 32.8798C31.5398 30.2948 29.4398 28.1948 26.8548 28.1948Z" fill="#07064E"></path>
<path d="M37.495 48.4349C35.73 48.4349 34.295 46.9999 34.295 45.2349C34.295 43.4699 35.73 42.0349 37.495 42.0349C39.26 42.0349 40.695 43.4699 40.695 45.2349C40.695 46.9999 39.26 48.4349 37.495 48.4349ZM37.495 42.4899C35.985 42.4899 34.755 43.7199 34.755 45.2299C34.755 46.7399 35.985 47.9699 37.495 47.9699C39.005 47.9699 40.235 46.7399 40.235 45.2299C40.235 43.7199 39.005 42.4899 37.495 42.4899Z" fill="#07064E"></path>
<path d="M35.9348 37.73C35.8098 37.73 35.7048 37.625 35.7048 37.5V26.375C35.7048 26.25 35.8098 26.145 35.9348 26.145C36.0598 26.145 36.1648 26.25 36.1648 26.375V37.5C36.1648 37.625 36.0598 37.73 35.9348 37.73Z" fill="#07064E"></path>
<path d="M38.5447 40.3399C38.4197 40.3399 38.3147 40.2349 38.3147 40.1099V28.9849C38.3147 28.8599 38.4197 28.7549 38.5447 28.7549C38.6697 28.7549 38.7747 28.8599 38.7747 28.9849V40.1099C38.7747 40.2349 38.6697 40.3399 38.5447 40.3399Z" fill="#07064E"></path>
<path d="M46.3798 55.09H16.7998C16.6748 55.09 16.5698 54.985 16.5698 54.86V17.825C16.5698 17.7 16.6748 17.595 16.7998 17.595H23.3148C24.6198 16.025 27.9198 14.98 31.5898 14.98C35.2598 14.98 38.5598 16.03 39.8648 17.595H46.3798C46.5048 17.595 46.6098 17.7 46.6098 17.825V54.86C46.6098 54.985 46.5048 55.09 46.3798 55.09ZM17.0298 54.63H46.1498V18.055H39.7548C39.6848 18.055 39.6148 18.02 39.5748 17.965C38.4048 16.455 35.1948 15.435 31.5898 15.435C27.9848 15.435 24.7798 16.45 23.6048 17.965C23.5598 18.02 23.4948 18.055 23.4248 18.055H17.0298V54.63Z" fill="#07064E"></path>
</g>
<path id="Vector_31" d="M92.8102 78.915C92.8102 78.96 92.8052 79 92.8052 79.045C92.8052 82.6 95.9602 85.485 99.8502 85.485C103.74 85.485 106.895 82.6 106.895 79.045C106.895 79 106.89 78.955 106.89 78.915H92.8202H92.8102Z" fill="#EBEBEB"></path>
<path id="Vector_32" d="M136.945 24.3848H62.7453C59.5703 24.3848 56.9854 26.9698 56.9854 30.1448V73.5548C56.9854 76.7298 59.5703 79.3148 62.7453 79.3148H92.3503V92.5248H83.0554C81.1904 92.5248 79.6754 94.0398 79.6754 95.9048C79.6754 97.7698 81.1904 99.2848 83.0554 99.2848H116.645C118.51 99.2848 120.025 97.7698 120.025 95.9048C120.025 94.0398 118.51 92.5248 116.645 92.5248H107.35V79.3148H136.955C140.13 79.3148 142.715 76.7298 142.715 73.5548V30.1448C142.715 26.9698 140.13 24.3848 136.955 24.3848H136.945ZM62.7453 24.8448H136.945C139.87 24.8448 142.245 27.2248 142.245 30.1448V70.3248H57.4454V30.1448C57.4454 27.2198 59.8253 24.8448 62.7453 24.8448ZM116.64 92.9948C118.25 92.9948 119.56 94.3048 119.56 95.9148C119.56 97.5248 118.25 98.8348 116.64 98.8348H83.0504C81.4404 98.8348 80.1303 97.5248 80.1303 95.9148C80.1303 94.3048 81.4404 92.9948 83.0504 92.9948H116.64ZM92.8103 92.5298V79.3198H106.885V92.5298H92.8103ZM136.945 78.8598H62.7453C59.8203 78.8598 57.4454 76.4798 57.4454 73.5598V70.7898H142.25V73.5598C142.25 76.4848 139.87 78.8598 136.95 78.8598H136.945Z" fill="#07064E"></path>
<g id="Group_3">
<g id="Vector_33">
<path d="M50.7152 108.77L50.6802 110.585L70.3952 110.565C70.6452 110.565 70.9652 110.245 70.9652 109.995L70.9552 109.155C64.1202 107.98 57.8602 109.47 50.7102 108.77H50.7152Z" fill="#00EBA6"></path>
<path d="M46.1302 105.85L46.1152 107.065L70.9052 107.045C71.2152 107.045 71.6202 106.725 71.6202 106.475L71.5952 105.83C63.0052 104.655 54.7102 106.295 46.1302 105.845V105.85Z" fill="#00EBA6"></path>
<path d="M60.4652 85.5254C60.4202 89.7804 59.7452 94.2804 57.8702 97.0754C56.1002 99.5604 50.3102 102.155 50.2202 102.205C52.2702 103.115 52.1502 103.325 54.4252 103.325C59.6452 103.325 63.8802 99.0904 63.8802 93.8704V85.4404L60.4602 85.5304L60.4652 85.5254Z" fill="#00EBA6"></path>
</g>
<path id="Vector_34" d="M50.4905 81.5101C47.5805 79.2301 49.8555 75.0851 51.6705 72.7151C53.3105 68.6651 46.6005 68.5051 47.0955 63.7001C47.4605 60.1951 52.9605 56.1851 55.9555 59.8551C57.9605 62.3151 55.8705 64.3401 56.5755 66.7501C56.9255 67.9551 58.7555 68.3751 59.2955 69.5951C60.8855 73.1701 55.5855 75.8151 54.5305 79.4451C53.5905 82.6801 55.5955 84.1101 56.1805 86.1851C57.1355 89.5951 54.7805 84.8651 50.4855 81.5051L50.4905 81.5101Z" fill="#AAFBE3"></path>
<path id="Vector_35" d="M44.9702 85.4351H63.8802V93.8651C63.8802 99.0851 59.6452 103.32 54.4252 103.32C49.2052 103.32 44.9702 99.0851 44.9702 93.8651V85.4351Z" fill="#2BF5BA"></path>
<path id="Vector_36" d="M74.5153 111.27C74.5153 111.86 65.2303 112.34 52.1153 112.34C39.0003 112.34 27.3403 111.875 27.3403 111.285C27.3403 110.695 38.8203 110.565 51.9353 110.565C65.0503 110.565 74.5153 110.68 74.5153 111.27Z" fill="#2AEDB4"></path>
<path id="Vector_37" d="M70.9504 103.27H57.2904C61.2554 102.05 64.1404 98.3553 64.1404 93.9953V92.2903H65.8004C67.7504 92.2903 69.3354 90.7053 69.3354 88.7553C69.3354 87.1903 68.0654 85.9203 66.5004 85.9203C65.5154 85.9203 64.6504 86.4253 64.1404 87.1853V85.1953H44.7304V93.9903C44.7304 98.3503 47.6204 102.045 51.5804 103.265H32.8354C32.7054 103.265 32.5954 103.37 32.5954 103.505C32.5954 103.64 32.7004 103.745 32.8354 103.745H44.7454V104.405H34.2704C34.1404 104.405 34.0304 104.51 34.0304 104.645C34.0304 104.78 34.1354 104.885 34.2704 104.885H44.7454V105.49H34.2704C34.1404 105.49 34.0304 105.595 34.0304 105.73C34.0304 105.865 34.1354 105.97 34.2704 105.97H44.7454V106.81H29.4354C29.3054 106.81 29.1954 106.915 29.1954 107.05C29.1954 107.185 29.3004 107.29 29.4354 107.29H32.8054C32.8054 107.29 32.8254 107.295 32.8354 107.295H49.4404V107.95H30.8654C30.7354 107.95 30.6254 108.055 30.6254 108.19C30.6254 108.325 30.7304 108.43 30.8654 108.43H49.4404V109.035H30.8654C30.7354 109.035 30.6254 109.14 30.6254 109.275C30.6254 109.41 30.7304 109.515 30.8654 109.515H49.4404V110.36H29.4304C29.3004 110.36 29.1904 110.465 29.1904 110.6C29.1904 110.735 29.2954 110.84 29.4304 110.84H70.2354C70.7404 110.84 71.1554 110.43 71.1554 109.92V107.74C71.1554 107.575 71.1104 107.425 71.0354 107.295C71.4954 107.245 71.8604 106.86 71.8604 106.385V104.205C71.8604 103.7 71.4504 103.285 70.9404 103.285L70.9504 103.27ZM64.1454 88.7553C64.1454 87.4553 65.2054 86.3953 66.5054 86.3953C67.8054 86.3953 68.8654 87.4553 68.8654 88.7553C68.8654 90.4403 67.4954 91.8153 65.8054 91.8153H64.1454V88.7553ZM45.2104 93.9953V85.6753H63.6704V93.9953C63.6704 99.0853 59.5304 103.225 54.4404 103.225C49.3504 103.225 45.2104 99.0853 45.2104 93.9953ZM45.7454 106.805H45.2254V103.745H45.7454V106.805ZM50.4404 110.345H49.9204V107.285H50.4404V110.345ZM71.3904 106.37C71.3904 106.615 71.1904 106.815 70.9504 106.815H70.3104C70.3104 106.815 70.2704 106.81 70.2504 106.81H64.9904C64.8604 106.81 64.7504 106.915 64.7504 107.05C64.7504 107.185 64.8554 107.29 64.9904 107.29C64.9904 107.29 67.1304 107.295 67.1454 107.295H70.2804C70.5104 107.31 70.6904 107.5 70.6904 107.73V109.91C70.6904 110.155 70.4904 110.355 70.2504 110.355H50.9204V107.295H59.5904C59.7204 107.29 59.8304 107.18 59.8304 107.05C59.8304 106.92 59.7254 106.81 59.5904 106.81H46.2254V103.75H70.9504C71.1954 103.75 71.3904 103.95 71.3904 104.19V106.37Z" fill="#07064E"></path>
</g>
<path id="Vector_38" opacity="0.07" d="M166.27 102.495C171.511 102.495 175.76 101.546 175.76 100.375C175.76 99.204 171.511 98.2549 166.27 98.2549C161.029 98.2549 156.78 99.204 156.78 100.375C156.78 101.546 161.029 102.495 166.27 102.495Z" fill="black"></path>
<g id="Vector_39">
<path d="M176.425 84.46L172.845 100.325H159.7L156.125 84.495" fill="#2BF5BA"></path>
<path d="M178.11 77.2051H154.435V84.4801H178.11V77.2051Z" fill="#2BF5BA"></path>
</g>
<g id="Vector_40">
<path d="M178.07 77.1851L170.4 77.2851C171.765 85.0001 171.74 94.8251 168.585 100.195L172.84 100.325L178.065 77.1851H178.07Z" fill="#00EBA6"></path>
<path d="M178.11 77.1851L169.195 77.2001C169.62 79.6001 169.225 82.0201 169.33 84.4601H178.11V77.1851Z" fill="#00EBA6"></path>
</g>
<path id="Vector_41" d="M146.61 58.2847C143.575 58.4047 141.68 60.2997 140.66 62.0147C139.315 64.2747 139.335 68.8697 139.58 70.7047C139.695 71.5847 140.1 79.5097 139.965 80.6097C140.56 79.8747 144.77 77.9947 147.005 77.4947C151.365 76.5297 153.475 75.8047 155.765 73.7397C158.46 71.3097 161.31 65.7897 157.885 62.1897C156.08 60.2947 151.03 60.3447 151.03 60.3447C151.03 60.3447 149.225 58.1797 146.61 58.2797V58.2847Z" fill="#2BF5BA"></path>
<g id="Vector_42">
<path d="M159.435 65.855C159.395 64.595 158.715 63.23 157.9 62.27C157.045 61.26 155.42 60.49 152.265 60.375C153.085 64.68 153.005 70.09 149.175 72.64C145 75.425 142.635 76.465 139.975 79.925C139.975 80.235 139.975 80.475 139.955 80.61C140.55 79.875 145.66 77.85 147.885 77.3C151.43 76.43 152.825 76.195 155.2 74.22C157.635 72.19 159.55 69.48 159.44 65.855H159.435Z" fill="#00EBA6"></path>
<path d="M156.505 38.2449C157.595 38.2449 158.75 37.7099 159.555 37.0599C160.4 36.3799 161.015 35.0599 161.005 32.4599C157.31 33.0399 152.625 32.8499 150.285 29.6449C147.735 26.1449 146.755 24.1749 143.67 21.9099C143.4 21.9099 143.195 21.8949 143.075 21.8799C143.73 22.3849 145.655 26.6349 146.205 28.4799C147.08 31.4199 147.33 32.5749 149.12 34.5699C150.96 36.6199 153.365 38.2549 156.5 38.2449H156.505Z" fill="#00EBA6"></path>
<path d="M176.15 47.1799C175.085 47.3899 173.84 47.0999 172.925 46.6249C171.965 46.1249 171.1 44.9499 170.595 42.4049C175.335 44.3949 180.18 43.0299 181.835 39.4249C183.645 35.4899 182.92 31.4649 185.495 28.6349C185.76 28.5749 185.955 28.5249 186.07 28.4849C185.525 29.1099 184.48 33.6599 184.305 35.5749C184.03 38.6299 184.015 39.8099 182.655 42.1199C181.26 44.4949 179.22 46.5749 176.145 47.1799H176.15Z" fill="#00EBA6"></path>
<path d="M172.55 63.0001C172.125 62.1551 172.075 61.0451 172.26 60.1651C172.455 59.2401 173.235 58.2401 175.255 57.2251C176.265 60.3201 177.93 61.7051 181.34 62.2501C185.065 62.8451 187.315 65.0001 190.29 66.4951C190.4 66.7001 190.49 66.8551 190.55 66.9401C189.9 66.6301 185.84 66.8201 184.195 67.1201C181.57 67.6051 180.575 67.8651 178.32 67.2701C176.005 66.6551 173.78 65.4351 172.55 62.9951V63.0001Z" fill="#00EBA6"></path>
<path d="M161.66 52.015C162.175 51.285 162.44 50.255 162.465 49.4C162.495 48.505 162.33 48.445 162.16 48.19C160.715 50.94 156.86 51.97 153.99 51.965C150.86 51.955 149.315 51.65 146.605 52.6C146.475 52.78 146.37 52.91 146.305 52.98C146.895 52.79 150.14 53.58 151.41 54.115C153.435 54.97 154.185 55.365 156.13 55.145C158.13 54.92 160.17 54.11 161.66 52.01V52.015Z" fill="#00EBA6"></path>
</g>
<path id="Vector_43" d="M172.945 100.145C172.945 100.145 166.61 100.375 164.525 100.37C163.165 100.37 160.125 100.585 159.79 100.315C159.68 100.34 159.49 98.8948 159.385 98.9198C157.775 99.2998 156.78 99.8098 156.78 100.375C156.78 101.545 161.03 102.495 166.27 102.495C171.51 102.495 175.76 101.545 175.76 100.375C175.76 99.8198 174.805 99.3198 173.25 98.9398C173.085 98.8998 172.94 100.145 172.94 100.145H172.945Z" fill="#2AEDB4"></path>
<g id="Vector_44">
<path d="M156.365 38.485C153.785 38.485 150.995 36.87 149.385 35.2C147.485 33.225 146.765 31.405 145.785 27.805C145.27 25.91 143.525 22.515 142.935 22.06C142.85 21.995 142.825 21.885 142.865 21.79C142.905 21.695 143 21.635 143.11 21.65C144.04 21.78 150.88 21.625 151.615 21.55C153.16 21.395 157.235 21.465 159.31 22.665C160.53 23.375 162.615 24.985 162.85 27.83C163.015 29.82 161.6 31.205 161.22 31.545C161.245 32.25 161.285 35.835 159.775 37.215C158.785 38.12 157.6 38.485 156.365 38.485ZM143.61 22.15C144.445 23.305 145.8 26.11 146.23 27.69C147.235 31.37 147.91 33.015 149.715 34.885C151.97 37.22 156.62 39.47 159.46 36.875C160.94 35.525 160.75 31.495 160.75 31.455C160.75 31.38 160.78 31.31 160.835 31.265C160.85 31.25 162.55 29.875 162.385 27.875C162.17 25.24 160.215 23.735 159.07 23.075C157.095 21.93 153.15 21.87 151.655 22.02C151.045 22.08 145.57 22.22 143.605 22.155L143.61 22.15Z" fill="#07064E"></path>
<path d="M139.955 80.8399C139.925 80.8399 139.895 80.8349 139.865 80.8199C139.77 80.7799 139.715 80.6799 139.725 80.5799C139.855 79.5099 139.455 71.5849 139.34 70.7299C139.105 68.9399 139.06 64.2299 140.455 61.8949C141.275 60.5199 143.165 58.1899 146.595 58.0549C149.035 57.9549 150.755 59.7049 151.125 60.1199C151.89 60.1199 156.315 60.2249 158.04 62.0349C159.19 63.2399 159.735 64.7249 159.67 66.4499C159.56 69.3649 157.7 72.2949 155.905 73.9099C153.57 76.0149 151.375 76.7549 147.04 77.7149C144.75 78.2249 140.665 80.0849 140.13 80.7499C140.085 80.8049 140.02 80.8349 139.95 80.8349L139.955 80.8399ZM146.615 58.5149C143.4 58.6449 141.625 60.8349 140.85 62.1299C139.52 64.3649 139.57 68.9299 139.8 70.6699C139.895 71.3849 140.245 77.9399 140.21 80.0949C141.515 79.1949 145 77.6999 146.945 77.2699C151.4 76.2849 153.375 75.5749 155.605 73.5699C157.325 72.0199 159.11 69.2149 159.215 66.4349C159.275 64.8399 158.77 63.4649 157.71 62.3549C155.995 60.5549 151.075 60.5849 151.025 60.5799C150.965 60.5799 150.89 60.5499 150.845 60.4949C150.825 60.4749 149.09 58.4099 146.615 58.5149Z" fill="#07064E"></path>
<path d="M154.435 77.2051H178.11V78.0601L178.295 77.2351C178.31 77.1651 178.295 77.0951 178.25 77.0401C178.205 76.9851 178.14 76.9551 178.07 76.9551H154.475C154.405 76.9551 154.34 76.9851 154.295 77.0401C154.25 77.0951 154.235 77.1651 154.25 77.2351L154.435 78.0601V77.2051Z" fill="#07064E"></path>
<path d="M190.74 66.81C190.27 66.14 187.69 60.78 187.455 60.18C186.965 58.92 185.295 55.775 183.535 54.64C182.5 53.97 180.415 52.985 178.105 53.935C176.605 54.55 176.055 55.995 175.89 56.56C175.21 56.455 174.54 56.485 173.88 56.655C170.85 57.43 169.085 60.78 168.615 61.79C168.605 61.81 168.6 61.83 168.59 61.85C168.31 59.935 168.055 58.115 167.85 56.45C167.39 52.7 167.88 46.76 170.27 41.89C170.49 43.01 171.19 45.89 172.745 46.825C173.545 47.305 174.385 47.51 175.225 47.51C178.14 47.51 181.1 45.035 182.525 42.795C184 40.485 184.34 38.555 184.59 34.835C184.72 32.875 185.76 29.205 186.245 28.64C186.315 28.56 186.32 28.445 186.26 28.36C186.2 28.275 186.09 28.24 185.995 28.27C185.11 28.58 178.375 29.785 177.64 29.855C176.095 30.01 172.11 30.885 170.32 32.47C169.26 33.405 167.54 35.4 167.87 38.23C168.075 39.97 169.375 41.015 169.99 41.415C167.445 46.435 166.915 52.615 167.39 56.5C167.62 58.395 167.925 60.485 168.245 62.695C166.92 66.4 166.825 72.19 166.905 76.98H166.585C166.445 76.34 166.35 75.345 166.245 74.195C166.01 71.65 165.69 68.16 164.52 65.845C164.155 65.115 163.675 64.25 163.11 63.355C163.095 58.95 163.575 53.965 165.19 49.015C168.155 39.93 165.025 34.96 161.215 31.55C161.6 31.21 163.01 29.825 162.845 27.835C162.61 24.99 160.525 23.38 159.305 22.67C157.235 21.47 153.155 21.405 151.61 21.555C150.875 21.63 144.035 21.785 143.105 21.655C142.995 21.64 142.9 21.7 142.86 21.795C142.82 21.89 142.85 22.005 142.93 22.065C143.52 22.52 145.265 25.915 145.78 27.81C146.76 31.41 147.475 33.23 149.38 35.205C150.99 36.875 153.775 38.49 156.36 38.49C157.59 38.49 158.78 38.12 159.77 37.22C161.005 36.09 161.2 33.485 161.22 32.19C164.735 35.475 167.485 40.23 164.83 48.625C163.94 47.03 162.755 46.025 161.29 45.65C160.955 45.565 160.625 45.52 160.3 45.5C160.285 44.965 160.135 43.49 159.02 42.665C157.315 41.405 155.41 42.02 154.42 42.495C152.765 43.295 150.78 45.995 150.13 47.1C149.82 47.625 146.645 52.265 146.135 52.825C146.065 52.9 146.055 53.015 146.11 53.105C146.165 53.195 146.275 53.23 146.375 53.2C146.88 53.035 149.575 53.54 150.815 54.1C152.745 54.975 153.99 55.415 155.41 55.415C155.795 55.415 156.2 55.38 156.63 55.315C159.13 54.93 162.79 52.765 162.715 49.34C162.685 48.035 161.5 46.705 160.77 46.01C160.905 46.03 161.04 46.06 161.175 46.095C162.63 46.465 163.795 47.525 164.64 49.24C163.185 53.865 162.69 58.505 162.655 62.66C161.125 60.435 159.03 58.245 156.545 57.86C154.7 57.57 152.865 58.325 151.095 60.08C150.665 59.61 148.975 57.96 146.6 58.055C143.17 58.19 141.28 60.52 140.46 61.895C139.065 64.23 139.11 68.94 139.345 70.73C139.455 71.585 139.86 79.51 139.73 80.58C139.715 80.68 139.775 80.78 139.87 80.82C139.9 80.83 139.93 80.84 139.96 80.84C140.03 80.84 140.095 80.81 140.14 80.755C140.675 80.095 144.76 78.23 147.05 77.72C151.39 76.76 153.58 76.015 155.915 73.915C157.71 72.3 159.565 69.365 159.68 66.455C159.745 64.73 159.195 63.245 158.05 62.04C156.585 60.5 153.17 60.195 151.71 60.14C153.28 58.695 154.88 58.075 156.475 58.32C159.015 58.715 161.155 61.16 162.655 63.49C162.68 68.165 163.255 72.17 163.63 74.745C163.765 75.69 163.875 76.445 163.92 76.975H154.44C154.315 76.975 154.21 77.08 154.21 77.205V84.48C154.21 84.605 154.315 84.71 154.44 84.71H155.94L159.48 100.375C159.505 100.48 159.595 100.555 159.705 100.555H172.85C172.96 100.555 173.05 100.48 173.075 100.375L176.615 84.71H178.115C178.24 84.71 178.345 84.605 178.345 84.48V77.205C178.345 77.08 178.24 76.975 178.115 76.975H170.185C170.325 73.74 169.515 68.175 168.735 62.79C168.735 62.77 168.73 62.75 168.725 62.735C168.825 62.47 168.925 62.215 169.035 61.975C169.355 61.29 171.09 57.835 173.995 57.09C174.42 56.98 174.85 56.94 175.285 56.96C174.26 57.51 172.405 58.67 172.03 60.045C171.065 63.55 174.855 66.47 177.72 67.345C178.74 67.655 179.645 67.795 180.62 67.795C181.825 67.795 183.135 67.58 184.895 67.21C186.525 66.87 189.89 66.88 190.46 67.145C190.555 67.19 190.665 67.165 190.735 67.085C190.805 67.005 190.81 66.89 190.75 66.805L190.74 66.81ZM168.33 38.175C168.02 35.55 169.635 33.69 170.625 32.815C172.335 31.3 176.19 30.465 177.685 30.315C178.295 30.255 183.695 29.305 185.6 28.855C185.01 30.15 184.235 33.17 184.13 34.805C183.875 38.61 183.535 40.355 182.135 42.55C180.39 45.285 176.27 48.41 172.98 46.43C171.26 45.395 170.65 41.415 170.645 41.375C170.64 41.33 170.62 41.295 170.59 41.26C171.77 39.05 173.365 37.1 175.475 35.735C175.58 35.665 175.61 35.525 175.54 35.415C175.47 35.31 175.325 35.28 175.22 35.345C173.055 36.75 171.42 38.745 170.205 41.005C169.645 40.625 168.505 39.68 168.33 38.18V38.175ZM159.465 36.875C156.63 39.47 151.975 37.22 149.72 34.885C147.915 33.01 147.235 31.37 146.235 27.69C145.805 26.115 144.45 23.305 143.615 22.15C145.575 22.22 151.055 22.075 151.665 22.015C153.16 21.865 157.105 21.925 159.08 23.07C160.225 23.735 162.175 25.24 162.395 27.87C162.55 29.735 161.085 31.055 160.87 31.24C159.765 30.29 158.62 29.46 157.56 28.69C156.465 27.895 155.425 27.145 154.67 26.415C154.58 26.325 154.43 26.33 154.345 26.42C154.255 26.51 154.26 26.655 154.35 26.745C155.13 27.5 156.18 28.26 157.29 29.065C158.405 29.87 159.61 30.75 160.765 31.765C160.775 32.73 160.71 35.74 159.47 36.875H159.465ZM162.26 49.35C162.33 52.5 158.9 54.5 156.565 54.86C154.7 55.145 153.49 54.8 151.01 53.68C150.025 53.235 147.93 52.75 146.815 52.715C147.82 51.385 150.28 47.765 150.53 47.335C151.16 46.265 153.065 43.665 154.625 42.91C155.515 42.48 157.24 41.92 158.75 43.035C159.67 43.715 159.82 45 159.84 45.49C158.245 45.525 156.89 46.205 156.415 46.545C155.81 46.97 155.25 47.51 154.715 48.025C153.94 48.77 153.21 49.47 152.46 49.735C152.34 49.775 152.275 49.91 152.32 50.03C152.355 50.125 152.44 50.185 152.535 50.185C152.56 50.185 152.585 50.185 152.61 50.17C153.455 49.87 154.22 49.135 155.03 48.355C155.555 47.85 156.1 47.325 156.675 46.915C157.105 46.615 158.46 45.935 160.015 45.945C160.425 46.29 162.225 47.895 162.26 49.345V49.35ZM159.22 66.435C159.115 69.215 157.33 72.025 155.61 73.57C153.385 75.575 151.405 76.28 146.95 77.27C145.005 77.7 141.52 79.195 140.215 80.095C140.25 77.94 139.9 71.39 139.805 70.67C139.575 68.93 139.525 64.365 140.855 62.13C141.625 60.835 143.405 58.64 146.62 58.515C148.805 58.425 150.41 60.01 150.775 60.405C149.04 62.255 148.485 64.02 147.9 65.88C147.26 67.925 146.535 70.245 144.09 73.18C144.01 73.28 144.02 73.425 144.12 73.505C144.22 73.585 144.365 73.575 144.445 73.475C146.945 70.47 147.69 68.105 148.34 66.02C148.945 64.085 149.475 62.405 151.24 60.58C152.2 60.6 156.205 60.765 157.715 62.35C158.775 63.465 159.28 64.835 159.22 66.43V66.435ZM164.085 74.68C163.735 72.26 163.205 68.565 163.125 64.245C163.51 64.89 163.845 65.51 164.115 66.05C165.24 68.29 165.56 71.725 165.79 74.235C165.89 75.34 165.98 76.305 166.12 76.975H164.38C164.335 76.425 164.225 75.65 164.085 74.675V74.68ZM177.88 84.25H163.85C163.725 84.25 163.62 84.355 163.62 84.48C163.62 84.605 163.725 84.71 163.85 84.71H176.135L172.66 100.09H159.885L156.41 84.71H158.62C158.745 84.71 158.85 84.605 158.85 84.48C158.85 84.355 158.745 84.25 158.62 84.25H154.665V77.435H177.875V84.25H177.88ZM167.375 76.975C167.295 72.595 167.375 67.37 168.405 63.735C169.145 68.83 169.855 73.96 169.725 76.975H167.375ZM184.795 66.76C181.55 67.435 180.01 67.56 177.85 66.9C175.16 66.08 171.585 63.375 172.47 60.165C172.9 58.605 175.705 57.245 176.1 57.06C176.995 57.245 177.91 57.675 178.84 58.36C178.945 58.435 179.085 58.415 179.16 58.31C179.235 58.205 179.215 58.065 179.11 57.99C178.175 57.3 177.25 56.855 176.34 56.635C176.5 56.115 177.01 54.865 178.275 54.35C178.895 54.095 179.505 53.995 180.07 53.995C181.44 53.995 182.6 54.58 183.28 55.02C184.945 56.095 186.545 59.125 187.02 60.34C187.21 60.83 189.225 65.04 190.07 66.585C188.815 66.4 186.195 66.46 184.79 66.755L184.795 66.76Z" fill="#07064E"></path>
</g>
</g>
</g>
</g>
</g>
<defs>
<clipPath id="clip0_86_845">
<rect width="200" height="140" fill="white"></rect>
</clipPath>
</defs>
</svg>