<svg width="200" height="140" viewBox="0 0 200 140" fill="none" xmlns="http://www.w3.org/2000/svg">
<g id="illu_bg_observer/Default" clip-path="url(#clip0_86_555)">
<g id="illu_bg_observer">
<g id="background">
<path d="M14.632 107.843C15.8296 107.225 16.4145 105.976 15.9384 105.054C15.4624 104.131 14.1056 103.884 12.908 104.502C11.7105 105.119 11.1255 106.368 11.6016 107.291C12.0776 108.214 13.4344 108.461 14.632 107.843Z" fill="#2BF5BA"></path>
<path d="M15.644 124.101C16.5337 122.425 16.2744 120.546 15.0647 119.904C13.855 119.261 12.1531 120.099 11.2633 121.774C10.3736 123.45 10.6329 125.329 11.8426 125.971C13.0523 126.614 14.7542 125.776 15.644 124.101Z" fill="#2BF5BA"></path>
<path d="M184.175 24.8909C190.347 22.5069 193.967 16.993 192.26 12.5753C190.554 8.15753 184.167 6.50889 177.995 8.89292C171.823 11.2769 168.203 16.7909 169.91 21.2086C171.616 25.6263 178.003 27.2749 184.175 24.8909Z" fill="#2BF5BA"></path>
<path d="M42.9949 13.3801C15.7248 36.7701 -1.76515 63.9751 12.2849 80.9601C34.5849 107.915 3.39985 148.24 88.6798 131.49C120.02 125.335 156.285 130.35 181.32 102.05C194.235 87.4551 188.755 35.8451 148.84 16.8851C111.765 -0.729888 55.3249 2.81011 42.9949 13.3801Z" fill="#2BF5BA"></path>
</g>
<g id="illu_bg_observer_2">
<g id="stroke">
<path id="Vector" d="M108.634 23.1186C108.707 20.2228 105.66 17.7967 101.829 17.6997C97.9971 17.6027 94.8315 19.8716 94.7582 22.7674C94.6849 25.6632 97.7316 28.0894 101.563 28.1864C105.395 28.2833 108.56 26.0145 108.634 23.1186Z" fill="#EDEDED"></path>
<path id="Vector_2" d="M99.3952 21.7351C104.815 17.5851 108.61 22.3001 108.61 22.2901C108.685 19.3951 105.455 17.8001 101.62 17.7001C97.7903 17.6051 94.8703 19.8701 94.8003 22.7651C94.7503 24.8201 96.0202 26.6301 98.2702 27.5451C96.8352 25.5201 97.7602 22.8201 99.3952 21.7301V21.7351Z" fill="white"></path>
<path id="Vector_3" d="M101.8 28.435C101.72 28.435 101.64 28.435 101.56 28.435C97.5951 28.335 94.4351 25.79 94.5101 22.76C94.5851 19.73 97.8601 17.355 101.84 17.45C103.745 17.5 105.53 18.105 106.855 19.165C108.205 20.24 108.925 21.645 108.89 23.125C108.815 26.09 105.66 28.435 101.805 28.435H101.8ZM95.0051 22.77C94.9351 25.52 97.8801 27.835 101.565 27.93C105.25 28.025 108.31 25.86 108.38 23.11C108.415 21.79 107.76 20.53 106.535 19.555C105.29 18.565 103.615 17.995 101.815 17.95C98.1351 17.855 95.0701 20.02 95.0001 22.77H95.0051Z" fill="#07064E"></path>
<path id="Vector_4" d="M95.4653 25.725C95.1003 24.985 95.4553 24.08 96.2353 23.81C99.7053 22.61 103.31 22.59 107.07 23.9C107.865 24.175 108.21 25.115 107.81 25.855L107.79 25.89" fill="#2BF5BA"></path>
<path id="Vector_5" d="M117.04 80.245H85.5952V43.465C85.5952 40.35 86.1802 37.24 87.4952 34.415C90.1052 28.825 94.8052 24.655 101.315 24.655C107.205 24.655 111.85 28.185 114.56 32.97C116.255 35.96 117.04 39.38 117.04 42.82V80.245Z" fill="#EDEDED"></path>
<path id="Vector_6" d="M107.07 28.9501C110.615 30.0751 113.225 31.9051 115.265 34.1501C114.89 32.9551 114.375 32.1001 113.64 31.0151C111.165 27.3701 106.905 24.3801 101.525 24.3801C95.5801 24.3801 91.5351 27.7701 88.7301 31.8251C87.6751 33.3501 86.7851 35.1651 86.5801 36.9351C89.6801 30.5001 99.3251 26.5251 107.07 28.9451V28.9501Z" fill="white"></path>
<path id="Vector_7" d="M136.63 89.4551C136.745 84.3551 132.625 80.1651 127.525 80.1901L113.325 77.7351C110.635 83.8551 106.155 86.7751 106.155 86.7751L101.48 98.0951L96.7801 86.4751C96.7801 86.4751 91.7201 82.2351 90.0601 77.7851C85.6901 78.1251 81.8801 78.5151 79.4351 80.7451L82.4151 65.0101L73.3001 62.5151L61.4451 106.58C59.9901 111.99 62.8501 117.39 70.4351 117.695L73.4851 116.99C74.4851 116.99 74.9801 116.065 75.8001 115.5L78.3551 111.705L78.7151 117.7H135.71L136.62 89.4401L136.63 89.4551Z" fill="white"></path>
<path id="Vector_8" d="M113.325 77.735C111.32 82.675 108.725 84.83 106.345 86.595C105.885 86.935 101.48 98.245 101.48 98.245C101.48 98.245 97.1651 86.78 96.7801 86.48C94.5201 84.725 92.2201 81.88 90.0601 77.79C93.0101 76.715 94.8301 74.505 94.7251 65.925C98.8001 70.555 103.535 70.495 108.985 65.355C108.235 72.935 109.1 76.755 113.325 77.735Z" fill="white"></path>
<g id="Vector_9">
<path d="M82.3902 65.18L73.3052 62.52L72.0752 67.095L81.6052 69.34L82.3902 65.18Z" fill="#2BF5BA"></path>
<path d="M126.475 114.05H78.7253L78.7303 117.715H126.185L126.475 114.05Z" fill="#2BF5BA"></path>
</g>
<path id="Vector_10" d="M101.695 74.6852C105.586 74.6852 108.74 71.1326 108.74 66.7502C108.74 62.3678 105.586 58.8152 101.695 58.8152C97.8045 58.8152 94.6504 62.3678 94.6504 66.7502C94.6504 71.1326 97.8045 74.6852 101.695 74.6852Z" fill="#EBEBEB"></path>
<path id="Vector_11" d="M113.775 46.5702C113.775 46.5702 115 67.9552 101.75 69.3052C94.7902 70.0152 89.1602 59.4552 89.1602 47.2252C89.1602 44.4152 89.5352 41.7452 89.9852 39.2552C90.1002 38.6302 90.5352 37.6252 90.5352 37.6252L92.5702 36.7002C93.5352 36.4452 94.3351 38.2952 95.3251 38.0202C96.3151 37.7452 98.2252 36.5952 101.56 38.4852C103.34 39.4952 106.49 36.3052 106.49 36.3052C106.92 37.2452 107.54 38.1952 109.135 39.1852C110.435 39.7702 111.655 40.0502 112.67 39.5602C112.67 39.5602 113.605 43.7002 113.77 46.5602L113.775 46.5702Z" fill="white"></path>
<path id="Vector_12" d="M113.61 46.5701C113.445 43.7051 113.325 39.5701 113.325 39.5701C112.595 39.9251 110.94 39.8751 110.04 39.6001C114.365 51.0901 107.715 65.2801 101.8 69.2751C114.81 67.7051 113.61 46.5701 113.61 46.5701Z" fill="#EDEDED"></path>
<path id="Vector_13" d="M113.355 54.7752C116.01 52.9402 116.635 51.2052 117.06 48.4752C117.465 45.9002 116.65 45.0952 115.46 44.9352C114.575 44.8152 113.705 45.2902 113.705 47.0902" fill="white"></path>
<path id="Vector_14" d="M125.95 117.77C125.95 117.77 125.94 117.77 125.935 117.77C125.795 117.765 125.69 117.645 125.7 117.505L126.75 98.2901C126.76 98.1501 126.875 98.0401 127.015 98.0551C127.155 98.0601 127.26 98.1801 127.25 98.3201L126.2 117.535C126.195 117.67 126.08 117.77 125.95 117.77Z" fill="#07064E"></path>
<path id="Vector_15" d="M111.44 40.0602C110.43 40.0602 109.23 39.6102 107.845 38.7102C106.695 37.9602 106.435 37.2052 106.3 36.8002C106.285 36.7502 106.265 36.6952 106.25 36.6552C106.06 36.7402 105.585 37.0952 104.945 37.5752C103.065 39.3802 101.805 38.8552 100.475 38.2952C99.3154 37.8102 98.0004 37.2602 95.8954 38.1052C94.6354 38.6102 93.9904 38.0002 93.4754 37.5052C93.0854 37.1302 92.8204 36.9002 92.4154 36.9652C90.9704 37.7402 90.0954 37.8852 89.6754 37.4252C88.9254 36.6102 90.2704 34.2452 91.1354 32.9052C91.2104 32.7902 91.3654 32.7552 91.4804 32.8302C91.5954 32.9052 91.6304 33.0602 91.5554 33.1752C90.1054 35.4152 89.7554 36.7702 90.0404 37.0852C90.1254 37.1802 90.5354 37.4102 92.2154 36.5052C92.2354 36.4952 92.2604 36.4852 92.2854 36.4802C92.9854 36.3502 93.4254 36.7702 93.8154 37.1452C94.3104 37.6202 94.7404 38.0302 95.7054 37.6402C98.0004 36.7152 99.4754 37.3352 100.665 37.8352C101.995 38.3902 102.955 38.7952 104.62 37.1952C105.87 36.2552 106.125 36.0652 106.415 36.1552C106.63 36.2202 106.7 36.4252 106.77 36.6402C106.895 37.0152 107.11 37.6352 108.115 38.2902C109.925 39.4652 111.365 39.8302 112.39 39.3702C113.575 38.8402 113.81 37.3602 113.815 37.3452C113.835 37.2102 113.97 37.1152 114.1 37.1352C114.235 37.1552 114.33 37.2852 114.31 37.4202C114.3 37.4902 114.025 39.1852 112.595 39.8252C112.245 39.9802 111.86 40.0602 111.435 40.0602H111.44Z" fill="#EDEDED"></path>
<g id="Vector_16">
<path d="M101.455 62.1901C99.5951 62.1901 97.7401 61.6101 96.1551 60.4551C96.0451 60.3751 96.0201 60.2151 96.1001 60.1051C96.1801 59.9951 96.3401 59.9701 96.4501 60.0501C99.4401 62.2351 103.465 62.2351 106.465 60.0501C106.575 59.9701 106.735 59.9951 106.815 60.1051C106.895 60.2151 106.87 60.3751 106.76 60.4551C105.17 61.6101 103.31 62.1901 101.45 62.1901H101.455Z" fill="#07064E"></path>
<path d="M91.32 43.8201C91.26 43.8201 91.2 43.8001 91.15 43.7551C91.05 43.6601 91.045 43.5051 91.14 43.4001C92.495 41.9451 94.745 41.8751 99.17 43.1501C99.3 43.1901 99.38 43.3251 99.34 43.4601C99.3 43.5951 99.165 43.6701 99.03 43.6301C94.87 42.4351 92.69 42.4651 91.5 43.7401C91.45 43.7951 91.385 43.8201 91.315 43.8201H91.32Z" fill="#07064E"></path>
<path d="M111.65 43.8201C111.585 43.8201 111.52 43.7951 111.47 43.7401C110.26 42.4651 108.04 42.4301 103.8 43.6301C103.67 43.6701 103.53 43.5901 103.49 43.4601C103.45 43.3251 103.53 43.1901 103.665 43.1501C108.165 41.8751 110.455 41.9451 111.83 43.4001C111.925 43.5001 111.92 43.6601 111.82 43.7551C111.77 43.8001 111.71 43.8251 111.65 43.8251V43.8201Z" fill="#07064E"></path>
<path d="M101.675 55.9C101.1 55.9 100.57 55.63 100.225 55.15C99.835 54.605 99.775 53.92 100.065 53.32C101.02 51.32 101.505 49.285 101.505 47.275C101.505 47.135 101.615 47.025 101.755 47.025C101.895 47.025 102.005 47.135 102.005 47.275C102.005 49.36 101.505 51.465 100.52 53.535C100.31 53.975 100.355 54.47 100.635 54.86C100.915 55.25 101.365 55.445 101.84 55.39C101.97 55.375 102.1 55.47 102.12 55.61C102.135 55.745 102.04 55.87 101.9 55.89C101.825 55.9 101.75 55.905 101.675 55.905V55.9Z" fill="#07064E"></path>
</g>
<path id="Vector_17" d="M107.79 26.145C107.75 26.145 107.71 26.135 107.67 26.115C107.55 26.05 107.505 25.9 107.57 25.775C107.735 25.47 107.755 25.11 107.63 24.785C107.51 24.47 107.26 24.23 106.945 24.12C103.35 22.875 99.77 22.85 96.315 24.045C96.015 24.15 95.78 24.375 95.655 24.675C95.53 24.98 95.54 25.325 95.685 25.615C95.745 25.74 95.695 25.89 95.57 25.95C95.445 26.01 95.295 25.96 95.235 25.835C95.025 25.41 95.01 24.92 95.19 24.48C95.365 24.05 95.715 23.72 96.15 23.57C99.715 22.335 103.4 22.36 107.11 23.645C107.56 23.8 107.92 24.15 108.095 24.6C108.275 25.06 108.245 25.575 108.01 26.01C107.965 26.095 107.88 26.14 107.79 26.14V26.145Z" fill="#07064E"></path>
<path id="Vector_18" d="M114.1 37.14C113.97 37.12 113.835 37.215 113.815 37.35C113.815 37.365 113.575 38.84 112.39 39.375C111.36 39.835 109.925 39.475 108.115 38.295C107.11 37.64 106.895 37.015 106.77 36.645C106.695 36.43 106.625 36.225 106.415 36.16C106.125 36.07 105.865 36.26 104.62 37.2C102.95 38.8 101.99 38.395 100.665 37.84C99.4752 37.34 98.0002 36.725 95.7052 37.645C94.7452 38.035 94.3152 37.62 93.8152 37.15C93.4252 36.775 92.9802 36.355 92.2852 36.485C92.2602 36.485 92.2351 36.5 92.2151 36.51C90.5401 37.415 90.1302 37.18 90.0402 37.09C89.7502 36.775 90.1002 35.42 91.5552 33.18C91.6302 33.065 91.5952 32.91 91.4802 32.835C91.3652 32.76 91.2102 32.795 91.1352 32.91C90.2702 34.25 88.9252 36.615 89.6752 37.43C89.7902 37.555 89.9402 37.63 90.1202 37.665C89.5352 40.765 88.9102 45.55 88.9102 48.83C88.9102 48.97 89.0202 49.08 89.1602 49.08C89.3002 49.08 89.4102 48.97 89.4102 48.83C89.4102 45.555 90.0402 40.755 90.6202 37.685C90.6202 37.68 90.6202 37.67 90.6202 37.665C91.0802 37.595 91.6702 37.37 92.4152 36.97C92.8202 36.91 93.0802 37.14 93.4752 37.51C93.9902 38.005 94.6351 38.615 95.8951 38.11C98.0001 37.265 99.3152 37.815 100.475 38.3C101.805 38.86 103.065 39.385 104.945 37.58C105.58 37.1 106.06 36.74 106.25 36.66C106.265 36.7 106.285 36.755 106.3 36.805C106.44 37.21 106.695 37.965 107.845 38.715C109.23 39.615 110.43 40.07 111.44 40.065C111.86 40.065 112.245 39.985 112.6 39.83C114.03 39.19 114.305 37.5 114.315 37.425C114.335 37.29 114.24 37.16 114.105 37.14H114.1Z" fill="#07064E"></path>
<path id="Vector_19" d="M81.6751 64.625L73.7251 62.5201L77.4701 49.4701C78.0901 46.3751 79.5301 45.36 81.2901 44.3L90.0551 52.405L91.4551 52.885C89.7601 55.625 85.7401 56.83 84.1501 58.445C83.9001 58.695 83.6551 58.945 83.5451 59.28L81.6801 64.6201L81.6751 64.625Z" fill="white"></path>
<path id="Vector_20" d="M84.0752 53.5951H86.9052C89.4152 53.5951 91.4502 51.5601 91.4502 49.0501C91.4502 46.5401 89.4152 44.5051 86.9052 44.5051H84.0752" fill="#EDEDED"></path>
<path id="Vector_21" d="M89.1001 45.0652L96.2351 46.0202C97.7551 46.2252 98.8851 47.5202 98.8851 49.0502C98.8851 50.5802 97.7501 51.8752 96.2351 52.0802L89.1001 53.0352" fill="#EDEDED"></path>
<path id="Vector_22" d="M94.9699 53.35C97.4828 53.35 99.5199 51.3129 99.5199 48.8C99.5199 46.2871 97.4828 44.25 94.9699 44.25C92.457 44.25 90.4199 46.2871 90.4199 48.8C90.4199 51.3129 92.457 53.35 94.9699 53.35Z" fill="white"></path>
<path id="Vector_23" d="M84.7304 45.74L86.1004 46.605C87.6004 47.55 89.3404 48.05 91.1154 48.05H94.5104L90.9654 44.205C88.5354 43.32 84.2954 43.47 81.2754 44.09L81.4554 46.5L84.7304 45.735V45.74Z" fill="white"></path>
<path id="Vector_24" d="M100.11 44.8101L107.245 45.7651C108.765 45.9701 109.895 47.2651 109.895 48.7951C109.895 50.3251 108.76 51.6201 107.245 51.8251L100.11 52.7801" fill="#EDEDED"></path>
<path id="Vector_25" d="M95.0903 53.3451H97.9203C100.43 53.3451 102.465 51.3101 102.465 48.8001C102.465 46.2901 100.43 44.2551 97.9203 44.2551H95.0903" fill="#EDEDED"></path>
<path id="Vector_26" d="M94.9699 53.35C97.4828 53.35 99.5199 51.3129 99.5199 48.8C99.5199 46.2871 97.4828 44.25 94.9699 44.25C92.457 44.25 90.4199 46.2871 90.4199 48.8C90.4199 51.3129 92.457 53.35 94.9699 53.35Z" fill="white"></path>
<path id="Vector_27" d="M94.9702 52.11C96.7982 52.11 98.2802 50.6281 98.2802 48.8C98.2802 46.9719 96.7982 45.49 94.9702 45.49C93.1421 45.49 91.6602 46.9719 91.6602 48.8C91.6602 50.6281 93.1421 52.11 94.9702 52.11Z" fill="#EDEDED"></path>
<path id="Vector_28" d="M83.9602 53.6C86.473 53.6 88.5102 51.5629 88.5102 49.05C88.5102 46.5371 86.473 44.5 83.9602 44.5C81.4473 44.5 79.4102 46.5371 79.4102 49.05C79.4102 51.5629 81.4473 53.6 83.9602 53.6Z" fill="white"></path>
<path id="Vector_29" d="M107.28 45.5151L100.185 44.5651C99.5102 44.2001 98.7402 43.9951 97.9202 43.9951H95.0901C95.0901 43.9951 95.0752 43.9951 95.0652 43.9951C95.0352 43.9951 95.0052 43.9951 94.9702 43.9951C92.3252 43.9951 90.1702 46.1501 90.1702 48.7951C90.1702 49.5901 90.3701 50.3451 90.7151 51.0051C90.0001 52.3851 88.5652 53.3401 86.9052 53.3401H86.0952C87.6702 52.5501 88.7602 50.9251 88.7602 49.0451C88.7602 46.3951 86.6052 44.2451 83.9602 44.2451C81.3152 44.2451 79.1602 46.4001 79.1602 49.0451C79.1602 51.6901 81.3152 53.8451 83.9602 53.8451C84.0202 53.8451 84.0802 53.8401 84.1402 53.8351H86.9102C87.7202 53.8351 88.4751 53.6251 89.1451 53.2701L92.4002 52.8351C93.1452 53.3151 94.0302 53.5951 94.9802 53.5951C95.0402 53.5951 95.1002 53.5901 95.1602 53.5851H97.9302C98.7502 53.5851 99.5202 53.3801 100.195 53.0151L107.29 52.0651C108.925 51.8451 110.16 50.4351 110.16 48.7851C110.16 47.1351 108.925 45.7251 107.29 45.5051L107.28 45.5151ZM84.0751 53.3451C84.0751 53.3451 84.0602 53.3451 84.0552 53.3451C84.0202 53.3451 83.9902 53.3451 83.9602 53.3451C81.5902 53.3451 79.6602 51.4151 79.6602 49.0451C79.6602 46.6751 81.5902 44.7451 83.9602 44.7451C86.3302 44.7451 88.2602 46.6751 88.2602 49.0451C88.2602 51.4151 86.4252 53.2451 84.1352 53.3401H84.0751V53.3451ZM90.0552 52.6501C90.4302 52.3201 90.7552 51.9351 91.0152 51.5051C91.2452 51.8401 91.5201 52.1451 91.8251 52.4101L90.0552 52.6451V52.6501ZM95.0901 53.0951C95.0901 53.0951 95.0752 53.0951 95.0702 53.0951C95.0352 53.0951 95.0052 53.0951 94.9752 53.0951C92.6052 53.0951 90.6752 51.1651 90.6752 48.7951C90.6752 46.4251 92.6052 44.4951 94.9752 44.4951C97.3451 44.4951 99.2752 46.4251 99.2752 48.7951C99.2752 51.1651 97.4402 52.9951 95.1502 53.0901H95.0901V53.0951ZM97.9202 53.0951H97.1102C98.6852 52.3051 99.7752 50.6801 99.7752 48.8001C99.7752 46.9201 98.6802 45.2851 97.0952 44.5001H97.9202C100.29 44.5001 102.215 46.4301 102.215 48.7951C102.215 51.1601 100.285 53.0901 97.9202 53.0901V53.0951ZM107.215 51.5801L101.075 52.4001C102.08 51.5201 102.715 50.2351 102.715 48.7951C102.715 47.3551 102.08 46.0701 101.075 45.1901L107.215 46.0101C108.605 46.1951 109.65 47.3901 109.65 48.7901C109.65 50.1901 108.605 51.3851 107.215 51.5701V51.5801Z" fill="#07064E"></path>
<path id="Vector_30" d="M83.9604 52.36C85.7885 52.36 87.2704 50.8781 87.2704 49.05C87.2704 47.2219 85.7885 45.74 83.9604 45.74C82.1323 45.74 80.6504 47.2219 80.6504 49.05C80.6504 50.8781 82.1323 52.36 83.9604 52.36Z" fill="#EDEDED"></path>
<g id="Vector_31">
<path d="M113.12 77.725C111.565 81.515 109.425 84.715 106.155 86.78L101.48 98.1L96.805 86.51C93.715 84.11 91.415 81.25 90.29 77.7H88.68V78.055L88.775 78.3C89.87 81.075 92.405 84.9 95.66 87.375L101.415 102.05L107.275 87.67C110.72 85.22 113.405 81.24 114.565 78.295L114.7 77.955L113.115 77.725H113.12Z" fill="#2BF5BA"></path>
<path d="M129.26 80.2749L117.415 78.1799C117.415 77.4099 117.415 75.5199 117.425 72.9749C117.445 63.0199 117.49 44.4849 117.44 42.1499C117.24 32.0449 110.22 24.1299 101.455 24.1299C92.69 24.1299 85.655 32.0449 85.47 42.1499C85.47 42.3349 85.46 42.6899 85.455 43.1899C84.545 43.1899 83.715 43.2449 83.08 43.3499C81.485 43.6199 78.735 45.0699 77.695 47.9699C76.8 50.4599 74.005 60.6849 73.545 62.3699L73.225 62.2799C73.16 62.2649 73.095 62.2699 73.035 62.3049C72.975 62.3399 72.935 62.3949 72.92 62.4549L60.985 106.825C60.265 109.5 60.82 112.3 62.505 114.5C64.19 116.7 66.75 117.96 69.52 117.96H69.925C73.845 117.96 77.34 115.33 78.42 111.56L78.475 111.375V117.705C78.475 117.845 78.585 117.955 78.725 117.955H135.49C135.625 117.955 135.735 117.85 135.74 117.715L136.75 89.5449C136.75 85.1099 133.605 81.2099 129.26 80.2699V80.2749ZM93.975 73.8749C94.55 72.5249 95.145 70.4699 94.825 66.4549C96.75 68.4249 99.025 69.5499 101.445 69.5499C104.1 69.5499 106.565 68.1749 108.595 65.8349C108.23 70.0799 108.805 72.5449 109.37 73.8699C110.16 75.7299 111.63 77.3149 113 77.8399C111.89 80.5549 109.27 84.3899 106.02 86.5649C106.015 86.5649 106.01 86.5749 106.005 86.5799C105.99 86.5899 105.98 86.5999 105.97 86.6149C105.96 86.6299 105.95 86.6449 105.94 86.6599C105.94 86.6649 105.93 86.6699 105.93 86.6799L101.455 97.6599L97.045 86.4199C97.045 86.4199 97.035 86.4099 97.035 86.3999C97.025 86.3849 97.02 86.3699 97.005 86.3599C96.995 86.3449 96.985 86.3349 96.97 86.3249C96.965 86.3249 96.96 86.3149 96.955 86.3099C93.87 84.0899 91.45 80.5099 90.365 77.8699C91.91 77.3399 93.27 75.5299 93.97 73.8749H93.975ZM90.005 77.4549C89.02 77.4699 87.415 77.5549 85.67 77.8799C85.685 76.3899 85.735 70.8649 85.785 64.0299C85.8 61.8499 85.82 59.6049 85.835 57.4199L88.205 56.3349L89.505 55.1899C90.355 59.5999 92.05 63.3149 94.26 65.8549C94.695 70.1899 94.085 72.3149 93.505 73.6799C92.695 75.5949 91.26 77.1299 90 77.4549H90.005ZM109.825 73.6799C109.36 72.5849 108.655 70.0449 109.14 65.3049C109.14 65.2649 109.14 65.2249 109.12 65.1899C111.095 62.6449 112.605 59.1499 113.385 55.1199L114.675 54.0099C115.145 53.6049 115.495 53.2399 115.77 52.8599C116.355 52.0599 116.71 51.2149 116.965 50.2399C116.965 57.2749 116.94 67.1249 116.93 72.9749C116.925 75.4249 116.92 77.2699 116.92 78.0949L113.535 77.4999C113.535 77.4999 113.525 77.4999 113.52 77.4949C112.21 77.2049 110.625 75.5649 109.825 73.6849V73.6799ZM113.975 48.8249L113.955 47.0949C113.955 46.2999 114.135 45.7249 114.48 45.4249C114.705 45.2249 114.98 45.1699 115.21 45.1699C115.285 45.1699 115.36 45.1749 115.425 45.1849C115.935 45.2549 116.3 45.4399 116.535 45.7599C116.915 46.2749 117.01 47.1749 116.815 48.4399C116.55 50.1299 116.215 51.4049 115.37 52.5699C115.115 52.9149 114.795 53.2549 114.35 53.6349L113.525 54.3449C113.82 52.5899 113.975 50.7399 113.975 48.8299V48.8249ZM78.17 48.1349C78.795 46.3949 80.075 45.2199 81.305 44.5349C81.305 44.5349 81.31 44.5349 81.315 44.5349C81.99 44.1599 82.645 43.9349 83.17 43.8449C83.77 43.7449 84.57 43.6949 85.455 43.6949C85.635 43.6899 85.78 43.6949 85.955 43.6999C86.57 43.7099 87.165 43.7449 87.735 43.8049C87.755 43.8049 87.775 43.8049 87.795 43.8099C87.885 43.8199 87.97 43.8299 88.06 43.8399C88.96 43.9399 89.835 44.0899 90.56 44.2999C90.625 44.3299 90.68 44.3549 90.745 44.3849C90.785 44.3949 90.825 44.4049 90.865 44.4199L90.905 44.4549C91.425 44.6999 91.85 44.9349 92.17 45.2299C92.3 45.1249 92.435 45.0349 92.58 44.9449C92.14 44.5149 91.53 44.1799 90.735 43.8349C89.37 43.4399 87.58 43.2349 85.97 43.1999C85.975 42.7049 85.98 42.3449 85.985 42.1649C86.165 32.3349 92.965 24.6349 101.47 24.6349C109.975 24.6349 116.765 32.3349 116.955 42.1649C116.965 42.6449 116.97 43.8399 116.975 45.5049C116.965 45.4899 116.96 45.4799 116.95 45.4649C116.63 45.0349 116.155 44.7799 115.505 44.6899C114.975 44.6199 114.51 44.7399 114.16 45.0449C114.055 45.1349 113.97 45.2449 113.89 45.3649C113.79 44.0499 113.595 42.9099 113.305 41.9099C113.265 41.7799 113.13 41.6999 112.995 41.7399C112.865 41.7799 112.785 41.9199 112.825 42.0499C113.22 43.3949 113.43 45.0099 113.465 46.9899C113.465 46.9949 113.465 47.0049 113.465 47.0099C113.465 47.0399 113.46 47.0649 113.46 47.0949L113.48 48.8249C113.48 59.9799 108.08 69.0499 101.445 69.0499C96.08 69.0499 91.48 63.1999 89.95 54.8049L92.195 52.8249L91.865 52.4499L87.975 55.8899L85.85 56.8649C85.535 57.0199 85.785 56.9049 85.35 57.0999C84.315 57.6249 83.425 58.6599 83.075 59.7599L81.695 64.5899L74.01 62.5149C74.01 62.5149 77.22 50.8149 78.185 48.1299L78.17 48.1349ZM82.345 64.7749L82.17 64.7249L83.55 59.9099C83.835 59.0149 84.52 58.1699 85.34 57.6749C85.325 59.7749 85.305 61.9299 85.29 64.0199C85.235 71.0249 85.19 76.6549 85.17 77.9699C83.23 78.3799 81.175 79.0999 79.625 80.3599L82.525 65.0599C82.55 64.9299 82.47 64.8049 82.345 64.7699V64.7749ZM135.25 117.46H78.975V110.14C78.975 110 78.865 109.89 78.725 109.89C78.7 109.89 78.68 109.895 78.66 109.905C78.66 109.905 78.66 109.905 78.655 109.905C78.52 109.865 78.385 109.94 78.345 110.075L77.945 111.425C76.925 114.98 73.63 117.465 69.93 117.465H69.525C66.91 117.465 64.5 116.275 62.905 114.2C61.31 112.125 60.79 109.485 61.47 106.96L73.34 62.8299L81.99 65.1999L74.805 103.135C74.78 103.27 74.87 103.4 75.005 103.425C75.14 103.45 75.27 103.36 75.295 103.225L79.515 80.9399C79.595 80.9649 79.685 80.9549 79.755 80.8949C82.635 78.3899 87.63 77.9949 89.86 77.9499C90.94 80.6449 93.43 84.3499 96.6 86.6599L101.21 98.4199C101.25 98.5149 101.34 98.5799 101.44 98.5799C101.54 98.5799 101.635 98.5199 101.67 98.4249L106.355 86.9349C109.695 84.6699 112.32 80.8399 113.47 77.9849L115.065 78.2649L129.155 80.7549C133.26 81.6449 136.24 85.3399 136.24 89.5349L135.235 117.455L135.25 117.46Z" fill="#07064E"></path>
<path d="M88.225 47.4799C88.825 47.9949 89.6 48.3049 90.445 48.3499C90.46 48.1849 90.49 48.0199 90.52 47.8599C89.615 47.8249 88.77 47.4949 88.235 46.8299C88.235 46.8299 88.235 46.8249 88.23 46.8199C88.21 46.7949 88.195 46.7749 88.175 46.7499C88.165 46.7349 88.15 46.7199 88.14 46.7049C87.745 45.9999 87.17 45.4099 86.49 44.9849C86.43 44.9499 86.375 44.9149 86.31 44.8799C86.195 44.8199 86.075 44.7599 85.95 44.7049V44.6949C85.79 44.6199 85.62 44.5599 85.45 44.5049C85.02 44.3749 84.535 44.2849 83.985 44.2599C83.985 44.2599 83.975 44.2599 83.97 44.2599L83.96 44.5099C85.92 44.5099 87.585 45.7499 88.225 47.4899V47.4799Z" fill="#07064E"></path>
</g>
</g>
</g>
</g>
</g>
<defs>
<clipPath id="clip0_86_555">
<rect width="200" height="140" fill="white"></rect>
</clipPath>
</defs>
</svg>