<svg width="200" height="140" viewBox="0 0 200 140" fill="none" xmlns="http://www.w3.org/2000/svg">
<g id="illu_bg_create-first-vote/Default" clip-path="url(#clip0_86_1216)">
<g id="illu_bg_create-first-vote">
<g id="background">
<path d="M177.43 14.4847C216.305 28.2947 189.29 105.475 164.325 120.38C146 131.32 98.6197 111.125 57.9997 119.325C26.3397 125.715 16.5547 124.59 28.0647 101.81C40.2547 77.6747 3.76965 66.1147 3.04465 38.6447C2.59465 21.5647 11.9247 -3.76027 45.5747 8.64473C124.76 37.8347 144.645 2.83972 177.43 14.4797V14.4847Z" fill="#2BF5BA"></path>
<path d="M15.1411 132.78C18.2983 130.478 19.6508 126.957 18.1621 124.915C16.6733 122.873 12.9071 123.085 9.74997 125.387C6.59282 127.689 5.24029 131.211 6.72901 133.252C8.21774 135.294 11.984 135.082 15.1411 132.78Z" fill="#2BF5BA"></path>
<path d="M193.441 105.698C195.274 104.752 196.27 103.034 195.664 101.861C195.059 100.688 193.083 100.504 191.249 101.45C189.416 102.395 188.421 104.113 189.026 105.286C189.631 106.459 191.608 106.643 193.441 105.698Z" fill="#2BF5BA"></path>
<path d="M137.156 12.0472C137.734 10.9283 137.271 9.54067 136.122 8.94794C134.974 8.35521 133.575 8.78179 132.997 9.90075C132.42 11.0197 132.882 12.4073 134.031 13C135.179 13.5928 136.578 13.1662 137.156 12.0472Z" fill="#2BF5BA"></path>
</g>
<g id="illu_bg_create-first-vote_2">
<g id="stroke">
<path id="Vector" d="M18.1448 96.0152C18.0148 96.0152 17.9048 95.9102 17.9048 95.7752C17.9048 95.6452 18.0098 95.5352 18.1448 95.5352L187.985 95.3452C188.115 95.3452 188.225 95.4502 188.225 95.5852C188.225 95.7152 188.12 95.8252 187.985 95.8252L18.1448 96.0152Z" fill="#07064E"></path>
<path id="Vector_2" d="M16.1045 96.0152H13.0095C12.8795 96.0152 12.7695 95.9102 12.7695 95.7752C12.7695 95.6402 12.8745 95.5352 13.0095 95.5352H16.1045C16.2345 95.5352 16.3445 95.6402 16.3445 95.7752C16.3445 95.9102 16.2395 96.0152 16.1045 96.0152Z" fill="#2BF5BA"></path>
<path id="Vector_3" d="M61.5148 23.4302H138.165C141.32 23.4302 143.88 25.9902 143.88 29.1452V70.9202H55.7998V29.1452C55.7998 25.9902 58.3598 23.4302 61.5148 23.4302Z" fill="#EDEDED"></path>
<path id="Vector_4" d="M120.36 97.8799C120.025 99.3199 118.73 100.405 117.195 100.405H82.4949C80.9549 100.405 79.6599 99.3199 79.3299 97.8799C58.0449 100.965 81.0749 104.035 99.8449 103.9C118.62 104.035 141.635 100.965 120.36 97.8799Z" fill="#2AEDB4"></path>
<path id="Vector_5" d="M55.6147 70.8203V73.9203C55.6147 77.0653 58.1847 79.6353 61.3297 79.6353H92.4147V93.7553H82.5597C80.7447 93.7553 79.2697 95.2303 79.2697 97.0453C79.2697 98.8603 80.7447 100.335 82.5597 100.335H117.13C118.945 100.335 120.42 98.8603 120.42 97.0453C120.42 95.2303 118.945 93.7553 117.13 93.7553H107.265V79.6353H137.985C141.13 79.6353 143.7 77.0653 143.7 73.9203V70.8203H55.6147Z" fill="white"></path>
<path id="Vector_6" d="M107.319 79.5752H92.3545V93.8152H107.319V79.5752Z" fill="white"></path>
<path id="Vector_7" d="M92.5744 79.52C92.5744 79.565 92.5645 79.61 92.5645 79.655C92.5645 83.33 95.8194 86.305 99.8394 86.305C103.859 86.305 107.114 83.325 107.114 79.655C107.114 79.61 107.109 79.565 107.104 79.52H92.5695H92.5744Z" fill="#EBEBEB"></path>
<path id="Vector_8" d="M107.11 81.77L104.8 81.38C103.855 81.22 102.955 81.86 102.795 82.805C102.72 83.265 102.825 83.725 103.095 84.105C103.365 84.485 103.765 84.735 104.225 84.81L107.11 85.295V81.765V81.77Z" fill="#EBEBEB"></path>
<path id="Vector_9" d="M107.57 79.6353C107.57 79.6353 107.585 79.6803 107.585 79.7053V81.6653L107.735 81.8802L107.585 81.8553V85.3853L111.84 86.1003C112.045 86.1503 112.255 86.1853 112.49 86.2103C112.575 86.2253 112.655 86.2303 112.745 86.2303C112.805 86.2303 112.87 86.2303 112.935 86.2203C113.725 86.1953 114.48 85.9403 115.125 85.4853L118.82 82.8553C119.875 82.1053 120.49 80.8853 120.53 79.6403H107.57V79.6353Z" fill="#2AEDB4"></path>
<path id="Vector_10" d="M91.6999 32.3452H67.0949C63.9386 32.3452 61.3799 34.9039 61.3799 38.0602V60.7452C61.3799 63.9015 63.9386 66.4602 67.0949 66.4602H91.6999C94.8562 66.4602 97.4149 63.9015 97.4149 60.7452V38.0602C97.4149 34.9039 94.8562 32.3452 91.6999 32.3452Z" fill="#DDDDDD"></path>
<path id="Vector_11" d="M91.6999 30.3203H67.0949C63.9386 30.3203 61.3799 32.879 61.3799 36.0353V58.7203C61.3799 61.8766 63.9386 64.4353 67.0949 64.4353H91.6999C94.8562 64.4353 97.4149 61.8766 97.4149 58.7203V36.0353C97.4149 32.879 94.8562 30.3203 91.6999 30.3203Z" fill="white"></path>
<path id="Vector_12" d="M66.4945 30.3203H92.2945C95.1195 30.3203 97.4095 32.6103 97.4095 35.4353H61.3745C61.3745 32.6103 63.6645 30.3203 66.4895 30.3203H66.4945Z" fill="#07064E"></path>
<path id="Vector_13" d="M87.9448 34.125C88.6352 34.125 89.1948 33.5654 89.1948 32.875C89.1948 32.1846 88.6352 31.625 87.9448 31.625C87.2545 31.625 86.6948 32.1846 86.6948 32.875C86.6948 33.5654 87.2545 34.125 87.9448 34.125Z" fill="white"></path>
<path id="Vector_14" d="M91.5698 34.125C92.2602 34.125 92.8198 33.5654 92.8198 32.875C92.8198 32.1846 92.2602 31.625 91.5698 31.625C90.8795 31.625 90.3198 32.1846 90.3198 32.875C90.3198 33.5654 90.8795 34.125 91.5698 34.125Z" fill="#2BF5BA"></path>
<path id="Vector_15" d="M132.404 32.3452H107.799C104.643 32.3452 102.084 34.9039 102.084 38.0602V60.7452C102.084 63.9015 104.643 66.4602 107.799 66.4602H132.404C135.561 66.4602 138.119 63.9015 138.119 60.7452V38.0602C138.119 34.9039 135.561 32.3452 132.404 32.3452Z" fill="#DDDDDD"></path>
<path id="Vector_16" d="M132.404 30.3203H107.799C104.643 30.3203 102.084 32.879 102.084 36.0353V58.7203C102.084 61.8766 104.643 64.4353 107.799 64.4353H132.404C135.561 64.4353 138.119 61.8766 138.119 58.7203V36.0353C138.119 32.879 135.561 30.3203 132.404 30.3203Z" fill="white"></path>
<path id="Vector_17" d="M107.2 30.3203H133C135.825 30.3203 138.115 32.6103 138.115 35.4353H102.08C102.08 32.6103 104.37 30.3203 107.195 30.3203H107.2Z" fill="#07064E"></path>
<g id="Vector_18">
<path d="M83.6047 51.2V53.065C83.6047 53.18 83.5247 53.31 83.3797 53.31H76.1147C75.9697 53.31 75.8897 53.18 75.8897 53.065V51.2C75.8897 51.105 75.9697 50.975 76.1147 50.975H78.5947V44.31L76.1947 45.25C76.0497 45.3 75.9197 45.25 75.8697 45.09L75.2047 43.405C75.1547 43.26 75.1897 43.13 75.3497 43.065L78.8997 41.605C79.1247 41.525 79.2747 41.445 79.4997 41.445H80.7947C80.9547 41.445 81.0397 41.54 81.0397 41.69V50.98H83.3747C83.5197 50.98 83.5997 51.11 83.5997 51.205L83.6047 51.2Z" fill="#2BF5BA"></path>
<path d="M124.11 45.025C124.125 46.89 123.12 48.025 121.42 49.42L119.395 51.075H123.965C124.145 51.075 124.225 51.17 124.225 51.32V53.17C124.225 53.315 124.145 53.415 123.965 53.415H116.605C116.425 53.415 116.33 53.35 116.295 53.19L115.985 51.585C115.955 51.405 115.985 51.275 116.08 51.13L119.355 48.23C121.075 46.72 121.56 46.105 121.545 45.2C121.53 44.245 120.93 43.69 119.99 43.69C118.985 43.69 118.545 44.32 118.32 45.15C118.27 45.345 118.14 45.425 117.93 45.36L116.21 44.855C116.03 44.805 115.965 44.645 116.015 44.435C116.455 42.715 117.605 41.355 120.07 41.355C122.535 41.355 124.09 42.88 124.105 45.035L124.11 45.025Z" fill="#2BF5BA"></path>
</g>
<path id="Vector_19" d="M129 34.125C129.69 34.125 130.25 33.5654 130.25 32.875C130.25 32.1846 129.69 31.625 129 31.625C128.309 31.625 127.75 32.1846 127.75 32.875C127.75 33.5654 128.309 34.125 129 34.125Z" fill="white"></path>
<path id="Vector_20" d="M132.625 34.125C133.315 34.125 133.875 33.5654 133.875 32.875C133.875 32.1846 133.315 31.625 132.625 31.625C131.934 31.625 131.375 32.1846 131.375 32.875C131.375 33.5654 131.934 34.125 132.625 34.125Z" fill="#2BF5BA"></path>
<path id="Vector_21" d="M29.5195 48.345C37.9059 48.345 44.7045 41.4211 44.7045 32.88C44.7045 24.339 37.9059 17.415 29.5195 17.415C21.133 17.415 14.3345 24.339 14.3345 32.88C14.3345 41.4211 21.133 48.345 29.5195 48.345Z" fill="#2AEDB4"></path>
<path id="Vector_22" d="M29.5195 46.3201C37.9059 46.3201 44.7045 39.3962 44.7045 30.8551C44.7045 22.3141 37.9059 15.3901 29.5195 15.3901C21.133 15.3901 14.3345 22.3141 14.3345 30.8551C14.3345 39.3962 21.133 46.3201 29.5195 46.3201Z" fill="#2BF5BA"></path>
<path id="Vector_23" d="M39.1895 18.9253C40.6045 39.7203 29.4245 44.0653 22.8145 44.7303C24.8395 45.7453 27.1145 46.3203 29.5195 46.3203C37.9045 46.3203 44.7045 39.3953 44.7045 30.8553C44.7045 26.0553 42.5545 21.7653 39.1845 18.9303L39.1895 18.9253Z" fill="#00EBA6"></path>
<path id="Vector_24" d="M138.164 23.1899H61.5145C58.2345 23.1899 55.5645 25.8599 55.5645 29.1399V73.9849C55.5645 77.2649 58.2345 79.9349 61.5145 79.9349H92.0945V93.5099H82.5545C80.6095 93.5099 79.0295 95.0899 79.0295 97.0349C79.0295 98.9799 80.6095 100.56 82.5545 100.56H117.124C119.069 100.56 120.649 98.9799 120.649 97.0349C120.649 95.0899 119.069 93.5099 117.124 93.5099H107.584V79.9349H138.164C141.444 79.9349 144.114 77.2649 144.114 73.9849V29.1449C144.114 25.8649 141.444 23.1949 138.164 23.1949V23.1899ZM61.5145 23.6699H138.164C141.184 23.6699 143.639 26.1249 143.639 29.1449V70.6549H56.0395V29.1449C56.0395 26.1249 58.4945 23.6699 61.5145 23.6699ZM117.124 93.9949C118.804 93.9949 120.174 95.3649 120.174 97.0449C120.174 98.7249 118.804 100.095 117.124 100.095H82.5545C80.8745 100.095 79.5045 98.7249 79.5045 97.0449C79.5045 95.3649 80.8745 93.9949 82.5545 93.9949H117.124ZM107.109 93.5199H92.5695V79.9449H107.109V93.5199ZM138.164 79.4649H61.5145C58.4945 79.4649 56.0395 77.0099 56.0395 73.9899V71.1299H143.644V73.9899C143.644 77.0099 141.189 79.4649 138.169 79.4649H138.164Z" fill="#07064E"></path>
<g id="Vector_25">
<path d="M29.8848 32.1853H24.1098C23.9498 32.1853 23.8198 32.0553 23.8198 31.8953C23.8198 31.7353 23.9498 31.6053 24.1098 31.6053H29.5948V22.7403C29.5948 22.5803 29.7248 22.4503 29.8848 22.4503C30.0448 22.4503 30.1748 22.5803 30.1748 22.7403V31.8953C30.1748 32.0553 30.0448 32.1853 29.8848 32.1853Z" fill="#07064E"></path>
<path d="M29.5197 46.5604C21.0147 46.5604 14.0947 39.5154 14.0947 30.8554C14.0947 22.1954 21.0147 15.1504 29.5197 15.1504C38.0247 15.1504 44.9447 22.1954 44.9447 30.8554C44.9447 39.5154 38.0247 46.5604 29.5197 46.5604ZM29.5197 15.6304C21.2797 15.6304 14.5697 22.4604 14.5697 30.8554C14.5697 39.2504 21.2747 46.0804 29.5197 46.0804C37.7647 46.0804 44.4697 39.2504 44.4697 30.8554C44.4697 22.4604 37.7647 15.6304 29.5197 15.6304Z" fill="#07064E"></path>
<path d="M29.4548 43.3554C22.5648 43.3554 16.9548 37.7504 16.9548 30.8554C16.9548 29.2054 17.2698 27.6054 17.8948 26.0904C17.9448 25.9704 18.0848 25.9104 18.2048 25.9604C18.3248 26.0104 18.3848 26.1504 18.3348 26.2704C17.7348 27.7254 17.4298 29.2654 17.4298 30.8504C17.4298 37.4804 22.8248 42.8754 29.4548 42.8754C36.0848 42.8754 41.4798 37.4804 41.4798 30.8504C41.4798 24.2204 36.0848 18.8254 29.4548 18.8254C25.6598 18.8254 22.1698 20.5604 19.8698 23.5854C19.7898 23.6904 19.6398 23.7104 19.5348 23.6304C19.4298 23.5504 19.4098 23.4004 19.4898 23.2954C21.8748 20.1504 25.5098 18.3454 29.4498 18.3454C36.3398 18.3454 41.9498 23.9504 41.9498 30.8454C41.9498 37.7404 36.3448 43.3454 29.4498 43.3454L29.4548 43.3554Z" fill="#07064E"></path>
</g>
<g id="Group">
<g id="Vector_26">
<path d="M50.7147 108.77L50.6797 110.585L70.3947 110.565C70.6447 110.565 70.9647 110.245 70.9647 109.995L70.9547 109.155C64.1197 107.98 57.8597 109.47 50.7097 108.77H50.7147Z" fill="#00EBA6"></path>
<path d="M46.1297 105.85L46.1147 107.065L70.9047 107.045C71.2147 107.045 71.6197 106.725 71.6197 106.475L71.5947 105.83C63.0047 104.655 54.7097 106.295 46.1297 105.845V105.85Z" fill="#00EBA6"></path>
<path d="M60.4647 85.5254C60.4197 89.7804 59.7447 94.2804 57.8697 97.0754C56.0997 99.5604 50.3097 102.155 50.2197 102.205C52.2697 103.115 52.1497 103.325 54.4247 103.325C59.6447 103.325 63.8797 99.0904 63.8797 93.8704V85.4404L60.4597 85.5304L60.4647 85.5254Z" fill="#00EBA6"></path>
</g>
<path id="Vector_27" d="M50.49 81.5101C47.58 79.2301 49.855 75.0851 51.67 72.7151C53.31 68.6651 46.6 68.5051 47.095 63.7001C47.46 60.1951 52.96 56.1851 55.955 59.8551C57.96 62.3151 55.87 64.3401 56.575 66.7501C56.925 67.9551 58.755 68.3751 59.295 69.5951C60.885 73.1701 55.585 75.8151 54.53 79.4451C53.59 82.6801 55.595 84.1101 56.18 86.1851C57.135 89.5951 54.78 84.8651 50.485 81.5051L50.49 81.5101Z" fill="#AAFBE3"></path>
<path id="Vector_28" d="M44.9697 85.4351H63.8797V93.8651C63.8797 99.0851 59.6447 103.32 54.4247 103.32C49.2047 103.32 44.9697 99.0851 44.9697 93.8651V85.4351Z" fill="#2BF5BA"></path>
<path id="Vector_29" d="M74.5148 111.27C74.5148 111.86 65.2298 112.34 52.1148 112.34C38.9998 112.34 27.3398 111.875 27.3398 111.285C27.3398 110.695 38.8198 110.565 51.9348 110.565C65.0498 110.565 74.5148 110.68 74.5148 111.27Z" fill="#2AEDB4"></path>
<path id="Vector_30" d="M70.9499 103.27H57.2899C61.2549 102.05 64.1399 98.3553 64.1399 93.9953V92.2903H65.7999C67.7499 92.2903 69.3349 90.7053 69.3349 88.7553C69.3349 87.1903 68.0649 85.9203 66.4999 85.9203C65.5149 85.9203 64.6499 86.4253 64.1399 87.1853V85.1953H44.7299V93.9903C44.7299 98.3503 47.6199 102.045 51.5799 103.265H32.8349C32.7049 103.265 32.5949 103.37 32.5949 103.505C32.5949 103.64 32.6999 103.745 32.8349 103.745H44.7449V104.405H34.2699C34.1399 104.405 34.0299 104.51 34.0299 104.645C34.0299 104.78 34.1349 104.885 34.2699 104.885H44.7449V105.49H34.2699C34.1399 105.49 34.0299 105.595 34.0299 105.73C34.0299 105.865 34.1349 105.97 34.2699 105.97H44.7449V106.81H29.4349C29.3049 106.81 29.1949 106.915 29.1949 107.05C29.1949 107.185 29.2999 107.29 29.4349 107.29H32.8049C32.8049 107.29 32.8249 107.295 32.8349 107.295H49.4399V107.95H30.8649C30.7349 107.95 30.6249 108.055 30.6249 108.19C30.6249 108.325 30.7299 108.43 30.8649 108.43H49.4399V109.035H30.8649C30.7349 109.035 30.6249 109.14 30.6249 109.275C30.6249 109.41 30.7299 109.515 30.8649 109.515H49.4399V110.36H29.4299C29.2999 110.36 29.1899 110.465 29.1899 110.6C29.1899 110.735 29.2949 110.84 29.4299 110.84H70.2349C70.7399 110.84 71.1549 110.43 71.1549 109.92V107.74C71.1549 107.575 71.1099 107.425 71.0349 107.295C71.4949 107.245 71.8599 106.86 71.8599 106.385V104.205C71.8599 103.7 71.4499 103.285 70.9399 103.285L70.9499 103.27ZM64.1449 88.7553C64.1449 87.4553 65.2049 86.3953 66.5049 86.3953C67.8049 86.3953 68.8649 87.4553 68.8649 88.7553C68.8649 90.4403 67.4949 91.8153 65.8049 91.8153H64.1449V88.7553ZM45.2099 93.9953V85.6753H63.6699V93.9953C63.6699 99.0853 59.5299 103.225 54.4399 103.225C49.3499 103.225 45.2099 99.0853 45.2099 93.9953ZM45.7449 106.805H45.2249V103.745H45.7449V106.805ZM50.4399 110.345H49.9199V107.285H50.4399V110.345ZM71.3899 106.37C71.3899 106.615 71.1899 106.815 70.9499 106.815H70.3099C70.3099 106.815 70.2699 106.81 70.2499 106.81H64.9899C64.8599 106.81 64.7499 106.915 64.7499 107.05C64.7499 107.185 64.8549 107.29 64.9899 107.29C64.9899 107.29 67.1299 107.295 67.1449 107.295H70.2799C70.5099 107.31 70.6899 107.5 70.6899 107.73V109.91C70.6899 110.155 70.4899 110.355 70.2499 110.355H50.9199V107.295H59.5899C59.7199 107.29 59.8299 107.18 59.8299 107.05C59.8299 106.92 59.7249 106.81 59.5899 106.81H46.2249V103.75H70.9499C71.1949 103.75 71.3899 103.95 71.3899 104.19V106.37Z" fill="#07064E"></path>
</g>
<path id="Vector_31" d="M148.144 58.2148C145.009 58.3398 143.049 60.2948 141.994 62.0648C140.604 64.3998 140.629 69.1448 140.874 71.0398C140.994 71.9448 141.409 80.1348 141.269 81.2748C141.884 80.5148 146.234 78.5698 148.544 78.0598C153.049 77.0598 155.229 76.3148 157.594 74.1848C160.379 71.6748 163.324 65.9748 159.784 62.2548C157.919 60.2998 152.704 60.3498 152.704 60.3498C152.704 60.3498 150.839 58.1098 148.139 58.2198L148.144 58.2148Z" fill="#2BF5BA"></path>
<path id="Vector_32" d="M168.46 103.88C173.875 103.88 178.265 102.9 178.265 101.69C178.265 100.48 173.875 99.5 168.46 99.5C163.045 99.5 158.655 100.48 158.655 101.69C158.655 102.9 163.045 103.88 168.46 103.88Z" fill="#2AEDB4"></path>
<g id="Vector_33">
<path d="M178.95 85.2503L175.25 101.64H161.67L157.98 85.2903" fill="#2BF5BA"></path>
<path d="M180.69 77.7603H156.235V85.2753H180.69V77.7603Z" fill="#2BF5BA"></path>
</g>
<g id="Vector_34">
<path d="M180.649 77.7355L172.729 77.8405C174.139 85.8105 174.109 95.9605 170.854 101.505L175.255 101.635L180.654 77.7305L180.649 77.7355Z" fill="#00EBA6"></path>
<path d="M180.685 77.7354L171.48 77.7504C171.92 80.2304 171.51 82.7304 171.62 85.2504H180.685V77.7354Z" fill="#00EBA6"></path>
</g>
<g id="Vector_35">
<path d="M161.399 66.0302C161.359 64.7302 160.654 63.3202 159.814 62.3252C158.929 61.2852 157.254 60.4852 153.989 60.3702C154.839 64.8152 154.754 70.4052 150.799 73.0402C146.484 75.9152 144.039 76.9902 141.294 80.5652C141.294 80.8852 141.294 81.1302 141.274 81.2702C141.889 80.5102 147.164 78.4152 149.464 77.8552C153.129 76.9552 154.569 76.7152 157.019 74.6702C159.469 72.6252 161.514 69.7752 161.399 66.0302Z" fill="#00EBA6"></path>
<path d="M158.369 37.5102C159.494 37.5102 160.689 36.9602 161.519 36.2902C162.389 35.5852 163.024 34.2202 163.014 31.5402C159.194 32.1402 154.354 31.9452 151.944 28.6352C149.309 25.0202 148.299 22.9852 145.114 20.6452C144.834 20.6452 144.624 20.6302 144.504 20.6152C145.184 21.1402 147.169 25.5302 147.739 27.4302C148.644 30.4652 148.899 31.6602 150.749 33.7202C152.649 35.8352 155.134 37.5302 158.374 37.5152L158.369 37.5102Z" fill="#00EBA6"></path>
<path d="M178.664 46.7352C177.559 46.9552 176.279 46.6552 175.334 46.1602C174.339 45.6452 173.449 44.4302 172.929 41.8002C177.829 43.8552 182.829 42.4502 184.544 38.7252C186.414 34.6602 185.664 30.5002 188.324 27.5752C188.594 27.5152 188.804 27.4652 188.919 27.4202C188.359 28.0652 187.274 32.7652 187.099 34.7402C186.814 37.8952 186.799 39.1152 185.394 41.5002C183.954 43.9502 181.849 46.1002 178.669 46.7302L178.664 46.7352Z" fill="#00EBA6"></path>
<path d="M174.944 63.0802C174.504 62.2052 174.454 61.0602 174.644 60.1502C174.844 59.1952 175.654 58.1652 177.734 57.1102C178.779 60.3102 180.499 61.7402 184.019 62.3052C187.864 62.9202 190.189 65.1452 193.269 66.6902C193.384 66.9052 193.474 67.0652 193.534 67.1502C192.859 66.8302 188.669 67.0252 186.969 67.3402C184.259 67.8402 183.229 68.1102 180.899 67.4952C178.504 66.8602 176.209 65.6002 174.939 63.0802H174.944Z" fill="#00EBA6"></path>
<path d="M163.819 52.0252C164.354 51.2702 164.624 50.2052 164.654 49.3252C164.684 48.4002 164.519 48.3402 164.334 48.0752C162.844 50.9202 158.859 51.9802 155.894 51.9752C152.659 51.9652 151.064 51.6452 148.264 52.6302C148.129 52.8152 148.024 52.9502 147.954 53.0252C148.564 52.8302 151.914 53.6452 153.229 54.2002C155.324 55.0802 156.099 55.4902 158.104 55.2652C160.169 55.0302 162.279 54.1952 163.814 52.0302L163.819 52.0252Z" fill="#00EBA6"></path>
</g>
<path id="Vector_36" d="M193.734 67.02C193.249 66.33 190.584 60.79 190.339 60.17C189.829 58.87 188.104 55.62 186.294 54.445C185.224 53.75 183.069 52.735 180.684 53.715C179.149 54.345 178.569 55.835 178.394 56.425C177.689 56.32 176.999 56.345 176.319 56.52C173.189 57.32 171.364 60.78 170.879 61.825C170.869 61.845 170.864 61.865 170.854 61.885C170.569 59.905 170.299 58.025 170.089 56.305C169.614 52.43 170.124 46.295 172.589 41.265C172.814 42.42 173.539 45.4 175.144 46.365C175.969 46.86 176.834 47.075 177.709 47.075C180.719 47.075 183.774 44.52 185.254 42.205C186.779 39.82 187.129 37.825 187.389 33.98C187.524 31.955 188.599 28.16 189.099 27.58C189.169 27.5 189.179 27.38 189.114 27.29C189.054 27.2 188.939 27.165 188.839 27.2C187.924 27.525 180.964 28.765 180.204 28.84C178.609 29 174.494 29.9 172.639 31.54C171.549 32.505 169.764 34.565 170.109 37.49C170.319 39.29 171.664 40.365 172.299 40.78C169.669 45.965 169.124 52.35 169.614 56.36C169.854 58.32 170.169 60.48 170.499 62.76C169.129 66.58 169.029 72.55 169.119 77.49H168.784C168.639 76.825 168.544 75.81 168.439 74.64C168.194 72.01 167.864 68.405 166.659 66.015C166.279 65.26 165.789 64.365 165.199 63.445C165.184 58.895 165.679 53.745 167.344 48.635C170.404 39.25 167.174 34.115 163.234 30.59C163.629 30.24 165.089 28.81 164.919 26.755C164.679 23.82 162.524 22.155 161.259 21.42C159.119 20.18 154.904 20.11 153.309 20.27C152.549 20.345 145.484 20.505 144.524 20.37C144.419 20.355 144.314 20.415 144.274 20.515C144.234 20.615 144.264 20.73 144.349 20.795C144.959 21.265 146.759 24.77 147.294 26.73C148.309 30.45 149.049 32.33 151.014 34.37C152.679 36.095 155.554 37.76 158.224 37.76C159.499 37.76 160.724 37.38 161.744 36.445C163.019 35.28 163.224 32.59 163.239 31.25C166.874 34.645 169.709 39.555 166.969 48.23C166.049 46.58 164.824 45.545 163.314 45.155C162.969 45.065 162.624 45.02 162.289 45C162.274 44.445 162.119 42.925 160.969 42.075C159.209 40.775 157.239 41.405 156.219 41.9C154.514 42.725 152.459 45.515 151.784 46.655C151.464 47.2 148.189 51.99 147.654 52.565C147.579 52.645 147.569 52.765 147.629 52.855C147.689 52.945 147.799 52.985 147.904 52.955C148.424 52.785 151.209 53.305 152.494 53.885C154.484 54.785 155.774 55.245 157.239 55.245C157.639 55.245 158.054 55.21 158.499 55.14C161.079 54.745 164.864 52.505 164.789 48.97C164.759 47.62 163.534 46.25 162.779 45.53C162.919 45.55 163.059 45.58 163.199 45.615C164.699 46 165.904 47.09 166.774 48.865C165.269 53.64 164.759 58.435 164.724 62.73C163.139 60.43 160.979 58.17 158.409 57.77C156.499 57.475 154.609 58.25 152.779 60.065C152.334 59.58 150.579 57.875 148.134 57.975C144.589 58.115 142.639 60.52 141.789 61.94C140.349 64.355 140.399 69.22 140.639 71.07C140.754 71.95 141.169 80.135 141.034 81.245C141.019 81.35 141.079 81.45 141.179 81.495C141.209 81.51 141.239 81.515 141.274 81.515C141.344 81.515 141.414 81.485 141.459 81.425C142.014 80.74 146.229 78.815 148.599 78.29C153.084 77.295 155.344 76.53 157.759 74.355C159.609 72.685 161.534 69.655 161.649 66.645C161.719 64.865 161.149 63.33 159.964 62.085C158.449 60.495 154.924 60.18 153.414 60.12C155.034 58.625 156.689 57.985 158.339 58.24C160.964 58.645 163.174 61.175 164.724 63.58C164.749 68.41 165.344 72.545 165.729 75.205C165.869 76.16 165.979 76.94 166.029 77.49H156.274C156.229 77.49 156.189 77.505 156.149 77.53C156.059 77.565 155.994 77.65 155.994 77.75V85.265C155.994 85.395 156.099 85.505 156.234 85.505H157.784L160.309 96.685L161.439 101.685C161.464 101.795 161.559 101.87 161.669 101.87H175.244C175.354 101.87 175.454 101.795 175.474 101.685L179.129 85.505H180.679C180.809 85.505 180.919 85.4 180.919 85.265V77.75C180.919 77.65 180.854 77.565 180.764 77.53C180.724 77.505 180.684 77.49 180.639 77.49H172.489C172.629 74.145 171.794 68.41 170.989 62.86C170.989 62.84 170.984 62.82 170.979 62.8C171.079 62.525 171.189 62.265 171.304 62.015C171.634 61.305 173.424 57.74 176.429 56.97C176.864 56.86 177.309 56.815 177.759 56.835C176.704 57.4 174.784 58.6 174.394 60.02C173.394 63.64 177.309 66.66 180.269 67.56C181.324 67.88 182.259 68.025 183.264 68.025C184.509 68.025 185.859 67.805 187.684 67.425C189.369 67.075 192.844 67.08 193.429 67.36C193.529 67.405 193.644 67.38 193.714 67.3C193.784 67.215 193.789 67.1 193.729 67.01L193.734 67.02ZM170.584 37.435C170.264 34.725 171.934 32.8 172.959 31.895C174.724 30.335 178.709 29.465 180.254 29.31C180.879 29.245 186.459 28.27 188.429 27.8C187.819 29.14 187.019 32.26 186.909 33.945C186.644 37.88 186.294 39.68 184.849 41.945C183.044 44.77 178.794 48 175.389 45.955C173.614 44.89 172.979 40.77 172.974 40.73C172.969 40.685 172.944 40.645 172.919 40.615C174.139 38.335 175.789 36.32 177.964 34.905C178.074 34.835 178.104 34.685 178.034 34.575C177.964 34.465 177.814 34.435 177.704 34.505C175.469 35.955 173.779 38.02 172.524 40.355C171.944 39.96 170.764 38.985 170.584 37.435ZM162.874 30.27C161.734 29.285 160.549 28.43 159.454 27.635C158.319 26.815 157.249 26.04 156.469 25.285C156.374 25.195 156.224 25.195 156.134 25.29C156.044 25.385 156.044 25.535 156.139 25.625C156.944 26.405 158.029 27.19 159.179 28.02C160.329 28.855 161.579 29.76 162.764 30.81C162.774 31.81 162.709 34.915 161.424 36.09C158.494 38.77 153.684 36.445 151.359 34.035C149.494 32.1 148.794 30.405 147.754 26.6C147.309 24.97 145.909 22.07 145.049 20.88C147.074 20.95 152.734 20.805 153.364 20.745C154.909 20.59 158.984 20.65 161.024 21.835C162.204 22.52 164.224 24.075 164.444 26.795C164.604 28.72 163.094 30.085 162.869 30.275L162.874 30.27ZM164.314 48.985C164.384 52.24 160.844 54.305 158.429 54.675C156.504 54.97 155.249 54.615 152.694 53.455C151.674 52.995 149.514 52.495 148.359 52.455C149.399 51.08 151.939 47.34 152.199 46.9C152.849 45.795 154.819 43.11 156.429 42.33C157.349 41.885 159.129 41.305 160.689 42.46C161.639 43.165 161.794 44.49 161.814 44.995C160.164 45.035 158.769 45.735 158.274 46.085C157.649 46.525 157.074 47.08 156.514 47.615C155.714 48.385 154.964 49.11 154.189 49.385C154.064 49.43 153.999 49.565 154.044 49.69C154.079 49.79 154.169 49.85 154.269 49.85C154.294 49.85 154.324 49.85 154.349 49.835C155.219 49.525 156.009 48.765 156.849 47.96C157.394 47.435 157.954 46.895 158.554 46.475C158.994 46.165 160.399 45.465 162.004 45.475C162.429 45.83 164.289 47.49 164.324 48.99L164.314 48.985ZM159.619 62.415C160.714 63.565 161.234 64.985 161.174 66.63C161.064 69.5 159.219 72.4 157.444 74.005C155.144 76.075 153.099 76.805 148.499 77.825C146.489 78.27 142.889 79.815 141.539 80.745C141.574 78.52 141.209 71.75 141.114 71.01C140.879 69.21 140.824 64.495 142.199 62.19C142.999 60.85 144.834 58.585 148.154 58.455C150.399 58.365 152.064 60.005 152.444 60.41C150.654 62.325 150.079 64.145 149.479 66.065C148.819 68.18 148.064 70.575 145.544 73.605C145.459 73.705 145.474 73.855 145.574 73.94C145.674 74.025 145.824 74.01 145.909 73.91C148.494 70.805 149.259 68.36 149.934 66.205C150.559 64.205 151.104 62.47 152.934 60.585C153.924 60.6 158.064 60.775 159.624 62.415H159.619ZM166.199 75.145C165.839 72.645 165.289 68.83 165.209 64.37C165.604 65.035 165.949 65.675 166.229 66.235C167.394 68.545 167.719 72.1 167.959 74.69C168.064 75.82 168.154 76.805 168.294 77.5H166.499C166.454 76.935 166.339 76.14 166.199 75.15V75.145ZM180.449 85.035H165.954C165.824 85.035 165.714 85.14 165.714 85.275C165.714 85.41 165.819 85.515 165.954 85.515H178.649L175.059 101.405H161.864L158.274 85.515H160.559C160.689 85.515 160.799 85.41 160.799 85.275C160.799 85.14 160.694 85.035 160.559 85.035H156.474V77.995H180.454V85.035H180.449ZM172.019 77.495H169.594C169.514 72.975 169.594 67.59 170.654 63.84C171.414 69.09 172.149 74.375 172.019 77.495ZM187.594 66.97C184.239 67.67 182.649 67.795 180.419 67.115C177.639 66.27 173.949 63.47 174.864 60.16C175.309 58.55 178.209 57.145 178.614 56.955C179.534 57.15 180.479 57.59 181.444 58.3C181.549 58.38 181.699 58.355 181.779 58.25C181.859 58.145 181.834 57.995 181.729 57.915C180.764 57.205 179.809 56.74 178.869 56.52C179.039 55.98 179.564 54.69 180.869 54.16C181.514 53.895 182.139 53.79 182.724 53.79C184.139 53.79 185.339 54.395 186.039 54.85C187.759 55.96 189.409 59.09 189.904 60.35C190.099 60.855 192.179 65.205 193.054 66.8C191.759 66.61 189.049 66.675 187.599 66.975L187.594 66.97Z" fill="#07064E"></path>
<path id="Vector_37" d="M100.225 69.0151C99.8246 69.4601 99.7246 70.1051 99.9846 70.6501H101.39L100.225 69.0151Z" fill="#DDDDDD"></path>
<path id="Vector_38" d="M100.294 71.1299L106.154 79.3599L106.784 79.4649H107.664L101.729 71.1299H100.294Z" fill="#EDEDED"></path>
<path id="Vector_39" d="M114.54 68.3103C114.145 67.7603 113.28 67.7003 112.605 68.1803C111.94 68.6553 111.71 69.4703 112.08 70.0253C111.68 69.4953 110.83 69.4453 110.165 69.9203C109.5 70.3953 109.27 71.2103 109.64 71.7653C109.24 71.2353 108.39 71.1853 107.725 71.6603C107.07 72.1253 106.84 72.9253 107.185 73.4803L103.015 67.6203C102.535 66.9453 101.595 66.7853 100.92 67.2653C100.245 67.7453 100.085 68.6853 100.565 69.3603L108.265 80.1803L104.765 79.5903C103.945 79.4503 103.17 80.0053 103.035 80.8203C102.895 81.6403 103.45 82.4153 104.265 82.5503L111.9 83.8353C112.095 83.8853 112.29 83.9153 112.49 83.9353H112.53C112.665 83.9653 112.8 83.9603 112.93 83.9503C113.645 83.9303 114.365 83.7053 114.99 83.2603L118.685 80.6303C120.105 79.6203 120.655 77.7353 120.065 76.1803C120.01 76.0303 119.94 75.8953 119.835 75.7403L114.545 68.3103H114.54Z" fill="white"></path>
<path id="Vector_40" d="M112.745 84.1999C112.66 84.1999 112.575 84.1949 112.49 84.1799C112.255 84.1549 112.045 84.1199 111.84 84.0699L104.225 82.7899C103.765 82.7149 103.365 82.4599 103.095 82.0849C102.825 81.7049 102.72 81.2449 102.795 80.7849C102.955 79.8399 103.855 79.1999 104.8 79.3599L107.735 79.8549L100.365 69.5049C99.8097 68.7249 99.9897 67.6349 100.775 67.0799C101.155 66.8099 101.615 66.7049 102.075 66.7799C102.535 66.8549 102.935 67.1099 103.205 67.4849L106.825 72.5699C106.92 72.1599 107.185 71.7549 107.585 71.4699C108.11 71.0999 108.725 71.0099 109.22 71.1849C109.215 70.6599 109.5 70.1049 110.025 69.7299C110.55 69.3599 111.165 69.2699 111.66 69.4449C111.655 68.9199 111.94 68.3649 112.465 67.9899C113.245 67.4349 114.265 67.5149 114.73 68.1749L120.02 75.6049C120.135 75.7649 120.215 75.9199 120.28 76.0999C120.915 77.7799 120.3 79.7699 118.815 80.8249L115.12 83.4549C114.475 83.9149 113.72 84.1699 112.93 84.1899C112.865 84.1949 112.8 84.1999 112.74 84.1999H112.745ZM104.51 79.8099C103.905 79.8099 103.37 80.2499 103.265 80.8649C103.21 81.1999 103.285 81.5349 103.48 81.8099C103.675 82.0849 103.965 82.2699 104.3 82.3249L111.935 83.6099C112.135 83.6599 112.32 83.6899 112.51 83.7049C112.515 83.7049 112.565 83.7149 112.57 83.7149C112.67 83.7299 112.775 83.7349 112.905 83.7199C113.615 83.6999 114.285 83.4749 114.85 83.0699L118.545 80.4399C119.855 79.5049 120.4 77.7499 119.84 76.2699C119.785 76.1249 119.725 76.0099 119.635 75.8849L114.345 68.4549C114.03 68.0099 113.31 67.9799 112.74 68.3849C112.185 68.7799 111.975 69.4599 112.275 69.9049C112.345 70.0099 112.32 70.1549 112.215 70.2299C112.11 70.3049 111.965 70.2799 111.885 70.1799C111.565 69.7549 110.85 69.7299 110.3 70.1249C109.745 70.5199 109.535 71.1999 109.835 71.6399C109.905 71.7449 109.88 71.8899 109.775 71.9649C109.67 72.0399 109.525 72.0149 109.445 71.9149C109.125 71.4899 108.41 71.4649 107.86 71.8599C107.31 72.2499 107.1 72.9099 107.38 73.3549C107.45 73.4649 107.42 73.6099 107.31 73.6799C107.205 73.7499 107.06 73.7249 106.985 73.6199L102.815 67.7599C102.62 67.4849 102.33 67.2999 101.995 67.2449C101.66 67.1899 101.325 67.2649 101.05 67.4599C100.48 67.8649 100.35 68.6549 100.755 69.2249L108.455 80.0449C108.51 80.1249 108.515 80.2299 108.465 80.3099C108.415 80.3899 108.32 80.4349 108.225 80.4199L104.725 79.8299C104.655 79.8199 104.585 79.8099 104.515 79.8099H104.51Z" fill="#07064E"></path>
</g>
</g>
</g>
</g>
<defs>
<clipPath id="clip0_86_1216">
<rect width="200" height="140" fill="white"></rect>
</clipPath>
</defs>
</svg>