<svg width="200" height="140" viewBox="0 0 200 140" fill="none" xmlns="http://www.w3.org/2000/svg">
<g id="illu_bg_voting-type-yes-no/Default" clip-path="url(#clip0_86_1420)">
<g id="illu_bg_voting-type-yes-no">
<g id="background">
<path d="M174.17 10.6649C209.19 30.7049 190.315 111.325 160.475 121.145C123.3 133.375 145.865 105.825 46.9949 134.215C14.0699 143.67 14.9549 129.815 27.0399 101.745C39.8449 72.0049 3.92994 72.3449 3.16994 38.4949C2.69494 17.4499 21.4649 -4.50513 50.9049 5.18487C108.62 24.1899 141.195 -8.19513 174.165 10.6649H174.17Z" fill="#2BF5BA"></path>
<path d="M3.90494 86.6449C3.30494 84.0499 5.28994 81.2649 8.34494 80.4249C11.3949 79.5799 14.3599 80.9999 14.9599 83.5949C15.5599 86.1899 13.5749 88.9749 10.5199 89.8149C7.46994 90.6599 4.50494 89.2399 3.90494 86.6449Z" fill="#2BF5BA"></path>
<path d="M165.385 134.139C166.694 133.16 167.132 131.533 166.363 130.505C165.594 129.476 163.909 129.437 162.6 130.416C161.291 131.395 160.853 133.023 161.623 134.051C162.392 135.079 164.076 135.119 165.385 134.139Z" fill="#2BF5BA"></path>
<path d="M196.581 122.008C197.642 119.446 195.408 116.088 191.591 114.508C187.774 112.928 183.82 113.723 182.759 116.285C181.699 118.847 183.933 122.204 187.75 123.785C191.567 125.365 195.521 124.569 196.581 122.008Z" fill="#2BF5BA"></path>
</g>
<g id="illu_bg_voting-type-yes-no_2">
<g id="stroke">
<path id="Vector" d="M11.4648 98.6004C11.3248 98.6004 11.2148 98.4904 11.2148 98.3504C11.2148 98.2104 11.3248 98.1004 11.4648 98.1004L189.805 97.9004C189.945 97.9004 190.055 98.0104 190.055 98.1504C190.055 98.2904 189.945 98.4004 189.805 98.4004L11.4648 98.6004Z" fill="#07064E"></path>
<path id="Vector_2" d="M9.31982 98.6001H6.06982C5.92982 98.6001 5.81982 98.4901 5.81982 98.3501C5.81982 98.2101 5.92982 98.1001 6.06982 98.1001H9.31982C9.45982 98.1001 9.56982 98.2101 9.56982 98.3501C9.56982 98.4901 9.45982 98.6001 9.31982 98.6001Z" fill="#2BF5BA"></path>
<path id="Vector_3" d="M54.3047 22.0801H134.795C138.105 22.0801 140.795 24.7701 140.795 28.0801V71.9451H48.3047V28.0801C48.3047 24.7701 50.9947 22.0801 54.3047 22.0801Z" fill="#EDEDED"></path>
<path id="Vector_4" d="M116.095 100.255C115.745 101.765 114.385 102.905 112.77 102.905H76.3349C74.7199 102.905 73.3599 101.77 73.0099 100.255C50.6599 103.495 74.8449 106.72 94.5499 106.58C114.265 106.725 138.43 103.5 116.095 100.255Z" fill="#2AEDB4"></path>
<g id="Vector_5">
<path d="M112.765 96.0004H76.3297C74.4437 96.0004 72.9147 97.5293 72.9147 99.4154C72.9147 101.301 74.4437 102.83 76.3297 102.83H112.765C114.651 102.83 116.18 101.301 116.18 99.4154C116.18 97.5293 114.651 96.0004 112.765 96.0004Z" fill="white"></path>
<path d="M48.1099 71.8403V75.0953C48.1099 78.3953 50.8099 81.0953 54.1099 81.0953H86.6899V95.9853H102.405V81.0953H134.6C137.9 81.0953 140.6 78.3953 140.6 75.0953V71.8403H48.1099Z" fill="white"></path>
<path d="M112.77 96.0003H76.3349C74.4549 96.0003 72.9199 97.5353 72.9199 99.4153C72.9199 101.295 74.4549 102.83 76.3349 102.83H112.77C114.65 102.83 116.185 101.295 116.185 99.4153C116.185 97.5353 114.65 96.0003 112.77 96.0003Z" fill="white"></path>
</g>
<path id="Vector_6" d="M86.9197 80.98C86.9197 81.03 86.9097 81.075 86.9097 81.125C86.9097 84.985 90.3297 88.11 94.5497 88.11C98.7697 88.11 102.19 84.985 102.19 81.125C102.19 81.075 102.185 81.03 102.18 80.98H86.9147H86.9197Z" fill="#EBEBEB"></path>
<g id="Vector_7">
<path d="M112.77 103.08H76.3348C74.3148 103.08 72.6698 101.435 72.6698 99.4152C72.6698 97.3952 74.3148 95.7502 76.3348 95.7502H112.77C114.79 95.7502 116.435 97.3952 116.435 99.4152C116.435 101.435 114.79 103.08 112.77 103.08ZM76.3348 96.2502C74.5898 96.2502 73.1698 97.6702 73.1698 99.4152C73.1698 101.16 74.5898 102.58 76.3348 102.58H112.77C114.515 102.58 115.935 101.16 115.935 99.4152C115.935 97.6702 114.515 96.2502 112.77 96.2502H76.3348Z" fill="#07064E"></path>
<path d="M134.795 21.8301H54.3047C50.8597 21.8301 48.0547 24.6351 48.0547 28.0801V75.1701C48.0547 78.6151 50.8597 81.4201 54.3047 81.4201H86.4147V95.7501H76.3297C74.3097 95.7501 72.6647 97.3951 72.6647 99.4151C72.6647 101.435 74.3097 103.08 76.3297 103.08H112.765C114.785 103.08 116.43 101.435 116.43 99.4151C116.43 97.3951 114.785 95.7501 112.765 95.7501H102.68V81.4201H134.79C138.235 81.4201 141.04 78.6151 141.04 75.1701V28.0801C141.04 24.6351 138.235 21.8301 134.79 21.8301H134.795ZM54.3047 22.3301H134.795C137.965 22.3301 140.545 24.9101 140.545 28.0801V71.6651H48.5547V28.0801C48.5547 24.9101 51.1347 22.3301 54.3047 22.3301ZM112.77 96.2502C114.515 96.2502 115.935 97.6702 115.935 99.4152C115.935 101.16 114.515 102.58 112.77 102.58H76.3348C74.5898 102.58 73.1698 101.16 73.1698 99.4152C73.1698 97.6702 74.5898 96.2502 76.3348 96.2502H112.77ZM86.9197 95.7501V81.4201H102.185V95.7501H86.9197ZM134.795 80.9201H54.3047C51.1347 80.9201 48.5547 78.3401 48.5547 75.1701V72.1651H140.545V75.1701C140.545 78.3401 137.965 80.9201 134.795 80.9201Z" fill="#07064E"></path>
</g>
<path id="Vector_8" d="M126.355 18.9102H62.5498C58.6369 18.9102 55.4648 22.0822 55.4648 25.9952V60.4802C55.4648 64.3931 58.6369 67.5652 62.5498 67.5652H126.355C130.268 67.5652 133.44 64.3931 133.44 60.4802V25.9952C133.44 22.0822 130.268 18.9102 126.355 18.9102Z" fill="#DDDDDD"></path>
<path id="Vector_9" d="M126.355 16.7852H62.5498C58.6369 16.7852 55.4648 19.9572 55.4648 23.8702V58.3552C55.4648 62.2681 58.6369 65.4402 62.5498 65.4402H126.355C130.268 65.4402 133.44 62.2681 133.44 58.3552V23.8702C133.44 19.9572 130.268 16.7852 126.355 16.7852Z" fill="white"></path>
<g id="Group">
<path id="Vector_10" d="M61.8597 16.7852H127.035C130.57 16.7852 133.44 19.6552 133.44 23.1902V25.1002H55.4497V23.1902C55.4497 19.6552 58.3197 16.7852 61.8547 16.7852H61.8597Z" fill="#07064E"></path>
<path id="Vector_11" d="M121.835 20.94C121.875 23.75 117.465 23.75 117.505 20.94C117.465 18.13 121.875 18.13 121.835 20.94Z" fill="white"></path>
<path id="Vector_12" d="M128.11 20.94C128.15 23.75 123.74 23.75 123.78 20.94C123.74 18.13 128.15 18.13 128.11 20.94Z" fill="#2BF5BA"></path>
</g>
<path id="Vector_13" d="M36.4797 43.2902H23.1397L25.3497 41.0802C25.6947 40.7352 25.8847 40.2752 25.8847 39.7902C25.8847 39.3052 25.6947 38.8452 25.3497 38.5002C24.6347 37.7852 23.4797 37.7902 22.7647 38.5002L17.0297 44.2352C16.8597 44.3802 16.6997 44.5402 16.5397 44.7252C16.4347 44.8302 16.3397 44.9552 16.2597 45.1002C15.7997 45.7902 15.5547 46.5902 15.5547 47.4252V52.1902C15.5547 54.1052 16.8797 55.8452 18.7047 56.3202C18.8997 56.3752 19.0797 56.3952 19.2847 56.3952H28.8647C29.7147 56.3952 30.3997 55.5752 30.3997 54.5702C30.3997 53.8952 30.0997 53.3102 29.6447 52.9952C30.0997 52.6802 30.3997 52.0952 30.3997 51.4202C30.3997 50.7452 30.0997 50.1602 29.6447 49.8452C30.0997 49.5302 30.3997 48.9452 30.3997 48.2702C30.3997 47.7502 30.2147 47.2852 29.9247 46.9502H36.4797C37.4897 46.9502 38.3047 46.1302 38.3047 45.1252C38.3047 44.1202 37.4847 43.3002 36.4797 43.3002V43.2902Z" fill="#2AEDB4"></path>
<path id="Vector_14" d="M28.8697 54.0101C29.5797 54.0101 30.1547 53.3051 30.1547 52.4351C30.1547 51.5751 29.5947 50.8801 28.8997 50.8601C29.5947 50.8401 30.1547 50.1451 30.1547 49.2851C30.1547 48.4251 29.5947 47.7301 28.8997 47.7101C29.5947 47.6901 30.1547 46.9951 30.1547 46.1351C30.1547 45.2901 29.6097 44.6051 28.9297 44.5651H36.4797C37.3497 44.5651 38.0547 43.8601 38.0547 42.9901C38.0547 42.1201 37.3497 41.4151 36.4797 41.4151H22.5347L25.1697 38.7801C25.7847 38.1651 25.7847 37.1651 25.1697 36.5501C24.5547 35.9351 23.5547 35.9351 22.9397 36.5501L17.1897 42.3001C17.0297 42.4351 16.8797 42.5851 16.7447 42.7451L16.7147 42.7751C16.6147 42.8751 16.5347 42.9901 16.4647 43.1101C16.0447 43.7351 15.8047 44.4851 15.8047 45.2951V50.0601C15.8047 51.8901 17.0797 53.5051 18.7697 53.9501C18.9347 53.9951 19.0897 54.0201 19.2847 54.0201H28.8647L28.8697 54.0101Z" fill="white"></path>
<path id="Vector_15" d="M28.8696 54.2604H19.2896C19.0846 54.2604 18.9046 54.2354 18.7096 54.1854C16.8846 53.7054 15.5596 51.9704 15.5596 50.0554V45.2904C15.5596 44.4604 15.8046 43.6554 16.2646 42.9654C16.3446 42.8204 16.4396 42.7004 16.5446 42.5904C16.7046 42.4054 16.8646 42.2454 17.0346 42.1004L22.7696 36.3654C23.4796 35.6554 24.6396 35.6504 25.3546 36.3654C25.6996 36.7104 25.8896 37.1704 25.8896 37.6554C25.8896 38.1404 25.6996 38.6004 25.3546 38.9454L23.1446 41.1554H36.4846C37.4946 41.1554 38.3096 41.9754 38.3096 42.9804C38.3096 43.9854 37.4896 44.8054 36.4846 44.8054H29.9296C30.2246 45.1404 30.4046 45.6054 30.4046 46.1254C30.4046 46.8004 30.1046 47.3854 29.6496 47.7004C30.1046 48.0154 30.4046 48.6004 30.4046 49.2754C30.4046 49.9504 30.1046 50.5354 29.6496 50.8504C30.1046 51.1654 30.4046 51.7504 30.4046 52.4254C30.4046 53.4354 29.7146 54.2504 28.8696 54.2504V54.2604ZM24.0546 36.3354C23.7146 36.3354 23.3746 36.4654 23.1146 36.7254L17.3646 42.4754C17.1996 42.6154 17.0596 42.7554 16.9346 42.9054C16.9346 42.9054 16.8946 42.9454 16.8896 42.9504C16.8146 43.0254 16.7496 43.1154 16.6796 43.2354C16.2646 43.8554 16.0496 44.5654 16.0496 45.2954V50.0604C16.0496 51.7504 17.2196 53.2854 18.8296 53.7054C18.9846 53.7454 19.1196 53.7654 19.2846 53.7654H28.8646C29.4346 53.7654 29.8996 53.1704 29.8996 52.4404C29.8996 51.7104 29.4446 51.1354 28.8846 51.1154C28.7496 51.1154 28.6396 51.0004 28.6396 50.8654C28.6396 50.7304 28.7446 50.6204 28.8796 50.6154C29.4396 50.6004 29.8946 50.0054 29.8946 49.2904C29.8946 48.5754 29.4396 47.9854 28.8796 47.9654C28.7446 47.9654 28.6396 47.8504 28.6396 47.7154C28.6396 47.5804 28.7446 47.4704 28.8796 47.4654C29.4396 47.4504 29.8946 46.8554 29.8946 46.1404C29.8946 45.4254 29.4596 44.8554 28.9046 44.8204C28.7696 44.8104 28.6646 44.7004 28.6696 44.5654C28.6696 44.4304 28.7846 44.3204 28.9196 44.3204H36.4696C37.1996 44.3204 37.7946 43.7254 37.7946 42.9954C37.7946 42.2654 37.1996 41.6704 36.4696 41.6704H22.5246C22.4246 41.6704 22.3346 41.6104 22.2946 41.5154C22.2546 41.4204 22.2796 41.3154 22.3496 41.2454L24.9846 38.6104C25.5046 38.0904 25.5046 37.2504 24.9846 36.7354C24.7246 36.4754 24.3846 36.3454 24.0446 36.3454L24.0546 36.3354Z" fill="#07064E"></path>
<g id="Group_2">
<path id="Vector_16" d="M124.79 53.5302H113.635C111.425 53.5302 109.63 51.7352 109.63 49.5252V38.3702C109.63 36.1602 111.425 34.3652 113.635 34.3652H124.79C127 34.3652 128.795 36.1602 128.795 38.3702V49.5252C128.795 51.7352 127 53.5302 124.79 53.5302ZM113.635 34.8602C111.7 34.8602 110.13 36.4352 110.13 38.3652V49.5202C110.13 51.4552 111.705 53.0252 113.635 53.0252H124.79C126.725 53.0252 128.295 51.4502 128.295 49.5202V38.3652C128.295 36.4302 126.72 34.8602 124.79 34.8602H113.635Z" fill="#07064E"></path>
<g id="Vector_17">
<path d="M75.2699 34.6104H64.1149C62.041 34.6104 60.3599 36.2915 60.3599 38.3654V49.5204C60.3599 51.5942 62.041 53.2754 64.1149 53.2754H75.2699C77.3437 53.2754 79.0249 51.5942 79.0249 49.5204V38.3654C79.0249 36.2915 77.3437 34.6104 75.2699 34.6104Z" fill="#2BF5BA"></path>
<path d="M100.03 34.6105H88.8749C86.801 34.6105 85.1199 36.2916 85.1199 38.3655V49.5205C85.1199 51.5943 86.801 53.2755 88.8749 53.2755H100.03C102.104 53.2755 103.785 51.5943 103.785 49.5205V38.3655C103.785 36.2916 102.104 34.6105 100.03 34.6105Z" fill="#2BF5BA"></path>
</g>
<g id="Vector_18">
<path d="M69.425 48.475C69.355 48.475 69.285 48.445 69.235 48.39L65.445 44.005C65.355 43.9 65.365 43.745 65.47 43.65C65.575 43.56 65.73 43.57 65.825 43.675L69.37 47.78L73.53 39.555C73.59 39.43 73.745 39.38 73.865 39.445C73.99 39.505 74.04 39.66 73.975 39.78L69.645 48.34C69.605 48.415 69.535 48.465 69.45 48.475C69.44 48.475 69.43 48.475 69.42 48.475H69.425Z" fill="white"></path>
<path d="M97.8001 47.5399C97.7351 47.5399 97.6701 47.5149 97.6251 47.4649L90.9351 40.7749C90.8351 40.6749 90.8351 40.5199 90.9351 40.4199C91.0351 40.3199 91.1901 40.3199 91.2901 40.4199L97.9801 47.1099C98.0801 47.2099 98.0801 47.3649 97.9801 47.4649C97.9301 47.5149 97.8651 47.5399 97.8051 47.5399H97.8001Z" fill="white"></path>
<path d="M91.1051 47.5399C91.0401 47.5399 90.9751 47.5149 90.9301 47.4649C90.8301 47.3649 90.8301 47.2099 90.9301 47.1099L97.6201 40.4199C97.7201 40.3199 97.8751 40.3199 97.9751 40.4199C98.0751 40.5199 98.0751 40.6749 97.9751 40.7749L91.2851 47.4649C91.2351 47.5149 91.1701 47.5399 91.1101 47.5399H91.1051Z" fill="white"></path>
</g>
</g>
</g>
</g>
</g>
</g>
<defs>
<clipPath id="clip0_86_1420">
<rect width="200" height="140" fill="white"></rect>
</clipPath>
</defs>
</svg>