<svg width="200" height="140" viewBox="0 0 200 140" fill="none" xmlns="http://www.w3.org/2000/svg">
<g id="illu_bg_one-time-voting/Default" clip-path="url(#clip0_86_1384)">
<g id="illu_bg_one-time-voting">
<g id="background">
<path d="M175.7 11.0998C210.72 29.6948 193.865 102.425 163.96 111.32C132.395 120.71 144.655 107.08 45.7852 133.43C12.8602 142.205 13.7452 129.345 25.8302 103.3C38.6352 75.6998 5.46021 68.3398 4.70021 36.9298C4.22521 17.3998 23.0002 -2.98023 52.4402 6.01477C110.155 23.6498 142.73 -6.40523 175.7 11.0998Z" fill="#2BF5BA"></path>
<path d="M193.616 119.454C194.677 116.892 192.442 113.534 188.625 111.954C184.808 110.374 180.854 111.169 179.794 113.731C178.733 116.293 180.968 119.65 184.785 121.23C188.602 122.811 192.556 122.015 193.616 119.454Z" fill="#2BF5BA"></path>
<path d="M5.43521 84.0998C4.83521 81.5048 6.82021 78.7198 9.87521 77.8798C12.9252 77.0348 15.8902 78.4548 16.4902 81.0498C17.0902 83.6448 15.1052 86.4297 12.0502 87.2698C9.00021 88.1148 6.03521 86.6948 5.43521 84.0998Z" fill="#2BF5BA"></path>
<path d="M166.916 131.595C168.225 130.616 168.663 128.988 167.894 127.96C167.125 126.932 165.44 126.892 164.131 127.872C162.822 128.851 162.384 130.478 163.153 131.506C163.923 132.535 165.607 132.574 166.916 131.595Z" fill="#2BF5BA"></path>
</g>
<g id="illu_bg_one-time-voting_2">
<g id="stroke">
<path id="Vector" d="M12.9951 96.0496C12.8551 96.0496 12.7451 95.9396 12.7451 95.7996C12.7451 95.6596 12.8551 95.5496 12.9951 95.5496L191.335 95.3496C191.475 95.3496 191.585 95.4596 191.585 95.5996C191.585 95.7396 191.475 95.8496 191.335 95.8496L12.9951 96.0496Z" fill="#07064E"></path>
<path id="Vector_2" d="M10.855 96.0498H7.60498C7.46498 96.0498 7.35498 95.9398 7.35498 95.7998C7.35498 95.6598 7.46498 95.5498 7.60498 95.5498H10.855C10.995 95.5498 11.105 95.6598 11.105 95.7998C11.105 95.9398 10.995 96.0498 10.855 96.0498Z" fill="#2BF5BA"></path>
<path id="Vector_3" d="M58.5347 19.835H139.025C142.335 19.835 145.025 22.525 145.025 25.835V69.7H52.5347V25.835C52.5347 22.525 55.2247 19.835 58.5347 19.835Z" fill="#EDEDED"></path>
<g id="Vector_4">
<path d="M116.995 93.7546H80.5598C78.6737 93.7546 77.1448 95.2836 77.1448 97.1696C77.1448 99.0557 78.6737 100.585 80.5598 100.585H116.995C118.881 100.585 120.41 99.0557 120.41 97.1696C120.41 95.2836 118.881 93.7546 116.995 93.7546Z" fill="white"></path>
<path d="M106.635 78.7898H90.9197V93.7398H106.635V78.7898Z" fill="white"></path>
<path d="M52.3398 69.5996H144.83V72.8546C144.83 76.1646 142.14 78.8546 138.83 78.8546H58.3398C55.0298 78.8546 52.3398 76.1646 52.3398 72.8546V69.5996Z" fill="white"></path>
</g>
<path id="Vector_5" d="M120.325 98.0146C119.975 99.5246 118.615 100.665 117 100.665H80.5649C78.9499 100.665 77.5899 99.5296 77.2399 98.0146C54.8899 101.255 79.0749 104.48 98.7799 104.34C118.495 104.485 142.66 101.26 120.325 98.0146Z" fill="#2AEDB4"></path>
<path id="Vector_6" d="M91.1448 78.7349C91.1448 78.7849 91.1348 78.8299 91.1348 78.8799C91.1348 82.7399 94.5548 85.8649 98.7748 85.8649C102.995 85.8649 106.415 82.7399 106.415 78.8799C106.415 78.8299 106.41 78.7849 106.405 78.7349H91.1398H91.1448Z" fill="#EBEBEB"></path>
<path id="Vector_7" d="M139.025 19.585H58.5347C55.0897 19.585 52.2847 22.39 52.2847 25.835V72.925C52.2847 76.37 55.0897 79.175 58.5347 79.175H90.6447V93.505H80.5597C78.5397 93.505 76.8947 95.15 76.8947 97.17C76.8947 99.19 78.5397 100.835 80.5597 100.835H116.995C119.015 100.835 120.66 99.19 120.66 97.17C120.66 95.15 119.015 93.505 116.995 93.505H106.91V79.175H139.02C142.465 79.175 145.27 76.37 145.27 72.925V25.835C145.27 22.39 142.465 19.585 139.02 19.585H139.025ZM58.5347 20.085H139.025C142.195 20.085 144.775 22.665 144.775 25.835V69.42H52.7847V25.835C52.7847 22.665 55.3647 20.085 58.5347 20.085ZM116.995 94.005C118.74 94.005 120.16 95.425 120.16 97.17C120.16 98.915 118.74 100.335 116.995 100.335H80.5597C78.8147 100.335 77.3947 98.915 77.3947 97.17C77.3947 95.425 78.8147 94.005 80.5597 94.005H116.995ZM91.1447 93.505V79.175H106.41V93.505H91.1447ZM139.025 78.675H58.5347C55.3647 78.675 52.7847 76.095 52.7847 72.925V69.92H144.775V72.925C144.775 76.095 142.195 78.675 139.025 78.675Z" fill="#07064E"></path>
<path id="Vector_8" d="M129.72 29.3198H67.64C64.387 29.3198 61.75 31.9569 61.75 35.2098V59.1298C61.75 62.3828 64.387 65.0198 67.64 65.0198H129.72C132.973 65.0198 135.61 62.3828 135.61 59.1298V35.2098C135.61 31.9569 132.973 29.3198 129.72 29.3198Z" fill="#DDDDDD"></path>
<path id="Vector_9" d="M129.72 27.1899H67.64C64.387 27.1899 61.75 29.827 61.75 33.0799V56.9999C61.75 60.2529 64.387 62.8899 67.64 62.8899H129.72C132.973 62.8899 135.61 60.2529 135.61 56.9999V33.0799C135.61 29.827 132.973 27.1899 129.72 27.1899Z" fill="white"></path>
<path id="Vector_10" d="M68.16 26.5449H129.205C132.74 26.5449 135.61 29.4149 135.61 32.9499V34.8599H61.75V32.9499C61.75 29.4149 64.62 26.5449 68.155 26.5449H68.16Z" fill="#07064E"></path>
<path id="Vector_11" d="M124.005 30.7047C124.045 33.5147 119.635 33.5147 119.675 30.7047C119.635 27.8947 124.045 27.8947 124.005 30.7047Z" fill="white"></path>
<path id="Vector_12" d="M130.28 30.7047C130.32 33.5147 125.91 33.5147 125.95 30.7047C125.91 27.8947 130.32 27.8947 130.28 30.7047Z" fill="#2BF5BA"></path>
<path id="Vector_13" d="M101.475 42.0747H93.0547C91.489 42.0747 90.2197 43.344 90.2197 44.9097V53.3297C90.2197 54.8954 91.489 56.1647 93.0547 56.1647H101.475C103.04 56.1647 104.31 54.8954 104.31 53.3297V44.9097C104.31 43.344 103.04 42.0747 101.475 42.0747Z" fill="#EDEDED"></path>
<path id="Vector_14" d="M101.475 39.9497H93.0547C91.489 39.9497 90.2197 41.219 90.2197 42.7847V51.2047C90.2197 52.7704 91.489 54.0397 93.0547 54.0397H101.475C103.04 54.0397 104.31 52.7704 104.31 51.2047V42.7847C104.31 41.219 103.04 39.9497 101.475 39.9497Z" fill="#07064E"></path>
<g id="Vector_15">
<path d="M82.7853 39.9502H74.3653C72.7995 39.9502 71.5303 41.2195 71.5303 42.7852V51.2052C71.5303 52.7709 72.7995 54.0402 74.3653 54.0402H82.7853C84.351 54.0402 85.6203 52.7709 85.6203 51.2052V42.7852C85.6203 41.2195 84.351 39.9502 82.7853 39.9502Z" fill="#2BF5BA"></path>
<path d="M120.16 39.9502H111.74C110.175 39.9502 108.905 41.2195 108.905 42.7852V51.2052C108.905 52.7709 110.175 54.0402 111.74 54.0402H120.16C121.726 54.0402 122.995 52.7709 122.995 51.2052V42.7852C122.995 41.2195 121.726 39.9502 120.16 39.9502Z" fill="#2BF5BA"></path>
</g>
<g id="Vector_16">
<path d="M82.7748 51.4753C82.5748 51.4453 81.7248 51.5503 81.5748 51.3953C81.4498 51.4253 80.6498 49.1303 80.5848 49.0253H76.5648C76.5048 49.1153 75.6898 51.4403 75.5848 51.3903C75.4348 51.5553 74.5848 51.4503 74.3848 51.4803L77.9698 42.5203H79.1948L82.7798 51.4803L82.7748 51.4753ZM80.2448 48.1503C80.0148 47.5103 78.6948 44.2653 78.5748 43.6653C78.4498 44.2703 77.1248 47.5153 76.8998 48.1503H80.2448Z" fill="white"></path>
<path d="M96.9647 42.5152C99.8847 41.9852 101.525 45.9202 98.4397 46.8652C101.09 47.0952 100.965 50.7302 98.6097 51.2902C97.7647 51.6152 95.0397 51.4252 94.1047 51.4752V42.5152H96.9647ZM95.3147 43.4702V46.5302C96.5697 46.5152 98.9397 46.8402 98.9147 45.0002C99.0047 43.0852 96.6147 43.5252 95.3147 43.4752V43.4702ZM97.2497 50.5152C99.7597 50.7952 99.9047 47.1102 97.2497 47.3952H95.3097V50.5152H97.2497Z" fill="white"></path>
<path d="M119.045 49.6252C119.21 49.5952 119.59 50.1402 119.7 50.2252C117.13 53.1802 111.825 51.0102 112.2 47.0002C111.89 43.1302 116.84 40.9102 119.56 43.5552C119.33 43.8102 119.07 44.5502 118.63 44.1352C111.39 40.2352 112.18 54.3952 119.045 49.6302V49.6252Z" fill="white"></path>
</g>
<path id="Vector_17" d="M125.935 66.4399C125.865 66.2499 125.78 66.0899 125.66 65.9199L120.105 58.1149C119.615 57.4249 118.545 57.3399 117.725 57.9199C117.175 58.3099 116.875 58.8949 116.88 59.4449C116.36 59.2599 115.71 59.3499 115.16 59.7449C114.61 60.1349 114.31 60.7199 114.315 61.2699C113.795 61.0849 113.145 61.1749 112.595 61.5699C112.175 61.8699 111.895 62.2899 111.795 62.7249L107.995 57.3849C107.41 56.5649 106.27 56.3699 105.445 56.9549C105.045 57.2399 104.785 57.6599 104.705 58.1399C104.625 58.6199 104.735 59.1049 105.02 59.5049L112.755 70.3749L109.675 69.8549C108.68 69.6899 107.735 70.3599 107.57 71.3549C107.405 72.3499 108.075 73.2949 109.07 73.4599L117.065 74.8049C117.28 74.8599 117.505 74.8949 117.75 74.9199C117.835 74.9349 117.925 74.9399 118.015 74.9399C118.08 74.9399 118.145 74.9399 118.215 74.9299C119.045 74.9049 119.84 74.6399 120.515 74.1549L124.395 71.3949C125.955 70.2849 126.6 68.1949 125.93 66.4349L125.935 66.4399Z" fill="#EDEDED"></path>
<path id="Vector_18" d="M119.9 56.14C119.49 55.56 118.58 55.5 117.87 56.005C117.17 56.505 116.93 57.36 117.315 57.94C116.895 57.385 116.005 57.33 115.305 57.83C114.605 58.33 114.365 59.185 114.75 59.765C114.33 59.21 113.44 59.155 112.74 59.655C112.05 60.145 111.81 60.985 112.17 61.565L107.79 55.415C107.285 54.705 106.3 54.54 105.59 55.045C104.88 55.55 104.715 56.535 105.22 57.245L113.305 68.605L109.63 67.985C108.77 67.84 107.955 68.42 107.815 69.28C107.67 70.14 108.25 70.955 109.11 71.095L117.125 72.445C117.33 72.495 117.535 72.53 117.745 72.55H117.785C117.925 72.58 118.065 72.58 118.205 72.565C118.955 72.545 119.71 72.305 120.37 71.84L124.25 69.08C125.74 68.02 126.32 66.04 125.7 64.41C125.64 64.25 125.57 64.11 125.455 63.95L119.9 56.145V56.14Z" fill="white"></path>
<path id="Vector_19" d="M118.015 72.8247C117.925 72.8247 117.835 72.8197 117.75 72.8047C117.505 72.7797 117.285 72.7447 117.065 72.6897L109.07 71.3447C108.075 71.1797 107.405 70.2347 107.57 69.2397C107.735 68.2447 108.68 67.5747 109.675 67.7397L112.755 68.2597L105.02 57.3897C104.735 56.9897 104.625 56.5097 104.705 56.0247C104.785 55.5447 105.05 55.1247 105.445 54.8397C106.265 54.2547 107.41 54.4497 107.995 55.2697L111.795 60.6097C111.895 60.1747 112.17 59.7547 112.595 59.4547C113.145 59.0647 113.795 58.9697 114.315 59.1547C114.31 58.5997 114.61 58.0197 115.16 57.6297C115.71 57.2397 116.36 57.1447 116.88 57.3297C116.875 56.7747 117.175 56.1947 117.725 55.8047C118.545 55.2197 119.615 55.3047 120.105 55.9997L125.66 63.8047C125.78 63.9747 125.865 64.1347 125.935 64.3247C126.605 66.0897 125.96 68.1747 124.4 69.2847L120.52 72.0447C119.845 72.5247 119.05 72.7947 118.22 72.8197C118.15 72.8247 118.085 72.8297 118.02 72.8297L118.015 72.8247ZM109.37 68.2097C108.735 68.2097 108.17 68.6697 108.06 69.3147C107.94 70.0347 108.425 70.7247 109.15 70.8447L117.165 72.1947C117.375 72.2447 117.57 72.2797 117.765 72.2947C117.77 72.2947 117.82 72.3047 117.825 72.3047C117.93 72.3247 118.04 72.3247 118.175 72.3097C118.92 72.2897 119.62 72.0497 120.22 71.6297L124.1 68.8697C125.48 67.8897 126.05 66.0447 125.46 64.4897C125.405 64.3397 125.34 64.2197 125.245 64.0847L119.69 56.2797C119.36 55.8147 118.605 55.7797 118.005 56.2047C117.425 56.6197 117.205 57.3347 117.515 57.7997C117.59 57.9147 117.56 58.0647 117.45 58.1447C117.34 58.2247 117.185 58.1997 117.105 58.0897C116.765 57.6447 116.02 57.6197 115.44 58.0297C114.86 58.4447 114.64 59.1597 114.95 59.6247C115.025 59.7397 114.995 59.8897 114.885 59.9697C114.775 60.0497 114.62 60.0247 114.54 59.9147C114.2 59.4697 113.455 59.4447 112.875 59.8547C112.3 60.2647 112.08 60.9547 112.375 61.4247C112.445 61.5397 112.415 61.6897 112.3 61.7647C112.185 61.8397 112.035 61.8097 111.955 61.6997L107.575 55.5497C107.15 54.9547 106.32 54.8147 105.725 55.2397C105.435 55.4447 105.245 55.7497 105.185 56.0997C105.125 56.4497 105.205 56.7997 105.415 57.0897L113.5 68.4497C113.56 68.5347 113.56 68.6397 113.51 68.7297C113.455 68.8147 113.355 68.8597 113.255 68.8447L109.58 68.2247C109.505 68.2147 109.43 68.2047 109.36 68.2047L109.37 68.2097Z" fill="#07064E"></path>
</g>
</g>
</g>
</g>
<defs>
<clipPath id="clip0_86_1384">
<rect width="200" height="140" fill="white"></rect>
</clipPath>
</defs>
</svg>