<svg viewBox="0 0 200 140" width="200" height="140"  fill="none" xmlns="http://www.w3.org/2000/svg">
<g clip-path="url(#clip0_85_2188)">
<path d="M158.9 14.2649C192.84 31.3349 202.175 124.48 167.155 132.44C132.615 140.29 127.35 123.75 64.0099 130.81C27.8949 134.835 1.34987 125.12 16.2249 100.87C38.3499 64.8099 21.4349 56.0649 16.2249 45.9299C7.63987 29.2249 25.9749 1.84493 64.0099 9.56993C133.74 23.7349 135.02 2.25493 158.9 14.2649Z" fill="#EBEBEB"/>
<path d="M188.61 28.9281C193.044 28.4754 196.389 25.6698 196.082 22.6617C195.775 19.6536 191.931 17.582 187.497 18.0347C183.064 18.4875 179.718 21.293 180.025 24.3011C180.332 27.3093 184.176 29.3808 188.61 28.9281Z" fill="#2BF5BA"/>
<path d="M187.052 12.4627C188.361 11.4835 188.799 9.85611 188.03 8.82792C187.261 7.79973 185.576 7.76007 184.267 8.73934C182.958 9.7186 182.52 11.346 183.29 12.3741C184.059 13.4023 185.743 13.442 187.052 12.4627Z" fill="#2BF5BA"/>
<path d="M10.2003 60.3671C11.5093 59.3878 11.9469 57.7605 11.1777 56.7323C10.4085 55.7041 8.72383 55.6644 7.41483 56.6437C6.10582 57.623 5.66821 59.2503 6.43739 60.2785C7.20658 61.3067 8.89128 61.3464 10.2003 60.3671Z" fill="#2BF5BA"/>
<path d="M157.48 11.43C191.42 28.5 200.755 121.645 165.735 129.605C131.195 137.455 125.93 120.915 62.5901 127.975C26.4751 132.005 -0.0698833 122.285 14.8051 98.04C36.9301 61.98 20.0151 53.235 14.8051 43.1C6.22512 26.39 24.5601 -0.989976 62.5901 6.73502C132.32 20.9 133.6 -0.579976 157.48 11.43Z" fill="#2BF5BA"/>
<path d="M8.03628 21.7568C9.34529 20.7775 9.7829 19.1501 9.01372 18.122C8.24453 17.0938 6.55983 17.0541 5.25082 18.0334C3.94181 19.0126 3.5042 20.64 4.27339 21.6682C5.04257 22.6964 6.72727 22.736 8.03628 21.7568Z" fill="#2BF5BA"/>
<path d="M12.0405 96.11C11.9005 96.11 11.7905 96 11.7905 95.86C11.7905 95.72 11.9005 95.61 12.0405 95.61L190.381 95.41C190.521 95.41 190.631 95.52 190.631 95.66C190.631 95.8 190.521 95.91 190.381 95.91L12.0405 96.11Z" fill="#07064E"/>
<path d="M9.90039 96.11H6.65039C6.51039 96.11 6.40039 96 6.40039 95.86C6.40039 95.72 6.51039 95.61 6.65039 95.61H9.90039C10.0404 95.61 10.1504 95.72 10.1504 95.86C10.1504 96 10.0404 96.11 9.90039 96.11Z" fill="#2BF5BA"/>
<path d="M154.031 28.735L128.901 23.69C126.886 23.285 124.911 24.605 124.506 26.615L123.206 33.1L120.821 44.98L119.316 52.49C119.176 53.185 120.056 53.605 120.506 53.06L125.276 47.335C125.916 46.565 126.931 46.205 127.916 46.405L149.611 50.76C151.626 51.165 153.601 49.845 154.006 47.835L156.956 33.135C157.361 31.12 156.041 29.145 154.031 28.74V28.735Z" fill="#2AEDB4"/>
<path d="M154.031 26.605L128.901 21.56C126.886 21.155 124.911 22.475 124.506 24.485L123.206 30.97L120.821 42.85L119.316 50.36C119.176 51.055 120.056 51.475 120.506 50.93L125.276 45.205C125.916 44.435 126.931 44.075 127.916 44.275L149.611 48.63C151.626 49.035 153.601 47.715 154.006 45.705L156.956 31.005C157.361 28.99 156.041 27.015 154.031 26.61V26.605Z" fill="white"/>
<path d="M128.513 21.4889L154.411 26.6874C156.22 27.0505 157.396 28.8163 157.033 30.6253L156.91 31.238L124.457 24.7239L124.58 24.1111C124.943 22.3022 126.709 21.1267 128.518 21.4898L128.513 21.4889Z" fill="#07064E"/>
<path d="M151.286 29.05C151.822 29.05 152.256 28.6158 152.256 28.08C152.256 27.5443 151.822 27.11 151.286 27.11C150.75 27.11 150.316 27.5443 150.316 28.08C150.316 28.6158 150.75 29.05 151.286 29.05Z" fill="white"/>
<path d="M154.046 29.605C154.581 29.605 155.016 29.1708 155.016 28.635C155.016 28.0993 154.581 27.665 154.046 27.665C153.51 27.665 153.076 28.0993 153.076 28.635C153.076 29.1708 153.51 29.605 154.046 29.605Z" fill="#2BF5BA"/>
<path d="M132.129 30.3963L128.3 29.6278C127.345 29.4359 126.414 30.0552 126.222 31.0109L125.454 34.8395C125.262 35.7952 125.881 36.7255 126.837 36.9173L130.666 37.6859C131.621 37.8777 132.552 37.2584 132.744 36.3027L133.512 32.4741C133.704 31.5184 133.085 30.5881 132.129 30.3963Z" fill="#07064E"/>
<path d="M135.896 35.0758L135.127 38.9045C134.935 39.8602 135.555 40.7905 136.51 40.9823L140.339 41.7508C141.295 41.9427 142.225 41.3234 142.417 40.3677L143.185 36.5391C143.377 35.5833 142.758 34.6531 141.802 34.4612L137.973 33.6927C137.018 33.5009 136.087 34.1201 135.896 35.0758Z" fill="#EBEBEB"/>
<path d="M135.897 32.9527L135.129 36.7813C134.937 37.737 135.556 38.6673 136.512 38.8591L140.34 39.6276C141.296 39.8195 142.226 39.2002 142.418 38.2445L143.187 34.4159C143.379 33.4602 142.759 32.5299 141.804 32.338L137.975 31.5695C137.019 31.3777 136.089 31.9969 135.897 32.9527Z" fill="#2BF5BA"/>
<path d="M151.467 34.2765L147.639 33.508C146.683 33.3162 145.753 33.9354 145.561 34.8911L144.792 38.7198C144.6 39.6755 145.22 40.6058 146.175 40.7976L150.004 41.5661C150.96 41.758 151.89 41.1387 152.082 40.183L152.85 36.3544C153.042 35.3986 152.423 34.4684 151.467 34.2765Z" fill="#2BF5BA"/>
<path d="M131.191 36.405L130.706 36.31C130.651 36.3 130.606 36.275 130.576 36.24C130.546 36.205 130.526 36.165 130.521 36.12L130.311 34.915L128.231 34.495L127.571 35.53C127.551 35.565 127.521 35.595 127.476 35.62C127.431 35.645 127.386 35.65 127.331 35.64L126.846 35.545L129.631 31.28L130.266 31.405L131.191 36.415V36.405ZM130.231 34.425L129.881 32.39C129.871 32.33 129.861 32.26 129.851 32.18C129.841 32.1 129.836 32.015 129.831 31.93C129.751 32.095 129.676 32.23 129.606 32.34L128.501 34.075L130.231 34.42V34.425Z" fill="white"/>
<path d="M139.466 33.245C139.751 33.3 139.991 33.38 140.186 33.475C140.381 33.57 140.536 33.685 140.646 33.815C140.756 33.945 140.831 34.09 140.861 34.255C140.891 34.42 140.891 34.59 140.851 34.78C140.826 34.895 140.786 35 140.731 35.1C140.676 35.195 140.601 35.285 140.511 35.36C140.421 35.435 140.316 35.5 140.191 35.55C140.066 35.6 139.926 35.635 139.771 35.65C140.101 35.785 140.331 35.955 140.466 36.17C140.601 36.38 140.641 36.635 140.581 36.92C140.541 37.115 140.471 37.29 140.366 37.435C140.261 37.58 140.126 37.7 139.966 37.79C139.806 37.88 139.616 37.935 139.401 37.955C139.186 37.98 138.946 37.965 138.691 37.91L137.051 37.58L137.981 32.94L139.461 33.235L139.466 33.245ZM138.511 33.565L138.191 35.15L139.021 35.315C139.196 35.35 139.356 35.36 139.496 35.35C139.636 35.335 139.751 35.305 139.851 35.255C139.951 35.205 140.031 35.13 140.091 35.04C140.151 34.95 140.196 34.845 140.216 34.73C140.271 34.455 140.231 34.24 140.091 34.08C139.951 33.92 139.711 33.805 139.366 33.735L138.511 33.565ZM138.786 37.41C138.966 37.445 139.126 37.455 139.261 37.44C139.401 37.425 139.516 37.39 139.616 37.33C139.716 37.27 139.791 37.195 139.851 37.1C139.911 37.005 139.951 36.895 139.976 36.775C140.026 36.535 139.976 36.33 139.836 36.155C139.696 35.98 139.451 35.86 139.111 35.79L138.106 35.59L137.781 37.205L138.786 37.405V37.41Z" fill="white"/>
<path d="M150.156 39.215C150.191 39.22 150.216 39.24 150.236 39.275L150.431 39.595C150.196 39.775 149.931 39.9 149.636 39.97C149.341 40.04 149.001 40.035 148.616 39.955C148.286 39.89 147.991 39.77 147.746 39.6C147.496 39.43 147.296 39.22 147.146 38.975C146.996 38.73 146.896 38.45 146.851 38.135C146.806 37.825 146.816 37.49 146.886 37.14C146.956 36.79 147.076 36.48 147.246 36.21C147.416 35.94 147.621 35.72 147.861 35.55C148.101 35.38 148.376 35.265 148.676 35.205C148.976 35.145 149.296 35.15 149.631 35.215C149.961 35.28 150.241 35.395 150.471 35.55C150.701 35.705 150.896 35.895 151.051 36.115L150.786 36.36C150.786 36.36 150.746 36.395 150.726 36.405C150.701 36.415 150.676 36.415 150.641 36.405C150.601 36.395 150.561 36.365 150.511 36.315C150.461 36.26 150.401 36.2 150.321 36.13C150.241 36.06 150.136 35.99 150.011 35.92C149.881 35.85 149.721 35.795 149.521 35.755C149.281 35.705 149.056 35.705 148.841 35.75C148.626 35.795 148.431 35.88 148.256 36.01C148.081 36.14 147.931 36.31 147.806 36.52C147.681 36.73 147.591 36.98 147.531 37.265C147.471 37.55 147.461 37.82 147.501 38.065C147.541 38.31 147.611 38.52 147.726 38.71C147.836 38.895 147.986 39.05 148.161 39.17C148.341 39.29 148.541 39.375 148.771 39.42C148.911 39.45 149.036 39.465 149.151 39.47C149.266 39.475 149.371 39.47 149.476 39.455C149.576 39.44 149.671 39.415 149.766 39.375C149.856 39.34 149.951 39.29 150.046 39.235C150.091 39.21 150.131 39.2 150.166 39.21L150.156 39.215Z" fill="white"/>
<path d="M57.1605 32.1001L69.4655 30.3301C66.8055 24.8951 66.0255 20.2151 66.0255 20.2151L54.6255 18.8501C54.6255 18.8501 54.7805 25.4351 57.1555 32.0951L57.1605 32.1001Z" fill="#2AEDB4"/>
<path d="M42.2556 42.165H38.9106C40.2306 38.45 41.0056 33.785 40.9656 27.98H42.2556V42.165Z" fill="#2AEDB4"/>
<path d="M42.2556 40.04H38.9106C40.2306 36.325 41.0056 31.66 40.9656 25.855H42.2556V40.04Z" fill="white"/>
<path d="M42.2558 25.855H40.9658V27.565H42.2558V25.855Z" fill="white"/>
<path d="M42.2558 27.815H40.9658C40.8258 27.815 40.7158 27.705 40.7158 27.565V25.855C40.7158 25.715 40.8258 25.605 40.9658 25.605H42.2558C42.3958 25.605 42.5058 25.715 42.5058 25.855V27.565C42.5058 27.705 42.3958 27.815 42.2558 27.815ZM41.2158 27.315H42.0058V26.105H41.2158V27.315Z" fill="#07064E"/>
<path d="M108.821 61.5101C102.511 73.6301 95.2409 73.4951 88.8809 61.4701C91.6159 58.2701 92.1309 55.6301 91.4959 50.3451C97.5609 57.0701 101.546 55.5951 106.241 50.3451C105.596 56.8651 106.071 58.4651 108.821 61.5101Z" fill="white"/>
<path d="M128.89 71.4951C128.985 67.1101 125.445 63.5051 121.06 63.5301L109.175 61.3351C103.655 66.2651 95.9603 67.1151 89.0553 61.4001L77.1853 63.5201C71.9653 63.6851 68.9103 67.6601 69.1303 72.8801L69.9303 95.7601L128.105 95.7951L128.89 71.4951Z" fill="#FFC391"/>
<path d="M88.1207 35.0751C88.1207 33.5251 87.4157 33.1301 86.6557 33.2351C85.6307 33.3751 85.1607 34.7301 85.5057 36.9451C85.8707 39.2951 86.8007 42.9351 88.0257 41.6751L88.1257 35.0751H88.1207Z" fill="white"/>
<path d="M109.681 35.0751C109.681 33.5251 110.386 33.1301 111.146 33.2351C112.171 33.3751 112.641 34.7301 112.296 36.9451C111.931 39.2951 111.001 42.9351 109.776 41.6751L109.201 41.5651L109.681 35.0751Z" fill="white"/>
<path d="M106.085 50.4401C106.085 54.4801 102.73 59.2201 98.7305 59.2201C94.7305 59.2201 91.6055 54.4801 91.6055 50.4401C91.6055 46.4001 94.8455 43.1301 98.8455 43.1301C102.845 43.1301 106.085 46.4051 106.085 50.4401Z" fill="#EBEBEB"/>
<path d="M106.136 25.2001C108.521 28.4701 110.021 33.3701 109.746 38.7051C109.421 45.0301 109.991 46.2101 107.546 48.9201C106.631 49.9301 102.721 54.6901 99.3306 54.9201H98.4406C95.0506 54.6901 91.1356 49.9301 90.2256 48.9201C87.7806 46.2101 88.3506 45.0301 88.0256 38.7051C87.7806 33.9651 88.9406 29.5751 90.8706 26.3601" fill="white"/>
<path d="M110.036 23.5801L109.246 23.9201C114.101 21.4951 105.576 17.8801 104.756 17.5251C92.7955 12.3901 82.9105 23.3251 85.3755 35.5601C85.3455 32.6801 87.5505 32.4201 88.1405 34.3451C88.6155 31.4651 89.5405 28.7451 90.9205 26.2001C93.3355 26.9651 97.8005 27.9101 102.506 26.5051C103.906 26.0851 105.331 25.5601 106.626 25.0401L106.176 25.2301C106.176 25.2301 109.111 29.0701 109.626 34.7901C109.626 34.7901 110.806 30.9851 112.551 34.9451C112.551 34.9451 113.106 27.3651 110.041 23.5801H110.036Z" fill="#EBEBEB"/>
<path d="M109.426 25.1051C107.676 25.8651 105.311 26.8401 103.016 27.5251C96.0355 29.6101 89.5755 26.5201 89.5755 26.5201L90.5755 24.7201L106.751 23.8251L109.426 25.1051Z" fill="#EBEBEB"/>
<path d="M107.966 28.6251C109.021 40.7801 105.781 48.1651 99.5655 54.9151C102.861 54.0151 106.566 49.8351 107.436 48.9151C110.001 46.2051 109.401 45.0251 109.746 38.7001C109.946 34.9951 109.246 31.5051 107.966 28.6251Z" fill="#EBEBEB"/>
<path d="M107.881 33.7201V35.3451C107.881 37.3351 106.266 38.9501 104.276 38.9501C102.286 38.9501 100.671 37.3351 100.671 35.3451V33.7201H107.886H107.881Z" fill="#EBEBEB"/>
<path d="M96.9805 33.7201V35.3451C96.9805 37.3351 95.3655 38.9501 93.3755 38.9501C91.3855 38.9501 89.7705 37.3351 89.7705 35.3451V33.7201H96.9855H96.9805Z" fill="#EBEBEB"/>
<path d="M98.8855 48.3901H98.8805C97.2355 48.3901 95.6655 47.6451 94.3505 46.2451C94.2805 46.1701 94.2655 46.0651 94.3055 45.9751C94.3455 45.8851 94.4355 45.8251 94.5355 45.8251H103.241C103.341 45.8251 103.431 45.8851 103.471 45.9751C103.511 46.0651 103.491 46.1751 103.421 46.2451C102.096 47.6451 100.531 48.3851 98.8855 48.3851V48.3901ZM95.1405 46.3251C96.2655 47.3501 97.5455 47.8851 98.8805 47.8901H98.8855C100.216 47.8901 101.501 47.3501 102.626 46.3251H95.1405Z" fill="#07064E"/>
<path d="M97.5305 50.4601C97.3905 50.4601 97.2805 50.3501 97.2805 50.2101C97.2805 50.0701 97.3905 49.9601 97.5305 49.9601L100.236 49.9501C100.376 49.9501 100.486 50.0601 100.486 50.2001C100.486 50.3401 100.376 50.4501 100.236 50.4501L97.5305 50.4601Z" fill="#07064E"/>
<path d="M98.5455 41.9601C98.4955 41.9601 98.4505 41.9451 98.4055 41.9151L98.0055 41.6451C97.2955 41.1651 97.0805 40.2401 97.4955 39.4951L98.3105 38.0401L98.3505 35.1251C98.3505 34.9901 98.4655 34.8801 98.6005 34.8801C98.7405 34.8801 98.8505 34.9951 98.8455 35.1351L98.8005 38.1101C98.8005 38.1501 98.7905 38.1951 98.7705 38.2301L97.9255 39.7401C97.6355 40.2601 97.7855 40.9001 98.2805 41.2351L98.6805 41.5051C98.7955 41.5851 98.8255 41.7401 98.7455 41.8501C98.6955 41.9201 98.6205 41.9601 98.5405 41.9601H98.5455Z" fill="#07064E"/>
<path d="M96.4505 32.4701H89.7505C89.6105 32.4701 89.5005 32.3601 89.5005 32.2201C89.5005 32.0801 89.6105 31.9701 89.7505 31.9701H96.4505C96.5905 31.9701 96.7005 32.0801 96.7005 32.2201C96.7005 32.3601 96.5905 32.4701 96.4505 32.4701Z" fill="#07064E"/>
<path d="M107.791 32.4701H101.091C100.951 32.4701 100.841 32.3601 100.841 32.2201C100.841 32.0801 100.951 31.9701 101.091 31.9701H107.791C107.931 31.9701 108.041 32.0801 108.041 32.2201C108.041 32.3601 107.931 32.4701 107.791 32.4701Z" fill="#07064E"/>
<path d="M152.115 116.875C157.456 116.875 161.785 116.47 161.785 115.97C161.785 115.47 157.456 115.065 152.115 115.065C146.775 115.065 142.445 115.47 142.445 115.97C142.445 116.47 146.775 116.875 152.115 116.875Z" fill="#2AEDB4"/>
<path d="M148.49 95.8651C145.805 93.7651 147.905 89.9451 149.575 87.7601C151.09 84.0251 144.9 83.8801 145.36 79.4551C145.695 76.2251 150.765 72.5301 153.525 75.9151C155.375 78.1851 153.45 80.0501 154.095 82.2701C154.42 83.3801 156.105 83.7651 156.605 84.8951C158.07 88.1901 153.185 90.6251 152.215 93.9751C151.35 96.9551 153.2 98.2751 153.735 100.185C154.615 103.325 152.445 98.9701 148.49 95.8701V95.8651Z" fill="#AAFBE3"/>
<path d="M143.4 99.485H160.83V107.255C160.83 112.065 156.925 115.97 152.115 115.97C147.305 115.97 143.4 112.065 143.4 107.255V99.485Z" fill="#FFC391"/>
<path d="M157.68 99.565C157.635 103.485 157.015 107.635 155.29 110.21C153.66 112.5 148.325 114.89 148.24 114.935C150.13 115.77 150.02 115.965 152.115 115.965C156.93 115.965 160.83 112.065 160.83 107.25V99.48L157.68 99.56V99.565Z" fill="#FFAF6E"/>
<path d="M160.85 105.83C160.71 105.83 160.6 105.72 160.6 105.58V102.545C160.6 101.085 161.785 99.9 163.245 99.9C164.705 99.9 165.89 101.085 165.89 102.545C165.89 104.355 164.415 105.83 162.605 105.83H160.85ZM162.6 105.33C164.135 105.33 165.385 104.08 165.385 102.545C165.385 101.365 164.425 100.4 163.24 100.4C162.055 100.4 161.095 101.36 161.095 102.545V105.33H162.6Z" fill="#07064E"/>
<path d="M152.115 116.22C147.17 116.22 143.15 112.2 143.15 107.255V99.235H161.08V107.255C161.08 112.2 157.06 116.22 152.115 116.22ZM143.65 99.735V107.255C143.65 111.92 147.445 115.72 152.115 115.72C156.785 115.72 160.58 111.925 160.58 107.255V99.735H143.65Z" fill="#07064E"/>
<path d="M40.9809 25.855H26.7959V27.565H40.9809V25.855Z" fill="white"/>
<path d="M38.9108 42.1651H24.4658C26.6608 35.2701 26.7658 29.5951 26.7658 29.5951L40.9558 29.6101C40.9558 29.6101 40.0208 39.3451 38.9108 42.1651Z" fill="#2AEDB4"/>
<path d="M38.9108 40.0401H24.4658C26.6608 33.1451 26.7658 27.4701 26.7658 27.4701L40.9558 27.4851C40.9558 27.4851 40.0208 37.2201 38.9108 40.0401Z" fill="#2BF5BA"/>
<path d="M39.7708 27.485C37.6858 34.005 31.2958 37.725 24.4808 39.985C24.4758 40.005 24.4708 40.02 24.4658 40.04H38.9108C40.0208 37.22 40.9558 27.485 40.9558 27.485H39.7708Z" fill="#2AEDB4"/>
<path d="M42.2559 25.605H26.7959C26.6559 25.605 26.5459 25.715 26.5459 25.855C26.5459 32.585 24.8009 38.14 24.2259 39.965C24.2009 40.04 24.2159 40.125 24.2609 40.19C24.3059 40.255 24.3809 40.29 24.4609 40.29H42.2509C42.3909 40.29 42.5009 40.18 42.5009 40.04V25.855C42.5009 25.715 42.3909 25.605 42.2509 25.605H42.2559ZM40.7309 26.105C40.7309 26.51 40.7209 26.915 40.7109 27.315H27.0459V26.105H40.7309ZM38.7009 39.79H24.8059C25.3959 37.89 26.7259 33.375 26.9959 27.815H40.6959C40.5309 32.57 39.8259 36.935 38.7409 39.79H38.7009ZM42.0059 39.79H39.2659C40.3459 36.855 41.0409 32.46 41.1959 27.685C41.2159 27.65 41.2309 27.61 41.2309 27.57V26.11H42.0059V39.795V39.79Z" fill="#07064E"/>
<path d="M51.3094 42.2221L62.0273 46.0765L62.4927 44.7827L51.7747 40.9282L51.3094 42.2221Z" fill="white"/>
<path d="M49.4854 54.3401L60.4004 58.2651C60.6154 52.4601 62.0804 48.1451 62.0804 48.1451L51.3554 44.3051C51.3554 44.3051 49.4204 51.9151 49.4904 54.3451L49.4854 54.3401Z" fill="#2AEDB4"/>
<path d="M49.4854 52.2151L60.4004 56.1401C60.6154 50.3351 62.0804 46.0201 62.0804 46.0201L51.3554 42.1801C51.3554 42.1801 49.4204 49.7901 49.4904 52.2201L49.4854 52.2151Z" fill="#2BF5BA"/>
<path d="M53.4056 42.91L51.3556 42.175C51.3556 42.175 49.4206 49.785 49.4906 52.215L56.9056 54.8801C54.4956 51.4001 52.9406 47.515 53.4106 42.91H53.4056Z" fill="#2AEDB4"/>
<path d="M62.7409 44.7751C62.7409 44.7101 62.7109 44.6451 62.6609 44.6051C62.6409 44.5851 62.6159 44.5701 62.5859 44.5601C62.5859 44.5601 62.5809 44.5601 62.5759 44.5551L51.8609 40.7001C51.8309 40.6901 51.7959 40.6851 51.7659 40.6851C51.7309 40.6851 51.7009 40.6951 51.6709 40.7101C51.6109 40.7401 51.5659 40.7901 51.5409 40.8501C51.5409 40.8501 51.5409 40.8551 51.5409 40.8601L51.0809 42.1401C51.0659 42.1751 51.0659 42.2151 51.0709 42.2501C49.8459 46.0401 49.1709 49.6851 49.2459 52.2151C49.2459 52.3201 49.3159 52.4101 49.4109 52.4451L60.3259 56.3701C60.3559 56.3801 60.3809 56.3851 60.4109 56.3851C60.4609 56.3851 60.5109 56.3701 60.5509 56.3451C60.6159 56.3001 60.6559 56.2251 60.6609 56.1501C60.7209 54.6151 60.9159 49.9501 62.7359 44.8801C62.7359 44.8801 62.7359 44.8601 62.7359 44.8551C62.7409 44.8301 62.7459 44.8051 62.7459 44.7801L62.7409 44.7751ZM51.9309 41.2551L53.8609 41.9501L62.1759 44.9401L61.8809 45.7651L51.6509 42.0851C51.7409 41.8101 51.8359 41.5351 51.9309 41.2551ZM60.1659 55.7851L49.7359 52.0351C49.7009 49.6351 50.3559 46.1251 51.4959 42.5601L61.7509 46.2501C60.4759 50.4501 60.2409 54.1601 60.1659 55.7901V55.7851Z" fill="#07064E"/>
<path d="M36.0824 62.3668L47.8096 60.6309L47.6002 59.2163L35.873 60.9522L36.0824 62.3668Z" fill="white"/>
<path d="M39.3158 74.56L51.2608 72.7901C48.6008 67.3551 47.8208 62.675 47.8208 62.675L36.0908 64.4251C36.0908 64.4251 38.0558 72.3601 39.3208 74.555L39.3158 74.56Z" fill="#2AEDB4"/>
<path d="M39.3158 72.435L51.2608 70.6651C48.6008 65.2301 47.8208 60.55 47.8208 60.55L36.0908 62.3C36.0908 62.3 38.0558 70.2351 39.3208 72.43L39.3158 72.435Z" fill="#FFC391"/>
<path d="M37.1805 62.14L36.0854 62.305C36.0854 62.305 38.0504 70.24 39.3154 72.435L51.2604 70.665C51.2004 70.545 51.1455 70.425 51.0905 70.305C45.4255 69.28 40.1755 67.445 37.1805 62.14Z" fill="#FFAF6E"/>
<path d="M51.4853 70.5551C50.7903 69.1151 48.6653 64.7401 47.8453 59.1901C47.8253 59.0501 47.7003 58.9551 47.5603 58.9751L35.8303 60.7101C35.7653 60.7201 35.7053 60.7551 35.6653 60.8101C35.6453 60.8351 35.6353 60.8651 35.6253 60.8951C35.6203 60.9151 35.6253 60.9401 35.6253 60.9601C35.6253 60.9701 35.6253 60.9801 35.6253 60.9951L35.8353 62.4101C35.8403 62.4501 35.8603 62.4851 35.8803 62.5151C36.6203 66.5951 37.7953 70.2751 39.1053 72.5601C39.1503 72.6401 39.2353 72.6851 39.3203 72.6851C39.3303 72.6851 39.3453 72.6851 39.3553 72.6851L51.3003 70.9151C51.3803 70.9051 51.4453 70.8551 51.4853 70.7851C51.5203 70.7151 51.5253 70.6301 51.4853 70.5601V70.5551ZM36.1553 61.1701L47.3903 59.5051L47.5253 60.4251L36.3103 62.0851C36.2553 61.7801 36.2053 61.4751 36.1603 61.1651L36.1553 61.1701ZM39.4503 72.1601C38.2153 69.9451 37.1103 66.4551 36.3953 62.5801L47.6403 60.9151C48.5353 65.4101 50.1553 68.9451 50.8903 70.4701L39.4503 72.1651V72.1601Z" fill="#07064E"/>
<path d="M54.9925 20.1912L66.7197 18.4553L66.5103 17.0407L54.7831 18.7766L54.9925 20.1912Z" fill="white"/>
<path d="M58.2309 30.2551L70.1759 28.4851C67.5159 23.0501 66.7359 18.3701 66.7359 18.3701L55.0059 20.1201C55.0059 20.1201 56.9709 28.0551 58.2359 30.2501L58.2309 30.2551Z" fill="#FFC391"/>
<path d="M56.0955 19.9601L55.0005 20.1251C55.0005 20.1251 56.9655 28.0601 58.2305 30.2551L70.1755 28.4851C70.1155 28.3651 70.0605 28.2451 70.0055 28.1251C64.3405 27.1001 59.0905 25.2651 56.0955 19.9601Z" fill="#FFAF6E"/>
<path d="M70.4006 28.375C69.7056 26.935 67.5806 22.56 66.7606 17.01C66.7606 17.01 66.7556 16.99 66.7506 16.985C66.7206 16.86 66.6056 16.775 66.4756 16.795L54.7456 18.53C54.7106 18.53 54.6806 18.545 54.6506 18.565C54.6356 18.575 54.6306 18.585 54.6156 18.595C54.6006 18.605 54.5856 18.615 54.5756 18.63C54.5656 18.64 54.5656 18.655 54.5606 18.665C54.5506 18.68 54.5406 18.7 54.5356 18.715C54.5256 18.745 54.5256 18.775 54.5306 18.81C54.5306 18.81 54.5306 18.81 54.5306 18.815L54.7406 20.225C54.7456 20.265 54.7606 20.3 54.7856 20.33C55.5256 24.41 56.7006 28.09 58.0106 30.375C58.0556 30.455 58.1406 30.5 58.2256 30.5C58.2356 30.5 58.2506 30.5 58.2606 30.5L70.2056 28.73C70.2856 28.72 70.3506 28.67 70.3906 28.6C70.4256 28.53 70.4306 28.445 70.3906 28.375H70.4006ZM55.0656 18.99L66.3006 17.325L66.4356 18.245L55.2206 19.905C55.1656 19.6 55.1156 19.295 55.0706 18.985L55.0656 18.99ZM58.3656 29.98C57.1306 27.765 56.0256 24.275 55.3106 20.4L66.5556 18.735C67.4506 23.23 69.0706 26.765 69.8056 28.29L58.3656 29.985V29.98Z" fill="#07064E"/>
<path d="M104.276 37.455C103.216 37.455 102.351 36.53 102.351 35.395C102.351 35.255 102.461 35.145 102.601 35.145C102.741 35.145 102.851 35.255 102.851 35.395C102.851 36.255 103.491 36.955 104.276 36.955C105.061 36.955 105.701 36.255 105.701 35.395C105.701 35.255 105.811 35.145 105.951 35.145C106.091 35.145 106.201 35.255 106.201 35.395C106.201 36.53 105.336 37.455 104.276 37.455Z" fill="#07064E"/>
<path d="M93.3156 37.455C92.2556 37.455 91.3906 36.53 91.3906 35.395C91.3906 35.255 91.5006 35.145 91.6406 35.145C91.7806 35.145 91.8906 35.255 91.8906 35.395C91.8906 36.255 92.5306 36.955 93.3156 36.955C94.1006 36.955 94.7406 36.255 94.7406 35.395C94.7406 35.255 94.8506 35.145 94.9906 35.145C95.1306 35.145 95.2406 35.255 95.2406 35.395C95.2406 36.53 94.3756 37.455 93.3156 37.455Z" fill="#07064E"/>
<path d="M86.4303 24.775C85.0553 27.925 86.2703 21.68 93.0603 19.89C97.7453 18.485 105.355 19.26 109.71 23.66C113.505 21.245 105.545 17.865 104.75 17.525C96.5853 14.02 89.3903 18 86.4303 24.775Z" fill="white"/>
<path d="M99.5657 122.295C119.868 122.295 136.326 120.406 136.326 118.075C136.326 115.744 119.868 113.855 99.5657 113.855C79.2637 113.855 62.8057 115.744 62.8057 118.075C62.8057 120.406 79.2637 122.295 99.5657 122.295Z" fill="#2AEDB4"/>
<path d="M130.826 112.89H68.4355C67.6651 112.89 67.0405 113.515 67.0405 114.285V116.68C67.0405 117.45 67.6651 118.075 68.4355 118.075H130.826C131.596 118.075 132.221 117.45 132.221 116.68V114.285C132.221 113.515 131.596 112.89 130.826 112.89Z" fill="#EDEDED"/>
<path d="M130.826 118.325H68.4306C67.5256 118.325 66.7856 117.59 66.7856 116.68V114.285C66.7856 113.38 67.5206 112.64 68.4306 112.64H130.826C131.731 112.64 132.471 113.375 132.471 114.285V116.68C132.471 117.585 131.736 118.325 130.826 118.325ZM68.4306 113.14C67.8006 113.14 67.2856 113.655 67.2856 114.285V116.68C67.2856 117.31 67.8006 117.825 68.4306 117.825H130.826C131.456 117.825 131.971 117.31 131.971 116.68V114.285C131.971 113.655 131.456 113.14 130.826 113.14H68.4306Z" fill="#07064E"/>
<path d="M122.561 63.565L110.436 61.42L108.951 61.16C107.181 59.79 105.326 55.595 106.626 50.325C106.956 49.965 107.241 49.64 107.466 49.39C107.576 49.265 107.666 49.165 107.736 49.085C109.731 46.875 109.781 45.645 109.881 42.06C110.026 42.145 110.166 42.18 110.286 42.18C110.371 42.18 110.446 42.165 110.511 42.145C111.681 41.775 112.326 38.41 112.551 36.98C112.631 36.475 112.666 36.015 112.666 35.595C112.676 35.575 112.686 35.55 112.686 35.525C113.076 31.95 112.686 26.69 110.356 23.48C110.776 23.09 110.996 22.665 110.996 22.195C110.996 20.14 106.721 18.09 104.861 17.295C99.7307 15.095 94.5057 15.685 90.5207 18.925C85.9557 22.63 83.8457 29.18 85.1407 35.605C85.1407 35.62 85.1507 35.63 85.1557 35.645C85.1557 36.05 85.1907 36.495 85.2707 36.98C85.4957 38.41 86.1407 41.775 87.3107 42.145C87.3757 42.165 87.4507 42.18 87.5357 42.18C87.6457 42.18 87.7757 42.15 87.9057 42.08C88.0007 45.65 88.0557 46.88 90.0507 49.085C90.1207 49.165 90.2157 49.27 90.3207 49.39C90.5307 49.63 90.8007 49.93 91.1057 50.27C92.4257 55.58 90.5357 59.81 88.7507 61.155L75.0957 63.57C71.3507 64.38 68.6357 67.75 68.6357 71.59L69.4807 95.76C69.4807 95.895 69.5957 96 69.7307 96H98.6907C98.7357 96.065 98.8057 96.11 98.8907 96.11C98.9757 96.11 99.0457 96.065 99.0907 96H127.941C128.076 96 128.186 95.895 128.191 95.76L129.036 71.58C129.036 67.75 126.321 64.38 122.566 63.57L122.561 63.565ZM112.301 33.815C112.251 33.725 112.201 33.64 112.146 33.565C111.901 33.235 111.566 33.035 111.181 32.985C110.721 32.92 110.321 33.025 110.026 33.285C109.941 33.36 109.871 33.455 109.801 33.555C109.771 33.545 109.746 33.535 109.711 33.535H109.701C109.191 30.45 108.091 27.585 106.526 25.33C107.306 25.02 108.126 24.68 109.001 24.3C109.371 24.14 109.681 23.965 109.951 23.785C111.576 26.04 112.446 29.825 112.296 33.81L112.301 33.815ZM87.8407 41.5C87.6207 41.725 87.4957 41.685 87.4457 41.67C86.8557 41.48 86.1557 39.525 85.7507 36.905C85.5307 35.505 85.6407 34.425 86.0557 33.865C86.2207 33.645 86.4307 33.515 86.6857 33.48C87.0007 33.435 87.2557 33.5 87.4457 33.665C87.7107 33.9 87.8557 34.365 87.8657 35C87.7407 36.225 87.7107 37.47 87.7707 38.715C87.8257 39.77 87.8557 40.67 87.8757 41.475C87.8657 41.485 87.8507 41.49 87.8407 41.5ZM88.0207 33.54C88.0207 33.54 88.0007 33.54 87.9957 33.545C87.9307 33.45 87.8607 33.36 87.7757 33.285C87.4807 33.025 87.0807 32.92 86.6207 32.985C86.2357 33.035 85.9007 33.24 85.6557 33.565C85.5507 33.705 85.4657 33.875 85.3907 34.06C84.6957 28.295 86.7407 22.625 90.8207 19.31C94.6557 16.195 99.7007 15.625 104.671 17.765C107.476 18.97 110.476 20.765 110.481 22.2C110.481 22.81 109.921 23.365 108.806 23.85C106.301 24.94 104.211 25.725 102.426 26.26C95.6257 28.295 89.2307 25.3 89.1657 25.27C89.0407 25.21 88.8907 25.265 88.8307 25.39C88.7707 25.515 88.8257 25.665 88.9507 25.725C89.0157 25.755 95.5807 28.83 102.571 26.74C103.621 26.425 104.781 26.02 106.056 25.525C107.601 27.71 108.686 30.52 109.196 33.54H88.5657C88.7957 32.165 89.1407 30.83 89.6107 29.565C89.6607 29.435 89.5907 29.29 89.4657 29.245C89.3357 29.195 89.1907 29.265 89.1457 29.39C88.6557 30.71 88.3007 32.105 88.0657 33.54H88.0257H88.0207ZM107.631 34.04V35.345C107.631 37.195 106.126 38.7 104.276 38.7C102.426 38.7 100.921 37.195 100.921 35.345V34.04H107.636H107.631ZM96.7307 34.04V35.345C96.7307 37.195 95.2257 38.7 93.3757 38.7C91.5257 38.7 90.0207 37.195 90.0207 35.345V34.04H96.7357H96.7307ZM90.4107 48.75C88.5207 46.66 88.4907 45.57 88.3957 41.96C88.3707 41.03 88.3407 39.97 88.2757 38.69C88.2157 37.51 88.2407 36.335 88.3507 35.175C88.3657 35.145 88.3707 35.11 88.3707 35.075C88.3707 35.055 88.3707 35.04 88.3707 35.02C88.4057 34.69 88.4557 34.365 88.5007 34.04H89.5207V35.345C89.5207 37.47 91.2507 39.2 93.3757 39.2C95.5007 39.2 97.2307 37.47 97.2307 35.345V34.04H100.416V35.345C100.416 37.47 102.146 39.2 104.271 39.2C106.396 39.2 108.126 37.47 108.126 35.345V34.04H109.271C109.411 34.985 109.501 35.95 109.521 36.92C109.521 37.055 109.636 37.165 109.771 37.165H109.776C109.916 37.165 110.021 37.05 110.021 36.91C110.006 36.315 109.971 35.725 109.916 35.14C109.921 35.12 109.931 35.1 109.931 35.075C109.931 34.395 110.076 33.905 110.356 33.665C110.546 33.5 110.801 33.44 111.116 33.48C111.371 33.515 111.581 33.645 111.746 33.865C112.161 34.425 112.271 35.5 112.051 36.905C111.641 39.525 110.946 41.485 110.356 41.67C110.306 41.685 110.181 41.725 109.961 41.5C109.941 41.48 109.921 41.465 109.896 41.455L109.911 40.855C109.911 40.715 109.806 40.6 109.671 40.595C109.536 40.585 109.416 40.7 109.411 40.835L109.381 41.96C109.281 45.565 109.251 46.655 107.366 48.75C107.291 48.83 107.201 48.935 107.091 49.06C105.916 50.395 102.336 54.465 99.3357 54.665H98.4657C95.4457 54.46 91.8657 50.395 90.6907 49.06C90.5807 48.935 90.4907 48.83 90.4157 48.75H90.4107ZM98.6357 95.5H69.9657L69.1257 71.58C69.1257 67.985 71.6757 64.82 75.1807 64.06L88.7007 61.67C88.7407 61.7 88.7857 61.71 88.8307 61.71L89.1707 62.01C91.9057 64.415 95.2657 65.635 98.6307 65.695V95.5H98.6357ZM89.5057 61.63L89.2407 61.4C91.2457 59.7 92.6257 55.535 91.7607 50.98C93.4757 52.755 96.0457 55.01 98.4407 55.17H99.3457C101.711 55.01 104.246 52.8 105.961 51.03C105.101 55.59 106.486 59.745 108.491 61.44C103.116 66.37 95.0057 66.475 89.5007 61.635L89.5057 61.63ZM127.691 95.5H99.1357V65.695C102.676 65.635 106.191 64.29 108.971 61.67L110.351 61.915L122.466 64.055C125.981 64.82 128.531 67.98 128.531 71.57L127.691 95.5Z" fill="#07064E"/>
<path d="M136.61 80.9C136.895 78.385 135.035 76.295 132.465 76.295H66.665C64.1 76.295 62.235 78.38 62.52 80.9L65.715 109.075H65.57L65.84 111.43C66.07 113.465 68.115 115.11 70.38 115.11H128.455C130.72 115.11 132.76 113.465 132.995 111.43L133.19 109.7H133.335L136.615 80.9H136.61Z" fill="white"/>
<path d="M133.856 76.52C117.911 90.315 110.136 99.19 94.5258 104.7C85.3308 108.375 76.0558 111.385 66.1758 112.58C66.8858 114.05 68.5558 115.11 70.3758 115.11H128.451C130.716 115.11 132.756 113.465 132.991 111.43L133.186 109.7H133.331L136.611 80.9C136.841 78.865 135.671 77.115 133.856 76.515V76.52Z" fill="#EDEDED"/>
<path d="M128.591 115.405H70.5256C68.1306 115.405 65.9856 113.655 65.7406 111.5L62.2756 80.93C62.1306 79.645 62.5056 78.425 63.3356 77.5C64.1706 76.565 65.3556 76.05 66.6706 76.05H132.471C133.786 76.05 134.971 76.565 135.806 77.5C136.631 78.425 137.011 79.645 136.861 80.93L133.381 111.5C133.136 113.65 130.986 115.405 128.596 115.405H128.591ZM66.6706 76.55C65.5006 76.55 64.4456 77.005 63.7056 77.835C62.9756 78.655 62.6406 79.735 62.7706 80.875L66.2356 111.445C66.4506 113.355 68.3756 114.905 70.5256 114.905H128.591C130.741 114.905 132.666 113.355 132.881 111.445L136.361 80.875C136.491 79.73 136.161 78.65 135.431 77.835C134.691 77.005 133.641 76.55 132.466 76.55H66.6656H66.6706Z" fill="#07064E"/>
<path d="M99.6456 102.37C98.2056 102.37 96.8106 101.98 95.6056 101.235C95.4856 101.165 95.4506 101.01 95.5256 100.89C95.5956 100.77 95.7506 100.735 95.8706 100.81C97.0006 101.505 98.3056 101.87 99.6506 101.87C103.036 101.87 105.966 99.505 106.321 96.485C106.506 94.89 106.001 93.33 104.896 92.085C103.631 90.66 101.721 89.845 99.6556 89.845C97.5906 89.845 95.6806 90.66 94.4156 92.085C93.3106 93.33 92.8006 94.89 92.9906 96.485C93.0856 97.28 93.3506 98.04 93.7806 98.735C93.8506 98.855 93.8156 99.005 93.7006 99.08C93.5806 99.155 93.4306 99.115 93.3556 99C92.8856 98.24 92.6006 97.415 92.4956 96.545C92.2906 94.81 92.8406 93.105 94.0456 91.755C95.4056 90.225 97.4556 89.35 99.6606 89.35C101.866 89.35 103.916 90.225 105.276 91.755C106.481 93.105 107.031 94.81 106.826 96.545C106.441 99.81 103.296 102.37 99.6606 102.37H99.6456Z" fill="#07064E"/>
</g>
<defs>
<clipPath id="clip0_85_2188">
<rect width="200" height="140" fill="white"/>
</clipPath>
</defs>
</svg>