<svg width="200" height="140" viewBox="0 0 200 140" fill="none" xmlns="http://www.w3.org/2000/svg">
<g id="illu_spot_results-voting-v3/Default" clip-path="url(#clip0_85_2282)">
<g id="illu_spot_results-voting-v3">
<g id="background">
<path id="Vector" d="M163.05 14.54C199.715 32.095 195.4 108.155 172.185 123.16C161.785 129.885 157.055 124.755 106.83 134.67C72.8749 141.375 -3.68505 138.62 19.315 98.38C34.575 71.6799 18.335 54.345 15.52 42.805C10.59 22.62 30.4 1.29495 54.65 6.00995C118.345 18.395 144.01 5.41995 163.05 14.535V14.54Z" fill="#EDEDED"></path>
<g id="Vector_2">
<path d="M161.635 11.705C198.3 29.26 193.985 105.32 170.77 120.325C160.37 127.05 155.64 121.92 105.415 131.835C71.4601 138.54 -5.09994 135.785 17.9001 95.545C33.1601 68.845 16.9201 51.51 14.1051 39.97C9.17006 19.785 28.9801 -1.54001 53.2301 3.17499C116.925 15.56 142.59 2.58499 161.63 11.7L161.635 11.705Z" fill="#2BF5BA"></path>
<path d="M190.785 134.73C193.726 134.73 196.11 132.346 196.11 129.405C196.11 126.464 193.726 124.08 190.785 124.08C187.844 124.08 185.46 126.464 185.46 129.405C185.46 132.346 187.844 134.73 190.785 134.73Z" fill="#2BF5BA"></path>
<path d="M13.1589 16.925C16.1373 14.6968 17.1774 11.0532 15.4818 8.78679C13.7863 6.52035 9.99735 6.48932 7.01892 8.71747C4.04049 10.9456 3.00048 14.5892 4.69599 16.8556C6.39151 19.1221 10.1805 19.1531 13.1589 16.925Z" fill="#2BF5BA"></path>
<path d="M186.471 12.1439C187.78 11.1646 188.218 9.53727 187.449 8.50908C186.679 7.4809 184.995 7.44123 183.686 8.42049C182.377 9.39975 181.939 11.0271 182.708 12.0553C183.477 13.0835 185.162 13.1232 186.471 12.1439Z" fill="#2BF5BA"></path>
<path d="M9.08728 38.9313C10.3963 37.952 10.8339 36.3247 10.0647 35.2965C9.29553 34.2683 7.61083 34.2286 6.30182 35.2079C4.99282 36.1872 4.5552 37.8145 5.32439 38.8427C6.09357 39.8709 7.77828 39.9106 9.08728 38.9313Z" fill="#2BF5BA"></path>
</g>
</g>
<g id="illu_spot_results-voting-v3_2">
<g id="stroke">
<path id="Vector_3" d="M97.265 123.56C101.921 123.56 105.695 122.794 105.695 121.85C105.695 120.906 101.921 120.14 97.265 120.14C92.6092 120.14 88.835 120.906 88.835 121.85C88.835 122.794 92.6092 123.56 97.265 123.56Z" fill="#2AEDB4"></path>
<path id="Vector_4" d="M103.81 100.605L103.845 99.46C103.89 98.55 103.225 97.76 102.415 97.76H90.9001C90.0851 97.76 89.3951 98.64 89.4401 99.55L89.5701 101.825C89.6051 102.5 103.775 101.275 103.81 100.6V100.605Z" fill="white"></path>
<path id="Vector_5" d="M91.12 102.275C89.6 102.275 89.3349 102.14 89.3199 101.84L89.19 99.565C89.165 99.01 89.3799 98.435 89.7649 98.03C90.0849 97.695 90.49 97.51 90.9 97.51H102.415C102.845 97.51 103.25 97.69 103.57 98.025C103.93 98.405 104.125 98.935 104.1 99.475L104.065 100.615C104.055 100.87 104.035 101.215 98.87 101.765C96 102.07 92.8849 102.275 91.1299 102.275H91.12ZM89.8099 101.7C91.0599 102.065 102.475 101.075 103.56 100.505L103.595 99.455C103.615 99.045 103.47 98.655 103.205 98.37C102.985 98.14 102.705 98.01 102.415 98.01H90.9C90.625 98.01 90.3499 98.14 90.1249 98.375C89.8299 98.685 89.67 99.115 89.69 99.535L89.815 101.695L89.8099 101.7Z" fill="#07064E"></path>
<path id="Vector_6" d="M91.7753 121.595H101.535C102.225 121.595 102.81 121.055 102.845 120.38L103.81 100.55C103.855 99.64 103.23 98.895 102.415 98.895H90.9003C90.0853 98.895 89.4652 99.64 89.5052 100.55L90.4703 120.38C90.5053 121.055 91.0903 121.595 91.7803 121.595H91.7753Z" fill="white"></path>
<path id="Vector_7" d="M102.415 98.9H102.2C100.46 108.925 97.6404 114.175 91.8804 121.595H101.535C102.225 121.595 102.81 121.055 102.845 120.38L103.81 100.55C103.855 99.64 103.23 98.895 102.415 98.895V98.9Z" fill="#EDEDED"></path>
<path id="Vector_8" d="M101.535 121.845H91.7751C90.9551 121.845 90.2551 121.195 90.2201 120.395L89.2601 100.565C89.2351 100.025 89.4151 99.51 89.7651 99.145C90.0701 98.825 90.4751 98.65 90.9051 98.65H102.42C102.85 98.65 103.255 98.825 103.56 99.145C103.905 99.51 104.09 100.025 104.065 100.565L103.1 120.395C103.06 121.195 102.365 121.845 101.545 121.845H101.535ZM90.9001 99.15C90.6101 99.15 90.3351 99.27 90.1251 99.49C89.8751 99.755 89.7401 100.14 89.7601 100.54L90.7201 120.37C90.7451 120.91 91.2201 121.345 91.7801 121.345H101.54C102.095 121.345 102.57 120.905 102.6 120.37L103.565 100.54C103.585 100.14 103.45 99.755 103.2 99.49C102.99 99.27 102.715 99.15 102.425 99.15H90.9101H90.9001Z" fill="#07064E"></path>
<path id="Vector_9" d="M92.6704 104.15C92.4204 104.15 92.1804 104.095 91.9554 103.985C91.8304 103.925 91.7804 103.775 91.8404 103.65C91.9004 103.525 92.0504 103.475 92.1754 103.535C92.3304 103.61 92.5004 103.65 92.6754 103.65C93.3104 103.65 93.8254 103.135 93.8254 102.5C93.8254 101.865 93.3104 101.35 92.6754 101.35C92.0404 101.35 91.5254 101.865 91.5254 102.5C91.5254 102.575 91.5304 102.645 91.5454 102.72C91.5704 102.855 91.4804 102.985 91.3454 103.01C91.2104 103.035 91.0804 102.945 91.0554 102.81C91.0354 102.71 91.0254 102.605 91.0254 102.5C91.0254 101.59 91.7654 100.85 92.6754 100.85C93.5854 100.85 94.3254 101.59 94.3254 102.5C94.3254 103.41 93.5854 104.15 92.6754 104.15H92.6704Z" fill="#07064E"></path>
<path id="Vector_10" d="M67.0453 72.26C66.9503 67.875 70.4903 64.27 74.8753 64.295L87.0153 62.1C91.6303 70.765 103.37 69.885 107.085 62.14L118.75 64.28C123.97 64.445 127.43 68.5 126.995 73.86L126.285 90.325L117.225 90.25L116.945 94.945L77.2653 94.965L77.0003 90.225L67.8203 90.41L67.0503 72.25L67.0453 72.26Z" fill="#FFC391"></path>
<path id="Vector_11" d="M77.2653 94.975H67.8203V90.15H76.9903L77.2653 94.975Z" fill="white"></path>
<path id="Vector_12" d="M117.17 90.1501L116.75 101.095C116.42 102.27 115.78 103.245 114.88 104.065V104.055L113.3 105.21L105.955 110.585L103.705 107.405L103.59 110.02C103.46 111.295 103.085 112.3 101.92 112.41L92.0402 112.55C90.9252 112.63 90.7402 114.09 92.0102 114.325L91.6852 114.395C89.6052 114.4 89.8602 115.745 90.9502 116.13L92.1052 116.23C89.6352 116.15 90.2702 118.29 91.6852 118.11L92.4702 118.01C91.8602 118.23 91.5152 119.51 92.5902 119.895L102.535 119.775C103.765 119.555 105.105 118.93 105.995 118.46L116.225 111.58C119.985 108.91 124.225 106.925 125.495 102.82L126.29 90.0601L117.165 90.1551L117.17 90.1501Z" fill="white"></path>
<path id="Vector_13" d="M76.5703 83.0649C76.7203 86.6949 76.8653 90.2399 76.8653 90.2399L77.0503 94.9799L104.32 94.9599L104.34 94.4499C96.6453 93.5299 82.7403 89.5549 76.5703 83.0649Z" fill="#FFAF6E"></path>
<path id="Vector_14" d="M110.78 37.6451L110.805 34.6701C111.91 34.6551 112.805 33.0601 112.805 31.0901C112.805 30.4801 112.72 29.9051 112.565 29.4001C112.915 28.8651 113.13 28.1751 113.13 27.4151C113.13 26.0501 112.445 24.8951 111.5 24.5101C111.83 23.9851 112.02 23.3751 112.02 22.7201C112.02 21.1151 110.89 19.7601 109.34 19.3301C109.275 17.5301 107.155 16.0851 104.535 16.0851C104.105 16.0851 103.69 16.1301 103.295 16.2001C102.765 15.5101 101.945 15.0001 100.96 14.8501C99.6352 14.6451 98.3852 15.1501 97.6702 16.0551C97.2702 15.3551 96.6252 14.8801 95.8752 14.8251C95.0252 14.7601 94.2402 15.2401 93.7352 16.0201C92.9252 15.0701 91.7802 14.4351 90.4702 14.3401C87.7752 14.1351 85.4152 16.2651 85.2002 19.0951C85.1602 19.6201 85.2002 20.1351 85.3002 20.6251C85.2902 20.6251 85.2852 20.6251 85.2752 20.6251C83.2052 20.6251 81.5252 22.3051 81.5252 24.3751C81.5252 25.2701 81.8402 26.0851 82.3602 26.7301C81.5352 27.4301 80.9702 28.8401 80.9702 30.4701C80.9702 32.7951 82.1102 34.6751 83.5202 34.6751C83.5752 34.6751 83.6252 34.6651 83.6802 34.6601V38.1101L110.77 37.6451H110.78Z" fill="#EDEDED"></path>
<path id="Vector_15" d="M120.69 64.545C127.245 70.885 122.485 81.035 123.79 90.315L126.285 90.335L126.995 73.87C127.375 69.21 124.8 65.535 120.69 64.55V64.545Z" fill="#FFAF6E"></path>
<path id="Vector_16" d="M121.74 104.485C117.455 109.24 114.725 110.83 109.265 114.39C105.3 116.975 99.2651 119.81 99.2651 119.81L102.54 119.77C103.77 119.55 105.11 118.925 106 118.455L116.23 111.575C119.99 108.905 124.23 106.92 125.5 102.815L126.295 90.0551L123.685 90.0851C123.63 94.9701 124.89 100.995 121.74 104.49V104.485Z" fill="#EDEDED"></path>
<g id="Vector_17">
<path d="M86.0801 62.315C92.6901 61.695 91.4601 56.485 91.2651 51.31L102.89 50.655C102.245 55.955 101.53 61.69 108.14 62.31" fill="white"></path>
<path d="M87.015 62.2351C90.125 68.82 97.37 68.335 97.37 68.335C97.37 68.335 104.81 67.9601 107.08 62.1451" fill="white"></path>
</g>
<path id="Vector_18" d="M102.625 51.265C101.96 55.225 100.215 58.845 97.1401 58.845C94.0651 58.845 91.6651 55.85 91.6651 51.835C91.6651 51.41 91.4101 50.17 91.4701 49.765C91.9751 46.345 94.3951 44.295 97.1401 44.295C99.8851 44.295 102.61 45.515 102.89 48.81C102.935 49.32 102.715 50.715 102.625 51.265Z" fill="#EDEDED"></path>
<path id="Vector_19" d="M103.615 27.61C103.38 27.875 103.095 28.125 102.785 28.365C101.155 29.625 99.0551 29.17 97.3451 28.025C96.9001 27.73 96.5801 27.445 96.2951 27.17C96.1801 28.74 94.4851 29.505 93.5851 29.31C92.5501 28.82 91.9251 29.22 91.6101 28.54C89.9451 32.595 88.5751 30.825 87.1751 30.995C87.0901 31.005 87.1301 31.17 87.1251 31.175C86.6351 32.92 86.3701 34.85 86.3701 36.925C86.3701 45.54 93.0251 54.815 96.9501 54.815C100.66 54.815 108.15 45.59 108.15 36.975C108.15 34.14 107.655 31.565 106.77 29.38C106.695 29.2 106.545 28.85 106.545 28.85C106.545 28.85 104.565 28.48 103.615 27.615V27.61Z" fill="white"></path>
<path id="Vector_20" d="M106.895 29.51C106.82 29.32 106.64 28.89 106.64 28.89C106.64 28.89 104.765 28.57 103.77 27.76C108.915 37.515 103.04 48.685 95.915 54.505C96.125 54.555 96.335 54.585 96.535 54.585C100.245 54.585 108.155 46.37 108.155 37.39C108.155 34.435 107.785 31.79 106.9 29.51H106.895Z" fill="#EDEDED"></path>
<g id="Vector_21">
<path d="M108.14 37.155C108.29 35.615 109.635 35.855 110.06 36.245C110.93 37.04 111.01 38.205 110.56 40.405C110.375 41.315 109.47 43.34 107.865 44.18C107.865 44.18 107.125 44.365 106.67 44.055C106.67 44.055 107.7 41.685 108.14 37.16V37.155Z" fill="white"></path>
<path d="M86.3753 37.155C86.3853 35.605 84.8803 35.855 84.4553 36.245C83.5853 37.04 83.5053 38.205 83.9553 40.405C84.1403 41.315 85.0453 43.34 86.6503 44.18C86.6503 44.18 87.2853 44.275 87.7603 44.18C87.7603 44.18 86.3603 39.99 86.3753 37.16V37.155Z" fill="white"></path>
</g>
<path id="Vector_22" d="M88.6902 32.225C87.5102 32.225 86.3602 31.7 85.5952 30.755C85.2502 30.325 85.3152 29.695 85.7452 29.35C86.1752 29.005 86.8052 29.07 87.1502 29.5C87.6602 30.13 88.5502 30.385 89.3202 30.125C89.7352 29.985 90.4302 29.575 90.4652 28.4C90.4752 28.02 90.7002 27.68 91.0452 27.52C91.3902 27.36 91.7952 27.41 92.0902 27.65C92.8152 28.235 93.6502 28.405 94.5702 28.16C94.9202 28.065 95.2752 27.57 95.3402 27.075C95.3952 26.68 95.6752 26.355 96.0602 26.245C96.4402 26.135 96.8552 26.265 97.1052 26.575C97.4952 27.05 97.7852 27.315 97.9152 27.4C99.3252 28.305 101.465 28.735 102.865 26.96L102.905 26.91C103.09 26.68 103.365 26.54 103.66 26.53C103.95 26.51 104.24 26.64 104.435 26.86C105.195 27.71 106.225 27.91 107.535 27.955C108.085 27.975 108.52 28.435 108.5 28.99C108.48 29.545 108.02 29.98 107.465 29.955C106.255 29.915 104.915 29.745 103.755 28.92C101.915 30.55 99.2502 30.645 96.8302 29.085C96.7752 29.05 96.7202 29.01 96.6602 28.965C96.2852 29.485 95.7552 29.91 95.0802 30.09C94.0702 30.36 93.0652 30.315 92.1502 29.965C91.7552 30.94 90.9902 31.67 89.9552 32.015C89.5402 32.155 89.1152 32.225 88.6902 32.225Z" fill="#EDEDED"></path>
<g id="Vector_23">
<path d="M97.3751 45.15C97.3401 45.15 97.3101 45.145 97.2751 45.13L95.8951 44.53C95.8951 44.53 95.8501 44.505 95.8301 44.49C95.1551 43.895 95.1301 43.145 95.3201 41.885L97.1951 36.235C97.2401 36.105 97.3801 36.035 97.5101 36.075C97.6401 36.12 97.7101 36.26 97.6701 36.39L95.8051 42C95.6501 43.065 95.6551 43.64 96.1351 44.09L97.4751 44.675C97.6001 44.73 97.6601 44.88 97.6051 45.005C97.5651 45.1 97.4701 45.155 97.3751 45.155V45.15Z" fill="#07064E"></path>
<path d="M97.1201 49.42C95.8951 49.42 94.7201 49.015 93.6001 48.205C93.4901 48.125 93.4651 47.97 93.5451 47.855C93.6251 47.74 93.7801 47.72 93.8951 47.8C95.9801 49.31 98.1901 49.305 100.645 47.79C100.76 47.72 100.915 47.755 100.99 47.87C101.06 47.99 101.025 48.14 100.91 48.215C99.6051 49.02 98.3401 49.42 97.1251 49.42H97.1201Z" fill="#07064E"></path>
<path d="M91.9101 37.77C90.8501 37.77 89.9851 36.845 89.9851 35.71C89.9851 35.57 90.0951 35.46 90.2351 35.46C90.3751 35.46 90.4851 35.57 90.4851 35.71C90.4851 36.57 91.1251 37.27 91.9101 37.27C92.6951 37.27 93.3351 36.57 93.3351 35.71C93.3351 35.57 93.4451 35.46 93.5851 35.46C93.7251 35.46 93.8351 35.57 93.8351 35.71C93.8351 36.845 92.9701 37.77 91.9101 37.77Z" fill="#07064E"></path>
<path d="M88.5251 33.465C88.4201 33.465 88.3201 33.4 88.2851 33.295C88.2401 33.165 88.3151 33.025 88.4451 32.98L88.8001 32.86C90.5301 32.28 92.4901 31.625 94.3651 33.015C94.4751 33.095 94.5001 33.255 94.4151 33.365C94.3351 33.475 94.1751 33.5 94.0651 33.415C92.4001 32.18 90.6501 32.765 88.9551 33.33L88.5951 33.45C88.5701 33.46 88.5451 33.465 88.5151 33.465H88.5251Z" fill="#07064E"></path>
<path d="M105.985 33.465C105.96 33.465 105.935 33.465 105.905 33.45L105.545 33.33C103.855 32.765 102.1 32.18 100.435 33.415C100.325 33.495 100.165 33.475 100.085 33.365C100.005 33.255 100.025 33.095 100.135 33.015C102.01 31.625 103.97 32.28 105.7 32.86L106.055 32.98C106.185 33.025 106.255 33.165 106.215 33.295C106.18 33.4 106.08 33.465 105.975 33.465H105.985Z" fill="#07064E"></path>
<path d="M98.1151 50.99H95.9951C95.8551 50.99 95.7451 50.88 95.7451 50.74C95.7451 50.6 95.8551 50.49 95.9951 50.49H98.1151C98.2551 50.49 98.3651 50.6 98.3651 50.74C98.3651 50.88 98.2551 50.99 98.1151 50.99Z" fill="#07064E"></path>
<path d="M102.26 37.77C101.2 37.77 100.335 36.845 100.335 35.71C100.335 35.57 100.445 35.46 100.585 35.46C100.725 35.46 100.835 35.57 100.835 35.71C100.835 36.57 101.475 37.27 102.26 37.27C103.045 37.27 103.685 36.57 103.685 35.71C103.685 35.57 103.795 35.46 103.935 35.46C104.075 35.46 104.185 35.57 104.185 35.71C104.185 36.845 103.32 37.77 102.26 37.77Z" fill="#07064E"></path>
</g>
<g id="Vector_24">
<path d="M126.085 95.215C125.945 95.215 125.835 95.105 125.835 94.965C125.835 94.825 125.945 94.715 126.085 94.715L188.795 94.64C188.935 94.64 189.045 94.75 189.045 94.89C189.045 95.03 188.935 95.14 188.795 95.14L126.085 95.215Z" fill="#07064E"></path>
<path d="M10.4502 95.34C10.3102 95.34 10.2002 95.23 10.2002 95.09C10.2002 94.95 10.3102 94.84 10.4502 94.84L67.9902 94.775H77.3452L116.94 94.725C117.08 94.725 117.19 94.835 117.19 94.975C117.19 95.115 117.08 95.225 116.94 95.225L77.3452 95.275H67.9902L10.4502 95.34Z" fill="#07064E"></path>
</g>
<path id="Vector_25" d="M8.30518 95.34H5.05518C4.91518 95.34 4.80518 95.23 4.80518 95.09C4.80518 94.95 4.91518 94.84 5.05518 94.84H8.30518C8.44518 94.84 8.55518 94.95 8.55518 95.09C8.55518 95.23 8.44518 95.34 8.30518 95.34Z" fill="#2BF5BA"></path>
<path id="Vector_26" d="M112.605 29.3351C112.93 28.8101 113.13 28.1501 113.13 27.4201C113.13 26.0551 112.445 24.9001 111.5 24.5151C111.83 23.9901 112.02 23.3801 112.02 22.7251C112.02 21.1201 110.89 19.7651 109.34 19.3351C109.275 17.5351 107.155 16.0901 104.535 16.0901C104.105 16.0901 103.69 16.1351 103.295 16.2051C102.765 15.5151 101.945 15.0051 100.96 14.8551C99.6354 14.6501 98.3854 15.1551 97.6704 16.0601C97.2704 15.3601 96.6254 14.8851 95.8754 14.8301C95.0254 14.7651 94.2404 15.2451 93.7354 16.0251C92.9254 15.0751 91.7804 14.4401 90.4704 14.3451C87.7754 14.1401 85.4154 16.2701 85.2004 19.1001C85.1604 19.6251 85.2004 20.1401 85.3004 20.6301C85.2904 20.6301 85.2704 20.6301 85.2754 20.6301C92.0604 12.7051 93.8204 22.4901 98.6004 19.1951C108.43 15.2251 108.145 29.9551 112.6 29.3451L112.605 29.3351Z" fill="white"></path>
<g id="Vector_27">
<path d="M77.265 94.9649C77.135 94.9649 77.025 94.8599 77.015 94.7299L76.32 83.0749C76.31 82.9349 76.415 82.8199 76.555 82.8099C76.69 82.7949 76.81 82.9049 76.82 83.0449L77.515 94.6999C77.525 94.8399 77.42 94.9549 77.28 94.9649C77.275 94.9649 77.27 94.9649 77.265 94.9649Z" fill="#07064E"></path>
<path d="M105.955 110.835C106.005 110.835 106.06 110.82 106.1 110.785L115.04 104.245C116.83 102.68 117.025 101.505 117.09 100.13L117.745 83.075C117.75 82.935 117.645 82.82 117.505 82.815C117.38 82.815 117.25 82.915 117.245 83.055L116.59 100.105C116.525 101.44 116.36 102.425 114.725 103.855L106.005 110.235L103.675 107.105C103.59 106.995 103.435 106.97 103.325 107.055C103.215 107.14 103.19 107.295 103.275 107.405L105.75 110.73C105.8 110.795 105.875 110.83 105.95 110.83L105.955 110.835Z" fill="#07064E"></path>
<path d="M120.845 64.335L108.2 62.1C108.17 62.08 108.135 62.07 108.1 62.065C107.98 62.055 107.87 62.035 107.76 62.02L107.135 61.91C107.135 61.91 107.12 61.91 107.115 61.91C105.815 61.635 104.825 61.075 104.115 60.2C102.285 57.94 102.745 54.055 103.11 50.93L103.14 50.68C103.14 50.68 103.14 50.645 103.14 50.625C104.54 48.875 105.855 46.72 106.825 44.345C106.87 44.395 106.935 44.425 107.005 44.425C107.78 44.425 108.53 44.125 109.055 43.6C110.16 42.505 110.685 41.06 110.81 40.45C111.035 39.355 111.14 38.43 111.03 37.665C111.03 37.66 111.03 37.655 111.03 37.645L111.05 34.895C112.19 34.68 113.05 33.08 113.05 31.09C113.05 30.52 112.975 29.955 112.835 29.44C113.185 28.86 113.38 28.15 113.38 27.415C113.38 26.095 112.775 24.925 111.85 24.4C112.125 23.875 112.27 23.3 112.27 22.715C112.27 21.105 111.17 19.655 109.575 19.135C109.38 17.27 107.215 15.83 104.535 15.83C104.16 15.83 103.78 15.86 103.395 15.925C102.805 15.215 101.955 14.745 100.995 14.6C99.7399 14.405 98.5099 14.8 97.6999 15.64C97.2399 15.01 96.5999 14.625 95.8899 14.57C95.0749 14.52 94.2749 14.895 93.7049 15.615C92.8399 14.715 91.7049 14.175 90.4849 14.08C87.6599 13.875 85.1749 16.105 84.9499 19.065C84.9149 19.505 84.9349 19.94 84.9999 20.37C82.9249 20.515 81.2749 22.25 81.2749 24.36C81.2749 25.195 81.5399 26.01 82.0249 26.685C81.2149 27.495 80.7249 28.91 80.7249 30.455C80.7249 32.905 81.9099 34.835 83.4349 34.91V38.1C83.4349 38.1 83.4399 38.135 83.4449 38.155C83.4299 38.815 83.5299 39.575 83.7049 40.445C83.8299 41.055 84.3549 42.5 85.4599 43.595C85.9899 44.12 86.7349 44.42 87.5099 44.42C87.5349 44.42 87.5599 44.415 87.5799 44.405C88.4399 46.685 89.6349 48.9 91.0199 50.74L91.0399 50.925C91.4099 54.045 91.8649 57.93 90.0349 60.195C89.2899 61.12 88.2299 61.695 86.8199 61.95L86.6299 61.985C86.4399 62.015 86.2499 62.04 86.0499 62.06C86.0049 62.06 85.9649 62.085 85.9299 62.11L85.4949 62.185L73.3599 64.33C69.6149 65.14 66.8999 68.51 66.8999 72.35L67.6499 94.91C67.6499 95.045 67.7649 95.15 67.8999 95.15H67.9099C68.0499 95.15 68.1549 95.03 68.1499 94.89L67.3999 72.335C67.3999 68.74 69.9499 65.575 73.4549 64.815L85.5799 62.67L86.7299 62.465C86.7749 62.455 86.8249 62.45 86.8699 62.44L86.9249 62.43C88.5899 66.46 93.1899 68.415 97.0549 68.57H97.1499C101 68.42 105.595 66.465 107.26 62.44C107.39 62.465 107.525 62.48 107.655 62.5L120.735 64.81C124.25 65.57 126.8 68.735 126.8 72.32L125.505 100.8C125.34 104.485 122.99 106.585 120.965 108L107.97 116.905L105.19 118.525C103.955 119.245 102.545 119.625 101.11 119.625H92.7299C92.3599 119.625 92.0599 119.325 92.0599 118.955C92.0599 118.585 92.3449 118.31 92.6999 118.295H92.8099C92.8099 118.295 92.8299 118.295 92.8399 118.29H98.6749C98.8149 118.29 98.9249 118.18 98.9249 118.04C98.9249 117.9 98.8149 117.79 98.6749 117.79H92.7299C92.7299 117.79 92.6899 117.79 92.6699 117.795H91.3299C90.9599 117.795 90.6599 117.495 90.6599 117.13C90.6599 116.765 90.9599 116.465 91.3299 116.465H98.6949C98.8349 116.465 98.9449 116.355 98.9449 116.215C98.9449 116.075 98.8349 115.965 98.6949 115.965H91.0399C90.6699 115.965 90.3749 115.665 90.3749 115.295C90.3749 114.925 90.6749 114.63 91.0399 114.63H98.5899C98.7299 114.63 98.8399 114.52 98.8399 114.38C98.8399 114.24 98.7299 114.13 98.5899 114.13H92.0399C91.6699 114.13 91.3699 113.83 91.3699 113.46C91.3699 113.09 91.6699 112.79 92.0349 112.79L101.505 112.7C102.485 112.69 103.335 112.055 103.62 111.115C103.63 111.09 103.63 111.06 103.63 111.03L103.585 109.93C103.58 109.79 103.455 109.695 103.325 109.69C103.185 109.695 103.08 109.81 103.085 109.95L103.125 111.01C102.89 111.72 102.24 112.195 101.495 112.2L92.0249 112.29C91.3849 112.295 90.8649 112.82 90.8649 113.46C90.8649 113.71 90.9449 113.94 91.0799 114.13H91.0399C90.3949 114.13 89.8749 114.655 89.8749 115.295C89.8749 115.74 90.1299 116.125 90.4949 116.32C90.2899 116.53 90.1649 116.815 90.1649 117.13C90.1649 117.775 90.6899 118.295 91.3349 118.295H91.7749C91.6449 118.485 91.5649 118.71 91.5649 118.955C91.5649 119.6 92.0899 120.125 92.7549 120.125H101.115C102.635 120.125 104.13 119.72 105.445 118.955L108.24 117.325L121.255 108.41C123.375 106.925 125.835 104.725 126.01 100.82L127.305 72.325C127.305 68.495 124.59 65.125 120.835 64.315L120.845 64.335ZM110.315 40.35C110.185 41 109.645 42.305 108.7 43.245C108.265 43.675 107.645 43.925 107 43.925C107 43.925 106.99 43.925 106.985 43.925C107.13 43.545 107.27 43.16 107.4 42.775C107.755 41.695 108.02 40.62 108.185 39.575C108.32 38.735 108.385 37.91 108.39 37.11C108.4 36.675 108.54 36.39 108.815 36.27C109.18 36.11 109.7 36.26 109.885 36.43C110.645 37.125 110.755 38.155 110.31 40.355L110.315 40.35ZM87.5549 42.78C87.2399 41.755 87.0049 40.725 86.8499 39.725C86.8299 39.59 86.6999 39.5 86.5649 39.515C86.4299 39.535 86.3349 39.665 86.3549 39.8C86.5149 40.825 86.7549 41.875 87.0799 42.925C87.1799 43.255 87.2949 43.585 87.4099 43.915C86.8049 43.89 86.2299 43.655 85.8199 43.245C84.8749 42.305 84.3349 41 84.2049 40.35C83.7599 38.15 83.8699 37.125 84.6299 36.425C84.8149 36.255 85.3349 36.105 85.6999 36.265C85.9849 36.39 86.1299 36.69 86.1299 37.15C86.1299 37.21 86.1249 37.265 86.1249 37.325C86.1249 37.465 86.2349 37.575 86.3749 37.575C86.5149 37.575 86.6249 37.465 86.6249 37.325C86.6249 35.15 86.8949 33.09 87.4249 31.2C87.8249 31.37 88.2549 31.465 88.6949 31.465C89.0399 31.465 89.3849 31.41 89.7199 31.295C90.7949 30.93 91.4999 30.045 91.6749 28.875C92.8699 29.65 94.0649 29.57 94.8949 29.355C95.6699 29.15 96.2199 28.45 96.4649 27.73C96.7099 28.005 96.9899 28.28 97.2449 28.44C99.5699 29.94 102.14 29.71 103.715 27.89C104.805 28.95 106.175 29.145 107.5 29.19C107.645 29.19 107.755 29.085 107.76 28.95C107.76 28.81 107.655 28.695 107.52 28.69C106.22 28.645 104.88 28.455 103.885 27.345C103.835 27.29 103.765 27.265 103.69 27.26C103.615 27.26 103.545 27.3 103.5 27.355L103.46 27.41C102.07 29.17 99.6799 29.415 97.5149 28.02C97.2699 27.865 96.9099 27.505 96.5299 27.04C96.4649 26.965 96.3649 26.93 96.2699 26.955C96.1749 26.98 96.1049 27.065 96.0899 27.16C95.9999 27.84 95.5049 28.67 94.7699 28.865C93.9699 29.08 92.7749 29.14 91.6249 28.215C91.5499 28.155 91.4499 28.14 91.3649 28.185C91.2799 28.225 91.2199 28.31 91.2199 28.405C91.1849 29.595 90.5849 30.475 89.5699 30.82C88.4949 31.185 87.2899 30.835 86.5799 29.955C86.4949 29.85 86.3349 29.83 86.2299 29.92C86.1249 30.005 86.1049 30.165 86.1949 30.27C86.4249 30.555 86.6999 30.79 86.9999 30.975C86.9849 31 86.9699 31.02 86.9599 31.05C86.5299 32.585 86.2699 34.235 86.1799 35.965C86.0899 35.895 85.9999 35.84 85.9149 35.8C85.3749 35.56 84.6449 35.735 84.3049 36.045C84.1699 36.17 84.0549 36.3 83.9549 36.44V34.64C83.9549 34.57 83.9049 34.505 83.8499 34.455C83.7949 34.405 83.7049 34.385 83.6349 34.395C83.6049 34.395 83.5699 34.4 83.5399 34.4C82.2699 34.4 81.2399 32.625 81.2399 30.445C81.2399 28.935 81.7399 27.575 82.5399 26.895C82.6449 26.805 82.6599 26.65 82.5749 26.545C82.0649 25.915 81.7949 25.155 81.7949 24.345C81.7949 22.415 83.3649 20.845 85.3149 20.845C85.3899 20.845 85.4599 20.81 85.5099 20.75C85.5549 20.69 85.5749 20.615 85.5599 20.54C85.4599 20.065 85.4249 19.575 85.4649 19.085C85.6699 16.395 87.9149 14.37 90.4649 14.56C91.6599 14.65 92.7549 15.215 93.5599 16.155C93.6099 16.215 93.6899 16.255 93.7649 16.24C93.8449 16.235 93.9149 16.195 93.9599 16.125C94.4349 15.395 95.1449 14.99 95.8749 15.045C96.5149 15.095 97.0999 15.495 97.4749 16.15C97.5149 16.22 97.5899 16.27 97.6749 16.275C97.7549 16.28 97.8399 16.245 97.8899 16.18C98.5749 15.31 99.7449 14.885 100.945 15.065C101.83 15.2 102.6 15.65 103.12 16.32C103.175 16.395 103.27 16.43 103.365 16.415C103.765 16.34 104.17 16.305 104.56 16.305C107.01 16.305 109.055 17.65 109.115 19.305C109.115 19.415 109.195 19.51 109.3 19.535C110.77 19.945 111.8 21.24 111.8 22.685C111.8 23.265 111.635 23.84 111.32 24.345C111.28 24.405 111.27 24.485 111.295 24.555C111.32 24.625 111.37 24.68 111.44 24.71C112.305 25.065 112.915 26.165 112.915 27.385C112.915 28.065 112.73 28.72 112.39 29.235C112.35 29.295 112.34 29.375 112.36 29.445C112.51 29.94 112.59 30.495 112.59 31.06C112.59 32.85 111.785 34.375 110.835 34.39C110.7 34.39 110.59 34.5 110.59 34.64L110.575 36.38C110.485 36.26 110.38 36.14 110.265 36.03C109.925 35.72 109.195 35.545 108.655 35.785C108.575 35.82 108.49 35.87 108.41 35.93C108.355 34.615 108.195 33.345 107.93 32.135C107.9 32 107.765 31.915 107.63 31.945C107.495 31.975 107.41 32.11 107.44 32.245C107.77 33.725 107.935 35.305 107.935 36.945C107.935 36.97 107.935 37 107.935 37.025C107.935 37.06 107.93 37.09 107.93 37.13C107.93 37.13 107.93 37.135 107.93 37.14C107.92 37.9 107.86 38.68 107.73 39.475C107.57 40.49 107.31 41.54 106.965 42.595C104.845 49.025 99.7049 54.54 96.9899 54.54C96.0399 54.54 94.8749 53.95 93.6249 52.825C93.1299 52.38 92.6249 51.855 92.1399 51.275C90.1999 48.97 88.5399 45.86 87.5899 42.755L87.5549 42.78ZM97.0799 68.085C93.4099 67.94 89.0499 66.105 87.4399 62.335C88.7149 62.01 89.7149 61.4 90.4349 60.515C92.2749 58.245 91.9749 54.59 91.6199 51.49C91.6549 51.53 91.6899 51.58 91.7199 51.62C92.2249 52.22 92.7399 52.76 93.2549 53.22C94.5999 54.425 95.8749 55.06 96.9549 55.06C98.4399 55.06 100.55 53.62 102.565 51.31C102.2 54.445 101.855 58.195 103.725 60.515C104.45 61.415 105.475 62.025 106.77 62.345C105.16 66.105 100.805 67.94 97.1599 68.085H97.0799Z" fill="#07064E"></path>
</g>
<g id="Vector_28">
<path d="M93.6102 39.465H89.3052C89.1652 39.465 89.0552 39.355 89.0552 39.215C89.0552 39.075 89.1652 38.965 89.3052 38.965H93.6102C93.7502 38.965 93.8602 39.075 93.8602 39.215C93.8602 39.355 93.7502 39.465 93.6102 39.465Z" fill="#FFC391"></path>
<path d="M104.34 39.465H100.035C99.8952 39.465 99.7852 39.355 99.7852 39.215C99.7852 39.075 99.8952 38.965 100.035 38.965H104.34C104.48 38.965 104.59 39.075 104.59 39.215C104.59 39.355 104.48 39.465 104.34 39.465Z" fill="#FFC391"></path>
</g>
<g id="Group">
<g id="Vector_29">
<path d="M143.573 24.2017L137.11 41.3703C136.558 42.8356 137.299 44.4707 138.764 45.0224L155.933 51.4859C157.398 52.0375 159.033 51.2969 159.585 49.8315L166.048 32.6629C166.6 31.1976 165.859 29.5625 164.394 29.0108L147.225 22.5473C145.76 21.9957 144.125 22.7363 143.573 24.2017Z" fill="#2AEDB4"></path>
<path d="M158.335 66.495C155.72 66.495 152.92 65.73 149.9 64.195C146.805 62.625 143.535 63.18 142.925 64.31C142.86 64.43 142.71 64.475 142.585 64.41C142.465 64.345 142.42 64.19 142.485 64.07C143.295 62.58 146.885 62.105 150.125 63.75C156.58 67.025 162 66.705 166.69 62.775C167.78 61.865 167.57 60.12 167.4 59.325C166.775 59.71 166.085 60.015 165.345 60.23C164.06 60.6 162.585 60.47 161.575 59.895C160.9 59.515 160.45 58.95 160.27 58.26C160.05 57.425 160.315 56.535 160.995 55.83C161.83 54.96 163.07 54.56 164.155 54.805C166.035 55.23 167.195 56.955 167.7 58.52C170.68 56.345 172.095 52.27 171.9 48.835C171.89 48.695 171.995 48.58 172.135 48.57C172.275 48.56 172.39 48.67 172.4 48.805C172.605 52.445 171.07 56.775 167.845 59.03C167.855 59.06 167.86 59.09 167.865 59.125C168.055 59.965 168.35 62.035 167.005 63.155C164.35 65.38 161.475 66.49 158.325 66.49L158.335 66.495ZM163.525 55.24C162.755 55.24 161.935 55.585 161.36 56.18C160.8 56.76 160.58 57.475 160.755 58.14C160.905 58.7 161.265 59.145 161.825 59.465C162.72 59.975 164.045 60.085 165.21 59.75C165.96 59.535 166.65 59.215 167.275 58.82C166.835 57.355 165.785 55.69 164.05 55.295C163.88 55.255 163.705 55.24 163.525 55.24Z" fill="#2AEDB4"></path>
<path d="M133.38 49.87C133.355 49.87 133.325 49.87 133.3 49.855C130.215 48.785 127.01 46.17 125.97 42.985C125.94 42.985 125.915 42.975 125.885 42.97C124.56 42.72 123.42 42.005 122.765 41C120.95 38.22 120.81 33.06 126.385 27.675C128.335 25.79 128.915 23.32 128.115 22.455C128.02 22.355 128.025 22.195 128.13 22.1C128.23 22.005 128.39 22.01 128.485 22.115C129.57 23.285 128.735 26.105 126.735 28.035C121.38 33.21 121.475 38.105 123.185 40.73C123.73 41.565 124.705 42.2 125.815 42.445C125.675 41.87 125.605 41.28 125.625 40.675C125.655 39.605 126.115 38.565 126.83 37.97C127.355 37.53 127.985 37.355 128.655 37.455C129.49 37.585 130.225 38.185 130.61 39.065C131 39.95 130.96 40.925 130.51 41.605C129.66 42.875 127.95 43.185 126.52 43.06C127.58 45.99 130.575 48.385 133.465 49.385C133.595 49.43 133.665 49.575 133.62 49.705C133.585 49.81 133.485 49.875 133.385 49.875L133.38 49.87ZM126.35 42.54C127.675 42.705 129.32 42.48 130.09 41.33C130.45 40.79 130.475 40 130.15 39.27C129.83 38.545 129.245 38.055 128.575 37.955C128.045 37.875 127.565 38.01 127.145 38.36C126.545 38.86 126.145 39.775 126.12 40.695C126.105 41.325 126.185 41.945 126.35 42.54Z" fill="#2AEDB4"></path>
</g>
<g id="Vector_30">
<path d="M143.57 22.0762L137.106 39.2448C136.555 40.7101 137.295 42.3452 138.761 42.8969L155.929 49.3604C157.395 49.912 159.03 49.1714 159.581 47.706L166.045 30.5374C166.596 29.0721 165.856 27.437 164.39 26.8853L147.222 20.4218C145.757 19.8702 144.121 20.6108 143.57 22.0762Z" fill="#07064E"></path>
<path d="M158.335 65.075C155.72 65.075 152.92 64.31 149.9 62.775C146.805 61.205 143.535 61.76 142.925 62.89C142.86 63.01 142.71 63.055 142.585 62.99C142.465 62.925 142.42 62.77 142.485 62.65C143.295 61.16 146.885 60.685 150.125 62.33C156.58 65.605 162 65.285 166.69 61.355C167.78 60.445 167.57 58.7 167.4 57.905C166.775 58.29 166.085 58.595 165.345 58.81C164.06 59.18 162.585 59.05 161.575 58.475C160.9 58.095 160.45 57.53 160.27 56.84C160.05 56.005 160.315 55.115 160.995 54.41C161.83 53.54 163.07 53.14 164.155 53.385C166.035 53.81 167.195 55.535 167.7 57.1C170.68 54.925 172.095 50.85 171.9 47.415C171.89 47.275 171.995 47.16 172.135 47.15C172.275 47.14 172.39 47.25 172.4 47.385C172.605 51.025 171.07 55.355 167.845 57.61C167.855 57.64 167.86 57.67 167.865 57.705C168.055 58.545 168.35 60.615 167.005 61.735C164.35 63.96 161.475 65.07 158.325 65.07L158.335 65.075ZM163.525 53.82C162.755 53.82 161.935 54.165 161.36 54.76C160.8 55.34 160.58 56.055 160.755 56.72C160.905 57.28 161.265 57.725 161.825 58.045C162.72 58.555 164.045 58.665 165.21 58.33C165.96 58.115 166.65 57.795 167.275 57.4C166.835 55.935 165.785 54.27 164.05 53.875C163.88 53.835 163.705 53.82 163.525 53.82Z" fill="#07064E"></path>
<path d="M133.38 48.455C133.355 48.455 133.325 48.455 133.3 48.44C130.215 47.37 127.01 44.755 125.97 41.57C125.94 41.57 125.915 41.56 125.885 41.555C124.56 41.305 123.42 40.59 122.765 39.585C120.95 36.805 120.81 31.645 126.385 26.26C128.335 24.375 128.915 21.905 128.115 21.04C128.02 20.94 128.025 20.78 128.13 20.685C128.23 20.59 128.39 20.595 128.485 20.7C129.57 21.87 128.735 24.69 126.735 26.62C121.38 31.795 121.475 36.69 123.185 39.315C123.73 40.15 124.705 40.785 125.815 41.03C125.675 40.455 125.605 39.865 125.625 39.26C125.655 38.19 126.115 37.15 126.83 36.555C127.355 36.115 127.985 35.94 128.655 36.04C129.49 36.17 130.225 36.77 130.61 37.65C131 38.535 130.96 39.51 130.51 40.19C129.66 41.46 127.95 41.77 126.52 41.645C127.58 44.575 130.575 46.97 133.465 47.97C133.595 48.015 133.665 48.16 133.62 48.29C133.585 48.395 133.485 48.46 133.385 48.46L133.38 48.455ZM126.35 41.12C127.675 41.285 129.32 41.06 130.09 39.91C130.45 39.37 130.475 38.58 130.15 37.85C129.83 37.125 129.245 36.635 128.575 36.535C128.045 36.455 127.565 36.59 127.145 36.94C126.545 37.44 126.145 38.355 126.12 39.275C126.105 39.905 126.185 40.525 126.35 41.12Z" fill="#07064E"></path>
<path d="M171.88 71.28C173.236 71.28 174.335 70.1808 174.335 68.825C174.335 67.4691 173.236 66.37 171.88 66.37C170.524 66.37 169.425 67.4691 169.425 68.825C169.425 70.1808 170.524 71.28 171.88 71.28Z" fill="#07064E"></path>
<path d="M121.08 53.565C122.038 53.565 122.815 52.7882 122.815 51.83C122.815 50.8718 122.038 50.095 121.08 50.095C120.122 50.095 119.345 50.8718 119.345 51.83C119.345 52.7882 120.122 53.565 121.08 53.565Z" fill="#07064E"></path>
</g>
<g id="Vector_31">
<path d="M136.15 21.06C137.506 21.06 138.605 19.9609 138.605 18.605C138.605 17.2492 137.506 16.15 136.15 16.15C134.794 16.15 133.695 17.2492 133.695 18.605C133.695 19.9609 134.794 21.06 136.15 21.06Z" fill="#FFC391"></path>
<path d="M146.955 76.315C148.962 76.315 150.59 74.6876 150.59 72.68C150.59 70.6725 148.962 69.045 146.955 69.045C144.947 69.045 143.32 70.6725 143.32 72.68C143.32 74.6876 144.947 76.315 146.955 76.315Z" fill="#FFAF6E"></path>
</g>
<g id="Vector_32">
<path d="M149.185 37.9651C149.325 38.0151 149.42 38.1001 149.465 38.2101C149.51 38.3201 149.51 38.4401 149.465 38.5701L149.175 39.3401L142.885 36.9701L143.05 36.5351C143.085 36.4501 143.135 36.3601 143.205 36.2751C143.275 36.1901 143.37 36.1251 143.48 36.0751L147.56 34.2201C147.9 34.0651 148.215 33.9101 148.505 33.7551C148.79 33.6001 149.05 33.4351 149.275 33.2601C149.5 33.0851 149.695 32.8901 149.86 32.6801C150.025 32.4701 150.16 32.2301 150.26 31.9651C150.36 31.7001 150.405 31.4601 150.395 31.2301C150.385 31.0001 150.335 30.7951 150.24 30.6101C150.145 30.4251 150.015 30.2651 149.84 30.1251C149.67 29.9851 149.47 29.8751 149.245 29.7901C149.02 29.7051 148.8 29.6601 148.585 29.6551C148.37 29.6501 148.17 29.6751 147.975 29.7401C147.785 29.8001 147.605 29.8951 147.445 30.0201C147.285 30.1451 147.145 30.2901 147.035 30.4601C146.91 30.6001 146.795 30.6851 146.68 30.7051C146.565 30.7251 146.425 30.6901 146.255 30.5901L145.635 30.2201C145.86 29.8101 146.125 29.4701 146.425 29.2051C146.725 28.9401 147.055 28.7501 147.41 28.6251C147.765 28.5051 148.14 28.4501 148.53 28.4701C148.925 28.4901 149.32 28.5751 149.725 28.7251C150.13 28.8751 150.49 29.0801 150.79 29.3301C151.09 29.5801 151.325 29.8651 151.49 30.1851C151.655 30.5051 151.75 30.8551 151.775 31.2351C151.795 31.6151 151.73 32.0051 151.575 32.4151C151.445 32.7651 151.27 33.0651 151.055 33.3251C150.84 33.5851 150.595 33.8151 150.315 34.0201C150.04 34.2251 149.735 34.4101 149.405 34.5751C149.075 34.7401 148.73 34.9051 148.375 35.0701L145.085 36.6051C145.285 36.6251 145.485 36.6551 145.68 36.6951C145.875 36.7351 146.055 36.7851 146.22 36.8451L149.175 37.9601L149.185 37.9651Z" fill="white"></path>
<path d="M153.245 33.0851C153.475 32.6751 153.74 32.3401 154.045 32.0751C154.35 31.8101 154.675 31.6201 155.03 31.4951C155.385 31.3751 155.76 31.3201 156.15 31.3401C156.545 31.3601 156.94 31.4451 157.345 31.5951C157.75 31.7451 158.1 31.9451 158.395 32.1901C158.69 32.4351 158.92 32.7051 159.08 33.0051C159.24 33.3051 159.335 33.6301 159.36 33.9801C159.385 34.3251 159.33 34.6801 159.195 35.0351C159.08 35.3351 158.945 35.5851 158.785 35.7901C158.625 35.9951 158.44 36.1551 158.24 36.2751C158.035 36.4001 157.815 36.4801 157.575 36.5301C157.335 36.5751 157.075 36.5901 156.805 36.5801C157.34 36.9701 157.685 37.4051 157.845 37.8901C158.005 38.3751 157.98 38.9051 157.765 39.4751C157.6 39.9151 157.37 40.2801 157.07 40.5651C156.775 40.8551 156.435 41.0651 156.055 41.1951C155.675 41.3301 155.275 41.3851 154.845 41.3751C154.415 41.3601 153.985 41.2701 153.555 41.1101C153.065 40.9251 152.665 40.7051 152.355 40.4551C152.05 40.2051 151.81 39.9251 151.645 39.6151C151.48 39.3051 151.37 38.9701 151.32 38.6051C151.27 38.2401 151.255 37.8551 151.28 37.4551L151.925 37.4301C152.09 37.4251 152.235 37.4601 152.36 37.5351C152.485 37.6101 152.555 37.7251 152.57 37.8751C152.585 38.0301 152.605 38.2051 152.63 38.4001C152.655 38.5951 152.71 38.7901 152.8 38.9901C152.89 39.1901 153.02 39.3801 153.2 39.5601C153.38 39.7401 153.63 39.8951 153.955 40.0151C154.28 40.1351 154.56 40.1851 154.835 40.1701C155.11 40.1551 155.355 40.0951 155.57 39.9951C155.79 39.8901 155.975 39.7551 156.13 39.5851C156.285 39.4151 156.4 39.2301 156.47 39.0351C156.56 38.7901 156.615 38.5551 156.63 38.3301C156.645 38.1051 156.595 37.8851 156.48 37.6751C156.365 37.4651 156.17 37.2601 155.895 37.0651C155.62 36.8701 155.24 36.6751 154.755 36.4951L155.105 35.5701C155.505 35.7151 155.86 35.8051 156.165 35.8301C156.47 35.8551 156.735 35.8301 156.955 35.7551C157.18 35.6801 157.36 35.5601 157.51 35.4001C157.66 35.2351 157.775 35.0401 157.865 34.8051C157.96 34.5501 158.005 34.3101 158 34.0901C157.995 33.8701 157.945 33.6701 157.85 33.4851C157.755 33.3051 157.625 33.1451 157.455 33.0101C157.285 32.8751 157.085 32.7651 156.86 32.6801C156.635 32.5951 156.41 32.5501 156.195 32.5401C155.98 32.5351 155.775 32.5601 155.585 32.6201C155.395 32.6801 155.215 32.7751 155.055 32.9001C154.895 33.0251 154.755 33.1701 154.645 33.3401C154.52 33.4801 154.405 33.5651 154.29 33.5851C154.175 33.6051 154.035 33.5701 153.875 33.4751L153.25 33.1051L153.245 33.0851Z" fill="white"></path>
</g>
</g>
<g id="Group_2">
<path id="Vector_33" d="M29.8955 22.16L64.7905 16.91C67.5855 16.49 70.2155 18.435 70.6405 21.23L71.9955 30.235L74.4755 46.725L76.0455 57.15C76.1905 58.115 74.9555 58.63 74.3655 57.855L68.1905 49.66C67.3605 48.555 65.9905 48 64.6255 48.205L34.5005 52.735C31.7055 53.155 29.0755 51.21 28.6505 48.415L25.5805 28C25.1605 25.205 27.1055 22.575 29.9005 22.15L29.8955 22.16Z" fill="#2AEDB4"></path>
<path id="Vector_34" d="M29.8955 20.035L64.7905 14.785C67.5855 14.365 70.2155 16.31 70.6405 19.105L71.9955 28.11L74.4755 44.6L76.0455 55.025C76.1905 55.99 74.9555 56.505 74.3655 55.73L68.1905 47.535C67.3605 46.43 65.9905 45.875 64.6255 46.08L34.5005 50.61C31.7055 51.03 29.0755 49.085 28.6505 46.29L25.5805 25.875C25.1605 23.08 27.1055 20.45 29.9005 20.025L29.8955 20.035Z" fill="white"></path>
<path id="Vector_35" d="M28.7127 20.1819L65.969 14.5807C68.1248 14.2566 70.1333 15.7445 70.4566 17.8953L70.7139 19.6061L25.6552 26.3804L25.398 24.6696C25.0739 22.5138 26.5619 20.5053 28.7127 20.1819Z" fill="#07064E"></path>
<path id="Vector_36" d="M61.5103 19.58C62.2696 19.58 62.8853 18.9643 62.8853 18.205C62.8853 17.4456 62.2696 16.83 61.5103 16.83C60.7509 16.83 60.1353 17.4456 60.1353 18.205C60.1353 18.9643 60.7509 19.58 61.5103 19.58Z" fill="white"></path>
<path id="Vector_37" d="M65.4453 18.99C66.2047 18.99 66.8203 18.3744 66.8203 17.615C66.8203 16.8556 66.2047 16.24 65.4453 16.24C64.6859 16.24 64.0703 16.8556 64.0703 17.615C64.0703 18.3744 64.6859 18.99 65.4453 18.99Z" fill="#2BF5BA"></path>
<path id="Vector_38" d="M63.9012 24.6379L33.8638 29.1539C32.9326 29.2939 32.2911 30.1611 32.4308 31.0909C32.5706 32.0207 33.4388 32.661 34.37 32.521L64.4074 28.0051C65.3386 27.8651 65.9802 26.9978 65.8404 26.068C65.7006 25.1382 64.8324 24.4979 63.9012 24.6379Z" fill="#07064E"></path>
<path id="Vector_39" d="M45.4975 33.5576L34.7681 35.1707C33.8369 35.3107 33.1954 36.178 33.3351 37.1078C33.4749 38.0376 34.3431 38.6779 35.2743 38.5379L46.0037 36.9248C46.9349 36.7848 47.5765 35.9175 47.4367 34.9877C47.2969 34.0579 46.4287 33.4176 45.4975 33.5576Z" fill="#FFC391"></path>
<path id="Vector_40" d="M56.9068 37.9943L35.6704 41.1871C34.7392 41.3271 34.0977 42.1943 34.2375 43.1241C34.3773 44.0539 35.2455 44.6942 36.1767 44.5542L57.413 41.3615C58.3442 41.2215 58.9857 40.3542 58.8459 39.4244C58.7061 38.4946 57.8379 37.8543 56.9068 37.9943Z" fill="#2BF5BA"></path>
</g>
</g>
</g>
</g>
</g>
<defs>
<clipPath id="clip0_85_2282">
<rect width="200" height="140" fill="white"></rect>
</clipPath>
</defs>
</svg>