<svg width="200" height="140" viewBox="0 0 200 140" fill="none" xmlns="http://www.w3.org/2000/svg">
<g id="illu_bg_choose-subscription-plan/Default" clip-path="url(#clip0_86_1115)">
<g id="illu_bg_choose-subscription-plan">
<g id="background">
<path d="M178.014 131.98C181.752 131.061 184.301 128.358 183.707 125.942C183.113 123.525 179.602 122.312 175.863 123.231C172.125 124.149 169.576 126.853 170.17 129.269C170.764 131.685 174.276 132.899 178.014 131.98Z" fill="#2BF5BA"></path>
<path d="M180.03 13.31C210.08 23.295 186.955 112.235 169.715 124.775C138.565 147.425 95.0851 103.75 59.5551 124.75C42.1751 135.02 20.6151 130.16 21.6351 106.1C22.8201 78.3 6.16012 75.69 5.44512 47.42C5.00012 29.845 12.7051 -0.415021 46.6751 9.75498C121.05 32.02 155.12 5.02998 180.03 13.31Z" fill="#2BF5BA"></path>
<path d="M191.348 14.4086C193.244 13.9426 194.542 12.5909 194.246 11.3895C193.951 10.1882 192.175 9.59206 190.279 10.0581C188.383 10.5241 187.085 11.8758 187.381 13.0772C187.676 14.2785 189.452 14.8746 191.348 14.4086Z" fill="#2BF5BA"></path>
<path d="M14.0149 116.023C14.5836 114.921 14.1275 113.555 12.9963 112.971C11.8651 112.387 10.487 112.807 9.91836 113.909C9.34969 115.01 9.80573 116.377 10.937 116.961C12.0682 117.545 13.4462 117.125 14.0149 116.023Z" fill="#2BF5BA"></path>
</g>
<g id="illu_bg_choose-subscription-plan_2">
<g id="stroke">
<path id="Vector" d="M62.42 26H137.945C141.05 26 143.575 28.525 143.575 31.63V72.79H56.79V31.63C56.79 28.525 59.315 26 62.42 26Z" fill="#EDEDED"></path>
<path id="Vector_2" d="M120.4 99.355C120.07 100.775 118.795 101.84 117.28 101.84H83.0901C81.5751 101.84 80.3001 100.775 79.9701 99.355C59.0001 102.395 81.6901 105.42 100.185 105.29C118.685 105.425 141.36 102.4 120.4 99.355Z" fill="#2AEDB4"></path>
<g id="Vector_3">
<path d="M56.6104 72.6948V75.7498C56.6104 78.8448 59.1454 81.3798 62.2404 81.3798H92.8103V95.3498H107.555V81.3798H137.76C140.855 81.3798 143.39 78.8448 143.39 75.7498V72.6948H56.6104Z" fill="white"></path>
<path d="M117.275 95.3648H83.0854C81.3204 95.3648 79.8803 96.8048 79.8803 98.5698C79.8803 100.335 81.3204 101.775 83.0854 101.775H117.275C119.04 101.775 120.48 100.335 120.48 98.5698C120.48 96.8048 119.04 95.3648 117.275 95.3648Z" fill="white"></path>
</g>
<path id="Vector_4" d="M93.0201 81.2695C93.0201 81.3145 93.0151 81.3595 93.0151 81.4045C93.0151 85.0245 96.2251 87.9595 100.185 87.9595C104.145 87.9595 107.355 85.0245 107.355 81.4045C107.355 81.3595 107.35 81.3145 107.35 81.2695H93.0301H93.0201Z" fill="#EBEBEB"></path>
<path id="Vector_5" d="M37.7851 104.86C42.7308 104.86 46.7401 103.973 46.7401 102.88C46.7401 101.786 42.7308 100.9 37.7851 100.9C32.8394 100.9 28.8301 101.786 28.8301 102.88C28.8301 103.973 32.8394 104.86 37.7851 104.86Z" fill="#2AEDB4"></path>
<g id="Group">
<path id="Vector_6" d="M134.75 71.33L129.87 68.205C129.415 67.915 128.845 67.925 128.4 68.235L124.72 70.8C124.26 71.12 123.665 71.12 123.21 70.8L119.55 68.25C119.095 67.93 118.5 67.93 118.045 68.25L114.36 70.8C113.9 71.12 113.3 71.115 112.84 70.79L109.215 68.205C108.77 67.885 108.19 67.875 107.73 68.17L102.845 71.33V35.715C102.845 34.205 104.035 32.98 105.5 32.98H132.1C133.565 32.98 134.755 34.205 134.755 35.715V71.33H134.75Z" fill="#DDDDDD"></path>
<path id="Vector_7" d="M134.75 69.3349L129.87 66.2099C129.415 65.9199 128.845 65.9299 128.4 66.2399L124.72 68.8049C124.26 69.1249 123.665 69.1249 123.21 68.8049L119.55 66.2549C119.095 65.9349 118.5 65.9349 118.045 66.2549L114.36 68.8049C113.9 69.1249 113.3 69.1199 112.84 68.7949L109.215 66.2099C108.77 65.8899 108.19 65.8799 107.73 66.1749L102.845 69.3349V33.7199C102.845 32.2099 104.035 30.9849 105.5 30.9849H132.1C133.565 30.9849 134.755 32.2099 134.755 33.7199V69.3349H134.75Z" fill="white"></path>
<g id="Vector_8">
<path d="M129.355 61.7248H121.315C121.185 61.7248 121.08 61.6198 121.08 61.4898C121.08 61.3598 121.185 61.2548 121.315 61.2548H129.355C129.485 61.2548 129.59 61.3598 129.59 61.4898C129.59 61.6198 129.485 61.7248 129.355 61.7248Z" fill="#07064E"></path>
<path d="M129.605 45.3001H121.565C121.435 45.3001 121.33 45.1951 121.33 45.0651C121.33 44.9351 121.435 44.8301 121.565 44.8301H129.605C129.735 44.8301 129.84 44.9351 129.84 45.0651C129.84 45.1951 129.735 45.3001 129.605 45.3001Z" fill="#07064E"></path>
<path d="M116.03 40.1551H107.99C107.86 40.1551 107.755 40.0501 107.755 39.9201C107.755 39.7901 107.86 39.6851 107.99 39.6851H116.03C116.16 39.6851 116.265 39.7901 116.265 39.9201C116.265 40.0501 116.16 40.1551 116.03 40.1551Z" fill="#07064E"></path>
<path d="M120.445 45.3001H108.195C108.065 45.3001 107.96 45.1951 107.96 45.0651C107.96 44.9351 108.065 44.8301 108.195 44.8301H120.445C120.575 44.8301 120.68 44.9351 120.68 45.0651C120.68 45.1951 120.575 45.3001 120.445 45.3001Z" fill="#07064E"></path>
<path d="M129.605 48.2901H108.195C108.065 48.2901 107.96 48.1851 107.96 48.0551C107.96 47.9251 108.065 47.8201 108.195 47.8201H129.605C129.735 47.8201 129.84 47.9251 129.84 48.0551C129.84 48.1851 129.735 48.2901 129.605 48.2901Z" fill="#07064E"></path>
<path d="M129.605 51.2851H117.475C117.345 51.2851 117.24 51.1801 117.24 51.0501C117.24 50.9201 117.345 50.8151 117.475 50.8151H129.605C129.735 50.8151 129.84 50.9201 129.84 51.0501C129.84 51.1801 129.735 51.2851 129.605 51.2851Z" fill="#07064E"></path>
<path d="M115.235 51.2851H108.195C108.065 51.2851 107.96 51.1801 107.96 51.0501C107.96 50.9201 108.065 50.8151 108.195 50.8151H115.235C115.365 50.8151 115.47 50.9201 115.47 51.0501C115.47 51.1801 115.365 51.2851 115.235 51.2851Z" fill="#07064E"></path>
<path d="M129.605 54.275H126.835C126.705 54.275 126.6 54.17 126.6 54.04C126.6 53.91 126.705 53.805 126.835 53.805H129.605C129.735 53.805 129.84 53.91 129.84 54.04C129.84 54.17 129.735 54.275 129.605 54.275Z" fill="#07064E"></path>
<path d="M125.715 54.275H108.195C108.065 54.275 107.96 54.17 107.96 54.04C107.96 53.91 108.065 53.805 108.195 53.805H125.715C125.845 53.805 125.95 53.91 125.95 54.04C125.95 54.17 125.845 54.275 125.715 54.275Z" fill="#07064E"></path>
<path d="M116.105 57.2351H108.195C108.085 57.2351 107.995 57.1451 107.995 57.035C107.995 56.925 108.085 56.835 108.195 56.835H116.105C116.215 56.835 116.305 56.925 116.305 57.035C116.305 57.1451 116.215 57.2351 116.105 57.2351Z" fill="#07064E"></path>
</g>
<path id="Vector_9" d="M120.46 57.235H118.48C118.37 57.235 118.28 57.145 118.28 57.035C118.28 56.925 118.37 56.835 118.48 56.835H120.46C120.57 56.835 120.66 56.925 120.66 57.035C120.66 57.145 120.57 57.235 120.46 57.235Z" fill="#2BF5BA"></path>
</g>
<g id="Group_2">
<path id="Vector_10" d="M93.5354 41.0195H67.7904C65.711 41.0195 64.0254 42.7052 64.0254 44.7845V61.6645C64.0254 63.7439 65.711 65.4295 67.7904 65.4295H93.5354C95.6147 65.4295 97.3004 63.7439 97.3004 61.6645V44.7845C97.3004 42.7052 95.6147 41.0195 93.5354 41.0195Z" fill="#DDDDDD"></path>
<path id="Vector_11" d="M93.5354 39.0244H67.7904C65.711 39.0244 64.0254 40.7101 64.0254 42.7894V59.6694C64.0254 61.7488 65.711 63.4344 67.7904 63.4344H93.5354C95.6147 63.4344 97.3004 61.7488 97.3004 59.6694V42.7894C97.3004 40.7101 95.6147 39.0244 93.5354 39.0244Z" fill="white"></path>
<path id="Vector_12" d="M67.4354 38.9546H93.8904C95.7704 38.9546 97.3004 40.4796 97.3004 42.3646V42.8646H64.0254V42.3646C64.0254 40.4846 65.5504 38.9546 67.4354 38.9546Z" fill="#07064E"></path>
<path id="Vector_13" d="M90.0702 41.8646C90.5977 41.8646 91.0252 41.437 91.0252 40.9096C91.0252 40.3822 90.5977 39.9546 90.0702 39.9546C89.5428 39.9546 89.1152 40.3822 89.1152 40.9096C89.1152 41.437 89.5428 41.8646 90.0702 41.8646Z" fill="white"></path>
<path id="Vector_14" d="M92.8402 41.8646C93.3677 41.8646 93.7952 41.437 93.7952 40.9096C93.7952 40.3822 93.3677 39.9546 92.8402 39.9546C92.3128 39.9546 91.8853 40.3822 91.8853 40.9096C91.8853 41.437 92.3128 41.8646 92.8402 41.8646Z" fill="#2BF5BA"></path>
</g>
<g id="Vector_15">
<path d="M43.1449 48.705C43.1449 48.705 40.6149 53.975 43.4049 55.53C43.6999 55.695 43.9449 55.755 44.1449 55.745C43.5999 53.455 43.4399 51.67 43.7299 49.46C43.5399 49.135 43.3449 48.87 43.1449 48.71V48.705Z" fill="#00EBA6"></path>
<path d="M36.4049 46.46C36.0749 45.975 35.7399 45.6 35.4149 45.385C35.4149 45.385 32.8699 52.7 36.7299 54.345C37.0249 54.47 37.2799 54.525 37.4949 54.535C36.5599 51.81 36.1049 49.215 36.3999 46.46H36.4049Z" fill="#00EBA6"></path>
<path d="M40.5849 60.4C39.7949 61.75 38.8599 62.935 38.1149 62.645C37.7799 62.515 37.7149 62.19 37.8349 61.765C38.7949 60.995 39.5599 60.395 40.5849 60.4Z" fill="#00EBA6"></path>
<path d="M44.8199 58.88C44.8899 58.93 44.9699 58.975 45.0599 59.02C48.3349 60.645 53.2649 54.37 53.2649 54.37C52.4299 54.15 50.6999 54.49 48.9799 55.085C47.4099 55.985 46.0599 57.29 44.8149 58.885L44.8199 58.88Z" fill="#00EBA6"></path>
<path d="M45.7199 52.53C45.8149 52.795 46.0799 53.015 46.5649 53.16C48.9399 53.85 50.9599 50.94 51.9549 49.13C50.1699 50.935 48.0549 52.175 45.7149 52.535L45.7199 52.53Z" fill="#00EBA6"></path>
<path d="M47.2999 45.205C47.4199 45.31 47.5799 45.405 47.7899 45.49C50.1999 46.465 53.1399 43.39 54.6349 41.535C51.7449 41.105 48.9949 42.795 47.2999 45.205Z" fill="#00EBA6"></path>
<path d="M47.4949 38.915C47.4249 39.41 47.6699 39.755 48.3999 39.825C50.6099 40.035 52.1649 37.03 52.9299 35.1C51.3099 36.665 49.7649 38.16 47.4999 38.915H47.4949Z" fill="#00EBA6"></path>
<path d="M45.0849 24.355C46.1249 27.45 47.3449 30.78 47.0549 33.975C50.2249 35.315 47.5549 25.19 45.0849 24.355Z" fill="#00EBA6"></path>
</g>
<g id="Vector_16">
<path d="M18.1248 46.1899C18.3148 46.5949 18.1898 46.9549 17.5748 47.2049C15.7098 47.9699 13.5848 45.8099 12.4248 44.3599C14.2348 45.2699 15.9648 46.1399 18.1248 46.1899Z" fill="#00EBA6"></path>
<path d="M30.0949 63.795C29.9999 63.83 29.8999 63.86 29.7849 63.89C25.6149 64.825 20.8599 55.845 20.8599 55.845C21.8849 55.845 23.8849 56.77 25.8199 58C27.5249 59.55 28.8999 61.52 30.0949 63.795Z" fill="#00EBA6"></path>
<path d="M31.4598 48.985C31.3548 49.215 31.0998 49.39 30.6498 49.48C28.4548 49.925 26.8398 47.185 26.0698 45.5C27.5548 47.24 29.3748 48.495 31.4598 48.985Z" fill="#00EBA6"></path>
<path d="M32.0197 39.8998C31.8247 39.8998 31.5997 39.8448 31.3397 39.8048C28.0997 39.3098 28.1397 33.6648 28.7497 31.2148C30.0397 36.0098 32.5397 37.1248 32.0197 39.8998Z" fill="#00EBA6"></path>
</g>
<g id="Group_3">
<path id="Vector_17" d="M9.06494 48.2151C9.06494 48.2151 16.5199 49.8301 20.5849 47.8601C24.0849 46.1601 10.8099 43.9501 9.06494 48.2151Z" fill="#00EBA6"></path>
<path id="Vector_18" d="M15.9352 35.1851C15.9352 35.1851 21.1102 41.2301 21.7002 46.0251C22.2052 50.1551 13.5052 39.0351 15.9352 35.1851Z" fill="#2BF5BA"></path>
<path id="Vector_19" d="M9.625 45.48C9.625 45.48 16.64 48.8 21.085 47.87C24.91 47.07 12.275 41.795 9.625 45.48Z" fill="#2BF5BA"></path>
<path id="Vector_20" d="M14.175 36.96C14.175 36.96 20.455 41.705 22.06 46.3C23.44 50.26 12.675 41.34 14.175 36.96Z" fill="#00EBA6"></path>
<path id="Vector_21" d="M10.4849 42.8798C10.4849 42.8798 16.7599 47.6298 21.3499 47.7148C25.2999 47.7898 13.8499 39.9098 10.4849 42.8798Z" fill="#00EBA6"></path>
<path id="Vector_22" d="M12.4952 38.9702C12.4952 38.9702 19.5152 42.2802 21.9852 46.4802C24.1152 50.0952 11.9302 43.6402 12.4952 38.9702Z" fill="#2BF5BA"></path>
</g>
<g id="Group_4">
<path id="Vector_23" d="M20.6953 21.0098C20.6953 21.0098 26.6553 27.0948 31.6603 27.7548C35.9703 28.3198 24.9403 18.0998 20.6953 21.0098Z" fill="#00EBA6"></path>
<path id="Vector_24" d="M35.1105 13.0698C35.1105 13.0698 36.2255 21.8898 33.8305 26.7198C31.7655 30.8798 30.4755 15.1698 35.1105 13.0698Z" fill="#2BF5BA"></path>
<path id="Vector_25" d="M22.9053 18.7998C22.9053 18.7998 27.4103 26.2048 32.1253 28.0648C36.1853 29.6698 27.6353 16.9848 22.9053 18.7998Z" fill="#2BF5BA"></path>
<path id="Vector_26" d="M32.3805 13.6499C32.3805 13.6499 35.3255 21.9349 33.9955 27.2049C32.8505 31.7449 28.2855 16.8149 32.3805 13.6499Z" fill="#00EBA6"></path>
<path id="Vector_27" d="M25.3003 16.905C25.3003 16.905 28.2353 25.195 32.4653 28.09C36.1053 30.585 30.2653 16.2 25.3003 16.905Z" fill="#00EBA6"></path>
<path id="Vector_28" d="M29.5751 14.4897C29.5751 14.4897 34.0901 21.8897 33.8151 27.3247C33.5801 32.0047 26.1801 18.5047 29.5751 14.4897Z" fill="#2BF5BA"></path>
</g>
<g id="Group_5">
<path id="Vector_29" d="M50.1698 38.6747C50.1698 38.6747 47.0398 44.0397 43.5348 45.4447C40.5148 46.6547 46.5048 37.4547 50.1698 38.6747Z" fill="#00EBA6"></path>
<path id="Vector_30" d="M38.125 35.8848C38.125 35.8848 39.06 42.2298 41.76 45.1398C44.085 47.6448 41.91 36.4698 38.125 35.8848Z" fill="#2BF5BA"></path>
<path id="Vector_31" d="M48.13 37.5545C48.13 37.5545 46.325 43.5595 43.265 45.7495C40.63 47.6345 44.33 37.1945 48.13 37.5545Z" fill="#2BF5BA"></path>
<path id="Vector_32" d="M40.2251 35.7695C40.2251 35.7695 39.7251 42.0895 41.7351 45.5045C43.4651 48.4445 43.8251 37.1945 40.2251 35.7695Z" fill="#00EBA6"></path>
<path id="Vector_33" d="M46.01 36.6895C46.01 36.6895 45.515 43.0095 43.02 45.8295C40.87 48.2545 42.265 37.1445 46.01 36.6895Z" fill="#00EBA6"></path>
<path id="Vector_34" d="M42.4252 35.8247C42.4252 35.8247 40.6102 41.8297 41.8852 45.5597C42.9802 48.7697 45.6852 37.9747 42.4252 35.8247Z" fill="#2BF5BA"></path>
</g>
<g id="Vector_35">
<path d="M44.1049 55.9801C43.8849 55.9801 43.6149 55.9101 43.2899 55.7301C40.3449 54.0901 42.8249 48.8251 42.9349 48.6001C42.9649 48.5351 43.0249 48.4901 43.0949 48.4701C43.1649 48.4551 43.2399 48.4701 43.2949 48.5201C44.5599 49.5651 45.7799 54.2351 44.8699 55.5651C44.7449 55.7501 44.5049 55.9801 44.1049 55.9801ZM43.2199 49.1151C42.7449 50.2401 41.3249 54.1001 43.5199 55.3201C44.2099 55.7051 44.4099 55.4101 44.4849 55.3001C45.2099 54.2351 44.2399 50.3651 43.2199 49.1101V49.1151Z" fill="#07064E"></path>
<path d="M37.5449 54.7752C37.2999 54.7752 37 54.7152 36.6399 54.5602C32.625 52.8502 35.09 45.6152 35.195 45.3102C35.2199 45.2402 35.275 45.1902 35.34 45.1652C35.41 45.1402 35.4849 45.1502 35.5449 45.1902C37.3399 46.3802 39.58 52.3002 38.58 54.1602C38.44 54.4252 38.1349 54.7752 37.5449 54.7752ZM35.54 45.7802C35.115 47.1802 33.655 52.7802 36.825 54.1302C37.835 54.5602 38.0849 54.0902 38.1699 53.9402C39.0049 52.3902 37.09 47.2102 35.54 45.7852V45.7802Z" fill="#07064E"></path>
<path d="M38.3448 62.9204C38.2398 62.9204 38.1348 62.9004 38.0298 62.8604C37.8048 62.7704 37.4448 62.5254 37.5698 61.8654C37.8798 60.1954 41.1598 56.8404 42.2048 56.8404C42.2848 56.8404 42.3548 56.8804 42.3998 56.9454C42.4448 57.0104 42.4548 57.0904 42.4248 57.1654C42.0198 58.1704 40.0198 62.9254 38.3448 62.9254V62.9204ZM41.7898 57.4654C40.6648 58.1154 38.2748 60.6404 38.0298 61.9554C37.9598 62.3354 38.1198 62.4004 38.1998 62.4304C39.0998 62.7804 40.7598 59.8804 41.7898 57.4704V57.4654Z" fill="#07064E"></path>
<path d="M47.5848 34.3353C47.3748 34.3353 47.1398 34.2753 46.8848 34.1603C43.4748 32.5753 44.7948 24.6503 44.8498 24.3153C44.8598 24.2453 44.8998 24.1903 44.9598 24.1553C45.0198 24.1203 45.0898 24.1103 45.1548 24.1353C46.7748 24.6803 48.1998 28.4053 48.6048 30.8853C48.7998 32.0703 48.8798 33.6003 48.1598 34.1503C47.9948 34.2753 47.7998 34.3403 47.5798 34.3403L47.5848 34.3353ZM45.2698 24.7003C45.0648 26.1703 44.3498 32.4603 47.0848 33.7303C47.4348 33.8903 47.6998 33.9053 47.8798 33.7703C48.2848 33.4653 48.3848 32.4103 48.1448 30.9553C47.7398 28.4753 46.4648 25.4403 45.2648 24.6953L45.2698 24.7003Z" fill="#07064E"></path>
<path d="M46.24 59.5202C45.795 59.5202 45.365 59.4302 44.955 59.2252C44.01 58.7552 44.075 58.1402 44.195 57.8152C44.885 55.9752 51.325 53.6152 53.325 54.1402C53.4 54.1602 53.465 54.2152 53.49 54.2902C53.515 54.3652 53.5 54.4502 53.45 54.5102C53.27 54.7402 49.47 59.5202 46.24 59.5202ZM52.63 54.5302C50.38 54.5302 45.185 56.5102 44.635 57.9802C44.585 58.1102 44.455 58.4552 45.165 58.8052C47.82 60.1202 51.775 55.7702 52.82 54.5352C52.76 54.5352 52.695 54.5302 52.63 54.5302Z" fill="#07064E"></path>
<path d="M47.295 53.5003C47.035 53.5003 46.77 53.4653 46.5 53.3853C45.435 53.0753 45.39 52.4353 45.46 52.0803C45.805 50.2703 50.8 47.3753 52.65 47.5403C52.725 47.5453 52.79 47.5903 52.83 47.6553C52.87 47.7203 52.875 47.7953 52.845 47.8653C52.74 48.1153 50.45 53.5003 47.295 53.5003ZM52.265 48.0103C50.395 48.1953 46.205 50.6953 45.925 52.1653C45.9 52.3103 45.825 52.6953 46.635 52.9353C49.36 53.7303 51.67 49.2803 52.265 48.0103Z" fill="#07064E"></path>
<path d="M48.7649 45.9103C48.4049 45.9103 48.0499 45.8453 47.6999 45.7053C46.7199 45.3103 46.7399 44.6903 46.8349 44.3553C47.3799 42.4653 53.6349 39.6253 55.6599 39.9903C55.7399 40.0053 55.8049 40.0553 55.8349 40.1303C55.8649 40.2053 55.8599 40.2853 55.8149 40.3503C55.6499 40.6003 52.0549 45.9103 48.7649 45.9103ZM55.1849 40.4253C53.0449 40.4703 47.7349 42.9353 47.2849 44.4853C47.2449 44.6203 47.1449 44.9753 47.8749 45.2703C50.6249 46.3803 54.2349 41.7353 55.1849 40.4253Z" fill="#07064E"></path>
<path d="M48.6198 40.0702C48.5398 40.0702 48.4598 40.0702 48.3748 40.0602C47.3948 39.9652 47.2448 39.4052 47.2448 39.0802C47.2348 37.3202 51.6348 33.4852 53.4448 33.2952C53.5248 33.2852 53.5998 33.3152 53.6498 33.3752C53.6998 33.4352 53.7198 33.5152 53.6948 33.5902C53.6198 33.8602 51.8648 40.0702 48.6198 40.0702ZM53.1248 33.8452C51.3498 34.4252 47.7048 37.6552 47.7148 39.0752C47.7148 39.2002 47.7148 39.5252 48.4198 39.5902C50.9848 39.8302 52.6798 35.2202 53.1248 33.8452Z" fill="#07064E"></path>
<path d="M41.9848 65.0204C41.9548 65.0204 41.9248 65.0154 41.8948 65.0004C41.7748 64.9504 41.7198 64.8104 41.7698 64.6954C42.9048 62.0104 43.8298 59.2104 44.5148 56.3754C44.8398 55.0254 45.1198 53.6504 45.3848 52.3204C45.9998 49.2554 46.6398 46.0804 46.7598 42.9104C46.7648 42.7304 46.7698 42.5504 46.7748 42.3704C46.7898 41.8254 46.8048 41.2604 46.8698 40.7054C46.9348 40.1304 47.0498 39.5554 47.1648 39.0004C47.2498 38.5904 47.3348 38.1704 47.3948 37.7504C47.5798 36.5354 47.5898 35.2754 47.5998 34.0554C47.5998 33.9254 47.7048 33.8204 47.8348 33.8204C47.9648 33.8204 48.0698 33.9254 48.0698 34.0554C48.0598 35.2904 48.0498 36.5654 47.8598 37.8154C47.7948 38.2454 47.7098 38.6704 47.6248 39.0854C47.5148 39.6304 47.3998 40.1954 47.3398 40.7504C47.2798 41.2854 47.2648 41.8404 47.2498 42.3754C47.2448 42.5554 47.2398 42.7404 47.2348 42.9204C47.1148 46.1304 46.4748 49.3204 45.8498 52.4054C45.5798 53.7404 45.3048 55.1154 44.9748 56.4804C44.2848 59.3404 43.3498 62.1654 42.2048 64.8754C42.1648 64.9654 42.0798 65.0204 41.9898 65.0204H41.9848Z" fill="#07064E"></path>
<path d="M29.1649 64.1904C25.0649 64.1904 20.8399 56.3054 20.6549 55.9504C20.6149 55.8804 20.6199 55.7904 20.6599 55.7204C20.7049 55.6454 20.7949 55.6054 20.8699 55.6054C23.4099 55.6054 30.7299 60.4704 30.9999 62.8304C31.0399 63.2004 30.9499 63.8654 29.8399 64.1104C29.6149 64.1604 29.3899 64.1854 29.1649 64.1854V64.1904ZM21.2799 56.1154C22.2399 57.8054 26.2649 64.4354 29.7349 63.6554C30.5949 63.4604 30.5499 63.0404 30.5299 62.8854C30.3049 60.9154 23.9049 56.5804 21.2799 56.1154Z" fill="#07064E"></path>
<path d="M30.1699 49.7655C27.1799 49.7655 25.4199 44.5555 25.3399 44.3205C25.3149 44.2505 25.3299 44.1705 25.3699 44.1105C25.4099 44.0505 25.4849 44.0155 25.5599 44.0105H25.5749C27.2899 44.0105 31.5749 46.9555 31.7499 48.6005C31.7849 48.9305 31.6949 49.5105 30.6949 49.7105C30.5149 49.7455 30.3399 49.7655 30.1699 49.7655ZM25.9099 44.5155C26.3799 45.7355 28.1199 49.7505 30.5999 49.2505C31.3299 49.1055 31.2949 48.7755 31.2799 48.6505C31.1399 47.3405 27.5999 44.8455 25.9099 44.5155Z" fill="#07064E"></path>
<path d="M32.0098 40.1405C31.7998 40.1405 31.5598 40.1105 31.2798 40.0355C26.8948 38.9005 28.4498 31.4855 28.5198 31.1705C28.5348 31.1005 28.5798 31.0405 28.6448 31.0105C28.7098 30.9805 28.7798 30.9755 28.8498 31.0105C30.8598 31.9305 33.9548 37.3155 33.2348 39.3355C33.0948 39.7305 32.7648 40.1455 32.0098 40.1455V40.1405ZM28.9198 31.5805C28.6748 32.9855 27.9198 38.6805 31.3948 39.5805C32.5398 39.8755 32.7298 39.3455 32.7898 39.1755C33.3898 37.4805 30.7048 32.7405 28.9198 31.5805Z" fill="#07064E"></path>
<path d="M15.0698 49.0806C11.9898 49.0806 9.19981 48.4856 9.01481 48.4506C8.94481 48.4356 8.88981 48.3906 8.85481 48.3306C8.81981 48.2706 8.81981 48.1956 8.84481 48.1306C9.16481 47.3456 9.85481 46.7256 10.8898 46.2806C10.0548 45.9456 9.53481 45.7006 9.52481 45.6956C9.45981 45.6656 9.41481 45.6106 9.39981 45.5406C9.38481 45.4706 9.39981 45.4006 9.43481 45.3456C9.90981 44.6856 10.6948 44.2556 11.7748 44.0656C10.8998 43.4856 10.3498 43.0756 10.3448 43.0706C10.2898 43.0256 10.2548 42.9606 10.2498 42.8906C10.2498 42.8206 10.2748 42.7506 10.3298 42.7056C10.9998 42.1156 11.9898 41.8856 13.2748 42.0156C12.4898 40.9006 12.1498 39.8706 12.2598 38.9456C12.2698 38.8706 12.3148 38.8056 12.3798 38.7706C12.4448 38.7356 12.5248 38.7306 12.5948 38.7656C12.5998 38.7656 13.2148 39.0606 14.1298 39.5656C13.7598 38.5356 13.6998 37.6356 13.9548 36.8906C13.9798 36.8206 14.0348 36.7656 14.1098 36.7406C14.1798 36.7206 14.2598 36.7306 14.3198 36.7756C14.3198 36.7756 14.7148 37.0756 15.3148 37.5806C15.1898 36.5406 15.3348 35.6956 15.7348 35.0606C15.7748 34.9956 15.8398 34.9556 15.9148 34.9506C15.9898 34.9456 16.0598 34.9756 16.1098 35.0306C16.2948 35.2456 20.6648 40.3906 21.7448 44.9906C21.9648 45.4206 22.1448 45.8356 22.2798 46.2256C22.3698 46.4806 22.4098 46.6906 22.4148 46.8656C22.4948 47.1306 22.4798 47.3456 22.3698 47.5006C22.3048 47.6856 22.1148 47.8906 21.6098 47.9306C21.4748 48.0006 21.3148 48.0556 21.1348 48.0906C20.8948 48.1406 20.6398 48.1806 20.3598 48.2106C18.8198 48.8656 16.8948 49.0706 15.0698 49.0706V49.0806ZM9.40481 48.0456C10.7798 48.3056 16.6698 49.2906 20.2048 47.7706C20.2248 47.7606 20.2498 47.7556 20.2748 47.7506C20.5548 47.7206 20.8048 47.6856 21.0398 47.6356C21.1998 47.6006 21.3248 47.5556 21.4298 47.5006C21.4598 47.4856 21.4948 47.4756 21.5298 47.4706C21.7898 47.4556 21.9198 47.3906 21.9298 47.3356C21.9398 47.3006 21.9548 47.2656 21.9798 47.2406C21.9948 47.2206 22.0098 47.1406 21.9598 46.9756C21.9498 46.9506 21.9498 46.9256 21.9498 46.8956C21.9498 46.7706 21.9148 46.5956 21.8398 46.3806C21.7098 46.0006 21.5348 45.6006 21.3198 45.1806C21.3098 45.1656 21.3048 45.1456 21.2998 45.1256C20.3898 41.2106 16.8948 36.7306 15.9798 35.6006C15.7048 36.2356 15.6698 37.0806 15.8848 38.1256C15.9048 38.2256 15.8598 38.3256 15.7748 38.3756C15.6898 38.4256 15.5798 38.4156 15.5048 38.3506C14.9948 37.9106 14.5798 37.5706 14.3198 37.3656C14.1848 38.0856 14.3548 38.9706 14.8248 40.0006C14.8648 40.0956 14.8448 40.2056 14.7698 40.2706C14.6948 40.3406 14.5848 40.3506 14.4948 40.3006C13.7148 39.8506 13.0798 39.5206 12.7198 39.3406C12.7348 40.1806 13.1648 41.1356 13.9948 42.1806C14.0548 42.2556 14.0648 42.3606 14.0148 42.4456C13.9648 42.5306 13.8698 42.5756 13.7748 42.5556C12.5198 42.3356 11.5498 42.4456 10.8898 42.8756C11.2048 43.1056 11.8048 43.5256 12.5798 44.0156C12.6648 44.0706 12.7048 44.1706 12.6798 44.2706C12.6548 44.3706 12.5698 44.4406 12.4698 44.4506C11.3448 44.5406 10.5198 44.8606 10.0098 45.3956C10.3298 45.5356 10.8998 45.7806 11.6348 46.0656C11.7298 46.1006 11.7898 46.1906 11.7848 46.2906C11.7798 46.3906 11.7198 46.4756 11.6248 46.5056C10.5348 46.8656 9.79481 47.3806 9.41481 48.0456H9.40481Z" fill="#07064E"></path>
<path d="M31.0798 65.0406H31.0748C30.9448 65.0406 30.8448 64.9306 30.8448 64.8006C31.1248 55.4606 25.9898 48.5006 22.1798 47.6206C22.0548 47.5906 21.9748 47.4656 22.0048 47.3406C22.0348 47.2156 22.1598 47.1356 22.2848 47.1656C26.2498 48.0806 31.5998 55.2406 31.3148 64.8206C31.3148 64.9456 31.2048 65.0456 31.0798 65.0456V65.0406Z" fill="#07064E"></path>
<path d="M33.1748 28.6105C33.0048 28.6105 32.8048 28.5505 32.5798 28.4255C32.4098 28.4055 32.2348 28.3605 32.0398 28.2855C31.7848 28.1855 31.5248 28.0655 31.2398 27.9205C26.2998 27.0205 20.7598 21.4105 20.5298 21.1755C20.4798 21.1255 20.4598 21.0555 20.4648 20.9905C20.4698 20.9205 20.5098 20.8605 20.5648 20.8205C21.3548 20.2805 22.3948 20.1255 23.6548 20.3655C23.0598 19.5105 22.7098 18.9355 22.7048 18.9305C22.6698 18.8705 22.6598 18.8005 22.6848 18.7305C22.7098 18.6655 22.7598 18.6105 22.8248 18.5855C23.6848 18.2555 24.6948 18.3455 25.8348 18.8555C25.3548 17.7455 25.0898 16.9955 25.0848 16.9855C25.0598 16.9205 25.0698 16.8455 25.1048 16.7855C25.1398 16.7255 25.2048 16.6855 25.2748 16.6755C26.2698 16.5355 27.3448 16.9355 28.4698 17.8755C28.4148 16.3305 28.7248 15.1455 29.4048 14.3455C29.4548 14.2855 29.5198 14.2555 29.5998 14.2655C29.6748 14.2705 29.7448 14.3105 29.7798 14.3755C29.7848 14.3855 30.1948 15.0555 30.7498 16.1305C31.0348 14.9105 31.5298 14.0155 32.2348 13.4705C32.2948 13.4255 32.3748 13.4105 32.4448 13.4305C32.5148 13.4505 32.5748 13.5055 32.5998 13.5755C32.5998 13.5805 32.7948 14.1255 33.0548 15.0055C33.5798 13.9305 34.2398 13.2155 35.0148 12.8605C35.0848 12.8305 35.1598 12.8355 35.2248 12.8705C35.2898 12.9055 35.3348 12.9705 35.3448 13.0455C35.3848 13.3605 36.3048 20.8405 34.4848 25.7905C34.4248 26.3205 34.3398 26.8205 34.2248 27.2705C34.1548 27.5605 34.0648 27.7805 33.9598 27.9455C33.8748 28.2355 33.7298 28.4205 33.5398 28.5005C33.4398 28.5805 33.3198 28.6205 33.1798 28.6205L33.1748 28.6105ZM21.0748 21.0505C22.1448 22.0905 27.0848 26.7005 31.3598 27.4605C31.3848 27.4605 31.4048 27.4705 31.4298 27.4855C31.7098 27.6305 31.9648 27.7505 32.2148 27.8505C32.3848 27.9205 32.5348 27.9555 32.6698 27.9655C32.7048 27.9655 32.7398 27.9805 32.7698 27.9955C33.0048 28.1305 33.1948 28.1755 33.2598 28.1155C33.2848 28.0905 33.3198 28.0705 33.3548 28.0605C33.3998 28.0455 33.4648 27.9655 33.5148 27.7805C33.5198 27.7555 33.5348 27.7305 33.5498 27.7105C33.6298 27.5905 33.7048 27.4055 33.7698 27.1555C33.8798 26.7155 33.9648 26.2305 34.0198 25.7105C34.0198 25.6905 34.0248 25.6705 34.0348 25.6555C35.6098 21.4005 35.0748 14.9905 34.9148 13.4455C34.2448 13.8655 33.6798 14.6455 33.2248 15.7755C33.1848 15.8705 33.1048 15.9255 32.9948 15.9205C32.8948 15.9155 32.8098 15.8455 32.7798 15.7505C32.5698 14.9955 32.3798 14.4055 32.2648 14.0605C31.6748 14.6555 31.2748 15.6005 31.0798 16.8755C31.0648 16.9755 30.9848 17.0555 30.8848 17.0705C30.7798 17.0855 30.6848 17.0355 30.6398 16.9455C30.1748 16.0155 29.7748 15.3005 29.5548 14.9205C29.0298 15.7205 28.8348 16.8905 28.9698 18.4055C28.9798 18.5005 28.9248 18.5955 28.8398 18.6355C28.7498 18.6755 28.6448 18.6605 28.5748 18.5955C27.5198 17.6005 26.5298 17.1005 25.6298 17.1155C25.7798 17.5105 26.0848 18.2905 26.5198 19.2555C26.5598 19.3455 26.5398 19.4555 26.4648 19.5255C26.3898 19.5955 26.2798 19.6055 26.1948 19.5605C25.0648 18.9455 24.0848 18.7355 23.2648 18.9405C23.4698 19.2605 23.8598 19.8555 24.3898 20.5955C24.4498 20.6755 24.4498 20.7855 24.3898 20.8655C24.3348 20.9455 24.2298 20.9855 24.1348 20.9605C22.8748 20.6205 21.8448 20.6505 21.0698 21.0605L21.0748 21.0505Z" fill="#07064E"></path>
<path d="M34.1998 65.0405C34.1098 65.0405 34.0248 64.9855 33.9848 64.9005C30.0248 55.6605 31.3798 48.3005 32.5748 41.8055C33.4148 37.2255 34.2098 32.8955 33.1598 28.3755C33.1298 28.2505 33.2098 28.1255 33.3348 28.0955C33.4648 28.0655 33.5848 28.1455 33.6148 28.2705C34.6898 32.8855 33.8848 37.2605 33.0348 41.8905C31.7948 48.6355 30.5148 55.6055 34.4148 64.7155C34.4648 64.8355 34.4148 64.9705 34.2898 65.0255C34.2598 65.0405 34.2298 65.0455 34.1948 65.0455L34.1998 65.0405Z" fill="#07064E"></path>
<path d="M37.6447 64.8607C37.5197 64.8607 37.4147 64.7607 37.4097 64.6307C37.1447 54.8857 38.9547 51.8757 40.5547 49.2207C41.1247 48.2707 41.6647 47.3757 42.0947 46.2257C42.1397 46.1057 42.2747 46.0407 42.3947 46.0857C42.5147 46.1307 42.5797 46.2657 42.5347 46.3857C42.0897 47.5807 41.5397 48.4907 40.9597 49.4607C39.3947 52.0607 37.6197 55.0057 37.8847 64.6157C37.8847 64.7457 37.7847 64.8507 37.6547 64.8557H37.6497L37.6447 64.8607Z" fill="#07064E"></path>
<path d="M42.4796 46.4108C42.4146 46.4108 42.3596 46.4008 42.3096 46.3808C42.1396 46.3608 41.9896 46.2508 41.8646 46.0558C41.7496 45.9558 41.6446 45.8158 41.5296 45.6258C41.3546 45.3308 41.1996 45.0108 41.0446 44.6458C38.7346 41.5308 37.9196 36.1458 37.8846 35.9208C37.8746 35.8458 37.8996 35.7708 37.9496 35.7208C38.0046 35.6708 38.0796 35.6458 38.1496 35.6558C38.7596 35.7508 39.3596 36.1008 39.9346 36.6958C39.9496 36.1258 39.9796 35.7758 39.9796 35.7558C39.9846 35.6808 40.0246 35.6158 40.0896 35.5758C40.1546 35.5358 40.2296 35.5308 40.2996 35.5558C40.8996 35.7958 41.4246 36.2858 41.8646 37.0258C42.0396 36.2608 42.1846 35.7858 42.1946 35.7608C42.2146 35.6908 42.2696 35.6308 42.3396 35.6058C42.4096 35.5808 42.4846 35.5908 42.5496 35.6308C43.1896 36.0508 43.6496 36.7908 43.9246 37.8308C44.5496 37.0108 45.2396 36.5508 45.9796 36.4608C46.0496 36.4508 46.1196 36.4758 46.1696 36.5258C46.2196 36.5758 46.2446 36.6458 46.2396 36.7108C46.2396 36.7358 46.1996 37.2358 46.0846 38.0108C46.7896 37.4908 47.4796 37.2608 48.1446 37.3258C48.2146 37.3308 48.2796 37.3708 48.3146 37.4308C48.3546 37.4908 48.3646 37.5608 48.3446 37.6308C48.3396 37.6508 48.2196 38.0458 47.9896 38.6708C48.8196 38.3108 49.5746 38.2358 50.2346 38.4558C50.2996 38.4758 50.3546 38.5308 50.3796 38.5958C50.4046 38.6608 50.3996 38.7358 50.3646 38.7958C50.2396 39.0058 47.3196 43.9658 43.8946 45.5408C43.7196 45.6958 43.5546 45.8258 43.3896 45.9458C43.2646 46.0358 43.1396 46.1058 43.0196 46.1508C42.7996 46.3508 42.6146 46.4108 42.4696 46.4108H42.4796ZM38.4146 36.2008C38.6396 37.4558 39.5246 41.8208 41.4446 44.3908C41.4546 44.4058 41.4646 44.4258 41.4746 44.4408C41.6196 44.7958 41.7746 45.1058 41.9396 45.3908C42.0546 45.5858 42.1396 45.6758 42.1946 45.7208C42.2146 45.7358 42.2346 45.7558 42.2446 45.7808C42.3096 45.8908 42.3596 45.9158 42.3696 45.9158C42.3996 45.9158 42.4446 45.9258 42.4746 45.9408C42.4896 45.9458 42.5796 45.9408 42.7446 45.7758C42.7696 45.7508 42.7996 45.7358 42.8346 45.7208C42.9296 45.6908 43.0246 45.6358 43.1296 45.5608C43.2896 45.4458 43.4496 45.3158 43.6246 45.1608C43.6396 45.1458 43.6646 45.1308 43.6846 45.1208C46.5396 43.8258 49.1446 39.8858 49.8096 38.8208C49.1996 38.7208 48.4846 38.8958 47.6896 39.3408C47.5996 39.3908 47.4946 39.3758 47.4196 39.3158C47.3446 39.2508 47.3196 39.1458 47.3546 39.0558C47.5696 38.5108 47.7246 38.0608 47.8146 37.7858C47.2196 37.8258 46.5846 38.1508 45.9296 38.7558C45.8546 38.8258 45.7446 38.8358 45.6596 38.7908C45.5696 38.7458 45.5246 38.6458 45.5396 38.5458C45.6496 37.8658 45.7196 37.3108 45.7496 36.9858C45.1396 37.1658 44.5596 37.6858 44.0196 38.5258C43.9696 38.6058 43.8746 38.6508 43.7796 38.6308C43.6846 38.6108 43.6096 38.5358 43.5946 38.4458C43.4046 37.4258 43.0596 36.6808 42.5646 36.2258C42.4796 36.5458 42.3396 37.0808 42.2046 37.7458C42.1846 37.8458 42.1046 37.9208 41.9996 37.9308C41.8996 37.9458 41.8046 37.8858 41.7596 37.7958C41.3896 37.0008 40.9446 36.4408 40.4446 36.1358C40.4296 36.4008 40.4146 36.8058 40.4096 37.3058C40.4096 37.4058 40.3446 37.4958 40.2496 37.5258C40.1546 37.5558 40.0496 37.5258 39.9896 37.4508C39.4746 36.7958 38.9496 36.3758 38.4196 36.1958L38.4146 36.2008Z" fill="#07064E"></path>
<path d="M21.3347 45.086C20.7397 46.866 20.1497 47.786 20.1497 47.786L22.1447 47.551L21.9397 46.061L21.3397 45.091L21.3347 45.086Z" fill="#07064E"></path>
<path d="M34.1597 25.5609C32.7997 26.8509 31.3597 27.5209 31.3597 27.5209L33.2247 28.4009L33.9747 27.2959L34.1597 25.5609Z" fill="#07064E"></path>
<path d="M43.8946 45.1209C42.1146 44.5259 41.1546 44.3409 41.1546 44.3409L42.3696 46.1209L43.2396 45.8759L43.8946 45.1259V45.1209Z" fill="#07064E"></path>
</g>
<path id="Vector_36" d="M42.9801 75.985H43.0051V69.175H43.5751C44.7751 69.175 45.7451 68.205 45.7451 67.005C45.7451 65.805 44.7751 64.835 43.5751 64.835H28.4501C27.2501 64.835 26.2801 65.805 26.2801 67.005C26.2801 68.205 27.2501 69.175 28.4501 69.175H29.0201V75.985H29.0801C20.0001 82.005 27.2201 93.715 29.1701 103.115H42.8851C44.8351 93.715 52.0601 82 42.9751 75.985H42.9801Z" fill="#2BF5BA"></path>
<g id="Vector_37">
<path d="M43.575 64.8346L38.665 64.8096C39.275 66.0546 39.17 67.7646 38.565 69.1496L43.57 69.1696C44.77 69.1696 45.74 68.1996 45.74 66.9996C45.74 65.7996 44.77 64.8296 43.57 64.8296L43.575 64.8346Z" fill="#00EBA6"></path>
<path d="M42.96 75.9698H38.355C39.91 79.3948 40.475 80.1548 41.13 83.4448C42.26 89.1048 41.185 97.6048 39.22 103.115H42.89C44.84 93.7048 52.075 81.9848 42.96 75.9698Z" fill="#00EBA6"></path>
<path d="M43.0051 69.1648L38.4451 69.2248C38.6801 71.5648 38.6451 73.7398 38.5451 76.0048L43.0051 75.9798V69.1598V69.1648Z" fill="#00EBA6"></path>
</g>
<g id="Vector_38">
<path d="M43.1447 48.7048C43.1447 48.7048 40.6147 53.9748 43.4047 55.5298C43.6997 55.6948 43.9447 55.7548 44.1447 55.7448C43.5997 53.4548 43.4397 51.6698 43.7297 49.4598C43.5397 49.1348 43.3447 48.8698 43.1447 48.7098V48.7048Z" fill="#00EBA6"></path>
<path d="M36.4047 46.46C36.0747 45.975 35.7397 45.6 35.4147 45.385C35.4147 45.385 32.8697 52.7 36.7297 54.345C37.0247 54.47 37.2797 54.525 37.4947 54.535C36.5597 51.81 36.1047 49.215 36.3997 46.46H36.4047Z" fill="#00EBA6"></path>
<path d="M40.5848 60.3999C39.7948 61.7499 38.8598 62.9349 38.1148 62.6449C37.7798 62.5149 37.7148 62.1899 37.8348 61.7649C38.7948 60.9949 39.5598 60.3949 40.5848 60.3999Z" fill="#00EBA6"></path>
<path d="M44.8197 58.8798C44.8897 58.9298 44.9697 58.9748 45.0597 59.0198C48.3347 60.6448 53.2647 54.3698 53.2647 54.3698C52.4297 54.1498 50.6997 54.4898 48.9797 55.0848C47.4097 55.9848 46.0597 57.2898 44.8147 58.8848L44.8197 58.8798Z" fill="#00EBA6"></path>
<path d="M45.7198 52.5299C45.8148 52.7949 46.0798 53.0149 46.5648 53.1599C48.9398 53.8499 50.9598 50.9399 51.9548 49.1299C50.1698 50.9349 48.0548 52.1749 45.7148 52.5349L45.7198 52.5299Z" fill="#00EBA6"></path>
<path d="M47.2998 45.205C47.4198 45.31 47.5798 45.405 47.7898 45.49C50.1998 46.465 53.1398 43.39 54.6348 41.535C51.7448 41.105 48.9948 42.795 47.2998 45.205Z" fill="#00EBA6"></path>
<path d="M47.4948 38.9149C47.4248 39.4099 47.6698 39.7549 48.3998 39.8249C50.6098 40.0349 52.1648 37.0299 52.9298 35.0999C51.3098 36.6649 49.7648 38.1599 47.4998 38.9149H47.4948Z" fill="#00EBA6"></path>
<path d="M45.0847 24.355C46.1247 27.45 47.3447 30.78 47.0547 33.975C50.2247 35.315 47.5547 25.19 45.0847 24.355Z" fill="#00EBA6"></path>
<path d="M18.1248 46.1899C18.3148 46.5949 18.1898 46.9549 17.5748 47.2049C15.7098 47.9699 13.5848 45.8099 12.4248 44.3599C14.2348 45.2699 15.9648 46.1399 18.1248 46.1899Z" fill="#00EBA6"></path>
<path d="M30.0949 63.795C29.9999 63.83 29.8999 63.86 29.7849 63.89C25.6149 64.825 20.8599 55.845 20.8599 55.845C21.8849 55.845 23.8849 56.77 25.8199 58C27.5249 59.55 28.8999 61.52 30.0949 63.795Z" fill="#00EBA6"></path>
<path d="M31.4598 48.985C31.3548 49.215 31.0998 49.39 30.6498 49.48C28.4548 49.925 26.8398 47.185 26.0698 45.5C27.5548 47.24 29.3748 48.495 31.4598 48.985Z" fill="#00EBA6"></path>
<path d="M32.0197 39.8998C31.8247 39.8998 31.5997 39.8448 31.3397 39.8048C28.0997 39.3098 28.1397 33.6648 28.7497 31.2148C30.0397 36.0098 32.5397 37.1248 32.0197 39.8998Z" fill="#00EBA6"></path>
</g>
<g id="Group_6">
<path id="Vector_39" d="M9.06494 48.2146C9.06494 48.2146 16.5199 49.8296 20.5849 47.8596C24.0849 46.1596 10.8099 43.9496 9.06494 48.2146Z" fill="#00EBA6"></path>
<path id="Vector_40" d="M15.9347 35.1846C15.9347 35.1846 21.1097 41.2296 21.6997 46.0246C22.2047 50.1546 13.5047 39.0346 15.9347 35.1846Z" fill="#2BF5BA"></path>
<path id="Vector_41" d="M9.625 45.4795C9.625 45.4795 16.64 48.7995 21.085 47.8695C24.91 47.0695 12.275 41.7945 9.625 45.4795Z" fill="#2BF5BA"></path>
<path id="Vector_42" d="M14.175 36.9595C14.175 36.9595 20.455 41.7045 22.06 46.2995C23.44 50.2595 12.675 41.3395 14.175 36.9595Z" fill="#00EBA6"></path>
<path id="Vector_43" d="M10.4849 42.8793C10.4849 42.8793 16.7599 47.6293 21.3499 47.7143C25.2999 47.7893 13.8499 39.9093 10.4849 42.8793Z" fill="#00EBA6"></path>
<path id="Vector_44" d="M12.4952 38.9697C12.4952 38.9697 19.5152 42.2797 21.9852 46.4797C24.1152 50.0947 11.9302 43.6397 12.4952 38.9697Z" fill="#2BF5BA"></path>
</g>
<g id="Group_7">
<path id="Vector_45" d="M20.6953 21.0098C20.6953 21.0098 26.6553 27.0948 31.6603 27.7548C35.9703 28.3198 24.9403 18.0998 20.6953 21.0098Z" fill="#00EBA6"></path>
<path id="Vector_46" d="M35.1105 13.0698C35.1105 13.0698 36.2255 21.8898 33.8305 26.7198C31.7655 30.8798 30.4755 15.1698 35.1105 13.0698Z" fill="#2BF5BA"></path>
<path id="Vector_47" d="M22.9053 18.7998C22.9053 18.7998 27.4103 26.2048 32.1253 28.0648C36.1853 29.6698 27.6353 16.9848 22.9053 18.7998Z" fill="#2BF5BA"></path>
<path id="Vector_48" d="M32.3805 13.6499C32.3805 13.6499 35.3255 21.9349 33.9955 27.2049C32.8505 31.7449 28.2855 16.8149 32.3805 13.6499Z" fill="#00EBA6"></path>
<path id="Vector_49" d="M25.3003 16.905C25.3003 16.905 28.2353 25.195 32.4653 28.09C36.1053 30.585 30.2653 16.2 25.3003 16.905Z" fill="#00EBA6"></path>
<path id="Vector_50" d="M29.5751 14.4897C29.5751 14.4897 34.0901 21.8897 33.8151 27.3247C33.5801 32.0047 26.1801 18.5047 29.5751 14.4897Z" fill="#2BF5BA"></path>
</g>
<g id="Group_8">
<path id="Vector_51" d="M50.1698 38.6747C50.1698 38.6747 47.0398 44.0397 43.5348 45.4447C40.5148 46.6547 46.5048 37.4547 50.1698 38.6747Z" fill="#00EBA6"></path>
<path id="Vector_52" d="M38.125 35.8848C38.125 35.8848 39.06 42.2298 41.76 45.1398C44.085 47.6448 41.91 36.4698 38.125 35.8848Z" fill="#2BF5BA"></path>
<path id="Vector_53" d="M48.13 37.5545C48.13 37.5545 46.325 43.5595 43.265 45.7495C40.63 47.6345 44.33 37.1945 48.13 37.5545Z" fill="#2BF5BA"></path>
<path id="Vector_54" d="M40.2251 35.7695C40.2251 35.7695 39.7251 42.0895 41.7351 45.5045C43.4651 48.4445 43.8251 37.1945 40.2251 35.7695Z" fill="#00EBA6"></path>
<path id="Vector_55" d="M46.01 36.6895C46.01 36.6895 45.515 43.0095 43.02 45.8295C40.87 48.2545 42.265 37.1445 46.01 36.6895Z" fill="#00EBA6"></path>
<path id="Vector_56" d="M42.4252 35.8247C42.4252 35.8247 40.6102 41.8297 41.8852 45.5597C42.9802 48.7697 45.6852 37.9747 42.4252 35.8247Z" fill="#2BF5BA"></path>
</g>
<g id="Vector_57">
<path d="M93.15 48.0049H81.56C81.0436 48.0049 80.625 48.4235 80.625 48.9399V55.0199C80.625 55.5363 81.0436 55.9549 81.56 55.9549H93.15C93.6664 55.9549 94.085 55.5363 94.085 55.0199V48.9399C94.085 48.4235 93.6664 48.0049 93.15 48.0049Z" fill="white"></path>
<path d="M94.085 48.895C94.085 48.4 93.705 48 93.24 48H81.47C81.005 48 80.625 48.4 80.625 48.895V49.215L87.095 54.755C87.26 54.895 87.505 54.895 87.67 54.755L94.09 49.265V48.89L94.085 48.895Z" fill="white"></path>
</g>
<g id="Vector_58">
<path d="M93.15 56.1899H81.565C80.92 56.1899 80.395 55.6649 80.395 55.0199V48.9449C80.395 48.2999 80.92 47.7749 81.565 47.7749H93.15C93.795 47.7749 94.32 48.2999 94.32 48.9449V55.0199C94.32 55.6649 93.795 56.1899 93.15 56.1899ZM81.56 48.2399C81.17 48.2399 80.855 48.5549 80.855 48.9449V55.0199C80.855 55.4099 81.17 55.7249 81.56 55.7249H93.145C93.535 55.7249 93.85 55.4099 93.85 55.0199V48.9449C93.85 48.5549 93.535 48.2399 93.145 48.2399H81.56Z" fill="#07064E"></path>
<path d="M87.3801 55.0999C87.2251 55.0999 87.0651 55.0449 86.9401 54.9349L80.4851 49.4049C80.3851 49.3199 80.3751 49.1699 80.4601 49.0749C80.5451 48.9749 80.6951 48.9649 80.7901 49.0499L87.2451 54.5799C87.3251 54.6449 87.4401 54.6449 87.5151 54.5799L93.9201 49.0999C94.0201 49.0149 94.1651 49.0249 94.2501 49.1249C94.3351 49.2249 94.3251 49.3699 94.2251 49.4549L87.8201 54.9349C87.6901 55.0449 87.5351 55.0999 87.3801 55.0999Z" fill="#07064E"></path>
</g>
<g id="Vector_59">
<path d="M85.8501 52.9048H77.4001C76.8837 52.9048 76.4651 53.3234 76.4651 53.8398V58.0648C76.4651 58.5812 76.8837 58.9998 77.4001 58.9998H85.8501C86.3665 58.9998 86.7851 58.5812 86.7851 58.0648V53.8398C86.7851 53.3234 86.3665 52.9048 85.8501 52.9048Z" fill="white"></path>
<path d="M86.785 53.5898C86.785 53.2098 86.495 52.9048 86.135 52.9048H77.11C76.75 52.9048 76.46 53.2098 76.46 53.5898V53.8398L81.42 58.0898C81.545 58.1998 81.735 58.1998 81.86 58.0898L86.78 53.8848V53.5948L86.785 53.5898Z" fill="white"></path>
</g>
<g id="Vector_60">
<path d="M85.8503 59.2348H77.4053C76.7603 59.2348 76.2354 58.7098 76.2354 58.0648V53.8448C76.2354 53.1998 76.7603 52.6748 77.4053 52.6748H85.8503C86.4953 52.6748 87.0203 53.1998 87.0203 53.8448V58.0648C87.0203 58.7098 86.4953 59.2348 85.8503 59.2348ZM77.4004 53.1398C77.0104 53.1398 76.6954 53.4548 76.6954 53.8448V58.0648C76.6954 58.4548 77.0104 58.7698 77.4004 58.7698H85.8454C86.2354 58.7698 86.5504 58.4548 86.5504 58.0648V53.8448C86.5504 53.4548 86.2354 53.1398 85.8454 53.1398H77.4004Z" fill="#07064E"></path>
<path d="M81.6453 58.4048C81.5103 58.4048 81.3803 58.3598 81.2703 58.2648L76.3203 54.0248C76.2203 53.9398 76.2103 53.7898 76.2953 53.6948C76.3803 53.5948 76.5303 53.5848 76.6253 53.6698L81.5753 57.9098C81.6153 57.9448 81.6703 57.9448 81.7103 57.9098L86.6203 53.7098C86.7203 53.6248 86.8653 53.6348 86.9503 53.7348C87.0353 53.8348 87.0253 53.9798 86.9253 54.0648L82.0153 58.2648C81.9053 58.3598 81.7753 58.4048 81.6403 58.4048H81.6453Z" fill="#07064E"></path>
</g>
<g id="Vector_61">
<path d="M70.9551 53.975H74.5201C74.6101 53.975 74.6801 54.045 74.6801 54.135C74.6801 54.225 74.6101 54.295 74.5201 54.295H70.9551C70.8651 54.295 70.7951 54.225 70.7951 54.135C70.7951 54.045 70.8651 53.975 70.9551 53.975Z" fill="#07064E"></path>
<path d="M70.5501 51.6602H74.1151C74.2051 51.6602 74.2751 51.7302 74.2751 51.8202C74.2751 51.9102 74.2051 51.9802 74.1151 51.9802H70.5501C70.4601 51.9802 70.3901 51.9102 70.3901 51.8202C70.3901 51.7302 70.4601 51.6602 70.5501 51.6602Z" fill="#07064E"></path>
<path d="M72.7401 49.6802H76.3051C76.3951 49.6802 76.4651 49.7502 76.4651 49.8402C76.4651 49.9302 76.3951 50.0002 76.3051 50.0002H72.7401C72.6501 50.0002 72.5801 49.9302 72.5801 49.8402C72.5801 49.7502 72.6501 49.6802 72.7401 49.6802Z" fill="#07064E"></path>
</g>
<g id="Vector_62">
<path d="M67.4401 53.975H69.0401C69.1301 53.975 69.2001 54.045 69.2001 54.135C69.2001 54.225 69.1301 54.295 69.0401 54.295H67.4401C67.3501 54.295 67.2801 54.225 67.2801 54.135C67.2801 54.045 67.3501 53.975 67.4401 53.975Z" fill="#2BF5BA"></path>
<path d="M67.0301 51.6602H68.6301C68.7201 51.6602 68.7901 51.7302 68.7901 51.8202C68.7901 51.9102 68.7201 51.9802 68.6301 51.9802H67.0301C66.9401 51.9802 66.8701 51.9102 66.8701 51.8202C66.8701 51.7302 66.9401 51.6602 67.0301 51.6602Z" fill="#2BF5BA"></path>
<path d="M69.2201 49.6802H70.8201C70.9101 49.6802 70.9801 49.7502 70.9801 49.8402C70.9801 49.9302 70.9101 50.0002 70.8201 50.0002H69.2201C69.1301 50.0002 69.0601 49.9302 69.0601 49.8402C69.0601 49.7502 69.1301 49.6802 69.2201 49.6802Z" fill="#2BF5BA"></path>
</g>
<g id="Vector_63">
<path d="M143.97 113.09L143.94 114.88L163.365 114.86C163.61 114.86 163.925 114.545 163.925 114.3L163.915 113.47C157.185 112.315 151.015 113.78 143.97 113.095V113.09Z" fill="#00EBA6"></path>
<path d="M139.455 110.215L139.44 111.415L163.865 111.395C164.17 111.395 164.57 111.08 164.57 110.835L164.545 110.2C156.08 109.045 147.91 110.66 139.455 110.215Z" fill="#00EBA6"></path>
<path d="M138.315 111.49L127.59 111.4L127.61 107.865L138.33 107.955L138.315 111.49Z" fill="#00EBA6"></path>
<path d="M142.959 111.437L124.259 111.346L124.242 114.881L142.942 114.972L142.959 111.437Z" fill="#00EBA6"></path>
</g>
<path id="Vector_64" d="M167.425 115.555C167.425 116.14 158.28 116.61 145.355 116.61C132.43 116.61 120.945 116.15 120.945 115.57C120.945 114.99 132.255 114.86 145.18 114.86C158.105 114.86 167.425 114.975 167.425 115.555Z" fill="#2AEDB4"></path>
<path id="Vector_65" d="M184.97 24.6549C184.65 25.6249 184.27 26.5799 183.805 27.5099C178.465 43.1849 168.33 53.6799 155.485 61.6499H184.97V24.6499V24.6549Z" fill="#00EBA6"></path>
<g id="Vector_66">
<path d="M181.98 58.2198H155.15C155.02 58.2198 154.915 58.1148 154.915 57.9848V24.3898C154.915 24.2598 155.02 24.1548 155.15 24.1548H181.98C182.11 24.1548 182.215 24.2598 182.215 24.3898V57.9798C182.215 58.1098 182.11 58.2148 181.98 58.2148V58.2198ZM155.38 57.7498H181.74V24.6248H155.38V57.7498Z" fill="#07064E"></path>
<path d="M163.33 43.025C160.21 43.025 157.67 40.485 157.67 37.36C157.67 34.235 160.21 31.695 163.33 31.695C166.45 31.695 168.995 34.235 168.995 37.36C168.995 40.485 166.455 43.025 163.33 43.025ZM163.33 32.17C160.465 32.17 158.135 34.5 158.135 37.365C158.135 40.23 160.465 42.56 163.33 42.56C166.195 42.56 168.525 40.23 168.525 37.365C168.525 34.5 166.195 32.17 163.33 32.17Z" fill="#07064E"></path>
<path d="M175.085 54.5201C173.145 54.5201 171.57 52.9451 171.57 51.0051C171.57 49.0651 173.145 47.4901 175.085 47.4901C177.025 47.4901 178.6 49.0651 178.6 51.0051C178.6 52.9451 177.025 54.5201 175.085 54.5201ZM175.085 47.9601C173.405 47.9601 172.04 49.3251 172.04 51.0051C172.04 52.6851 173.405 54.0501 175.085 54.0501C176.765 54.0501 178.13 52.6851 178.13 51.0051C178.13 49.3251 176.765 47.9601 175.085 47.9601Z" fill="#07064E"></path>
<path d="M173.355 42.6952C173.225 42.6952 173.12 42.5902 173.12 42.4602V30.1752C173.12 30.0452 173.225 29.9402 173.355 29.9402C173.485 29.9402 173.59 30.0452 173.59 30.1752V42.4602C173.59 42.5902 173.485 42.6952 173.355 42.6952Z" fill="#07064E"></path>
<path d="M176.245 45.5851C176.115 45.5851 176.01 45.4801 176.01 45.3501V33.0651C176.01 32.9351 176.115 32.8301 176.245 32.8301C176.375 32.8301 176.48 32.9351 176.48 33.0651V45.3501C176.48 45.4801 176.375 45.5851 176.245 45.5851Z" fill="#07064E"></path>
<path d="M184.895 61.8752H152.225C152.095 61.8752 151.99 61.7702 151.99 61.6402V20.7402C151.99 20.6102 152.095 20.5052 152.225 20.5052H159.43C160.865 18.7702 164.51 17.6152 168.56 17.6152C172.61 17.6152 176.255 18.7752 177.69 20.5052H184.89C185.02 20.5052 185.125 20.6102 185.125 20.7402V61.6402C185.125 61.7702 185.02 61.8752 184.89 61.8752H184.895ZM152.465 61.4052H184.665V20.9702H177.585C177.515 20.9702 177.445 20.9352 177.4 20.8802C176.1 19.2052 172.55 18.0802 168.565 18.0802C164.58 18.0802 161.03 19.2052 159.73 20.8802C159.685 20.9352 159.615 20.9702 159.545 20.9702H152.465V61.4052Z" fill="#07064E"></path>
</g>
<g id="Group_9">
<path id="Vector_67" d="M106.255 29.7246H131.34C133.22 29.7246 134.75 31.2496 134.75 33.1346V34.2396H102.845V33.1346C102.845 31.2546 104.37 29.7246 106.255 29.7246Z" fill="#07064E"></path>
<path id="Vector_68" d="M127.27 33.0845C127.88 33.0845 128.375 32.5898 128.375 31.9795C128.375 31.3692 127.88 30.8745 127.27 30.8745C126.66 30.8745 126.165 31.3692 126.165 31.9795C126.165 32.5898 126.66 33.0845 127.27 33.0845Z" fill="white"></path>
<path id="Vector_69" d="M130.465 33.0845C131.076 33.0845 131.57 32.5898 131.57 31.9795C131.57 31.3692 131.076 30.8745 130.465 30.8745C129.855 30.8745 129.36 31.3692 129.36 31.9795C129.36 32.5898 129.855 33.0845 130.465 33.0845Z" fill="#2BF5BA"></path>
</g>
<g id="Vector_70">
<path d="M127 39.2348C127.644 39.2348 128.165 38.7132 128.165 38.0698C128.165 37.4264 127.644 36.9048 127 36.9048C126.357 36.9048 125.835 37.4264 125.835 38.0698C125.835 38.7132 126.357 39.2348 127 39.2348Z" fill="#07064E"></path>
<path d="M127 39.7498C128.305 39.7498 129.365 40.8098 129.365 42.1148V42.4148H124.64V42.1148C124.64 40.8098 125.7 39.7498 127.005 39.7498H127Z" fill="#07064E"></path>
</g>
<path id="Vector_71" d="M157.785 94.4046C157.055 92.5596 154.69 91.9396 153.355 92.6646C153.3 92.7546 152.935 93.2846 152.885 93.3796C152.695 94.5146 152.88 95.2596 152.88 95.2596C152.88 95.2596 153.255 94.3446 154.175 93.8846C155.265 93.3346 158.085 93.8146 157.895 97.2396C157.675 99.7746 156.89 100.925 156.17 101.595C154.475 103.175 152.695 101.525 152.695 101.525V102.68C152.695 102.845 153.92 103.915 154.85 103.77C156.73 103.475 157.305 102.265 157.765 101.61C157.99 101.29 159.055 97.6496 157.79 94.4096L157.785 94.4046Z" fill="#00EBA6"></path>
<path id="Vector_72" d="M139.38 106.285C139.715 107.205 140.59 107.865 141.62 107.865H150.295C151.615 107.865 152.69 106.795 152.69 105.47V93.2847C151.23 99.9747 146.155 106.18 139.38 106.285Z" fill="#00EBA6"></path>
<path id="Vector_73" d="M187.035 96.8599L159.385 96.8899C159.625 94.0899 158.45 91.8599 156.43 91.3799C155.05 91.0549 153.755 91.6199 152.93 92.8449V89.0199C152.93 88.8899 152.825 88.7849 152.695 88.7849H139.23C139.1 88.7849 138.995 88.8899 138.995 89.0199V96.9099L120.305 96.9299C119.72 95.8549 118.585 95.1249 117.28 95.1249H107.815V81.6799H137.945C141.18 81.6799 143.81 79.0499 143.81 75.8149V31.6299C143.81 28.3949 141.18 25.7649 137.945 25.7649H62.4201C59.1851 25.7649 56.5551 28.3949 56.5551 31.6299V75.8149C56.5551 79.0499 59.1851 81.6799 62.4201 81.6799H92.5501V95.1249H83.0851C81.7601 95.1249 80.6151 95.8749 80.0401 96.9749L44.8401 97.0149C44.9301 96.7349 45.0201 96.4549 45.1101 96.1749C47.5851 88.4999 50.1351 80.5699 43.2401 75.8749V69.4049H43.5751C44.9001 69.4049 45.9801 68.3249 45.9801 66.9999C45.9801 65.6749 44.9001 64.5949 43.5751 64.5949H42.3101C43.1001 62.6999 43.7851 60.7499 44.3551 58.7699C44.4851 58.9249 44.6651 59.0799 44.9501 59.2199C45.3601 59.4249 45.7951 59.5149 46.2351 59.5149C49.4651 59.5149 53.2651 54.7349 53.4451 54.5049C53.4951 54.4449 53.5101 54.3599 53.4851 54.2849C53.4601 54.2099 53.4001 54.1549 53.3201 54.1349C51.6151 53.6899 46.6701 55.3449 44.8301 56.9799C44.8701 56.8099 44.9201 56.6449 44.9601 56.4749C45.2451 55.2999 45.4851 54.1199 45.7201 52.9599C45.8801 53.1199 46.1251 53.2699 46.4951 53.3799C46.7651 53.4599 47.0301 53.4949 47.2901 53.4949C50.4451 53.4949 52.7351 48.1049 52.8401 47.8599C52.8701 47.7899 52.8651 47.7149 52.8251 47.6499C52.7851 47.5849 52.7201 47.5449 52.6451 47.5349C51.1551 47.3999 47.6351 49.2499 46.1351 50.9199C46.5001 49.0649 46.8451 47.1749 47.0451 45.2749C47.1851 45.4299 47.3851 45.5749 47.6951 45.6999C48.0451 45.8399 48.4001 45.9049 48.7601 45.9049C52.0501 45.9049 55.6401 40.5949 55.8101 40.3449C55.8551 40.2799 55.8601 40.1949 55.8301 40.1249C55.8001 40.0499 55.7351 39.9999 55.6551 39.9849C53.8401 39.6549 48.6301 41.9099 47.1751 43.7399C47.1901 43.4849 47.2101 43.2299 47.2201 42.9749C48.2901 41.8449 49.1601 40.6449 49.7151 39.8199C52.2551 38.6649 53.6251 33.8249 53.6901 33.5899C53.7101 33.5149 53.6901 33.4349 53.6451 33.3749C53.5951 33.3149 53.5201 33.2849 53.4401 33.2949C52.1151 33.4349 49.4101 35.5249 48.0551 37.3249C48.0051 37.3249 47.9551 37.3249 47.9101 37.3249C48.0301 36.2799 48.0551 35.2249 48.0651 34.1949C48.0951 34.1749 48.1301 34.1649 48.1601 34.1449C48.8801 33.5999 48.8001 32.0699 48.6051 30.8799C48.2001 28.3999 46.7751 24.6749 45.1551 24.1299C45.0901 24.1099 45.0201 24.1149 44.9601 24.1499C44.9001 24.1849 44.8601 24.2449 44.8501 24.3099C44.7901 24.6449 43.4751 32.5699 46.8851 34.1549C47.1401 34.2749 47.3751 34.3299 47.5851 34.3299C47.5851 34.3299 47.5901 34.3299 47.5951 34.3299C47.5851 35.3349 47.5651 36.3649 47.4401 37.3749C47.0001 37.4699 46.5501 37.6699 46.0951 38.0049C46.2051 37.2299 46.2451 36.7299 46.2501 36.7049C46.2551 36.6349 46.2301 36.5649 46.1801 36.5199C46.1301 36.4699 46.0601 36.4499 45.9901 36.4549C45.2501 36.5449 44.5601 37.0049 43.9401 37.8249C43.6651 36.7849 43.2051 36.0499 42.5651 35.6249C42.5051 35.5849 42.4251 35.5749 42.3551 35.5999C42.2851 35.6249 42.2301 35.6799 42.2101 35.7549C42.2051 35.7799 42.0601 36.2549 41.8801 37.0199C41.4401 36.2799 40.9151 35.7899 40.3151 35.5499C40.2451 35.5199 40.1651 35.5299 40.1051 35.5699C40.0401 35.6099 40.0001 35.6749 39.9951 35.7499C39.9951 35.7699 39.9651 36.1149 39.9501 36.6899C39.3751 36.0949 38.7751 35.7449 38.1651 35.6499C38.0901 35.6399 38.0151 35.6649 37.9651 35.7149C37.9101 35.7649 37.8851 35.8399 37.9001 35.9149C37.9351 36.1449 38.7501 41.5299 41.0601 44.6399C41.2101 45.0049 41.3701 45.3249 41.5451 45.6199C41.6551 45.8099 41.7651 45.9499 41.8801 46.0499C41.9401 46.1449 42.0101 46.2199 42.0801 46.2699C41.6551 47.3949 41.1251 48.2799 40.5651 49.2099C39.9751 50.1849 39.3601 51.2149 38.8301 52.6049C38.7101 50.0999 36.9951 46.1299 35.5601 45.1799C35.5001 45.1399 35.4251 45.1299 35.3551 45.1549C35.2851 45.1799 35.2301 45.2299 35.2101 45.2999C35.1051 45.6049 32.6401 52.8399 36.6551 54.5499C37.0151 54.7049 37.3101 54.7649 37.5601 54.7649C37.8401 54.7649 38.0551 54.6849 38.2201 54.5749C37.6501 56.8449 37.3051 59.9549 37.4301 64.5949H34.3901C30.5451 55.5399 31.8201 48.5949 33.0551 41.8799C33.8951 37.3049 34.6901 32.9749 33.6701 28.4199C33.8051 28.3249 33.9101 28.1599 33.9801 27.9299C34.0851 27.7649 34.1751 27.5449 34.2451 27.2549C34.3601 26.8049 34.4451 26.3049 34.5051 25.7749C36.3201 20.8249 35.4051 13.3499 35.3651 13.0299C35.3551 12.9549 35.3101 12.8899 35.2451 12.8549C35.1801 12.8199 35.1001 12.8149 35.0351 12.8449C34.2601 13.1949 33.6001 13.9149 33.0751 14.9899C32.8151 14.1099 32.6201 13.5649 32.6201 13.5599C32.5951 13.4899 32.5351 13.4349 32.4651 13.4149C32.3951 13.3949 32.3151 13.4099 32.2551 13.4549C31.5501 13.9999 31.0551 14.8899 30.7701 16.1099C30.2151 15.0399 29.8051 14.3649 29.8001 14.3549C29.7601 14.2899 29.6951 14.2499 29.6201 14.2449C29.5351 14.2449 29.4701 14.2699 29.4201 14.3299C28.7451 15.1299 28.4301 16.3149 28.4851 17.8599C27.3601 16.9249 26.2851 16.5199 25.2901 16.6599C25.2201 16.6699 25.1601 16.7099 25.1201 16.7699C25.0851 16.8299 25.0751 16.9049 25.1001 16.9699C25.1001 16.9799 25.3701 17.7299 25.8501 18.8399C24.7101 18.3299 23.7001 18.2399 22.8401 18.5699C22.7751 18.5949 22.7251 18.6449 22.7001 18.7149C22.6801 18.7799 22.6851 18.8549 22.7201 18.9149C22.7201 18.9199 23.0751 19.4949 23.6701 20.3499C22.4101 20.1099 21.3701 20.2649 20.5801 20.8049C20.5251 20.8449 20.4851 20.9049 20.4801 20.9749C20.4751 21.0449 20.5001 21.1149 20.5451 21.1599C20.7801 21.3999 26.3201 27.0049 31.2551 27.9049C31.5351 28.0499 31.8001 28.1699 32.0551 28.2699C32.2501 28.3449 33.0201 28.5949 33.1901 28.5949C33.2001 28.5949 33.2101 28.5949 33.2201 28.5949C33.9051 31.7099 33.7251 34.7349 33.2701 37.8149C32.8051 35.3699 30.4851 31.7349 28.8651 30.9949C28.8001 30.9649 28.7251 30.9649 28.6651 30.9949C28.6001 31.0249 28.5551 31.0849 28.5401 31.1549C28.4701 31.4699 26.9101 38.8849 31.3001 40.0199C31.5801 40.0949 31.8201 40.1249 32.0301 40.1249C32.4651 40.1249 32.7551 39.9849 32.9501 39.7949C32.8351 40.4549 32.7151 41.1199 32.5901 41.7899C32.2201 43.7949 31.8401 45.8849 31.6001 48.0849C30.7901 46.4099 27.1451 43.9999 25.5901 43.9999H25.5751C25.5001 43.9999 25.4301 44.0349 25.3851 44.0999C25.3401 44.1599 25.3301 44.2399 25.3551 44.3099C25.4351 44.5449 27.1951 49.7549 30.1851 49.7549C30.3551 49.7549 30.5301 49.7399 30.7101 49.6999C31.0751 49.6249 31.3201 49.4999 31.4801 49.3549C31.1251 53.8749 31.4901 58.8699 33.8801 64.5899H31.3351C31.5351 55.2599 26.3951 48.2749 22.4801 47.1999C22.4851 47.0949 22.4701 46.9849 22.4301 46.8599C22.4301 46.6849 22.3851 46.4749 22.2951 46.2199C22.1601 45.8299 21.9801 45.4149 21.7601 44.9849C20.6801 40.3849 16.3101 35.2399 16.1251 35.0249C16.0751 34.9699 16.0051 34.9399 15.9301 34.9449C15.8551 34.9499 15.7901 34.9899 15.7501 35.0549C15.3501 35.6899 15.2051 36.5399 15.3301 37.5749C14.7301 37.0699 14.3401 36.7749 14.3351 36.7699C14.2751 36.7249 14.1951 36.7099 14.1251 36.7349C14.0551 36.7549 13.9951 36.8099 13.9701 36.8849C13.7151 37.6299 13.7751 38.5249 14.1451 39.5599C13.2301 39.0549 12.6201 38.7599 12.6101 38.7599C12.5401 38.7299 12.4651 38.7299 12.3951 38.7649C12.3301 38.7999 12.2851 38.8699 12.2751 38.9399C12.1651 39.8649 12.5051 40.8999 13.2851 42.0099C12.0001 41.8749 11.0101 42.1049 10.3401 42.6999C10.2851 42.7449 10.2601 42.8149 10.2601 42.8849C10.2601 42.9549 10.2951 43.0199 10.3551 43.0649C10.3601 43.0649 10.9101 43.4849 11.7851 44.0599C10.7051 44.2499 9.92006 44.6799 9.44506 45.3399C9.40506 45.3949 9.39006 45.4699 9.41006 45.5349C9.42506 45.5999 9.47506 45.6599 9.53506 45.6899C9.54006 45.6899 10.0651 45.9399 10.9001 46.2749C9.86506 46.7199 9.17506 47.3399 8.85506 48.1249C8.83006 48.1899 8.83006 48.2599 8.86506 48.3249C8.90006 48.3899 8.95506 48.4299 9.02506 48.4449C9.21006 48.4849 12.0001 49.0799 15.0801 49.0799C16.9051 49.0799 18.8251 48.8699 20.3701 48.2199C20.6551 48.1899 20.9101 48.1499 21.1451 48.0999C21.3301 48.0599 21.4851 48.0099 21.6201 47.9399C21.9951 47.9049 22.1951 47.7849 22.3001 47.6499C25.7301 48.5399 30.1701 54.2649 30.7901 62.1849C29.5301 59.6799 23.2001 55.6099 20.8751 55.6099C20.8001 55.6099 20.7101 55.6499 20.6651 55.7249C20.6251 55.7949 20.6201 55.8849 20.6601 55.9549C20.8451 56.3099 25.0701 64.1949 29.1701 64.1949C29.3951 64.1949 29.6201 64.1699 29.8451 64.1199C30.3951 63.9949 30.6951 63.7699 30.8551 63.5299C30.8651 63.8849 30.8601 64.2449 30.8551 64.6049H28.4651C27.1401 64.6049 26.0601 65.6849 26.0601 67.0099C26.0601 68.3349 27.1401 69.4149 28.4651 69.4149H28.8001V75.9099C21.9451 80.6049 24.4901 88.5249 26.9601 96.1849C27.0501 96.4649 27.1401 96.7499 27.2301 97.0299L19.7001 97.0499C19.5701 97.0499 19.4651 97.1549 19.4651 97.2849C19.4651 97.4149 19.5701 97.5199 19.7001 97.5199L27.3751 97.4949C27.9851 99.4149 28.5701 101.35 28.9501 103.165C28.9701 103.275 29.0701 103.35 29.1801 103.35H42.8951C43.0051 103.35 43.1001 103.27 43.1251 103.165C43.5001 101.35 44.0901 99.4099 44.7001 97.4899L79.8501 97.4499C79.7301 97.7999 79.6601 98.1749 79.6601 98.5699C79.6601 100.465 81.2051 102.01 83.1001 102.01H117.29C119.185 102.01 120.73 100.465 120.73 98.5699C120.73 98.1599 120.655 97.7699 120.52 97.4049L139.005 97.3849V105.47C139.005 106.395 139.49 107.205 140.215 107.675H126.375C126.245 107.675 126.14 107.78 126.14 107.91C126.14 108.04 126.245 108.145 126.375 108.145H138.11V108.795H127.79C127.66 108.795 127.555 108.9 127.555 109.03C127.555 109.16 127.66 109.265 127.79 109.265H138.11V109.865H127.79C127.66 109.865 127.555 109.97 127.555 110.1C127.555 110.23 127.66 110.335 127.79 110.335H138.11V111.16H123.025C122.895 111.16 122.79 111.265 122.79 111.395C122.79 111.525 122.895 111.63 123.025 111.63H138.345L139.325 111.635H142.74V112.28H124.44C124.31 112.28 124.205 112.385 124.205 112.515C124.205 112.645 124.31 112.75 124.44 112.75H142.74V113.35H124.44C124.31 113.35 124.205 113.455 124.205 113.585C124.205 113.715 124.31 113.82 124.44 113.82H142.74V114.65H123.025C122.895 114.65 122.79 114.755 122.79 114.885C122.79 115.015 122.895 115.12 123.025 115.12H163.23C163.73 115.12 164.135 114.715 164.135 114.215V112.07C164.135 111.91 164.09 111.76 164.015 111.63C164.47 111.58 164.825 111.2 164.825 110.735V108.59C164.825 108.09 164.42 107.685 163.92 107.685H151.73C152.455 107.215 152.94 106.405 152.94 105.48V103.245C153.445 103.625 154.25 104.01 154.86 104.01C156.99 104.01 158.74 101.435 159.33 97.4549C159.33 97.4249 159.335 97.3999 159.34 97.3699L187.05 97.3399C187.18 97.3399 187.285 97.2349 187.285 97.1049C187.285 96.9749 187.18 96.8699 187.05 96.8699L187.035 96.8599ZM47.2851 44.4849C47.7351 42.9349 53.0451 40.4699 55.1851 40.4249C54.2351 41.7349 50.6251 46.3799 47.8751 45.2699C47.1451 44.9749 47.2451 44.6199 47.2851 44.4849ZM47.0851 33.7349C44.3501 32.4649 45.0601 26.1749 45.2701 24.7049C46.4701 25.4499 47.7401 28.4799 48.1501 30.9649C48.3901 32.4199 48.2901 33.4699 47.8851 33.7799C47.7051 33.9149 47.4401 33.9049 47.0901 33.7399L47.0851 33.7349ZM31.4251 27.4849C31.4251 27.4849 31.3801 27.4649 31.3601 27.4649C27.0901 26.7049 22.1501 22.0949 21.0751 21.0549C21.8451 20.6449 22.8751 20.6149 24.1401 20.9549C24.2351 20.9799 24.3401 20.9449 24.3951 20.8599C24.4501 20.7799 24.4501 20.6699 24.3951 20.5899C23.8651 19.8499 23.4751 19.2549 23.2701 18.9349C24.0901 18.7299 25.0701 18.9399 26.2001 19.5599C26.2901 19.6099 26.4001 19.5949 26.4701 19.5249C26.5451 19.4549 26.5651 19.3499 26.5251 19.2549C26.0901 18.2899 25.7851 17.5099 25.6351 17.1149C26.5301 17.0999 27.5201 17.5999 28.5801 18.5949C28.6501 18.6599 28.7551 18.6799 28.8451 18.6349C28.9301 18.5949 28.9851 18.4999 28.9751 18.4049C28.8401 16.8899 29.0351 15.7199 29.5601 14.9199C29.7801 15.2999 30.1801 16.0199 30.6451 16.9449C30.6901 17.0349 30.7901 17.0849 30.8901 17.0699C30.9901 17.0549 31.0701 16.9749 31.0851 16.8749C31.2851 15.5999 31.6801 14.6549 32.2701 14.0599C32.3851 14.4049 32.5701 14.9949 32.7851 15.7499C32.8101 15.8449 32.9001 15.9149 33.0001 15.9199C33.1151 15.9199 33.1951 15.8649 33.2301 15.7749C33.6801 14.6449 34.2501 13.8649 34.9201 13.4449C35.0801 14.9849 35.6101 21.3949 34.0401 25.6549C34.0401 25.6649 34.0351 25.6799 34.0301 25.6899C32.8801 26.7399 31.7151 27.3499 31.4351 27.4899L31.4251 27.4849ZM32.7951 39.1749C32.7351 39.3499 32.5451 39.8799 31.4001 39.5799C27.9251 38.6799 28.6801 32.9849 28.9251 31.5799C30.7151 32.7349 33.4001 37.4799 32.7951 39.1749ZM30.6001 49.2499C28.1201 49.7499 26.3801 45.7349 25.9101 44.5149C27.6001 44.8449 31.1451 47.3349 31.2851 48.6499C31.3001 48.7749 31.3351 49.1049 30.6051 49.2499H30.6001ZM20.1501 47.7849H20.1701C16.6301 49.2799 10.7801 48.3049 9.41006 48.0449C9.79006 47.3799 10.5301 46.8599 11.6201 46.5049C11.7151 46.4749 11.7801 46.3849 11.7801 46.2899C11.7801 46.1899 11.7201 46.0999 11.6301 46.0649C10.8951 45.7849 10.3251 45.5399 10.0051 45.3949C10.5151 44.8599 11.3401 44.5449 12.4651 44.4499C12.5651 44.4399 12.6501 44.3699 12.6751 44.2749C12.7001 44.1749 12.6601 44.0749 12.5751 44.0199C11.8001 43.5249 11.2001 43.1049 10.8851 42.8799C11.5451 42.4499 12.5101 42.3399 13.7701 42.5599C13.8651 42.5749 13.9601 42.5299 14.0101 42.4499C14.0601 42.3649 14.0551 42.2599 13.9901 42.1849C13.1601 41.1399 12.7351 40.1849 12.7151 39.3449C13.0751 39.5249 13.7101 39.8549 14.4901 40.3049C14.5801 40.3549 14.6901 40.3449 14.7651 40.2749C14.8401 40.2049 14.8651 40.0949 14.8201 40.0049C14.3501 38.9749 14.1801 38.0949 14.3151 37.3699C14.5701 37.5749 14.9901 37.9149 15.5001 38.3549C15.5751 38.4199 15.6851 38.4299 15.7701 38.3799C15.8551 38.3299 15.9001 38.2299 15.8801 38.1299C15.6651 37.0899 15.7001 36.2399 15.9751 35.6049C16.8901 36.7299 20.3901 41.2149 21.2951 45.1299C21.2951 45.1399 21.3051 45.1499 21.3051 45.1599C20.7151 46.8899 20.1451 47.7899 20.1451 47.7899L20.1501 47.7849ZM29.7351 63.6599C26.2651 64.4399 22.2451 57.8099 21.2801 56.1199C23.9051 56.5849 30.3051 60.9199 30.5301 62.8899C30.5501 63.0499 30.5951 63.4699 29.7351 63.6599ZM52.6301 54.5299C52.6951 54.5299 52.7601 54.5299 52.8201 54.5349C51.7751 55.7699 47.8151 60.1199 45.1651 58.8049C44.4551 58.4549 44.5851 58.1099 44.6351 57.9799C45.1851 56.5099 50.3801 54.5299 52.6301 54.5299ZM52.2651 48.0099C51.6701 49.2749 49.3601 53.7249 46.6351 52.9299C45.8201 52.6949 45.8951 52.3049 45.9251 52.1599C46.2051 50.6899 50.3951 48.1899 52.2651 48.0049V48.0099ZM47.2501 42.2499C47.2651 41.7549 47.2801 41.2499 47.3351 40.7599C47.3751 40.4099 47.4351 40.0599 47.5001 39.7099C47.6651 39.8749 47.9351 40.0149 48.3751 40.0599C48.4601 40.0699 48.5401 40.0699 48.6201 40.0699C48.7451 40.0699 48.8701 40.0549 48.9951 40.0399C48.5351 40.6899 47.9401 41.4749 47.2451 42.2499H47.2501ZM49.4051 39.4399C49.0951 39.5649 48.7651 39.6199 48.4201 39.5899C48.0151 39.5499 47.8451 39.4249 47.7701 39.3049C48.5301 38.8949 49.2151 38.7299 49.8051 38.8249C49.7101 38.9749 49.5751 39.1899 49.4051 39.4449V39.4399ZM53.1251 33.8449C52.8051 34.8399 51.8301 37.5249 50.3451 38.8449C50.3551 38.8249 50.3701 38.7999 50.3751 38.7949C50.4101 38.7349 50.4151 38.6599 50.3901 38.5949C50.3651 38.5299 50.3101 38.4799 50.2451 38.4549C49.5851 38.2349 48.8301 38.3099 48.0001 38.6699C48.1701 38.2049 48.2801 37.8649 48.3301 37.7149C49.4451 36.1849 51.8001 34.2799 53.1251 33.8499V33.8449ZM41.4501 44.4049C41.4501 44.4049 41.4501 44.3949 41.4401 44.3899C39.5201 41.8149 38.6351 37.4549 38.4101 36.1999C38.9401 36.3799 39.4651 36.7999 39.9801 37.4549C40.0401 37.5349 40.1451 37.5649 40.2401 37.5299C40.3351 37.4999 40.4001 37.4099 40.4001 37.3099C40.4001 36.8099 40.4201 36.4049 40.4301 36.1399C40.9351 36.4449 41.3751 36.9999 41.7451 37.7999C41.7901 37.8899 41.8851 37.9449 41.9851 37.9349C42.0851 37.9249 42.1651 37.8499 42.1851 37.7499C42.3251 37.0849 42.4601 36.5499 42.5501 36.2299C43.0451 36.6849 43.3901 37.4299 43.5801 38.4499C43.6001 38.5449 43.6701 38.6199 43.7651 38.6349C43.8601 38.6549 43.9551 38.6099 44.0051 38.5299C44.5451 37.6849 45.1251 37.1699 45.7351 36.9899C45.7001 37.3149 45.6351 37.8699 45.5251 38.5499C45.5101 38.6499 45.5551 38.7449 45.6451 38.7949C45.7301 38.8449 45.8401 38.8299 45.9151 38.7599C46.4151 38.2999 46.8951 38.0049 47.3651 37.8699C47.3051 38.2499 47.2301 38.6299 47.1551 38.9999C47.0451 39.5549 46.9251 40.1299 46.8601 40.7049C46.7951 41.2599 46.7801 41.8249 46.7651 42.3699C46.7651 42.5049 46.7551 42.6399 46.7501 42.7749C45.8501 43.7099 44.8251 44.5749 43.7601 45.0799C42.6151 44.6999 41.8301 44.4999 41.4401 44.4049H41.4501ZM38.1701 53.9349C38.0851 54.0899 37.8351 54.5549 36.8251 54.1249C33.6551 52.7749 35.1151 47.1749 35.5401 45.7749C37.0901 47.1999 39.0051 52.3799 38.1701 53.9299V53.9349ZM37.8551 62.7699C37.9151 62.8149 37.9801 62.8449 38.0351 62.8649C38.1401 62.9049 38.2401 62.9249 38.3501 62.9249C40.0251 62.9249 42.0251 58.1699 42.4301 57.1649C42.4601 57.0949 42.4501 57.0099 42.4051 56.9449C42.3601 56.8799 42.2901 56.8399 42.2101 56.8399C41.3151 56.8399 38.7901 59.2949 37.8851 61.0499C38.1001 54.2149 39.6101 51.7049 40.9601 49.4599C41.5401 48.4949 42.0851 47.5849 42.5301 46.4049C42.6701 46.3949 42.8401 46.3299 43.0401 46.1499C43.1601 46.1049 43.2801 46.0349 43.4101 45.9449C43.5751 45.8249 43.7401 45.6949 43.9151 45.5399C44.9201 45.0799 45.8751 44.3249 46.7351 43.4849C46.5651 46.4649 45.9751 49.4349 45.3951 52.3199C45.3201 52.6899 45.2401 53.0749 45.1651 53.4499C44.9951 51.5849 44.1651 49.2299 43.3101 48.5249C43.2551 48.4799 43.1801 48.4599 43.1101 48.4749C43.0401 48.4899 42.9801 48.5399 42.9501 48.6049C42.8451 48.8299 40.3601 54.0949 43.3051 55.7349C43.6301 55.9149 43.9001 55.9849 44.1201 55.9849C44.3501 55.9849 44.5251 55.9049 44.6551 55.8049C44.6101 55.9949 44.5751 56.1849 44.5251 56.3749C43.8501 59.1749 42.9351 61.9449 41.8151 64.6049H37.8901C37.8751 63.9649 37.8651 63.3549 37.8651 62.7699H37.8551ZM38.0351 61.9499C38.2801 60.6349 40.6701 58.1099 41.7951 57.4599C40.7701 59.8699 39.1051 62.7749 38.2051 62.4199C38.1251 62.3899 37.9651 62.3249 38.0351 61.9449V61.9499ZM44.4851 55.3049C44.4101 55.4149 44.2101 55.7099 43.5201 55.3249C41.3301 54.1049 42.7501 50.2449 43.2201 49.1199C44.2401 50.3699 45.2101 54.2449 44.4851 55.3099V55.3049ZM28.4551 68.9399C27.3901 68.9399 26.5201 68.0699 26.5201 67.0049C26.5201 65.9399 27.3901 65.0699 28.4551 65.0699H43.5801C44.6451 65.0699 45.5151 65.9399 45.5151 67.0049C45.5151 68.0699 44.6451 68.9399 43.5801 68.9399H43.0601C43.0601 68.9399 43.0251 68.9299 43.0101 68.9299C42.9951 68.9299 42.9751 68.9349 42.9601 68.9399H29.0751C29.0751 68.9399 29.0401 68.9299 29.0251 68.9299C29.0101 68.9299 28.9901 68.9349 28.9751 68.9399H28.4601H28.4551ZM44.6651 96.0349C43.9301 98.3199 43.1701 100.68 42.6951 102.88H29.3601C28.8901 100.68 28.1301 98.3199 27.3901 96.0349C24.9601 88.4999 22.4551 80.7099 29.1501 76.2199H30.5901C30.7201 76.2199 30.8251 76.1149 30.8251 75.9849C30.8251 75.8549 30.7201 75.7499 30.5901 75.7499H29.2501V69.4099H42.7651V75.7499H33.7651C33.6351 75.7499 33.5301 75.8549 33.5301 75.9849C33.5301 76.1149 33.6351 76.2199 33.7651 76.2199H42.8951C49.5951 80.7099 47.0851 88.4999 44.6551 96.0349H44.6651ZM57.0251 31.6299C57.0251 28.6549 59.4451 26.2349 62.4201 26.2349H137.945C140.92 26.2349 143.34 28.6549 143.34 31.6299V72.5249H57.0251V31.6299ZM62.4201 81.2149C59.4451 81.2149 57.0251 78.7949 57.0251 75.8199V72.9999H143.34V75.8199C143.34 78.7949 140.92 81.2149 137.945 81.2149H62.4201ZM107.345 81.6799V95.1249H93.0201V81.6799H107.345ZM117.275 101.54H83.0851C81.4451 101.54 80.1151 100.205 80.1151 98.5699C80.1151 96.9349 81.4451 95.5999 83.0851 95.5999H117.275C118.915 95.5999 120.245 96.9349 120.245 98.5699C120.245 100.205 118.915 101.54 117.275 101.54ZM139.075 111.155H138.565V108.14H139.075V111.155ZM143.705 114.645H143.195V111.63H143.705V114.645ZM163.91 108.145C164.15 108.145 164.345 108.34 164.345 108.58V110.725C164.345 110.965 164.15 111.16 163.91 111.16H158.035C157.905 111.155 157.8 111.26 157.8 111.39C157.8 111.52 157.905 111.625 158.035 111.625H163.245C163.47 111.645 163.65 111.83 163.65 112.06V114.205C163.65 114.445 163.455 114.64 163.215 114.64H144.17V111.625H152.71C152.84 111.62 152.945 111.515 152.945 111.385C152.945 111.255 152.84 111.15 152.71 111.15H139.54V108.135H163.905L163.91 108.145ZM152.455 93.7899V105.47C152.455 106.66 151.485 107.63 150.295 107.63H141.62C140.43 107.63 139.46 106.66 139.46 105.47V89.2599H152.455V93.7899ZM152.925 95.4849C152.995 95.4699 153.06 95.4249 153.09 95.3549C153.585 94.2499 154.575 93.7099 155.67 93.9499C156.905 94.2199 157.645 95.3599 157.655 96.8949H152.925V95.4849ZM152.925 97.3649H157.64C157.63 97.4999 157.61 97.6399 157.59 97.7799C157.175 100.35 155.95 102.08 154.545 102.08C153.975 102.08 153.225 101.6 153.095 101.455C153.065 101.385 153 101.34 152.925 101.325V97.3649ZM158.85 97.3749C158.305 101.055 156.695 103.53 154.845 103.53C154.1 103.53 153.095 102.835 152.925 102.62V101.925C153.325 102.24 154.055 102.555 154.545 102.555C156.215 102.555 157.595 100.71 158.055 97.8599C158.41 95.6549 157.475 93.8599 155.775 93.4899C154.635 93.2449 153.57 93.7099 152.93 94.6849V93.8399C153.59 92.2649 154.88 91.4999 156.32 91.8399C158.225 92.2949 159.27 94.5699 158.855 97.3749H158.85Z" fill="#07064E"></path>
<path id="Vector_74" d="M147.355 85.6848C147.985 83.5148 149.49 83.3748 149.03 80.9448C148.88 80.1598 147.495 78.3298 147.285 76.7148C146.965 74.2148 148.875 71.3748 147.355 69.7148C145.35 67.5248 142.05 70.5798 141.25 73.4898C140.33 76.8248 144.445 77.6798 143.2 80.8398C142.12 82.9148 141.755 85.0848 143.265 86.6598C144.07 87.4998 144.535 88.1948 145.115 88.8598H145.54H147.52C147.52 88.8598 147.215 88.6998 147.215 88.6948C146.75 87.7348 146.885 87.2848 147.355 85.6798V85.6848Z" fill="#AAFBE3"></path>
<path id="Vector_75" d="M15.805 97.5098H12.7C12.57 97.5098 12.46 97.4048 12.46 97.2698C12.46 97.1348 12.565 97.0298 12.7 97.0298H15.805C15.935 97.0298 16.045 97.1348 16.045 97.2698C16.045 97.4048 15.94 97.5098 15.805 97.5098Z" fill="#2BF5BA"></path>
</g>
</g>
</g>
</g>
<defs>
<clipPath id="clip0_86_1115">
<rect width="200" height="140" fill="white"></rect>
</clipPath>
</defs>
</svg>