<svg width="200" height="140" viewBox="0 0 200 140" fill="none" xmlns="http://www.w3.org/2000/svg">
<g id="illu_spot_manual-voting-start-v3_simple/Default" clip-path="url(#clip0_66_4337)">
<g id="illu_spot_manual-voting-start-v3_simple">
<g id="background">
<path d="M181.545 7.74002C204.425 16.42 189.37 84.63 168.24 106.545C144.895 130.755 120.855 145.44 46.545 125.525C27.565 120.44 22.58 112.53 28.545 83.07C34.935 51.505 5.91498 40.84 6.72998 25.645C8.08498 0.400024 55.02 11.13 91.02 13.74C152.71 18.21 156.615 -1.71998 181.54 7.74002H181.545Z" fill="#2BF5BA"></path>
<path d="M198.029 117.433C199.09 114.871 196.855 111.514 193.038 109.934C189.221 108.353 185.267 109.149 184.207 111.71C183.146 114.272 185.381 117.63 189.198 119.21C193.015 120.79 196.969 119.995 198.029 117.433Z" fill="#2BF5BA"></path>
<path d="M1.81498 64.545C2.53498 61.955 6.80498 60.365 11.355 60.995C15.905 61.625 19.005 64.235 18.285 66.83C17.565 69.42 13.295 71.01 8.74498 70.38C4.19498 69.75 1.09498 67.14 1.81498 64.545Z" fill="#2BF5BA"></path>
<path d="M14.395 74.09C14.155 73.195 15.055 72.045 16.405 71.515C17.755 70.99 19.045 71.285 19.285 72.18C19.525 73.075 18.625 74.225 17.275 74.755C15.925 75.285 14.635 74.985 14.395 74.09Z" fill="#2BF5BA"></path>
<path d="M169.184 129.563C170.493 128.584 170.93 126.956 170.161 125.928C169.392 124.9 167.707 124.86 166.398 125.84C165.089 126.819 164.652 128.446 165.421 129.474C166.19 130.503 167.875 130.542 169.184 129.563Z" fill="#2BF5BA"></path>
</g>
<g id="illu_spot_manual-voting-start-v3_simple_2">
<g id="stroke">
<path id="Vector" d="M115.225 42.51H82.82C80.47 42.51 78.57 44.415 78.57 46.76V117.495C78.57 119.845 80.475 121.745 82.82 121.745H115.225C117.575 121.745 119.475 119.84 119.475 117.495V46.765C119.475 44.415 117.57 42.515 115.225 42.515V42.51ZM116.475 106.345C116.475 108.695 114.57 110.595 112.225 110.595H85.82C83.47 110.595 81.57 108.69 81.57 106.345V54.39C81.57 52.04 83.475 50.14 85.82 50.14H112.225C114.575 50.14 116.475 52.045 116.475 54.39V106.345Z" fill="#2AEDB4"></path>
<path id="Vector_2" d="M115.225 40.385H82.82C80.47 40.385 78.57 42.29 78.57 44.635V115.37C78.57 117.72 80.475 119.62 82.82 119.62H115.225C117.575 119.62 119.475 117.715 119.475 115.37V44.635C119.475 42.285 117.57 40.385 115.225 40.385ZM116.475 104.22C116.475 106.57 114.57 108.47 112.225 108.47H85.82C83.47 108.47 81.57 106.565 81.57 104.22V52.265C81.57 49.915 83.475 48.015 85.82 48.015H112.225C114.575 48.015 116.475 49.92 116.475 52.265V104.22Z" fill="#EDEDED"></path>
<path id="Vector_3" d="M112.23 48.015H85.82C83.4728 48.015 81.57 49.9178 81.57 52.265V104.22C81.57 106.567 83.4728 108.47 85.82 108.47H112.23C114.577 108.47 116.48 106.567 116.48 104.22V52.265C116.48 49.9178 114.577 48.015 112.23 48.015Z" fill="white"></path>
<path id="Vector_4" d="M99.025 117.345C100.701 117.345 102.06 115.986 102.06 114.31C102.06 112.634 100.701 111.275 99.025 111.275C97.3488 111.275 95.99 112.634 95.99 114.31C95.99 115.986 97.3488 117.345 99.025 117.345Z" fill="white"></path>
<path id="Vector_5" d="M112.225 108.72H85.82C83.34 108.72 81.32 106.7 81.32 104.22V52.265C81.32 49.785 83.34 47.765 85.82 47.765H112.225C114.705 47.765 116.725 49.785 116.725 52.265V104.22C116.725 106.7 114.705 108.72 112.225 108.72ZM85.82 48.265C83.615 48.265 81.82 50.06 81.82 52.265V104.22C81.82 106.425 83.615 108.22 85.82 108.22H112.225C114.43 108.22 116.225 106.425 116.225 104.22V52.265C116.225 50.06 114.43 48.265 112.225 48.265H85.82Z" fill="#07064E"></path>
<path id="Vector_6" d="M99.025 117.59C97.41 117.59 96.045 116.435 95.785 114.84C95.765 114.705 95.855 114.575 95.99 114.555C96.13 114.53 96.255 114.625 96.275 114.76C96.495 116.11 97.65 117.09 99.02 117.09C100.555 117.09 101.8 115.84 101.8 114.305C101.8 112.77 100.55 111.525 99.02 111.525C98.065 111.525 97.19 112.005 96.675 112.81C96.6 112.925 96.445 112.96 96.33 112.885C96.215 112.81 96.18 112.655 96.255 112.54C96.86 111.59 97.895 111.025 99.02 111.025C100.83 111.025 102.3 112.495 102.3 114.305C102.3 116.115 100.83 117.59 99.02 117.59H99.025Z" fill="#07064E"></path>
<g id="Group">
<path id="Vector_7" d="M105.49 44.8151H102.24C102.1 44.8151 101.99 44.7001 101.99 44.5601C101.99 44.4201 102.1 44.3101 102.24 44.3101H105.49C105.63 44.3101 105.74 44.4251 105.74 44.5651C105.74 44.7051 105.63 44.8151 105.49 44.8151Z" fill="white"></path>
<path id="Vector_8" d="M100.115 44.8151H92.56C92.42 44.8151 92.31 44.7051 92.31 44.5651C92.31 44.4251 92.42 44.3151 92.56 44.3151H100.115C100.255 44.3151 100.365 44.4251 100.365 44.5651C100.365 44.7051 100.255 44.8151 100.115 44.8151Z" fill="#07064E"></path>
</g>
<path id="Vector_9" d="M100.065 73.635H86.915C86.1335 73.635 85.5 74.2685 85.5 75.05V102.61C85.5 103.391 86.1335 104.025 86.915 104.025H100.065C100.846 104.025 101.48 103.391 101.48 102.61V75.05C101.48 74.2685 100.846 73.635 100.065 73.635Z" fill="#EDEDED"></path>
<path id="Vector_10" d="M111.135 73.635H106.1C105.319 73.635 104.685 74.2685 104.685 75.05V102.41C104.685 103.191 105.319 103.825 106.1 103.825H111.135C111.916 103.825 112.55 103.191 112.55 102.41V75.05C112.55 74.2685 111.916 73.635 111.135 73.635Z" fill="#EDEDED"></path>
<path id="Vector_11" d="M128.285 51.5501C128.285 32.9301 115.21 20.3101 99.02 20.3101C82.83 20.3101 69.59 33.0601 69.59 51.6801L69.705 58.1551C70.13 57.9451 70.71 58.1551 70.725 57.7301C72.08 19.8901 124.375 18.0301 127.405 57.9401C127.455 58.5701 128.075 57.4751 128.235 58.1051L128.285 51.5501Z" fill="white"></path>
<path id="Vector_12" d="M106.905 21.365C108.85 24.015 109.84 28.015 108.525 29.33C108.205 29.57 107.885 29.805 107.565 30.04C117.685 33.31 126.23 42.495 127.405 57.94C127.455 58.57 128.075 57.475 128.235 58.105L128.285 51.55C128.285 36.075 119.25 24.75 106.905 21.365Z" fill="#EDEDED"></path>
<path id="Vector_13" d="M102.737 99.5976C105.403 99.3986 107.483 98.1612 107.384 96.8339C107.285 95.5066 105.044 94.592 102.378 94.791C99.7124 94.99 97.6319 96.2274 97.731 97.5547C97.8301 98.882 100.071 99.7966 102.737 99.5976Z" fill="white"></path>
<path id="Vector_14" d="M67.18 58.03H74.625V74.165H67.18C65.905 74.165 64.875 73.13 64.875 71.86V60.335C64.875 59.06 65.91 58.03 67.18 58.03Z" fill="white"></path>
<path id="Vector_15" d="M74.075 56.145H72.49C71.5511 56.145 70.79 56.9061 70.79 57.845V74.345C70.79 75.2839 71.5511 76.045 72.49 76.045H74.075C75.0139 76.045 75.775 75.2839 75.775 74.345V57.845C75.775 56.9061 75.0139 56.145 74.075 56.145Z" fill="#EDEDED"></path>
<path id="Vector_16" d="M130.895 74.165H123.45V58.03H130.895C132.17 58.03 133.2 59.065 133.2 60.335V71.86C133.2 73.135 132.165 74.165 130.895 74.165Z" fill="white"></path>
<path id="Vector_17" d="M124 76.05H125.585C126.524 76.05 127.285 75.2889 127.285 74.35V57.85C127.285 56.9112 126.524 56.1501 125.585 56.1501H124C123.061 56.1501 122.3 56.9112 122.3 57.85V74.35C122.3 75.2889 123.061 76.05 124 76.05Z" fill="#EDEDED"></path>
<path id="Vector_18" d="M130.895 57.7801H128.585V49.6201C128.585 33.3201 115.325 20.0601 99.025 20.0601C82.725 20.0601 69.465 33.3201 69.465 49.6201V57.7801H67.185C65.775 57.7801 64.63 58.9251 64.63 60.3351V71.8601C64.63 73.2701 65.775 74.4151 67.185 74.4151H70.55C70.585 75.4601 71.44 76.2951 72.495 76.2951H74.08C75.155 76.2951 76.03 75.4201 76.03 74.3451V57.8401C76.03 56.7651 75.155 55.8901 74.08 55.8901H72.495C71.92 55.8901 71.41 56.1451 71.055 56.5401C71.755 41.1601 84.035 28.8651 99.03 28.8651C114.025 28.8651 126.29 41.1401 127.005 56.5101C126.65 56.1301 126.15 55.8901 125.595 55.8901H124.01C122.935 55.8901 122.06 56.7651 122.06 57.8401V74.3451C122.06 75.4201 122.935 76.2951 124.01 76.2951H125.595C126.13 76.2951 126.61 76.0801 126.96 75.7301C126.45 81.5601 123.77 86.7751 119.735 90.5701V44.6351C119.735 42.1551 117.715 40.1351 115.235 40.1351H82.83C80.35 40.1351 78.33 42.1551 78.33 44.6351V115.37C78.33 117.85 80.35 119.87 82.83 119.87H115.235C117.715 119.87 119.735 117.85 119.735 115.37V91.2501C124.355 87.0651 127.325 81.0951 127.53 74.4401C127.53 74.4301 127.53 74.4251 127.53 74.4151H130.895C132.305 74.4151 133.45 73.2701 133.45 71.8601V60.3351C133.45 58.9251 132.305 57.7801 130.895 57.7801ZM119.225 115.37C119.225 117.575 117.43 119.37 115.225 119.37H82.82C80.615 119.37 78.82 117.575 78.82 115.37V44.6351C78.82 42.4301 80.615 40.6351 82.82 40.6351H115.225C117.43 40.6351 119.225 42.4301 119.225 44.6351V91.0301C116.03 93.8701 112.05 95.8401 107.65 96.5701C107.315 95.2251 105.105 94.3451 102.415 94.5451C101.09 94.6451 99.855 94.9951 98.945 95.5401C97.98 96.1151 97.48 96.8351 97.535 97.5801C97.59 98.3201 98.19 98.9601 99.23 99.3851C100.035 99.7151 101.04 99.8851 102.11 99.8801C102.34 99.8801 102.575 99.8701 102.81 99.8501C105.495 99.6501 107.55 98.4551 107.685 97.0751C112.05 96.3601 116.01 94.4501 119.225 91.6951V115.375V115.37ZM107.195 96.8601C107.28 98.0251 105.26 99.1701 102.775 99.3551C101.525 99.4501 100.33 99.2951 99.42 98.9251C98.58 98.5801 98.075 98.0801 98.035 97.5451C97.995 97.0101 98.42 96.4401 99.2 95.9751C100.045 95.4751 101.2 95.1451 102.45 95.0501C102.67 95.0351 102.885 95.0251 103.1 95.0251C105.3 95.0151 107.11 95.8001 107.19 96.8601H107.195ZM72.49 56.3951H74.075C74.875 56.3951 75.525 57.0451 75.525 57.8451V74.3501C75.525 75.1501 74.875 75.8001 74.075 75.8001H72.49C71.69 75.8001 71.04 75.1501 71.04 74.3501V70.6001C71.04 70.4601 70.93 70.3501 70.79 70.3501C70.65 70.3501 70.54 70.4601 70.54 70.6001V73.9201H67.18C66.045 73.9201 65.125 72.9951 65.125 71.8651V60.3401C65.125 59.2051 66.05 58.2851 67.18 58.2851H70.54V66.9201C70.54 67.0601 70.65 67.1701 70.79 67.1701C70.93 67.1701 71.04 67.0601 71.04 66.9201V57.8551C71.04 57.0551 71.69 56.4051 72.49 56.4051V56.3951ZM99.025 28.3751C83.355 28.3751 70.6 41.5551 70.52 57.7801H69.965V49.6201C69.965 33.5951 83 20.5601 99.025 20.5601C115.05 20.5601 128.085 33.5951 128.085 49.6201V57.7801H127.53C127.45 41.5501 114.695 28.3751 99.025 28.3751ZM132.95 71.8601C132.95 72.9951 132.025 73.9151 130.895 73.9151H127.535V73.9001C127.535 73.7951 127.54 73.6901 127.54 73.5851C127.54 73.5751 127.54 73.5651 127.535 73.5551V70.5951C127.535 70.4551 127.425 70.3451 127.285 70.3451C127.145 70.3451 127.035 70.4551 127.035 70.5951V73.9001C127.035 74.0801 127.035 74.2651 127.025 74.4451C126.975 75.2001 126.35 75.7951 125.585 75.7951H124C123.2 75.7951 122.55 75.1451 122.55 74.3451V57.8401C122.55 57.0401 123.2 56.3901 124 56.3901H125.585C126.365 56.3901 126.995 57.0051 127.03 57.7751C127.03 57.8251 127.03 57.8751 127.03 57.9251C127.03 57.9251 127.03 57.9351 127.03 57.9401V66.9051C127.03 67.0451 127.14 67.1551 127.28 67.1551C127.42 67.1551 127.53 67.0451 127.53 66.9051V58.2701H130.89C132.025 58.2701 132.945 59.1951 132.945 60.3251V71.8501L132.95 71.8601Z" fill="#07064E"></path>
<path id="Vector_19" d="M111.135 52.91H86.915C86.1335 52.91 85.5 53.5436 85.5 54.325V69.04C85.5 69.8215 86.1335 70.455 86.915 70.455H111.135C111.916 70.455 112.55 69.8215 112.55 69.04V54.325C112.55 53.5436 111.916 52.91 111.135 52.91Z" fill="#EDEDED"></path>
</g>
</g>
</g>
</g>
<defs>
<clipPath id="clip0_66_4337">
<rect width="200" height="140" fill="white"></rect>
</clipPath>
</defs>
</svg>