<svg width="150" height="150" viewBox="0 0 150 150" fill="none" xmlns="http://www.w3.org/2000/svg">
<g id="illu_spot_arrow_simple" clip-path="url(#clip0_66_3968)">
<g id="illu_spot_arrow_simple_2">
<g id="illu_spot_arrow_simple_3">
<g id="stroke">
<path id="Vector" d="M115.07 95.77C115.01 94.96 114.86 94.26 114.59 93.48L101.21 55.16C100.68 53.64 99.47 52.47 97.79 51.86C96.15 51.26 94.26 51.28 92.46 51.91C89.59 52.91 87.66 55.21 87.4 57.64C85.68 55.9 82.74 55.3 79.87 56.3C77 57.3 75.07 59.6 74.81 62.03C73.09 60.29 70.15 59.69 67.28 60.69C64.82 61.55 63.04 63.4 62.43 65.46L52.8 37.88C52.17 36.07 50.87 34.61 49.14 33.78C47.41 32.95 45.46 32.83 43.65 33.47C41.84 34.1 40.38 35.4 39.55 37.13C38.72 38.86 38.6 40.81 39.24 42.62L58.32 97.28L45.17 90.94C41.6 89.22 37.3 90.72 35.58 94.29C33.86 97.86 35.36 102.16 38.93 103.88L69.92 118.83C70.71 119.29 71.54 119.69 72.36 120.01L72.52 120.09C73.05 120.35 73.63 120.53 74.31 120.65C75.73 121.02 77.17 121.2 78.61 121.2C80.52 121.2 82.43 120.88 84.26 120.24L103.32 113.59C110.75 111 115.69 103.51 115.07 95.78V95.77Z" fill="#EDEDED"></path>
<path id="Vector_2" d="M100.75 51.07C99.76 48.23 96.13 46.91 92.64 48.12C89.21 49.32 87.21 52.53 88.1 55.34C87.05 52.58 83.48 51.31 80.05 52.51C76.62 53.71 74.62 56.92 75.51 59.73C74.45 56.97 70.89 55.7 67.46 56.9C64.08 58.08 62.1 61.21 62.89 63.99L52.34 33.78C51.12 30.29 47.31 28.46 43.83 29.67C40.35 30.88 38.51 34.7 39.72 38.18L59.2 93.98L44.97 87.11C41.64 85.51 37.65 86.9 36.04 90.23C34.44 93.56 35.83 97.55 39.16 99.16L70.18 114.13C70.95 114.58 71.75 114.97 72.58 115.29L72.74 115.37C73.29 115.64 73.86 115.79 74.43 115.9C77.51 116.7 80.86 116.63 84.09 115.5L103.15 108.85C110.47 106.3 115.16 98.93 114.57 91.55C114.52 90.83 114.39 90.17 114.12 89.39L100.74 51.07H100.75Z" fill="white"></path>
<path id="Vector_3" d="M78.61 116.94C77.17 116.94 75.73 116.76 74.31 116.39C73.63 116.27 73.05 116.09 72.52 115.83L72.36 115.75C71.55 115.44 70.71 115.03 69.92 114.57L38.93 99.62C35.36 97.9 33.86 93.6 35.58 90.03C37.3 86.46 41.6 84.96 45.17 86.68L58.32 93.02L39.24 38.36C38.61 36.55 38.72 34.6 39.55 32.87C40.38 31.14 41.84 29.84 43.65 29.21C45.46 28.58 47.41 28.69 49.14 29.52C50.87 30.35 52.17 31.81 52.8 33.62L62.43 61.2C63.04 59.14 64.82 57.29 67.28 56.43C70.15 55.43 73.09 56.03 74.81 57.77C75.07 55.34 77 53.04 79.87 52.04C82.74 51.04 85.68 51.64 87.4 53.38C87.66 50.95 89.59 48.65 92.46 47.65C94.25 47.02 96.15 47.01 97.79 47.6C99.47 48.21 100.68 49.38 101.21 50.9L114.59 89.22C114.86 90 115.01 90.7 115.07 91.51C115.69 99.24 110.75 106.73 103.32 109.32L84.26 115.97C82.43 116.61 80.52 116.93 78.61 116.93V116.94ZM42.07 86.97C39.77 86.97 37.56 88.26 36.49 90.47C35.01 93.54 36.3 97.25 39.37 98.73L70.39 113.7C71.17 114.15 71.96 114.53 72.76 114.84L72.96 114.93C73.41 115.15 73.91 115.3 74.53 115.41C77.67 116.22 80.91 116.09 83.94 115.03L103 108.38C110 105.94 114.67 98.87 114.08 91.59C114.03 90.86 113.9 90.25 113.66 89.56L100.28 51.24C99.85 50.01 98.85 49.05 97.46 48.55C96.04 48.03 94.39 48.05 92.81 48.6C89.67 49.7 87.78 52.66 88.58 55.2C88.66 55.46 88.52 55.73 88.27 55.82C88.02 55.91 87.74 55.78 87.64 55.53C86.69 53.04 83.36 51.9 80.22 52.99C77.08 54.09 75.19 57.05 75.99 59.59C76.07 59.85 75.93 60.12 75.68 60.21C75.43 60.3 75.15 60.17 75.05 59.92C74.1 57.43 70.77 56.29 67.63 57.38C64.52 58.47 62.65 61.31 63.38 63.87C63.45 64.13 63.31 64.4 63.05 64.48C62.79 64.56 62.52 64.42 62.43 64.17L51.88 33.96C51.34 32.4 50.22 31.15 48.73 30.43C47.24 29.71 45.56 29.62 44 30.16C42.44 30.7 41.19 31.82 40.47 33.31C39.75 34.8 39.66 36.48 40.2 38.04L59.68 93.84C59.75 94.03 59.69 94.24 59.54 94.38C59.39 94.52 59.17 94.55 58.99 94.46L44.76 87.59C43.9 87.17 42.98 86.98 42.08 86.98L42.07 86.97Z" fill="#07064E"></path>
</g>
</g>
</g>
</g>
<defs>
<clipPath id="clip0_66_3968">
<rect width="150" height="150" fill="white"></rect>
</clipPath>
</defs>
</svg>