<svg width="200" height="140" viewBox="0 0 200 140" fill="none" xmlns="http://www.w3.org/2000/svg">
<g id="illu_spot_open_simple/Default" clip-path="url(#clip0_66_3971)">
<g id="illu_spot_open_simple">
<g id="background">
<path d="M16.15 27.1476C20.9859 27.1476 24.9062 23.2252 24.9062 18.3867C24.9062 13.5482 20.9859 9.62578 16.15 9.62578C11.314 9.62578 7.39374 13.5482 7.39374 18.3867C7.39374 23.2252 11.314 27.1476 16.15 27.1476Z" fill="#2BF5BA"></path>
<path d="M188.031 111.764C192.231 116.418 191.863 123.592 187.212 127.792C182.562 131.992 175.381 131.625 171.181 126.971C166.981 122.316 167.35 115.142 172 110.942C176.65 106.742 183.831 107.109 188.031 111.764Z" fill="#2BF5BA"></path>
<path d="M141.575 11.1876C143.349 11.1876 144.787 9.74731 144.787 7.97067C144.787 6.19403 143.349 4.75378 141.575 4.75378C139.801 4.75378 138.362 6.19403 138.362 7.97067C138.362 9.74731 139.801 11.1876 141.575 11.1876Z" fill="#2BF5BA"></path>
<path d="M38.9062 119.143C7.04999 98.1182 3.64374 62.5333 13.35 41.832C31.2437 3.65245 62.0687 29.7609 97.7812 19.1893C139.287 6.89423 162.475 20.8071 178.331 56C186.644 74.4551 183.2 109.436 142.1 124.967C112.025 136.329 55.0812 129.82 38.9062 119.143Z" fill="#2BF5BA"></path>
<path d="M190.994 106.002C194.004 106.002 196.444 103.573 196.444 100.576C196.444 97.5794 194.004 95.1502 190.994 95.1502C187.984 95.1502 185.544 97.5794 185.544 100.576C185.544 103.573 187.984 106.002 190.994 106.002Z" fill="#2BF5BA"></path>
</g>
<g id="illu_spot_open_simple_2">
<g id="stroke">
<path id="Vector" d="M141.781 111.639H100.275C98.5001 113.63 95.9876 113.468 94.1813 111.515L52.2688 111.639V47.6622H141.781V111.639Z" fill="#2AEDB4"></path>
<path id="Vector_2" d="M141.781 108.995H100.275C98.5001 110.986 95.9876 110.824 94.1813 108.87L52.2688 108.995V45.0178H141.781V108.995Z" fill="#EDEDED"></path>
<path id="Vector_3" d="M97.3563 110.724C96.1813 110.724 95.0063 110.177 94.05 109.181L52.275 109.306C52.1938 109.306 52.1125 109.275 52.0563 109.212C52 109.156 51.9625 109.076 51.9625 108.995V45.0178C51.9625 44.8436 52.1 44.7067 52.275 44.7067H141.788C141.963 44.7067 142.1 44.8436 142.1 45.0178V108.995C142.1 109.169 141.963 109.306 141.788 109.306H100.419C99.5563 110.227 98.5125 110.718 97.3938 110.724H97.3625H97.3563ZM94.1813 108.559C94.2688 108.559 94.35 108.596 94.4125 108.659C95.2813 109.598 96.3375 110.096 97.3813 110.102C98.3625 110.096 99.2813 109.642 100.038 108.789C100.094 108.721 100.181 108.684 100.269 108.684H141.463V45.3289H52.5875V108.684L94.1875 108.559H94.1813Z" fill="#07064E"></path>
<path id="Vector_4" d="M97.3563 110.724C96.1813 110.724 95.0063 110.177 94.05 109.181L52.275 109.306C52.1938 109.306 52.1125 109.275 52.0563 109.212C52 109.156 51.9625 109.076 51.9625 108.995V45.0178C51.9625 44.8436 52.1 44.7067 52.275 44.7067H141.788C141.963 44.7067 142.1 44.8436 142.1 45.0178V108.995C142.1 109.169 141.963 109.306 141.788 109.306H100.419C99.5563 110.227 98.5125 110.718 97.3938 110.724H97.3625H97.3563ZM94.1813 108.559C94.2688 108.559 94.35 108.596 94.4125 108.659C95.2813 109.598 96.3375 110.096 97.3813 110.102C98.3625 110.096 99.2813 109.642 100.038 108.789C100.094 108.721 100.181 108.684 100.269 108.684H141.463V45.3289H52.5875V108.684L94.1875 108.559H94.1813Z" fill="#07064E"></path>
<path id="Vector_5" d="M97.3188 46.5734C82.9001 39.4427 69.9188 39.4551 55.4875 46.6356C55.4938 67.6916 55.5 88.7476 55.5063 109.804C69.8938 102.648 82.8375 102.611 97.2063 109.685V109.804C97.25 109.785 97.2875 109.766 97.3313 109.741C97.3625 109.754 97.3875 109.766 97.4188 109.785V109.704C111.794 102.617 124.738 102.648 139.125 109.785C139.131 88.7351 139.138 67.6854 139.144 46.6356C124.713 39.4614 111.731 39.4427 97.3125 46.5734H97.3188Z" fill="#DDDDDD"></path>
<path id="Vector_6" d="M55.5125 107.159C69.9688 99.9725 82.9751 99.9662 97.4251 107.14C97.4313 86.0907 97.4376 65.0409 97.4438 43.9911C82.9751 36.7982 69.9563 36.792 55.4875 43.9911C55.4938 65.0471 55.5 86.1031 55.5063 107.159H55.5125Z" fill="white"></path>
<path id="Vector_7" d="M97.5 107.159L97.5312 46.48C97.5312 46.48 97.5312 46.4365 97.525 46.4178C95.9937 39.0631 89.9125 32.7973 82.3875 30.8249C75.4188 28.9956 68.5187 31.2605 63.45 37.0222C63.4 37.0782 63.375 37.1529 63.375 37.2276L63.4062 100.551C63.4062 100.725 63.5437 100.862 63.7187 100.862C63.775 100.862 63.825 100.85 63.8688 100.825C70.375 97.2036 78.25 96.4382 84.9312 98.7778C88.9812 100.196 92.3188 102.667 94.6688 105.908C95.6063 106.3 96.55 106.717 97.5 107.165V107.159Z" fill="#EDEDED"></path>
<path id="Vector_8" d="M97.2188 43.9725V43.8356C94.375 30.1654 75.6813 20.9316 63.6875 34.5831C63.7 55.6889 63.7062 76.8009 63.7187 97.9067C75.9625 91.0996 92.0562 94.5654 97.1875 107.14C97.1875 98.7654 97.1938 90.3902 97.2 82.0151V107.159H97.2125C111.669 99.9725 124.675 99.9662 139.125 107.14C139.131 86.0907 139.138 65.0409 139.144 43.9911C124.681 36.7982 111.675 36.792 97.2188 43.9725Z" fill="white"></path>
<path id="Vector_9" d="M139.281 43.7111C124.813 36.5182 111.894 36.4498 97.4563 43.512C95.8375 36.2693 89.8188 30.128 82.3875 28.1805C75.4188 26.3511 68.5188 28.616 63.45 34.3778C63.4 34.4338 63.375 34.5085 63.375 34.5831V40.3387C60.6625 41.1973 57.9125 42.3173 55.1063 43.7111C55 43.7609 54.9313 43.8729 54.9313 43.9911L54.95 107.159C54.95 107.333 55.0875 107.47 55.2625 107.47C55.3125 107.47 55.3563 107.458 55.4 107.439C69.8 100.277 82.6375 100.271 97.0313 107.42C97.0313 107.42 97.0375 107.42 97.0438 107.42C97.0938 107.452 97.1438 107.47 97.2 107.47C97.25 107.47 97.2938 107.458 97.3375 107.439C111.738 100.277 124.575 100.271 138.975 107.42C139.069 107.47 139.188 107.464 139.281 107.408C139.375 107.352 139.431 107.252 139.431 107.147L139.45 43.9973C139.45 43.8791 139.381 43.7733 139.275 43.7173L139.281 43.7111ZM82.2313 28.7778C89.5188 30.688 95.4125 36.7485 96.9063 43.8667V43.8791C96.8938 43.9165 96.875 43.9538 96.875 43.9911L96.8875 81.9902L96.875 105.691C94.5313 100.962 90.4125 97.384 85.1375 95.5422C82.5188 94.6276 79.7188 94.1733 76.8938 94.1733C72.5 94.1733 68.025 95.2622 64.0313 97.384L64 34.7013C68.9 29.1822 75.5375 27.0293 82.2313 28.784V28.7778ZM55.575 106.661L55.5563 44.184C58.2125 42.8711 60.8125 41.8133 63.375 40.992L63.4063 97.9067C63.4063 98.0809 63.5438 98.2178 63.7188 98.2178C63.775 98.2178 63.825 98.2053 63.8688 98.1805C70.375 94.5591 78.25 93.7938 84.9313 96.1333C90.2375 97.9876 94.3375 101.659 96.5625 106.5C82.425 99.6987 69.7313 99.7547 55.575 106.661ZM138.813 106.636C124.556 99.6925 111.781 99.6987 97.525 106.655V81.9529L97.5375 44.1591C111.806 37.1218 124.563 37.128 138.838 44.1716L138.819 106.63L138.813 106.636Z" fill="#07064E"></path>
</g>
</g>
</g>
</g>
<defs>
<clipPath id="clip0_66_3971">
<rect width="200" height="140" fill="white"></rect>
</clipPath>
</defs>
</svg>