<svg width="200" height="137" viewBox="0 0 200 137" fill="none" xmlns="http://www.w3.org/2000/svg">
<g id="illu_spot_proxy_simple/Default" clip-path="url(#clip0_66_4358)">
<g id="illu_spot_proxy_simple">
<g id="background">
<path d="M17.1724 75.3222C18.3416 73.2909 17.1805 70.4229 14.5791 68.9164C11.9777 67.4099 8.92092 67.8353 7.7517 69.8666C6.58247 71.898 7.74351 74.7659 10.345 76.2724C12.9464 77.7789 16.0031 77.3535 17.1724 75.3222Z" fill="#2BF5BA"></path>
<path d="M191.021 127.078C191.906 124.637 189.574 121.546 185.812 120.173C182.05 118.799 178.283 119.664 177.397 122.104C176.512 124.544 178.844 127.636 182.606 129.009C186.367 130.383 190.135 129.518 191.021 127.078Z" fill="#2BF5BA"></path>
<path d="M191.615 107.793C193.64 106.621 194.233 103.847 192.938 101.598C191.644 99.3489 188.953 98.4764 186.928 99.6492C184.902 100.822 184.31 103.596 185.605 105.845C186.899 108.094 189.59 108.966 191.615 107.793Z" fill="#2BF5BA"></path>
<path d="M180.034 12.9172C196.141 30.5119 162.815 31.4807 163.824 65.2708C165.883 133.962 124.668 141.506 59.6049 129.308C26.5659 123.114 14.7756 114.963 22.3073 89.0011C29.8585 62.9613 10.1756 58.2153 9.40488 29C8.92683 10.8328 18.7902 -2.63231 73.5512 7.23658C142.722 19.6987 156.873 -12.3789 180.029 12.9172H180.034Z" fill="#2BF5BA"></path>
<path d="M16.7109 75.6562C17.8801 73.6249 16.719 70.757 14.1176 69.2505C11.5162 67.7439 8.45942 68.1694 7.29019 70.2007C6.12096 72.232 7.28201 75.1 9.88346 76.6065C12.4849 78.113 15.5416 77.6875 16.7109 75.6562Z" fill="#2BF5BA"></path>
<path d="M190.559 127.413C191.445 124.973 189.113 121.881 185.351 120.508C181.589 119.134 177.821 119.999 176.936 122.44C176.05 124.88 178.382 127.971 182.144 129.345C185.906 130.718 189.674 129.853 190.559 127.413Z" fill="#2BF5BA"></path>
<path d="M191.16 108.121C193.185 106.948 193.777 104.174 192.483 101.925C191.188 99.6761 188.497 98.8037 186.472 99.9765C184.447 101.149 183.854 103.923 185.149 106.172C186.443 108.421 189.135 109.293 191.16 108.121Z" fill="#2BF5BA"></path>
</g>
<g id="illu_spot_proxy_simple_2">
<g id="stroke">
<path id="Vector" d="M81.3317 73.5054C81.3317 73.5054 81.3366 73.5054 81.3415 73.5054L113.2 68.3435L85.7854 72.7813L89.7415 56.6691C90.2781 54.482 92.5903 53.249 94.6976 54.0221L106.688 58.4159C108.029 58.9101 109.498 58.9345 110.854 58.4893L110.907 58.4697L107.556 53.616C111.176 49.8925 111.717 44.1238 108.698 39.7545C107.468 37.9735 105.805 36.6769 103.941 35.8941C103.922 35.8843 103.907 35.8794 103.888 35.8696C103.688 35.7864 103.488 35.7081 103.283 35.6396C103.098 35.5711 102.907 35.5124 102.717 35.4537C102.688 35.4439 102.659 35.439 102.629 35.4292C100.263 34.7442 97.6781 34.8763 95.3366 35.9283L86.5756 23.2411C86.4195 23.0161 86.2244 22.8399 86.0049 22.7078C85.5268 22.2723 84.8 22.2038 84.2488 22.5904L83.9707 22.7861C83.8878 22.8448 83.8098 22.9133 83.7415 22.9867C83.1171 23.613 83 24.616 83.522 25.3646L83.5561 25.4136L67.5317 53.5132C67.5317 53.5132 67.522 53.5524 67.5171 53.5719L36.8683 77.9433C32.9268 81.0747 32.0829 86.7798 34.9463 90.924C37.0244 93.9331 40.5463 95.3961 43.9707 94.9802C45.2683 94.8236 46.5512 94.3979 47.7366 93.6836L60.8878 85.7572L62.9659 87.455C64.0683 88.3553 65.4781 88.732 66.8341 88.5706C67.4 88.5021 67.9512 88.3357 68.4732 88.0764L78.8732 103.137C79.3659 103.851 80.1073 104.326 80.9561 104.482C81.2829 104.541 81.6049 104.551 81.9268 104.511C82.4439 104.448 82.9415 104.262 83.3805 103.959C84.0927 103.464 84.5659 102.721 84.722 101.869C84.8781 101.018 84.6927 100.152 84.2 99.4425L73.7951 84.3725C75.1756 83.0123 75.7024 80.9328 75.0732 79.054L74.561 77.5274L81.2439 73.4957C81.2683 73.4957 81.2976 73.5103 81.322 73.5054H81.3317ZM76.122 65.2561L68.1024 53.6404L83.9073 25.9224L88.8049 33.0171C92.0976 43.4584 87.4732 55.9792 78.9707 62.9075C78.039 63.71 77.0878 64.4928 76.1171 65.261L76.122 65.2561Z" fill="#2AEDB4"></path>
<path id="Vector_2" d="M121.088 55.1377L110.854 58.4942C109.498 58.9394 108.029 58.915 106.688 58.4208L94.6975 54.027C92.5902 53.2539 90.278 54.4869 89.7415 56.674L85.5463 73.7648L128.951 75.2767L125.971 58.0881C125.576 55.8178 123.268 54.4282 121.083 55.1426L121.088 55.1377Z" fill="white"></path>
<path id="Vector_3" d="M134.561 78.9414C134.561 78.9414 134.517 78.9414 134.498 78.9414L79.761 77.0381C78.7512 77.0038 77.9561 76.1476 77.9903 75.1348C78.0049 74.6455 78.2146 74.1856 78.5707 73.8528C78.9317 73.5152 79.3951 73.344 79.8878 73.3587L90.7707 73.7354C90.9073 73.7354 91.0098 73.8528 91.0049 73.9898C91 74.1268 90.8829 74.2296 90.7512 74.2247L79.8683 73.8479C79.5073 73.8382 79.1659 73.9654 78.9024 74.21C78.639 74.4547 78.4878 74.7923 78.4732 75.1543C78.4488 75.8981 79.0293 76.5292 79.7756 76.5537L134.512 78.457C134.873 78.4717 135.215 78.3396 135.478 78.0949C135.741 77.8503 135.893 77.5127 135.907 77.1506C135.922 76.7886 135.79 76.4461 135.546 76.1818C135.302 75.9176 134.966 75.766 134.605 75.7513L96.9854 74.4449C96.8488 74.4449 96.7463 74.3275 96.7512 74.1905C96.7512 74.0535 96.8683 73.9605 97.0049 73.9556L134.624 75.262C135.117 75.2816 135.571 75.4871 135.902 75.8442C136.234 76.2014 136.41 76.6711 136.395 77.1653C136.38 77.6595 136.171 78.1145 135.815 78.4472C135.473 78.7702 135.029 78.9414 134.561 78.9414Z" fill="#07064E"></path>
<path id="Vector_4" d="M86.5951 76.994C86.1561 79.6068 85.8732 82.3321 85.7756 85.1406C85.0781 105.324 93.9854 122.013 105.668 122.419C117.351 122.825 127.39 106.796 128.088 86.6134C128.195 83.5309 128.073 80.5364 127.756 77.6643C113.893 78.3738 100.459 77.4931 86.5951 76.994Z" fill="#2AEDB4"></path>
<path id="Vector_5" d="M89.6439 76.0204L79.8829 75.6828C79.0048 75.6534 78.2683 76.3433 78.2341 77.224C78.2048 78.1048 78.8926 78.8436 79.7707 78.8778L134.507 80.7812C135.385 80.8105 136.122 80.1206 136.156 79.2399C136.185 78.3592 135.498 77.6204 134.619 77.5861L86.6683 75.9177" fill="#2AEDB4"></path>
<path id="Vector_6" d="M134.615 75.5018L128.946 75.3061L125.971 58.1321C125.859 57.4863 125.585 56.9138 125.21 56.4392C125.229 62.6776 119.659 67.8591 113.351 69.5716C103.863 71.7245 95.9902 72.6688 86.6731 69.9826L85.5512 73.7991L79.8829 73.6033C79.0048 73.574 78.2683 74.2639 78.2341 75.1446C78.2 76.0253 78.8927 76.7641 79.7707 76.7984L86.278 77.0235C86.0195 78.9855 85.8439 81.0014 85.7707 83.0661C85.0731 103.249 93.9805 119.939 105.663 120.345C117.346 120.751 127.385 104.722 128.083 84.5389C128.156 82.4741 128.117 80.4534 127.99 78.4766L134.502 78.7017C135.38 78.7311 136.117 78.0412 136.151 77.1605C136.18 76.2797 135.493 75.5409 134.615 75.5067V75.5018Z" fill="#EDEDED"></path>
<path id="Vector_7" d="M110.498 93.6738C108.059 92.8273 105.468 92.7393 102.795 93.4096L102.678 92.935C105.444 92.2451 108.132 92.338 110.659 93.2139L110.498 93.6787V93.6738Z" fill="#07064E"></path>
<path id="Vector_8" d="M110.312 93.8402C108.044 93.1943 105.502 93.1258 102.712 93.576L102.805 90.9143C105.293 90.4739 107.824 90.5424 110.405 91.1785L110.312 93.8402Z" fill="white"></path>
<g id="Vector_9">
<path d="M95.4683 97.4315C95.4048 97.4315 95.3463 97.4315 95.2829 97.4315C95.1463 97.4315 95.0439 97.3141 95.0488 97.1771C95.0488 97.0401 95.1658 96.9471 95.3024 96.9422C96.5609 96.9912 97.7561 96.5361 98.6731 95.675C99.5902 94.8138 100.122 93.6493 100.166 92.387V92.338C100.171 92.201 100.278 92.1081 100.419 92.0983C100.556 92.0983 100.659 92.2157 100.659 92.3478V92.4017C100.61 93.7912 100.024 95.078 99.0097 96.0273C98.039 96.9324 96.7902 97.4266 95.4731 97.4266L95.4683 97.4315Z" fill="#07064E"></path>
<path d="M117.785 98.2046C117.727 98.2046 117.663 98.2046 117.605 98.2046C117.468 98.2046 117.366 98.0872 117.371 97.9502C117.371 97.8132 117.493 97.7251 117.624 97.7153C120.219 97.8034 122.4 95.7631 122.488 93.1649C122.488 93.0279 122.61 92.9105 122.737 92.9007C122.873 92.9007 122.98 92.9888 122.976 93.1258V93.1796C122.878 95.9881 120.566 98.2046 117.785 98.2046Z" fill="#07064E"></path>
<path d="M110.498 91.5895C108.058 90.743 105.468 90.6549 102.795 91.3252L102.678 90.8506C105.444 90.1607 108.132 90.2537 110.658 91.1295L110.498 91.5943V91.5895Z" fill="#07064E"></path>
<path d="M110.405 94.2218C107.966 93.3753 105.371 93.2873 102.702 93.9576L102.585 93.483C105.351 92.7931 108.039 92.8861 110.566 93.7619L110.405 94.2267V94.2218Z" fill="#07064E"></path>
<path d="M110.498 93.6738C108.058 92.8273 105.468 92.7393 102.795 93.4096L102.678 92.935C105.444 92.2451 108.132 92.338 110.658 93.2139L110.498 93.6787V93.6738Z" fill="#07064E"></path>
</g>
<path id="Vector_10" d="M118.049 87.4158C114.376 87.2984 111.21 89.7986 110.361 93.2481C107.859 92.6365 105.4 92.5582 102.985 92.9643C102.732 91.516 102.073 90.1705 101.049 89.0745C99.6585 87.5773 97.7659 86.7161 95.7268 86.6428C91.5171 86.496 87.9707 89.8133 87.8244 94.0359C87.7512 96.0811 88.4829 98.0333 89.8732 99.5305C91.2634 101.028 93.1561 101.889 95.1951 101.962C95.2829 101.962 95.3756 101.962 95.4634 101.962C99.0732 101.962 102.141 99.4229 102.912 95.9832C105.449 95.3863 107.907 95.4744 110.229 96.2425C110.78 99.8045 113.79 102.598 117.512 102.73C117.6 102.73 117.693 102.73 117.78 102.73C121.873 102.73 125.273 99.4669 125.415 95.3325C125.561 91.1099 122.254 87.5528 118.044 87.406L118.049 87.4158Z" fill="#DDDDDD"></path>
<g id="Vector_11">
<path d="M95.4634 99.6431C99.5503 99.6431 102.863 96.32 102.863 92.2207C102.863 88.1214 99.5503 84.7982 95.4634 84.7982C91.3765 84.7982 88.0634 88.1214 88.0634 92.2207C88.0634 96.32 91.3765 99.6431 95.4634 99.6431Z" fill="#EDEDED"></path>
<path d="M117.785 100.421C121.872 100.421 125.185 97.098 125.185 92.9987C125.185 88.8993 121.872 85.5762 117.785 85.5762C113.698 85.5762 110.385 88.8993 110.385 92.9987C110.385 97.098 113.698 100.421 117.785 100.421Z" fill="#EDEDED"></path>
</g>
<g id="Vector_12">
<path d="M102.805 90.9142L102.712 93.5759C105.502 93.1257 108.044 93.1942 110.312 93.8401L110.405 91.1784C107.824 90.5423 105.293 90.4738 102.805 90.9142Z" fill="white"></path>
<path d="M95.6732 86.1779C92.2439 86.0605 89.3707 88.6683 89.2585 92.0053C89.1463 95.3422 91.8293 98.1458 95.2585 98.2632C98.6878 98.3807 101.561 95.7728 101.673 92.4358C101.79 89.0989 99.1024 86.2953 95.6732 86.1779Z" fill="white"></path>
<path d="M117.99 86.9558C114.561 86.8384 111.688 89.4463 111.576 92.7832C111.459 96.1202 114.146 98.9238 117.576 99.0412C121.005 99.1586 123.878 96.5507 123.99 93.2138C124.107 89.8769 121.42 87.0733 117.99 86.9558Z" fill="white"></path>
</g>
<g id="Vector_13">
<path d="M95.4683 97.4315C95.4048 97.4315 95.3463 97.4315 95.2829 97.4315C95.1463 97.4315 95.0439 97.3141 95.0488 97.1771C95.0488 97.0401 95.1658 96.9471 95.3024 96.9422C96.5609 96.9911 97.7561 96.5361 98.6731 95.6749C99.5902 94.8138 100.122 93.6493 100.166 92.387V92.338C100.171 92.201 100.278 92.1081 100.419 92.0983C100.556 92.0983 100.659 92.2157 100.659 92.3478V92.4016C100.61 93.7912 100.024 95.078 99.0097 96.0272C98.039 96.9324 96.7902 97.4266 95.4731 97.4266L95.4683 97.4315Z" fill="#07064E"></path>
<path d="M117.785 98.2046C117.727 98.2046 117.663 98.2046 117.605 98.2046C117.468 98.2046 117.366 98.0871 117.371 97.9501C117.371 97.8131 117.493 97.7251 117.624 97.7153C120.219 97.8034 122.4 95.763 122.488 93.1649C122.488 93.0279 122.61 92.9105 122.737 92.9007C122.873 92.9007 122.98 92.9888 122.976 93.1258V93.1796C122.878 95.9881 120.566 98.2046 117.785 98.2046Z" fill="#07064E"></path>
</g>
<path id="Vector_14" d="M118.049 85.3363C114.42 85.214 111.288 87.6653 110.4 91.0512C108.034 90.283 105.541 90.1949 102.971 90.787C102.707 89.3778 102.054 88.0665 101.054 86.995C99.6634 85.4978 97.7707 84.6366 95.7317 84.5633C91.522 84.436 87.9756 87.7338 87.8293 91.9564C87.7561 94.0016 88.4878 95.9538 89.8781 97.451C91.2683 98.9483 93.161 99.8094 95.2 99.8828C95.2878 99.8828 95.3805 99.8828 95.4683 99.8828C99.0781 99.8828 102.146 97.3434 102.917 93.9037C105.454 93.3068 107.912 93.3949 110.234 94.163C110.785 97.725 113.795 100.519 117.517 100.651C117.605 100.651 117.698 100.651 117.785 100.651C121.878 100.651 125.278 97.3874 125.42 93.253C125.566 89.0304 122.259 85.4733 118.049 85.3265V85.3363ZM95.2195 99.3935C93.3073 99.325 91.5415 98.5177 90.2342 97.1183C88.9317 95.719 88.2488 93.889 88.3171 91.9759C88.4488 88.1057 91.6342 85.0476 95.4634 85.0476C95.5464 85.0476 95.6293 85.0476 95.7122 85.0476C97.6244 85.1161 99.3903 85.9235 100.698 87.3228C102.005 88.7222 102.683 90.5521 102.615 92.4652C102.478 96.4186 99.161 99.5256 95.2146 99.3886L95.2195 99.3935ZM103.015 93.39C103.059 93.0964 103.093 92.793 103.102 92.4897C103.117 92.0787 103.088 91.6726 103.039 91.2714C105.551 90.6891 107.985 90.7723 110.288 91.5307C110.21 91.9221 110.156 92.3233 110.141 92.7343C110.132 93.0426 110.141 93.3459 110.171 93.6444C107.888 92.93 105.483 92.8469 103.01 93.3949L103.015 93.39ZM117.537 100.171C113.595 100.034 110.498 96.7073 110.634 92.749C110.766 88.8788 113.951 85.8207 117.78 85.8207C117.863 85.8207 117.946 85.8207 118.029 85.8207C121.971 85.9577 125.068 89.2849 124.932 93.2432C124.795 97.1966 121.468 100.294 117.532 100.167L117.537 100.171Z" fill="#07064E"></path>
<path id="Vector_15" d="M86.2292 79.0931L128.161 80.5511C128.132 79.8074 128.083 79.0735 128.024 78.3445C128.015 78.2172 121.795 78.2075 114.171 77.9335C102.107 77.498 86.5268 76.7983 86.4927 77.0283C86.3951 77.7084 86.3073 78.3983 86.2292 79.0931Z" fill="#DDDDDD"></path>
<path id="Vector_16" d="M113.234 68.3973C113.639 68.9845 114.322 69.2634 114.985 69.1851C115.273 69.1508 115.561 69.0481 115.819 68.867C116.663 68.2799 116.873 67.1203 116.288 66.2738L110.902 58.4746L110.849 58.4942C109.493 58.9394 108.024 58.915 106.683 58.4208L94.6926 54.027C92.5853 53.2539 90.2731 54.4869 89.7366 56.674L85.7805 72.7862L113.195 68.3484L113.229 68.3973H113.234ZM115.517 68.412C115.517 68.412 115.517 68.412 115.512 68.412C115.512 68.412 115.512 68.412 115.507 68.412L115.517 68.4022V68.412Z" fill="#EDEDED"></path>
<g id="Vector_17">
<path d="M85.8488 72.7764L94.1853 71.4259C91.7463 71.1911 89.2634 70.7312 86.6683 69.9825L85.8488 72.7764Z" fill="#DDDDDD"></path>
<path d="M114.585 69.185C114.717 69.1997 114.854 69.1997 114.985 69.185C115.273 69.1508 115.561 69.048 115.819 68.867C115.946 68.7789 116.059 68.6713 116.156 68.5538C115.644 68.7887 115.117 68.9991 114.585 69.185Z" fill="#DDDDDD"></path>
</g>
<g id="Vector_18">
<path d="M115.99 35.2972C115.893 35.307 115.795 35.2678 115.737 35.1846C115.649 35.0623 115.678 34.8911 115.8 34.803L126.912 26.8178C127.034 26.7298 127.205 26.7591 127.293 26.8815C127.38 27.0038 127.351 27.175 127.341 27.1506L116.229 35.1357C116.078 35.2727 116.034 35.2923 115.99 35.2972Z" fill="#2AEDB4"></path>
<path d="M129.029 25.9714C128.932 25.9812 128.829 25.942 128.771 25.854C128.683 25.7316 128.717 25.5604 128.839 25.4723L131.761 23.4467C131.883 23.3635 132.054 23.3928 132.141 23.5152C132.229 23.6375 132.195 23.8087 132.18 23.7843L129.259 25.8099C129.112 25.9469 129.068 25.9616 129.024 25.9665L129.029 25.9714Z" fill="#2AEDB4"></path>
<path d="M105.615 31.1725C105.517 31.1823 105.419 31.1431 105.361 31.06C105.273 30.9376 105.302 30.7664 105.537 30.5658L116.649 22.5806C116.649 22.5806 116.829 22.6296 116.917 22.7568C117.005 22.884 116.976 23.0504 116.854 23.1384L105.741 31.1236C105.702 31.1529 105.659 31.1676 105.615 31.1725Z" fill="#2AEDB4"></path>
<path d="M118.654 21.8516C118.556 21.8614 118.454 21.8222 118.395 21.7342C118.307 21.6119 118.341 21.4406 118.463 21.3525L121.385 19.322C121.507 19.2339 121.678 19.2682 121.766 19.3905C121.854 19.5128 121.819 19.6841 121.698 19.7721L118.776 21.8027C118.737 21.8271 118.698 21.8418 118.654 21.8516Z" fill="#2AEDB4"></path>
<path d="M116.19 46.492C116.093 46.5018 115.995 46.4627 115.937 46.3795C115.849 46.2572 115.878 46.0859 116 45.9979L127.112 38.0127C127.234 37.9246 127.405 37.954 127.493 38.0763C127.58 38.1986 127.551 38.3699 127.541 38.3454L116.429 46.3306C116.278 46.4676 116.234 46.4871 116.19 46.492Z" fill="#2AEDB4"></path>
<path d="M129.229 37.1662C129.132 37.176 129.029 37.1369 128.971 37.0488C128.883 36.9265 128.917 36.7552 129.039 36.6672L131.961 34.6366C132.083 34.5535 132.254 34.5828 132.341 34.7051C132.429 34.8275 132.395 34.9987 132.385 34.9742L129.463 37.0048C129.317 37.1418 129.273 37.1565 129.229 37.1614V37.1662Z" fill="#2AEDB4"></path>
</g>
<g id="Vector_19">
<path d="M115.99 33.34C115.893 33.3498 115.795 33.3106 115.737 33.2274C115.649 33.1051 115.678 32.9339 115.8 32.8458L126.912 24.8607C127.034 24.7726 127.205 24.8019 127.293 24.9243C127.38 25.0466 127.351 25.2178 127.229 25.3059L116.117 33.291C116.078 33.3204 116.034 33.3351 115.99 33.34Z" fill="#07064E"></path>
<path d="M105.615 29.2153C105.517 29.2251 105.419 29.1859 105.361 29.1028C105.273 28.9804 105.302 28.8092 105.424 28.7211L116.537 20.736C116.658 20.6479 116.829 20.6773 116.917 20.7996C117.005 20.9219 116.976 21.0931 116.854 21.1812L105.741 29.1664C105.702 29.1957 105.658 29.2104 105.615 29.2153Z" fill="#07064E"></path>
<path d="M116.19 44.5348C116.093 44.5446 115.995 44.5055 115.937 44.4223C115.849 44.3 115.878 44.1287 116 44.0407L127.112 36.0555C127.234 35.9674 127.405 35.9968 127.493 36.1191C127.58 36.2414 127.551 36.4127 127.429 36.5008L116.317 44.4859C116.278 44.5153 116.234 44.5299 116.19 44.5348Z" fill="#07064E"></path>
</g>
<g id="Vector_20">
<path d="M113.171 65.7992L81.2585 70.9709L67.7414 51.3897L83.7902 23.246L113.171 65.7992Z" fill="white"></path>
<path d="M108.439 37.6505C105.307 33.1149 99.3073 31.7644 94.5853 34.3479C99.1268 39.637 101.815 46.6583 106.537 51.9132C110.702 48.405 111.6 42.2254 108.439 37.6505Z" fill="white"></path>
<path d="M81.2195 70.9073L47.5707 91.1882C43.3707 93.7178 37.9366 92.5435 35.1463 88.5069C32.3561 84.4654 33.1756 78.9512 37.0146 75.898L67.7805 51.4386L81.2244 70.9122L81.2195 70.9073Z" fill="white"></path>
</g>
<g id="Vector_21">
<path d="M78.9756 60.9455C78.0146 61.7773 77.0243 62.5846 76.0243 63.3773L76.0048 63.3479C68.7902 69.0628 60.7951 74.1073 55.6292 81.7744C53.9951 84.0447 52.5853 86.4813 51.2341 88.9816L60.9804 83.1053L63.2146 84.9352C64.878 86.3003 67.2439 86.3932 69.0146 85.1651L72.9756 82.4154C74.7414 81.1873 75.4878 78.9316 74.7999 76.8913L74.2097 75.1348L81.2243 70.9074L81.2682 70.971L113.18 65.8041L88.4439 29.9737C92.4292 40.6206 87.7804 53.7775 78.9853 60.9504L78.9756 60.9455Z" fill="#EDEDED"></path>
<path d="M116.127 64.302L86.2292 20.9953C85.7853 20.3495 84.9024 20.188 84.2585 20.6381L83.9804 20.8339C83.3365 21.2791 83.1756 22.1647 83.6243 22.8106L113.522 66.1173C113.966 66.7631 114.849 66.9246 115.493 66.4744L115.771 66.2787C116.415 65.8335 116.576 64.9479 116.127 64.302Z" fill="#EDEDED"></path>
<path d="M38.0536 75.1544L37.0097 75.8981C33.1707 78.9512 32.3512 84.4704 35.1414 88.507C37.9317 92.5485 43.3658 93.7227 47.5658 91.1882L48.6634 90.5277C45.0829 85.3217 41.4878 80.1206 38.0487 75.1544H38.0536Z" fill="#EDEDED"></path>
</g>
<g id="Vector_22">
<path d="M119.112 19.5617C119.015 19.5715 118.912 19.5323 118.854 19.4443C118.766 19.3219 118.8 19.1507 118.922 19.0626L121.844 17.0321C121.966 16.944 122.137 16.9783 122.224 17.1006C122.312 17.2229 122.278 17.3941 122.156 17.4822L119.234 19.5128C119.195 19.5372 119.156 19.5519 119.112 19.5617Z" fill="white"></path>
<path d="M129.029 24.0142C128.932 24.024 128.829 23.9848 128.771 23.8968C128.683 23.7744 128.717 23.6032 128.839 23.5151L131.761 21.4895C131.883 21.4063 132.054 21.4357 132.141 21.558C132.229 21.6803 132.195 21.8515 132.073 21.9396L129.151 23.9653C129.112 23.9897 129.073 24.0044 129.029 24.0142Z" fill="white"></path>
<path d="M129.229 35.2091C129.132 35.2188 129.029 35.1797 128.971 35.0916C128.883 34.9693 128.917 34.7981 129.039 34.71L131.961 32.6795C132.083 32.5963 132.254 32.6256 132.341 32.748C132.429 32.8703 132.395 33.0415 132.273 33.1296L129.351 35.1601C129.312 35.1846 129.273 35.1993 129.229 35.2091Z" fill="white"></path>
<path d="M83.4585 101.297L82.9365 101.659C81.7365 102.496 80.0829 102.192 79.2536 100.989L68.5219 85.4489L73.3951 82.0631L84.1268 97.6028C84.9609 98.8064 84.6585 100.465 83.4585 101.297Z" fill="white"></path>
</g>
<path id="Vector_23" d="M135.902 75.8442C135.566 75.4822 135.112 75.2767 134.624 75.262L129.166 75.0712L126.215 58.0391C126.015 56.8893 125.327 55.8814 124.327 55.2796C123.327 54.6778 122.117 54.5408 121.01 54.9028L111.863 57.9021L107.556 51.6637C111.176 47.9403 111.717 42.1716 108.698 37.8023C105.693 33.4525 100.102 31.9162 95.3561 33.9956L86.5805 21.2889C85.9951 20.4424 84.8342 20.232 83.9951 20.8192C83.1512 21.4063 82.9415 22.5659 83.5268 23.4124L83.561 23.4613L67.5366 51.561C67.5366 51.561 67.5268 51.6001 67.522 51.6197L36.8732 75.991C32.9317 79.1225 32.0878 84.8275 34.9512 88.9718C37.0293 91.9809 40.5512 93.4439 43.9756 93.028C45.2732 92.8714 46.5561 92.4457 47.7415 91.7314L60.8927 83.8049L62.9707 85.5028C64.0732 86.403 65.4829 86.7798 66.839 86.6183C67.4049 86.5498 67.9561 86.3835 68.4781 86.1241L78.8781 101.184C79.3707 101.899 80.1122 102.373 80.961 102.53C81.2878 102.589 81.6098 102.598 81.9317 102.559C82.4488 102.496 82.9464 102.31 83.3854 102.006C84.0976 101.512 84.5707 100.768 84.7268 99.9171C84.8829 99.0658 84.6976 98.1997 84.2049 97.4902L73.8 82.4202C75.1805 81.06 75.7073 78.9806 75.0781 77.1017L74.5659 75.5751L81.2488 71.5434C81.2732 71.5434 81.3025 71.5581 81.3268 71.5532C81.3268 71.5532 81.3317 71.5532 81.3366 71.5532L86.0195 70.7948L85.3415 73.5495L79.8829 73.3587C79.3903 73.344 78.9268 73.5153 78.5659 73.8529C78.2049 74.1905 78 74.6455 77.9854 75.1348C77.9512 76.1525 78.7464 77.0039 79.7561 77.0381L86 77.2534C85.7561 79.1616 85.5903 81.0992 85.5268 83.0514C85.1903 92.8567 87.0829 102.153 90.8585 109.228C94.6585 116.347 99.9122 120.379 105.654 120.58C105.8 120.58 105.946 120.589 106.093 120.589C117.702 120.589 127.629 104.57 128.322 84.5389C128.39 82.5866 128.361 80.6441 128.249 78.7213L134.493 78.9365C134.493 78.9365 134.537 78.9365 134.556 78.9365C135.024 78.9365 135.463 78.7604 135.81 78.4424C136.171 78.1048 136.376 77.6497 136.39 77.1604C136.405 76.6711 136.234 76.2014 135.898 75.8394L135.902 75.8442ZM108.249 38.1154C111.093 42.2401 110.61 47.6663 107.239 51.2087L95.6732 34.4605C100.161 32.5474 105.415 34.0152 108.249 38.1203V38.1154ZM84.3073 21.2693C84.4878 21.1421 84.6927 21.0687 84.8976 21.0443C85.3659 20.9855 85.8488 21.1861 86.1366 21.602L115.844 64.6298C116.254 65.2267 116.107 66.0488 115.512 66.4598C114.917 66.8708 114.098 66.724 113.688 66.127L83.9805 23.0993C83.5707 22.5023 83.7171 21.6803 84.3122 21.2693H84.3073ZM47.4683 91.2617C43.4049 93.713 38.1073 92.568 35.4098 88.6586C32.7122 84.7493 33.5073 79.372 37.2195 76.4167L37.9659 75.8198L48.2829 90.7675L47.4634 91.2617H47.4683ZM83.7561 97.7985C84.1659 98.3905 84.322 99.1098 84.1903 99.8193C84.0634 100.529 83.6634 101.145 83.0732 101.556C82.4829 101.967 81.7659 102.124 81.0585 101.992C80.3512 101.864 79.7366 101.463 79.3268 100.871L68.9561 85.8502C69.0146 85.811 69.0781 85.7816 69.1366 85.7376L73.122 82.9683C73.2098 82.9046 73.2927 82.841 73.3756 82.7725L83.7463 97.7936L83.7561 97.7985ZM72.8195 82.523L68.8342 85.2924C67.1659 86.452 64.8976 86.3639 63.322 85.0771L61.3951 83.5065L74.0829 75.8589L74.5561 77.273C75.2049 79.2056 74.4878 81.3634 72.8195 82.523ZM48.7561 90.4837L38.3951 75.4822L67.7512 52.1433L80.8634 71.1324L48.7561 90.4886V90.4837ZM81.4244 70.9808L68.1025 51.6833L83.9073 23.9653L112.854 65.8922L86.6878 70.1294L86.6976 70.0903L86.1756 70.1734L86.1659 70.2126L81.4244 70.9808ZM127.839 84.5242C127.156 104.291 117.449 120.105 106.098 120.1C105.956 120.1 105.815 120.1 105.673 120.09C100.112 119.9 95.0049 115.956 91.2927 108.998C87.5561 101.997 85.6829 92.7833 86.0195 83.0661C86.0878 81.1139 86.2537 79.1763 86.4976 77.2681L127.766 78.7017C127.878 80.6197 127.907 82.567 127.844 84.5193L127.839 84.5242ZM135.483 78.0901C135.22 78.3347 134.878 78.4668 134.517 78.4521L79.7805 76.5488C79.039 76.5244 78.4537 75.8932 78.4781 75.1495C78.4927 74.7874 78.6439 74.4547 78.9073 74.2051C79.1707 73.9556 79.5122 73.8284 79.8732 73.8431L90.7561 74.2198C90.8878 74.2198 91.0049 74.1171 91.0098 73.985C91.0098 73.848 90.9073 73.7354 90.7756 73.7305L85.8537 73.5593L86.5561 70.7019L113.21 66.3864L113.244 66.4353C113.649 67.0224 114.332 67.3013 114.995 67.223C115.283 67.1888 115.571 67.086 115.829 66.905C116.673 66.3179 116.883 65.1583 116.298 64.3118L112.161 58.318L121.171 55.3628C122.141 55.0447 123.205 55.1621 124.083 55.6906C124.961 56.219 125.566 57.1046 125.741 58.1174L128.678 75.0467L97.0195 73.9458C96.8829 73.9507 96.7707 74.0486 96.7659 74.1807C96.7659 74.3177 96.8683 74.4302 97 74.4351L134.62 75.7415C134.98 75.7562 135.312 75.9079 135.561 76.1721C135.805 76.4363 135.937 76.7788 135.922 77.1409C135.907 77.5029 135.756 77.8356 135.493 78.0852L135.483 78.0901Z" fill="#07064E"></path>
</g>
</g>
</g>
</g>
<defs>
<clipPath id="clip0_66_4358">
<rect width="200" height="137" fill="white"></rect>
</clipPath>
</defs>
</svg>