<svg viewBox="0 0 26 26" fill="none" xmlns="http://www.w3.org/2000/svg">
<g id="icon_turn-on" clip-path="url(#clip0_37_4138)">
<g id="icon_turn-on_2">
<g id="color_stroke">
<g id="Vector">
<path d="M17.0335 4.50665C16.7807 4.39632 16.4944 4.39095 16.2376 4.49172C15.9808 4.59249 15.7745 4.79115 15.6642 5.04399C15.5539 5.29683 15.5485 5.58314 15.6493 5.83994C15.75 6.09674 15.9487 6.30299 16.2015 6.41332C17.8865 7.14881 19.2669 8.44205 20.1106 10.0756C20.9542 11.7091 21.2097 13.5833 20.834 15.3831C20.4583 17.1828 19.4744 18.7983 18.0477 19.958C16.6211 21.1176 14.8386 21.7507 13 21.7507C11.1615 21.7507 9.37905 21.1176 7.95236 19.958C6.52567 18.7983 5.54177 17.1828 5.1661 15.3831C4.79042 13.5833 5.04589 11.7091 5.88954 10.0756C6.73319 8.44205 8.11357 7.14881 9.79858 6.41332C10.0514 6.30299 10.2501 6.09674 10.3508 5.83994C10.4516 5.58314 10.4462 5.29683 10.3359 5.04399C10.2256 4.79115 10.0193 4.59249 9.76254 4.49172C9.50574 4.39095 9.21942 4.39632 8.96658 4.50665C6.84361 5.43329 5.10443 7.06265 4.04149 9.12076C2.97855 11.1789 2.65667 13.5402 3.12997 15.8077C3.60328 18.0753 4.8429 20.1107 6.6404 21.5717C8.4379 23.0328 10.6837 23.8303 13 23.8303C15.3164 23.8303 17.5622 23.0328 19.3597 21.5717C21.1572 20.1107 22.3968 18.0753 22.8701 15.8077C23.3434 13.5402 23.0216 11.1789 21.9586 9.12076C20.8957 7.06265 19.1565 5.43329 17.0335 4.50665Z" fill="#06064D"></path>
<path d="M13.0001 12.74C13.2759 12.74 13.5404 12.6304 13.7354 12.4354C13.9305 12.2403 14.0401 11.9758 14.0401 11.7V2.93105C14.0401 2.65523 13.9305 2.3907 13.7354 2.19566C13.5404 2.00062 13.2759 1.89105 13.0001 1.89105C12.7242 1.89105 12.4597 2.00062 12.2647 2.19566C12.0696 2.3907 11.9601 2.65523 11.9601 2.93105V11.7C11.9601 11.9758 12.0696 12.2403 12.2647 12.4354C12.4597 12.6304 12.7242 12.74 13.0001 12.74Z" fill="#06064D"></path>
</g>
</g>
</g>
</g>
<defs>
<clipPath id="clip0_37_4138">
<rect width="26" height="26" fill="white"></rect>
</clipPath>
</defs>
</svg>
