<svg width="26" height="26" viewBox="0 0 26 26" fill="none" xmlns="http://www.w3.org/2000/svg">
<g id="icon_show-graph" clip-path="url(#clip0_37_4134)">
<g id="icon_show-graph_2">
<g id="color_stroke">
<g id="Vector">
<path d="M6.25398 10.92H3.45291C2.97031 10.9204 2.50746 11.1116 2.16524 11.4519C1.82302 11.7922 1.62918 12.2539 1.62598 12.7365V22.7327C1.62689 23.2167 1.81972 23.6807 2.16219 24.0229C2.50466 24.365 2.96882 24.5574 3.45291 24.5579H6.25398C6.73807 24.5574 7.20223 24.365 7.5447 24.0229C7.88716 23.6807 8.07999 23.2167 8.08091 22.7327V12.7365C8.07771 12.2539 7.88387 11.7922 7.54165 11.4519C7.19943 11.1116 6.73657 10.9204 6.25398 10.92ZM6.13264 22.62H3.57424V12.8579H6.13264V22.62Z" fill="#06064D"></path>
<path d="M14.4006 1.62585H11.5996C11.1152 1.62631 10.6508 1.81894 10.3082 2.16146C9.96573 2.50397 9.7731 2.9684 9.77264 3.45279V22.7327C9.77356 23.2167 9.96639 23.6807 10.3089 24.0229C10.6513 24.365 11.1155 24.5574 11.5996 24.5579H14.4006C14.8847 24.5574 15.3489 24.365 15.6914 24.0229C16.0338 23.6807 16.2267 23.2167 16.2276 22.7327V3.45279C16.2271 2.9684 16.0345 2.50397 15.692 2.16146C15.3495 1.81894 14.885 1.62631 14.4006 1.62585ZM14.2793 22.6113H11.7209V3.57412H14.2793V22.6113Z" fill="#06064D"></path>
<path d="M22.5473 6.82585H19.7462C19.2619 6.82631 18.7974 7.01894 18.4549 7.36146C18.1124 7.70397 17.9198 8.1684 17.9193 8.65279V22.7327C17.9202 23.2167 18.1131 23.6807 18.4555 24.0229C18.798 24.365 19.2621 24.5574 19.7462 24.5579H22.5473C23.0314 24.5574 23.4956 24.365 23.838 24.0229C24.1805 23.6807 24.3733 23.2167 24.3742 22.7327V8.65279C24.3738 8.1684 24.1812 7.70397 23.8386 7.36146C23.4961 7.01894 23.0317 6.82631 22.5473 6.82585ZM22.426 22.6113H19.8676V8.77412H22.426V22.6113Z" fill="#06064D"></path>
</g>
</g>
</g>
</g>
<defs>
<clipPath id="clip0_37_4134">
<rect width="26" height="26" fill="white"></rect>
</clipPath>
</defs>
</svg>