<svg width="26" height="26" viewBox="0 0 26 26" fill="none" xmlns="http://www.w3.org/2000/svg">
<g id="icon_menu_vote" clip-path="url(#clip0_51_10)">
<g id="icon_menu_vote_2">
<g id="color_stroke">
<g id="Vector">
<path d="M16.096 12.3127L12.0431 16.3656L9.90415 14.2266C9.75786 14.0803 9.55946 13.9982 9.35259 13.9982C9.14572 13.9982 8.94732 14.0804 8.80105 14.2266C8.65477 14.3729 8.5726 14.5713 8.57261 14.7782C8.57261 14.9851 8.6548 15.1835 8.80109 15.3297L11.4916 18.0202C11.6378 18.1665 11.8362 18.2487 12.0431 18.2487C12.25 18.2487 12.4483 18.1665 12.5946 18.0202L17.199 13.4158C17.3453 13.2695 17.4275 13.0711 17.4275 12.8643C17.4275 12.6574 17.3454 12.459 17.1991 12.3127C17.1267 12.2403 17.0407 12.1828 16.946 12.1436C16.8514 12.1044 16.75 12.0842 16.6475 12.0842C16.4407 12.0842 16.2423 12.1664 16.096 12.3127Z" fill="white"></path>
<path d="M21.2362 3.11998H19.6801V2.5134C19.6801 2.30653 19.5979 2.10813 19.4517 1.96186C19.3054 1.81558 19.107 1.7334 18.9001 1.7334C18.6933 1.7334 18.4949 1.81558 18.3486 1.96186C18.2023 2.10813 18.1201 2.30653 18.1201 2.5134V3.11998H7.91648V2.5134C7.91648 2.30653 7.83431 2.10813 7.68803 1.96186C7.54175 1.81558 7.34335 1.7334 7.13648 1.7334C6.92962 1.7334 6.73122 1.81558 6.58494 1.96186C6.43866 2.10813 6.35648 2.30653 6.35648 2.5134V3.11998H4.76394C3.98345 3.12087 3.23518 3.43131 2.68329 3.9832C2.1314 4.53509 1.82096 5.28336 1.82007 6.06385V21.2361C1.82096 22.0166 2.1314 22.7649 2.68329 23.3168C3.23518 23.8686 3.98345 24.1791 4.76394 24.18H21.2362C22.0167 24.1791 22.7649 23.8686 23.3168 23.3167C23.8687 22.7649 24.1792 22.0166 24.1801 21.2361V6.06385C24.1792 5.28336 23.8687 4.5351 23.3168 3.98321C22.7649 3.43132 22.0167 3.12087 21.2362 3.11998ZM3.38007 6.06385C3.38048 5.69695 3.52642 5.3452 3.78585 5.08576C4.04529 4.82632 4.39704 4.68039 4.76394 4.67998H6.35648V5.4598C6.35648 5.56223 6.37666 5.66366 6.41586 5.75829C6.45506 5.85293 6.51251 5.93892 6.58494 6.01134C6.65737 6.08378 6.74336 6.14123 6.83799 6.18043C6.93263 6.21963 7.03405 6.2398 7.13648 6.2398C7.23892 6.2398 7.34034 6.21963 7.43498 6.18043C7.52961 6.14123 7.6156 6.08378 7.68803 6.01134C7.76046 5.93892 7.81791 5.85293 7.85711 5.75829C7.89631 5.66366 7.91648 5.56223 7.91648 5.4598V4.67998H18.1201V5.4598C18.1201 5.66667 18.2023 5.86507 18.3486 6.01134C18.4949 6.15762 18.6933 6.2398 18.9001 6.2398C19.107 6.2398 19.3054 6.15762 19.4517 6.01134C19.5979 5.86507 19.6801 5.66667 19.6801 5.4598V4.67998H21.2362C21.6031 4.68039 21.9548 4.82632 22.2143 5.08576C22.4737 5.3452 22.6197 5.69695 22.6201 6.06385V7.53972H3.38007V6.06385ZM21.2362 22.62H4.76394C4.39704 22.6196 4.04529 22.4736 3.78585 22.2142C3.52642 21.9548 3.38048 21.603 3.38007 21.2361V9.09973H22.6201V21.2361C22.6197 21.603 22.4737 21.9548 22.2143 22.2142C21.9548 22.4736 21.6031 22.6196 21.2362 22.62Z" fill="white"></path>
</g>
</g>
</g>
</g>
<defs>
<clipPath id="clip0_51_10">
<rect width="26" height="26" fill="white"></rect>
</clipPath>
</defs>
</svg>