<svg width="26" height="26" viewBox="0 0 26 26" fill="none" xmlns="http://www.w3.org/2000/svg">
<g id="icon_menu_team" clip-path="url(#clip0_51_17)">
<g id="icon_menu_team_2">
<g id="color_stroke">
<g id="Vector">
<path d="M13.0002 12.5307C12.2781 12.5307 11.5723 12.3166 10.972 11.9155C10.3717 11.5144 9.90378 10.9443 9.62748 10.2772C9.35117 9.61015 9.27887 8.87615 9.41972 8.16801C9.56057 7.45987 9.90825 6.8094 10.4188 6.29885C10.9293 5.78831 11.5798 5.44062 12.2879 5.29975C12.996 5.15888 13.7301 5.23116 14.3971 5.50745C15.0642 5.78374 15.6343 6.25163 16.0355 6.85195C16.4366 7.45227 16.6507 8.15806 16.6507 8.88007C16.6496 9.84794 16.2647 10.7758 15.5803 11.4602C14.8959 12.1446 13.968 12.5296 13.0002 12.5307ZM13.0002 6.78958C12.7256 6.78957 12.4538 6.84364 12.2001 6.9487C11.9465 7.05376 11.716 7.20774 11.5219 7.40187C11.1298 7.79392 10.9095 8.32566 10.9095 8.88012C10.9095 9.43457 11.1298 9.96632 11.5218 10.3584C11.9139 10.7505 12.4456 10.9707 13.0001 10.9707C13.5545 10.9707 14.0864 10.7505 14.4784 10.3584C14.8705 9.96636 15.0907 9.43461 15.0907 8.88016C15.0907 8.3257 14.8705 7.79396 14.4784 7.4019C14.0864 7.00984 13.5546 6.78958 13.0002 6.78958Z" fill="white"></path>
<path d="M18.5161 22.4817C18.4137 22.4817 18.3122 22.4615 18.2176 22.4223C18.123 22.3831 18.037 22.3256 17.9646 22.2532C17.8921 22.1808 17.8347 22.0948 17.7955 22.0002C17.7563 21.9055 17.7361 21.8041 17.7361 21.7017V18.9344C17.735 17.9363 17.3379 16.9793 16.6321 16.2735C15.9263 15.5677 14.9694 15.1706 13.9712 15.1695H12.0291C11.0309 15.1706 10.0739 15.5677 9.3681 16.2735C8.66228 16.9793 8.26526 17.9363 8.26413 18.9344V21.7017C8.26413 21.9085 8.18195 22.1069 8.03567 22.2532C7.8894 22.3995 7.691 22.4817 7.48413 22.4817C7.27726 22.4817 7.07887 22.3995 6.93259 22.2532C6.78631 22.1069 6.70413 21.9085 6.70413 21.7017V18.9344C6.70573 17.5227 7.26726 16.1692 8.26553 15.1709C9.2638 14.1726 10.6173 13.6111 12.0291 13.6095H13.9712C15.3829 13.6111 16.7364 14.1726 17.7347 15.1709C18.733 16.1692 19.2945 17.5227 19.2961 18.9344V21.7017C19.2961 21.8041 19.2759 21.9055 19.2367 22.0002C19.1975 22.0948 19.1401 22.1808 19.0676 22.2532C18.9952 22.3256 18.9092 22.3831 18.8146 22.4223C18.72 22.4615 18.6185 22.4817 18.5161 22.4817Z" fill="white"></path>
<path d="M13.0001 24.18C10.7889 24.18 8.62734 23.5243 6.7888 22.2958C4.95026 21.0673 3.51729 19.3212 2.6711 17.2784C1.82491 15.2355 1.60351 12.9875 2.03489 10.8188C2.46628 8.65013 3.53107 6.65805 5.09462 5.0945C6.65817 3.53095 8.65026 2.46615 10.819 2.03477C12.9877 1.60339 15.2356 1.82479 17.2785 2.67098C19.3214 3.51717 21.0674 4.95013 22.2959 6.78868C23.5244 8.62722 24.1801 10.7888 24.1801 13C24.1767 15.964 22.9978 18.8058 20.9018 20.9017C18.8059 22.9976 15.9642 24.1766 13.0001 24.18ZM13.0001 3.37995C11.0974 3.37995 9.23749 3.94415 7.65549 5.00121C6.07349 6.05827 4.84047 7.56071 4.11235 9.31854C3.38424 11.0764 3.19373 13.0106 3.56492 14.8767C3.93611 16.7428 4.85232 18.4569 6.19771 19.8023C7.54309 21.1477 9.25721 22.0639 11.1233 22.4351C12.9894 22.8063 14.9237 22.6158 16.6815 21.8877C18.4393 21.1596 19.9418 19.9265 20.9988 18.3445C22.0559 16.7625 22.6201 14.9026 22.6201 13C22.6172 10.4495 21.6027 8.00425 19.7993 6.20077C17.9958 4.3973 15.5506 3.38284 13.0001 3.37995Z" fill="white"></path>
</g>
</g>
</g>
</g>
<defs>
<clipPath id="clip0_51_17">
<rect width="26" height="26" fill="white"></rect>
</clipPath>
</defs>
</svg>