<svg width="200" height="140" viewBox="0 0 200 140" fill="none" xmlns="http://www.w3.org/2000/svg">
<g id="illu_bg_general-meeting/Default" clip-path="url(#clip0_86_1050)">
<g id="illu_bg_general-meeting">
<g id="Vector">
<path d="M170.695 15.5149C193.625 31.1349 195.01 114.43 165.215 123.455C133.765 132.985 140.73 107.56 70.5299 116.02C44.5649 119.15 18.8549 117.255 30.8949 90.8249C43.6549 62.8199 5.7299 78.1849 4.9699 46.3099C4.5049 26.4949 25.7499 2.79992 49.6949 6.67992C112.4 16.8449 153.825 4.01992 170.695 15.5099V15.5149Z" fill="#2BF5BA"></path>
<path d="M21.7149 133.505C26.1718 133.505 29.7849 131.054 29.7849 128.03C29.7849 125.006 26.1718 122.555 21.7149 122.555C17.258 122.555 13.6449 125.006 13.6449 128.03C13.6449 131.054 17.258 133.505 21.7149 133.505Z" fill="#2BF5BA"></path>
<path d="M44.3949 130.34C44.7799 128.865 46.5349 127.98 48.3199 128.365C50.1049 128.75 51.2349 130.255 50.8499 131.735C50.4649 133.21 48.7099 134.095 46.9249 133.71C45.1399 133.325 44.0099 131.82 44.3949 130.34Z" fill="#2BF5BA"></path>
<path d="M190.045 16.8538C191.354 15.8745 191.792 14.2471 191.022 13.219C190.253 12.1908 188.569 12.1511 187.26 13.1304C185.951 14.1096 185.513 15.737 186.282 16.7652C187.051 17.7934 188.736 17.833 190.045 16.8538Z" fill="#2BF5BA"></path>
</g>
<g id="illu_bg_general-meeting_2">
<g id="stroke">
<g id="Group">
<path id="Vector_2" d="M13.4951 100.276C13.3551 100.276 13.2451 100.166 13.2451 100.026C13.2451 99.8857 13.3551 99.7757 13.4951 99.7757L191.835 99.5757C191.975 99.5757 192.085 99.6857 192.085 99.8257C192.085 99.9657 191.975 100.076 191.835 100.076L13.4951 100.276Z" fill="#07064E"></path>
<path id="Vector_3" d="M11.355 100.275H8.10498C7.96498 100.275 7.85498 100.165 7.85498 100.025C7.85498 99.8854 7.96498 99.7754 8.10498 99.7754H11.355C11.495 99.7754 11.605 99.8854 11.605 100.025C11.605 100.165 11.495 100.275 11.355 100.275Z" fill="#2BF5BA"></path>
<path id="Vector_4" d="M59.0352 24.0605H139.525C142.835 24.0605 145.525 26.7505 145.525 30.0605V73.9256H53.0352V30.0605C53.0352 26.7505 55.7252 24.0605 59.0352 24.0605Z" fill="#EDEDED"></path>
<path id="Vector_5" d="M120.825 102.241C120.475 103.751 119.115 104.891 117.5 104.891H81.0649C79.4499 104.891 78.0899 103.756 77.7399 102.241C55.3899 105.481 79.5749 108.706 99.2799 108.566C118.995 108.711 143.16 105.486 120.825 102.241Z" fill="#2AEDB4"></path>
<g id="Vector_6">
<path d="M52.8403 73.8252H145.33V77.0802C145.33 80.3902 142.64 83.0802 139.33 83.0802H58.8403C55.5303 83.0802 52.8403 80.3902 52.8403 77.0802V73.8252Z" fill="white"></path>
<path d="M107.135 83.0153H91.4202V97.9653H107.135V83.0153Z" fill="white"></path>
<path d="M117.495 97.9803H81.0602C79.1742 97.9803 77.6452 99.5092 77.6452 101.395C77.6452 103.281 79.1742 104.81 81.0602 104.81H117.495C119.381 104.81 120.91 103.281 120.91 101.395C120.91 99.5092 119.381 97.9803 117.495 97.9803Z" fill="white"></path>
</g>
<path id="Vector_7" d="M91.6448 82.9604C91.6448 83.0104 91.6348 83.0555 91.6348 83.1055C91.6348 86.9655 95.0548 90.0904 99.2748 90.0904C103.495 90.0904 106.915 86.9655 106.915 83.1055C106.915 83.0555 106.91 83.0104 106.905 82.9604H91.6398H91.6448Z" fill="#EBEBEB"></path>
<path id="Vector_8" d="M139.525 23.8105H59.0352C55.5902 23.8105 52.7852 26.6155 52.7852 30.0605V77.1506C52.7852 80.5956 55.5902 83.4006 59.0352 83.4006H91.1452V97.7306H81.0602C79.0402 97.7306 77.3952 99.3755 77.3952 101.396C77.3952 103.416 79.0402 105.061 81.0602 105.061H117.495C119.515 105.061 121.16 103.416 121.16 101.396C121.16 99.3755 119.515 97.7306 117.495 97.7306H107.41V83.4006H139.52C142.965 83.4006 145.77 80.5956 145.77 77.1506V30.0605C145.77 26.6155 142.965 23.8105 139.52 23.8105H139.525ZM59.0352 24.3105H139.525C142.695 24.3105 145.275 26.8905 145.275 30.0605V73.6455H53.2852V30.0605C53.2852 26.8905 55.8652 24.3105 59.0352 24.3105ZM117.495 98.2306C119.24 98.2306 120.66 99.6505 120.66 101.396C120.66 103.141 119.24 104.561 117.495 104.561H81.0602C79.3152 104.561 77.8952 103.141 77.8952 101.396C77.8952 99.6505 79.3152 98.2306 81.0602 98.2306H117.495ZM91.6452 97.7306V83.4006H106.91V97.7306H91.6452ZM139.525 82.9006H59.0352C55.8652 82.9006 53.2852 80.3205 53.2852 77.1506V74.1455H145.275V77.1506C145.275 80.3205 142.695 82.9006 139.525 82.9006Z" fill="#07064E"></path>
</g>
<g id="Group_2">
<path id="Vector_9" d="M137.62 16.0103H63.8201C61.3403 16.0103 59.3301 18.0205 59.3301 20.5003V67.3503C59.3301 69.83 61.3403 71.8402 63.8201 71.8402H137.62C140.1 71.8402 142.11 69.83 142.11 67.3503V20.5003C142.11 18.0205 140.1 16.0103 137.62 16.0103Z" fill="#DDDDDD"></path>
<path id="Vector_10" d="M137.62 13.8853H63.8201C61.3403 13.8853 59.3301 15.8955 59.3301 18.3753V65.2253C59.3301 67.705 61.3403 69.7152 63.8201 69.7152H137.62C140.1 69.7152 142.11 67.705 142.11 65.2253V18.3753C142.11 15.8955 140.1 13.8853 137.62 13.8853Z" fill="white"></path>
<path id="Vector_11" d="M62.9651 13.8853H138.48C140.485 13.8853 142.115 15.5153 142.115 17.5203V20.2653H59.3301V17.5203C59.3301 15.5153 60.9601 13.8853 62.9651 13.8853Z" fill="#07064E"></path>
<path id="Vector_12" d="M132.575 18.6351C133.437 18.6351 134.135 17.9367 134.135 17.0751C134.135 16.2136 133.437 15.5151 132.575 15.5151C131.714 15.5151 131.015 16.2136 131.015 17.0751C131.015 17.9367 131.714 18.6351 132.575 18.6351Z" fill="white"></path>
<path id="Vector_13" d="M137.095 18.6351C137.957 18.6351 138.655 17.9367 138.655 17.0751C138.655 16.2136 137.957 15.5151 137.095 15.5151C136.234 15.5151 135.535 16.2136 135.535 17.0751C135.535 17.9367 136.234 18.6351 137.095 18.6351Z" fill="#2BF5BA"></path>
<g id="Vector_14">
<path d="M92.6002 48.6351C94.6713 48.6351 96.3502 46.9562 96.3502 44.8851C96.3502 42.814 94.6713 41.1351 92.6002 41.1351C90.5292 41.1351 88.8502 42.814 88.8502 44.8851C88.8502 46.9562 90.5292 48.6351 92.6002 48.6351Z" fill="#07064E"></path>
<path d="M92.6002 50.2901C96.8002 50.2901 100.205 53.7001 100.205 57.8951V60.7501H84.9902V57.8951C84.9902 53.6951 88.4002 50.2901 92.5952 50.2901H92.6002Z" fill="#07064E"></path>
<path d="M113.38 48.4751C115.451 48.4751 117.13 46.7962 117.13 44.7251C117.13 42.654 115.451 40.9751 113.38 40.9751C111.309 40.9751 109.63 42.654 109.63 44.7251C109.63 46.7962 111.309 48.4751 113.38 48.4751Z" fill="#07064E"></path>
<path d="M113.38 50.1301C117.58 50.1301 120.985 53.5401 120.985 57.7351V60.5901H105.77V57.7351C105.77 53.5351 109.18 50.1301 113.375 50.1301H113.38Z" fill="#07064E"></path>
</g>
<g id="Vector_15">
<path d="M124.035 48.4751C126.106 48.4751 127.785 46.7962 127.785 44.7251C127.785 42.654 126.106 40.9751 124.035 40.9751C121.964 40.9751 120.285 42.654 120.285 44.7251C120.285 46.7962 121.964 48.4751 124.035 48.4751Z" fill="#2BF5BA"></path>
<path d="M124.035 50.1301C128.235 50.1301 131.64 53.5401 131.64 57.7351V60.5901H116.425V57.7351C116.425 53.5351 119.835 50.1301 124.03 50.1301H124.035Z" fill="#2BF5BA"></path>
<path d="M103.255 48.6351C105.326 48.6351 107.005 46.9562 107.005 44.8851C107.005 42.814 105.326 41.1351 103.255 41.1351C101.184 41.1351 99.505 42.814 99.505 44.8851C99.505 46.9562 101.184 48.6351 103.255 48.6351Z" fill="#2BF5BA"></path>
<path d="M103.255 50.2901C107.455 50.2901 110.86 53.7001 110.86 57.8951V60.7501H95.645V57.8951C95.645 53.6951 99.055 50.2901 103.25 50.2901H103.255Z" fill="#2BF5BA"></path>
<path d="M82.485 48.6351C84.5561 48.6351 86.235 46.9562 86.235 44.8851C86.235 42.814 84.5561 41.1351 82.485 41.1351C80.4139 41.1351 78.735 42.814 78.735 44.8851C78.735 46.9562 80.4139 48.6351 82.485 48.6351Z" fill="#2BF5BA"></path>
<path d="M82.485 50.2901C86.685 50.2901 90.09 53.7001 90.09 57.8951V60.7501H74.875V57.8951C74.875 53.6951 78.285 50.2901 82.48 50.2901H82.485Z" fill="#2BF5BA"></path>
</g>
<path id="Vector_16" d="M135.89 58.9004H70.6299V65.5704H135.89V58.9004Z" fill="#EDEDED"></path>
<path id="Vector_17" d="M136.18 58.9004H70.34C69.611 58.9004 69.02 59.4914 69.02 60.2204V61.2004C69.02 61.9294 69.611 62.5204 70.34 62.5204H136.18C136.909 62.5204 137.5 61.9294 137.5 61.2004V60.2204C137.5 59.4914 136.909 58.9004 136.18 58.9004Z" fill="white"></path>
<g id="Vector_18">
<path d="M78.4048 41.0204L77.3648 32.8804C77.3448 32.6304 77.3148 32.3804 77.2698 32.1304C76.5948 28.6454 73.2248 26.3654 69.7348 27.0354C66.2498 27.7104 63.9698 31.0804 64.6398 34.5704C65.3098 38.0604 68.6848 40.3354 72.1748 39.6654C73.4298 39.4254 74.5198 38.8304 75.3798 38.0104L78.4048 41.0204Z" fill="#EDEDED"></path>
<path d="M94.7598 27.8754C97.0598 27.3854 99.3248 28.8554 99.8148 31.1554C100.305 33.4554 98.8348 35.7204 96.5348 36.2104C95.6398 36.4004 94.7498 36.2904 93.9698 35.9554L92.9048 38.3904L91.4748 32.9304C90.9848 30.6304 92.4548 28.3654 94.7548 27.8754H94.7598Z" fill="#EDEDED"></path>
<path d="M131.33 26.0804C128.16 25.8854 125.43 28.2954 125.235 31.4654L124.75 39.3204L127.38 36.3004C128.275 37.0204 129.39 37.4854 130.625 37.5604C133.795 37.7554 136.525 35.3454 136.72 32.1754C136.915 29.0054 134.505 26.2754 131.335 26.0804H131.33Z" fill="#EDEDED"></path>
</g>
<path id="Vector_19" d="M137.5 60.5601V61.2001C137.5 61.9301 136.91 62.5201 136.18 62.5201H70.3449C69.6149 62.5201 69.0249 61.9301 69.0249 61.2001V60.5601C68.8699 60.8051 68.7749 61.0901 68.7749 61.4001V62.3801C68.7749 63.2451 69.4799 63.9501 70.3449 63.9501H136.18C137.045 63.9501 137.75 63.2451 137.75 62.3801V61.4001C137.75 61.0901 137.655 60.8001 137.5 60.5601Z" fill="#DDDDDD"></path>
<path id="Vector_20" d="M136.175 58.6504H70.34C69.475 58.6504 68.77 59.3554 68.77 60.2204V61.2004C68.77 62.0654 69.475 62.7704 70.34 62.7704H70.375V65.8154H136.135V62.7704H136.17C137.035 62.7704 137.74 62.0654 137.74 61.2004V60.2204C137.74 59.3554 137.035 58.6504 136.17 58.6504H136.175ZM135.64 65.3204H70.88V62.7754H135.64V65.3204ZM137.25 61.2004C137.25 61.7904 136.77 62.2704 136.18 62.2704H70.345C69.755 62.2704 69.275 61.7904 69.275 61.2004V60.2204C69.275 59.6304 69.755 59.1504 70.345 59.1504H136.18C136.77 59.1504 137.25 59.6304 137.25 60.2204V61.2004Z" fill="#07064E"></path>
</g>
</g>
</g>
</g>
</g>
<defs>
<clipPath id="clip0_86_1050">
<rect width="200" height="140" fill="white"></rect>
</clipPath>
</defs>
</svg>