<svg width="200" height="140" viewBox="0 0 200 140" fill="none" xmlns="http://www.w3.org/2000/svg">
<g id="illu_bg_voting-started/Default" clip-path="url(#clip0_85_2441)">
<g id="illu_bg_voting-started">
<g id="background">
<path id="Vector" d="M178.94 17.8399C215.03 31.5949 194.735 104.075 166.085 119.265C147.07 129.345 99.4595 115.3 58.4995 123.565C26.5695 130.01 15.5545 125.045 27.1595 102.075C39.4595 77.7399 3.81455 69.9049 3.08455 42.2049C2.62955 24.9799 10.5645 4.5799 45.9745 11.9549C118.245 26.9999 146.16 5.3499 178.945 17.8399H178.94Z" fill="#EDEDED"></path>
<g id="Vector_2">
<path d="M194.794 120.4C195.812 117.94 193.665 114.716 189.999 113.198C186.333 111.68 182.535 112.444 181.517 114.903C180.498 117.363 182.645 120.587 186.312 122.105C189.978 123.623 193.776 122.859 194.794 120.4Z" fill="#2BF5BA"></path>
<path d="M177.579 15.1148C213.669 28.8698 193.374 101.35 164.724 116.54C145.709 126.62 98.0992 112.575 57.1392 120.84C25.2092 127.285 14.1942 122.32 25.7992 99.3498C38.0992 75.0148 2.45421 67.1848 1.72421 39.4798C1.26921 22.2548 9.19921 1.8548 44.6092 9.2298C116.879 24.2748 144.794 2.6248 177.579 15.1148Z" fill="#2BF5BA"></path>
<path d="M9.74928 86.0448C9.16928 83.5548 11.0793 80.8798 14.0093 80.0698C16.9393 79.2598 19.7843 80.6248 20.3643 83.1148C20.9443 85.6048 19.0343 88.2798 16.1043 89.0898C13.1743 89.8998 10.3293 88.5348 9.74928 86.0448Z" fill="#2BF5BA"></path>
<path d="M164.836 131.654C166.092 130.715 166.511 129.152 165.771 128.163C165.032 127.175 163.414 127.135 162.158 128.075C160.902 129.014 160.484 130.577 161.223 131.566C161.962 132.554 163.58 132.594 164.836 131.654Z" fill="#2BF5BA"></path>
</g>
</g>
<g id="illu_bg_voting-started_2">
<g id="stroke">
<g id="Group">
<path id="Vector_3" d="M17.0103 97.535C16.8703 97.535 16.7603 97.425 16.7603 97.285C16.7603 97.145 16.8703 97.035 17.0103 97.035L188.285 96.845C188.425 96.845 188.535 96.955 188.535 97.095C188.535 97.235 188.425 97.345 188.285 97.345L17.0103 97.535Z" fill="#07064E"></path>
<path id="Vector_4" d="M14.9551 97.5349H11.8301C11.6901 97.5349 11.5801 97.4249 11.5801 97.2849C11.5801 97.1449 11.6901 97.0349 11.8301 97.0349H14.9551C15.0951 97.0349 15.2051 97.1449 15.2051 97.2849C15.2051 97.4249 15.0951 97.5349 14.9551 97.5349Z" fill="#2BF5BA"></path>
</g>
<g id="Group_2">
<path id="Vector_5" d="M70.9003 110.31C70.0703 111.46 60.5253 114.09 47.3453 114.355C30.9503 114.685 25.5403 112.78 26.1553 111.675C27.4953 109.27 45.8903 107.19 59.0753 107.19C72.2603 107.19 71.6553 109.265 70.9003 110.305V110.31Z" fill="#2AEDB4"></path>
<path id="Vector_6" d="M67.4553 102.625H40.7703L29.8853 106.71V112.155H56.5653L67.4553 108.07V102.625Z" fill="#2BF5BA"></path>
<path id="Vector_7" d="M66.2702 103.07C65.0452 102.85 63.7902 102.69 62.5302 102.625H60.2202C58.3202 102.73 56.4302 103.11 54.6252 103.91C46.5252 107.72 37.4802 103.03 30.3052 106.71H56.5652L66.2702 103.07Z" fill="#2AEDB4"></path>
<g id="Vector_8">
<path d="M29.8853 106.96H56.5653C56.5953 106.96 56.6253 106.955 56.6553 106.945L67.5453 102.86C67.6603 102.82 67.7253 102.7 67.7053 102.58C67.6853 102.46 67.5803 102.375 67.4603 102.375H40.7803C40.7503 102.375 40.7203 102.38 40.6903 102.39L29.8003 106.475C29.6853 106.515 29.6203 106.635 29.6403 106.755C29.6603 106.875 29.7653 106.96 29.8853 106.96ZM40.8153 102.875H66.0753L56.5203 106.46H31.2603L40.8153 102.875Z" fill="#07064E"></path>
<path d="M29.8853 108.32H56.5653C56.5953 108.32 56.6253 108.315 56.6553 108.305L67.5452 104.22C67.6753 104.17 67.7403 104.03 67.6903 103.9C67.6403 103.77 67.4953 103.705 67.3703 103.755L56.5253 107.82H29.8903C29.7503 107.82 29.6403 107.93 29.6403 108.07C29.6403 108.21 29.7503 108.32 29.8903 108.32H29.8853Z" fill="#07064E"></path>
<path d="M67.3652 105.115L56.5203 109.18H29.8853C29.7453 109.18 29.6353 109.29 29.6353 109.43C29.6353 109.57 29.7453 109.68 29.8853 109.68H56.5653C56.5953 109.68 56.6253 109.675 56.6553 109.665L67.5452 105.58C67.6753 105.53 67.7403 105.39 67.6903 105.26C67.6403 105.13 67.4953 105.065 67.3703 105.115H67.3652Z" fill="#07064E"></path>
<path d="M67.3652 106.475L56.5203 110.54H29.8853C29.7453 110.54 29.6353 110.65 29.6353 110.79C29.6353 110.93 29.7453 111.04 29.8853 111.04H56.5653C56.5953 111.04 56.6253 111.035 56.6553 111.025L67.5452 106.94C67.6753 106.89 67.7403 106.75 67.6903 106.62C67.6403 106.49 67.4953 106.425 67.3703 106.475H67.3652Z" fill="#07064E"></path>
<path d="M67.3652 107.835L56.5203 111.9H29.8853C29.7453 111.9 29.6353 112.01 29.6353 112.15C29.6353 112.29 29.7453 112.4 29.8853 112.4H56.5653C56.5953 112.4 56.6253 112.395 56.6553 112.385L67.5452 108.3C67.6753 108.25 67.7403 108.11 67.6903 107.98C67.6403 107.85 67.4953 107.785 67.3703 107.835H67.3652Z" fill="#07064E"></path>
</g>
</g>
<g id="Group_3">
<path id="Vector_9" d="M15.3902 67.0099L43.4302 45.8099L5.99023 45.9049L2.99023 47.3299C4.52523 52.9249 7.98024 58.9799 15.3902 67.0099Z" fill="#2AEDB4"></path>
<g id="Vector_10">
<path d="M15.9253 19.19H12.2503C11.6566 19.19 11.1753 19.6713 11.1753 20.265V44.705C11.1753 45.2987 11.6566 45.78 12.2503 45.78H15.9253C16.519 45.78 17.0003 45.2987 17.0003 44.705V20.265C17.0003 19.6713 16.519 19.19 15.9253 19.19Z" fill="#2BF5BA"></path>
<path d="M22.6803 16.775H18.1253C17.504 16.775 17.0003 17.2787 17.0003 17.9V44.65C17.0003 45.2713 17.504 45.775 18.1253 45.775H22.6803C23.3016 45.775 23.8053 45.2713 23.8053 44.65V17.9C23.8053 17.2787 23.3016 16.775 22.6803 16.775Z" fill="#2AEDB4"></path>
</g>
<path id="Vector_11" d="M29.4802 14.46H27.0052C26.4115 14.46 25.9302 14.9413 25.9302 15.535V44.7C25.9302 45.2937 26.4115 45.775 27.0052 45.775H29.4802C30.0739 45.775 30.5552 45.2937 30.5552 44.7V15.535C30.5552 14.9413 30.0739 14.46 29.4802 14.46Z" fill="#2BF5BA"></path>
<g id="Vector_12">
<path d="M32.8245 23.8824C32.6206 23.3248 32.0033 23.0381 31.4457 23.2421C30.8881 23.446 30.6014 24.0633 30.8054 24.6209L38.285 45.071C38.4889 45.6286 39.1062 45.9153 39.6638 45.7113C40.2214 45.5074 40.5081 44.8901 40.3042 44.3325L32.8245 23.8824Z" fill="#FFC391"></path>
<path d="M17.0003 23.67H11.1753V41.3H17.0003V23.67Z" fill="#FFC391"></path>
<path d="M25.9553 22.925C25.9553 22.3313 25.474 21.85 24.8803 21.85C24.2866 21.85 23.8053 22.3313 23.8053 22.925V44.7C23.8053 45.2937 24.2866 45.775 24.8803 45.775C25.474 45.775 25.9553 45.2937 25.9553 44.7V22.925Z" fill="#FFC391"></path>
</g>
<g id="Vector_13">
<path d="M30.5104 41.4399H25.8604V41.9399H30.5104V41.4399Z" fill="#FF8578"></path>
<path d="M30.5104 18.2999H25.8604V18.7999H30.5104V18.2999Z" fill="#FF8578"></path>
</g>
<path id="Vector_14" d="M43.4303 45.53H40.3253C40.3903 45.45 40.4503 45.36 40.4953 45.265C40.6453 44.945 40.6603 44.585 40.5403 44.25L33.0603 23.8C32.8103 23.115 32.0453 22.76 31.3603 23.01C31.1403 23.09 30.9553 23.225 30.8103 23.4V15.54C30.8103 14.81 30.2153 14.215 29.4853 14.215H27.0103C26.2803 14.215 25.6853 14.81 25.6853 15.54V21.885C25.4603 21.715 25.1853 21.61 24.8853 21.61C24.5853 21.61 24.2853 21.725 24.0603 21.905V17.905C24.0603 17.15 23.4453 16.53 22.6853 16.53H18.1253C17.3703 16.53 16.7503 17.145 16.7503 17.905V19.24C16.5253 19.055 16.2403 18.945 15.9253 18.945H12.2503C11.5203 18.945 10.9253 19.54 10.9253 20.27V44.71C10.9253 45.025 11.0403 45.31 11.2203 45.535H6.17529C6.03529 45.535 5.92529 45.645 5.92529 45.785C5.92529 45.925 6.03529 46.035 6.17529 46.035H39.2903C39.2903 46.035 39.2903 46.035 39.2953 46.035H43.4253C43.5653 46.035 43.6753 45.925 43.6753 45.785C43.6753 45.645 43.5653 45.535 43.4253 45.535L43.4303 45.53ZM31.0653 23.905C31.1603 23.705 31.3253 23.555 31.5303 23.475C31.6253 23.44 31.7203 23.425 31.8103 23.425C32.1453 23.425 32.4653 23.635 32.5853 23.965L40.0653 44.415C40.1403 44.62 40.1303 44.845 40.0403 45.045C39.9453 45.245 39.7803 45.395 39.5753 45.475C39.3703 45.55 39.1453 45.54 38.9453 45.45C38.7453 45.355 38.5953 45.19 38.5203 44.985L31.0403 24.535C30.9653 24.33 30.9753 24.105 31.0653 23.905ZM38.0503 45.155C38.1003 45.29 38.1753 45.415 38.2653 45.525H30.5153C30.7003 45.3 30.8103 45.015 30.8103 44.7V25.36L38.0503 45.155ZM24.8803 22.1C25.2703 22.1 25.5953 22.375 25.6803 22.74V44.705C25.6803 44.745 25.6903 44.78 25.6903 44.82C25.6353 45.22 25.2903 45.53 24.8753 45.53C24.4203 45.53 24.0503 45.16 24.0503 44.705V22.93C24.0503 22.475 24.4203 22.105 24.8753 22.105L24.8803 22.1ZM25.9453 45.485C25.9453 45.485 25.9703 45.515 25.9803 45.525H25.9103C25.9103 45.525 25.9353 45.5 25.9453 45.485ZM23.7903 45.455C23.8103 45.48 23.8303 45.505 23.8503 45.525H23.7303C23.7303 45.525 23.7703 45.48 23.7903 45.455ZM17.0703 45.53H16.9503C16.9503 45.53 16.9903 45.485 17.0103 45.46C17.0303 45.485 17.0503 45.51 17.0703 45.53ZM12.2503 45.53C11.7953 45.53 11.4253 45.16 11.4253 44.705V20.265C11.4253 19.81 11.7953 19.44 12.2503 19.44H15.9253C16.3803 19.44 16.7503 19.81 16.7503 20.265V44.705C16.7503 45.16 16.3803 45.53 15.9253 45.53H12.2503ZM18.1203 45.53C17.6403 45.53 17.2453 45.14 17.2453 44.655V17.9C17.2453 17.42 17.6353 17.025 18.1203 17.025H22.6803C23.1603 17.025 23.5553 17.415 23.5553 17.9V44.655C23.5553 45.135 23.1653 45.53 22.6803 45.53H18.1203ZM27.0053 45.53C26.5903 45.53 26.2503 45.22 26.1903 44.82C26.1903 44.78 26.2003 44.745 26.2003 44.705V22.93C26.2003 22.85 26.1903 22.775 26.1753 22.7V15.54C26.1753 15.085 26.5453 14.715 27.0003 14.715H29.4753C29.9303 14.715 30.3003 15.085 30.3003 15.54V44.705C30.3003 45.16 29.9303 45.53 29.4753 45.53H27.0003H27.0053Z" fill="#07064E"></path>
</g>
<g id="Group_4">
<path id="Vector_15" d="M117.755 99.4049C117.42 100.855 116.11 101.95 114.56 101.95H79.57C78.02 101.95 76.715 100.86 76.375 99.4049C54.91 102.52 78.135 105.615 97.065 105.475C116 105.61 139.205 102.515 117.755 99.4049Z" fill="#2AEDB4"></path>
<path id="Vector_16" d="M58.4153 24.325H135.715C138.895 24.325 141.475 26.9049 141.475 30.0849V72.2099H52.6553V30.09C52.6553 26.91 55.2353 24.33 58.4153 24.33V24.325Z" fill="#EDEDED"></path>
<g id="Vector_17">
<path d="M52.4653 72.12V75.245C52.4653 78.415 55.0603 81.005 58.2253 81.005H89.5153V95.305H104.61V81.005H135.53C138.7 81.005 141.29 78.41 141.29 75.245V72.12H52.4653Z" fill="white"></path>
<path d="M114.56 95.32H79.5703C77.7653 95.32 76.2903 96.795 76.2903 98.6C76.2903 100.405 77.7653 101.88 79.5703 101.88H114.56C116.365 101.88 117.84 100.405 117.84 98.6C117.84 96.795 116.365 95.32 114.56 95.32Z" fill="white"></path>
</g>
<path id="Vector_18" d="M89.7351 80.8949C89.7351 80.9399 89.7251 80.9849 89.7251 81.0299C89.7251 84.7349 93.0101 87.7399 97.0601 87.7399C101.11 87.7399 104.395 84.7349 104.395 81.0299C104.395 80.9849 104.39 80.9399 104.385 80.8949H89.7251H89.7351Z" fill="#EBEBEB"></path>
<path id="Vector_19" d="M124.555 29.6399H70.0255C67.8494 29.6399 66.0854 31.4039 66.0854 33.5799V62.8899C66.0854 65.0659 67.8494 66.8299 70.0255 66.8299H124.555C126.731 66.8299 128.495 65.0659 128.495 62.8899V33.5799C128.495 31.4039 126.731 29.6399 124.555 29.6399Z" fill="#DDDDDD"></path>
<path id="Vector_20" d="M124.555 27.575H70.0255C67.8494 27.575 66.0854 29.3389 66.0854 31.5149V60.825C66.0854 63.001 67.8494 64.7649 70.0255 64.7649H124.555C126.731 64.7649 128.495 63.001 128.495 60.825V31.5149C128.495 29.3389 126.731 27.575 124.555 27.575Z" fill="white"></path>
<path id="Vector_21" d="M69.0853 27.575H125.5C127.155 27.575 128.5 28.92 128.5 30.575V34.02H66.0903V30.575C66.0903 28.92 67.4353 27.575 69.0903 27.575H69.0853Z" fill="#07064E"></path>
<path id="Vector_22" d="M117.405 32.52C118.35 32.52 119.115 31.7544 119.115 30.81C119.115 29.8656 118.35 29.1 117.405 29.1C116.461 29.1 115.695 29.8656 115.695 30.81C115.695 31.7544 116.461 32.52 117.405 32.52Z" fill="white"></path>
<path id="Vector_23" d="M122.365 32.52C123.31 32.52 124.075 31.7544 124.075 30.81C124.075 29.8656 123.31 29.1 122.365 29.1C121.421 29.1 120.655 29.8656 120.655 30.81C120.655 31.7544 121.421 32.52 122.365 32.52Z" fill="#2BF5BA"></path>
<path id="Vector_24" d="M97.4253 62.035C102.926 62.035 107.385 57.5757 107.385 52.075C107.385 46.5742 102.926 42.115 97.4253 42.115C91.9246 42.115 87.4653 46.5742 87.4653 52.075C87.4653 57.5757 91.9246 62.035 97.4253 62.035Z" fill="#EDEDED"></path>
<path id="Vector_25" d="M97.4253 60.66C102.926 60.66 107.385 56.2007 107.385 50.7C107.385 45.1992 102.926 40.74 97.4253 40.74C91.9246 40.74 87.4653 45.1992 87.4653 50.7C87.4653 56.2007 91.9246 60.66 97.4253 60.66Z" fill="white"></path>
<g id="Vector_26">
<path d="M98.2505 38.6949H100.706V36.8049H94.4005V38.6949H96.5955" fill="#EDEDED"></path>
<path d="M103.995 43.2249C103.67 50.3099 99.0704 57.4049 90.7954 58.1199C92.5554 59.695 94.8754 60.66 97.4254 60.66C102.925 60.66 107.385 56.2 107.385 50.7C107.385 47.72 106.07 45.0549 103.995 43.2249Z" fill="#EDEDED"></path>
</g>
<g id="Vector_27">
<path d="M79.4002 52.7499H77.3251C77.1851 52.7499 77.0751 52.6399 77.0751 52.4999C77.0751 52.3599 77.1851 52.2499 77.3251 52.2499H79.4002C79.5402 52.2499 79.6502 52.3599 79.6502 52.4999C79.6502 52.6399 79.5402 52.7499 79.4002 52.7499Z" fill="#FFC391"></path>
<path d="M77.6102 50.2799H75.5352C75.3952 50.2799 75.2852 50.1699 75.2852 50.0299C75.2852 49.8899 75.3952 49.7799 75.5352 49.7799H77.6102C77.7502 49.7799 77.8602 49.8899 77.8602 50.0299C77.8602 50.1699 77.7502 50.2799 77.6102 50.2799Z" fill="#FFC391"></path>
<path d="M79.4002 47.8149H77.3252C77.1852 47.8149 77.0752 47.7049 77.0752 47.5649C77.0752 47.4249 77.1852 47.3149 77.3252 47.3149H79.4002C79.5402 47.3149 79.6502 47.4249 79.6502 47.5649C79.6502 47.7049 79.5402 47.8149 79.4002 47.8149Z" fill="#FFC391"></path>
</g>
<g id="Vector_28">
<path d="M97.2403 45.2799C97.1003 45.2799 96.9903 45.3899 96.9903 45.5299V50.6999C96.9903 50.8399 97.1003 50.9499 97.2403 50.9499H100.91C101.05 50.9499 101.16 50.8399 101.16 50.6999C101.16 50.5599 101.05 50.4499 100.91 50.4499H97.4903V45.5299C97.4903 45.3899 97.3803 45.2799 97.2403 45.2799Z" fill="#07064E"></path>
<path d="M99.4303 40.6899V38.9499H100.71C100.85 38.9499 100.96 38.8399 100.96 38.6999V36.8099C100.96 36.6699 100.85 36.5599 100.71 36.5599H94.4053C94.2653 36.5599 94.1553 36.6699 94.1553 36.8099V38.6999C94.1553 38.8399 94.2653 38.9499 94.4053 38.9499H95.4203V40.6899C90.7453 41.6249 87.2153 45.7549 87.2153 50.6999C87.2153 56.3299 91.7953 60.9099 97.4253 60.9099C103.055 60.9099 107.635 56.3299 107.635 50.6999C107.635 45.7549 104.1 41.6249 99.4303 40.6899ZM94.6503 38.4449V37.0549H100.455V38.4449H98.2503C98.1103 38.4449 98.0003 38.5549 98.0003 38.6949C98.0003 38.8349 98.1103 38.9449 98.2503 38.9449H98.9303V40.6099C98.4353 40.5349 97.9353 40.4849 97.4253 40.4849C96.9153 40.4849 96.4103 40.5349 95.9203 40.6099V38.9449H96.6003C96.7403 38.9449 96.8503 38.8349 96.8503 38.6949C96.8503 38.5549 96.7403 38.4449 96.6003 38.4449H94.6503ZM97.4253 60.4099C92.0703 60.4099 87.7153 56.0549 87.7153 50.6999C87.7153 45.3449 92.0703 40.9899 97.4253 40.9899C102.78 40.9899 107.135 45.3449 107.135 50.6999C107.135 56.0549 102.78 60.4099 97.4253 60.4099Z" fill="#07064E"></path>
<path d="M97.4253 42.0499C92.6553 42.0499 88.7753 45.9299 88.7753 50.6999C88.7753 51.6649 88.9353 52.6149 89.2453 53.5199C89.2903 53.6499 89.4303 53.7199 89.5653 53.6749C89.6953 53.6299 89.7653 53.4899 89.7203 53.3549C89.4253 52.4999 89.2753 51.6099 89.2753 50.6949C89.2753 46.1999 92.9303 42.5449 97.4253 42.5449C101.92 42.5449 105.575 46.1999 105.575 50.6949C105.575 55.1899 101.92 58.8449 97.4253 58.8449C95.4353 58.8449 93.5203 58.1199 92.0303 56.7999C91.9253 56.7099 91.7703 56.7199 91.6753 56.8199C91.5853 56.9249 91.5953 57.0799 91.6953 57.1749C93.2753 58.5749 95.3103 59.3449 97.4253 59.3449C102.195 59.3449 106.075 55.4649 106.075 50.6949C106.075 45.9249 102.195 42.0449 97.4253 42.0449V42.0499Z" fill="#07064E"></path>
<path d="M85.4653 52.2949H81.6953C81.5553 52.2949 81.4453 52.4049 81.4453 52.5449C81.4453 52.6849 81.5553 52.7949 81.6953 52.7949H85.4653C85.6053 52.7949 85.7153 52.6849 85.7153 52.5449C85.7153 52.4049 85.6053 52.2949 85.4653 52.2949Z" fill="#07064E"></path>
<path d="M83.9253 50.0799C83.9253 49.9399 83.8153 49.8299 83.6753 49.8299H79.9053C79.7653 49.8299 79.6553 49.9399 79.6553 50.0799C79.6553 50.2199 79.7653 50.3299 79.9053 50.3299H83.6753C83.8153 50.3299 83.9253 50.2199 83.9253 50.0799Z" fill="#07064E"></path>
<path d="M85.4653 47.3599H81.6953C81.5553 47.3599 81.4453 47.4699 81.4453 47.6099C81.4453 47.7499 81.5553 47.8599 81.6953 47.8599H85.4653C85.6053 47.8599 85.7153 47.7499 85.7153 47.6099C85.7153 47.4699 85.6053 47.3599 85.4653 47.3599Z" fill="#07064E"></path>
</g>
<path id="Vector_29" d="M135.715 24.075H58.4153C55.1003 24.075 52.4053 26.7699 52.4053 30.0849V75.3099C52.4053 78.6249 55.1003 81.32 58.4153 81.32H89.2453V95.065H79.5703C77.6253 95.065 76.0403 96.65 76.0403 98.595C76.0403 100.54 77.6253 102.125 79.5703 102.125H114.56C116.505 102.125 118.09 100.54 118.09 98.595C118.09 96.65 116.505 95.065 114.56 95.065H104.885V81.32H135.715C139.03 81.32 141.725 78.6249 141.725 75.3099V30.09C141.725 26.775 139.03 24.08 135.715 24.08V24.075ZM58.4153 24.575H135.715C138.755 24.575 141.225 27.0499 141.225 30.0849V71.9349H52.9053V30.09C52.9053 27.05 55.3803 24.58 58.4153 24.58V24.575ZM89.7453 95.0699V81.3249H104.385V95.0699H89.7453ZM117.59 98.5999C117.59 100.27 116.23 101.63 114.56 101.63H79.5703C77.9003 101.63 76.5403 100.27 76.5403 98.5999C76.5403 96.9299 77.9003 95.5699 79.5703 95.5699H89.3253C89.3703 95.6149 89.4303 95.64 89.4953 95.64C89.5603 95.64 89.6203 95.6149 89.6653 95.5699H114.56C116.23 95.5699 117.59 96.9299 117.59 98.5999ZM135.715 80.8249H58.4153C55.3753 80.8249 52.9053 78.35 52.9053 75.315V72.44H141.23V75.315C141.23 78.355 138.755 80.8249 135.72 80.8249H135.715Z" fill="#07064E"></path>
</g>
<g id="Group_5">
<path id="Vector_30" d="M161.776 112.03C167.238 112.03 171.666 111.211 171.666 110.2C171.666 109.189 167.238 108.37 161.776 108.37C156.314 108.37 151.886 109.189 151.886 110.2C151.886 111.211 156.314 112.03 161.776 112.03Z" fill="#2AEDB4"></path>
<path id="Vector_31" d="M168.886 81.9349H168.916V74.9649H169.496C170.721 74.9649 171.716 73.9699 171.716 72.7449C171.716 71.5199 170.721 70.5249 169.496 70.5249H154.016C152.791 70.5249 151.796 71.5199 151.796 72.7449C151.796 73.9699 152.791 74.9649 154.016 74.9649H154.596V81.9349H154.656C145.361 88.0949 152.751 100.08 154.751 109.705H168.791C170.786 100.08 178.181 88.0949 168.886 81.9349Z" fill="#FFC391"></path>
<path id="Vector_32" d="M168.886 81.935H168.916V74.965H169.496C170.721 74.965 171.716 73.975 171.716 72.745C171.716 71.515 170.721 70.525 169.496 70.525L164.471 70.5C165.096 71.775 164.986 73.525 164.371 74.945L168.471 74.965L164.246 75.02C164.486 77.405 164.451 79.615 164.346 81.92H164.151C165.746 85.425 166.321 86.205 166.991 89.57C168.151 95.365 167.046 104.06 165.036 109.705H168.791C170.786 100.08 178.181 88.095 168.886 81.935Z" fill="#FFAF6E"></path>
<g id="Vector_33">
<path d="M169.056 54.015C169.056 54.015 166.466 59.41 169.321 61C169.621 61.17 169.871 61.23 170.081 61.22C169.521 58.875 169.361 57.05 169.656 54.785C169.461 54.45 169.261 54.185 169.056 54.015Z" fill="#2AEDB4"></path>
<path d="M162.161 51.715C161.821 51.22 161.476 50.835 161.151 50.615C161.151 50.615 158.546 58.105 162.496 59.785C162.801 59.915 163.056 59.97 163.281 59.98C162.326 57.19 161.861 54.535 162.161 51.715Z" fill="#2AEDB4"></path>
<path d="M166.436 65.985C165.631 67.365 164.671 68.58 163.911 68.28C163.566 68.145 163.506 67.815 163.626 67.38C164.611 66.595 165.391 65.975 166.441 65.985H166.436Z" fill="#2AEDB4"></path>
<path d="M170.771 64.43C170.846 64.48 170.921 64.525 171.016 64.57C174.371 66.235 179.416 59.81 179.416 59.81C178.561 59.585 176.791 59.93 175.031 60.54C173.421 61.46 172.046 62.8 170.771 64.43Z" fill="#2AEDB4"></path>
<path d="M171.696 57.93C171.796 58.205 172.061 58.425 172.561 58.575C174.991 59.285 177.056 56.305 178.076 54.45C176.246 56.3 174.086 57.57 171.691 57.935L171.696 57.93Z" fill="#2AEDB4"></path>
<path d="M173.311 50.43C173.436 50.535 173.596 50.635 173.811 50.72C176.276 51.715 179.286 48.575 180.816 46.67C177.856 46.23 175.041 47.96 173.311 50.43Z" fill="#2AEDB4"></path>
<path d="M173.511 43.995C173.436 44.5 173.691 44.855 174.436 44.925C176.701 45.14 178.286 42.065 179.071 40.085C177.416 41.69 175.831 43.215 173.511 43.99V43.995Z" fill="#2AEDB4"></path>
<path d="M171.041 29.09C172.106 32.255 173.356 35.665 173.061 38.935C176.306 40.305 173.576 29.945 171.041 29.09Z" fill="#2AEDB4"></path>
<path d="M155.701 69.46C155.606 69.495 155.506 69.53 155.386 69.555C151.116 70.515 146.251 61.32 146.251 61.32C147.301 61.315 149.346 62.265 151.326 63.53C153.076 65.115 154.476 67.13 155.701 69.46Z" fill="#2AEDB4"></path>
<path d="M157.096 54.3C156.986 54.535 156.726 54.715 156.266 54.81C154.016 55.265 152.366 52.46 151.581 50.735C153.101 52.515 154.961 53.8 157.096 54.3Z" fill="#2AEDB4"></path>
<path d="M157.671 45.005C157.471 45.005 157.241 44.95 156.976 44.91C153.661 44.405 153.701 38.63 154.326 36.12C155.646 41.025 158.206 42.17 157.671 45.01V45.005Z" fill="#2AEDB4"></path>
</g>
<g id="Group_6">
<path id="Vector_34" d="M134.171 53.5149C134.171 53.5149 141.801 55.1699 145.961 53.1499C149.546 51.4099 135.956 49.1449 134.171 53.5149Z" fill="#2AEDB4"></path>
<path id="Vector_35" d="M141.206 40.1749C141.206 40.1749 146.506 46.3649 147.106 51.2699C147.621 55.4949 138.716 44.1199 141.206 40.1749Z" fill="#2BF5BA"></path>
<path id="Vector_36" d="M134.751 50.7149C134.751 50.7149 141.931 54.1099 146.481 53.1599C150.396 52.3399 137.461 46.9399 134.751 50.7149Z" fill="#2BF5BA"></path>
<path id="Vector_37" d="M139.406 41.9949C139.406 41.9949 145.836 46.8499 147.476 51.5549C148.886 55.6049 137.871 46.4799 139.406 41.9949Z" fill="#2AEDB4"></path>
<path id="Vector_38" d="M135.631 48.05C135.631 48.05 142.056 52.915 146.751 53C150.796 53.075 139.076 45.01 135.631 48.05Z" fill="#2AEDB4"></path>
<path id="Vector_39" d="M137.686 44.0499C137.686 44.0499 144.871 47.4399 147.401 51.7349C149.581 55.4349 137.111 48.8299 137.686 44.0499Z" fill="#2BF5BA"></path>
</g>
<g id="Group_7">
<path id="Vector_40" d="M146.081 25.665C146.081 25.665 152.181 31.8949 157.306 32.5649C161.716 33.1449 150.431 22.685 146.081 25.665Z" fill="#2AEDB4"></path>
<path id="Vector_41" d="M160.831 17.5449C160.831 17.5449 161.976 26.5699 159.521 31.5199C157.406 35.7799 156.091 19.6949 160.831 17.5449Z" fill="#2BF5BA"></path>
<path id="Vector_42" d="M148.34 23.41C148.34 23.41 152.95 30.99 157.78 32.895C161.935 34.535 153.185 21.555 148.34 23.41Z" fill="#2BF5BA"></path>
<path id="Vector_43" d="M158.035 18.1349C158.035 18.1349 161.05 26.6149 159.69 32.0099C158.52 36.6549 153.85 21.3749 158.035 18.1349Z" fill="#2AEDB4"></path>
<path id="Vector_44" d="M150.795 21.4649C150.795 21.4649 153.8 29.9449 158.13 32.9149C161.855 35.4699 155.88 20.7449 150.795 21.4649Z" fill="#2AEDB4"></path>
<path id="Vector_45" d="M155.171 18.9949C155.171 18.9949 159.791 26.5699 159.511 32.1299C159.271 36.9199 151.696 23.0999 155.171 18.9949Z" fill="#2BF5BA"></path>
</g>
<path id="Vector_46" d="M176.25 43.7499C176.25 43.7499 173.051 49.2399 169.461 50.6799C166.371 51.9199 172.5 42.4999 176.25 43.7499Z" fill="#2AEDB4"></path>
<path id="Vector_47" d="M163.916 40.895C163.916 40.895 164.876 47.39 167.636 50.365C170.016 52.925 167.786 41.49 163.916 40.895Z" fill="#2BF5BA"></path>
<path id="Vector_48" d="M174.161 42.605C174.161 42.605 172.311 48.75 169.181 50.995C166.486 52.925 170.271 42.235 174.161 42.605Z" fill="#2BF5BA"></path>
<path id="Vector_49" d="M166.066 40.775C166.066 40.775 165.556 47.245 167.611 50.74C169.381 53.75 169.751 42.235 166.066 40.775Z" fill="#2AEDB4"></path>
<path id="Vector_50" d="M171.991 41.72C171.991 41.72 171.486 48.19 168.926 51.075C166.721 53.56 168.151 42.185 171.991 41.72Z" fill="#2AEDB4"></path>
<path id="Vector_51" d="M168.321 40.83C168.321 40.83 166.466 46.975 167.766 50.79C168.891 54.08 171.656 43.025 168.321 40.83Z" fill="#2BF5BA"></path>
<g id="Vector_52">
<path d="M169.166 81.8251V75.2151H169.496C170.856 75.2151 171.966 74.1051 171.966 72.7451C171.966 71.3851 170.856 70.2751 169.496 70.2751H154.016C152.656 70.2751 151.546 71.3851 151.546 72.7451C151.546 74.1051 152.656 75.2151 154.016 75.2151H154.346V81.8451C147.331 86.6551 149.936 94.7651 152.466 102.605C153.236 105 154.036 107.47 154.506 109.75C154.531 109.865 154.631 109.95 154.751 109.95H168.791C168.911 109.95 169.011 109.865 169.036 109.75C169.511 107.47 170.306 104.995 171.076 102.605C173.606 94.7501 176.221 86.6301 169.161 81.8201L169.166 81.8251ZM152.046 72.7451C152.046 71.6601 152.931 70.7751 154.016 70.7751H169.496C170.581 70.7751 171.466 71.6601 171.466 72.7451C171.466 73.8301 170.581 74.7151 169.496 74.7151H168.966C168.966 74.7151 168.931 74.7051 168.911 74.7051C168.891 74.7051 168.876 74.7101 168.856 74.7151H154.646C154.646 74.7151 154.611 74.7051 154.591 74.7051C154.571 74.7051 154.556 74.7101 154.536 74.7151H154.006C152.921 74.7151 152.036 73.8301 152.036 72.7451H152.046ZM170.606 102.455C169.851 104.79 169.076 107.205 168.591 109.455H154.956C154.476 107.205 153.696 104.79 152.941 102.455C150.456 94.7451 147.891 86.7801 154.736 82.1851H156.206C156.346 82.1851 156.456 82.0751 156.456 81.9351C156.456 81.7951 156.346 81.6851 156.206 81.6851H154.846V75.2151H168.661V81.6851H159.461C159.321 81.6851 159.211 81.7951 159.211 81.9351C159.211 82.0751 159.321 82.1851 159.461 82.1851H168.801C175.646 86.7801 173.081 94.7451 170.596 102.455H170.606Z" fill="#07064E"></path>
<path d="M147.896 52.4751C147.896 52.3701 147.886 52.2551 147.846 52.1301C147.846 51.9451 147.796 51.7301 147.706 51.4751C147.566 51.0751 147.381 50.6501 147.161 50.2101C146.056 45.5001 141.581 40.2351 141.391 40.0101C141.341 39.9501 141.261 39.9151 141.181 39.9251C141.101 39.9301 141.031 39.9751 140.986 40.0401C140.576 40.6901 140.431 41.5501 140.551 42.6001C139.946 42.0901 139.556 41.7951 139.551 41.7901C139.486 41.7401 139.406 41.7251 139.326 41.7501C139.251 41.7751 139.191 41.8351 139.161 41.9101C138.901 42.6701 138.961 43.5801 139.331 44.6301C138.411 44.1201 137.791 43.8251 137.786 43.8201C137.711 43.7851 137.631 43.7901 137.556 43.8251C137.486 43.8651 137.436 43.9351 137.431 44.0151C137.316 44.9601 137.661 46.0151 138.456 47.1501C137.151 47.0151 136.141 47.2551 135.456 47.8601C135.401 47.9101 135.371 47.9801 135.371 48.0551C135.371 48.1301 135.411 48.2001 135.471 48.2451C135.476 48.2501 136.031 48.6701 136.916 49.2501C135.821 49.4451 135.026 49.8851 134.541 50.5601C134.496 50.6201 134.481 50.6951 134.501 50.7701C134.521 50.8401 134.571 50.9001 134.636 50.9351C134.641 50.9351 135.171 51.1851 136.011 51.5251C134.961 51.9801 134.261 52.6151 133.936 53.4151C133.906 53.4851 133.911 53.5601 133.946 53.6251C133.981 53.6901 134.041 53.7351 134.116 53.7501C134.306 53.7901 137.166 54.3951 140.316 54.3951C142.181 54.3951 144.151 54.1801 145.731 53.5151C146.021 53.4851 146.281 53.4451 146.526 53.3951C146.716 53.3551 146.876 53.3001 147.016 53.2301C147.396 53.1951 147.601 53.0751 147.711 52.9351C151.206 53.8501 155.731 59.6801 156.381 67.7401C155.581 66.2051 153.091 64.4101 152.251 63.8301C150.236 62.4501 147.601 61.0601 146.251 61.0601C146.161 61.0601 146.076 61.1051 146.026 61.1801C145.981 61.2551 145.981 61.3501 146.021 61.4251C146.211 61.7851 150.541 69.8651 154.741 69.8651C154.971 69.8651 155.201 69.8401 155.431 69.7901C155.981 69.6651 156.286 69.4451 156.451 69.2001C156.461 69.6201 156.461 70.0451 156.451 70.4751C156.451 70.6151 156.556 70.7301 156.691 70.7301H156.701C156.836 70.7301 156.946 70.6251 156.951 70.4851C157.241 60.8301 151.931 53.5751 147.891 52.4601L147.896 52.4751ZM145.521 53.0701C141.911 54.5901 135.966 53.6051 134.536 53.3351C134.926 52.6601 135.681 52.1351 136.786 51.7751C136.886 51.7401 136.956 51.6501 136.956 51.5451C136.956 51.4401 136.896 51.3451 136.796 51.3051C136.056 51.0201 135.471 50.7701 135.146 50.6251C135.666 50.0851 136.506 49.7651 137.646 49.6701C137.751 49.6601 137.841 49.5851 137.866 49.4801C137.891 49.3751 137.846 49.2651 137.756 49.2101C136.971 48.7101 136.366 48.2851 136.036 48.0501C136.706 47.6151 137.691 47.5101 138.966 47.7351C139.071 47.7551 139.171 47.7051 139.226 47.6151C139.281 47.5251 139.271 47.4151 139.206 47.3301C138.361 46.2701 137.926 45.3001 137.906 44.4451C138.276 44.6301 138.921 44.9651 139.706 45.4201C139.801 45.4751 139.921 45.4601 140.001 45.3901C140.081 45.3201 140.106 45.2001 140.061 45.1001C139.586 44.0601 139.411 43.1601 139.541 42.4251C139.806 42.6351 140.226 42.9801 140.736 43.4251C140.816 43.4951 140.936 43.5051 141.026 43.4501C141.121 43.3951 141.166 43.2901 141.146 43.1851C140.931 42.1301 140.961 41.2701 141.241 40.6251C142.196 41.8001 145.751 46.3651 146.676 50.3551C146.676 50.3701 146.686 50.3851 146.691 50.4001C146.101 52.1251 145.536 53.0351 145.511 53.0701H145.521ZM155.331 69.3101C151.796 70.1051 147.701 63.3701 146.701 61.6151C149.396 62.1101 155.911 66.5251 156.141 68.5301C156.161 68.6901 156.206 69.1151 155.336 69.3101H155.331Z" fill="#07064E"></path>
<path d="M159.661 32.7651C159.771 32.5951 159.861 32.3701 159.936 32.0701C160.051 31.6101 160.141 31.1001 160.201 30.5551C162.061 25.4851 161.121 17.8301 161.081 17.5101C161.071 17.4301 161.026 17.3601 160.956 17.3251C160.886 17.2851 160.801 17.2851 160.731 17.3151C159.941 17.6751 159.271 18.4051 158.736 19.4901C158.471 18.6051 158.281 18.0551 158.276 18.0501C158.251 17.9751 158.186 17.9151 158.111 17.8951C158.036 17.8751 157.951 17.8901 157.886 17.9351C157.171 18.4901 156.661 19.3951 156.366 20.6351C155.801 19.5551 155.386 18.8701 155.386 18.8651C155.346 18.7951 155.271 18.7501 155.191 18.7451C155.111 18.7351 155.031 18.7701 154.981 18.8301C154.291 19.6501 153.966 20.8551 154.021 22.4251C152.871 21.4751 151.776 21.0701 150.761 21.2101C150.686 21.2201 150.621 21.2651 150.581 21.3301C150.541 21.3951 150.536 21.4701 150.561 21.5451C150.561 21.5551 150.836 22.3151 151.321 23.4401C150.161 22.9301 149.131 22.8401 148.256 23.1751C148.186 23.2001 148.131 23.2601 148.111 23.3301C148.086 23.4001 148.096 23.4751 148.136 23.5401C148.136 23.5451 148.496 24.1251 149.096 24.9901C147.811 24.7501 146.756 24.9101 145.951 25.4651C145.891 25.5051 145.851 25.5751 145.846 25.6451C145.841 25.7201 145.866 25.7901 145.916 25.8451C146.156 26.0901 151.826 31.8301 156.886 32.7551C157.171 32.9051 157.441 33.0251 157.701 33.1301C157.901 33.2101 158.081 33.2551 158.256 33.2751C158.486 33.4001 158.691 33.4651 158.866 33.4651C158.871 33.4651 158.881 33.4651 158.886 33.4651C159.576 36.6301 159.401 39.7051 158.946 42.8401C158.446 40.3351 156.091 36.6551 154.441 35.9001C154.371 35.8701 154.291 35.8701 154.226 35.9001C154.161 35.9301 154.111 35.9951 154.091 36.0701C154.021 36.3951 152.421 43.9901 156.921 45.1551C157.201 45.2301 157.446 45.2601 157.661 45.2601C158.106 45.2601 158.406 45.1201 158.606 44.9351C158.491 45.6051 158.366 46.2751 158.241 46.9551C157.866 48.9951 157.476 51.1251 157.231 53.3651C156.366 51.6501 152.666 49.2101 151.086 49.2101H151.071C150.991 49.2101 150.916 49.2501 150.871 49.3151C150.826 49.3801 150.811 49.4651 150.836 49.5401C150.916 49.7801 152.721 55.1201 155.791 55.1201C155.966 55.1201 156.146 55.1001 156.331 55.0651C156.696 54.9901 156.941 54.8651 157.106 54.7251C156.741 59.4251 157.131 64.6301 159.686 70.6051C159.726 70.7001 159.821 70.7551 159.916 70.7551C159.951 70.7551 159.981 70.7501 160.016 70.7351C160.141 70.6801 160.201 70.5351 160.146 70.4051C156.151 61.0851 157.466 53.9451 158.731 47.0501C159.591 42.3651 160.401 37.9401 159.361 33.2751C159.501 33.1751 159.606 33.0101 159.676 32.7751L159.661 32.7651ZM158.451 44.2551C158.391 44.4301 158.201 44.9651 157.036 44.6651C153.496 43.7501 154.256 37.9651 154.506 36.5051C156.336 37.7001 159.066 42.5301 158.451 44.2551ZM156.216 54.5651C153.696 55.0801 151.921 51.0101 151.431 49.7401C153.166 50.0851 156.761 52.6251 156.906 53.9601C156.921 54.0851 156.956 54.4151 156.216 54.5651ZM146.486 25.7151C147.276 25.3051 148.321 25.2701 149.601 25.6201C149.701 25.6451 149.811 25.6101 149.871 25.5201C149.931 25.4351 149.931 25.3151 149.871 25.2301C149.336 24.4851 148.936 23.8801 148.726 23.5501C149.556 23.3501 150.556 23.5601 151.706 24.1901C151.801 24.2401 151.916 24.2301 151.996 24.1551C152.076 24.0801 152.096 23.9651 152.056 23.8701C151.616 22.8901 151.306 22.1001 151.151 21.6901H151.166C152.076 21.6901 153.071 22.1951 154.141 23.2051C154.216 23.2751 154.331 23.2951 154.421 23.2501C154.516 23.2051 154.571 23.1051 154.561 23.0001C154.426 21.4601 154.621 20.2701 155.151 19.4501C155.376 19.8451 155.786 20.5701 156.256 21.5101C156.306 21.6051 156.411 21.6601 156.516 21.6451C156.621 21.6301 156.706 21.5451 156.726 21.4351C156.926 20.1401 157.331 19.1801 157.926 18.5701C158.041 18.9251 158.231 19.5201 158.446 20.2851C158.476 20.3901 158.566 20.4601 158.671 20.4651C158.776 20.4801 158.876 20.4101 158.916 20.3101C159.376 19.1651 159.951 18.3701 160.626 17.9351C160.791 19.5401 161.326 26.0701 159.721 30.4101C159.716 30.4251 159.711 30.4451 159.711 30.4601C158.551 31.5151 157.381 32.1351 157.076 32.2851C157.051 32.2751 157.031 32.2651 157.006 32.2601C152.651 31.4851 147.611 26.7951 146.496 25.7101L146.486 25.7151Z" fill="#07064E"></path>
<path d="M173.716 50.9551C174.071 51.1001 174.436 51.1651 174.806 51.1651C178.181 51.1651 181.856 45.7301 182.026 45.4701C182.071 45.4001 182.081 45.3101 182.046 45.2351C182.011 45.1551 181.941 45.1001 181.861 45.0851C180.006 44.7451 174.706 47.0351 173.191 48.9101C173.206 48.6601 173.221 48.4151 173.231 48.1651C174.326 47.0051 175.221 45.7701 175.791 44.9251C178.386 43.7301 179.786 38.7951 179.856 38.5501C179.876 38.4701 179.856 38.3851 179.806 38.3201C179.751 38.2551 179.671 38.2251 179.591 38.2351C178.236 38.3801 175.466 40.5151 174.076 42.3651C174.031 42.3651 173.986 42.3651 173.941 42.3651C174.066 41.3001 174.086 40.2251 174.096 39.1751C174.126 39.1551 174.161 39.1451 174.191 39.1251C174.931 38.5651 174.851 36.9951 174.651 35.7751C174.236 33.2351 172.776 29.4151 171.111 28.8551C171.041 28.8301 170.966 28.8401 170.901 28.8751C170.836 28.9151 170.796 28.9751 170.781 29.0451C170.721 29.3901 169.371 37.5101 172.871 39.1351C173.131 39.2551 173.371 39.3201 173.591 39.3201C173.581 40.3451 173.556 41.3901 173.431 42.4201C172.986 42.5151 172.536 42.7151 172.076 43.0501C172.186 42.2701 172.226 41.7701 172.231 41.7401C172.236 41.6651 172.211 41.5901 172.156 41.5401C172.101 41.4901 172.026 41.4651 171.951 41.4751C171.196 41.5651 170.491 42.0351 169.856 42.8651C169.576 41.8101 169.101 41.0601 168.451 40.6301C168.386 40.5901 168.301 40.5751 168.226 40.6051C168.151 40.6351 168.096 40.6901 168.071 40.7701C168.061 40.7951 167.921 41.2751 167.741 42.0401C167.291 41.2951 166.756 40.7951 166.146 40.5551C166.071 40.5251 165.991 40.5351 165.921 40.5751C165.856 40.6151 165.811 40.6901 165.806 40.7701C165.806 40.7901 165.776 41.1351 165.761 41.7101C165.176 41.1101 164.566 40.7551 163.946 40.6601C163.866 40.6501 163.786 40.6751 163.731 40.7301C163.676 40.7851 163.646 40.8651 163.661 40.9451C163.696 41.1801 164.531 46.6901 166.896 49.8801C167.046 50.2451 167.216 50.5851 167.391 50.8851C167.506 51.0801 167.616 51.2251 167.736 51.3251C167.796 51.4201 167.866 51.4951 167.941 51.5501C167.506 52.6951 166.966 53.6001 166.396 54.5551C165.801 55.5451 165.176 56.5851 164.636 57.9851C164.491 55.4151 162.746 51.3951 161.286 50.4301C161.221 50.3901 161.141 50.3751 161.066 50.4001C160.991 50.4251 160.936 50.4801 160.911 50.5551C160.801 50.8701 158.276 58.2851 162.396 60.0351C162.766 60.1901 163.071 60.2551 163.326 60.2551C163.606 60.2551 163.816 60.1801 163.981 60.0751C163.401 62.4051 163.046 65.5901 163.176 70.3351C163.176 70.4701 163.291 70.5801 163.426 70.5801H163.431C163.571 70.5801 163.676 70.4601 163.676 70.3251C163.656 69.6701 163.651 69.0451 163.651 68.4501C163.711 68.4901 163.766 68.5201 163.821 68.5401C163.926 68.5801 164.036 68.6001 164.146 68.6001C165.866 68.6001 167.916 63.7301 168.331 62.7001C168.361 62.6251 168.351 62.5351 168.306 62.4651C168.261 62.3951 168.181 62.3551 168.101 62.3551C167.191 62.3551 164.631 64.8351 163.686 66.6351C163.911 59.6751 165.451 57.1101 166.831 54.8201C167.421 53.8351 167.981 52.9051 168.436 51.6951C168.581 51.6801 168.751 51.6151 168.956 51.4301C169.081 51.3851 169.206 51.3151 169.336 51.2201C169.501 51.1001 169.671 50.9651 169.851 50.8051C170.871 50.3351 171.841 49.5751 172.716 48.7251C172.541 51.7651 171.941 54.7951 171.346 57.7301C171.276 58.0701 171.206 58.4201 171.136 58.7651C170.946 56.8751 170.106 54.5701 169.226 53.8401C169.166 53.7901 169.086 53.7701 169.011 53.7901C168.936 53.8051 168.871 53.8551 168.841 53.9251C168.731 54.1551 166.186 59.5501 169.211 61.2351C169.546 61.4201 169.821 61.4901 170.051 61.4901C170.281 61.4901 170.451 61.4201 170.581 61.3251C170.536 61.5101 170.501 61.6951 170.456 61.8801C169.756 64.7801 168.811 67.6451 167.646 70.3951C167.591 70.5201 167.651 70.6701 167.781 70.7251C167.811 70.7401 167.846 70.7451 167.876 70.7451C167.971 70.7451 168.066 70.6901 168.106 70.5901C168.961 68.5651 169.696 66.4801 170.311 64.3651C170.441 64.5201 170.631 64.6751 170.911 64.8151C171.331 65.0251 171.776 65.1151 172.231 65.1151C175.541 65.1151 179.431 60.2201 179.616 59.9851C179.666 59.9201 179.681 59.8301 179.656 59.7501C179.631 59.6701 179.566 59.6101 179.481 59.5901C177.746 59.1351 172.716 60.8151 170.806 62.4851C170.846 62.3251 170.896 62.1651 170.936 62.0001C171.226 60.8001 171.471 59.6001 171.711 58.4201C171.876 58.5801 172.121 58.7301 172.491 58.8401C172.766 58.9201 173.041 58.9601 173.306 58.9601C176.541 58.9601 178.886 53.4401 178.996 53.1851C179.026 53.1101 179.021 53.0301 178.981 52.9601C178.941 52.8901 178.871 52.8451 178.791 52.8401C177.261 52.7051 173.691 54.5751 172.141 56.2851C172.511 54.4051 172.856 52.4901 173.066 50.5601C173.211 50.7101 173.411 50.8601 173.721 50.9801L173.716 50.9551ZM173.306 49.7001C173.761 48.1201 179.166 45.6101 181.361 45.5501C180.371 46.9101 176.696 51.6151 173.906 50.4901C173.166 50.1901 173.271 49.8351 173.306 49.7001ZM173.091 38.6851C170.306 37.3901 171.021 30.9951 171.236 29.4651C172.456 30.2401 173.751 33.3301 174.166 35.8551C174.411 37.3401 174.306 38.4101 173.896 38.7251C173.716 38.8601 173.446 38.8501 173.091 38.6851ZM163.836 67.5751C164.086 66.2401 166.496 63.6851 167.651 63.0001C166.601 65.4601 164.906 68.4051 164.001 68.0501C163.921 68.0201 163.761 67.9551 163.831 67.5751H163.836ZM163.956 59.3651C163.871 59.5201 163.616 59.9951 162.591 59.5551C159.366 58.1801 160.841 52.4951 161.276 51.0351C162.856 52.5051 164.806 57.7801 163.951 59.3601L163.956 59.3651ZM170.421 60.7651C170.346 60.8751 170.146 61.1701 169.446 60.7801C167.221 59.5401 168.646 55.6251 169.136 54.4551C170.171 55.7451 171.156 59.6801 170.416 60.7651H170.421ZM178.761 59.9901C178.821 59.9901 178.881 59.9901 178.936 59.9901C177.846 61.2701 173.826 65.6801 171.126 64.3451C170.411 63.9901 170.541 63.6401 170.591 63.5101C171.151 62.0101 176.461 59.9851 178.766 59.9851L178.761 59.9901ZM178.376 53.3201C177.756 54.6351 175.406 59.1451 172.631 58.3401C171.806 58.1001 171.881 57.7101 171.911 57.5651C172.196 56.0701 176.456 53.5251 178.376 53.3251V53.3201ZM179.261 38.8101C178.936 39.8201 177.951 42.5101 176.466 43.8701C176.501 43.8051 176.511 43.7301 176.481 43.6601C176.456 43.5901 176.396 43.5351 176.326 43.5101C175.651 43.2851 174.886 43.3551 174.041 43.7201C174.181 43.3351 174.281 43.0401 174.336 42.8601C175.421 41.3301 177.741 39.2601 179.256 38.8101H179.261ZM169.686 50.3001C168.536 49.9201 167.741 49.7101 167.336 49.6151C167.336 49.6051 167.326 49.6001 167.321 49.5901C165.366 46.9701 164.456 42.5301 164.226 41.2251C164.761 41.4101 165.291 41.8401 165.816 42.5001C165.881 42.5851 165.991 42.6151 166.091 42.5801C166.191 42.5451 166.261 42.4501 166.261 42.3451C166.261 41.8451 166.281 41.4351 166.291 41.1651C166.796 41.4801 167.246 42.0451 167.621 42.8501C167.666 42.9451 167.766 43.0051 167.876 42.9951C167.981 42.9801 168.071 42.9051 168.091 42.8001C168.231 42.1301 168.371 41.5901 168.456 41.2601C168.951 41.7251 169.301 42.4801 169.496 43.5151C169.516 43.6151 169.591 43.6951 169.696 43.7151C169.796 43.7351 169.901 43.6901 169.956 43.6051C170.501 42.7501 171.091 42.2251 171.711 42.0351C171.676 42.3701 171.606 42.9301 171.496 43.6201C171.481 43.7251 171.531 43.8301 171.626 43.8801C171.721 43.9301 171.836 43.9151 171.916 43.8451C172.581 43.2351 173.221 42.9001 173.826 42.8551C173.731 43.1351 173.576 43.5901 173.361 44.1401C173.321 44.2401 173.351 44.3501 173.431 44.4201C173.511 44.4901 173.626 44.5001 173.716 44.4501C174.526 43.9951 175.246 43.8151 175.866 43.9151C175.181 45.0151 172.571 48.9451 169.696 50.3051L169.686 50.3001Z" fill="#07064E"></path>
</g>
</g>
</g>
</g>
</g>
</g>
<defs>
<clipPath id="clip0_85_2441">
<rect width="200" height="140" fill="white"></rect>
</clipPath>
</defs>
</svg>