<svg width="200" height="140" viewBox="0 0 200 140" fill="none" xmlns="http://www.w3.org/2000/svg">
<g id="illu_spot_questionnaire-v3/Default" clip-path="url(#clip0_85_2352)">
<g id="illu_spot_questionnaire-v3">
<g id="background">
<path id="Vector" d="M174.22 15.2399C208.125 30.4949 196.68 76.1249 175.44 99.6699C164.58 111.71 146.585 125.955 131.01 131.82C98.6202 144.02 3.70525 140.345 22.4503 97.9599C30.4703 79.8249 27.2553 71.0149 24.4403 59.4749C19.5103 39.2949 27.0553 22.6349 49.4503 15.2399C100.47 -1.61013 151.365 4.95487 174.22 15.2399Z" fill="#EDEDED"></path>
<g id="Vector_2">
<path d="M172.805 12.405C206.71 27.66 195.265 73.29 174.025 96.835C163.165 108.875 145.17 123.12 129.595 128.985C97.2052 141.185 2.29019 137.51 21.0352 95.125C29.0552 76.99 25.8402 68.18 23.0252 56.64C18.0952 36.46 25.6402 19.8 48.0352 12.405C99.0552 -4.44497 149.95 2.12003 172.805 12.405Z" fill="#2BF5BA"></path>
<path d="M183.98 135.057C189.274 133.446 192.526 128.726 191.245 124.515C189.963 120.304 184.632 118.197 179.338 119.808C174.044 121.42 170.791 126.14 172.073 130.35C173.355 134.561 178.686 136.669 183.98 135.057Z" fill="#2BF5BA"></path>
<path d="M188.676 13.5191C189.985 12.5398 190.422 10.9125 189.653 9.88429C188.884 8.85611 187.199 8.81645 185.89 9.79571C184.581 10.775 184.143 12.4023 184.913 13.4305C185.682 14.4587 187.367 14.4984 188.676 13.5191Z" fill="#2BF5BA"></path>
<path d="M8.50367 46.3582C9.81268 45.379 10.2503 43.7516 9.48111 42.7234C8.71193 41.6952 7.02722 41.6556 5.71821 42.6348C4.40921 43.6141 3.9716 45.2414 4.74078 46.2696C5.50996 47.2978 7.19467 47.3375 8.50367 46.3582Z" fill="#2BF5BA"></path>
<path d="M18.1519 25.387C22.656 22.0175 24.2879 16.5865 21.7967 13.2565C19.3056 9.92645 13.6347 9.95848 9.13062 13.328C4.62649 16.6975 2.99465 22.1286 5.48581 25.4586C7.97698 28.7886 13.6478 28.7565 18.1519 25.387Z" fill="#2BF5BA"></path>
</g>
</g>
<g id="illu_spot_questionnaire-v3_2">
<g id="stroke">
<path id="Vector_3" d="M122.11 55.0799C121.895 54.3599 121.47 53.7599 120.93 53.3199C121.385 52.8199 121.665 52.1349 121.665 51.3749C121.665 50.7749 121.49 50.2249 121.195 49.7699C121.86 49.1149 122.265 48.2749 122.265 47.3549C122.265 46.2199 121.66 45.2049 120.705 44.5149C121.59 43.9899 122.145 42.9849 122.04 41.8899C121.91 40.5749 120.875 39.5699 119.61 39.4299C119.805 38.9849 119.88 38.4699 119.79 37.9399C119.625 36.9749 118.96 36.2399 118.14 35.9749C116.365 24.5899 110.72 17.5249 100.65 17.5249C88.8954 17.5249 83.7554 29.6499 82.1004 38.0799C80.8704 38.4499 80.0354 39.6449 80.1654 40.9699C80.1654 40.9899 80.1704 41.0049 80.1754 41.0249C78.9554 41.4499 78.1404 42.8949 78.3004 44.5199C78.4004 45.5599 78.8804 46.4499 79.5454 47.0049C79.4504 47.0049 79.3604 47.0049 79.2654 47.0249C78.0204 47.2399 77.2004 48.5099 77.4354 49.8599C77.5204 50.3399 77.7254 50.7599 78.0154 51.0999C76.4604 51.8399 75.4604 53.2749 75.6154 54.8199C75.6904 55.5749 76.0304 56.2499 76.5504 56.7949C76.0004 57.6549 75.8104 58.7399 76.1254 59.7949C76.1854 59.9899 76.2604 60.1799 76.3504 60.3549C74.5654 61.0049 73.2754 62.8849 73.2754 65.1049C73.2754 67.8649 75.2654 70.0999 77.7154 70.0999C80.0054 70.0999 81.8904 68.1499 82.1304 65.6499L113.855 64.6849C114.625 66.1699 116.05 67.1699 117.69 67.1699C120.145 67.1699 122.13 64.9349 122.13 62.1749C122.13 60.9099 121.71 59.7549 121.015 58.8749C122.055 57.9649 122.535 56.5049 122.11 55.0949V55.0799Z" fill="#EDEDED"></path>
<g id="Vector_4">
<path d="M122.11 55.0799C121.895 54.3599 121.47 53.7599 120.93 53.3199C121.385 52.8199 121.665 52.1349 121.665 51.3749C121.665 50.7749 121.49 50.2249 121.195 49.7699C121.86 49.1149 122.265 48.2749 122.265 47.3549C122.265 46.2199 121.66 45.2049 120.705 44.5149C121.59 43.9899 122.145 42.9849 122.04 41.8899C121.91 40.5749 120.875 39.5699 119.61 39.4299C119.805 38.9849 119.88 38.4699 119.79 37.9399C119.625 36.9749 118.96 36.2399 118.14 35.9749C116.78 27.2799 114.045 22.5799 108.415 19.3649C112.76 24.5999 117.515 30.4499 117.065 36.7599C117.065 39.7599 116.92 39.9299 118.24 42.9299C119.675 46.1399 116.74 46.7399 117.915 50.4299C121.415 55.9299 115.79 59.0449 116.79 64.5449C117.255 66.4049 116.795 67.1649 117.69 67.1649C120.145 67.1649 122.13 64.9299 122.13 62.1699C122.13 60.9049 121.71 59.7499 121.015 58.8699C122.055 57.9599 122.535 56.4999 122.11 55.0899V55.0799Z" fill="white"></path>
<path d="M109.335 19.9599C107.76 18.7849 107.83 19.3499 105.935 18.2699C104.535 17.9199 102.025 17.3599 100.415 17.5649C94.925 18.2549 91.925 20.0449 89.19 23.0599C89.185 22.9399 89.18 22.8199 89.17 22.6949C85.215 26.9849 83.065 33.1549 82.095 38.0699C80.865 38.4399 80.03 39.6349 80.16 40.9599C80.16 40.9799 80.165 40.9949 80.17 41.0149C78.95 41.4399 78.135 42.8849 78.295 44.5099C78.395 45.5499 78.875 46.4399 79.54 46.9949C79.445 46.9949 79.355 46.9949 79.26 47.0149C78.015 47.2299 77.195 48.4999 77.43 49.8499C77.515 50.3299 77.72 50.7499 78.01 51.0899C76.455 51.8299 75.455 53.2649 75.61 54.8099C75.685 55.5649 76.025 56.2399 76.545 56.7849C75.995 57.6449 75.805 58.7299 76.12 59.7849C76.18 59.9799 76.255 60.1699 76.345 60.3449C74.56 60.9949 73.27 62.8749 73.27 65.0949C73.27 67.8549 75.26 70.0899 77.71 70.0899C80 70.0899 79.055 69.9549 79.3 67.4499L81.475 67.3849C81.325 67.0349 81.17 66.6899 80.995 66.3499C79.495 63.8499 77.695 62.6799 80.195 60.6799C80.695 60.1799 81.4 58.7349 79.95 57.3949C77.635 55.2599 80.245 54.7299 79.995 52.3499C78.995 49.8499 83.675 48.0699 82.835 43.8049C81.22 35.5799 87.255 29.7149 90.685 25.8699C96.125 19.6649 102.98 18.4349 109.33 19.9599H109.335Z" fill="white"></path>
</g>
<path id="Vector_5" d="M73.895 67.9C73.805 67.9 73.72 67.85 73.675 67.765C73.245 66.96 73.02 66.035 73.02 65.09C73.02 62.915 74.21 60.985 76.01 60.205C75.96 60.085 75.915 59.965 75.88 59.85C75.575 58.83 75.705 57.735 76.23 56.81C75.73 56.23 75.425 55.55 75.355 54.83C75.205 53.315 76.09 51.835 77.625 51C77.4 50.665 77.25 50.29 77.18 49.89C76.935 48.485 77.74 47.155 78.995 46.815C78.465 46.21 78.125 45.405 78.04 44.535C77.88 42.91 78.655 41.395 79.9 40.85C79.83 39.535 80.64 38.32 81.88 37.875C82.89 32.845 87.12 17.265 100.645 17.265C110.305 17.265 116.43 23.665 118.36 35.78C119.23 36.125 119.86 36.92 120.03 37.89C120.11 38.34 120.08 38.8 119.945 39.23C121.195 39.505 122.155 40.565 122.285 41.865C122.385 42.895 121.935 43.905 121.125 44.53C122.01 45.285 122.515 46.295 122.515 47.355C122.515 48.24 122.16 49.1 121.505 49.81C121.77 50.285 121.91 50.82 121.91 51.38C121.91 52.09 121.685 52.76 121.275 53.3C121.78 53.77 122.15 54.36 122.345 55.015C122.76 56.395 122.365 57.895 121.345 58.9C122.01 59.83 122.375 60.98 122.375 62.17C122.375 63.7 121.78 65.15 120.745 66.145C120.645 66.24 120.485 66.24 120.39 66.14C120.295 66.04 120.295 65.88 120.395 65.785C121.335 64.88 121.875 63.56 121.875 62.17C121.875 61.015 121.5 59.895 120.815 59.025C120.735 58.92 120.745 58.77 120.845 58.68C121.845 57.81 122.245 56.425 121.865 55.16C121.675 54.52 121.295 53.95 120.765 53.52C120.71 53.475 120.68 53.415 120.675 53.345C120.67 53.275 120.695 53.21 120.74 53.16C121.17 52.685 121.41 52.055 121.41 51.38C121.41 50.85 121.26 50.345 120.98 49.915C120.915 49.815 120.93 49.685 121.015 49.6C121.67 48.955 122.015 48.18 122.015 47.36C122.015 46.355 121.485 45.395 120.555 44.72C120.485 44.67 120.45 44.59 120.45 44.505C120.45 44.42 120.5 44.345 120.57 44.3C121.4 43.805 121.875 42.87 121.78 41.915C121.665 40.745 120.74 39.805 119.575 39.68C119.495 39.67 119.425 39.625 119.385 39.555C119.345 39.485 119.34 39.405 119.37 39.33C119.555 38.905 119.61 38.44 119.53 37.98C119.385 37.14 118.815 36.46 118.05 36.21C117.96 36.18 117.895 36.105 117.88 36.01C116.015 24.075 110.055 17.77 100.635 17.77C87.36 17.77 83.27 33.345 82.33 38.12C82.31 38.21 82.245 38.285 82.155 38.31C81.02 38.65 80.28 39.755 80.395 40.94C80.405 41.055 80.345 41.215 80.235 41.255C79.1 41.65 78.38 43.01 78.525 44.49C78.615 45.425 79.04 46.27 79.68 46.805C79.76 46.87 79.79 46.98 79.755 47.075C79.72 47.17 79.63 47.24 79.53 47.245H79.455C79.4 47.245 79.34 47.245 79.285 47.26C78.18 47.45 77.45 48.595 77.66 49.805C77.73 50.22 77.91 50.605 78.185 50.925C78.235 50.985 78.255 51.065 78.24 51.14C78.225 51.215 78.175 51.28 78.105 51.315C76.595 52.03 75.71 53.395 75.845 54.785C75.91 55.455 76.21 56.09 76.71 56.615C76.79 56.7 76.8 56.825 76.74 56.92C76.21 57.755 76.065 58.77 76.345 59.715C76.395 59.88 76.465 60.055 76.555 60.24C76.585 60.305 76.59 60.38 76.565 60.445C76.54 60.51 76.485 60.56 76.42 60.585C74.68 61.22 73.51 63.035 73.51 65.1C73.51 65.96 73.715 66.805 74.105 67.54C74.17 67.66 74.125 67.815 74 67.88C73.965 67.9 73.925 67.91 73.885 67.91L73.895 67.9Z" fill="#07064E"></path>
<path id="Vector_6" d="M110.565 114.755C110.215 115.08 109.675 115.205 109.395 114.94L105.405 112.075C103.53 113.205 101.405 114.955 99.7402 114.805L98.4852 114.125L94.4302 112.945L93.3752 112.52H93.3802L93.0652 112.49C88.9102 112.055 83.4402 111.08 77.6202 109.965C74.1402 109.085 71.7002 106.265 71.5252 102.68L71.4152 100.44H71.3452L71.5252 104.095C71.7002 107.68 74.1402 110.5 77.6202 111.38C83.4402 112.5 88.9102 113.475 93.0652 113.905L93.3802 113.925H93.3752L94.4302 114.355L98.4852 115.535L99.7402 116.215C101.405 116.365 103.53 114.62 105.405 113.485L109.395 116.35C109.965 116.88 111.555 115.85 110.59 114.765L110.57 114.75L110.565 114.755Z" fill="#2AEDB4"></path>
<path id="Vector_7" d="M118.185 127.675H82.3504C81.2954 127.675 80.4404 126.82 80.4404 125.765V124.065C80.4404 123.01 81.2954 122.155 82.3504 122.155H118.185C119.24 122.155 120.095 123.01 120.095 124.065V125.765C120.095 126.82 119.24 127.675 118.185 127.675ZM82.3504 122.65C81.5704 122.65 80.9404 123.285 80.9404 124.06V125.76C80.9404 126.54 81.5754 127.17 82.3504 127.17H118.185C118.965 127.17 119.595 126.535 119.595 125.76V124.06C119.595 123.28 118.96 122.65 118.185 122.65H82.3504Z" fill="#07064E"></path>
<path id="Vector_8" d="M118.185 124.53H82.3504C81.4336 124.53 80.6904 125.273 80.6904 126.19V127.89C80.6904 128.807 81.4336 129.55 82.3504 129.55H118.185C119.102 129.55 119.845 128.807 119.845 127.89V126.19C119.845 125.273 119.102 124.53 118.185 124.53Z" fill="#2AEDB4"></path>
<path id="Vector_9" d="M118.185 122.4H82.3504C81.4336 122.4 80.6904 123.143 80.6904 124.06V125.76C80.6904 126.677 81.4336 127.42 82.3504 127.42H118.185C119.102 127.42 119.845 126.677 119.845 125.76V124.06C119.845 123.143 119.102 122.4 118.185 122.4Z" fill="white"></path>
<path id="Vector_10" d="M118.185 127.675H82.3504C81.2954 127.675 80.4404 126.82 80.4404 125.765V124.065C80.4404 123.01 81.2954 122.155 82.3504 122.155H118.185C119.24 122.155 120.095 123.01 120.095 124.065V125.765C120.095 126.82 119.24 127.675 118.185 127.675ZM82.3504 122.65C81.5704 122.65 80.9404 123.285 80.9404 124.06V125.76C80.9404 126.54 81.5754 127.17 82.3504 127.17H118.185C118.965 127.17 119.595 126.535 119.595 125.76V124.06C119.595 123.28 118.96 122.65 118.185 122.65H82.3504Z" fill="#07064E"></path>
<path id="Vector_11" d="M113.32 104.095L116.955 120.055C117.16 120.955 116.32 121.695 115.07 121.695H85.4703C84.2253 121.695 83.3803 120.95 83.5853 120.055L87.8003 101.525C87.9103 101.035 88.7253 100.645 89.6253 100.645H110.91C111.805 100.645 112.62 101.035 112.735 101.525L113.47 104.755" fill="white"></path>
<path id="Vector_12" d="M82.6001 125.315H117.935C119.24 125.315 120.095 124.5 119.84 123.515L113.58 98.9599C113.465 98.5149 112.68 98.1599 111.825 98.1599H88.7051C87.8501 98.1599 87.0651 98.5149 86.9501 98.9599L80.6901 123.515C80.4401 124.5 81.2901 125.315 82.5951 125.315H82.6001ZM87.8051 101.53C87.9151 101.04 88.7301 100.65 89.6301 100.65H110.915C111.81 100.65 112.625 101.04 112.74 101.53L113.325 104.095L113.475 104.76L116.955 120.06C117.16 120.96 116.32 121.7 115.07 121.7H85.4701C84.2251 121.7 83.3801 120.955 83.5851 120.06L87.8001 101.53H87.8051Z" fill="#EDEDED"></path>
<g id="Group">
<path id="Vector_13" d="M98.9751 99.295C98.9851 98.925 99.5651 98.63 100.27 98.63C100.975 98.63 101.555 98.925 101.565 99.295C101.575 99.67 100.995 99.98 100.27 99.98C99.5451 99.98 98.9701 99.67 98.9751 99.295Z" fill="white"></path>
<path id="Vector_14" d="M100.275 100.23C99.7101 100.23 99.2151 100.065 98.9451 99.785C98.8051 99.64 98.7301 99.47 98.7351 99.29C98.7501 98.77 99.4101 98.38 100.28 98.38C101.025 98.38 101.645 98.68 101.79 99.105C101.835 99.235 101.765 99.38 101.635 99.42C101.505 99.465 101.36 99.395 101.32 99.265C101.265 99.105 100.875 98.88 100.285 98.88C99.6651 98.88 99.2451 99.135 99.2401 99.3C99.2401 99.35 99.2751 99.4 99.3101 99.435C99.4551 99.58 99.8101 99.73 100.285 99.73C100.76 99.73 101.07 99.595 101.225 99.47C101.33 99.38 101.49 99.395 101.575 99.5C101.665 99.605 101.65 99.765 101.545 99.85C101.265 100.085 100.795 100.225 100.285 100.225L100.275 100.23Z" fill="#07064E"></path>
</g>
<path id="Vector_15" d="M83.5054 112.485C84.0904 112.59 84.6704 112.69 85.2404 112.79L85.5504 111.425C84.9904 111.33 84.4254 111.235 83.8504 111.13L83.5054 112.485Z" fill="#D8D8D8"></path>
<g id="Group_2">
<path id="Vector_16" d="M98.2705 123.545H96.2505C96.1105 123.545 96.0005 123.43 96.0005 123.295C96.0005 123.155 96.1105 123.045 96.2505 123.045H98.2705C98.4105 123.045 98.5205 123.16 98.5205 123.295C98.5205 123.435 98.4105 123.545 98.2705 123.545Z" fill="white"></path>
<path id="Vector_17" d="M104.285 123.545H99.5903C99.4503 123.545 99.3403 123.435 99.3403 123.295C99.3403 123.155 99.4503 123.045 99.5903 123.045H104.285C104.425 123.045 104.535 123.155 104.535 123.295C104.535 123.435 104.425 123.545 104.285 123.545Z" fill="#07064E"></path>
</g>
<g id="Group_3">
<g id="Vector_18">
<path d="M87.7902 114.765H104.18C104.695 114.765 105.14 115.135 105.175 115.595L105.4 118.475C105.44 118.99 105.025 119.41 104.47 119.41H86.8202C86.2652 119.41 85.9152 118.99 86.0302 118.475L86.6802 115.595C86.7852 115.135 87.2851 114.765 87.7951 114.765H87.7902Z" fill="#8382A6"></path>
<path d="M110.095 114.765H113.03C113.575 114.765 114.105 115.155 114.215 115.645L114.84 118.42C114.96 118.965 114.585 119.41 114 119.41H110.84C110.255 119.41 109.71 118.965 109.635 118.42L109.235 115.645C109.165 115.155 109.55 114.765 110.095 114.765Z" fill="#8382A6"></path>
</g>
<path id="Vector_19" d="M85.2402 112.79C88.1352 113.285 90.8002 113.685 93.0702 113.92L93.3852 113.94H93.3802L94.4352 114.37L98.4902 115.55L99.7452 116.23C101.41 116.38 103.535 114.635 105.41 113.5L109.4 116.365C109.97 116.895 111.56 115.865 110.595 114.78L110.575 114.765C110.225 115.09 109.685 115.215 109.405 114.95L105.415 112.085C103.54 113.215 101.415 114.965 99.7502 114.815L98.4952 114.135L94.4402 112.955L93.3852 112.53H93.3902L93.0752 112.5C90.8852 112.27 88.3302 111.89 85.5552 111.42L85.2452 112.785L85.2402 112.79Z" fill="#EDEDED"></path>
<path id="Vector_20" d="M99.7403 114.81L99.6653 114.77H95.8003L98.4853 115.55L99.7403 116.23C100.835 116.33 102.135 115.6 103.43 114.77H100.45C100.205 114.815 99.9703 114.83 99.7403 114.81Z" fill="#07064E"></path>
<path id="Vector_21" d="M111.81 115.745C111.88 115.745 111.95 115.77 112.005 115.82L113.24 116.885C113.345 116.975 113.365 117.12 113.28 117.2C113.195 117.28 113.04 117.27 112.93 117.175L111.975 116.34L111.285 118.185C111.24 118.3 111.1 118.345 110.97 118.285C110.84 118.225 110.765 118.09 110.81 117.975L111.62 115.855C111.645 115.79 111.705 115.75 111.785 115.74C111.795 115.74 111.805 115.74 111.815 115.74L111.81 115.745Z" fill="white"></path>
<path id="Vector_22" d="M108.955 107.68H111.545C112.025 107.68 112.485 107.985 112.57 108.365L113.05 110.505C113.145 110.92 112.805 111.265 112.29 111.265H109.53C109.015 111.265 108.55 110.925 108.49 110.505L108.18 108.365C108.125 107.985 108.47 107.68 108.955 107.68Z" fill="#8382A6"></path>
<path id="Vector_23" d="M110.455 108.44C110.515 108.44 110.58 108.46 110.625 108.495L111.685 109.32C111.775 109.39 111.79 109.5 111.715 109.56C111.64 109.625 111.5 109.615 111.41 109.545L110.59 108.9L109.95 110.325C109.91 110.41 109.785 110.445 109.67 110.405C109.555 110.36 109.495 110.255 109.535 110.17L110.29 108.535C110.315 108.485 110.365 108.45 110.435 108.445C110.445 108.445 110.45 108.445 110.46 108.445L110.455 108.44Z" fill="white"></path>
<g id="Vector_24">
<path d="M90.4499 102.09H103.39C103.795 102.09 104.145 102.32 104.165 102.605L104.3 104.375C104.325 104.685 103.995 104.94 103.565 104.94H89.8499C89.4199 104.94 89.1299 104.685 89.1999 104.375L89.5999 102.605C89.6649 102.32 90.0449 102.09 90.4499 102.09Z" fill="#95FADC"></path>
<path d="M108.06 102.09H110.375C110.805 102.09 111.21 102.335 111.28 102.635L111.665 104.335C111.74 104.665 111.43 104.935 110.975 104.935H108.52C108.065 104.935 107.655 104.665 107.605 104.335L107.36 102.635C107.315 102.33 107.63 102.09 108.06 102.09Z" fill="#95FADC"></path>
</g>
</g>
<path id="Vector_25" d="M118.215 125.565H82.3254C81.6954 125.565 81.1554 125.32 80.8104 124.875C80.4604 124.425 80.3554 123.835 80.5154 123.22L86.6904 99.0049C86.8454 98.3899 87.6554 97.9049 88.5304 97.9049H112.015C112.89 97.9049 113.7 98.3849 113.855 99.0049L120.03 123.22C120.19 123.84 120.08 124.425 119.735 124.875C119.39 125.32 118.85 125.565 118.22 125.565H118.215ZM88.5254 98.4049C87.8254 98.4049 87.2554 98.7799 87.1704 99.1249L80.9954 123.34C80.8754 123.805 80.9504 124.24 81.2004 124.565C81.4504 124.885 81.8454 125.065 82.3204 125.065H118.21C118.685 125.065 119.08 124.89 119.33 124.565C119.58 124.24 119.655 123.805 119.535 123.34L113.36 99.1249C113.27 98.7749 112.705 98.4049 112.005 98.4049H88.5204H88.5254Z" fill="#07064E"></path>
<path id="Vector_26" d="M111.355 64.135C110.98 64.1 110.63 64.045 110.3 63.98C110.3 63.98 110.3 63.98 110.3 63.975H110.265C104.83 62.845 105.5 57.475 106.105 52.485L94.4804 53.14C94.6754 58.315 95.9004 63.525 89.2954 64.145H90.2654C94.0954 72.85 100.255 73.195 100.255 73.195C100.255 73.195 107.345 71.41 110.23 64.14H111.35L111.355 64.135Z" fill="white"></path>
<path id="Vector_27" d="M115.07 121.95H85.4705C84.6755 121.95 84.0005 121.675 83.6155 121.19C83.3405 120.85 83.2455 120.425 83.3405 120L87.5555 101.47C87.6955 100.855 88.5855 100.395 89.6255 100.395H110.91C111.95 100.395 112.84 100.86 112.98 101.47L117.195 120C117.29 120.425 117.195 120.845 116.92 121.19C116.535 121.67 115.86 121.95 115.065 121.95H115.07ZM89.6255 100.895C88.7855 100.895 88.1205 101.255 88.0455 101.585L83.8305 120.115C83.7655 120.39 83.8305 120.655 84.0055 120.88C84.2905 121.235 84.8355 121.45 85.4705 121.45H115.07C115.7 121.45 116.25 121.235 116.535 120.88C116.715 120.655 116.775 120.39 116.71 120.115L112.495 101.585C112.42 101.26 111.755 100.895 110.915 100.895H89.6305H89.6255Z" fill="#07064E"></path>
<path id="Vector_28" d="M84.9951 112.745C85.1601 112.775 85.3251 112.8 85.4901 112.83L85.8001 111.465C85.6351 111.44 85.4701 111.41 85.3051 111.38L84.9951 112.745Z" fill="#050535"></path>
<path id="Vector_29" d="M130.28 74.0899C130.375 69.7049 126.835 66.0999 122.45 66.1249L110.565 63.9299C104.01 76.7149 96.1203 74.9199 90.4453 63.9949L78.5753 66.1149C73.3553 66.2799 69.8953 70.3349 70.3303 75.6949L71.2603 97.2799L71.5253 102.685C71.7003 106.27 74.1403 109.09 77.6203 109.97C83.4403 111.09 88.9103 112.065 93.0653 112.495L94.4353 113.035L98.1653 107.33L82.6403 102.26C81.4453 101.85 80.6153 100.76 80.5403 99.4999L80.3803 96.7749L129.41 96.8249L130.275 74.0799L130.28 74.0899Z" fill="#FFC391"></path>
<path id="Vector_30" d="M105.845 53.095C105.18 57.055 103.435 60.675 100.36 60.675C97.2853 60.675 94.8853 57.68 94.8853 53.665C94.8853 53.24 94.6303 52 94.6903 51.595C95.1953 48.175 97.6153 46.125 100.36 46.125C103.105 46.125 105.83 47.345 106.11 50.64C106.155 51.15 105.935 52.545 105.845 53.095Z" fill="#EDEDED"></path>
<path id="Vector_31" d="M107.15 23.5449C104.875 28.1299 94.2603 32.8099 90.3953 32.8199C90.3103 32.8199 90.3503 32.9949 90.3453 32.9999C89.8553 34.7449 89.5903 36.6749 89.5903 38.7499C89.5903 47.3649 96.2453 56.6399 100.17 56.6399C103.88 56.6399 111.37 47.4149 111.37 38.7999C111.37 36.7649 111.075 34.8799 110.6 33.1549C110.415 32.4799 110.47 32.6449 110.22 32.0299C110.145 31.8499 109.86 31.8349 109.86 31.8349C109.86 31.8349 106.63 30.0299 107.15 23.5399V23.5449Z" fill="white"></path>
<path id="Vector_32" d="M79.3251 83.0349C78.8251 88.0349 79.3251 92.5349 80.3251 97.5349C80.1151 97.7449 80.2551 97.8649 80.4551 97.9699L80.3851 96.7849L100.2 96.8049C92.0551 94.1699 84.3451 90.7299 79.3251 83.0349Z" fill="#FFAF6E"></path>
<g id="Vector_33">
<path d="M105.4 22.535C95.8751 22.06 90.4351 29.29 85.6201 36.46C86.8101 37.015 88.0401 37.475 89.2951 37.825C89.4201 36.625 89.6201 35.48 89.9201 34.415C89.9251 34.415 89.8801 34.24 89.9701 34.24C93.8401 34.23 104.45 29.55 106.725 24.965C106.205 31.455 109.435 33.26 109.435 33.26C109.435 33.26 109.72 33.275 109.795 33.455C110.045 34.07 109.99 33.91 110.175 34.58C110.285 34.985 110.385 35.395 110.475 35.815C112.47 35.59 114.47 35.395 116.465 35.145C114.52 29.075 111.905 23 105.4 22.535Z" fill="#EDEDED"></path>
<path d="M110.6 33.16C110.415 32.485 110.47 32.65 110.22 32.035C110.145 31.855 109.86 31.84 109.86 31.84C109.86 31.84 109.39 31.455 109.205 31.305C110.535 44.355 106.11 52.485 99.3752 56.53C99.6502 56.605 99.9152 56.645 100.17 56.645C103.88 56.645 111.37 47.42 111.37 38.805C111.37 36.77 111.075 34.88 110.6 33.16Z" fill="#EDEDED"></path>
</g>
<g id="Vector_34">
<path d="M92.0651 41.575C91.2251 41.575 90.4551 41.905 89.8701 42.445C90.2201 44.575 91.1601 46.61 92.0001 48.535C92.1151 48.545 91.9501 48.615 92.0651 48.615C93.9101 48.615 95.4051 47.04 95.4051 45.095C95.4051 43.15 93.9101 41.575 92.0651 41.575Z" fill="#FFC391"></path>
<path d="M108.8 41.575C109.64 41.575 110.41 41.905 110.995 42.445C110.645 44.575 109.8 46.265 108.96 48.195C108.845 48.205 108.855 48.615 108.74 48.615C106.895 48.615 105.46 47.04 105.46 45.095C105.46 43.15 106.955 41.575 108.8 41.575Z" fill="#FFC391"></path>
</g>
<g id="Vector_35">
<path d="M100.59 46.98C100.53 46.98 100.47 46.96 100.425 46.915L100.025 46.56C99.3502 45.965 99.3252 45.215 99.5152 43.955L100.4 38.095C100.42 37.96 100.55 37.865 100.685 37.885C100.82 37.905 100.915 38.035 100.895 38.17L100.01 44.025C99.8402 45.15 99.8502 45.73 100.36 46.18L100.76 46.535C100.865 46.625 100.875 46.785 100.78 46.89C100.73 46.945 100.66 46.975 100.595 46.975L100.59 46.98Z" fill="#07064E"></path>
<path d="M100.335 51.25C99.1104 51.25 97.9354 50.845 96.8154 50.035C96.7054 49.955 96.6804 49.8 96.7604 49.685C96.8404 49.575 96.9954 49.55 97.1104 49.63C99.1954 51.14 101.405 51.135 103.86 49.62C103.98 49.55 104.13 49.585 104.205 49.7C104.28 49.82 104.24 49.97 104.125 50.045C102.82 50.85 101.555 51.25 100.335 51.25Z" fill="#07064E"></path>
<path d="M97.1403 39.715L96.4503 39.025C96.8203 38.65 97.0503 38.12 97.0503 37.535C97.0503 37.395 96.9403 37.285 96.8003 37.285C96.6603 37.285 96.5503 37.395 96.5503 37.535C96.5503 38.395 95.9103 39.095 95.1253 39.095C94.3403 39.095 93.7003 38.395 93.7003 37.535C93.7003 37.395 93.5903 37.285 93.4503 37.285C93.3103 37.285 93.2003 37.395 93.2003 37.535C93.2003 38.12 93.4353 38.65 93.8003 39.025L93.1103 39.715C93.0103 39.815 93.0103 39.97 93.1103 40.07C93.1603 40.12 93.2253 40.145 93.2853 40.145C93.3453 40.145 93.4153 40.12 93.4603 40.07L94.1953 39.335C94.4003 39.455 94.6253 39.535 94.8703 39.57V40.53C94.8703 40.67 94.9803 40.78 95.1203 40.78C95.2603 40.78 95.3703 40.67 95.3703 40.53V39.57C95.6103 39.535 95.8403 39.455 96.0453 39.335L96.7803 40.07C96.8303 40.12 96.8953 40.145 96.9553 40.145C97.0153 40.145 97.0853 40.12 97.1303 40.07C97.2303 39.97 97.2303 39.815 97.1303 39.715H97.1403Z" fill="#07064E"></path>
<path d="M91.7452 35.29C91.6402 35.29 91.5402 35.225 91.5102 35.12C91.4652 34.99 91.5402 34.85 91.6702 34.805L92.0252 34.685C93.7552 34.105 95.7152 33.45 97.5902 34.84C97.7002 34.92 97.7252 35.08 97.6402 35.19C97.5602 35.3 97.4002 35.325 97.2902 35.24C95.6252 34.005 93.8752 34.59 92.1802 35.155L91.8202 35.275C91.7952 35.285 91.7702 35.29 91.7402 35.29H91.7452Z" fill="#07064E"></path>
<path d="M109.205 35.29C109.18 35.29 109.155 35.29 109.125 35.275L108.765 35.155C107.07 34.59 105.32 34.005 103.655 35.24C103.545 35.32 103.385 35.3 103.305 35.19C103.225 35.08 103.245 34.92 103.355 34.84C105.23 33.45 107.19 34.105 108.92 34.685L109.275 34.805C109.405 34.85 109.48 34.99 109.435 35.12C109.4 35.225 109.305 35.29 109.2 35.29H109.205Z" fill="#07064E"></path>
<path d="M101.33 52.82H99.2102C99.0702 52.82 98.9602 52.71 98.9602 52.57C98.9602 52.43 99.0702 52.32 99.2102 52.32H101.33C101.47 52.32 101.58 52.43 101.58 52.57C101.58 52.71 101.47 52.82 101.33 52.82Z" fill="#07064E"></path>
<path d="M107.49 39.715L106.8 39.025C107.17 38.65 107.405 38.12 107.405 37.535C107.405 37.395 107.295 37.285 107.155 37.285C107.015 37.285 106.905 37.395 106.905 37.535C106.905 38.395 106.265 39.095 105.48 39.095C104.695 39.095 104.055 38.395 104.055 37.535C104.055 37.395 103.945 37.285 103.805 37.285C103.665 37.285 103.555 37.395 103.555 37.535C103.555 38.12 103.79 38.65 104.16 39.025L103.47 39.715C103.37 39.815 103.37 39.97 103.47 40.07C103.52 40.12 103.585 40.145 103.645 40.145C103.705 40.145 103.775 40.12 103.82 40.07L104.555 39.335C104.76 39.455 104.985 39.535 105.23 39.57V40.53C105.23 40.67 105.34 40.78 105.48 40.78C105.62 40.78 105.73 40.67 105.73 40.53V39.57C105.97 39.535 106.2 39.455 106.405 39.335L107.14 40.07C107.19 40.12 107.255 40.145 107.315 40.145C107.375 40.145 107.445 40.12 107.49 40.07C107.59 39.97 107.59 39.815 107.49 39.715Z" fill="#07064E"></path>
</g>
<g id="Vector_36">
<path d="M110.565 63.93C104.01 76.715 96.2649 75.515 90.2349 64.06L84.6899 64.96C85.3449 75.875 85.5449 86.2251 85.9949 96.7301L114.2 96.9101C114.63 86.3901 114.82 75.5 115.515 64.96L110.565 63.925V63.93Z" fill="#07064E"></path>
<path d="M85.9997 96.99C85.8647 96.99 85.7547 96.885 85.7497 96.75L84.4347 64.98C84.4297 64.84 84.5347 64.725 84.6747 64.72C84.8147 64.72 84.9297 64.82 84.9347 64.96L86.2497 96.73C86.2547 96.87 86.1497 96.985 86.0097 96.99H85.9997Z" fill="#07064E"></path>
<path d="M114.2 97.035H114.19C114.05 97.03 113.945 96.91 113.95 96.775L115.265 64.955C115.27 64.815 115.39 64.72 115.525 64.715C115.665 64.72 115.77 64.84 115.765 64.975L114.45 96.795C114.445 96.93 114.335 97.035 114.2 97.035Z" fill="#07064E"></path>
</g>
<path id="Vector_37" d="M93.3752 112.53L98.1652 107.34L101.295 106.7C103.15 106.67 104.32 107.29 105.155 108.22C105.645 108.93 106.125 108.91 106.46 110.005L110.58 113.36C111.55 114.445 109.955 115.48 109.385 114.945L105.395 112.08C103.52 113.21 101.395 114.96 99.7302 114.81L98.4752 114.13L94.4202 112.95L93.3652 112.525L93.3752 112.53Z" fill="white"></path>
<g id="Vector_38">
<path d="M110.64 113.065L110.595 113.025C109.165 111.755 108.095 110.805 106.875 109.97L106.165 108.805C105.34 107.835 104.255 107.15 103.025 106.825C102.165 106.595 101.28 106.555 100.405 106.705L98.195 107.08L82.535 101.965C81.55 101.63 80.875 100.74 80.815 99.7051L79.945 85.0951C79.935 84.9551 79.82 84.8401 79.68 84.8601C79.54 84.8701 79.435 84.9851 79.445 85.1251L80.315 99.7351C80.39 100.975 81.195 102.035 82.375 102.44L98.095 107.575C98.135 107.59 98.175 107.59 98.215 107.585L100.49 107.2C101.3 107.065 102.11 107.1 102.9 107.31C104.03 107.61 105.03 108.24 105.765 109.1L105.93 109.375C105.225 108.955 104.445 108.555 103.51 108.145C103.385 108.09 103.235 108.145 103.18 108.275C103.125 108.405 103.18 108.55 103.31 108.605C106.385 109.955 107.765 111.18 110.27 113.405L110.33 113.46C110.51 113.595 110.62 113.805 110.63 114.035C110.64 114.265 110.545 114.48 110.375 114.63C110.15 114.83 109.785 114.94 109.565 114.765C108.115 113.48 105.645 111.94 105.54 111.875C105.46 111.825 105.36 111.825 105.275 111.875L101.37 114.285C100.56 114.775 99.535 114.685 98.825 114.06C98.72 113.97 98.565 113.98 98.47 114.085C98.38 114.19 98.39 114.345 98.495 114.44C99.37 115.21 100.63 115.32 101.63 114.72L105.405 112.39C105.94 112.73 108 114.055 109.24 115.155C109.42 115.3 109.625 115.36 109.835 115.36C110.15 115.36 110.47 115.22 110.705 115.01C110.99 114.76 111.14 114.4 111.13 114.02C111.115 113.64 110.935 113.295 110.65 113.08L110.64 113.065Z" fill="#07064E"></path>
<path d="M120.06 96.795C120.06 96.795 120.05 96.795 120.045 96.795C119.905 96.785 119.8 96.67 119.81 96.53L120.505 84.875C120.515 84.735 120.63 84.625 120.77 84.64C120.91 84.65 121.015 84.765 121.005 84.905L120.31 96.56C120.3 96.695 120.19 96.795 120.06 96.795Z" fill="#07064E"></path>
</g>
<g id="Vector_39">
<path d="M111.035 119.83C110.895 119.83 110.785 119.72 110.785 119.58V116.74C110.785 116.6 110.895 116.49 111.035 116.49C111.175 116.49 111.285 116.6 111.285 116.74V119.58C111.285 119.72 111.175 119.83 111.035 119.83Z" fill="#07064E"></path>
<path d="M114.395 118.46C114.33 118.46 114.265 118.435 114.22 118.385L112.21 116.375C112.11 116.275 112.11 116.12 112.21 116.02C112.31 115.92 112.465 115.92 112.565 116.02L114.575 118.03C114.675 118.13 114.675 118.285 114.575 118.385C114.525 118.435 114.46 118.46 114.4 118.46H114.395Z" fill="#07064E"></path>
<path d="M115.765 115.1H112.925C112.785 115.1 112.675 114.99 112.675 114.85C112.675 114.71 112.785 114.6 112.925 114.6H115.765C115.905 114.6 116.015 114.71 116.015 114.85C116.015 114.99 115.905 115.1 115.765 115.1Z" fill="#07064E"></path>
</g>
<g id="Group_4">
<g id="Vector_40">
<path d="M13.6704 97.165C13.5304 97.165 13.4204 97.055 13.4204 96.915C13.4204 96.775 13.5304 96.665 13.6704 96.665L71.2104 96.6C71.3504 96.6 71.4604 96.71 71.4604 96.85C71.4604 96.99 71.3504 97.1 71.2104 97.1L13.6704 97.165Z" fill="#07064E"></path>
<path d="M80.5654 97.1C80.4254 97.1 80.3154 96.99 80.3154 96.85C80.3154 96.71 80.4254 96.6 80.5654 96.6L192.01 96.465C192.15 96.465 192.26 96.575 192.26 96.715C192.26 96.855 192.15 96.965 192.01 96.965L80.5654 97.1Z" fill="#07064E"></path>
</g>
<path id="Vector_41" d="M11.5254 97.1649H8.27539C8.13539 97.1649 8.02539 97.0549 8.02539 96.9149C8.02539 96.7749 8.13539 96.6649 8.27539 96.6649H11.5254C11.6654 96.6649 11.7754 96.7749 11.7754 96.9149C11.7754 97.0549 11.6654 97.1649 11.5254 97.1649Z" fill="#2BF5BA"></path>
</g>
<path id="Vector_42" d="M181.12 29.95L144.545 20.935C141.64 20.24 138.84 21.78 138.615 22.715L135.86 34.22L131.66 51.755L129.005 62.84C128.76 63.865 130.015 64.53 130.705 63.745L138.005 55.465C138.99 54.35 140.485 53.87 141.905 54.21L173.235 61.72C176.14 62.415 179.105 60.555 179.815 57.58L185.445 34.085C185.355 31.285 184.03 30.65 181.125 29.955L181.12 29.95Z" fill="#2AEDB4"></path>
<path id="Vector_43" d="M181.12 27.825L144.545 18.81C141.64 18.115 138.84 19.655 138.615 20.59L135.86 32.095L131.66 49.63L129.005 60.715C128.76 61.74 130.015 62.405 130.705 61.62L138.005 53.34C138.99 52.225 140.485 51.745 141.905 52.085L173.235 59.595C176.14 60.29 179.105 58.43 179.815 55.455L185.445 31.96C185.355 29.16 184.03 28.525 181.125 27.83L181.12 27.825Z" fill="white"></path>
<g id="Group_5">
<path id="Vector_44" d="M143.212 18.0218L182.533 27.4474C184.614 27.9462 185.897 30.0379 185.398 32.1189L185.376 32.2113L138.514 20.9779L138.536 20.8856C139.035 18.8045 141.126 17.5217 143.207 18.0206L143.212 18.0218Z" fill="#07064E"></path>
<path id="Vector_45" d="M179.88 29.8149C180.416 29.8149 180.85 29.3806 180.85 28.8449C180.85 28.3092 180.416 27.8749 179.88 27.8749C179.344 27.8749 178.91 28.3092 178.91 28.8449C178.91 29.3806 179.344 29.8149 179.88 29.8149Z" fill="white"></path>
<path id="Vector_46" d="M182.615 30.4699C183.151 30.4699 183.585 30.0356 183.585 29.4999C183.585 28.9642 183.151 28.5299 182.615 28.5299C182.079 28.5299 181.645 28.9642 181.645 29.4999C181.645 30.0356 182.079 30.4699 182.615 30.4699Z" fill="#2BF5BA"></path>
</g>
<g id="Group_6">
<g id="Vector_47">
<path d="M151.096 28.3105L150.446 31.0188C150.336 31.478 150.619 31.9394 151.079 32.0495L177.116 38.2909C177.575 38.401 178.037 38.118 178.147 37.6588L178.796 34.9505C178.906 34.4913 178.623 34.0298 178.164 33.9198L152.126 27.6783C151.667 27.5683 151.206 27.8513 151.096 28.3105Z" fill="#07064E"></path>
<path d="M143.15 26.456L142.524 29.067C142.408 29.553 142.707 30.0415 143.193 30.158L145.804 30.7839C146.29 30.9004 146.779 30.6009 146.895 30.1148L147.521 27.5038C147.638 27.0177 147.338 26.5293 146.852 26.4127L144.241 25.7869C143.755 25.6703 143.267 25.9699 143.15 26.456Z" fill="#07064E"></path>
<path d="M149.142 36.4543L148.493 39.1625C148.383 39.6217 148.666 40.0832 149.125 40.1933L175.162 46.4347C175.621 46.5448 176.083 46.2617 176.193 45.8025L176.842 43.0943C176.952 42.6351 176.669 42.1736 176.21 42.0635L150.173 35.8221C149.713 35.712 149.252 35.9951 149.142 36.4543Z" fill="#07064E"></path>
<path d="M141.201 34.5947L140.575 37.2058C140.459 37.6918 140.758 38.1803 141.245 38.2968L143.856 38.9227C144.342 39.0392 144.83 38.7396 144.947 38.2536L145.572 35.6425C145.689 35.1565 145.389 34.668 144.903 34.5515L142.292 33.9256C141.806 33.8091 141.318 34.1087 141.201 34.5947Z" fill="#07064E"></path>
</g>
<g id="Vector_48">
<path d="M142.715 37.62C142.655 37.605 142.605 37.565 142.575 37.51L141.935 36.27C141.88 36.165 141.92 36.035 142.025 35.98C142.13 35.925 142.26 35.965 142.315 36.07L142.81 37.025L144.095 35.51C144.17 35.42 144.305 35.41 144.4 35.485C144.49 35.56 144.5 35.7 144.425 35.79L142.93 37.55C142.885 37.605 142.815 37.635 142.74 37.625C142.73 37.625 142.725 37.625 142.715 37.625V37.62Z" fill="white"></path>
<path d="M144.665 29.48C144.605 29.465 144.555 29.425 144.525 29.37L143.885 28.13C143.83 28.025 143.87 27.895 143.975 27.84C144.08 27.785 144.21 27.825 144.265 27.93L144.76 28.885L146.045 27.37C146.12 27.28 146.255 27.27 146.35 27.345C146.44 27.42 146.45 27.56 146.375 27.65L144.88 29.41C144.835 29.465 144.765 29.495 144.69 29.485C144.68 29.485 144.675 29.485 144.665 29.485V29.48Z" fill="white"></path>
</g>
<g id="Vector_49">
<path d="M147.193 44.5942L146.544 47.3025C146.434 47.7617 146.717 48.2232 147.176 48.3332L173.214 54.5746C173.673 54.6847 174.134 54.4017 174.244 53.9425L174.894 51.2342C175.004 50.775 174.721 50.3135 174.261 50.2035L148.224 43.9621C147.765 43.852 147.303 44.135 147.193 44.5942Z" fill="#2BF5BA"></path>
<path d="M139.252 42.7445L138.626 45.3556C138.509 45.8416 138.809 46.3301 139.295 46.4466L141.906 47.0725C142.392 47.189 142.88 46.8894 142.997 46.4034L143.623 43.7923C143.739 43.3063 143.44 42.8178 142.954 42.7013L140.343 42.0754C139.857 41.9589 139.368 42.2585 139.252 42.7445Z" fill="#2BF5BA"></path>
</g>
</g>
<path id="Vector_50" d="M112.13 33.2099C112.105 33.2099 112.08 33.2099 112.055 33.1999C107.43 31.7149 106.845 26.9749 106.84 24.6799C106.235 25.5049 105.255 26.3599 104.395 27.0249C100.745 29.8499 93.5954 33.5799 89.1204 33.0049C88.9854 32.9849 88.8854 32.8599 88.9054 32.7249C88.9204 32.5899 89.0504 32.4899 89.1854 32.5099C93.0654 32.9999 99.9454 29.8449 104.09 26.6299C105.785 25.3199 106.81 24.1499 106.905 23.4199V23.4149C106.925 23.2799 107.05 23.1849 107.185 23.1999C107.32 23.2199 107.42 23.3449 107.4 23.4799V23.4899C107.365 23.7399 106.535 30.9049 112.21 32.7249C112.34 32.7649 112.415 32.9099 112.37 33.0399C112.335 33.1449 112.24 33.2149 112.13 33.2149V33.2099Z" fill="#07064E"></path>
<g id="Vector_51">
<path d="M113.275 38.075C112.85 37.685 111.355 37.44 111.355 38.985L110.69 44.365C110.175 44.56 110.26 45.095 110.26 45.675C110.26 46.425 110.87 47.035 111.62 47.035C112.37 47.035 112.98 46.425 112.98 45.675C112.98 45.295 112.825 44.95 112.57 44.705C113.255 43.82 113.66 42.805 113.775 42.23C114.22 40.035 114.14 38.865 113.275 38.07V38.075Z" fill="white"></path>
<path d="M90.1551 44.275L89.5901 38.985C89.5901 37.435 88.0951 37.685 87.6701 38.075C86.8001 38.87 86.7201 40.035 87.1701 42.235C87.2901 42.815 87.7001 43.845 88.3951 44.735C88.1551 44.98 88.0101 45.315 88.0101 45.68C88.0101 46.43 88.6201 47.04 89.3701 47.04C90.1201 47.04 90.7301 46.43 90.7301 45.68C90.7301 45.08 90.6901 44.465 90.1551 44.28V44.275Z" fill="white"></path>
</g>
<path id="Vector_52" d="M123.95 66.1649L111.825 64.0199L111.455 63.9549C111.42 63.9249 111.375 63.8999 111.32 63.8949C109.515 63.7249 108.21 63.1149 107.335 62.0299C105.505 59.7699 105.965 55.8849 106.33 52.7599L106.36 52.5099C106.36 52.5099 106.36 52.4749 106.36 52.4549C107.76 50.7049 109.07 48.5449 110.045 46.1699C110.07 46.1949 110.095 46.2149 110.13 46.2299C110.36 46.8449 110.945 47.2799 111.635 47.2799C112.525 47.2799 113.245 46.5599 113.245 45.6699C113.245 45.2999 113.115 44.9599 112.9 44.6899C113.58 43.7549 113.94 42.7599 114.035 42.2749C114.445 40.2649 114.49 38.8299 113.455 37.8849C113.115 37.5749 112.39 37.3999 111.845 37.6399C111.765 37.6749 111.68 37.7249 111.6 37.7849C111.545 36.4699 111.385 35.1999 111.12 33.9899C111.09 33.8549 110.955 33.7749 110.82 33.7999C110.685 33.8299 110.6 33.9649 110.63 34.0999C110.96 35.5799 111.125 37.1599 111.125 38.7999C111.125 38.8249 111.125 38.8549 111.125 38.8799C111.125 38.9149 111.12 38.9449 111.12 38.9849C111.12 38.9849 111.12 38.9899 111.12 38.9949C111.11 39.7499 111.05 40.5349 110.92 41.3299C110.76 42.3499 110.5 43.3999 110.155 44.4499C108.035 50.8799 102.895 56.3949 100.18 56.3949C99.2305 56.3949 98.0655 55.7999 96.8155 54.6799C96.3205 54.2349 95.8205 53.7149 95.3305 53.1299C93.3905 50.8249 91.7305 47.7149 90.7805 44.6099C90.4655 43.5849 90.2305 42.5549 90.0755 41.5549C90.0555 41.4199 89.9255 41.3249 89.7905 41.3449C89.6555 41.3649 89.5605 41.4949 89.5805 41.6299C89.7155 42.4999 89.9155 43.3899 90.1705 44.2799C89.9355 44.1499 89.6755 44.0699 89.3855 44.0699C89.0405 44.0699 88.7205 44.1849 88.4555 44.3699C87.8755 43.5649 87.5305 42.6849 87.4305 42.1849C86.9855 39.9849 87.0955 38.9599 87.8555 38.2599C88.0405 38.0899 88.5605 37.9399 88.9255 38.0999C89.2105 38.2249 89.3555 38.5249 89.3555 38.9849C89.3555 39.0449 89.3505 39.0999 89.3505 39.1599C89.3505 39.2999 89.4605 39.4099 89.6005 39.4099C89.7405 39.4099 89.8505 39.2999 89.8505 39.1599C89.8505 36.9799 90.1205 34.9149 90.6505 33.0249C90.6855 32.8899 90.6105 32.7549 90.4755 32.7149C90.3405 32.6749 90.2055 32.7549 90.1655 32.8899C89.7355 34.4249 89.4755 36.0749 89.3855 37.8049C89.2955 37.7349 89.2055 37.6799 89.1205 37.6399C88.5805 37.3999 87.8505 37.5749 87.5105 37.8849C86.4805 38.8299 86.5255 40.2649 86.9305 42.2749C87.0305 42.7599 87.3905 43.7699 88.0855 44.7149C87.8855 44.9849 87.7655 45.3099 87.7655 45.6699C87.7655 46.5599 88.4855 47.2799 89.3755 47.2799C90.0305 47.2799 90.5905 46.8849 90.8405 46.3249C91.6955 48.5749 92.8805 50.7549 94.2405 52.5699L94.2605 52.7549C94.6305 55.8749 95.0855 59.7599 93.2555 62.0249C92.5455 62.8999 91.5505 63.4599 90.2455 63.7349C90.2255 63.7349 90.2055 63.7299 90.1805 63.7349L89.4255 63.8699C89.3705 63.8749 89.3205 63.8849 89.2655 63.8899C89.2455 63.8899 89.2255 63.8999 89.2055 63.9099L76.4605 66.1649C72.7155 66.9749 70.0005 70.3449 70.0005 74.1849L71.2955 102.665C71.4605 106.25 73.9005 109.27 77.3955 110.18L93.1505 112.705L94.3255 113.18C94.3555 113.19 94.3855 113.2 94.4205 113.2C94.5205 113.2 94.6155 113.14 94.6505 113.045C94.7005 112.915 94.6405 112.77 94.5105 112.72L93.3105 112.235C93.3105 112.235 93.2755 112.225 93.2555 112.22L77.4955 109.695C74.2355 108.84 71.9455 106.01 71.7905 102.645L70.4955 74.1749C70.4955 70.5799 73.0455 67.4149 76.5505 66.6549L89.5005 64.3649C89.6855 64.3449 89.8655 64.3199 90.0405 64.2899C91.5805 68.0649 95.8955 73.2749 100.17 73.4399H100.255C104.52 73.2699 108.84 68.0449 110.375 64.2699L111.72 64.5099L123.835 66.6499C127.35 67.4099 129.9 70.5749 129.9 74.1649L129.15 96.7249C129.15 96.8649 129.255 96.9799 129.39 96.9849H129.4C129.535 96.9849 129.645 96.8799 129.65 96.7449L130.4 74.1749C130.4 70.3449 127.685 66.9749 123.93 66.1649H123.95ZM111.62 46.7849C111.01 46.7849 110.51 46.2849 110.51 45.6749C110.51 45.0649 111.01 44.5649 111.62 44.5649C112.23 44.5649 112.73 45.0649 112.73 45.6749C112.73 46.2849 112.23 46.7849 111.62 46.7849ZM111.405 41.4049C111.54 40.5649 111.605 39.7399 111.61 38.9399C111.62 38.5049 111.76 38.2199 112.04 38.0949C112.405 37.9349 112.925 38.0849 113.11 38.2549C113.87 38.9499 113.98 39.9799 113.535 42.1799C113.435 42.6749 113.095 43.5399 112.525 44.3399C112.27 44.1649 111.955 44.0649 111.625 44.0649C111.295 44.0649 110.96 44.1749 110.7 44.3649C111.015 43.3699 111.26 42.3749 111.41 41.4099L111.405 41.4049ZM89.3755 46.7849C88.7655 46.7849 88.2655 46.2849 88.2655 45.6749C88.2655 45.0649 88.7655 44.5649 89.3755 44.5649C89.9855 44.5649 90.4855 45.0649 90.4855 45.6749C90.4855 46.2849 89.9855 46.7849 89.3755 46.7849ZM100.255 72.9399H100.19C96.1705 72.7849 92.0755 67.8249 90.5555 64.1849C91.8755 63.8699 92.9155 63.2549 93.6505 62.3449C95.4855 60.0749 95.1905 56.4199 94.8355 53.3199C94.8705 53.3599 94.9005 53.4099 94.9355 53.4499C95.4405 54.0499 95.9555 54.5899 96.4705 55.0499C97.8155 56.2549 99.0905 56.8899 100.17 56.8899C101.655 56.8899 103.765 55.4499 105.78 53.1399C105.415 56.2749 105.07 60.0249 106.94 62.3449C107.65 63.2249 108.64 63.8299 109.895 64.1549C108.39 67.7999 104.28 72.7849 100.25 72.9399H100.255Z" fill="#07064E"></path>
</g>
</g>
</g>
</g>
<defs>
<clipPath id="clip0_85_2352">
<rect width="200" height="140" fill="white"></rect>
</clipPath>
</defs>
</svg>