<svg width="200" height="140" viewBox="0 0 200 140" fill="none" xmlns="http://www.w3.org/2000/svg">
<g id="illu_bg_first-group-participants/Default" clip-path="url(#clip0_86_204)">
<g id="illu_bg_first-group-participants">
<g id="background">
<path d="M38.2052 18.53C9.07018 42.03 26.9652 57.43 12.4152 75.89C-10.2648 104.665 -2.03983 154.54 85.9602 128.315C119.37 118.355 163.26 154.52 188.12 123.215C204.715 102.315 204.97 38.44 165.095 16.135C126.195 -5.63 56.7052 3.615 38.2052 18.53Z" fill="#2BF5BA"></path>
<path d="M193.976 135.828C197.269 134.128 198.873 130.684 197.557 128.134C196.242 125.584 192.506 124.895 189.212 126.594C185.919 128.293 184.316 131.737 185.631 134.287C186.946 136.837 190.683 137.527 193.976 135.828Z" fill="#2BF5BA"></path>
<path d="M9.30018 36.695C10.0761 36.695 10.7052 36.066 10.7052 35.29C10.7052 34.514 10.0761 33.885 9.30018 33.885C8.52422 33.885 7.89518 34.514 7.89518 35.29C7.89518 36.066 8.52422 36.695 9.30018 36.695Z" fill="#2BF5BA"></path>
<path d="M17.0881 23.3187C22.6346 19.7113 25.0376 13.5686 22.4555 9.5986C19.8734 5.62859 13.284 5.33464 7.73753 8.94205C2.19109 12.5495 -0.211984 18.6922 2.37011 22.6622C4.95221 26.6322 11.5417 26.9261 17.0881 23.3187Z" fill="#2BF5BA"></path>
</g>
<g id="illu_bg_first-group-participants_2">
<g id="stroke">
<g id="Group">
<path id="Vector" d="M124.225 48.0399C123.67 47.0999 122.94 46.9349 122.085 47.3399L121.925 40.1699H125.01L124.225 48.0399Z" fill="#EDEDED"></path>
<path id="Vector_2" d="M161.45 81.2149C161.375 81.2149 161.3 81.2149 161.23 81.2149L147.915 78.7599C147.56 79.2549 147.195 79.7199 146.83 80.1549C147.07 79.7299 147.31 79.2899 147.545 78.8349C143.93 77.7099 142.41 73.2899 143.13 65.9799C143.055 66.0499 142.985 66.1149 142.91 66.1849C145.195 63.5449 147.295 59.9249 148.125 55.7549L148.08 56.7049C150.905 56.8499 150.2 53.5799 151.655 50.6349C152.765 48.3799 151.26 47.3749 150.11 47.2199C149.255 47.1049 148.42 47.5649 148.42 49.2999V49.3299C148.075 41.3449 147.34 40.3399 147.34 40.3399C144.27 38.2149 142.575 37.1699 142.575 37.1699C134.845 39.7199 125.05 40.0299 125.05 40.0299C124.51 41.8899 124.185 43.8049 124.095 45.7399C124.095 45.7399 124.14 46.8899 124.185 48.3999C123.94 47.4049 123.27 47.1249 122.585 47.2199C121.435 47.3749 119.93 48.3799 121.04 50.6349C122.495 53.5799 121.79 56.8499 124.615 56.7049L124.595 56.2849C125.39 60.3649 127.5 63.9299 129.79 66.4999C129.72 66.4249 129.65 66.3499 129.58 66.2699C129.68 74.4599 128 77.7899 125.205 78.8599L112.06 81.2149C106.21 81.3999 102.785 85.8599 103.03 91.7149L103.925 117.36L169.13 117.4L170.005 90.1299C170.105 85.3049 166.275 81.3149 161.45 81.2149Z" fill="white"></path>
<path id="Vector_3" d="M143.645 29.72C143.645 29.72 136.875 24.75 131.185 27.22C124.095 30.275 123.46 37.255 118.1 37.805C118.1 37.805 119.9 39.805 121.76 40.04C122.72 40.165 123.695 40.23 124.68 40.255C124.505 40.765 124.405 41.305 124.81 41.305H125.725C133.1 41.305 140.515 38.935 142.46 38.27L144.8 39.755C146.615 49.155 147.47 58.95 140.745 67.025C139.605 68.445 138.66 69.665 135.79 70.715C133.2 70.385 130.64 67.915 129.58 66.255C129.58 66.515 129.745 67.96 129.745 68.23C129.745 72.455 132.695 75.875 136.335 75.875C139.975 75.875 142.93 72.455 142.93 68.23C142.95 67.47 143.015 66.715 143.13 65.965C142.985 66.1 142.84 66.24 142.705 66.38C145.795 62.865 148.605 57.535 148.495 51.46C148.475 50.37 148.44 49.25 148.395 48.16C148.865 47.325 149.855 46.94 150.765 47.24L151.07 40.315H150.93C151.59 39.825 151.705 39.08 151.705 39.08C152.59 30.58 148.86 27.805 143.645 29.72ZM148.395 48.13C148.355 47.175 148.315 46.245 148.27 45.38C148.39 46.405 148.445 47.34 148.395 48.13Z" fill="#EDEDED"></path>
<path id="Vector_4" d="M143.5 29.6201C143.5 29.6201 136.875 24.7501 131.185 27.2151C124.095 30.2751 123.46 37.2551 118.1 37.8051C118.1 37.8051 119.855 40.0501 122.375 40.0401C130.65 39.3401 128.335 27.6151 143.5 29.7201V29.6201Z" fill="white"></path>
<path id="Vector_5" d="M148.41 117.25L129.745 117.31L129.56 100.465H148.5L148.41 117.25Z" fill="#2BF5BA"></path>
<g id="Group_2">
<path id="Vector_6" d="M136.11 63.855C134.725 63.82 133.425 63.205 132.52 62.155C132.41 62.07 132.395 61.91 132.48 61.805C132.565 61.695 132.725 61.68 132.83 61.765C132.85 61.78 132.865 61.795 132.88 61.815C133.695 62.76 134.865 63.315 136.11 63.355C137.355 63.315 138.525 62.755 139.34 61.815C139.435 61.715 139.595 61.71 139.695 61.805C139.795 61.9 139.8 62.06 139.705 62.16C138.8 63.205 137.495 63.82 136.11 63.855Z" fill="#07064E"></path>
<path id="Vector_7" d="M134.59 66.5249C134.455 66.5249 134.345 66.4099 134.34 66.2749C134.34 66.1349 134.45 66.0249 134.59 66.0249H137.625C137.765 66.0249 137.875 66.1349 137.875 66.2749C137.875 66.4149 137.765 66.5249 137.625 66.5249H134.59Z" fill="#07064E"></path>
<path id="Vector_8" d="M130.65 51.4748C129.44 51.4298 128.49 50.4248 128.52 49.2148C128.52 49.0748 128.63 48.9648 128.77 48.9648C128.91 48.9648 129.02 49.0748 129.02 49.2148C128.935 50.1148 129.59 50.9148 130.49 50.9998C131.39 51.0848 132.19 50.4298 132.275 49.5298C132.285 49.4248 132.285 49.3198 132.275 49.2148C132.275 49.0748 132.385 48.9648 132.525 48.9648C132.665 48.9648 132.775 49.0748 132.775 49.2148C132.805 50.4198 131.855 51.4298 130.65 51.4748Z" fill="#07064E"></path>
<path id="Vector_9" d="M141.77 51.4748C140.56 51.4298 139.61 50.4248 139.64 49.2148C139.64 49.0748 139.75 48.9648 139.89 48.9648C140.03 48.9648 140.14 49.0748 140.14 49.2148C140.055 50.1148 140.71 50.9148 141.61 50.9998C142.51 51.0848 143.31 50.4298 143.395 49.5298C143.405 49.4248 143.405 49.3198 143.395 49.2148C143.395 49.0748 143.505 48.9648 143.645 48.9648C143.785 48.9648 143.895 49.0748 143.895 49.2148C143.925 50.4198 142.975 51.4298 141.77 51.4748Z" fill="#07064E"></path>
<path id="Vector_10" d="M136.07 57.62C135.65 57.63 135.245 57.5 134.91 57.245C134.435 56.835 134.325 56.145 134.645 55.605C135.51 54.13 136.105 52.515 136.405 50.83L136.64 49.48C136.665 49.345 136.795 49.255 136.93 49.275C137.065 49.3 137.155 49.43 137.135 49.565L136.895 50.915C136.595 52.65 135.98 54.315 135.09 55.83C134.885 56.165 134.945 56.595 135.23 56.86C135.675 57.16 136.25 57.195 136.73 56.945C136.84 56.86 136.995 56.875 137.08 56.985C137.165 57.095 137.15 57.25 137.04 57.335C137.03 57.345 137.015 57.355 137 57.36C136.72 57.535 136.395 57.625 136.065 57.62H136.07Z" fill="#07064E"></path>
<path id="Vector_11" d="M126.405 46.985C126.365 46.985 126.33 46.975 126.295 46.96C126.17 46.9 126.12 46.75 126.185 46.625C127.33 44.36 129.685 44.625 132.685 44.915L133.78 45.025C133.915 45.04 134.02 45.16 134.005 45.3C133.995 45.435 133.875 45.535 133.74 45.525C133.74 45.525 133.74 45.525 133.735 45.525L132.63 45.415C129.71 45.11 127.605 44.915 126.63 46.855C126.585 46.94 126.5 46.99 126.405 46.99V46.985Z" fill="#07064E"></path>
<path id="Vector_12" d="M146.255 46.985C146.16 46.985 146.075 46.935 146.035 46.85C145.035 44.89 142.935 45.105 140.035 45.41L138.935 45.52C138.8 45.535 138.675 45.435 138.66 45.295C138.65 45.16 138.75 45.035 138.885 45.02L139.985 44.91C142.985 44.6 145.35 44.355 146.485 46.62C146.545 46.745 146.495 46.895 146.375 46.96C146.335 46.975 146.295 46.985 146.255 46.985Z" fill="#07064E"></path>
</g>
<path id="Vector_13" d="M149.69 79.3401C149.27 81.1701 147.885 82.8401 147.46 83.3701C141.925 90.3701 130.32 90.3701 124.935 83.2751C124.55 82.7751 122.995 80.3951 122.76 79.2201L124.96 78.8301C131.96 89.4651 142.675 86.4851 147.4 79.1151L149.69 79.3401Z" fill="#2BF5BA"></path>
<path id="Vector_14" d="M162.905 81.27L149.315 78.865C149.315 78.865 149.285 78.865 149.27 78.865L147.72 78.59C146.46 78.305 144.945 76.735 144.175 74.93C143.575 73.515 143.12 70.115 143.535 66.015C143.545 65.94 143.515 65.87 143.465 65.815C145.35 63.45 147.055 60.4 147.995 56.945C148.02 56.955 148.045 56.96 148.07 56.96H148.265C150.165 56.96 150.525 55.43 150.96 53.665C151.155 52.665 151.46 51.695 151.88 50.765C152.49 49.53 152.31 48.715 152.055 48.215C151.805 47.795 151.44 47.465 151.015 47.25L151.32 40.4C151.32 40.37 151.315 40.345 151.305 40.315C151.625 39.995 151.85 39.59 151.935 39.14C152.4 34.655 151.625 31.455 149.685 29.955C148.235 28.78 146.155 28.615 143.685 29.455C142.76 28.805 136.515 24.65 131.085 26.995C127.52 28.535 125.55 31.05 123.845 33.235C122.14 35.42 120.67 37.305 118.075 37.57C117.985 37.58 117.91 37.64 117.87 37.72C117.835 37.805 117.845 37.9 117.9 37.97C118.815 39.125 120.095 39.925 121.525 40.255L121.83 47.165C121.34 47.375 120.925 47.725 120.645 48.195C120.39 48.675 120.21 49.505 120.825 50.745C121.245 51.68 121.56 52.66 121.76 53.665C122.175 55.43 122.535 56.96 124.435 56.96L124.625 56.95C125.51 60.45 127.225 63.585 129.165 65.995C129.165 65.995 129.165 66.005 129.165 66.01C129.575 70.005 129.08 73.425 128.445 74.925C127.67 76.75 126.31 78.215 125.105 78.545C125.1 78.545 125.09 78.545 125.085 78.545L113.525 80.59C113.385 80.615 113.295 80.745 113.315 80.885C113.34 81.025 113.47 81.115 113.605 81.09L122.535 79.515C123.045 80.835 123.725 82.085 124.565 83.22L124.73 83.45C127.08 86.805 131.015 88.82 135.515 88.95H135.99C140.505 89.005 144.8 87 147.655 83.5L147.74 83.395C148.22 82.815 149.475 81.23 149.905 79.485L162.81 81.765C166.78 82.64 169.61 86.15 169.63 90.215L168.69 117.06H159.025L160.14 96.65C160.14 96.65 160.14 96.65 160.14 96.645C160.145 96.51 160.04 96.395 159.905 96.39C159.765 96.38 159.65 96.485 159.64 96.625L158.52 117.06H126.69C126.55 117.06 126.44 117.17 126.44 117.31C126.44 117.45 126.55 117.56 126.69 117.56H168.96C169.09 117.545 169.185 117.44 169.185 117.31L170.13 90.215C170.11 85.91 167.11 82.195 162.905 81.27ZM150.12 46.985C149.655 46.9 149.18 47.03 148.815 47.33C148.75 47.4 148.69 47.47 148.635 47.54C148.51 45.2 148.195 42.875 147.705 40.585C148.3 40.805 148.93 40.94 149.57 40.965C150 40.98 150.43 40.885 150.815 40.695L150.535 47.065C150.4 47.03 150.26 47 150.12 46.985ZM118.59 37.99C121.105 37.53 122.555 35.685 124.24 33.53C125.925 31.375 127.835 28.94 131.285 27.44C136.775 25.09 143.435 29.895 143.5 29.94C143.565 29.99 143.655 30.005 143.73 29.975C146.08 29.145 148.04 29.27 149.395 30.335C151.195 31.75 151.905 34.775 151.46 39.065C151.36 39.565 151.05 39.995 150.61 40.245C149.91 40.63 148.885 40.55 147.56 40.005C147.515 39.935 147.435 39.9 147.35 39.9L142.705 36.935C142.635 36.9 142.555 36.9 142.485 36.935C142.39 36.97 133.63 40.145 125.31 40.055C125.125 40.04 125.01 40.045 124.785 40.04C123.775 40.01 122.775 39.935 121.8 39.795C120.565 39.555 119.44 38.92 118.59 37.99ZM124.51 52.93C124.51 52.93 124.51 52.91 124.51 52.9C124.495 52.77 124.38 52.68 124.25 52.69C124.25 52.69 124.25 52.69 124.245 52.69C124.11 52.7 124.005 52.815 124.015 52.95C124.07 54.145 124.245 55.315 124.5 56.45C123.035 56.48 122.715 55.455 122.27 53.545C122.055 52.51 121.715 51.505 121.27 50.545C120.855 49.7 120.795 49 121.085 48.45C121.42 47.91 121.99 47.555 122.625 47.49C122.945 47.43 123.275 47.51 123.53 47.715C123.91 48.16 124.095 48.74 124.03 49.32C124.03 49.46 124.14 49.57 124.28 49.57C124.42 49.57 124.53 49.46 124.53 49.32C124.605 48.585 124.36 47.855 123.855 47.32C123.49 47.02 123.015 46.89 122.55 46.975C122.47 46.985 122.395 47 122.32 47.015L122.025 40.345C122.89 40.46 123.77 40.525 124.655 40.55C124.17 42.425 123.88 44.34 123.805 46.275C123.8 46.415 123.905 46.53 124.045 46.535C124.185 46.535 124.3 46.43 124.305 46.29C124.385 44.355 124.685 42.435 125.19 40.565C133.125 40.675 141.465 37.84 142.54 37.46L147.125 40.345C147.735 43.09 148.08 45.885 148.16 48.7C148.13 48.905 148.125 49.12 148.145 49.33C148.145 49.47 148.255 49.58 148.395 49.58C148.535 49.58 148.645 49.47 148.645 49.33C148.64 49.27 148.645 49.215 148.645 49.155C148.675 49.11 148.7 49.06 148.695 49C148.695 48.895 148.685 48.795 148.685 48.69C148.755 48.335 148.905 48 149.145 47.725C149.4 47.52 149.73 47.44 150.05 47.5C150.685 47.565 151.255 47.92 151.59 48.46C151.88 49.01 151.82 49.715 151.405 50.555C150.965 51.515 150.64 52.52 150.43 53.555C149.97 55.495 149.66 56.52 148.125 56.46C148.52 54.865 148.745 53.19 148.745 51.46C148.745 51.32 148.635 51.21 148.495 51.21C148.355 51.21 148.245 51.32 148.245 51.46C148.245 62.06 139.64 70.505 136.36 70.505C133.08 70.505 125.01 63.085 124.51 52.93ZM128.9 75.12C129.52 73.66 130.015 70.455 129.725 66.67C132.065 69.365 134.625 71.005 136.36 71.005C137.92 71.005 140.565 69.27 143.005 66.375C142.65 70.38 143.115 73.695 143.72 75.125C144.48 76.89 145.89 78.43 147.205 78.945C146.99 79.42 146.73 79.875 146.415 80.295C144.055 83.54 140.28 85.45 136.27 85.44H136.15C132.16 85.44 128.42 83.485 126.15 80.205C125.87 79.815 125.635 79.4 125.44 78.965C126.92 78.445 128.23 76.705 128.9 75.12ZM147.345 83.11L147.265 83.215C144.4 86.715 140.05 88.66 135.53 88.47C131.185 88.345 127.4 86.41 125.14 83.165L124.975 82.935C124.175 81.855 123.53 80.675 123.04 79.425L124.935 79.09C125.155 79.585 125.425 80.06 125.74 80.5C128.1 83.915 131.99 85.95 136.14 85.95H136.265C140.44 85.965 144.365 83.975 146.82 80.6C147.17 80.135 147.465 79.63 147.7 79.1L149.235 79.375C149.235 79.375 149.265 79.375 149.28 79.375L149.415 79.4C149.005 81.025 147.805 82.535 147.35 83.115L147.345 83.11Z" fill="#07064E"></path>
</g>
<g id="Group_3">
<path id="Vector_15" d="M178.76 36.1551H172.715V30.1101C172.715 28.8401 171.685 27.8101 170.415 27.8101C170.415 27.8101 170.415 27.8101 170.41 27.8101H169.62C168.35 27.8101 167.32 28.8351 167.315 30.1051V36.1551H161.27C159.995 36.1551 158.965 37.1801 158.96 38.4551V39.2551C158.96 40.5301 159.99 41.5601 161.265 41.5601H167.31V47.6051C167.31 48.8751 168.34 49.9051 169.61 49.9051C169.61 49.9051 169.61 49.9051 169.615 49.9051H170.405C171.675 49.9051 172.705 48.8801 172.71 47.6101V41.5601H178.76C180.035 41.5601 181.065 40.5301 181.065 39.2551V38.4601C181.065 37.1851 180.035 36.1551 178.76 36.1551Z" fill="white"></path>
<path id="Vector_16" d="M170.41 50.1551H169.62C168.21 50.1551 167.07 49.0151 167.065 47.6051V41.8101H161.27C159.86 41.8101 158.715 40.6651 158.715 39.2551V38.4601C158.715 37.0501 159.86 35.9101 161.27 35.9051H167.065V30.1101C167.065 28.7001 168.21 27.5601 169.62 27.5601H170.41C171.82 27.5601 172.96 28.7001 172.965 30.1101V35.9051H178.76C180.17 35.9051 181.31 37.0501 181.315 38.4601V39.2551C181.315 40.6651 180.17 41.8101 178.76 41.8101H172.96V47.6051C172.96 49.0101 171.815 50.1501 170.41 50.1551ZM161.27 36.4051C160.135 36.4051 159.22 37.3251 159.215 38.4601V39.2551C159.215 40.3901 160.135 41.3051 161.27 41.3101H167.315C167.455 41.3101 167.565 41.4201 167.565 41.5601V47.6051C167.565 48.7401 168.485 49.6551 169.62 49.6551H170.41C171.545 49.6551 172.46 48.7401 172.465 47.6051V41.5601C172.465 41.4201 172.575 41.3101 172.715 41.3101H178.76C179.895 41.3101 180.81 40.3901 180.815 39.2551V38.4601C180.815 37.3251 179.895 36.4101 178.76 36.4051H172.715C172.575 36.4051 172.465 36.2951 172.465 36.1551V30.1101C172.465 28.9751 171.545 28.0601 170.41 28.0601H169.62C168.485 28.0601 167.57 28.9751 167.565 30.1101V36.1551C167.565 36.2951 167.455 36.4051 167.315 36.4051H161.27Z" fill="#07064E"></path>
</g>
<g id="Group_4">
<path id="Vector_17" d="M94.6897 90.1302C94.7897 85.3052 90.9597 81.3152 86.1347 81.2152C86.0597 81.2152 85.9847 81.2152 85.9147 81.2152L72.5947 78.7603C63.5947 91.3003 50.9047 84.0303 50.0447 78.8303L36.7397 81.2152C30.8897 81.4002 26.9097 85.6802 27.7147 91.7152L28.6097 117.36L93.8097 117.4L94.6897 90.1302Z" fill="white"></path>
<path id="Vector_18" d="M54.7698 87.5502L51.1948 85.1152V117.34H54.7698V87.5502Z" fill="#2BF5BA"></path>
<path id="Vector_19" d="M60.6398 88.6201L57.0698 88.2651V117.34H60.6398V88.6201Z" fill="#2BF5BA"></path>
<path id="Vector_20" d="M66.5149 87.5552L62.9399 88.5302V117.34H66.5149V87.5552Z" fill="#2BF5BA"></path>
<path id="Vector_21" d="M72.2296 78.8352C65.1596 92.4202 56.9346 92.3652 49.8096 78.8902C52.6496 77.8552 54.3646 74.5402 54.2646 66.2702C58.1896 70.7302 62.5596 70.9352 67.8096 65.9802C67.0896 73.2902 68.1596 77.8952 72.2296 78.8352Z" fill="white"></path>
<path id="Vector_22" d="M74.3698 79.3401C73.9548 81.1701 72.5648 82.8401 72.1398 83.3701C66.6048 90.3701 55.0048 90.3701 49.6148 83.2751C49.2298 82.7751 47.6748 80.3951 47.4448 79.2201L49.6398 78.8301C56.6398 89.4651 67.3548 86.4851 72.0798 79.1151L74.3698 79.3401Z" fill="#2BF5BA"></path>
<path id="Vector_23" d="M74.7899 47.22C73.9999 47.115 73.2349 47.5 73.1149 48.915C72.8149 38.325 71.9799 36.075 71.9799 36.075C71.6499 35.595 71.7949 35.965 68.8999 35.355L65.8949 34.14C64.0349 39.95 59.7399 35.2 59.7399 35.2C58.1249 36.885 56.9549 35.07 56.9549 35.07C55.5149 37.44 51.4799 34.44 51.4799 34.44C51.4799 34.44 54.0749 29.72 51.4099 34.54C49.7949 37.545 48.8749 40.875 48.7249 44.285C48.7249 44.285 48.7999 46.205 48.8599 48.385C48.6149 47.4 47.9499 47.13 47.2699 47.22C46.1149 47.375 44.6099 48.38 45.7249 50.635C47.1749 53.58 46.4699 56.85 49.2949 56.705L49.2749 56.275C50.9149 64.72 58.1949 70.96 61.0399 70.755C64.1149 70.54 71.1599 64.165 72.8199 55.5L72.7649 56.705C75.5899 56.85 74.8849 53.58 76.3349 50.635C77.4499 48.38 75.9449 47.375 74.7899 47.22Z" fill="white"></path>
<path id="Vector_24" d="M78.7549 36.3652C79.0649 36.6152 79.3699 36.8652 79.6749 37.1252C79.4099 36.8252 79.0999 36.5652 78.7549 36.3652Z" fill="#EDEDED"></path>
<path id="Vector_25" d="M80.5697 39.7151C80.6047 37.6701 79.0047 35.9701 76.9597 35.8851C78.1097 35.0401 78.3597 33.4251 77.5197 32.2701C77.0197 31.5851 76.2147 31.1901 75.3647 31.2151L75.1697 31.2451C75.3697 30.7551 75.4747 30.2351 75.4747 29.7051C75.4747 27.5101 73.6997 25.7351 71.5097 25.7301C70.5047 25.7301 69.5397 26.1051 68.8047 26.7901C68.8297 26.6251 68.8397 26.4551 68.8347 26.2901C68.7747 24.8651 67.5697 23.7551 66.1447 23.8151C65.4347 23.8451 64.7697 24.1651 64.2997 24.7051C63.8547 23.1501 62.2347 22.2501 60.6847 22.6951C60.0897 22.8651 59.5647 23.2201 59.1847 23.7051C57.9997 22.9801 56.4497 23.3251 55.6847 24.4851C55.6297 24.5701 55.5947 24.6601 55.5497 24.7451C53.8747 23.3251 51.3647 23.5351 49.9447 25.2051C49.3347 25.9251 48.9997 26.8351 48.9997 27.7801C48.9997 28.0351 49.0247 28.2851 49.0747 28.5351C48.9247 28.5101 48.7747 28.4951 48.6247 28.4901C46.9947 28.4901 45.6697 29.8151 45.6697 31.4451C45.6697 31.8851 45.7647 32.3201 45.9547 32.7151C44.5547 32.9501 43.6047 34.2801 43.8397 35.6801C43.8947 36.0101 44.0147 36.3301 44.1947 36.6151C42.2597 37.1701 41.1397 39.1851 41.6897 41.1201C41.9547 42.0401 42.5697 42.8251 43.4047 43.2951C42.9447 43.8301 42.6947 44.5101 42.6997 45.2151C42.6997 46.8451 44.0247 48.1701 45.6547 48.1701C46.4097 47.0151 48.5297 47.1701 48.8897 48.1701C48.8897 46.3851 48.7697 45.1101 48.7697 44.1751C48.9397 44.2001 49.1147 44.2151 49.2897 44.2151C51.3347 44.2151 53.0097 42.5901 53.0797 40.5451C53.4847 40.3901 53.8447 40.1451 54.1447 39.8301C55.3447 40.0351 56.5647 39.6251 57.3997 38.7451C57.9897 39.0651 58.6647 39.1901 59.3297 39.1051C59.6947 39.7651 60.2497 40.3001 60.9247 40.6451C62.7797 41.5851 65.0447 40.8401 65.9847 38.9801C66.1197 38.9801 66.2547 38.9651 66.3897 38.9401C67.0947 39.9801 68.2697 40.6051 69.5297 40.6051C69.5597 40.6051 69.5897 40.6051 69.6147 40.6051C71.3147 49.7451 71.9247 59.2001 65.3997 67.0301C64.2647 68.4501 62.2997 69.4551 60.4547 70.7201C57.8697 70.3851 55.3147 67.9201 54.2597 66.2601C54.2597 66.5201 54.4247 67.9651 54.4247 68.2351C54.4247 72.4601 57.3747 75.8801 61.0147 75.8801C64.6547 75.8801 67.6047 72.4601 67.6047 68.2351C67.6247 67.4751 67.6897 66.7201 67.8047 65.9701C67.5797 66.1801 67.3747 66.3901 67.1697 66.5951C70.3347 63.0851 73.2597 57.6601 73.1497 51.4651C73.1347 50.5551 73.1197 49.7001 73.0947 48.8951C73.4797 46.8351 74.8797 47.0501 76.6747 48.1501C78.2997 48.1501 79.6197 46.8301 79.6197 45.2051C79.6197 44.3851 79.2797 43.6051 78.6747 43.0451C79.8497 42.3501 80.5697 41.0851 80.5647 39.7201L80.5697 39.7151ZM61.0397 70.7551C61.0397 70.7551 61.0297 70.7551 61.0247 70.7551C62.3447 70.6601 64.3997 69.4301 66.4397 67.3701C64.7797 69.1851 63.5547 70.7551 61.0397 70.7551Z" fill="#EDEDED"></path>
<path id="Vector_26" d="M80.6549 39.7152C80.6849 37.6802 79.0949 35.9852 77.0599 35.8902C78.2149 35.0502 78.4699 33.4352 77.6299 32.2802C77.1249 31.5902 76.3149 31.1902 75.4599 31.2152C75.3899 31.2152 75.3299 31.2152 75.2649 31.2452C75.4649 30.7552 75.5699 30.2352 75.5699 29.7052C75.5699 27.5102 73.7949 25.7352 71.6049 25.7302C70.5999 25.7302 69.6349 26.1052 68.8999 26.7902C68.9249 26.6252 68.9349 26.4552 68.9299 26.2902C68.8699 24.8652 67.6649 23.7552 66.2399 23.8152C65.5299 23.8452 64.8649 24.1652 64.3949 24.7052C63.9499 23.1502 62.3249 22.2502 60.7699 22.7002C60.1799 22.8702 59.6549 23.2202 59.2749 23.7052C58.0899 22.9802 56.5399 23.3252 55.7749 24.4852C55.7249 24.5702 55.6799 24.6552 55.6399 24.7452C53.9649 23.3252 51.4549 23.5352 50.0399 25.2052C49.4299 25.9252 49.0949 26.8352 49.0949 27.7802C49.0949 28.0352 49.1199 28.2852 49.1649 28.5352C49.0199 28.5102 48.8699 28.4952 48.7199 28.4902C47.0949 28.4752 45.7649 29.7752 45.7499 31.4002C45.7499 31.8552 45.8449 32.3052 46.0449 32.7152C44.8049 32.9302 43.8999 34.0052 43.8999 35.2602C43.8999 35.7402 44.0349 36.2102 44.2899 36.6152C42.3549 37.1602 41.2249 39.1752 41.7749 41.1152C42.0349 42.0452 42.6549 42.8302 43.4949 43.3002C46.6749 21.7152 78.4599 17.9952 77.0199 48.1202C78.6349 47.9902 79.8399 46.5702 79.7049 44.9552C79.6449 44.2202 79.3149 43.5402 78.7749 43.0402C79.9449 42.3402 80.6599 41.0752 80.6549 39.7152Z" fill="white"></path>
<g id="Group_5">
<path id="Vector_27" d="M84.0048 80.6452L74.0698 78.8852C74.0698 78.8852 74.0348 78.8652 74.0148 78.8652L72.2848 78.5602C71.0548 78.2052 69.6048 76.6802 68.8648 74.9302C68.2598 73.5152 67.8048 70.1152 68.2248 66.0152C68.2298 65.9402 68.1998 65.8702 68.1498 65.8152C70.0348 63.4452 71.7448 60.4002 72.6798 56.9402C72.7048 56.9502 72.7348 56.9602 72.7698 56.9602H72.9648C74.8498 56.9602 75.2098 55.4302 75.6248 53.6852C75.8248 52.6802 76.1398 51.7002 76.5648 50.7652C77.1098 49.6602 77.0248 48.8952 76.8198 48.3852C78.5198 48.3002 79.8948 46.9352 79.9648 45.2152C79.9648 44.4302 79.6798 43.6702 79.1498 43.0902C80.2448 42.3152 80.8948 41.0552 80.8898 39.7152C80.9148 37.7702 79.5448 36.0852 77.6348 35.7152C78.6898 34.5652 78.6148 32.7752 77.4648 31.7152C76.9648 31.2402 76.3148 30.9652 75.6248 30.9352C75.7548 30.5252 75.8198 30.1002 75.8148 29.6752C75.8148 28.8052 75.5498 27.9552 75.0498 27.2452C73.7098 25.3402 71.0798 24.8752 69.1698 26.2152C69.1348 25.5902 68.8948 24.9902 68.4898 24.5152C67.4698 23.3302 65.6798 23.1952 64.4898 24.2152C64.3098 23.8052 64.0448 23.4402 63.7148 23.1402C62.4148 21.9652 60.4048 22.0652 59.2298 23.3702C57.9398 22.7002 56.3548 23.1152 55.5648 24.3352C54.8398 23.8052 53.9648 23.5202 53.0648 23.5202C50.7348 23.5202 48.8498 25.4152 48.8548 27.7502C48.8448 27.9052 48.8448 28.0602 48.8548 28.2152H48.7048C48.7048 28.2152 48.6898 28.2152 48.6798 28.2152C46.9048 28.2302 45.4848 29.6802 45.4998 31.4552C45.4998 31.8352 45.5698 32.2102 45.7048 32.5602C45.5548 32.6052 45.4098 32.6602 45.2648 32.7252C43.8548 33.3952 43.2548 35.0802 43.9298 36.4902C43.1598 36.7752 42.4998 37.3002 42.0398 37.9852C40.8498 39.7752 41.3348 42.1952 43.1298 43.3852C42.7498 43.9202 42.5448 44.5602 42.5448 45.2152C42.5598 46.7952 43.7298 48.1102 45.2598 48.3352C45.0448 48.8302 44.9498 49.6202 45.5048 50.7452C45.9298 51.6802 46.2448 52.6602 46.4448 53.6652C46.8598 55.4302 47.2198 56.9602 49.1198 56.9602L49.3048 56.9502C50.1898 60.4502 51.9048 63.5802 53.8448 65.9952C53.8448 66.0002 53.8448 66.0052 53.8448 66.0102C54.2548 70.0052 53.7598 73.4252 53.1298 74.9252C52.3598 76.7352 51.0198 78.1902 49.8198 78.5402C49.8048 78.5402 49.7848 78.5352 49.7698 78.5402L34.3948 81.2602C30.1898 82.1902 27.1898 85.9102 27.1748 90.2202L28.1248 117.325C28.1298 117.46 28.2398 117.565 28.3748 117.565H70.1198C70.1198 117.565 70.1248 117.565 70.1298 117.565C70.2698 117.56 70.3748 117.445 70.3698 117.305C70.3698 117.17 70.2548 117.06 70.1198 117.055H39.0148L37.8898 96.6302C37.8898 96.6302 37.8898 96.6052 37.8898 96.5952C37.8748 96.4702 37.7598 96.3802 37.6298 96.3952C37.6298 96.3952 37.6298 96.3952 37.6248 96.3952C37.4898 96.4052 37.3848 96.5202 37.3948 96.6552L38.5098 117.055H28.6198L27.6748 90.2202C27.6948 86.1602 30.5248 82.6502 34.4898 81.7702L47.2048 79.5252C47.7148 80.8452 48.3948 82.0902 49.2348 83.2252L49.3948 83.4552C51.7448 86.8102 55.6798 88.8252 60.1798 88.9552H60.6798C65.1998 89.0152 69.4998 87.0102 72.3548 83.5052L72.4398 83.4002C72.9198 82.8202 74.1798 81.2402 74.6048 79.4952L83.9248 81.1402H83.9648V81.1502C84.1048 81.1602 84.2248 81.0602 84.2398 80.9202C84.2498 80.7802 84.1498 80.6602 84.0098 80.6502L84.0048 80.6452ZM46.9498 53.5452C46.7348 52.5102 46.3998 51.5052 45.9498 50.5452C45.5348 49.7052 45.4698 49.0002 45.7648 48.4502C46.0998 47.9052 46.6648 47.5502 47.2998 47.4902C47.6198 47.4302 47.9548 47.5102 48.2098 47.7152C48.5898 48.1602 48.7698 48.7402 48.7098 49.3202C48.7098 49.4602 48.8198 49.5702 48.9598 49.5702C49.0998 49.5702 49.2098 49.4602 49.2098 49.3202C49.2898 48.5902 49.0448 47.8552 48.5398 47.3202C48.1748 47.0202 47.6998 46.8902 47.2348 46.9752C46.5798 47.0452 45.9848 47.3702 45.5598 47.8652C44.9698 47.8302 44.4098 47.6102 43.9598 47.2302C42.8298 46.2652 42.6948 44.5652 43.6598 43.4352C43.6698 43.4252 43.6748 43.4152 43.6798 43.4052C43.7548 43.2852 43.7148 43.1302 43.5948 43.0552C42.8048 42.6152 42.2248 41.8752 41.9798 41.0052C41.4748 39.2002 42.5298 37.3302 44.3348 36.8302C44.4098 36.8102 44.4698 36.7552 44.4998 36.6802C44.5348 36.6102 44.5348 36.5302 44.4998 36.4602C44.3448 36.2102 44.2398 35.9302 44.1898 35.6402C43.9748 34.3752 44.8198 33.1802 46.0848 32.9602C46.1598 32.9452 46.2298 32.8952 46.2648 32.8252C46.2998 32.7552 46.2998 32.6752 46.2648 32.6052C46.0848 32.2352 45.9898 31.8252 45.9898 31.4102C45.9948 29.9202 47.2048 28.7202 48.6948 28.7252C48.8348 28.7252 48.9698 28.7452 49.1048 28.7702C49.1848 28.7802 49.2648 28.7552 49.3198 28.6952C49.3798 28.6402 49.4048 28.5552 49.3898 28.4752C49.3448 28.2402 49.3198 28.0052 49.3198 27.7652C49.3198 26.8802 49.6298 26.0202 50.2048 25.3452C51.5348 23.7802 53.8848 23.5902 55.4498 24.9202C55.5098 24.9702 55.5898 24.9902 55.6648 24.9752C55.7398 24.9602 55.7998 24.9102 55.8348 24.8452L55.8748 24.7602C55.8998 24.7102 55.9248 24.6602 55.9548 24.6102C56.6448 23.5502 58.0548 23.2352 59.1298 23.9002C59.2348 23.9702 59.3798 23.9452 59.4548 23.8452C59.7998 23.4052 60.2698 23.0802 60.8048 22.9202C62.2248 22.4952 63.7148 23.3002 64.1398 24.7202C64.1698 24.8102 64.2398 24.8752 64.3298 24.8952C64.4198 24.9152 64.5098 24.8802 64.5698 24.8152C64.9848 24.3252 65.5898 24.0352 66.2298 24.0102C67.5198 23.9552 68.6048 24.9552 68.6598 26.2452C68.6598 26.3952 68.6548 26.5502 68.6298 26.7002C68.6148 26.8052 68.6648 26.9102 68.7598 26.9602C68.8548 27.0102 68.9698 26.9952 69.0498 26.9252C69.7398 26.2852 70.6448 25.9302 71.5848 25.9302C73.6398 25.9302 75.3048 27.6002 75.2998 29.6552C75.2998 30.1502 75.2048 30.6402 75.0098 31.0952C74.9798 31.1802 74.9898 31.2752 75.0448 31.3452C75.0998 31.4152 75.1848 31.4552 75.2748 31.4452H75.3648C75.3948 31.4452 75.4198 31.4452 75.4498 31.4452C76.2448 31.4102 77.0048 31.7802 77.4648 32.4302C78.2098 33.4852 77.9598 34.9402 76.9048 35.6852C76.8398 35.7302 76.7998 35.8052 76.7998 35.8852C76.7998 36.0252 76.9098 36.1352 77.0448 36.1402C78.9498 36.2202 80.4348 37.8102 80.3948 39.7152C80.3948 40.9852 79.7298 42.1652 78.6398 42.8202C78.5698 42.8602 78.5248 42.9252 78.5148 43.0052C78.5048 43.0852 78.5348 43.1602 78.5948 43.2152C79.1498 43.7302 79.4598 44.4552 79.4498 45.2152C79.3848 46.7202 78.1398 47.9052 76.6348 47.8952C76.5948 47.8952 76.5598 47.9052 76.5248 47.9252C76.1098 47.4052 75.4998 47.0652 74.8298 46.9852C74.3648 46.9052 73.8898 47.0302 73.5248 47.3302C73.5048 47.3502 73.4898 47.3702 73.4748 47.3902C73.5748 42.2602 72.4348 36.8152 72.4348 36.7502C72.4198 36.6102 72.2948 36.5102 72.1548 36.5252C72.0148 36.5402 71.9148 36.6652 71.9348 36.8002C71.9298 37.8902 71.1748 38.8352 70.1148 39.0902C68.8398 39.3952 67.5648 38.6102 67.2598 37.3352C67.2498 37.2952 67.2298 37.2552 67.2048 37.2252C67.1148 37.1202 66.9548 37.1152 66.8498 37.2052C66.4398 37.5802 65.8398 37.6602 65.3498 37.4002C65.2798 37.3602 65.1898 37.3602 65.1198 37.4002C65.0498 37.4352 64.9998 37.5052 64.9848 37.5852C64.8448 38.6452 64.0148 39.4752 62.9548 39.6152C61.6648 39.7852 60.4848 38.8752 60.3148 37.5852C60.3048 37.5002 60.2498 37.4302 60.1698 37.3952C60.0948 37.3502 60.0048 37.3502 59.9298 37.3952C59.8798 37.4302 59.8248 37.4602 59.7698 37.4902C58.9098 37.9402 57.8448 37.6052 57.3948 36.7452C57.3598 36.6802 57.2998 36.6352 57.2298 36.6152C57.0948 36.5802 56.9598 36.6652 56.9298 36.8002C56.6698 37.7652 55.7948 38.4402 54.7948 38.4452C54.4448 38.4452 54.1048 38.3602 53.7948 38.2002C53.7298 38.1752 53.6598 38.1752 53.5948 38.2002C53.5298 38.2252 53.4748 38.2802 53.4498 38.3452C53.1998 39.0302 52.4898 39.4302 51.7748 39.2802C51.6848 39.2602 51.5898 39.2952 51.5348 39.3652C51.4798 39.4352 51.4648 39.5252 51.4948 39.6102C51.5998 39.8852 51.6498 40.1752 51.6498 40.4652C51.6448 41.7752 50.5748 42.8302 49.2648 42.8202C47.9548 42.8152 46.8998 41.7452 46.9098 40.4352C46.9098 40.2952 46.7998 40.1852 46.6598 40.1852C46.5198 40.1852 46.4098 40.2952 46.4098 40.4352C46.4098 42.0202 47.6948 43.3052 49.2798 43.3052C50.8648 43.3052 52.1498 42.0202 52.1498 40.4352C52.1498 40.2202 52.1248 40.0102 52.0748 39.8002C52.7898 39.7902 53.4448 39.3902 53.7798 38.7602C54.0998 38.8902 54.4348 38.9502 54.7798 38.9502C55.8248 38.9502 56.7748 38.3452 57.2248 37.4052C57.6498 37.9052 58.2748 38.1952 58.9348 38.1952C59.2598 38.1952 59.5848 38.1252 59.8798 37.9902C60.1448 38.9902 60.9298 39.7652 61.9348 40.0202C63.4648 40.4102 65.0148 39.4852 65.4048 37.9602C65.8898 38.1102 66.4148 38.0502 66.8498 37.7952C67.2648 38.9202 68.3398 39.6702 69.5398 39.6652C70.6498 39.6652 71.6598 39.0202 72.1348 38.0202C72.4898 40.0852 73.1348 44.5352 72.8998 48.5002C72.8398 48.7652 72.8248 49.0402 72.8548 49.3202C72.8548 49.4602 72.9648 49.5702 73.1048 49.5702C73.2448 49.5702 73.3548 49.4602 73.3548 49.3202C73.3448 49.2252 73.3548 49.1302 73.3548 49.0302C73.3848 48.9902 73.4048 48.9502 73.4048 48.9002C73.4148 48.7752 73.4198 48.6452 73.4298 48.5152C73.5148 48.2252 73.6548 47.9502 73.8548 47.7152C74.1098 47.5102 74.4448 47.4302 74.7648 47.4902C75.3998 47.5502 75.9648 47.9052 76.2998 48.4502C76.6148 49.0002 76.5298 49.7052 76.1148 50.5452C75.6648 51.5052 75.3298 52.5102 75.1148 53.5452C74.6598 55.4952 74.3448 56.5152 72.7948 56.4502C73.1898 54.8552 73.4148 53.1802 73.4148 51.4502C73.4148 51.3102 73.3048 51.2002 73.1648 51.2002C73.0298 51.2002 72.9198 51.3152 72.9148 51.4502C72.9148 62.0502 64.3098 70.4952 61.0298 70.4952C57.7498 70.4952 49.6848 63.0752 49.1848 52.9202C49.1848 52.9202 49.1848 52.9202 49.1848 52.9152C49.1748 52.7752 49.0598 52.6702 48.9198 52.6802C48.9198 52.6802 48.9198 52.6802 48.9148 52.6802C48.7798 52.6902 48.6748 52.8052 48.6848 52.9402C48.7398 54.1352 48.9098 55.3052 49.1698 56.4402C47.7098 56.4702 47.3848 55.4402 46.9398 53.5352L46.9498 53.5452ZM53.5848 75.1202C54.1998 73.6602 54.6948 70.4502 54.4048 66.6702C56.7448 69.3652 59.3048 71.0052 61.0398 71.0052C62.6048 71.0052 65.2448 69.2702 67.6848 66.3802C67.3298 70.3802 67.7948 73.7002 68.4048 75.1252C69.1598 76.8902 70.5748 78.4352 71.8948 78.9502C71.6798 79.4202 71.4198 79.8702 71.1098 80.2852C68.7448 83.5252 64.9698 85.4402 60.9598 85.4302H60.8298C56.8398 85.4302 53.0998 83.4752 50.8298 80.1952C50.5548 79.8102 50.3248 79.3952 50.1298 78.9602C51.6098 78.4352 52.9098 76.7002 53.5848 75.1202ZM72.0448 83.1102L71.9598 83.2152C69.0848 86.7302 64.7248 88.6752 60.1898 88.4702C55.8498 88.3452 52.0598 86.4102 49.7998 83.1652L49.6398 82.9352C48.8398 81.8602 48.1948 80.6802 47.7048 79.4302L49.6348 79.0902C49.8548 79.5852 50.1198 80.0602 50.4348 80.5002C52.7998 83.9152 56.6848 85.9502 60.8398 85.9502H60.9598C65.1348 85.9552 69.0648 83.9602 71.5198 80.5852C71.8648 80.1202 72.1598 79.6152 72.3948 79.0852L73.8648 79.3502C73.8648 79.3502 73.8998 79.3702 73.9198 79.3702L74.1048 79.4052C73.6948 81.0252 72.5048 82.5352 72.0448 83.1102Z" fill="#07064E"></path>
<g id="Group_6">
<path id="Vector_28" d="M60.7901 63.8552C59.4051 63.8202 58.1051 63.2002 57.2001 62.1552C57.1051 62.0602 57.1001 61.9052 57.2001 61.8102C57.2951 61.7102 57.4551 61.7102 57.5551 61.8102C59.0001 63.5952 61.6151 63.8702 63.4001 62.4252C63.6251 62.2402 63.8351 62.0352 64.0151 61.8102C64.1101 61.7102 64.2701 61.7052 64.3701 61.8002C64.4701 61.8952 64.4751 62.0552 64.3801 62.1552C63.4751 63.2002 62.1751 63.8202 60.7901 63.8602V63.8552Z" fill="#07064E"></path>
<path id="Vector_29" d="M59.2749 66.5251C59.1349 66.5251 59.0249 66.4151 59.0249 66.2751C59.0249 66.1401 59.1299 66.0301 59.2649 66.0251C59.2649 66.0251 59.2649 66.0251 59.2699 66.0251H62.3049C62.4449 66.0251 62.5549 66.1351 62.5549 66.2751C62.5549 66.4151 62.4449 66.5251 62.3049 66.5251H59.2699H59.2749Z" fill="#07064E"></path>
<path id="Vector_30" d="M55.3298 51.4751C54.1248 51.4301 53.1748 50.4201 53.2048 49.2151C53.2048 49.0751 53.3148 48.9651 53.4548 48.9651C53.5948 48.9651 53.7048 49.0751 53.7048 49.2151C53.6198 50.1151 54.2748 50.9151 55.1748 51.0001C56.0748 51.0851 56.8748 50.4301 56.9598 49.5301C56.9698 49.4251 56.9698 49.3201 56.9598 49.2151C56.9598 49.0751 57.0698 48.9651 57.2098 48.9651C57.3498 48.9651 57.4598 49.0751 57.4598 49.2151C57.4898 50.4251 56.5398 51.4301 55.3298 51.4751Z" fill="#07064E"></path>
<path id="Vector_31" d="M66.4599 51.4751C65.2499 51.4351 64.2949 50.4251 64.3249 49.2151C64.3249 49.0751 64.4349 48.9651 64.5749 48.9651C64.7149 48.9651 64.8249 49.0751 64.8249 49.2151C64.7399 50.1151 65.3949 50.9151 66.2949 51.0001C67.1949 51.0851 67.9949 50.4301 68.0799 49.5301C68.0899 49.4251 68.0899 49.3201 68.0799 49.2151C68.0799 49.0751 68.1899 48.9651 68.3299 48.9651C68.4699 48.9651 68.5799 49.0751 68.5799 49.2151C68.6099 50.4201 67.6649 51.4251 66.4599 51.4751Z" fill="#07064E"></path>
<path id="Vector_32" d="M60.755 57.6202C60.335 57.6302 59.93 57.5002 59.595 57.2452C59.12 56.8352 59.005 56.1452 59.325 55.6052C60.195 54.1302 60.79 52.5152 61.085 50.8302L61.32 49.4802C61.35 49.3452 61.475 49.2552 61.61 49.2752C61.745 49.3002 61.84 49.4252 61.815 49.5652L61.575 50.9152C61.27 52.6452 60.665 54.3102 59.775 55.8302C59.565 56.1602 59.625 56.5952 59.915 56.8602C60.36 57.1652 60.94 57.1952 61.415 56.9452C61.53 56.8702 61.685 56.9002 61.76 57.0152C61.835 57.1252 61.81 57.2802 61.695 57.3552C61.695 57.3552 61.695 57.3552 61.69 57.3552C61.41 57.5302 61.085 57.6202 60.755 57.6152V57.6202Z" fill="#07064E"></path>
<path id="Vector_33" d="M51.085 46.9852C51.045 46.9852 51.01 46.9752 50.975 46.9602C50.85 46.9002 50.8 46.7502 50.865 46.6252C52.01 44.3602 54.365 44.6252 57.365 44.9152L58.46 45.0252C58.6 45.0402 58.7 45.1602 58.69 45.3002C58.675 45.4352 58.555 45.5402 58.415 45.5252L57.315 45.4152C54.395 45.1102 52.285 44.9152 51.315 46.8552C51.27 46.9402 51.18 46.9952 51.085 46.9902V46.9852Z" fill="#07064E"></path>
<path id="Vector_34" d="M70.9598 46.9852C70.8648 46.9852 70.7848 46.9302 70.7398 46.8502C69.7398 44.8902 67.6398 45.1052 64.7398 45.4102L63.6398 45.5202C63.4998 45.5302 63.3798 45.4302 63.3698 45.2902C63.3598 45.1502 63.4598 45.0302 63.5998 45.0202L64.6948 44.9102C67.6948 44.6002 70.0648 44.3552 71.1948 46.6202C71.2598 46.7402 71.2098 46.8952 71.0898 46.9602C71.0498 46.9752 71.0098 46.9852 70.9698 46.9852H70.9598Z" fill="#07064E"></path>
</g>
</g>
</g>
<g id="Group_7">
<path id="Vector_35" d="M86.1298 80.53C85.9948 85.91 91.6298 93.89 98.6698 100.49C104.525 94.955 110.44 88.7 111.32 80.455L109.32 80.165C108.565 86.935 104.91 91.55 98.6798 96.525C93.0348 91.125 88.9598 87.295 87.9598 80.215L86.1298 80.53Z" fill="#2BF5BA"></path>
<path id="Vector_36" d="M109.32 80.1651C108.935 89.2651 98.67 96.5851 98.67 96.5851C98.67 96.5851 88.195 87.7851 88.02 80.2401C90.7 78.5801 92.67 76.5801 92.575 68.6001C96.365 72.9051 99.63 73.3801 104.695 68.6001C104.6 75.2151 106.005 78.6501 109.32 80.1651Z" fill="white"></path>
<path id="Vector_37" d="M131.33 91.0802C131.43 86.4302 127.745 82.5752 123.09 82.4702C123.015 82.4702 122.935 82.4702 122.86 82.4702L111.32 80.4702C110.795 91.5052 98.6701 100.47 98.6701 100.47C98.6701 100.47 86.4501 90.1752 86.1701 80.6902L75.3951 82.4752C69.7551 82.6502 66.4451 86.9752 66.6851 92.5952L67.5501 117.34L130.47 117.38L131.33 91.0802Z" fill="white"></path>
<path id="Vector_38" d="M67.0847 109.12H76.8797L76.7197 104.785H66.9297L67.0847 109.12Z" fill="#2BF5BA"></path>
<path id="Vector_39" d="M130.58 109.12H120.785L120.945 104.785H130.73L130.58 109.12Z" fill="#2BF5BA"></path>
<path id="Vector_40" d="M109.46 44.5752C108.56 44.7202 107.64 44.7052 106.745 44.5352C110.02 55.5052 104.585 69.5002 97.0947 72.1652C97.5547 72.3302 98.0447 72.4052 98.5347 72.3902C102.375 72.1552 110.46 63.4652 110.615 53.1802C110.68 49.6302 109.46 44.5752 109.46 44.5752Z" fill="#EDEDED"></path>
<path id="Vector_41" d="M108.13 44.9403C106.38 44.9353 104.675 44.4153 103.22 43.4403C100.08 41.3303 98.355 38.8303 98.355 36.4053C98.355 36.2653 98.465 36.1553 98.605 36.1553C98.74 36.1553 98.85 36.2703 98.855 36.4053C98.855 38.6603 100.505 41.0103 103.5 43.0303C106.655 45.1553 110.61 44.7753 111.78 43.0303C111.855 42.9153 112.01 42.8853 112.125 42.9603C112.24 43.0403 112.27 43.1953 112.195 43.3103C111.5 44.3253 109.96 44.9403 108.13 44.9403Z" fill="#EDEDED"></path>
<path id="Vector_42" d="M122.445 64.0603C120.55 60.3253 117.015 54.7303 116.385 47.0603C115.095 31.4053 102.605 27.5603 98.5951 32.7603L98.6051 32.7853C94.6051 27.5903 82.1051 31.4303 80.8151 47.0853C80.1851 54.7403 76.6501 60.3353 74.7501 64.0853C74.5501 64.4853 74.7151 64.9703 75.1151 65.1703C75.2751 65.2503 75.4601 65.2753 75.6351 65.2403L79.7451 64.4053C80.1851 64.3153 80.6101 64.6003 80.7001 65.0403C80.7101 65.0903 80.7151 65.1453 80.7151 65.1953L80.7551 70.5603C80.7551 71.0053 81.1151 71.3653 81.5601 71.3653C81.6901 71.3653 81.8151 71.3353 81.9301 71.2753L86.2151 69.1103C86.6201 68.9103 87.1051 69.0753 87.3051 69.4803C87.3401 69.5503 87.3651 69.6253 87.3801 69.7053L88.0801 74.0253C88.1501 74.4653 88.5601 74.7653 89.0001 74.6953C89.1001 74.6803 89.2001 74.6453 89.2851 74.5953L92.3851 72.7953C92.5251 71.6153 92.5951 70.2353 92.5751 68.6003C92.7001 68.7403 92.8201 68.8753 92.9451 69.0103C92.9351 69.1603 92.9251 69.3103 92.9251 69.4603C92.9251 73.8803 95.4801 77.4603 98.6351 77.4603C101.79 77.4603 104.35 73.8803 104.35 69.4603C104.35 69.2803 104.35 69.1053 104.34 68.9303C104.46 68.8253 104.575 68.7153 104.695 68.6003C104.67 70.1953 104.74 71.6003 104.895 72.8403L107.915 74.5953C108.3 74.8203 108.79 74.6953 109.02 74.3103C109.07 74.2203 109.105 74.1253 109.12 74.0253L109.82 69.7053C109.89 69.2653 110.305 68.9653 110.75 69.0353C110.835 69.0503 110.915 69.0753 110.985 69.1103L115.27 71.2753C115.665 71.4803 116.15 71.3253 116.355 70.9303C116.415 70.8153 116.445 70.6903 116.445 70.5603L116.48 65.1953C116.48 64.7503 116.845 64.3853 117.295 64.3903C117.345 64.3903 117.4 64.3953 117.45 64.4053L121.56 65.2153C122 65.3053 122.425 65.0203 122.515 64.5803C122.55 64.4053 122.525 64.2203 122.445 64.0603Z" fill="#EDEDED"></path>
<path id="Vector_43" d="M87.2052 51.6852C87.2052 50.0102 86.5602 49.2052 85.7352 49.3152C84.6252 49.4702 83.5802 50.5952 84.0802 52.9702C84.4402 54.7152 85.5752 59.1952 87.9902 58.9202C89.8852 67.1102 95.2352 72.5952 98.5702 72.3902C101.875 72.1902 108.32 65.7202 110.15 57.3652C110.06 57.9752 109.95 58.5052 109.805 58.9202C112.24 59.2352 113.39 54.7202 113.745 52.9702C114.245 50.5952 113.205 49.4702 112.095 49.3152C111.27 49.2052 110.625 50.0102 110.625 51.6852C110.625 51.7252 110.62 51.7652 110.615 51.8052C110.42 48.4552 109.495 44.5752 109.495 44.5752C107.16 44.9102 104.785 44.3002 102.9 42.8752C99.0502 40.1752 98.6252 36.8352 98.6252 36.8352C97.8252 40.3852 93.5502 44.9502 88.1252 44.8352" fill="white"></path>
<path id="Vector_44" d="M98.4949 34.8152C107.905 30.5502 112.495 39.7552 116.095 44.7402C113.87 32.4952 104.095 27.5752 98.5949 32.7852C92.2799 26.4952 81.7549 34.5602 80.8799 46.2852C84.8549 39.3952 89.4999 30.5852 98.4949 34.8152Z" fill="white"></path>
<path id="Vector_45" d="M86.905 60.5651C87.5208 60.5651 88.02 60.0345 88.02 59.3801C88.02 58.7256 87.5208 58.1951 86.905 58.1951C86.2892 58.1951 85.79 58.7256 85.79 59.3801C85.79 60.0345 86.2892 60.5651 86.905 60.5651Z" fill="white"></path>
<path id="Vector_46" d="M110.76 60.5651C111.376 60.5651 111.875 60.0345 111.875 59.3801C111.875 58.7256 111.376 58.1951 110.76 58.1951C110.144 58.1951 109.645 58.7256 109.645 59.3801C109.645 60.0345 110.144 60.5651 110.76 60.5651Z" fill="white"></path>
<g id="Group_8">
<g id="Group_9">
<path id="Vector_47" d="M98.6146 65.1301C96.9196 65.1301 95.2696 64.5551 93.9346 63.5101C93.8196 63.4351 93.7896 63.2751 93.8696 63.1651C93.9446 63.0501 94.1046 63.0201 94.2146 63.1001C94.2246 63.1051 94.2296 63.1101 94.2396 63.1201C96.8096 65.1401 100.43 65.1401 103 63.1201C103.11 63.0351 103.265 63.0551 103.35 63.1651C103.43 63.2751 103.41 63.4301 103.305 63.5151C101.965 64.5601 100.315 65.1301 98.6146 65.1351V65.1301Z" fill="#07064E"></path>
<path id="Vector_48" d="M98.4596 58.765C97.9796 58.765 97.5296 58.525 97.2596 58.13C96.8896 57.615 96.8396 56.93 97.1396 56.37C97.7746 55.205 98.1396 53.615 98.3896 51.225C98.3996 51.09 98.5196 50.99 98.6546 51C98.6546 51 98.6546 51 98.6596 51C98.7946 51.01 98.8946 51.13 98.8846 51.265C98.8846 51.265 98.8846 51.265 98.8846 51.27C98.6496 53.735 98.2446 55.38 97.5796 56.61C97.3746 57.005 97.4046 57.48 97.6646 57.84C97.8796 58.17 98.2796 58.33 98.6646 58.25C98.7646 58.235 98.8596 58.205 98.9446 58.155C99.0596 58.08 99.2146 58.115 99.2896 58.23C99.3646 58.345 99.3296 58.5 99.2146 58.575C99.2046 58.575 99.1996 58.585 99.1896 58.59C99.0546 58.665 98.9046 58.715 98.7496 58.74C98.6546 58.755 98.5546 58.765 98.4596 58.765Z" fill="#07064E"></path>
<path id="Vector_49" d="M95.22 54.015L94.455 53.25C94.88 52.845 95.14 52.275 95.12 51.645C95.12 51.505 95.01 51.395 94.87 51.395C94.73 51.395 94.62 51.505 94.62 51.645C94.63 51.745 94.63 51.85 94.62 51.95C94.54 52.745 93.885 53.335 93.11 53.36C93.095 53.36 93.075 53.35 93.06 53.35C93.045 53.35 93.025 53.355 93.01 53.36C92.975 53.36 92.94 53.36 92.905 53.36C92.04 53.275 91.41 52.505 91.495 51.645C91.495 51.505 91.385 51.395 91.245 51.395C91.105 51.395 90.995 51.505 90.995 51.645C90.975 52.275 91.235 52.845 91.66 53.25L90.895 54.015C90.8 54.11 90.8 54.27 90.895 54.365C90.945 54.415 91.005 54.44 91.075 54.44C91.14 54.44 91.205 54.415 91.25 54.365L92.065 53.555C92.29 53.685 92.54 53.775 92.81 53.815V54.88C92.81 55.02 92.92 55.13 93.06 55.13C93.195 55.13 93.305 55.015 93.31 54.88V53.815C93.58 53.775 93.83 53.685 94.055 53.55L94.865 54.36C94.915 54.41 94.975 54.435 95.045 54.435C95.11 54.435 95.17 54.41 95.215 54.365C95.315 54.27 95.315 54.11 95.215 54.01L95.22 54.015Z" fill="#07064E"></path>
<path id="Vector_50" d="M105.96 54.015L105.185 53.25C105.605 52.845 105.87 52.275 105.85 51.645C105.85 51.505 105.74 51.395 105.6 51.395C105.46 51.395 105.35 51.505 105.35 51.645C105.36 51.745 105.36 51.85 105.35 51.95C105.27 52.745 104.615 53.335 103.84 53.36C103.825 53.36 103.805 53.35 103.79 53.35C103.775 53.35 103.755 53.355 103.74 53.36C103.705 53.36 103.67 53.36 103.635 53.36C102.77 53.275 102.14 52.505 102.225 51.645C102.225 51.505 102.115 51.395 101.975 51.395C101.835 51.395 101.725 51.505 101.725 51.645C101.705 52.275 101.965 52.845 102.39 53.25L101.625 54.015C101.53 54.11 101.53 54.27 101.625 54.365C101.675 54.415 101.735 54.44 101.805 54.44C101.865 54.435 101.92 54.41 101.96 54.365L102.795 53.555C103.02 53.685 103.27 53.775 103.54 53.82V54.885C103.54 55.025 103.65 55.135 103.79 55.135C103.925 55.135 104.035 55.02 104.04 54.885V53.82C104.31 53.78 104.56 53.69 104.785 53.555L105.595 54.365C105.645 54.415 105.71 54.44 105.775 54.44H105.785C105.85 54.44 105.91 54.415 105.955 54.37C106.055 54.275 106.055 54.115 105.955 54.015H105.96Z" fill="#07064E"></path>
<path id="Vector_51" d="M89.4249 48.8701C89.3249 48.8701 89.2299 48.8101 89.1949 48.7151C89.1449 48.5901 89.2049 48.4451 89.3299 48.3901C91.5049 47.5051 93.4749 47.1651 96.0249 48.3901C96.1499 48.4501 96.1999 48.6001 96.1399 48.7251C96.0799 48.8451 95.9349 48.9001 95.8149 48.8401C93.4299 47.6901 91.5749 48.0151 89.5249 48.8401C89.4949 48.8551 89.4649 48.8651 89.4299 48.8701H89.4249Z" fill="#07064E"></path>
<path id="Vector_52" d="M107.72 48.8702H107.625C105.58 48.0352 103.725 47.7102 101.34 48.8702C101.22 48.9402 101.065 48.8952 101 48.7752C100.93 48.6552 100.975 48.5002 101.095 48.4352C101.105 48.4302 101.115 48.4252 101.125 48.4202C103.675 47.1902 105.625 47.5302 107.815 48.4202C107.955 48.4452 108.045 48.5802 108.015 48.7202C107.985 48.8602 107.855 48.9502 107.715 48.9202V48.8702H107.72Z" fill="#07064E"></path>
</g>
<g id="Group_10">
<path id="Vector_53" d="M124.46 82.5302L111.335 80.1902L109.655 79.9702L109.355 79.9052C108.18 79.6502 106.82 78.2102 106.06 76.4102C105.62 75.3902 105.305 74.3252 105.1 73.2402L107.79 74.8002C107.95 74.8952 108.135 74.9402 108.32 74.9402C108.475 74.9302 108.625 74.8902 108.76 74.8152C109.075 74.6652 109.295 74.3702 109.35 74.0252L110.05 69.7052C110.06 69.6502 110.075 69.5952 110.105 69.5452C110.245 69.2702 110.58 69.1602 110.855 69.2952L115.145 71.4602C115.47 71.6252 115.86 71.6102 116.175 71.4202C116.485 71.2252 116.675 70.8852 116.675 70.5202L116.71 65.1552C116.71 64.9902 116.79 64.8302 116.92 64.7252C117.05 64.6202 117.215 64.5802 117.38 64.6102L121.495 65.4452C121.895 65.5252 122.305 65.3702 122.55 65.0452C122.795 64.7252 122.835 64.2902 122.65 63.9302C122.385 63.4052 122.085 62.8502 121.77 62.2502C119.82 58.5902 117.15 53.5752 116.615 47.0402C115.79 37.0752 110.6 32.0802 106.02 30.7252C103.03 29.8402 100.22 30.4752 98.5749 32.3702C96.9299 30.4952 94.1249 29.8702 91.1549 30.7502C86.5599 32.1052 81.3799 37.1002 80.5599 47.0652C80.0199 53.6002 77.3549 58.6152 75.4049 62.2752C75.0849 62.8702 74.7899 63.4552 74.5249 63.9552C74.3399 64.3152 74.3799 64.7502 74.6249 65.0702C74.8699 65.3952 75.2799 65.5502 75.6799 65.4702L79.7899 64.6352C79.9549 64.6052 80.1249 64.6452 80.2549 64.7502C80.3849 64.8552 80.4599 65.0152 80.4599 65.1802L80.5099 70.5452C80.5099 70.9102 80.6999 71.2502 81.0099 71.4452C81.3249 71.6352 81.7149 71.6502 82.0399 71.4852L86.3299 69.3202C86.3799 69.2952 86.4349 69.2752 86.4899 69.2652C86.7949 69.2152 87.0849 69.4252 87.1349 69.7302L87.8349 74.0502C87.8899 74.3952 88.1099 74.6902 88.4249 74.8402C88.5649 74.9052 88.7249 74.9402 88.8799 74.9402C89.0549 74.9402 89.2299 74.9052 89.3849 74.8252L92.1799 73.2002C91.9749 74.3002 91.6599 75.3752 91.2149 76.4152C90.4499 78.2052 89.0849 79.6502 87.9049 79.9152L73.1399 82.5302C69.0799 83.4302 66.1849 87.0252 66.1699 91.1852L67.0849 117.325C67.0899 117.46 67.1999 117.565 67.3349 117.565H130.295C130.43 117.565 130.54 117.46 130.545 117.325L131.46 91.1752C131.44 87.0102 128.53 83.4152 124.46 82.5302ZM89.1349 74.3902C88.9799 74.4702 88.7899 74.4702 88.6349 74.3902C88.4649 74.3102 88.3499 74.1552 88.3199 73.9702L87.6199 69.6502C87.5649 69.3152 87.3549 69.0302 87.0549 68.8752C86.7549 68.7202 86.3999 68.7202 86.0999 68.8752L81.8099 71.0402C81.6349 71.1252 81.4299 71.1152 81.2649 71.0152C81.0999 70.9152 80.9999 70.7352 80.9999 70.5452L80.9599 65.1802C80.9599 64.8652 80.8199 64.5652 80.5699 64.3652C80.3249 64.1652 80.0049 64.0852 79.6949 64.1452L75.5849 64.9752C75.3749 65.0202 75.1549 64.9402 75.0249 64.7652C74.8899 64.6002 74.8699 64.3702 74.9699 64.1802C75.2349 63.6602 75.5299 63.1052 75.8449 62.5102C77.8149 58.8102 80.5099 53.7402 81.0599 47.1052C81.8599 37.3952 86.8749 32.5352 91.2999 31.2252C94.1999 30.3702 96.9249 31.0252 98.3999 32.9402C98.4849 33.0452 98.6399 33.0652 98.7499 32.9852C98.7949 32.9502 98.8249 32.8952 98.8349 32.8402C100.325 30.9852 103.005 30.3552 105.875 31.2002C110.3 32.5102 115.315 37.3702 116.115 47.0802C116.665 53.7202 119.36 58.7852 121.33 62.4852C121.645 63.0802 121.94 63.6552 122.205 64.1552C122.26 64.2652 122.275 64.3902 122.25 64.5152C122.19 64.8202 121.89 65.0152 121.59 64.9502L117.48 64.1202C117.42 64.1102 117.36 64.1002 117.295 64.1002C116.705 64.0902 116.22 64.5652 116.21 65.1552L116.175 70.5202C116.175 70.7102 116.075 70.8902 115.91 70.9902C115.745 71.0902 115.54 71.1002 115.365 71.0152L111.075 68.8502C110.775 68.6952 110.415 68.6952 110.115 68.8502C109.815 69.0052 109.605 69.2902 109.55 69.6252L108.855 73.9452C108.825 74.1302 108.705 74.2852 108.54 74.3652C108.385 74.4452 108.195 74.4452 108.04 74.3652L104.99 72.5952C104.805 71.2852 104.785 69.9552 104.95 68.6302C104.95 68.5952 104.95 68.5602 104.94 68.5302C106.75 66.4602 108.45 63.6652 109.57 60.2702C109.85 60.6202 110.285 60.8402 110.765 60.8152C111.54 60.7952 112.15 60.1552 112.13 59.3802C112.13 59.3552 112.13 59.3352 112.13 59.3102C112.115 58.9552 111.965 58.6402 111.735 58.4002C112.96 57.1602 113.65 54.7102 113.995 53.0352C114.32 51.4352 113.96 50.4852 113.6 49.9852C113.255 49.4902 112.72 49.1652 112.125 49.0852C111.765 49.0302 111.395 49.1402 111.125 49.3852C110.99 49.5002 110.875 49.6452 110.78 49.8152C110.755 49.5002 110.73 49.1852 110.69 48.8752C110.525 47.4752 110.225 46.0902 109.8 44.7452C110.87 44.4902 111.73 43.9952 112.2 43.3102C112.275 43.1952 112.245 43.0402 112.13 42.9602C112.015 42.8852 111.86 42.9152 111.785 43.0302C110.615 44.7752 106.66 45.1552 103.505 43.0302C100.51 41.0102 98.8599 38.6602 98.8599 36.4052V36.3952C98.8599 36.2602 98.7449 36.1502 98.6099 36.1452C98.4699 36.1452 98.3599 36.2552 98.3599 36.3952C98.3599 38.6502 96.7149 41.0202 93.7149 43.0202C90.5549 45.1352 86.5999 44.7552 85.4349 43.0202C85.3549 42.9052 85.1999 42.8752 85.0849 42.9502C84.9699 43.0302 84.9449 43.1852 85.0249 43.3002C85.5549 44.0902 86.5899 44.6302 87.8599 44.8452C87.4249 46.4552 87.1499 48.1002 87.0349 49.7602C86.9399 49.6102 86.8349 49.4802 86.7099 49.3752C86.4399 49.1302 86.0699 49.0202 85.7099 49.0752C85.1149 49.1552 84.5799 49.4802 84.2349 49.9752C83.8749 50.4852 83.5149 51.4252 83.8449 53.0252C84.1749 54.6502 84.8299 56.9752 85.9649 58.2552C85.6099 58.5302 85.3899 58.9702 85.4099 59.4552C85.4499 60.2452 86.1199 60.8552 86.9149 60.8202C87.4149 60.8052 87.8449 60.5252 88.0849 60.1252C89.0799 63.6852 90.6399 66.5902 92.3449 68.7052C92.4949 70.0002 92.4799 71.3002 92.2999 72.5752C92.2799 72.5802 92.2649 72.5852 92.2449 72.5952L89.1449 74.3952L89.1349 74.3902ZM86.9049 58.4452C87.3999 58.4652 87.7849 58.8852 87.7699 59.3802C87.7699 59.4052 87.7699 59.4302 87.7699 59.4552C87.7299 59.9702 87.2749 60.3602 86.7599 60.3152C86.2449 60.2752 85.8549 59.8202 85.8999 59.3052C85.9399 58.7902 86.3949 58.4002 86.9099 58.4452H86.9049ZM87.7399 55.9302C87.7199 55.7952 87.5949 55.6952 87.4599 55.7152C87.4499 55.7152 87.4349 55.7152 87.4249 55.7152C87.2899 55.7402 87.2049 55.8702 87.2299 56.0002C87.3299 56.7452 87.4549 57.4652 87.5999 58.1652C87.3599 58.0102 87.0699 57.9302 86.7649 57.9452C86.6449 57.9502 86.5349 57.9752 86.4249 58.0102C85.1999 56.7302 84.5399 53.9652 84.3199 52.9202C84.0249 51.4952 84.3199 50.6852 84.6299 50.2602C84.8949 49.8802 85.3049 49.6252 85.7649 49.5652C85.9849 49.5302 86.2099 49.5952 86.3749 49.7452C86.7449 50.0702 86.9499 50.7602 86.9499 51.6852C86.9499 51.8252 87.0599 51.9352 87.1999 51.9352C87.3399 51.9352 87.4499 51.8252 87.4549 51.6852C87.4549 49.3952 87.7549 47.1152 88.3649 44.9052C88.5949 44.9252 88.8299 44.9402 89.0699 44.9402C90.8199 44.9302 92.5299 44.4052 93.9849 43.4252C96.4299 41.7802 98.0149 39.8952 98.5949 37.9952C99.1699 39.9002 100.755 41.7902 103.215 43.4402C104.67 44.4152 106.375 44.9352 108.125 44.9402C108.535 44.9402 108.925 44.9052 109.3 44.8452C109.725 46.1752 110.02 47.5452 110.185 48.9352C110.305 49.8902 110.37 50.8552 110.37 51.8202C110.37 51.9602 110.48 52.0702 110.62 52.0702H110.625C110.76 52.0702 110.87 51.9552 110.87 51.8202C110.87 51.7852 110.87 51.7502 110.87 51.7152C110.87 51.7102 110.87 51.7052 110.87 51.7002C110.87 50.7602 111.075 50.0852 111.445 49.7602C111.61 49.6102 111.835 49.5452 112.055 49.5802C112.515 49.6452 112.925 49.8952 113.19 50.2752C113.495 50.7002 113.785 51.5102 113.495 52.9352C113.28 54.0002 112.585 56.8552 111.315 58.1002C111.105 57.9952 110.865 57.9352 110.615 57.9502C110.465 57.9552 110.32 57.9952 110.185 58.0452C110.34 57.3802 110.47 56.7002 110.58 55.9952C110.6 55.8552 110.505 55.7302 110.37 55.7052C110.23 55.6852 110.105 55.7802 110.08 55.9152C109.945 56.8102 109.765 57.6752 109.545 58.5152C109.35 58.7752 109.23 59.1002 109.25 59.4502C109.25 59.4752 109.26 59.5002 109.26 59.5252C106.88 67.3252 101.23 72.1652 98.4899 72.1652C94.9799 72.1652 89.0549 65.8552 87.7299 55.9302H87.7399ZM111.625 59.3802C111.625 59.4052 111.625 59.4302 111.625 59.4552C111.585 59.9702 111.13 60.3602 110.615 60.3152C110.2 60.2802 109.875 59.9852 109.78 59.6002C109.865 59.3102 109.95 59.0152 110.03 58.7152C110.22 58.5302 110.48 58.4202 110.765 58.4402C111.26 58.4602 111.65 58.8802 111.63 59.3752L111.625 59.3802ZM91.6799 76.6102C92.6649 74.3252 93.0799 71.8352 92.8999 69.3602C94.8199 71.5052 96.8649 72.6752 98.4849 72.6752L98.5049 72.6652C99.9999 72.6552 102.24 71.4052 104.4 69.1202C104.18 71.6752 104.585 74.2452 105.6 76.6052C106.265 78.1702 107.57 79.8952 109.04 80.3552C108.875 87.6802 99.9599 95.1802 98.6549 96.2402C97.3499 95.1402 88.2949 87.1152 88.2549 80.3552C89.7249 79.8902 91.0199 78.1752 91.6799 76.6102ZM87.7699 80.4652C87.8999 87.9252 98.0749 96.4302 98.5099 96.7902C98.5999 96.8652 98.7349 96.8652 98.8249 96.7902C99.2549 96.4552 109.31 88.5552 109.565 80.4902L110.9 80.6652C110.85 89.6702 100.105 98.9452 98.6749 100.14C97.2549 98.8802 86.3749 88.9852 86.4349 80.7002L87.7749 80.4652H87.7699ZM130.075 117.065H120.535L121.615 97.3802C121.615 97.3802 121.615 97.3752 121.615 97.3702C121.62 97.2352 121.515 97.1202 121.38 97.1152C121.24 97.1052 121.125 97.2102 121.115 97.3502L120.035 117.065H77.6399L76.5599 97.3502C76.5599 97.3502 76.5599 97.3302 76.5599 97.3252C76.5449 97.1952 76.4299 97.1052 76.2999 97.1152C76.2999 97.1152 76.2999 97.1152 76.2949 97.1152C76.1549 97.1252 76.0499 97.2402 76.0599 97.3802L77.1449 117.065H67.5749L66.6699 91.1902C66.6849 87.2702 69.4099 83.8852 73.2349 83.0352L85.9399 80.7902C85.9599 89.8202 98.0099 100.215 98.5049 100.655C98.5199 100.665 98.5399 100.675 98.5549 100.685C98.5549 100.685 98.5649 100.685 98.5649 100.69C98.5949 100.705 98.6299 100.715 98.6649 100.715C98.6649 100.715 98.6699 100.715 98.6749 100.715C98.7199 100.715 98.7549 100.695 98.7899 100.675C98.7999 100.67 98.8099 100.675 98.8199 100.665C99.3349 100.25 111.28 90.5602 111.39 80.7402L124.38 83.0252C128.205 83.8702 130.935 87.2502 130.955 91.1702L130.07 117.07L130.075 117.065Z" fill="#07064E"></path>
<path id="Vector_54" d="M98.67 100.715L98.665 100.71V100.715H98.67Z" fill="#07064E"></path>
</g>
</g>
</g>
</g>
</g>
</g>
</g>
<defs>
<clipPath id="clip0_86_204">
<rect width="200" height="140" fill="white"></rect>
</clipPath>
</defs>
</svg>