<svg width="200" height="140" viewBox="0 0 200 140" fill="none" xmlns="http://www.w3.org/2000/svg">
<g id="illu_bg_point-voting/Default" clip-path="url(#clip0_85_2026)">
<g id="illu_bg_point-voting">
<g id="background">
<path id="Vector" d="M163.05 14.54C199.715 32.095 195.4 108.155 172.185 123.16C161.785 129.885 157.055 124.755 106.83 134.67C72.8749 141.375 -3.68505 138.62 19.315 98.38C34.575 71.68 18.335 54.345 15.52 42.805C10.59 22.62 30.4 1.29498 54.65 6.00998C118.345 18.395 144.01 5.41998 163.05 14.535V14.54Z" fill="#EDEDED"></path>
<g id="Vector_2">
<path d="M161.635 11.705C198.3 29.26 193.985 105.32 170.77 120.325C160.37 127.05 155.64 121.92 105.415 131.835C71.4601 138.54 -5.09994 135.785 17.9001 95.545C33.1601 68.845 16.9201 51.51 14.1051 39.97C9.17006 19.785 28.9801 -1.54001 53.2301 3.17499C116.925 15.56 142.59 2.58499 161.63 11.7L161.635 11.705Z" fill="#2BF5BA"></path>
<path d="M190.785 134.73C193.726 134.73 196.11 132.346 196.11 129.405C196.11 126.464 193.726 124.08 190.785 124.08C187.844 124.08 185.46 126.464 185.46 129.405C185.46 132.346 187.844 134.73 190.785 134.73Z" fill="#2BF5BA"></path>
<path d="M13.1589 16.925C16.1373 14.6968 17.1774 11.0532 15.4818 8.78679C13.7863 6.52035 9.99735 6.48932 7.01892 8.71747C4.04049 10.9456 3.00048 14.5892 4.69599 16.8556C6.39151 19.1221 10.1805 19.1531 13.1589 16.925Z" fill="#2BF5BA"></path>
<path d="M186.471 12.1439C187.78 11.1646 188.218 9.53729 187.448 8.5091C186.679 7.48091 184.995 7.44125 183.686 8.42051C182.377 9.39977 181.939 11.0271 182.708 12.0553C183.477 13.0835 185.162 13.1232 186.471 12.1439Z" fill="#2BF5BA"></path>
<path d="M9.0871 38.9313C10.3961 37.9521 10.8337 36.3247 10.0645 35.2965C9.29535 34.2683 7.61065 34.2287 6.30165 35.2079C4.99264 36.1872 4.55503 37.8145 5.32421 38.8427C6.09339 39.8709 7.7781 39.9106 9.0871 38.9313Z" fill="#2BF5BA"></path>
</g>
</g>
<g id="illu_bg_point-voting_2">
<g id="stroke">
<path id="Vector_3" d="M98.4754 15.47C88.0504 8.23001 71.3204 26.09 79.2404 43.725C86.2454 59.31 61.8304 60.52 71.6254 83.52L108.095 62.605C114.115 55.175 114.42 45.36 115.395 36.165C116.59 24.87 106.88 8.77001 98.4754 15.47Z" fill="#EDEDED"></path>
<path id="Vector_4" d="M108.226 113.6C107.876 113.925 107.336 114.05 107.056 113.785L103.066 110.92C101.191 112.05 99.0659 113.8 97.4009 113.65L96.1459 112.97L92.0909 111.79L91.0359 111.365H91.0409L90.7259 111.335C86.5709 110.9 81.1009 109.925 75.2809 108.81C71.8009 107.93 69.3609 105.11 69.1859 101.525L69.0759 99.285H69.0059L69.1859 102.94C69.3609 106.525 71.8009 109.345 75.2809 110.225C81.1009 111.345 86.5709 112.32 90.7259 112.75L91.0409 112.77H91.0359L92.0909 113.2L96.1459 114.38L97.4009 115.06C99.0659 115.21 101.191 113.465 103.066 112.33L107.056 115.195C107.626 115.725 109.216 114.695 108.251 113.61L108.231 113.595L108.226 113.6Z" fill="#2AEDB4"></path>
<g id="Vector_5">
<path d="M153.811 83.98C153.751 83.98 153.696 83.96 153.646 83.92C153.541 83.83 153.531 83.67 153.621 83.565C154.176 82.925 154.716 82.29 155.241 81.665C155.331 81.56 155.486 81.545 155.591 81.635C155.696 81.725 155.711 81.88 155.621 81.985C155.096 82.615 154.556 83.25 153.996 83.895C153.946 83.95 153.876 83.98 153.806 83.98H153.811Z" fill="#07064E"></path>
<path d="M158.511 78.22C158.456 78.22 158.406 78.205 158.361 78.17C158.251 78.085 158.231 77.93 158.311 77.82C159.341 76.47 160.306 75.125 161.181 73.825C161.256 73.71 161.416 73.68 161.526 73.76C161.641 73.835 161.671 73.99 161.591 74.105C160.706 75.41 159.736 76.765 158.701 78.12C158.651 78.185 158.576 78.22 158.501 78.22H158.511ZM164.011 70.035C163.971 70.035 163.926 70.025 163.886 70C163.766 69.93 163.726 69.78 163.796 69.66C164.651 68.175 165.411 66.71 166.051 65.3C166.106 65.175 166.256 65.12 166.381 65.175C166.506 65.23 166.561 65.38 166.506 65.505C165.856 66.925 165.091 68.405 164.226 69.905C164.181 69.985 164.096 70.03 164.011 70.03V70.035ZM143.201 67.255C143.071 67.255 142.961 67.155 142.951 67.025C142.941 66.885 143.046 66.765 143.181 66.755C144.811 66.635 146.361 66.19 147.786 65.435C147.906 65.37 148.061 65.415 148.126 65.54C148.191 65.66 148.146 65.815 148.021 65.88C146.531 66.67 144.916 67.135 143.216 67.26C143.211 67.26 143.201 67.26 143.196 67.26L143.201 67.255ZM138.321 66.725C138.321 66.725 138.276 66.725 138.251 66.715C136.751 66.295 135.211 65.635 133.671 64.755C133.551 64.685 133.511 64.535 133.576 64.415C133.646 64.295 133.796 64.255 133.916 64.32C135.421 65.18 136.921 65.82 138.386 66.235C138.521 66.275 138.596 66.41 138.561 66.545C138.531 66.655 138.431 66.73 138.321 66.73V66.725ZM36.7907 65.095C36.7307 65.095 36.6657 65.07 36.6157 65.025C35.3307 63.8 34.2057 62.565 33.2607 61.365C33.1757 61.255 33.1957 61.1 33.3007 61.015C33.4107 60.93 33.5657 60.95 33.6507 61.055C34.5807 62.24 35.6907 63.45 36.9607 64.66C37.0607 64.755 37.0657 64.915 36.9707 65.015C36.9207 65.065 36.8557 65.09 36.7907 65.09V65.095ZM151.716 62.82C151.656 62.82 151.601 62.8 151.551 62.76C151.446 62.67 151.436 62.51 151.526 62.405C152.541 61.225 153.401 59.84 154.081 58.29C154.136 58.165 154.286 58.105 154.411 58.16C154.536 58.215 154.596 58.365 154.541 58.49C153.841 60.085 152.956 61.51 151.911 62.73C151.861 62.785 151.791 62.815 151.721 62.815L151.716 62.82ZM129.751 61.975C129.696 61.975 129.641 61.955 129.591 61.92C129.306 61.69 129.021 61.445 128.736 61.195C127.706 60.3 126.781 59.4 125.976 58.51C125.881 58.405 125.891 58.25 125.996 58.155C126.096 58.065 126.256 58.07 126.351 58.175C127.141 59.05 128.056 59.935 129.066 60.82C129.346 61.065 129.631 61.305 129.911 61.53C130.016 61.615 130.036 61.775 129.946 61.88C129.896 61.94 129.826 61.97 129.751 61.97V61.975ZM168.041 61.05C168.041 61.05 167.991 61.05 167.966 61.04C167.836 61 167.761 60.86 167.801 60.73C168.306 59.075 168.641 57.47 168.801 55.955C168.816 55.82 168.936 55.715 169.076 55.735C169.211 55.75 169.311 55.875 169.296 56.01C169.131 57.555 168.791 59.195 168.276 60.88C168.241 60.99 168.146 61.055 168.036 61.055L168.041 61.05ZM30.8457 57.29C30.7507 57.29 30.6607 57.235 30.6207 57.145C29.8657 55.52 29.4307 53.895 29.3307 52.32C29.3207 52.18 29.4257 52.065 29.5657 52.055C29.7057 52.05 29.8207 52.15 29.8307 52.29C29.9307 53.805 30.3457 55.37 31.0757 56.94C31.1357 57.065 31.0757 57.215 30.9557 57.27C30.9207 57.285 30.8857 57.295 30.8507 57.295L30.8457 57.29ZM123.301 54.59C123.211 54.59 123.121 54.54 123.081 54.455C122.236 52.815 121.806 51.2 121.806 49.65C121.806 49.51 121.916 49.385 122.056 49.385C122.196 49.385 122.306 49.48 122.306 49.62V49.655C122.306 51.125 122.716 52.66 123.526 54.23C123.591 54.355 123.541 54.505 123.421 54.565C123.386 54.585 123.346 54.595 123.306 54.595L123.301 54.59ZM155.716 53.925C155.716 53.925 155.686 53.925 155.671 53.925C155.536 53.9 155.446 53.77 155.466 53.635C155.691 52.345 155.806 51.005 155.806 49.66C155.806 49.365 155.801 49.07 155.791 48.775C155.786 48.635 155.896 48.52 156.031 48.515C156.161 48.515 156.286 48.62 156.291 48.755C156.301 49.06 156.306 49.36 156.306 49.66C156.306 51.035 156.191 52.405 155.956 53.72C155.936 53.84 155.831 53.925 155.711 53.925H155.716ZM30.3307 47.745C30.3007 47.745 30.2707 47.74 30.2407 47.73C30.1107 47.68 30.0457 47.535 30.0957 47.405C30.6557 45.96 31.5207 44.53 32.6707 43.145C32.7607 43.04 32.9157 43.025 33.0207 43.11C33.1257 43.2 33.1407 43.355 33.0507 43.46C31.9357 44.8 31.0957 46.19 30.5607 47.58C30.5207 47.68 30.4257 47.74 30.3257 47.74L30.3307 47.745ZM123.521 45.235C123.471 45.235 123.426 45.22 123.381 45.195C123.266 45.12 123.236 44.965 123.311 44.85C124.161 43.58 125.361 42.4 126.876 41.35C126.991 41.27 127.146 41.3 127.226 41.415C127.306 41.53 127.276 41.685 127.161 41.765C125.696 42.78 124.541 43.915 123.726 45.13C123.676 45.2 123.601 45.24 123.516 45.24L123.521 45.235ZM155.381 44.13C155.266 44.13 155.166 44.05 155.136 43.94C154.761 42.365 154.236 40.81 153.571 39.32C153.516 39.195 153.571 39.045 153.696 38.99C153.821 38.93 153.971 38.99 154.026 39.115C154.706 40.635 155.241 42.22 155.621 43.825C155.651 43.96 155.571 44.095 155.436 44.125C155.416 44.125 155.396 44.13 155.376 44.13H155.381ZM164.261 42.85C164.201 42.85 164.141 42.83 164.096 42.785C162.951 41.755 161.601 40.835 160.081 40.055C159.956 39.99 159.911 39.84 159.971 39.72C160.036 39.595 160.186 39.55 160.306 39.61C161.861 40.41 163.251 41.35 164.426 42.415C164.531 42.505 164.536 42.665 164.446 42.77C164.396 42.825 164.331 42.855 164.261 42.855V42.85ZM36.3957 40.125C36.3207 40.125 36.2507 40.095 36.2007 40.03C36.1157 39.925 36.1307 39.765 36.2407 39.68C37.4357 38.715 38.8057 37.755 40.3107 36.83C40.4257 36.76 40.5807 36.795 40.6557 36.91C40.7307 37.025 40.6907 37.18 40.5757 37.255C39.0907 38.17 37.7407 39.12 36.5607 40.07C36.5157 40.105 36.4607 40.125 36.4057 40.125H36.3957ZM131.371 39.495C131.271 39.495 131.181 39.435 131.141 39.34C131.091 39.21 131.151 39.065 131.276 39.015C132.736 38.42 134.331 37.915 136.016 37.515C136.151 37.48 136.286 37.565 136.316 37.7C136.346 37.835 136.266 37.97 136.131 38C134.471 38.395 132.906 38.895 131.466 39.48C131.436 39.495 131.401 39.5 131.371 39.5V39.495ZM155.606 38.285C155.606 38.285 155.561 38.285 155.536 38.275C154.026 37.835 152.416 37.5 150.746 37.27C150.611 37.25 150.511 37.125 150.531 36.99C150.551 36.855 150.676 36.755 150.811 36.775C152.501 37.005 154.141 37.345 155.671 37.795C155.806 37.835 155.881 37.975 155.841 38.105C155.811 38.215 155.711 38.285 155.601 38.285H155.606ZM140.936 37.165C140.811 37.165 140.701 37.07 140.686 36.94C140.671 36.805 140.771 36.68 140.906 36.665C142.411 36.5 143.946 36.415 145.466 36.415H145.866C146.006 36.415 146.116 36.53 146.111 36.67C146.111 36.81 145.986 36.92 145.856 36.915H145.461C143.961 36.915 142.446 36.995 140.956 37.16C140.946 37.16 140.936 37.16 140.931 37.16L140.936 37.165ZM151.391 35.165C151.311 35.165 151.231 35.125 151.186 35.055C150.276 33.73 149.236 32.46 148.091 31.28C147.996 31.18 147.996 31.025 148.091 30.925C148.191 30.83 148.351 30.83 148.446 30.925C149.611 32.125 150.671 33.42 151.596 34.765C151.676 34.88 151.646 35.035 151.531 35.11C151.486 35.14 151.436 35.155 151.391 35.155V35.165ZM44.7557 34.89C44.6657 34.89 44.5757 34.84 44.5307 34.75C44.4707 34.625 44.5157 34.475 44.6407 34.415C46.0457 33.705 47.5607 33.005 49.1407 32.325C49.2657 32.27 49.4157 32.325 49.4707 32.455C49.5257 32.58 49.4707 32.73 49.3407 32.785C47.7707 33.46 46.2657 34.155 44.8707 34.86C44.8357 34.88 44.7957 34.885 44.7607 34.885L44.7557 34.89ZM53.8357 30.975C53.7357 30.975 53.6407 30.915 53.6007 30.81C53.5507 30.68 53.6207 30.535 53.7457 30.49C55.2357 29.935 56.8107 29.385 58.4257 28.855C58.5557 28.81 58.6957 28.885 58.7407 29.015C58.7857 29.145 58.7107 29.285 58.5807 29.33C56.9757 29.86 55.4057 30.405 53.9207 30.96C53.8907 30.97 53.8607 30.975 53.8357 30.975ZM144.561 28.105C144.511 28.105 144.456 28.09 144.411 28.055C143.136 27.1 141.756 26.205 140.301 25.4C140.181 25.335 140.136 25.18 140.201 25.06C140.266 24.94 140.421 24.895 140.541 24.96C142.016 25.775 143.421 26.68 144.711 27.65C144.821 27.735 144.846 27.89 144.761 28C144.711 28.065 144.636 28.1 144.561 28.1V28.105ZM63.2257 27.875C63.1157 27.875 63.0157 27.805 62.9857 27.695C62.9457 27.56 63.0207 27.425 63.1557 27.385C64.7107 26.93 66.3157 26.485 67.9307 26.06C68.0657 26.025 68.2007 26.105 68.2357 26.24C68.2707 26.375 68.1907 26.51 68.0557 26.545C66.4457 26.965 64.8457 27.41 63.2957 27.865C63.2707 27.87 63.2507 27.875 63.2257 27.875ZM72.7957 25.365C72.6807 25.365 72.5807 25.285 72.5507 25.17C72.5207 25.035 72.6007 24.9 72.7357 24.87C74.3457 24.49 75.9707 24.13 77.5757 23.8C77.7107 23.77 77.8457 23.86 77.8707 23.995C77.9007 24.13 77.8107 24.265 77.6757 24.29C76.0757 24.625 74.4507 24.985 72.8507 25.36C72.8307 25.36 72.8107 25.365 72.7957 25.365ZM126.516 20.575C126.516 20.575 126.486 20.575 126.466 20.575C124.906 20.275 123.271 20.025 121.611 19.835C121.476 19.82 121.376 19.695 121.391 19.56C121.406 19.425 121.531 19.325 121.666 19.34C123.336 19.53 124.986 19.78 126.561 20.085C126.696 20.11 126.786 20.24 126.761 20.38C126.736 20.5 126.631 20.585 126.516 20.585V20.575ZM116.716 19.44C115.126 19.365 113.481 19.335 111.796 19.35C111.661 19.35 111.546 19.24 111.546 19.1C111.546 18.96 111.656 18.85 111.796 18.85C113.486 18.835 115.146 18.865 116.741 18.94C116.881 18.945 116.986 19.065 116.981 19.2C116.976 19.335 116.866 19.44 116.731 19.44H116.716Z" fill="#07064E"></path>
</g>
<g id="Group">
<path id="Vector_6" d="M115.98 121.025H80.1453C79.2286 121.025 78.4854 121.768 78.4854 122.685V124.385C78.4854 125.302 79.2286 126.045 80.1453 126.045H115.98C116.897 126.045 117.64 125.302 117.64 124.385V122.685C117.64 121.768 116.897 121.025 115.98 121.025Z" fill="white"></path>
<path id="Vector_7" d="M115.98 126.3H80.1453C79.0903 126.3 78.2354 125.445 78.2354 124.39V122.69C78.2354 121.635 79.0903 120.78 80.1453 120.78H115.98C117.035 120.78 117.89 121.635 117.89 122.69V124.39C117.89 125.445 117.035 126.3 115.98 126.3ZM80.1453 121.275C79.3653 121.275 78.7354 121.91 78.7354 122.685V124.385C78.7354 125.165 79.3703 125.795 80.1453 125.795H115.98C116.76 125.795 117.39 125.16 117.39 124.385V122.685C117.39 121.905 116.755 121.275 115.98 121.275H80.1453Z" fill="#07064E"></path>
</g>
<path id="Vector_8" d="M115.98 123.15H80.1453C79.2286 123.15 78.4854 123.893 78.4854 124.81V126.51C78.4854 127.427 79.2286 128.17 80.1453 128.17H115.98C116.897 128.17 117.64 127.427 117.64 126.51V124.81C117.64 123.893 116.897 123.15 115.98 123.15Z" fill="#2AEDB4"></path>
<path id="Vector_9" d="M115.98 121.025H80.1453C79.2286 121.025 78.4854 121.768 78.4854 122.685V124.385C78.4854 125.302 79.2286 126.045 80.1453 126.045H115.98C116.897 126.045 117.64 125.302 117.64 124.385V122.685C117.64 121.768 116.897 121.025 115.98 121.025Z" fill="white"></path>
<path id="Vector_10" d="M115.98 126.3H80.1453C79.0903 126.3 78.2354 125.445 78.2354 124.39V122.69C78.2354 121.635 79.0903 120.78 80.1453 120.78H115.98C117.035 120.78 117.89 121.635 117.89 122.69V124.39C117.89 125.445 117.035 126.3 115.98 126.3ZM80.1453 121.275C79.3653 121.275 78.7354 121.91 78.7354 122.685V124.385C78.7354 125.165 79.3703 125.795 80.1453 125.795H115.98C116.76 125.795 117.39 125.16 117.39 124.385V122.685C117.39 121.905 116.755 121.275 115.98 121.275H80.1453Z" fill="#07064E"></path>
<path id="Vector_11" d="M111.115 102.72L114.75 118.68C114.955 119.58 114.115 120.32 112.865 120.32H83.2653C82.0203 120.32 81.1753 119.575 81.3803 118.68L85.5953 100.15C85.7053 99.66 86.5203 99.27 87.4203 99.27H108.705C109.6 99.27 110.415 99.66 110.53 100.15L111.265 103.38" fill="white"></path>
<path id="Vector_12" d="M80.3955 123.94H115.731C117.036 123.94 117.891 123.125 117.636 122.14L111.376 97.585C111.261 97.14 110.476 96.785 109.621 96.785H86.5005C85.6455 96.785 84.8605 97.14 84.7455 97.585L78.4855 122.14C78.2355 123.125 79.0855 123.94 80.3905 123.94H80.3955ZM85.6005 100.15C85.7105 99.66 86.5255 99.27 87.4255 99.27H108.711C109.606 99.27 110.421 99.66 110.536 100.15L111.121 102.715L111.271 103.38L114.751 118.68C114.956 119.58 114.116 120.32 112.866 120.32H83.2655C82.0205 120.32 81.1755 119.575 81.3805 118.68L85.5955 100.15H85.6005Z" fill="#EDEDED"></path>
<path id="Vector_13" d="M112.865 120.575H83.2654C82.4704 120.575 81.7954 120.3 81.4104 119.815C81.1354 119.475 81.0404 119.05 81.1354 118.625L85.3504 100.095C85.4904 99.48 86.3804 99.02 87.4204 99.02H108.705C109.745 99.02 110.635 99.485 110.775 100.095L114.99 118.625C115.085 119.05 114.99 119.47 114.715 119.815C114.33 120.295 113.655 120.575 112.86 120.575H112.865ZM87.4204 99.52C86.5804 99.52 85.9154 99.88 85.8404 100.21L81.6254 118.74C81.5604 119.015 81.6254 119.28 81.8004 119.505C82.0854 119.86 82.6304 120.075 83.2654 120.075H112.865C113.495 120.075 114.045 119.86 114.33 119.505C114.51 119.28 114.57 119.015 114.505 118.74L110.29 100.21C110.215 99.885 109.55 99.52 108.71 99.52H87.4254H87.4204Z" fill="#07064E"></path>
<g id="Group_2">
<path id="Vector_14" d="M96.7705 97.92C96.7805 97.55 97.3605 97.255 98.0655 97.255C98.7705 97.255 99.3505 97.55 99.3605 97.92C99.3705 98.29 98.7905 98.605 98.0655 98.605C97.3405 98.605 96.7655 98.295 96.7705 97.92Z" fill="white"></path>
<path id="Vector_15" d="M98.0754 98.855C97.5104 98.855 97.0154 98.69 96.7454 98.41C96.6054 98.265 96.5304 98.095 96.5354 97.915C96.5504 97.395 97.2104 97.005 98.0804 97.005C98.8254 97.005 99.4454 97.305 99.5904 97.73C99.6354 97.86 99.5654 98.005 99.4354 98.045C99.3054 98.09 99.1604 98.02 99.1204 97.89C99.0654 97.73 98.6754 97.505 98.0854 97.505C97.4654 97.505 97.0454 97.76 97.0404 97.925C97.0404 97.975 97.0754 98.025 97.1104 98.06C97.2504 98.205 97.6104 98.355 98.0854 98.355C98.5604 98.355 98.8704 98.22 99.0254 98.095C99.1304 98.005 99.2904 98.02 99.3754 98.125C99.4654 98.23 99.4504 98.39 99.3454 98.475C99.0654 98.71 98.5954 98.85 98.0854 98.85L98.0754 98.855Z" fill="#07064E"></path>
</g>
<g id="Group_3">
<path id="Vector_16" d="M96.0659 122.17H94.0459C93.9059 122.17 93.7959 122.055 93.7959 121.92C93.7959 121.785 93.9059 121.67 94.0459 121.67H96.0659C96.2059 121.67 96.3159 121.785 96.3159 121.92C96.3159 122.055 96.2059 122.17 96.0659 122.17Z" fill="white"></path>
<path id="Vector_17" d="M102.081 122.17H97.3857C97.2457 122.17 97.1357 122.06 97.1357 121.92C97.1357 121.78 97.2457 121.67 97.3857 121.67H102.081C102.221 121.67 102.331 121.78 102.331 121.92C102.331 122.06 102.221 122.17 102.081 122.17Z" fill="#07064E"></path>
</g>
<g id="Group_4">
<g id="Group_5">
<path id="Vector_18" d="M107.615 104.205H88.2454C87.4354 104.205 86.8904 103.65 87.0254 102.975L87.1704 102.26C87.3004 101.625 88.0204 101.12 88.7804 101.12H107.005C107.765 101.12 108.5 101.625 108.64 102.26L108.8 102.975C108.95 103.645 108.42 104.205 107.61 104.205H107.615Z" fill="#FFC391"></path>
<path id="Vector_19" d="M108.3 102.615C108.445 103.28 107.91 103.835 107.1 103.835C106.29 103.835 105.55 103.28 105.44 102.615C105.33 101.95 105.88 101.455 106.65 101.455C107.42 101.455 108.16 101.97 108.3 102.615Z" fill="white"></path>
</g>
<g id="Group_6">
<path id="Vector_20" d="M108.785 110.155H87.2153C86.3153 110.155 85.7203 109.465 85.8903 108.635L86.0703 107.755C86.2303 106.975 87.0353 106.355 87.8803 106.355H108.045C108.89 106.355 109.71 106.975 109.885 107.755L110.08 108.635C110.265 109.465 109.69 110.155 108.79 110.155H108.785Z" fill="#FFC391"></path>
<path id="Vector_21" d="M109.505 108.19C109.68 109.01 109.1 109.695 108.2 109.695C107.3 109.695 106.46 109.01 106.33 108.19C106.2 107.37 106.795 106.76 107.65 106.76C108.505 106.76 109.33 107.39 109.505 108.19Z" fill="white"></path>
</g>
<g id="Group_7">
<path id="Vector_22" d="M110.25 117.63H85.9153C84.9003 117.63 84.2503 116.75 84.4603 115.7L84.6853 114.59C84.8853 113.605 85.8053 112.835 86.7503 112.835H109.31C110.255 112.835 111.19 113.61 111.41 114.59L111.66 115.7C111.895 116.75 111.27 117.63 110.25 117.63Z" fill="#8382A6"></path>
<path id="Vector_23" d="M111.005 115.14C111.23 116.18 110.595 117.045 109.58 117.045C108.565 117.045 107.605 116.18 107.44 115.14C107.28 114.135 107.93 113.345 108.885 113.345C109.84 113.345 110.79 114.135 111.005 115.14Z" fill="white"></path>
</g>
</g>
<path id="Vector_24" d="M81.2905 111.155C81.8755 111.26 82.4555 111.36 83.0255 111.46L83.3355 110.095C82.7755 110 82.2105 109.905 81.6355 109.8L81.2905 111.155Z" fill="#D8D8D8"></path>
<path id="Vector_25" d="M82.7803 111.415C82.9453 111.445 83.1103 111.47 83.2753 111.5L83.5853 110.135C83.4203 110.11 83.2553 110.08 83.0903 110.05L82.7803 111.415Z" fill="#050535"></path>
<path id="Vector_26" d="M116.01 124.19H80.1203C79.4903 124.19 78.9503 123.945 78.6053 123.5C78.2553 123.05 78.1503 122.465 78.3103 121.845L84.4853 97.63C84.6403 97.015 85.4503 96.53 86.3253 96.53H109.81C110.685 96.53 111.495 97.01 111.65 97.63L117.825 121.845C117.985 122.465 117.875 123.05 117.53 123.5C117.185 123.945 116.645 124.19 116.015 124.19H116.01ZM86.3253 97.03C85.6253 97.03 85.0553 97.405 84.9703 97.75L78.7953 121.965C78.6753 122.43 78.7503 122.865 79.0003 123.19C79.2503 123.51 79.6453 123.685 80.1203 123.685H116.01C116.485 123.685 116.88 123.51 117.13 123.185C117.38 122.86 117.455 122.425 117.335 121.96L111.16 97.745C111.07 97.395 110.505 97.025 109.805 97.025H86.3203L86.3253 97.03Z" fill="#07064E"></path>
<path id="Vector_27" d="M83.2803 111.52C86.1753 112.015 88.8403 112.415 91.1103 112.65L91.4253 112.67H91.4203L92.4753 113.1L96.5303 114.28L97.7853 114.96C99.4503 115.11 101.575 113.365 103.45 112.23L107.44 115.095C108.01 115.625 109.6 114.595 108.635 113.51L108.615 113.495C108.265 113.82 107.725 113.945 107.445 113.68L103.455 110.815C101.58 111.945 99.4553 113.695 97.7903 113.545L96.5353 112.865L92.4803 111.685L91.4253 111.26H91.4303L91.1153 111.23C88.9253 111 86.3703 110.62 83.5953 110.15L83.2853 111.515L83.2803 111.52Z" fill="#EDEDED"></path>
<path id="Vector_28" d="M97.7803 113.54L97.7053 113.5H93.8403L96.5253 114.28L97.7803 114.96C98.8753 115.06 100.175 114.33 101.47 113.5H98.4903C98.2453 113.545 98.0103 113.56 97.7803 113.54Z" fill="#07064E"></path>
<path id="Vector_29" d="M69.3254 101.315C69.5004 104.9 71.9404 107.72 75.4204 108.6C81.2404 109.72 86.7104 110.695 90.8654 111.125L91.1804 111.145H91.1754L92.2304 111.575L96.2854 112.755L97.5404 113.435C99.2054 113.585 101.33 111.84 103.205 110.705L107.195 113.57C107.765 114.1 109.355 113.07 108.39 111.985L104.27 108.63C103.935 107.535 103.455 107.55 102.965 106.845C102.13 105.915 100.965 105.295 99.1054 105.325L95.9754 105.965L80.4504 100.895C79.2554 100.485 78.4254 99.395 78.3504 98.135L78.3204 97.66H69.1504L69.3304 101.315H69.3254Z" fill="white"></path>
<g id="Vector_30">
<path d="M99.9704 14.47C100.47 14.715 97.5404 15.32 97.3354 15.765C96.5304 17.535 100.905 17.085 100.905 17.085C100.905 17.085 106.14 10.895 112.295 26.305C117.715 39.88 106.075 58.42 104.025 62.77L110.9 62.895C113.51 56.185 114.32 45.36 115.29 36.165C116.41 25.58 107.955 10.78 99.9704 14.47Z" fill="white"></path>
<path d="M79.1355 43.725C86.1405 59.31 61.7255 60.52 71.5205 83.52L81.6555 77.71C69.2255 74.915 77.8655 63.555 81.9755 55.145C86.9805 44.9 78.7455 41.065 81.3905 30.785C85.9405 16.7 94.4755 14.545 95.7055 17.09C96.2655 17.09 100.645 17.335 98.0405 15.26C87.5955 8.61501 71.2955 26.28 79.1405 43.73L79.1355 43.725Z" fill="white"></path>
</g>
<path id="Vector_31" d="M128.076 72.715C128.171 68.33 124.631 64.725 120.246 64.75L108.361 62.555C101.806 75.34 93.9157 73.545 88.2407 62.62L76.3707 64.74C71.1507 64.905 67.6907 68.96 68.1257 74.32L69.0557 95.905L69.3207 101.31C69.4957 104.895 71.9357 107.715 75.4157 108.595C81.2357 109.715 86.7057 110.69 90.8607 111.12L92.2307 111.66L95.9607 105.955L80.4357 100.885C79.2407 100.475 78.4107 99.385 78.3357 98.125L78.1757 95.4L127.206 95.45L128.071 72.705L128.076 72.715Z" fill="#FFC391"></path>
<path id="Vector_32" d="M101.156 18.52C101.156 17.61 100.421 16.875 99.5106 16.875H97.2456C96.3356 16.875 95.6006 17.61 95.6006 18.52" fill="#2AEDB4"></path>
<path id="Vector_33" d="M87.0957 62.765C93.7057 62.145 92.4757 56.935 92.2807 51.76L103.906 51.105C103.261 56.405 102.546 62.14 109.156 62.76" fill="white"></path>
<path id="Vector_34" d="M103.641 51.72C102.976 55.68 101.231 59.3 98.1557 59.3C95.0807 59.3 92.6807 56.305 92.6807 52.29C92.6807 51.865 92.4257 50.625 92.4857 50.22C92.9907 46.8 103.736 51.17 103.641 51.72Z" fill="#EDEDED"></path>
<path id="Vector_35" d="M88.0303 62.69C91.8553 71.475 98.0553 71.815 98.0553 71.815C98.0553 71.815 105.255 70.005 108.1 62.6" fill="white"></path>
<path id="Vector_36" d="M111.076 36.7C110.666 36.325 109.246 36.085 109.166 37.485C109.166 37.465 109.166 37.445 109.166 37.43C109.166 34.595 108.671 32.02 107.786 29.835C107.711 29.655 107.561 29.305 107.561 29.305C107.561 29.305 105.581 28.935 104.631 28.07C103.391 29.63 102.121 30.77 100.346 30.75C100.346 30.75 98.4157 28.24 97.3157 27.63C96.7707 29.39 95.6357 29.655 94.7357 29.46C93.7007 28.97 93.6257 28.68 93.3107 28C90.7157 30.875 89.5957 31.285 88.2007 31.455C88.1157 31.465 88.1557 31.63 88.1507 31.635C87.6607 33.38 87.3957 35.31 87.3957 37.385C87.3957 37.465 87.3957 37.545 87.4007 37.625C87.4007 36.07 85.9057 36.32 85.4807 36.71C84.6107 37.505 84.5307 38.67 84.9807 40.87C85.1657 41.78 85.8757 44.41 88.7857 44.645C90.9457 50.515 95.1657 55.285 97.9807 55.285C100.796 55.285 105.281 50.505 107.666 44.61C110.251 44.83 111.406 41.78 111.591 40.875C112.036 38.68 111.956 37.51 111.091 36.715L111.076 36.7Z" fill="white"></path>
<g id="Vector_37">
<path d="M89.8605 40.2C89.0205 40.2 88.2505 40.53 87.6655 41.07C88.0155 43.2 88.6755 45.295 89.5155 47.22C89.6305 47.23 89.7405 47.24 89.8605 47.24C91.7055 47.24 93.2005 45.665 93.2005 43.72C93.2005 41.775 91.7055 40.2 89.8605 40.2Z" fill="#FFC391"></path>
<path d="M106.596 40.2C107.436 40.2 108.206 40.53 108.791 41.07C108.441 43.2 106.711 47.24 106.596 47.24C104.751 47.24 103.256 45.665 103.256 43.72C103.256 41.775 104.751 40.2 106.596 40.2Z" fill="#FFC391"></path>
</g>
<path id="Vector_38" d="M88.0009 33.225C87.6059 33.225 87.2509 33.19 87.0159 33.14C86.4759 33.02 86.1359 32.49 86.2509 31.95C86.3659 31.41 86.9009 31.07 87.4409 31.185C87.8759 31.28 88.9109 31.205 89.1709 31.06C90.4609 30.205 91.6159 29.155 92.6059 27.95C92.8709 27.63 93.3009 27.505 93.6959 27.635C94.0909 27.765 94.3609 28.13 94.3759 28.545C94.3859 28.755 94.5309 28.98 94.7609 29.135C94.9909 29.29 95.2559 29.34 95.4509 29.27C95.8259 29.135 96.1609 28.685 96.3759 28.03C96.4709 27.735 96.7009 27.5 96.9959 27.4C97.2859 27.295 97.6109 27.335 97.8709 27.505C98.5809 27.965 99.7259 29.015 100.766 30.525C102.071 30.36 102.661 29.615 103.796 28.175L103.901 28.04C104.086 27.81 104.361 27.67 104.656 27.66C104.951 27.65 105.236 27.77 105.431 27.99C106.091 28.725 106.961 29.03 108.531 29.085C109.081 29.105 109.516 29.565 109.496 30.12C109.476 30.67 109.011 31.1 108.461 31.085C107.276 31.045 105.961 30.88 104.816 30.1C103.671 31.5 102.551 32.53 100.261 32.56C99.9109 32.55 99.5859 32.385 99.4009 32.09C98.8459 31.205 98.2159 30.455 97.6609 29.915C97.2509 30.505 96.7309 30.93 96.1309 31.15C95.3359 31.44 94.4059 31.305 93.6409 30.795C93.4509 30.665 93.2759 30.52 93.1259 30.355C92.2609 31.245 91.3009 32.04 90.2659 32.725C89.7159 33.09 88.7709 33.22 87.9909 33.22L88.0009 33.225Z" fill="#EDEDED"></path>
<g id="Vector_39">
<path d="M98.3852 45.605C98.3252 45.605 98.2652 45.585 98.2202 45.54L97.8202 45.185C97.1452 44.59 97.1202 43.84 97.3102 42.58L98.1952 36.72C98.2152 36.585 98.3402 36.49 98.4802 36.51C98.6152 36.53 98.7102 36.66 98.6902 36.795L97.8052 42.65C97.6352 43.775 97.6452 44.355 98.1552 44.805L98.5552 45.16C98.6602 45.25 98.6702 45.41 98.5752 45.515C98.5252 45.57 98.4552 45.6 98.3902 45.6L98.3852 45.605Z" fill="#07064E"></path>
<path d="M98.1304 49.875C96.9054 49.875 95.7304 49.47 94.6104 48.66C94.5004 48.58 94.4754 48.425 94.5554 48.31C94.6354 48.195 94.7954 48.175 94.9054 48.255C96.9904 49.765 99.2004 49.76 101.655 48.245C101.77 48.175 101.925 48.21 102 48.325C102.07 48.445 102.035 48.595 101.92 48.67C100.615 49.475 99.3504 49.875 98.1304 49.875Z" fill="#07064E"></path>
<path d="M89.5402 33.915C89.4352 33.915 89.3352 33.85 89.3002 33.745C89.2552 33.615 89.3302 33.475 89.4602 33.43L89.8152 33.31C91.5452 32.73 93.5052 32.075 95.3802 33.465C95.4902 33.545 95.5152 33.705 95.4302 33.815C95.3452 33.925 95.1902 33.95 95.0802 33.865C93.4152 32.63 91.6652 33.215 89.9702 33.78L89.6102 33.9C89.5852 33.91 89.5602 33.915 89.5302 33.915H89.5402Z" fill="#07064E"></path>
<path d="M107 33.915C106.975 33.915 106.95 33.915 106.92 33.9L106.56 33.78C104.865 33.215 103.115 32.63 101.45 33.865C101.34 33.95 101.18 33.925 101.1 33.815C101.02 33.705 101.04 33.545 101.15 33.465C103.025 32.075 104.985 32.73 106.715 33.31L107.07 33.43C107.2 33.475 107.27 33.615 107.23 33.745C107.195 33.85 107.095 33.915 106.99 33.915H107Z" fill="#07064E"></path>
<path d="M99.1254 51.445H97.0054C96.8654 51.445 96.7554 51.335 96.7554 51.195C96.7554 51.055 96.8654 50.945 97.0054 50.945H99.1254C99.2654 50.945 99.3754 51.055 99.3754 51.195C99.3754 51.335 99.2654 51.445 99.1254 51.445Z" fill="#07064E"></path>
<path d="M94.2452 37.65C94.6152 37.275 94.8502 36.745 94.8502 36.16C94.8502 36.02 94.7402 35.91 94.6002 35.91C94.4602 35.91 94.3502 36.02 94.3502 36.16C94.3502 37.02 93.7102 37.72 92.9252 37.72C92.1402 37.72 91.5002 37.02 91.5002 36.16C91.5002 36.02 91.3902 35.91 91.2502 35.91C91.1102 35.91 91.0002 36.02 91.0002 36.16C91.0002 36.745 91.2352 37.275 91.6002 37.65L90.9102 38.34C90.8102 38.44 90.8102 38.595 90.9102 38.695C90.9602 38.745 91.0252 38.77 91.0852 38.77C91.1452 38.77 91.2152 38.745 91.2602 38.695L91.9952 37.96C92.2002 38.08 92.4252 38.16 92.6702 38.195V39.155C92.6702 39.295 92.7802 39.405 92.9202 39.405C93.0602 39.405 93.1702 39.295 93.1702 39.155V38.195C93.4102 38.16 93.6402 38.08 93.8452 37.96L94.5802 38.695C94.6302 38.745 94.6952 38.77 94.7552 38.77C94.8152 38.77 94.8852 38.745 94.9302 38.695C95.0302 38.595 95.0302 38.44 94.9302 38.34L94.2402 37.65H94.2452Z" fill="#07064E"></path>
<path d="M105.285 38.34L104.595 37.65C104.965 37.275 105.195 36.745 105.195 36.16C105.195 36.02 105.085 35.91 104.945 35.91C104.805 35.91 104.695 36.02 104.695 36.16C104.695 37.02 104.055 37.72 103.27 37.72C102.485 37.72 101.845 37.02 101.845 36.16C101.845 36.02 101.735 35.91 101.595 35.91C101.455 35.91 101.345 36.02 101.345 36.16C101.345 36.745 101.58 37.275 101.95 37.65L101.26 38.34C101.16 38.44 101.16 38.595 101.26 38.695C101.31 38.745 101.375 38.77 101.435 38.77C101.495 38.77 101.565 38.745 101.61 38.695L102.345 37.96C102.55 38.08 102.775 38.16 103.02 38.195V39.155C103.02 39.295 103.13 39.405 103.27 39.405C103.41 39.405 103.52 39.295 103.52 39.155V38.195C103.76 38.16 103.99 38.08 104.195 37.96L104.93 38.695C104.98 38.745 105.045 38.77 105.105 38.77C105.165 38.77 105.235 38.745 105.28 38.695C105.38 38.595 105.38 38.44 105.28 38.34H105.285Z" fill="#07064E"></path>
</g>
<path id="Vector_40" d="M101.05 22.3C107.24 24.305 111.03 26.475 111.815 35.28C112.75 23.96 105.895 18.4 98.5004 18.4C91.1054 18.4 84.4854 23.215 84.7004 34.14C85.3004 21.905 93.8054 19.955 101.05 22.305V22.3Z" fill="white"></path>
<path id="Vector_41" d="M77.4805 83.73C77.7955 87.745 77.7805 91.65 78.1805 95.475L117.855 95.33C113.68 92.47 94.5055 91.74 93.3855 91.59C85.3005 90.515 80.9805 87.73 77.4805 83.73Z" fill="#FFAF6E"></path>
<path id="Vector_42" d="M91.1755 111.155L95.9655 105.965L99.0955 105.325C100.951 105.295 102.121 105.915 102.956 106.845C103.446 107.555 103.926 107.535 104.261 108.63L108.381 111.985C109.351 113.07 107.756 114.105 107.186 113.57L103.196 110.705C101.321 111.835 99.1955 113.585 97.5305 113.435L96.2755 112.755L92.2205 111.575L91.1655 111.15L91.1755 111.155Z" fill="white"></path>
<path id="Vector_43" d="M104.481 109.025C104.396 109.025 104.316 108.98 104.266 108.905L103.551 107.725C102.816 106.865 101.816 106.235 100.686 105.935C99.8956 105.725 99.0806 105.69 98.2756 105.825L96.0006 106.21C95.9606 106.215 95.9206 106.21 95.8806 106.2L80.1606 101.065C78.9806 100.66 78.1756 99.6 78.1006 98.36L77.2306 83.75C77.2206 83.61 77.3256 83.495 77.4656 83.485C77.6006 83.475 77.7206 83.58 77.7306 83.72L78.6006 98.33C78.6606 99.365 79.3356 100.255 80.3206 100.59L95.9806 105.705L98.1906 105.33C99.0706 105.18 99.9506 105.22 100.811 105.45C102.041 105.775 103.126 106.46 103.951 107.43L104.691 108.645C104.761 108.765 104.726 108.915 104.606 108.99C104.566 109.015 104.521 109.025 104.476 109.025H104.481Z" fill="#07064E"></path>
<path id="Vector_44" d="M107.625 113.97C107.415 113.97 107.21 113.91 107.03 113.765C105.79 112.67 103.735 111.34 103.195 111L99.4204 113.33C98.4204 113.93 97.1604 113.82 96.2854 113.05C96.1804 112.96 96.1704 112.8 96.2604 112.695C96.3504 112.59 96.5104 112.58 96.6154 112.67C97.3254 113.295 98.3504 113.385 99.1604 112.895L103.065 110.485C103.145 110.435 103.25 110.435 103.33 110.485C103.435 110.55 105.905 112.09 107.355 113.375C107.575 113.55 107.94 113.44 108.165 113.24C108.335 113.09 108.43 112.87 108.42 112.645C108.41 112.42 108.3 112.21 108.12 112.07L108.06 112.015C105.555 109.79 104.175 108.565 101.1 107.215C100.975 107.16 100.915 107.01 100.97 106.885C101.025 106.76 101.17 106.7 101.3 106.755C104.45 108.14 105.85 109.38 108.39 111.64L108.435 111.68C108.72 111.895 108.9 112.245 108.915 112.62C108.93 113 108.775 113.36 108.49 113.61C108.255 113.82 107.935 113.96 107.62 113.96L107.625 113.97Z" fill="#07064E"></path>
<g id="Vector_45">
<path d="M121.746 64.79L111.156 62.915C114.106 53.89 114.626 47.32 115.126 40.97C115.256 39.33 115.376 37.78 115.541 36.185C116.361 28.21 111.726 17.715 106.011 14.595C103.371 13.15 100.726 13.35 98.3605 15.16C94.3755 12.5 89.2805 13.175 84.6955 16.98C78.2355 22.345 74.1756 33.29 78.9106 43.825C82.0256 50.76 78.8655 54.71 75.2005 59.285C73.3555 61.585 71.3956 64.04 70.1656 67.075C68.7006 68.575 67.8105 70.615 67.8105 72.815L69.1056 101.295C69.2706 104.88 71.7106 107.9 75.2056 108.81L90.9605 111.335L92.1356 111.81C92.1656 111.82 92.1956 111.83 92.2306 111.83C92.3306 111.83 92.4255 111.77 92.4605 111.675C92.5105 111.545 92.4505 111.4 92.3205 111.35L91.1206 110.865C91.1206 110.865 91.0856 110.855 91.0656 110.85L75.3055 108.325C72.0455 107.47 69.7555 104.64 69.6005 101.275L68.3055 72.805C68.3055 71.215 68.8056 69.71 69.6656 68.455C69.9906 67.975 70.0605 67.9 70.5455 67.395C71.5655 66.36 72.8755 65.605 74.3605 65.285L87.3105 62.995C87.4955 62.975 87.6755 62.95 87.8505 62.92C89.3905 66.695 93.7056 71.905 97.9806 72.07H98.0656C102.331 71.9 106.651 66.675 108.186 62.9L109.531 63.14L121.646 65.28C125.161 66.04 127.711 69.205 127.711 72.795L126.961 95.355C126.961 95.495 127.066 95.61 127.201 95.615H127.211C127.346 95.615 127.456 95.51 127.461 95.375L128.211 72.805C128.211 68.975 125.496 65.605 121.741 64.795L121.746 64.79ZM98.0506 71.565H97.9855C93.9655 71.41 89.8705 66.45 88.3505 62.81C89.6705 62.495 90.7105 61.88 91.4455 60.97C93.2805 58.7 92.9855 55.045 92.6305 51.95C92.6655 51.99 92.6956 52.04 92.7306 52.08C93.2356 52.68 93.7555 53.22 94.2655 53.68C95.6105 54.885 96.8855 55.52 97.9655 55.52C99.4505 55.52 101.561 54.08 103.576 51.77C103.211 54.905 102.866 58.655 104.736 60.975C105.446 61.855 106.436 62.46 107.691 62.785C106.186 66.43 102.076 71.41 98.0455 71.57L98.0506 71.565ZM88.0905 43.375C88.1905 43.705 88.3005 44.035 88.4205 44.365C87.8155 44.335 87.2455 44.1 86.8355 43.695C85.8905 42.755 85.3505 41.45 85.2206 40.8C84.7756 38.6 84.8855 37.575 85.6455 36.875C85.8305 36.705 86.3505 36.555 86.7155 36.715C87.0005 36.84 87.1455 37.14 87.1455 37.6C87.1455 37.66 87.1405 37.715 87.1405 37.775C87.1405 37.915 87.2505 38.025 87.3905 38.025C87.5305 38.025 87.6405 37.915 87.6405 37.775C87.6405 35.64 87.9006 33.625 88.4106 31.765C88.9806 31.73 89.5605 31.615 89.8755 31.405C91.1305 30.57 92.2655 29.575 93.2555 28.44C93.4005 28.845 93.6905 29.21 94.0855 29.475C94.6505 29.855 95.3256 29.955 95.9006 29.745C96.7506 29.435 97.2255 28.64 97.4706 28.035C98.1606 28.56 99.1705 29.57 100.061 30.995C100.106 31.07 100.191 31.125 100.276 31.11C102.526 31.08 103.426 29.995 104.731 28.34C105.821 29.4 107.191 29.59 108.516 29.635C108.656 29.635 108.771 29.53 108.776 29.395C108.776 29.255 108.671 29.14 108.536 29.135C107.236 29.09 105.896 28.9 104.901 27.79C104.851 27.735 104.781 27.705 104.706 27.705C104.631 27.705 104.561 27.74 104.516 27.8L104.411 27.935C103.141 29.545 102.361 30.53 100.411 30.6C99.3756 28.985 98.1955 27.885 97.4855 27.425C97.4205 27.385 97.3405 27.375 97.2655 27.4C97.1905 27.425 97.1355 27.485 97.1105 27.56C96.9405 28.07 96.5406 28.975 95.7306 29.27C95.3056 29.425 94.7955 29.345 94.3655 29.055C93.9355 28.765 93.6656 28.325 93.6506 27.875C93.6506 27.77 93.5806 27.68 93.4806 27.65C93.3806 27.62 93.2756 27.65 93.2056 27.73C92.1706 28.99 90.9555 30.09 89.6005 30.99C89.1755 31.275 87.8556 31.34 87.3006 31.22C87.1656 31.19 87.0305 31.275 87.0055 31.41C86.9755 31.545 87.0605 31.68 87.1955 31.705C87.3805 31.745 87.6255 31.77 87.8955 31.775C87.5105 33.235 87.2705 34.785 87.1855 36.415C87.0955 36.345 87.0055 36.29 86.9205 36.25C86.3805 36.015 85.6505 36.185 85.3105 36.495C85.1755 36.62 85.0605 36.75 84.9605 36.89V31.94C84.9605 24.595 90.9355 18.62 98.2805 18.62C105.626 18.62 111.601 24.595 111.601 31.935L111.561 36.835C111.471 36.715 111.366 36.595 111.251 36.485C110.911 36.175 110.181 36 109.641 36.24C109.561 36.275 109.476 36.325 109.396 36.385C109.341 35.07 109.181 33.8 108.916 32.59C108.886 32.455 108.751 32.37 108.616 32.4C108.481 32.43 108.396 32.565 108.426 32.7C108.756 34.18 108.921 35.76 108.921 37.4C108.921 37.425 108.921 37.455 108.921 37.48C108.921 37.515 108.916 37.545 108.916 37.585C108.916 37.585 108.916 37.59 108.916 37.595C108.906 38.355 108.846 39.135 108.716 39.93C108.556 40.95 108.296 42 107.951 43.05C105.831 49.48 100.691 54.995 97.9755 54.995C97.0255 54.995 95.8605 54.4 94.6105 53.28C94.1155 52.835 93.6155 52.315 93.1255 51.73C91.1855 49.425 89.5255 46.315 88.5755 43.21C88.2605 42.185 88.0256 41.155 87.8706 40.155C87.8506 40.02 87.7205 39.925 87.5855 39.945C87.4505 39.965 87.3555 40.095 87.3755 40.23C87.5355 41.255 87.7805 42.305 88.1005 43.355L88.0905 43.375ZM95.7655 18.375C95.8705 17.705 96.4405 17.19 97.1405 17.19H99.4055C100.106 17.19 100.676 17.705 100.781 18.375C99.9655 18.225 99.1305 18.14 98.2705 18.14C97.4105 18.14 96.5805 18.22 95.7655 18.37V18.375ZM111.331 40.805C111.201 41.455 110.661 42.76 109.716 43.7C109.281 44.13 108.661 44.38 108.016 44.38C108.016 44.38 108.006 44.38 108.001 44.38C108.146 44 108.286 43.615 108.416 43.23C108.771 42.15 109.036 41.075 109.201 40.03C109.336 39.19 109.401 38.365 109.406 37.565C109.416 37.13 109.556 36.845 109.831 36.725C110.196 36.565 110.716 36.715 110.901 36.885C111.661 37.58 111.771 38.61 111.326 40.81L111.331 40.805ZM110.661 62.83L109.621 62.645L109.251 62.58C109.216 62.55 109.171 62.525 109.116 62.52C107.311 62.35 106.006 61.74 105.126 60.655C103.296 58.395 103.756 54.51 104.121 51.385L104.151 51.135C104.151 51.135 104.151 51.1 104.151 51.08C105.551 49.33 106.861 47.17 107.836 44.795C107.881 44.845 107.946 44.88 108.021 44.88C108.796 44.88 109.546 44.58 110.071 44.055C111.176 42.96 111.701 41.515 111.826 40.905C112.051 39.81 112.156 38.89 112.046 38.12C112.046 38.115 112.046 38.105 112.046 38.1L112.091 31.96C112.091 25.38 107.461 19.86 101.291 18.475C101.236 17.48 100.416 16.685 99.4055 16.685H97.1405C96.1305 16.685 95.3105 17.48 95.2555 18.475C89.0805 19.855 84.4505 25.375 84.4505 31.96V38.56C84.4505 38.56 84.4555 38.595 84.4605 38.615C84.4455 39.275 84.5456 40.035 84.7206 40.905C84.8456 41.515 85.3705 42.96 86.4755 44.055C87.0055 44.58 87.7506 44.88 88.5256 44.88C88.5506 44.88 88.5756 44.875 88.5956 44.865C89.4556 47.145 90.6506 49.36 92.0356 51.2L92.0555 51.385C92.4256 54.505 92.8806 58.39 91.0506 60.655C90.3406 61.53 89.3456 62.095 88.0406 62.365C88.0205 62.365 88.0006 62.36 87.9806 62.365L87.2255 62.5C87.1705 62.505 87.1206 62.515 87.0656 62.52C87.0456 62.52 87.0255 62.53 87.0055 62.54L74.2606 64.795C73.0506 65.055 71.9555 65.59 71.0155 66.315C72.2055 63.82 73.9056 61.695 75.5806 59.605C79.1906 55.1 82.6006 50.84 79.3556 43.625C74.7256 33.32 78.6905 22.615 85.0055 17.37C89.4655 13.665 94.4055 13.03 98.2155 15.68C98.3055 15.745 98.4255 15.74 98.5155 15.67C100.751 13.89 103.256 13.67 105.761 15.04C111.331 18.08 115.836 28.335 115.036 36.145C114.871 37.745 114.751 39.295 114.621 40.94C114.121 47.275 113.606 53.825 110.656 62.82C110.656 62.825 110.656 62.83 110.656 62.835L110.661 62.83Z" fill="#07064E"></path>
<path d="M117.856 95.42C117.856 95.42 117.846 95.42 117.841 95.42C117.701 95.41 117.596 95.295 117.606 95.155L118.301 83.5C118.311 83.36 118.426 83.245 118.566 83.265C118.706 83.275 118.811 83.39 118.801 83.53L118.106 95.185C118.096 95.32 117.986 95.42 117.856 95.42Z" fill="#07064E"></path>
</g>
<g id="Vector_46">
<path d="M108.831 118.455C108.691 118.455 108.581 118.345 108.581 118.205V115.365C108.581 115.225 108.691 115.115 108.831 115.115C108.971 115.115 109.081 115.225 109.081 115.365V118.205C109.081 118.345 108.971 118.455 108.831 118.455Z" fill="#07064E"></path>
<path d="M112.191 117.085C112.126 117.085 112.061 117.06 112.016 117.01L110.006 115C109.906 114.9 109.906 114.745 110.006 114.645C110.106 114.545 110.261 114.545 110.361 114.645L112.371 116.655C112.471 116.755 112.471 116.91 112.371 117.01C112.321 117.06 112.256 117.085 112.196 117.085H112.191Z" fill="#07064E"></path>
<path d="M113.566 113.725H110.726C110.586 113.725 110.476 113.615 110.476 113.475C110.476 113.335 110.586 113.225 110.726 113.225H113.566C113.706 113.225 113.816 113.335 113.816 113.475C113.816 113.615 113.706 113.725 113.566 113.725Z" fill="#07064E"></path>
</g>
<g id="Vector_47">
<path d="M63.8155 25.075H57.7555C56.5212 25.075 55.5205 26.0757 55.5205 27.31V33.37C55.5205 34.6044 56.5212 35.605 57.7555 35.605H63.8155C65.0499 35.605 66.0505 34.6044 66.0505 33.37V27.31C66.0505 26.0757 65.0499 25.075 63.8155 25.075Z" fill="#2AEDB4"></path>
<path d="M164.327 43.9007L160.274 52.4484C159.524 54.0303 160.198 55.9208 161.78 56.6709L169.79 60.4692C171.372 61.2193 173.262 60.545 174.012 58.9631L178.066 50.4155C178.816 48.8336 178.141 46.9431 176.56 46.193L168.55 42.3946C166.968 41.6445 165.077 42.3188 164.327 43.9007Z" fill="#2AEDB4"></path>
</g>
<g id="Vector_48">
<path d="M63.8155 22.95H57.7555C56.5212 22.95 55.5205 23.9507 55.5205 25.185V31.245C55.5205 32.4794 56.5212 33.48 57.7555 33.48H63.8155C65.0499 33.48 66.0505 32.4794 66.0505 31.245V25.185C66.0505 23.9507 65.0499 22.95 63.8155 22.95Z" fill="#FFAF6E"></path>
<path d="M164.332 41.7752L160.279 50.3229C159.529 51.9048 160.203 53.7953 161.785 54.5454L169.795 58.3437C171.377 59.0938 173.267 58.4196 174.017 56.8377L178.071 48.29C178.821 46.7081 178.146 44.8176 176.564 44.0675L168.554 40.2692C166.972 39.519 165.082 40.1933 164.332 41.7752Z" fill="#FFAF6E"></path>
</g>
<path id="Vector_49" d="M61.1752 28.73C61.2602 28.62 61.3402 28.51 61.4152 28.405C61.2952 28.495 61.1652 28.56 61.0202 28.61C60.8752 28.655 60.7202 28.68 60.5552 28.68C60.3852 28.68 60.2202 28.65 60.0602 28.59C59.9002 28.53 59.7602 28.445 59.6402 28.33C59.5202 28.215 59.4202 28.075 59.3502 27.905C59.2802 27.735 59.2402 27.545 59.2402 27.325C59.2402 27.12 59.2802 26.925 59.3552 26.745C59.4302 26.565 59.5402 26.405 59.6752 26.27C59.8152 26.135 59.9802 26.03 60.1702 25.955C60.3652 25.88 60.5752 25.84 60.8052 25.84C61.0352 25.84 61.2402 25.875 61.4302 25.95C61.6152 26.025 61.7752 26.13 61.9052 26.26C62.0352 26.395 62.1352 26.555 62.2102 26.74C62.2852 26.925 62.3202 27.135 62.3202 27.36C62.3202 27.495 62.3052 27.63 62.2802 27.755C62.2552 27.88 62.2202 28 62.1702 28.12C62.1252 28.24 62.0652 28.355 62.0002 28.47C61.9352 28.585 61.8602 28.7 61.7752 28.82L60.6452 30.44C60.6152 30.485 60.5702 30.52 60.5102 30.55C60.4502 30.58 60.3852 30.59 60.3102 30.59H59.7252L61.1602 28.73H61.1752ZM59.8852 27.28C59.8852 27.57 59.9652 27.795 60.1202 27.95C60.2752 28.105 60.4952 28.185 60.7752 28.185C60.9252 28.185 61.0602 28.16 61.1752 28.11C61.2902 28.06 61.3902 27.995 61.4702 27.915C61.5502 27.835 61.6102 27.74 61.6502 27.63C61.6902 27.52 61.7102 27.41 61.7102 27.29C61.7102 27.15 61.6902 27.02 61.6452 26.905C61.6002 26.79 61.5352 26.695 61.4552 26.615C61.3752 26.535 61.2802 26.475 61.1702 26.43C61.0602 26.385 60.9402 26.365 60.8052 26.365C60.6702 26.365 60.5402 26.385 60.4302 26.43C60.3202 26.475 60.2202 26.54 60.1402 26.62C60.0602 26.7 59.9952 26.795 59.9552 26.91C59.9102 27.02 59.8902 27.145 59.8902 27.275L59.8852 27.28Z" fill="white"></path>
<path id="Vector_50" d="M168.041 47.105C168.211 46.85 168.401 46.64 168.611 46.48C168.821 46.32 169.041 46.21 169.271 46.145C169.501 46.08 169.746 46.065 169.991 46.095C170.241 46.125 170.486 46.2 170.736 46.315C170.986 46.43 171.191 46.575 171.366 46.75C171.541 46.92 171.666 47.11 171.751 47.315C171.836 47.52 171.876 47.735 171.866 47.96C171.861 48.185 171.801 48.415 171.696 48.64C171.606 48.83 171.501 48.99 171.386 49.115C171.271 49.24 171.146 49.34 171.011 49.41C170.876 49.48 170.731 49.525 170.571 49.545C170.416 49.565 170.251 49.565 170.081 49.545C170.396 49.825 170.591 50.125 170.661 50.445C170.731 50.77 170.681 51.11 170.511 51.475C170.381 51.755 170.211 51.98 170.001 52.155C169.796 52.33 169.566 52.45 169.321 52.52C169.071 52.59 168.811 52.61 168.541 52.58C168.271 52.55 168.001 52.475 167.741 52.35C167.441 52.21 167.201 52.045 167.021 51.87C166.841 51.69 166.706 51.5 166.621 51.29C166.536 51.08 166.486 50.855 166.476 50.62C166.466 50.38 166.481 50.13 166.521 49.87L166.931 49.88C167.036 49.88 167.126 49.91 167.201 49.97C167.276 50.025 167.311 50.105 167.311 50.2C167.311 50.3 167.311 50.415 167.311 50.545C167.311 50.675 167.336 50.805 167.381 50.94C167.426 51.075 167.496 51.205 167.601 51.33C167.706 51.455 167.851 51.565 168.051 51.66C168.251 51.755 168.426 51.8 168.601 51.8C168.776 51.8 168.936 51.775 169.081 51.715C169.226 51.655 169.351 51.575 169.461 51.47C169.571 51.365 169.651 51.25 169.711 51.125C169.786 50.97 169.831 50.82 169.856 50.67C169.881 50.52 169.861 50.375 169.801 50.235C169.741 50.095 169.631 49.95 169.466 49.81C169.306 49.67 169.076 49.53 168.776 49.385L169.056 48.795C169.301 48.91 169.521 48.98 169.716 49.01C169.906 49.04 170.076 49.035 170.221 48.995C170.366 48.955 170.491 48.885 170.596 48.785C170.701 48.685 170.786 48.56 170.856 48.41C170.931 48.245 170.976 48.095 170.986 47.95C170.996 47.805 170.976 47.67 170.931 47.55C170.881 47.425 170.811 47.32 170.711 47.22C170.611 47.12 170.491 47.045 170.356 46.98C170.221 46.915 170.081 46.875 169.946 46.86C169.811 46.845 169.676 46.855 169.551 46.885C169.426 46.915 169.306 46.97 169.196 47.045C169.086 47.12 168.991 47.21 168.906 47.315C168.821 47.4 168.736 47.45 168.666 47.46C168.596 47.47 168.506 47.44 168.411 47.37L168.036 47.1L168.041 47.105Z" fill="white"></path>
<g id="Group_8">
<path id="Vector_51" d="M41.2594 60.9844L32.5287 75.3552C31.5882 76.9033 32.0807 78.9209 33.6289 79.8614L47.9997 88.5921C49.5479 89.5327 51.5654 89.0401 52.5059 87.492L61.2366 73.1212C62.1772 71.573 61.6846 69.5555 60.1365 68.6149L45.7657 59.8842C44.2175 58.9436 42.2 59.4362 41.2594 60.9844Z" fill="#2AEDB4"></path>
<path id="Vector_52" d="M41.2585 58.861L32.5278 73.2318C31.5872 74.78 32.0798 76.7975 33.6279 77.7381L47.9987 86.4688C49.5469 87.4093 51.5644 86.9168 52.505 85.3686L61.2357 70.9978C62.1762 69.4496 61.6837 67.4321 60.1355 66.4916L45.7647 57.7609C44.2165 56.8203 42.199 57.3129 41.2585 58.861Z" fill="#07064E"></path>
<g id="Vector_53">
<path d="M43.8757 74.69L43.3657 75.53L38.9907 72.87L39.5007 72.03L41.2157 73.07L44.4407 67.765C44.5457 67.595 44.6557 67.425 44.7757 67.25L42.6907 67.58C42.6107 67.59 42.5457 67.58 42.4857 67.565C42.4257 67.545 42.3757 67.515 42.3307 67.48C42.2857 67.445 42.2557 67.405 42.2357 67.355C42.2157 67.31 42.2007 67.265 42.1957 67.225L42.1407 66.535L45.8357 65.915L46.7307 66.46L42.3107 73.735L43.8707 74.685L43.8757 74.69Z" fill="white"></path>
<path d="M52.8157 75.73C52.3857 76.435 51.9357 77.005 51.4707 77.43C51.0057 77.855 50.5357 78.16 50.0607 78.34C49.5907 78.52 49.1257 78.58 48.6657 78.53C48.2057 78.475 47.7707 78.325 47.3557 78.075C46.9407 77.825 46.6057 77.505 46.3457 77.125C46.0857 76.74 45.9307 76.3 45.8757 75.8C45.8207 75.3 45.8757 74.745 46.0407 74.135C46.2057 73.525 46.5007 72.865 46.9307 72.16C47.3607 71.455 47.8057 70.885 48.2757 70.455C48.7407 70.025 49.2107 69.72 49.6807 69.54C50.1507 69.36 50.6157 69.295 51.0757 69.35C51.5357 69.405 51.9707 69.555 52.3857 69.805C52.8007 70.055 53.1357 70.375 53.3957 70.755C53.6557 71.14 53.8107 71.58 53.8707 72.08C53.9307 72.58 53.8757 73.14 53.7107 73.75C53.5457 74.365 53.2507 75.025 52.8207 75.73H52.8157ZM51.6757 75.04C52.0457 74.43 52.3057 73.89 52.4557 73.42C52.6057 72.95 52.6707 72.54 52.6557 72.185C52.6407 71.835 52.5557 71.54 52.4007 71.3C52.2457 71.06 52.0507 70.87 51.8157 70.725C51.5807 70.58 51.3207 70.495 51.0357 70.47C50.7557 70.445 50.4507 70.505 50.1357 70.65C49.8157 70.8 49.4857 71.05 49.1357 71.4C48.7907 71.75 48.4307 72.23 48.0607 72.84C47.6907 73.45 47.4307 73.99 47.2807 74.455C47.1307 74.92 47.0607 75.335 47.0807 75.685C47.0957 76.035 47.1807 76.33 47.3357 76.565C47.4907 76.8 47.6857 76.995 47.9207 77.14C48.1557 77.285 48.4157 77.37 48.7007 77.395C48.9807 77.42 49.2807 77.365 49.6007 77.215C49.9207 77.07 50.2507 76.82 50.6007 76.47C50.9507 76.12 51.3107 75.64 51.6807 75.035L51.6757 75.04Z" fill="white"></path>
</g>
</g>
<g id="Vector_54">
<path d="M152.815 80.2907L147.632 82.203C146.642 82.5681 146.136 83.6663 146.501 84.656L148.413 89.8395C148.778 90.8292 149.876 91.3355 150.866 90.9704L156.05 89.0581C157.039 88.6929 157.546 87.5947 157.18 86.605L155.268 81.4215C154.903 80.4319 153.805 79.9255 152.815 80.2907Z" fill="#2AEDB4"></path>
<path d="M137.638 17.6176L129.421 19.0724C128.534 19.2293 127.943 20.0751 128.1 20.9616L129.555 29.1788C129.712 30.0652 130.558 30.6566 131.444 30.4997L139.661 29.0448C140.548 28.8879 141.139 28.0421 140.982 27.1556L139.527 18.9384C139.37 18.052 138.524 17.4606 137.638 17.6176Z" fill="#2AEDB4"></path>
</g>
<g id="Vector_55">
<path d="M152.814 78.167L147.631 80.0793C146.641 80.4444 146.135 81.5427 146.5 82.5323L148.412 87.7158C148.777 88.7055 149.876 89.2118 150.865 88.8467L156.049 86.9344C157.039 86.5693 157.545 85.471 157.18 84.4814L155.267 79.2979C154.902 78.3082 153.804 77.8019 152.814 78.167Z" fill="#FFC391"></path>
<path d="M137.641 15.4902L129.424 16.945C128.538 17.1019 127.946 17.9478 128.103 18.8342L129.558 27.0514C129.715 27.9378 130.561 28.5292 131.447 28.3723L139.665 26.9175C140.551 26.7605 141.142 25.9147 140.985 25.0282L139.531 16.811C139.374 15.9246 138.528 15.3332 137.641 15.4902Z" fill="#FFC391"></path>
</g>
<path id="Vector_56" d="M153.476 84.565L153.616 84.945L151.641 85.675L151.501 85.295L152.276 85.01L151.391 82.615C151.361 82.54 151.336 82.46 151.311 82.375L150.886 83.13C150.871 83.155 150.851 83.18 150.826 83.19C150.806 83.205 150.781 83.215 150.761 83.215C150.741 83.215 150.716 83.215 150.696 83.215C150.676 83.215 150.656 83.205 150.646 83.195L150.411 83.035L151.156 81.685L151.561 81.535L152.771 84.82L153.476 84.56V84.565Z" fill="white"></path>
<path id="Vector_57" d="M133.781 21.41C134.016 21.315 134.231 21.25 134.426 21.215C134.676 21.17 134.901 21.17 135.101 21.215C135.306 21.255 135.481 21.33 135.636 21.435C135.791 21.54 135.911 21.675 136.011 21.84C136.106 22.005 136.176 22.19 136.211 22.395C136.256 22.645 136.251 22.885 136.201 23.105C136.151 23.325 136.056 23.525 135.931 23.695C135.801 23.87 135.641 24.015 135.441 24.13C135.246 24.245 135.021 24.325 134.781 24.37C134.636 24.395 134.496 24.405 134.361 24.4C134.226 24.395 134.101 24.375 133.976 24.35C133.856 24.325 133.741 24.285 133.631 24.24C133.521 24.195 133.426 24.145 133.341 24.09L133.491 23.775C133.521 23.705 133.571 23.665 133.646 23.65C133.691 23.64 133.746 23.65 133.811 23.675C133.876 23.7 133.946 23.725 134.031 23.755C134.116 23.785 134.216 23.805 134.326 23.82C134.436 23.835 134.566 23.83 134.711 23.805C134.871 23.775 135.011 23.725 135.136 23.65C135.256 23.575 135.351 23.48 135.426 23.37C135.501 23.26 135.546 23.135 135.571 22.99C135.596 22.85 135.591 22.7 135.566 22.535C135.541 22.39 135.496 22.265 135.436 22.16C135.371 22.05 135.291 21.965 135.196 21.9C135.096 21.835 134.981 21.79 134.846 21.77C134.711 21.75 134.561 21.755 134.391 21.785C134.156 21.825 133.916 21.915 133.661 22.045L133.231 22L133.221 19.68L135.506 19.275L135.556 19.555C135.571 19.65 135.556 19.73 135.506 19.8C135.456 19.87 135.366 19.915 135.226 19.94L133.776 20.195V21.415L133.781 21.41Z" fill="white"></path>
<g id="Group_9">
<path id="Vector_58" d="M11.4653 95.79C11.3253 95.79 11.2153 95.68 11.2153 95.54C11.2153 95.4 11.3253 95.29 11.4653 95.29L69.0053 95.225C69.1453 95.225 69.2553 95.335 69.2553 95.475C69.2553 95.615 69.1453 95.725 69.0053 95.725L11.4653 95.79Z" fill="#07064E"></path>
<path id="Vector_59" d="M78.3604 95.725C78.2204 95.725 78.1104 95.615 78.1104 95.475C78.1104 95.335 78.2204 95.225 78.3604 95.225L189.805 95.09C189.945 95.09 190.055 95.2 190.055 95.34C190.055 95.48 189.945 95.59 189.805 95.59L78.3604 95.725Z" fill="#07064E"></path>
<path id="Vector_60" d="M9.32031 95.79H6.07031C5.93031 95.79 5.82031 95.68 5.82031 95.54C5.82031 95.4 5.93031 95.29 6.07031 95.29H9.32031C9.46031 95.29 9.57031 95.4 9.57031 95.54C9.57031 95.68 9.46031 95.79 9.32031 95.79Z" fill="#2BF5BA"></path>
</g>
</g>
</g>
</g>
</g>
<defs>
<clipPath id="clip0_85_2026">
<rect width="200" height="140" fill="white"></rect>
</clipPath>
</defs>
</svg>