<svg width="200" height="140" viewBox="0 0 200 140" fill="none" xmlns="http://www.w3.org/2000/svg">
<g id="illu_bg_participant-man/Default" clip-path="url(#clip0_86_602)">
<g id="illu_bg_participant-man">
<g id="background">
<path d="M70.7601 9.60012C30.2201 24.8701 59.0201 37.3851 36.7151 79.6451C20.6751 110.035 15.7901 157.52 88.8801 122.43C117.675 108.605 166.555 124.06 182.53 89.8201C199.88 52.6451 187.625 12.6051 147.45 8.43012C100.74 3.57512 84.7801 4.32012 70.7551 9.60512L70.7601 9.60012Z" fill="#2BF5BA"></path>
<path d="M187.664 129.685C190.957 127.986 192.56 124.542 191.245 121.992C189.929 119.442 186.193 118.753 182.9 120.452C179.606 122.151 178.003 125.595 179.319 128.145C180.634 130.695 184.37 131.384 187.664 129.685Z" fill="#2BF5BA"></path>
<path d="M189.154 19.3339C189.761 18.1585 189.276 16.7016 188.071 16.0797C186.866 15.4578 185.398 15.9065 184.791 17.0819C184.185 18.2573 184.67 19.7143 185.874 20.3362C187.079 20.958 188.548 20.5093 189.154 19.3339Z" fill="#2BF5BA"></path>
<path d="M37.4 32.9472C39.3172 28.6168 35.9669 22.9349 29.9169 20.2565C23.8669 17.578 17.4083 18.9172 15.4911 23.2477C13.5739 27.5781 16.9242 33.2599 22.9742 35.9384C29.0242 38.6168 35.4829 37.2776 37.4 32.9472Z" fill="#2BF5BA"></path>
<path d="M35.5918 54.5594C37.3245 54.376 38.5912 52.9229 38.4209 51.3137C38.2507 49.7044 36.7079 48.5486 34.9752 48.7319C33.2424 48.9152 31.9757 50.3684 32.146 51.9776C32.3162 53.5868 33.859 54.7427 35.5918 54.5594Z" fill="#2BF5BA"></path>
</g>
<g id="illu_bg_participant-man_2">
<g id="stroke">
<path id="Vector" d="M13.5244 98.8099C13.3844 98.8099 13.2744 98.6999 13.2744 98.5599C13.2744 98.4199 13.3844 98.3099 13.5244 98.3099L191.864 98.1099C192.004 98.1099 192.114 98.2199 192.114 98.3599C192.114 98.4999 192.004 98.6099 191.864 98.6099L13.5244 98.8099Z" fill="#07064E"></path>
<path id="Vector_2" d="M11.3848 98.8101H8.13477C7.99477 98.8101 7.88477 98.7001 7.88477 98.5601C7.88477 98.4201 7.99477 98.3101 8.13477 98.3101H11.3848C11.5248 98.3101 11.6348 98.4201 11.6348 98.5601C11.6348 98.7001 11.5248 98.8101 11.3848 98.8101Z" fill="#2BF5BA"></path>
<path id="Vector_3" d="M140.435 98.0898C140.435 100.25 138.81 105.975 111.69 105.975C84.5699 105.975 82.2549 100.245 82.2549 98.0898C82.2549 95.9348 95.6249 96.3798 111.69 96.3798C127.755 96.3798 140.435 95.9348 140.435 98.0898Z" fill="#2AEDB4"></path>
<path id="Vector_4" d="M141.424 74.2149C141.519 69.8299 137.979 66.2249 133.594 66.2499L121.709 64.0549C115.154 76.8399 107.264 75.0449 101.589 64.1199L89.7194 66.2399C84.4994 66.4049 81.4444 70.3799 81.6644 75.5999L82.4644 98.4799L140.639 98.5149L141.424 74.2149Z" fill="white"></path>
<g id="Vector_5">
<path d="M140.799 85.52H81.6641V88.555H140.799V85.52Z" fill="#2BF5BA"></path>
<path d="M140.799 92.61H81.6641V95.645H140.799V92.61Z" fill="#2BF5BA"></path>
</g>
<g id="Vector_6">
<path d="M117.209 25.17C109.154 25.3 108.684 34.48 101.134 31.155C100.434 33.625 100.624 35.535 100.579 38.475C100.414 49.235 105.294 56.93 111.114 56.93C116.934 56.93 121.779 48.96 121.779 38.765C121.779 33.63 121.364 31.21 119.429 27.865C118.844 27.23 117.214 25.165 117.214 25.165L117.209 25.17Z" fill="white"></path>
<path d="M121.384 64.14C115.074 76.26 107.739 76.215 101.379 64.19C103.914 63.265 105.479 61.365 105.389 53.985C108.894 57.965 112.964 57.915 117.649 53.495C117.004 60.015 117.749 63.3 121.384 64.14Z" fill="white"></path>
</g>
<path id="Vector_7" d="M124.345 25.22C123.575 22.42 122.44 21.43 121.225 20.85C119.59 20.42 118.945 20.94 118.305 21.47C116.445 18.63 113.865 17.38 110.705 17.425C105.195 17.93 102.025 21.345 99.8147 25.135C97.8897 28.435 97.2447 32.63 97.5147 37.45C98.4647 35.425 100.27 35.755 100.59 36.93C100.63 35.28 100.75 33.765 100.955 32.41C104.01 33.815 105.995 33.275 107.295 32.32C110.4 30.04 111.845 26.745 116.77 26.58C119.44 29.405 120.89 32.24 120.845 35.05C120.825 35.085 120.81 35.12 120.79 35.155C120.405 43.03 119.32 51.99 111.51 56.655C111.395 56.655 111.275 56.665 111.155 56.665C108.605 56.665 106.405 55.57 105.36 53.99C105.34 54.225 105.325 54.46 105.325 54.7C105.325 58.47 108.035 61.525 111.38 61.525C114.725 61.525 117.435 58.47 117.435 54.7C117.435 54.39 117.41 54.085 117.375 53.78C122.28 48.23 121.665 37.345 121.665 37.345C121.63 37.305 121.665 37.175 121.725 36.99C121.725 37.07 121.725 37.145 121.725 37.225C122.045 35.7 124.25 35.43 124.645 37.485C125.485 32.31 125.215 28.42 124.345 25.225V25.22ZM115.43 55.46C115.43 55.46 115.4 55.48 115.38 55.49C115.395 55.48 115.41 55.47 115.43 55.46ZM116.575 25.1C116.805 25.085 117.035 25.08 117.26 25.1C117.295 25.13 117.32 25.16 117.355 25.195C117.1 25.165 116.84 25.135 116.575 25.105V25.1Z" fill="#EBEBEB"></path>
<g id="Vector_8">
<path d="M121.709 37.785C121.709 36.235 122.454 35.825 123.219 35.93C124.244 36.07 124.944 36.76 124.599 38.975C124.234 41.325 123.694 42.815 121.409 44.39" fill="white"></path>
<path d="M100.624 37.785C100.624 36.235 99.8795 35.825 99.1145 35.93C98.0895 36.07 97.3895 36.76 97.7345 38.975C98.0995 41.325 98.6395 42.815 100.924 44.39" fill="white"></path>
</g>
<g id="Vector_9">
<path d="M111.18 50.7999C110.005 50.7999 108.89 50.2699 107.955 49.2749C107.86 49.1749 107.865 49.0149 107.965 48.9199C108.065 48.8249 108.225 48.8299 108.32 48.9299C109.16 49.8199 110.15 50.2949 111.18 50.2949C112.21 50.2949 113.2 49.8249 114.045 48.9299C114.14 48.8299 114.3 48.8249 114.4 48.9199C114.5 49.0149 114.505 49.1749 114.41 49.2749C113.47 50.2699 112.355 50.7949 111.185 50.7949L111.18 50.7999Z" fill="#07064E"></path>
<path d="M109.825 53.1799C109.685 53.1799 109.575 53.0699 109.575 52.9299C109.575 52.7899 109.685 52.6799 109.825 52.6799L112.53 52.6699C112.67 52.6699 112.78 52.7799 112.78 52.9199C112.78 53.0599 112.67 53.1699 112.53 53.1699L109.825 53.1799Z" fill="#07064E"></path>
<path d="M101.965 35.3999C101.885 35.3999 101.81 35.3649 101.76 35.2949C101.68 35.1849 101.705 35.0249 101.815 34.9449C104.14 33.2699 107.255 33.0349 109.57 34.3699C109.69 34.4399 109.73 34.5899 109.66 34.7099C109.59 34.8299 109.435 34.8699 109.32 34.7999C107.175 33.5649 104.275 33.7849 102.11 35.3499C102.065 35.3799 102.015 35.3949 101.965 35.3949V35.3999Z" fill="#07064E"></path>
<path d="M120.79 35.3999C120.74 35.3999 120.69 35.3849 120.645 35.3549C118.475 33.7899 115.575 33.5699 113.435 34.8049C113.315 34.8749 113.16 34.8349 113.095 34.7149C113.025 34.5949 113.065 34.4449 113.185 34.3749C115.5 33.0399 118.615 33.2749 120.94 34.9499C121.05 35.0299 121.075 35.1849 120.995 35.2999C120.945 35.3699 120.87 35.4049 120.79 35.4049V35.3999Z" fill="#07064E"></path>
<path d="M106.305 39.7499C105.245 39.7499 104.38 38.8249 104.38 37.6899C104.38 37.5499 104.49 37.4399 104.63 37.4399C104.77 37.4399 104.88 37.5499 104.88 37.6899C104.88 38.5499 105.52 39.2499 106.305 39.2499C107.09 39.2499 107.73 38.5499 107.73 37.6899C107.73 37.5499 107.84 37.4399 107.98 37.4399C108.12 37.4399 108.23 37.5499 108.23 37.6899C108.23 38.8249 107.365 39.7499 106.305 39.7499Z" fill="#07064E"></path>
<path d="M116.23 39.7499C115.17 39.7499 114.305 38.8249 114.305 37.6899C114.305 37.5499 114.415 37.4399 114.555 37.4399C114.695 37.4399 114.805 37.5499 114.805 37.6899C114.805 38.5499 115.445 39.2499 116.23 39.2499C117.015 39.2499 117.655 38.5499 117.655 37.6899C117.655 37.5499 117.765 37.4399 117.905 37.4399C118.045 37.4399 118.155 37.5499 118.155 37.6899C118.155 38.8249 117.29 39.7499 116.23 39.7499Z" fill="#07064E"></path>
<path d="M111.66 43.9299C111.435 43.9299 111.21 43.8699 111.005 43.7449C110.61 43.5049 110.385 43.0849 110.4 42.6249L110.605 36.8149C110.61 36.6749 110.74 36.5649 110.865 36.5749C111.005 36.5749 111.11 36.6949 111.105 36.8349L110.9 42.6449C110.89 42.9249 111.025 43.1749 111.265 43.3199C111.5 43.4649 111.79 43.4699 112.03 43.3349C112.15 43.2649 112.3 43.3099 112.37 43.4299C112.44 43.5499 112.395 43.7049 112.275 43.7699C112.08 43.8799 111.87 43.9349 111.66 43.9349V43.9299Z" fill="#07064E"></path>
</g>
<path id="Vector_10" d="M105.454 21.7299C112.334 17.3599 116.084 25.5149 118.304 21.4699C116.449 18.7249 113.944 17.3849 110.839 17.4249C105.329 17.9299 102.159 21.3449 99.9494 25.1349C98.0244 28.4349 97.3795 32.6299 97.6495 37.4499C97.8045 37.1199 97.9845 36.8599 98.1745 36.6449C98.4295 34.3549 98.9044 25.7749 105.459 21.7299H105.454Z" fill="white"></path>
<g id="Vector_11">
<path d="M91.5292 98.6849C91.3992 98.6849 91.2892 98.5799 91.2792 98.4499L90.2692 80.0349C90.2592 79.8949 90.3692 79.7799 90.5042 79.7699C90.6692 79.7599 90.7592 79.8699 90.7692 80.0049L91.7792 98.4199C91.7892 98.5599 91.6792 98.6749 91.5442 98.6849C91.5442 98.6849 91.5342 98.6849 91.5292 98.6849Z" fill="#07064E"></path>
<path d="M131.189 98.6849C131.189 98.6849 131.179 98.6849 131.174 98.6849C131.034 98.6799 130.929 98.5599 130.939 98.4199L131.949 80.0049C131.959 79.8699 132.069 79.7599 132.214 79.7699C132.354 79.7749 132.459 79.8949 132.449 80.0349L131.439 98.4499C131.434 98.5849 131.319 98.6849 131.189 98.6849Z" fill="#07064E"></path>
<path d="M135.094 66.29L121.569 63.9C121.569 63.9 121.564 63.9 121.559 63.9C120.444 63.65 119.089 62.255 118.409 60.645C118.014 59.71 117.404 57.53 117.819 53.46C117.819 53.425 117.819 53.39 117.809 53.36C120.344 50.09 121.979 44.995 121.979 39.285L121.959 37.795C121.959 37.125 122.109 36.635 122.399 36.385C122.649 36.17 122.964 36.16 123.189 36.19C123.619 36.25 123.924 36.405 124.119 36.67C124.384 37.03 124.484 37.615 124.414 38.42C124.409 38.46 124.404 38.495 124.399 38.535C124.399 38.55 124.399 38.56 124.399 38.575C124.384 38.695 124.369 38.82 124.349 38.955C124.079 40.7 123.704 41.935 122.619 43.075C122.524 43.175 122.529 43.335 122.629 43.43C122.729 43.525 122.889 43.52 122.984 43.42C124.159 42.185 124.554 40.88 124.844 39.035C124.874 38.84 124.894 38.655 124.909 38.475C126.804 24.69 122.929 21.49 121.694 20.835C120.574 20.245 119.349 20.355 118.359 21.12C115.904 17.525 111.709 16.295 107.344 17.905C101.569 20.04 96.0443 27.38 97.4243 38.495C97.4393 38.67 97.4593 38.845 97.4893 39.035C97.8743 41.495 98.4893 43.035 100.779 44.62C100.799 44.635 100.819 44.63 100.839 44.64C101.559 48.425 103.024 51.67 104.949 53.91C105.329 57.655 104.804 59.485 104.309 60.66C103.604 62.32 102.354 63.65 101.269 63.9L87.6143 66.315C83.8693 67.125 81.1543 70.495 81.1543 74.335L81.9993 98.505C81.9993 98.64 82.1143 98.745 82.2493 98.745H140.459C140.594 98.745 140.704 98.64 140.709 98.505L141.554 74.33C141.554 70.5 138.839 67.13 135.084 66.32L135.094 66.29ZM97.9793 38.94C97.9693 38.875 97.9643 38.82 97.9543 38.755C97.9543 38.755 97.9543 38.755 97.9543 38.75C97.9393 38.645 97.9293 38.545 97.9193 38.445C97.8443 37.63 97.9443 37.03 98.2143 36.665C98.4143 36.4 98.7193 36.24 99.1443 36.185C99.4643 36.14 99.7343 36.205 99.9343 36.38C100.199 36.61 100.344 37.055 100.364 37.655C100.354 38.18 100.344 38.715 100.344 39.285C100.344 40.9 100.479 42.465 100.724 43.95C98.8493 42.55 98.3293 41.185 97.9793 38.945V38.94ZM100.844 39.275C100.844 38.78 100.849 38.31 100.859 37.845C100.864 37.825 100.874 37.805 100.874 37.78C100.874 37.735 100.869 37.695 100.864 37.655C100.914 35.175 101.084 33.15 101.394 31.41C104.574 32.84 106.174 31.98 107.429 31.06C108.264 30.445 109.019 29.755 109.749 29.08C111.779 27.22 113.699 25.455 117.154 25.305C119.929 28.265 121.249 30.97 121.184 33.57C121.184 33.71 121.289 33.825 121.429 33.825H121.434C121.569 33.825 121.679 33.715 121.684 33.58C121.754 30.815 120.364 27.965 117.444 24.875C117.394 24.825 117.324 24.79 117.254 24.795C113.544 24.92 111.444 26.84 109.414 28.705C108.694 29.37 107.944 30.055 107.134 30.65C105.914 31.545 104.469 32.3 101.414 30.865L101.314 30.815C101.244 30.785 101.164 30.785 101.094 30.815C101.024 30.85 100.974 30.915 100.964 30.99C100.684 32.475 100.504 34.165 100.414 36.16C100.364 36.1 100.324 36.035 100.264 35.985C99.9543 35.715 99.5443 35.605 99.0793 35.67C98.5093 35.745 98.0993 35.97 97.8143 36.35C97.7893 36.385 97.7693 36.425 97.7443 36.46C97.2243 26.705 102.259 20.28 107.514 18.34C111.744 16.78 115.794 18.025 118.094 21.59C118.134 21.65 118.199 21.695 118.269 21.705C118.344 21.715 118.414 21.69 118.469 21.64C119.334 20.855 120.449 20.705 121.459 21.24C123.714 22.435 125.644 27.08 124.639 36.54C124.599 36.47 124.564 36.405 124.519 36.345C124.234 35.965 123.824 35.745 123.254 35.665C122.789 35.605 122.379 35.71 122.069 35.98C121.664 36.335 121.459 36.935 121.459 37.77L121.479 39.26C121.479 48.83 116.854 56.62 111.164 56.62C105.474 56.62 100.849 48.835 100.849 39.26L100.844 39.275ZM104.769 60.835C105.259 59.675 105.774 57.92 105.509 54.5C107.154 56.175 109.089 57.14 111.159 57.14C113.424 57.14 115.524 55.985 117.264 54.015C116.969 57.61 117.464 59.7 117.944 60.84C118.619 62.43 119.874 63.79 121.054 64.255C119.559 67.9 115.439 72.91 111.399 73.07H111.334C107.299 72.915 103.189 67.92 101.684 64.28C103.009 63.805 104.169 62.255 104.774 60.84L104.769 60.835ZM140.224 98.22H82.4943L81.6543 74.3C81.6543 70.705 84.2043 67.54 87.7093 66.78L101.189 64.395C102.724 68.17 107.044 73.4 111.324 73.565H111.409C115.674 73.395 119.994 68.175 121.529 64.395L122.874 64.635L134.989 66.775C138.504 67.535 141.054 70.7 141.054 74.29L140.214 98.215L140.224 98.22Z" fill="#07064E"></path>
</g>
</g>
</g>
</g>
</g>
<defs>
<clipPath id="clip0_86_602">
<rect width="200" height="140" fill="white"></rect>
</clipPath>
</defs>
</svg>