<svg width="200" height="140" viewBox="0 0 200 140" fill="none" xmlns="http://www.w3.org/2000/svg">
<g id="illu_bg_even-available-everyone/Default" clip-path="url(#clip0_86_281)">
<g id="illu_bg_even-available-everyone">
<g id="background">
<path d="M171.495 12.1648C212.315 26.6648 190.385 107.925 164.165 123.58C144.925 135.065 113.73 109.01 71.0753 117.62C37.8303 124.33 3.97531 125.8 16.0603 101.88C28.8753 76.5348 3.00031 64.1998 2.24031 35.3498C1.77031 17.4198 13.2653 -3.04518 49.7403 6.33982C108.215 21.3898 137.075 -0.0651798 171.495 12.1648Z" fill="#2BF5BA"></path>
<path d="M15.3498 133.892C18.9487 131.268 20.48 127.239 18.77 124.894C17.06 122.549 12.7563 122.776 9.15736 125.4C5.55843 128.024 4.02716 132.053 5.73715 134.398C7.44715 136.743 11.7509 136.516 15.3498 133.892Z" fill="#2BF5BA"></path>
<path d="M182.785 125.575C185.318 125.575 187.37 123.522 187.37 120.99C187.37 118.458 185.318 116.405 182.785 116.405C180.253 116.405 178.2 118.458 178.2 120.99C178.2 123.522 180.253 125.575 182.785 125.575Z" fill="#2BF5BA"></path>
<path d="M195.252 114.052C197.176 113.059 198.22 111.256 197.584 110.024C196.949 108.792 194.874 108.598 192.95 109.591C191.026 110.583 189.981 112.387 190.617 113.619C191.253 114.851 193.328 115.045 195.252 114.052Z" fill="#2BF5BA"></path>
<path d="M194.379 114.096C196.303 113.103 197.347 111.3 196.712 110.068C196.076 108.836 194.001 108.642 192.077 109.635C190.153 110.627 189.109 112.431 189.744 113.663C190.38 114.894 192.455 115.088 194.379 114.096Z" fill="#2BF5BA"></path>
</g>
<g id="illu_bg_even-available-everyone_2">
<g id="stroke">
<path id="Vector" d="M137.88 94.2599C130.715 94.2599 124.14 94.1649 119.235 94.2899C114.485 94.1649 108.055 94.2599 100.89 94.2599C93.7248 94.2599 87.5498 94.1699 82.6948 94.2749C77.6648 94.0499 70.2048 94.1799 61.7698 94.1799C46.3448 94.1799 33.5098 93.7499 33.5098 95.8249C33.5098 97.8999 36.3598 103.395 61.7698 103.395C71.6398 103.395 77.9898 102.605 82.0748 101.51C86.1448 102.47 92.1248 103.15 100.885 103.15C109.645 103.15 115.47 102.51 119.425 101.595C123.485 102.51 129.37 103.15 137.875 103.15C163.005 103.15 164.505 97.8449 164.505 95.8449C164.505 93.8449 152.755 94.2599 137.875 94.2599H137.88Z" fill="#2AEDB4"></path>
<g id="Group">
<path id="Vector_2" d="M109.58 64.3748C109.25 72.1698 100.46 78.4348 100.46 78.4348C100.46 78.4348 91.4898 70.8998 91.3398 64.4348C93.6348 63.0148 95.3198 61.2998 95.2398 54.4648C98.4848 58.1498 101.285 58.5598 105.625 54.4648C105.54 60.1448 106.745 63.0748 109.585 64.3748H109.58Z" fill="white"></path>
<path id="Vector_3" d="M128.435 73.7249C128.525 69.6599 125.245 66.3249 121.18 66.3449L111.295 64.6199C110.845 74.0749 100.46 81.7499 100.46 81.7499C100.46 81.7499 89.9902 72.9299 89.7702 64.8099L80.5402 66.3349C75.7052 66.4899 72.8702 70.1699 73.0802 75.0049L73.8202 96.2049L127.715 96.2399L128.44 73.7249H128.435Z" fill="white"></path>
<path id="Vector_4" d="M120.02 59.1148C118.685 56.7948 116.635 51.7548 116.29 42.3198C115.925 32.3398 108.835 18.3048 100.41 23.7848C93.1248 18.8748 84.7298 30.6648 84.6398 41.5648C84.5898 47.2798 85.6348 54.2748 81.2248 58.7448C80.8448 59.1298 81.2448 59.7548 81.7498 59.5698L84.2398 58.6498C85.1048 58.3298 86.0748 58.4798 86.8048 59.0448L87.4348 59.5348C88.3798 60.2648 89.6948 60.2799 90.6598 59.5748L91.3398 59.0748C92.1248 58.4998 93.1648 58.3948 94.0498 58.8048L94.8348 59.1698C95.4598 57.8348 95.5448 56.6848 95.5448 55.2098C95.5448 54.9448 95.5598 54.6848 95.5798 54.4298C96.6098 56.4099 104.27 56.4099 105.3 54.4298C105.32 54.6848 105.335 54.9448 105.335 55.2098C105.335 56.6748 105.82 58.2448 105.9 59.1398L106.65 58.7648C107.425 58.3748 108.34 58.3898 109.11 58.7948L110.985 59.7948C111.825 60.2448 112.845 60.2099 113.655 59.7048L114.875 58.9498C115.68 58.4498 116.69 58.4148 117.53 58.8548L119.365 59.8148C119.805 60.0448 120.28 59.5598 120.035 59.1248L120.02 59.1148Z" fill="#EDEDED"></path>
<path id="Vector_5" d="M91.3397 46.1748C89.2547 46.4448 88.2697 42.5748 87.9647 41.0798C87.5447 39.0448 88.4297 38.0798 89.3797 37.9498C90.0847 37.8548 90.6397 38.5448 90.6397 39.9798C90.7497 42.4898 90.8947 44.9248 91.3397 46.1798V46.1748Z" fill="white"></path>
<path id="Vector_6" d="M100.425 27.26C99.7398 30.3 96.0748 34.21 91.4148 34.11C90.7648 36.395 90.7498 37.9 90.7048 40.625C90.5548 50.595 96.7998 57.935 100.355 57.715C103.65 57.51 110.575 50.07 110.7 41.26C110.745 38.22 109.715 33.89 109.715 33.89C109.715 33.89 106.91 34.5 104.06 32.435C100.78 30.125 100.415 27.26 100.415 27.26H100.425Z" fill="white"></path>
<path id="Vector_7" d="M110 46.1748C112.085 46.4448 113.07 42.5748 113.375 41.0798C113.795 39.0448 112.91 38.0798 111.96 37.9498C111.255 37.8548 110.7 38.5448 110.7 39.9798C110.49 42.4898 110.445 44.9248 110 46.1798V46.1748Z" fill="white"></path>
<path id="Vector_8" d="M100.405 25.95C108.47 22.295 111.55 29.575 114.635 33.845C111.985 26.485 106.4 19.89 100.405 23.79C94.5148 19.815 87.9548 26.79 85.5498 35.355C88.9448 29.455 92.6998 22.325 100.405 25.95Z" fill="white"></path>
<path id="Vector_9" d="M108.595 34.2399C107.13 34.2399 105.59 33.7649 104.34 32.9249C101.64 31.1099 100.155 28.9549 100.155 26.8699C100.155 26.7299 100.265 26.6199 100.405 26.6199C100.545 26.6199 100.655 26.7299 100.655 26.8699C100.655 28.7849 102.06 30.7899 104.615 32.5099C105.84 33.3349 107.365 33.7849 108.79 33.7399C110.105 33.6999 111.18 33.2449 111.66 32.5299C111.74 32.4149 111.895 32.3849 112.005 32.4599C112.12 32.5349 112.15 32.6899 112.075 32.8049C111.505 33.6549 110.28 34.1849 108.805 34.2349C108.735 34.2349 108.665 34.2349 108.595 34.2349V34.2399Z" fill="#EDEDED"></path>
<path id="Vector_10" d="M90.3847 47.5849C90.9121 47.5849 91.3397 47.1305 91.3397 46.5699C91.3397 46.0094 90.9121 45.5549 90.3847 45.5549C89.8573 45.5549 89.4297 46.0094 89.4297 46.5699C89.4297 47.1305 89.8573 47.5849 90.3847 47.5849Z" fill="white"></path>
<path id="Vector_11" d="M110.82 47.5849C111.348 47.5849 111.775 47.1305 111.775 46.5699C111.775 46.0094 111.348 45.5549 110.82 45.5549C110.293 45.5549 109.865 46.0094 109.865 46.5699C109.865 47.1305 110.293 47.5849 110.82 47.5849Z" fill="white"></path>
<g id="Group_2">
<path id="Vector_12" d="M100.416 51.5348C99.0007 51.5348 97.5907 51.0698 96.3857 50.1398C96.2757 50.0548 96.2557 49.8998 96.3407 49.7898C96.4257 49.6798 96.5857 49.6598 96.6907 49.7448C98.9157 51.4648 101.916 51.4648 104.151 49.7448C104.261 49.6598 104.416 49.6798 104.501 49.7898C104.586 49.8998 104.566 50.0548 104.456 50.1398C103.246 51.0698 101.831 51.5348 100.416 51.5348Z" fill="#07064E"></path>
<path id="Vector_13" d="M100.3 46.0799C99.8852 46.0799 99.5002 45.8799 99.2402 45.5249C98.9152 45.0749 98.8752 44.4649 99.1402 43.9799C99.6802 42.9849 100.005 41.6249 100.205 39.5849C100.22 39.4449 100.345 39.3499 100.48 39.3599C100.62 39.3749 100.72 39.4948 100.705 39.6348C100.5 41.7498 100.155 43.1599 99.5852 44.2199C99.4102 44.5399 99.4402 44.9399 99.6552 45.2349C99.8502 45.5049 100.14 45.6249 100.455 45.5699C100.545 45.5549 100.62 45.5299 100.685 45.4949C100.805 45.4248 100.955 45.4699 101.025 45.5899C101.095 45.7099 101.05 45.8649 100.93 45.9299C100.815 45.9949 100.685 46.0398 100.54 46.0648C100.46 46.0798 100.385 46.0849 100.31 46.0849L100.3 46.0799Z" fill="#07064E"></path>
<g id="Group_3">
<path id="Vector_14" d="M96.9051 41.3248C97.2451 40.9748 97.4551 40.4848 97.4551 39.9448C97.4551 39.8048 97.3451 39.6948 97.2051 39.6948C97.0651 39.6948 96.9551 39.8048 96.9551 39.9448C96.9551 40.7298 96.3701 41.3698 95.6551 41.3698C94.9401 41.3698 94.3551 40.7298 94.3551 39.9448C94.3551 39.8048 94.2451 39.6948 94.1051 39.6948C93.9651 39.6948 93.8551 39.8048 93.8551 39.9448C93.8551 40.4848 94.0651 40.9748 94.4051 41.3248L93.7801 41.9498C93.6801 42.0498 93.6801 42.2048 93.7801 42.3048C93.8301 42.3548 93.8951 42.3798 93.9551 42.3798C94.0151 42.3798 94.0851 42.3548 94.1301 42.3048L94.8001 41.6348C94.9851 41.7398 95.1851 41.8148 95.4001 41.8498V42.7198C95.4001 42.8598 95.5101 42.9698 95.6501 42.9698C95.7901 42.9698 95.9001 42.8598 95.9001 42.7198V41.8498C96.1151 41.8148 96.3151 41.7448 96.5001 41.6398L97.1701 42.3098C97.2201 42.3598 97.2851 42.3848 97.3451 42.3848C97.4051 42.3848 97.4751 42.3598 97.5201 42.3098C97.6201 42.2098 97.6201 42.0548 97.5201 41.9548L96.8951 41.3298L96.9051 41.3248Z" fill="#07064E"></path>
<path id="Vector_15" d="M106.725 41.9498L106.1 41.3248C106.44 40.9748 106.65 40.4848 106.65 39.9448C106.65 39.8048 106.54 39.6948 106.4 39.6948C106.26 39.6948 106.15 39.8048 106.15 39.9448C106.15 40.7298 105.565 41.3698 104.85 41.3698C104.135 41.3698 103.55 40.7298 103.55 39.9448C103.55 39.8048 103.44 39.6948 103.3 39.6948C103.16 39.6948 103.05 39.8048 103.05 39.9448C103.05 40.4848 103.26 40.9748 103.6 41.3248L102.975 41.9498C102.875 42.0498 102.875 42.2048 102.975 42.3048C103.025 42.3548 103.09 42.3798 103.15 42.3798C103.21 42.3798 103.28 42.3548 103.325 42.3048L103.995 41.6348C104.18 41.7398 104.38 41.8148 104.595 41.8448V42.7148C104.595 42.8548 104.705 42.9648 104.845 42.9648C104.985 42.9648 105.095 42.8548 105.095 42.7148V41.8448C105.31 41.8098 105.51 41.7398 105.695 41.6348L106.365 42.3048C106.415 42.3548 106.48 42.3798 106.54 42.3798C106.6 42.3798 106.67 42.3548 106.715 42.3048C106.815 42.2048 106.815 42.0498 106.715 41.9498H106.725Z" fill="#07064E"></path>
</g>
<path id="Vector_16" d="M92.5455 37.6048C92.4455 37.6048 92.3555 37.5448 92.3155 37.4498C92.2655 37.3198 92.3255 37.1748 92.4505 37.1248C94.0705 36.4648 95.8855 36.0098 98.2105 37.1298C98.3355 37.1898 98.3855 37.3398 98.3255 37.4648C98.2655 37.5898 98.1155 37.6398 97.9905 37.5798C95.9605 36.5998 94.3805 36.8748 92.6355 37.5848C92.6055 37.5998 92.5755 37.6048 92.5405 37.6048H92.5455Z" fill="#07064E"></path>
<path id="Vector_17" d="M108.216 37.6048C108.186 37.6048 108.151 37.5998 108.121 37.5848C106.371 36.8748 104.796 36.5998 102.766 37.5798C102.646 37.6398 102.491 37.5898 102.431 37.4648C102.371 37.3398 102.421 37.1898 102.546 37.1298C104.871 36.0098 106.691 36.4648 108.306 37.1248C108.436 37.1748 108.496 37.3248 108.441 37.4498C108.401 37.5448 108.306 37.6048 108.211 37.6048H108.216Z" fill="#07064E"></path>
</g>
<path id="Vector_18" d="M119.13 96.2399C118.995 96.2399 118.885 96.1349 118.88 95.9999L118.2 80.8849C118.195 80.7449 118.3 80.6299 118.44 80.6249C118.585 80.6149 118.695 80.7249 118.7 80.8649L119.38 95.9799C119.385 96.1199 119.28 96.2349 119.14 96.2399H119.13Z" fill="#07064E"></path>
<path id="Vector_19" d="M92.2155 34.24C92.1455 34.24 92.0755 34.24 92.0055 34.24C90.5305 34.195 89.3055 33.66 88.7355 32.81C88.6605 32.695 88.6905 32.54 88.8055 32.465C88.9205 32.39 89.0755 32.42 89.1505 32.535C89.6305 33.25 90.7055 33.7 92.0205 33.745C93.4505 33.79 94.9705 33.34 96.1955 32.515C98.7505 30.795 100.155 28.79 100.155 26.875C100.155 26.735 100.265 26.625 100.405 26.625C100.545 26.625 100.655 26.735 100.655 26.875C100.655 28.965 99.1705 31.115 96.4705 32.93C95.2205 33.77 93.6805 34.245 92.2155 34.245V34.24Z" fill="#07064E"></path>
<path id="Vector_20" d="M112.425 31.8399C111.965 31.5299 111.345 31.6549 111.035 32.1099C110.695 32.6199 109.825 32.9549 108.765 32.9899C107.495 33.0299 106.13 32.6299 105.035 31.8899C102.695 30.3149 101.405 28.5299 101.405 26.8699C101.405 26.3199 100.955 25.8699 100.405 25.8699C99.8554 25.8699 99.4054 26.3199 99.4054 26.8699C99.4054 28.5299 98.1155 30.3099 95.7755 31.8899C94.6755 32.6299 93.3154 33.0299 92.0454 32.9899C90.9854 32.9549 90.1155 32.6199 89.7755 32.1099C89.4655 31.6499 88.8455 31.5299 88.3855 31.8399C87.9255 32.1499 87.8054 32.7699 88.1154 33.2299C88.8304 34.2949 90.2405 34.9349 91.9855 34.9899C92.0655 34.9899 92.1505 34.9899 92.2305 34.9899C93.8605 34.9899 95.5054 34.4799 96.8954 33.5449C98.6404 32.3699 99.7305 31.1999 100.41 30.1149C101.085 31.1999 102.18 32.3699 103.925 33.5449C105.055 34.3049 106.355 34.7799 107.68 34.9299C109.845 44.1449 105.305 55.3199 99.1304 57.5199C99.2004 57.5449 99.2655 57.5599 99.3305 57.5799C97.7605 57.1999 96.4154 56.0299 95.5754 54.4199C95.5554 54.6749 95.5405 54.9349 95.5405 55.1999C95.5405 58.9849 97.7304 62.0549 100.435 62.0549C103.14 62.0549 105.33 58.9849 105.33 55.1999C105.33 54.9499 105.315 54.7099 105.3 54.4649C108.055 51.4399 110.635 46.5999 110.71 41.2549C110.74 39.0999 110.235 36.3099 109.935 34.8599C111.165 34.6199 112.145 34.0549 112.7 33.2249C113.01 32.7649 112.885 32.1449 112.43 31.8349L112.425 31.8399ZM100.375 57.7099C101.65 57.6199 103.465 56.4549 105.22 54.5449C104.18 56.4499 100.395 57.7099 100.375 57.7099Z" fill="#EDEDED"></path>
<path id="Vector_21" d="M122.575 66.3649L111.34 64.3799C111.34 64.3799 111.335 64.3799 111.33 64.3799L109.895 64.1949L109.635 64.1349C108.63 63.9099 107.475 62.6799 106.825 61.1449C106.61 60.6399 106.375 60.0199 106.185 59.2699L106.755 58.9849C107.455 58.6349 108.29 58.6449 108.985 59.0149L110.86 60.0149C111.29 60.2449 111.765 60.3549 112.235 60.3549C112.775 60.3549 113.31 60.2099 113.78 59.9149L115 59.1599C115.725 58.7099 116.645 58.6749 117.405 59.0699L119.24 60.0299C119.54 60.1849 119.895 60.1249 120.13 59.8849C120.365 59.6399 120.41 59.2899 120.24 58.9949C119.01 56.8599 116.89 51.8499 116.54 42.3149C116.28 35.2449 112.675 25.8899 107.295 23.0999C105.02 21.9199 102.705 22.0499 100.41 23.4899C98.2601 22.1049 95.8751 22.0299 93.5051 23.2749C88.4551 25.9349 84.4501 33.9649 84.3851 41.5649C84.3751 42.5099 84.4001 43.4649 84.4201 44.4799C84.5351 49.6099 84.6501 54.9149 81.0451 58.5749C80.7901 58.8349 80.7501 59.2099 80.9451 59.5149C81.1401 59.8149 81.4951 59.9349 81.8301 59.8099L84.3201 58.8899C85.1101 58.5999 85.9801 58.7299 86.6451 59.2449L87.2751 59.7349C88.3051 60.5299 89.7501 60.5449 90.8001 59.7799L91.4801 59.2799C92.1951 58.7549 93.1351 58.6599 93.9351 59.0349L94.6501 59.3649C94.4651 60.0699 94.2401 60.6649 94.0351 61.1449C93.3851 62.6799 92.2301 63.9049 91.2301 64.1349L78.5801 66.3699C75.1051 67.1249 72.5801 70.2549 72.5801 73.8199L73.3651 96.2099C73.3651 96.3449 73.4801 96.4499 73.6151 96.4499H127.545C127.68 96.4499 127.79 96.3449 127.795 96.2099L128.58 73.8099C128.58 70.2549 126.055 67.1249 122.57 66.3699L122.575 66.3649ZM94.1501 58.5749C93.1801 58.1249 92.0451 58.2399 91.1851 58.8699L90.5051 59.3699C89.6351 60.0099 88.4351 59.9899 87.5851 59.3349L86.9551 58.8449C86.1501 58.2249 85.1051 58.0649 84.1501 58.4149L81.6601 59.3349C81.4851 59.3999 81.3901 59.2799 81.3651 59.2399C81.3101 59.1549 81.2951 59.0299 81.4001 58.9199C85.1551 55.1099 85.0301 49.4549 84.9201 44.4649C84.9001 43.4549 84.8751 42.5049 84.8851 41.5649C84.9451 34.2599 88.9151 26.2499 93.7401 23.7149C95.9901 22.5299 98.2451 22.6299 100.27 23.9899C100.355 24.0449 100.46 24.0449 100.545 23.9899C102.725 22.5699 104.92 22.4199 107.065 23.5349C112.12 26.1599 115.785 35.3699 116.04 42.3249C116.395 51.9649 118.55 57.0599 119.805 59.2349C119.89 59.3799 119.8 59.4949 119.77 59.5249C119.705 59.5899 119.595 59.6399 119.47 59.5749L117.635 58.6149C116.72 58.1349 115.61 58.1799 114.735 58.7199L113.515 59.4749C112.78 59.9299 111.855 59.9599 111.095 59.5549L109.22 58.5549C108.385 58.1099 107.38 58.0949 106.53 58.5199L106.07 58.7499C105.825 57.6049 105.695 56.1999 105.87 54.4799C105.87 54.4549 105.87 54.4349 105.865 54.4099C107.42 52.6249 108.885 50.2149 109.84 47.2899C110.06 47.6099 110.415 47.8199 110.815 47.8199C111.48 47.8199 112.02 47.2499 112.02 46.5549C112.02 46.2299 111.9 45.9349 111.705 45.7099C112.74 44.6299 113.325 42.5499 113.62 41.1149C113.905 39.7299 113.59 38.9149 113.28 38.4749C112.97 38.0399 112.515 37.7599 111.995 37.6899C111.66 37.6449 111.355 37.7399 111.105 37.9549C111.015 38.0349 110.94 38.1299 110.865 38.2349C110.845 38.0149 110.82 37.7899 110.79 37.5549C110.675 36.5999 110.49 35.6699 110.25 34.7749C110.09 34.8149 109.925 34.8499 109.76 34.8749C110 35.7549 110.18 36.6699 110.295 37.6099C110.4 38.4699 110.45 39.2299 110.455 40.0749C110.455 40.2149 110.57 40.3249 110.705 40.3249C110.845 40.3249 110.955 40.2099 110.955 40.0749C110.955 40.0349 110.955 39.9999 110.955 39.9599C110.955 39.1799 111.125 38.5999 111.435 38.3299C111.575 38.2049 111.745 38.1549 111.93 38.1799C112.31 38.2299 112.645 38.4399 112.875 38.7599C113.13 39.1199 113.385 39.8049 113.135 41.0099C112.95 41.9099 112.365 44.3199 111.3 45.3899C111.155 45.3249 110.995 45.2849 110.825 45.2849C110.67 45.2849 110.52 45.3199 110.385 45.3749C110.515 44.8199 110.625 44.2499 110.71 43.6649C110.73 43.5299 110.635 43.3999 110.5 43.3799C110.365 43.3599 110.235 43.4549 110.215 43.5899C108.945 52.0399 103.005 57.4599 100.325 57.4749H100.31C97.3151 57.4749 92.2601 52.0799 91.1251 43.5949C91.1051 43.4599 90.9751 43.3599 90.8451 43.3799C90.7101 43.3999 90.6101 43.5249 90.6301 43.6599C90.7101 44.2649 90.8101 44.8499 90.9251 45.4199C90.7651 45.3349 90.5801 45.2799 90.3901 45.2799C90.2601 45.2799 90.1351 45.3099 90.0151 45.3499C88.9701 44.2649 88.3951 41.8999 88.2151 41.0049C87.9651 39.7949 88.2151 39.1149 88.4751 38.7549C88.7051 38.4299 89.0401 38.2249 89.4201 38.1749C89.6051 38.1499 89.7751 38.1999 89.9151 38.3249C90.2251 38.5949 90.3951 39.1749 90.3951 39.9549C90.3951 39.9749 90.4001 39.9949 90.4051 40.0099C90.4051 40.0249 90.4051 40.0399 90.4151 40.0499C90.4251 40.0699 90.4351 40.0849 90.4501 40.1049C90.4551 40.1149 90.4601 40.1249 90.4701 40.1299C90.4851 40.1449 90.5001 40.1499 90.5201 40.1649C90.5301 40.1699 90.5401 40.1799 90.5501 40.1849C90.5651 40.1899 90.5851 40.1899 90.6001 40.1949C90.6151 40.1949 90.6301 40.2049 90.6451 40.2049C90.6801 40.2049 90.7101 40.1999 90.7401 40.1849C90.7601 40.1749 90.7751 40.1599 90.7951 40.1499C90.8051 40.1449 90.8151 40.1399 90.8201 40.1349C90.8301 40.1249 90.8401 40.1049 90.8501 40.0899C90.8601 40.0799 90.8701 40.0649 90.8751 40.0549C90.8801 40.0399 90.8801 40.0249 90.8851 40.0149C90.8851 39.9949 90.8951 39.9799 90.8951 39.9599C90.9051 37.8949 91.1601 35.9549 91.6501 34.1949C91.7701 34.2049 91.8851 34.2199 92.0101 34.2199C92.0801 34.2199 92.1501 34.2199 92.2201 34.2199C93.6851 34.2199 95.2251 33.7449 96.4751 32.9049C98.5351 31.5199 99.8801 29.9399 100.41 28.3399C100.935 29.9399 102.285 31.5199 104.345 32.9049C105.595 33.7449 107.135 34.2199 108.6 34.2199C108.67 34.2199 108.74 34.2199 108.81 34.2199C110.285 34.1749 111.51 33.6399 112.08 32.7899C112.155 32.6749 112.125 32.5199 112.01 32.4449C111.895 32.3699 111.74 32.3999 111.665 32.5149C111.185 33.2299 110.11 33.6799 108.795 33.7249C107.37 33.7699 105.85 33.3199 104.62 32.4949C102.065 30.7749 100.66 28.7699 100.66 26.8549C100.66 26.7149 100.55 26.6049 100.41 26.6049C100.27 26.6049 100.16 26.7149 100.16 26.8549C100.16 28.7699 98.7551 30.7749 96.2001 32.4949C94.9751 33.3199 93.4551 33.7699 92.0251 33.7249C90.7101 33.6849 89.6351 33.2299 89.1551 32.5149C89.0751 32.3999 88.9201 32.3699 88.8101 32.4449C88.6951 32.5199 88.6651 32.6749 88.7401 32.7899C89.1951 33.4649 90.0701 33.9399 91.1501 34.1249C90.8001 35.3999 90.5701 36.7699 90.4651 38.2049C90.4001 38.1099 90.3251 38.0199 90.2401 37.9499C89.9901 37.7299 89.6801 37.6399 89.3501 37.6849C88.8301 37.7549 88.3751 38.0349 88.0651 38.4699C87.7551 38.9099 87.4401 39.7249 87.7251 41.1099C88.0151 42.5149 88.5851 44.5199 89.5801 45.6199C89.3401 45.8499 89.1851 46.1799 89.1851 46.5499C89.1851 47.2499 89.7251 47.8149 90.3901 47.8149C90.8001 47.8149 91.1601 47.5999 91.3801 47.2699C92.2351 50.2749 93.5551 52.7399 95.0051 54.5349C95.1751 56.2749 95.0301 57.6899 94.7801 58.8399L94.1601 58.5549L94.1501 58.5749ZM110.115 46.5699C110.115 46.1499 110.43 45.8049 110.82 45.8049C111.21 45.8049 111.525 46.1499 111.525 46.5699C111.525 46.9899 111.21 47.3349 110.82 47.3349C110.43 47.3349 110.115 46.9899 110.115 46.5699ZM91.0901 46.5699C91.0901 46.9899 90.7751 47.3349 90.3851 47.3349C89.9951 47.3349 89.6801 46.9899 89.6801 46.5699C89.6801 46.1499 89.9951 45.8049 90.3851 45.8049C90.7751 45.8049 91.0901 46.1499 91.0901 46.5699ZM94.5001 61.3349C95.0401 60.0649 95.7001 58.0699 95.5401 55.1899C97.1801 57.0049 98.9251 57.9899 100.305 57.9899H100.32C101.595 57.9849 103.495 56.9299 105.335 54.9999C105.225 56.6499 105.385 58.0049 105.64 59.1149C105.64 59.1549 105.64 59.1999 105.66 59.2399C105.66 59.2399 105.665 59.2449 105.67 59.2499C105.87 60.0849 106.125 60.7799 106.36 61.3299C106.93 62.6749 108.055 64.1549 109.32 64.5599C109.17 70.7749 101.655 77.1399 100.46 78.1099C99.2701 77.0849 91.6351 70.2799 91.5851 64.5449C92.8301 64.1199 93.9301 62.6599 94.4901 61.3349H94.5001ZM91.0901 64.6649C91.2401 71.0599 99.9251 78.3249 100.3 78.6349C100.39 78.7099 100.52 78.7099 100.61 78.6349C100.98 78.3449 109.57 71.5999 109.82 64.6849L110.895 64.8249C110.825 72.4649 101.775 80.3249 100.46 81.4249C99.1501 80.2599 89.9851 71.8849 90.0151 64.8499L91.0851 64.6599L91.0901 64.6649ZM127.31 95.9449H73.8651L73.0901 73.8049C73.0901 70.4799 75.4451 67.5599 78.6851 66.8549L89.5251 64.9399C89.5701 72.6849 99.8601 81.5649 100.3 81.9449C100.31 81.9549 100.325 81.9599 100.34 81.9699C100.35 81.9749 100.355 81.9799 100.365 81.9849C100.395 81.9999 100.43 82.0049 100.46 82.0049C100.51 82.0049 100.555 81.9849 100.6 81.9549C100.605 81.9549 100.615 81.9549 100.62 81.9499C101.06 81.5999 111.275 73.3099 111.4 64.8949L122.48 66.8549C125.73 67.5599 128.085 70.4849 128.085 73.7949L127.31 95.9449Z" fill="#07064E"></path>
</g>
<g id="Group_4">
<path id="Vector_22" d="M143.182 21.7746C143.239 19.4999 140.844 17.5941 137.833 17.5179C134.821 17.4416 132.333 19.2238 132.275 21.4985C132.218 23.7732 134.612 25.679 137.624 25.7552C140.636 25.8315 143.124 24.0493 143.182 21.7746Z" fill="#EDEDED"></path>
<path id="Vector_23" d="M135.92 20.6899C140.18 17.4299 143.16 21.1349 143.16 21.1249C143.22 18.8499 140.68 17.5949 137.665 17.5199C134.655 17.4449 132.36 19.2249 132.305 21.4999C132.265 23.1149 133.265 24.5399 135.035 25.2599C133.91 23.6699 134.635 21.5499 135.92 20.6899Z" fill="white"></path>
<path id="Vector_24" d="M132.83 23.8299C132.545 23.2499 132.825 22.5349 133.435 22.3249C136.165 21.3799 138.995 21.3649 141.95 22.3949C142.575 22.6149 142.845 23.3499 142.535 23.9349L142.52 23.9649" fill="#2BF5BA"></path>
<path id="Vector_25" d="M149.89 66.4698H125.17V37.5598C125.17 35.1098 125.63 32.6648 126.665 30.4448C128.715 26.0498 132.41 22.7698 137.53 22.7698C142.16 22.7698 145.81 25.5448 147.94 29.3048C149.27 31.6548 149.89 34.3448 149.89 37.0448V66.4648V66.4698Z" fill="#EDEDED"></path>
<path id="Vector_26" d="M141.95 26.3648C144.74 27.2498 146.79 28.6848 148.39 30.4498C148.095 29.5098 147.69 28.8348 147.115 27.9848C145.17 25.1198 141.82 22.7698 137.59 22.7698C132.915 22.7698 129.74 25.4348 127.535 28.6248C126.705 29.8248 126.005 31.2498 125.845 32.6448C128.285 27.5848 135.865 24.4598 141.95 26.3648Z" fill="white"></path>
<path id="Vector_27" d="M165.19 73.9197C165.28 69.9097 162.045 66.6197 158.035 66.6397L146.875 64.7097C144.76 69.5197 141.24 71.8197 141.24 71.8197L137.565 80.7197L133.87 71.5897C133.87 71.5897 129.89 68.2547 128.59 64.7597L117.935 66.6347C113.165 66.7847 110.37 70.4197 110.575 75.1897L111.305 96.1047L164.48 96.1397L165.195 73.9247L165.19 73.9197Z" fill="white"></path>
<path id="Vector_28" d="M146.87 64.7097C145.295 68.5897 143.255 70.2847 141.38 71.6747C141.02 71.9447 137.56 80.8297 137.56 80.8297C137.56 80.8297 134.17 71.8147 133.865 71.5847C132.09 70.2047 130.285 67.9697 128.585 64.7547C130.905 63.9097 132.335 62.1747 132.25 55.4247C135.455 59.0647 139.175 59.0197 143.455 54.9797C142.865 60.9397 143.545 63.9397 146.865 64.7097H146.87Z" fill="white"></path>
<path id="Vector_29" d="M137.73 62.3098C140.787 62.3098 143.265 59.5183 143.265 56.0748C143.265 52.6313 140.787 49.8398 137.73 49.8398C134.673 49.8398 132.195 52.6313 132.195 56.0748C132.195 59.5183 134.673 62.3098 137.73 62.3098Z" fill="#EBEBEB"></path>
<path id="Vector_30" d="M164.305 96.0899H111.105L110.85 86.8799L164.77 86.9049L164.305 96.0899Z" fill="#2BF5BA"></path>
<path id="Vector_31" d="M147.095 40.2149C147.095 40.2149 148.06 57.0249 137.645 58.0899C132.175 58.6499 127.75 50.3499 127.75 40.7349C127.75 38.5249 128.045 36.4299 128.4 34.4699C128.49 33.9799 128.835 33.1899 128.835 33.1899L130.435 32.4649C131.195 32.2649 131.825 33.7199 132.6 33.5049C133.38 33.2899 134.88 32.3849 137.505 33.8699C138.905 34.6599 141.38 32.1599 141.38 32.1599C141.715 32.8999 142.205 33.6449 143.46 34.4199C144.485 34.8799 145.44 35.0999 146.24 34.7149C146.24 34.7149 146.975 37.9699 147.105 40.2199L147.095 40.2149Z" fill="white"></path>
<path id="Vector_32" d="M147.095 40.2147C146.965 37.9647 146.23 34.7097 146.23 34.7097C145.655 34.9897 144.995 34.9497 144.29 34.7347C147.69 43.7647 142.465 54.9197 137.81 58.0597C148.04 56.8247 147.09 40.2147 147.09 40.2147H147.095Z" fill="#EDEDED"></path>
<path id="Vector_33" d="M146.895 46.6649C148.98 45.2249 149.475 43.8599 149.81 41.7149C150.125 39.6899 149.49 39.0599 148.55 38.9299C147.855 38.8349 147.17 39.2099 147.17 40.6249" fill="white"></path>
<path id="Vector_34" d="M141.235 72.0697C141.155 72.0697 141.075 72.0297 141.025 71.9597C140.95 71.8447 140.98 71.6897 141.095 71.6147C143.66 69.8997 145.725 66.8547 146.585 64.7297C146.575 64.6447 146.6 64.5647 146.66 64.5097C146.72 64.4547 146.8 64.4297 146.88 64.4447L148.33 64.6997C148.465 64.7247 148.555 64.8547 148.535 64.9897C148.51 65.1247 148.38 65.2197 148.245 65.1947L147.03 64.9797C146.105 67.2397 144.025 70.2647 141.38 72.0347C141.335 72.0647 141.29 72.0747 141.24 72.0747L141.235 72.0697Z" fill="#07064E"></path>
<path id="Vector_35" d="M127.895 40.6249C127.895 39.2099 127.21 38.8349 126.515 38.9299C125.575 39.0549 124.94 39.6899 125.255 41.7149C125.59 43.8599 126.08 45.2249 128.17 46.6649" fill="white"></path>
<path id="Vector_36" d="M156.795 96.2348C156.795 96.2348 156.785 96.2348 156.78 96.2348C156.64 96.2298 156.535 96.1098 156.545 95.9698L157.37 80.8648C157.38 80.7298 157.49 80.6198 157.635 80.6298C157.775 80.6348 157.88 80.7548 157.87 80.8948L157.045 95.9998C157.04 96.1348 156.925 96.2348 156.795 96.2348Z" fill="#07064E"></path>
<path id="Vector_37" d="M145.39 35.8999C144.435 35.8999 143.34 35.4999 142.12 34.7049C141.555 34.3349 141.205 33.9549 140.975 33.6199C140.92 33.6599 140.86 33.7049 140.805 33.7499C138.95 35.4999 137.565 34.9149 136.45 34.4499C135.57 34.0799 134.81 33.7599 133.46 34.3049C131.985 34.8999 131.12 34.0699 130.705 33.6699C130.655 33.6249 130.59 33.5599 130.535 33.5149C129.795 33.8899 128.47 34.4299 127.68 33.5699C127.205 33.0599 126.805 32.0299 128.745 29.0349C129.045 28.5699 129.665 28.4399 130.13 28.7399C130.595 29.0399 130.725 29.6599 130.425 30.1249C129.975 30.8199 129.68 31.3849 129.505 31.7949C129.615 31.7399 129.745 31.6799 129.89 31.5999C129.98 31.5499 130.08 31.5149 130.18 31.4999C131.135 31.3149 131.73 31.8899 132.09 32.2299C132.445 32.5699 132.445 32.5649 132.72 32.4549C134.83 31.6049 136.215 32.1849 137.23 32.6099C138.21 33.0199 138.54 33.1599 139.47 32.2699C139.5 32.2399 139.53 32.2149 139.56 32.1899C140.675 31.3549 141.05 31.0699 141.675 31.2649C142.235 31.4399 142.405 31.9399 142.48 32.1549C142.56 32.3849 142.66 32.6749 143.215 33.0399C144.345 33.7749 145.29 34.0599 145.81 33.8299C146.32 33.5999 146.46 32.8599 146.465 32.8499C146.55 32.3049 147.06 31.9299 147.605 32.0149C148.15 32.0999 148.525 32.6099 148.445 33.1549C148.415 33.3399 148.125 34.9849 146.63 35.6549C146.25 35.8249 145.84 35.9099 145.4 35.9099L145.39 35.8999Z" fill="#EDEDED"></path>
<path id="Vector_38" d="M137.54 52.5449C136.07 52.5449 134.6 52.0849 133.345 51.1699C133.235 51.0899 133.21 50.9299 133.29 50.8199C133.37 50.7099 133.53 50.6849 133.64 50.7649C135.97 52.4699 139.11 52.4699 141.45 50.7649C141.56 50.6849 141.72 50.7099 141.8 50.8199C141.88 50.9299 141.855 51.0899 141.745 51.1699C140.485 52.0849 139.015 52.5449 137.54 52.5449Z" fill="#07064E"></path>
<path id="Vector_39" d="M129.57 38.1048C129.51 38.1048 129.445 38.0848 129.4 38.0398C129.3 37.9448 129.295 37.7898 129.39 37.6848C130.47 36.5248 132.255 36.4648 135.755 37.4748C135.885 37.5148 135.965 37.6498 135.925 37.7848C135.885 37.9198 135.75 37.9948 135.615 37.9548C132.37 37.0198 130.67 37.0398 129.75 38.0248C129.7 38.0798 129.635 38.1048 129.565 38.1048H129.57Z" fill="#07064E"></path>
<path id="Vector_40" d="M145.55 38.1049C145.485 38.1049 145.42 38.0799 145.37 38.0249C144.435 37.0399 142.705 37.0149 139.395 37.9499C139.265 37.9899 139.125 37.9099 139.085 37.7799C139.045 37.6499 139.125 37.5099 139.26 37.4699C142.82 36.4649 144.635 36.5199 145.73 37.6799C145.825 37.7799 145.82 37.9399 145.72 38.0349C145.67 38.0799 145.61 38.1049 145.55 38.1049Z" fill="#07064E"></path>
<path id="Vector_41" d="M137.71 47.5998C137.24 47.5998 136.81 47.3798 136.53 46.9898C136.21 46.5448 136.165 45.9898 136.4 45.4948C137.15 43.9298 137.525 42.3398 137.525 40.7698C137.525 40.6298 137.635 40.5198 137.775 40.5198C137.915 40.5198 138.025 40.6298 138.025 40.7698C138.025 42.4148 137.63 44.0798 136.85 45.7148C136.695 46.0398 136.725 46.4098 136.935 46.7048C137.145 46.9948 137.475 47.1448 137.83 47.0998C137.965 47.0848 138.09 47.1798 138.11 47.3198C138.125 47.4548 138.03 47.5798 137.89 47.5998C137.83 47.6048 137.77 47.6098 137.705 47.6098L137.71 47.5998Z" fill="#07064E"></path>
<g id="Group_5">
<g id="Group_6">
<path id="Vector_42" d="M145.549 39.4648V41.0898C145.549 43.0798 144.124 44.6948 142.369 44.6948C140.614 44.6948 139.189 43.0798 139.189 41.0898V39.4648H145.549Z" fill="#EBEBEB"></path>
<path id="Vector_43" d="M142.369 44.9497C140.479 44.9497 138.939 43.2197 138.939 41.0947V39.4697H139.439V41.0947C139.439 42.9447 140.754 44.4497 142.369 44.4497C143.984 44.4497 145.299 42.9447 145.299 41.0947V39.4697H145.799V41.0947C145.799 43.2197 144.259 44.9497 142.369 44.9497Z" fill="#07064E"></path>
</g>
<g id="Group_7">
<path id="Vector_44" d="M135.945 39.4648V41.0898C135.945 43.0798 134.52 44.6948 132.765 44.6948C131.01 44.6948 129.585 43.0798 129.585 41.0898V39.4648H135.945Z" fill="#EBEBEB"></path>
<path id="Vector_45" d="M132.765 44.9497C130.875 44.9497 129.335 43.2197 129.335 41.0947V39.4697H129.835V41.0947C129.835 42.9447 131.15 44.4497 132.765 44.4497C134.38 44.4497 135.695 42.9447 135.695 41.0947V39.4697H136.195V41.0947C136.195 43.2197 134.655 44.9497 132.765 44.9497Z" fill="#07064E"></path>
</g>
<path id="Vector_46" d="M147.17 39.7898H128.05C127.91 39.7898 127.8 39.6798 127.8 39.5398C127.8 39.3998 127.91 39.2898 128.05 39.2898H147.17C147.31 39.2898 147.42 39.3998 147.42 39.5398C147.42 39.6798 147.31 39.7898 147.17 39.7898Z" fill="#07064E"></path>
</g>
<g id="Group_8">
<path id="Vector_47" d="M134.33 41.8998C134.665 41.5548 134.87 41.0698 134.87 40.5398C134.87 40.3998 134.76 40.2898 134.62 40.2898C134.48 40.2898 134.37 40.3998 134.37 40.5398C134.37 41.3148 133.795 41.9448 133.09 41.9448C132.385 41.9448 131.81 41.3148 131.81 40.5398C131.81 40.3998 131.7 40.2898 131.56 40.2898C131.42 40.2898 131.31 40.3998 131.31 40.5398C131.31 41.0748 131.52 41.5548 131.85 41.8998L131.235 42.5148C131.135 42.6148 131.135 42.7698 131.235 42.8698C131.285 42.9198 131.35 42.9448 131.41 42.9448C131.47 42.9448 131.54 42.9198 131.585 42.8698L132.245 42.2098C132.425 42.3148 132.625 42.3848 132.835 42.4198V43.2798C132.835 43.4198 132.945 43.5298 133.085 43.5298C133.225 43.5298 133.335 43.4198 133.335 43.2798V42.4198C133.545 42.3898 133.745 42.3148 133.925 42.2098L134.585 42.8698C134.635 42.9198 134.7 42.9448 134.76 42.9448C134.82 42.9448 134.89 42.9198 134.935 42.8698C135.035 42.7698 135.035 42.6148 134.935 42.5148L134.32 41.8998H134.33Z" fill="#07064E"></path>
<path id="Vector_48" d="M144.015 42.5149L143.4 41.8999C143.735 41.5549 143.94 41.0699 143.94 40.5349C143.94 40.3949 143.83 40.2849 143.69 40.2849C143.55 40.2849 143.44 40.3949 143.44 40.5349C143.44 41.3099 142.865 41.9399 142.16 41.9399C141.455 41.9399 140.88 41.3099 140.88 40.5349C140.88 40.3949 140.77 40.2849 140.63 40.2849C140.49 40.2849 140.38 40.3949 140.38 40.5349C140.38 41.0699 140.59 41.5499 140.92 41.8949L140.305 42.5099C140.205 42.6099 140.205 42.7649 140.305 42.8649C140.355 42.9149 140.42 42.9399 140.48 42.9399C140.54 42.9399 140.61 42.9149 140.655 42.8649L141.315 42.2049C141.495 42.3099 141.695 42.3799 141.905 42.4149V43.2749C141.905 43.4149 142.015 43.5249 142.155 43.5249C142.295 43.5249 142.405 43.4149 142.405 43.2749V42.4149C142.615 42.3849 142.815 42.3099 142.995 42.2049L143.655 42.8649C143.705 42.9149 143.77 42.9399 143.83 42.9399C143.89 42.9399 143.96 42.9149 144.005 42.8649C144.105 42.7649 144.105 42.6099 144.005 42.5099L144.015 42.5149Z" fill="#07064E"></path>
</g>
<path id="Vector_49" d="M159.405 66.6548L150.14 65.0148C150.14 64.3848 150.14 62.9198 150.15 60.9648C150.17 53.1398 150.2 38.5748 150.165 36.7348C150.05 30.9498 147.095 26.0798 142.84 23.8398C142.875 23.7248 142.9 23.6098 142.905 23.4898C143.22 22.9698 143.42 22.3948 143.435 21.7798C143.495 19.3698 140.985 17.3448 137.84 17.2648C134.695 17.1948 132.085 19.0798 132.025 21.4898C132.01 22.1098 132.175 22.7098 132.48 23.2648C132.47 23.4098 132.48 23.5498 132.52 23.6898C128.11 25.8598 125.03 30.8148 124.925 36.7298C124.905 37.8098 124.84 46.4198 124.78 54.0198C124.74 59.1948 124.705 63.8348 124.69 65.1148L116.005 66.6498C112.575 67.3948 110.085 70.4848 110.085 73.9998L110.86 96.0898C110.86 96.2248 110.975 96.3298 111.11 96.3298H164.32C164.455 96.3298 164.565 96.2248 164.57 96.0898L165.345 73.9898C165.345 70.4798 162.855 67.3898 159.415 66.6448L159.405 66.6548ZM132.39 55.9848C133.895 57.4798 135.655 58.3298 137.53 58.3298C139.59 58.3298 141.5 57.2798 143.085 55.4998C142.825 58.7598 143.275 60.6598 143.71 61.6948C144.325 63.1448 145.47 64.3848 146.54 64.8248C145.66 66.9498 143.62 69.9198 141.095 71.6098C141.09 71.6098 141.085 71.6198 141.08 71.6248C141.065 71.6348 141.055 71.6448 141.045 71.6598C141.035 71.6748 141.025 71.6898 141.015 71.7048C141.015 71.7098 141.005 71.7148 141.005 71.7248L137.54 80.2298L134.125 71.5198C134.125 71.5198 134.115 71.5098 134.115 71.4998C134.11 71.4848 134.1 71.4698 134.09 71.4598C134.08 71.4448 134.07 71.4348 134.055 71.4248C134.05 71.4248 134.045 71.4148 134.04 71.4098C131.645 69.6848 129.76 66.9098 128.905 64.8498C130.11 64.4048 131.17 62.9898 131.715 61.7048C132.16 60.6548 132.625 59.0648 132.395 55.9898L132.39 55.9848ZM144.17 61.4998C143.805 60.6448 143.255 58.6548 143.635 54.9398C143.635 54.9048 143.635 54.8748 143.625 54.8448C145.17 52.8448 146.355 50.1148 146.965 46.9598L147.965 46.0998C148.34 45.7798 148.615 45.4898 148.835 45.1898C149.225 44.6548 149.485 44.0998 149.675 43.4798C149.675 48.9798 149.655 56.4748 149.645 60.9698C149.645 62.8448 149.64 64.2598 149.635 64.9298L148.315 64.6948L147.035 64.4698C147.035 64.4698 147.03 64.4698 147.025 64.4698C146.01 64.2448 144.78 62.9698 144.16 61.5048L144.17 61.4998ZM147.42 40.6248C147.42 40.0148 147.555 39.5748 147.815 39.3498C147.955 39.2248 148.135 39.1648 148.35 39.1648C148.405 39.1648 148.46 39.1648 148.515 39.1748C148.9 39.2248 149.175 39.3698 149.35 39.6048C149.64 39.9948 149.71 40.6898 149.56 41.6698C149.355 42.9898 149.095 43.9848 148.435 44.8898C148.24 45.1598 147.985 45.4198 147.645 45.7198L147.105 46.1798C147.32 44.8398 147.435 43.4298 147.435 41.9798L147.42 40.6198V40.6248ZM142.27 23.5598C140.81 22.8898 139.22 22.5198 137.54 22.5198C135.99 22.5198 134.515 22.8348 133.15 23.4048C133.09 23.3248 133.045 23.2348 132.995 23.1498C133.005 23.1048 133.015 23.0598 133.035 23.0198C133.125 22.7998 133.3 22.6348 133.52 22.5548C136.225 21.6198 139.025 21.6398 141.84 22.6148C142.07 22.6948 142.255 22.8748 142.345 23.1048C142.375 23.1898 142.39 23.2748 142.4 23.3598C142.355 23.4248 142.32 23.4898 142.27 23.5548V23.5598ZM137.645 17.7648C137.705 17.7648 137.765 17.7648 137.825 17.7648C140.695 17.8398 142.985 19.6348 142.93 21.7648C142.92 22.1098 142.845 22.4398 142.72 22.7498C142.56 22.4648 142.31 22.2448 142 22.1398C139.075 21.1248 136.165 21.1048 133.35 22.0798C133.09 22.1698 132.865 22.3448 132.705 22.5698C132.58 22.2248 132.51 21.8648 132.52 21.4998C132.575 19.4098 134.855 17.7598 137.645 17.7598V17.7648ZM125.42 36.7448C125.525 30.9548 128.565 26.1048 132.9 24.0598C132.915 24.0598 132.925 24.0598 132.94 24.0498C132.95 24.0498 132.955 24.0398 132.96 24.0348C134.37 23.3798 135.915 23.0198 137.54 23.0198C139.27 23.0198 140.91 23.4298 142.39 24.1698C142.39 24.1698 142.395 24.1748 142.4 24.1798C142.405 24.1848 142.41 24.1798 142.41 24.1798C146.61 26.2898 149.545 31.0598 149.66 36.7448C149.665 37.1048 149.67 37.9898 149.675 39.2248C149.415 38.9248 149.06 38.7448 148.58 38.6798C148.15 38.6198 147.765 38.7248 147.48 38.9748C147.425 39.0198 147.385 39.0798 147.34 39.1348C147.26 38.1548 147.115 37.2898 146.89 36.5348C146.85 36.4048 146.71 36.3248 146.58 36.3648C146.45 36.4048 146.37 36.5448 146.41 36.6748C146.715 37.7248 146.88 38.9898 146.91 40.5398C146.91 40.5448 146.91 40.5498 146.91 40.5548C146.91 40.5798 146.91 40.5998 146.91 40.6248L146.925 41.9848C146.925 50.7198 142.705 57.8298 137.52 57.8298C132.9 57.8298 128.995 52.2648 128.24 44.5948C128.225 44.4598 128.1 44.3598 127.965 44.3698C127.825 44.3848 127.725 44.5048 127.74 44.6448C127.79 45.1748 127.86 45.6898 127.94 46.1998C126.27 44.9348 125.805 43.6948 125.49 41.6748C125.335 40.6948 125.405 39.9998 125.7 39.6098C125.88 39.3698 126.15 39.2298 126.535 39.1798C126.82 39.1398 127.06 39.1998 127.24 39.3548C127.495 39.5798 127.635 40.0198 127.635 40.6298C127.635 40.6498 127.64 40.6698 127.645 40.6848C127.625 41.1448 127.61 41.5848 127.61 41.9898C127.61 42.1298 127.72 42.2398 127.86 42.2398C128 42.2398 128.11 42.1298 128.11 41.9898C128.11 39.4248 128.6 35.6698 129.06 33.2598C129.42 33.1998 129.875 33.0198 130.44 32.7198C130.73 32.6798 130.915 32.8448 131.22 33.1298C131.615 33.5048 132.155 34.0248 133.18 33.6098C134.815 32.9548 135.79 33.3648 136.74 33.7598C137.805 34.2048 138.81 34.6298 140.31 33.1848C140.76 32.8448 141.105 32.5848 141.275 32.4948C141.28 32.5148 141.29 32.5348 141.295 32.5548C141.405 32.8798 141.61 33.4848 142.53 34.0848C143.625 34.7998 144.58 35.1548 145.385 35.1548C145.72 35.1548 146.035 35.0898 146.315 34.9648C147.465 34.4498 147.685 33.0948 147.695 33.0348C147.715 32.8998 147.62 32.7698 147.485 32.7498C147.35 32.7298 147.22 32.8248 147.2 32.9598C147.2 32.9698 147.015 34.1048 146.11 34.5098C145.32 34.8648 144.205 34.5798 142.8 33.6648C142.025 33.1598 141.86 32.6798 141.765 32.3948C141.705 32.2198 141.645 32.0398 141.45 31.9798C141.195 31.8998 140.99 32.0548 139.985 32.8098C138.7 34.0448 137.96 33.7348 136.935 33.2998C135.995 32.9048 134.82 32.4148 132.995 33.1448C132.27 33.4348 131.96 33.1448 131.565 32.7648C131.25 32.4648 130.89 32.1198 130.315 32.2298C130.29 32.2298 130.265 32.2448 130.245 32.2548C128.9 32.9798 128.63 32.7498 128.6 32.7198C128.42 32.5248 128.595 31.5648 129.795 29.7148C129.87 29.5998 129.835 29.4448 129.72 29.3698C129.605 29.2948 129.45 29.3298 129.375 29.4448C128.53 30.7448 127.65 32.4298 128.235 33.0598C128.32 33.1548 128.43 33.2198 128.56 33.2498C128.25 34.8898 127.935 37.1148 127.755 39.1798C127.7 39.1048 127.645 39.0298 127.575 38.9698C127.29 38.7198 126.91 38.6198 126.475 38.6748C126 38.7398 125.65 38.9198 125.39 39.2098C125.4 37.9248 125.41 37.0398 125.415 36.7398L125.42 36.7448ZM125.275 54.0298C125.305 50.4048 125.335 46.5448 125.36 43.3898C125.77 44.7598 126.485 45.8048 128.025 46.8698C128.04 46.8798 128.055 46.8798 128.07 46.8848C128.73 50.4048 130.075 53.3648 131.835 55.3948C132.17 58.7798 131.7 60.4398 131.245 61.5048C130.605 63.0198 129.47 64.2248 128.48 64.4498L125.185 65.0348C125.2 63.6448 125.235 59.0998 125.275 54.0348V54.0298ZM164.07 95.8398H111.34L110.575 73.9998C110.575 70.7248 112.9 67.8398 116.095 67.1448L128.4 64.9698C129.265 67.0848 131.205 69.9598 133.675 71.7598L137.295 80.9948C137.335 81.0898 137.425 81.1548 137.525 81.1548C137.625 81.1548 137.72 81.0948 137.755 80.9998L141.43 71.9848C144.04 70.2098 146.095 67.2198 147.015 64.9748L148.23 65.1898L159.305 67.1498C162.51 67.8448 164.83 70.7248 164.83 73.9948L164.065 95.8448L164.07 95.8398Z" fill="#07064E"></path>
<path id="Vector_50" d="M119.13 96.2398C118.995 96.2398 118.885 96.1348 118.88 95.9998L118.2 80.8848C118.195 80.7448 118.3 80.6298 118.44 80.6248C118.58 80.5998 118.695 80.7248 118.7 80.8648L119.38 95.9798C119.385 96.1198 119.28 96.2348 119.14 96.2398H119.13Z" fill="#07064E"></path>
</g>
<g id="Group_9">
<path id="Vector_51" d="M90.3191 72.905C90.4142 68.695 87.0142 65.235 82.7992 65.26L71.3891 63.155C63.7041 73.9 52.8092 67.67 52.0742 63.22L40.6792 65.255C35.6692 65.415 32.7342 69.23 32.9442 74.24L33.7092 96.205L89.5591 96.24L90.3091 72.91L90.3191 72.905Z" fill="white"></path>
<path id="Vector_52" d="M71.8948 39.7801C72.0598 48.9051 67.2398 56.3101 61.4998 56.3101C55.7598 56.3101 51.1298 49.6551 51.1348 40.9951C51.1348 38.4851 51.4348 31.3251 51.4348 31.3251C51.6248 32.5601 51.8848 33.0151 52.3848 33.1751C56.1248 29.3201 55.5048 26.6101 56.8148 24.2601C57.3648 23.2751 65.6648 27.0451 65.6648 27.0451C68.1398 27.5701 69.4898 25.5401 69.7748 25.9551C69.7748 25.9551 71.6948 28.8351 71.8898 39.7901L71.8948 39.7801Z" fill="white"></path>
<path id="Vector_53" d="M51.1493 37.9301C51.1493 36.4451 50.4343 36.0501 49.6993 36.1501C48.7143 36.2851 47.4243 37.1451 48.3743 39.0751C49.6193 41.5951 49.0143 44.4001 51.4343 44.2751" fill="white"></path>
<path id="Vector_54" d="M89.7242 83.76H32.9492V86.67H89.7242V83.76Z" fill="#2BF5BA"></path>
<path id="Vector_55" d="M71.079 63.23C65.024 74.87 57.979 74.82 51.874 63.275C54.309 62.385 55.809 60.565 55.724 53.48C59.089 57.3 62.999 57.255 67.494 53.01C66.874 59.27 67.589 62.42 71.079 63.23Z" fill="white"></path>
<path id="Vector_56" d="M42.4198 96.405C42.2898 96.405 42.1798 96.3 42.1698 96.17L41.1999 78.49C41.1899 78.35 41.2999 78.235 41.4349 78.225C41.5899 78.21 41.6899 78.325 41.6999 78.46L42.6698 96.14C42.6798 96.28 42.5699 96.395 42.4349 96.405C42.4349 96.405 42.4248 96.405 42.4198 96.405Z" fill="#07064E"></path>
<path id="Vector_57" d="M80.6794 96.405C80.6794 96.405 80.6694 96.405 80.6644 96.405C80.5244 96.4 80.4194 96.28 80.4294 96.14L81.3994 78.46C81.4094 78.32 81.5244 78.21 81.6644 78.225C81.8044 78.23 81.9094 78.35 81.8994 78.49L80.9294 96.17C80.9244 96.305 80.8094 96.405 80.6794 96.405Z" fill="#07064E"></path>
<path id="Vector_58" d="M52.3245 33.435C52.2795 33.435 52.2395 33.43 52.2095 33.42C51.7945 33.31 51.2795 32.62 50.3195 28.36C50.2895 28.225 50.3745 28.09 50.5095 28.06C50.6495 28.03 50.7795 28.115 50.8095 28.25C51.7445 32.4 52.2195 32.885 52.3395 32.935C54.7495 30.265 55.3045 27.85 55.6695 26.25C55.9295 25.115 56.1145 24.3 56.8145 23.96C57.7395 23.51 59.3995 24.015 63.6345 26.035C67.1195 27.695 68.2045 26.625 68.8495 25.985C69.0945 25.745 69.3045 25.535 69.5895 25.57C69.8595 25.605 70.0495 25.865 70.1845 26.085C70.2545 26.205 70.2195 26.355 70.0995 26.43C69.9845 26.5 69.8295 26.465 69.7545 26.345C69.5995 26.09 69.5245 26.065 69.5245 26.065C69.4695 26.07 69.3145 26.225 69.1995 26.34C68.5045 27.025 67.2145 28.3 63.4195 26.485C59.4495 24.59 57.7795 24.05 57.0345 24.41C56.5545 24.645 56.3945 25.325 56.1595 26.36C55.7795 28.01 55.2095 30.505 52.6745 33.26C52.5545 33.39 52.4245 33.425 52.3245 33.425V33.435Z" fill="#EDEDED"></path>
<path id="Vector_59" d="M71.8943 40.3599C71.7543 40.3599 71.6443 40.2499 71.6443 40.1099C71.6443 40.0049 71.6243 29.4299 69.7643 26.3499C69.6093 26.0949 69.5343 26.0699 69.5343 26.0699C69.4793 26.0749 69.3243 26.2299 69.2093 26.3449C68.5143 27.0299 67.2243 28.3049 63.4293 26.4899C59.4593 24.5949 57.7893 24.0549 57.0443 24.4149C56.5643 24.6499 56.4043 25.3299 56.1693 26.3649C55.7893 28.0149 55.2193 30.5099 52.6843 33.2649C52.5093 33.4549 52.3193 33.4399 52.2193 33.4149C51.8043 33.3049 51.2893 32.6149 50.3293 28.3549C50.2993 28.2199 50.3843 28.0849 50.5193 28.0549C50.6593 28.0249 50.7893 28.1099 50.8193 28.2449C51.7543 32.3949 52.2293 32.8799 52.3493 32.9299C54.7593 30.2599 55.3143 27.8449 55.6793 26.2449C55.9393 25.1099 56.1243 24.2949 56.8243 23.9549C57.7493 23.5049 59.4093 24.0099 63.6443 26.0299C67.1293 27.6899 68.2143 26.6199 68.8593 25.9799C69.1043 25.7399 69.3143 25.5299 69.5993 25.5649C69.8693 25.5999 70.0593 25.8599 70.1943 26.0799C72.1243 29.2799 72.1493 39.6599 72.1493 40.0999C72.1493 40.2399 72.0393 40.3499 71.8993 40.3499L71.8943 40.3599Z" fill="#07064E"></path>
<path id="Vector_60" d="M69.2447 21.3899C58.8947 15.7499 50.2896 19.6099 48.3896 27.7899C52.3546 21.5599 61.5696 18.9249 67.3246 22.2099C71.0396 24.0599 70.7747 22.5599 72.4947 23.7049C73.7897 24.7399 73.6346 24.6049 74.8246 27.0549C74.1996 23.1299 72.3247 21.0149 69.2447 21.3899Z" fill="white"></path>
<path id="Vector_61" d="M74.4546 36.6949C76.1346 26.8699 74.3046 20.7749 69.2496 21.3899C55.6746 13.9899 45.0896 22.9249 48.7196 36.5349L51.2446 36.5499C51.2796 35.5549 51.3146 34.5599 51.3446 33.7099C51.5596 33.9599 51.7796 34.0849 52.0246 34.1499C52.1296 34.1799 52.2296 34.1899 52.3346 34.1899C52.6696 34.1899 52.9896 34.0449 53.2346 33.7799C55.9046 30.8749 56.5046 28.2649 56.8996 26.5399C57.0246 25.9949 57.2146 25.1749 57.3696 25.0999C58.0546 24.7649 61.8596 26.5799 63.1096 27.1749C64.8996 28.0299 66.2196 28.2649 67.2396 28.1549C70.7596 37.4699 70.4796 52.6149 61.7396 56.3099C62.7846 56.2749 63.7946 55.9899 64.7496 55.4999C63.8696 56.0449 62.9296 56.3149 61.5096 56.3149C59.1296 56.3149 56.8496 54.9999 55.8746 53.4849C55.8546 53.7099 55.8446 53.9349 55.8446 54.1649C55.8446 57.7849 58.3746 60.7149 61.4896 60.7149C64.6046 60.7149 67.1346 57.7799 67.1346 54.1649C67.1346 53.7899 67.3046 53.7699 67.3196 53.5349C70.1446 50.5699 72.0046 45.5249 71.9046 39.7899C71.8846 38.6599 71.8446 37.6199 71.7896 36.6549C71.7896 36.6649 71.7896 36.6749 71.7896 36.6899L74.4596 36.7049L74.4546 36.6949Z" fill="#EDEDED"></path>
<path id="Vector_62" d="M71.9539 37.9699C71.9539 36.4849 72.6689 36.0899 73.4039 36.1899C74.3889 36.3249 75.679 37.1849 74.729 39.1149C73.484 41.6349 74.0889 44.4399 71.6689 44.3149" fill="white"></path>
<path id="Vector_63" d="M84.2445 65.285L72.6045 63.225L71.2645 62.99C71.2645 62.99 71.2595 62.99 71.2545 62.99C70.1895 62.755 68.8895 61.41 68.2345 59.87C67.7845 58.805 67.3145 57.115 67.6845 53.435C69.5895 51.28 71.0295 48.16 71.7095 44.535C73.3595 44.535 73.6695 43.21 74.0295 41.685C74.2145 40.905 74.4195 40.025 74.8295 39.195C75.3595 38.12 75.2045 37.395 74.9795 36.98C74.9095 36.85 74.8245 36.73 74.7245 36.625C75.8795 29.765 75.3245 24.74 73.1545 22.465C72.1595 21.42 70.8595 20.975 69.2995 21.15C62.9095 17.69 56.5645 17.615 52.3145 20.955C48.1995 24.19 46.7595 29.975 48.4345 36.455C48.2545 36.605 48.1095 36.785 47.9995 36.985C47.7745 37.405 47.6195 38.13 48.1495 39.2C48.5595 40.035 48.7695 40.915 48.9495 41.695C49.3095 43.22 49.6195 44.545 51.2745 44.545C51.2795 44.545 51.2845 44.545 51.2895 44.545C51.9695 48.155 53.4045 51.255 55.2895 53.4C55.6545 56.995 55.1545 58.755 54.6745 59.88C53.9995 61.475 52.7995 62.745 51.7595 62.985L38.6495 65.305C35.0495 66.085 32.4395 69.325 32.4395 73.015L33.2545 96.22C33.2545 96.355 33.3695 96.46 33.5045 96.46C33.5045 96.46 33.5095 96.46 33.5145 96.46C33.6545 96.46 33.7595 96.34 33.7545 96.2L32.9395 73.005C32.9395 69.555 35.3845 66.525 38.7445 65.795L51.6795 63.51C51.8395 63.88 52.0645 64.275 52.3595 64.7C54.4045 67.64 57.6645 69.35 61.2995 69.385C64.9345 69.43 68.3645 67.7 70.4745 64.785C70.7995 64.335 71.0495 63.91 71.2195 63.515L72.5045 63.74L84.1345 65.795C87.5045 66.525 89.9495 69.56 89.9495 73L89.1345 96.205C89.1345 96.345 89.2395 96.46 89.3745 96.465C89.3745 96.465 89.3795 96.465 89.3845 96.465C89.5195 96.465 89.6295 96.36 89.6345 96.225L90.4495 73.015C90.4495 69.335 87.8395 66.095 84.2295 65.315L84.2445 65.285ZM74.3745 38.96C73.9395 39.845 73.7245 40.755 73.5345 41.56C73.1695 43.115 72.8995 43.96 71.7945 44.015C71.9995 42.775 72.1145 41.48 72.1345 40.145C72.1345 40.135 72.1395 40.12 72.1395 40.11C72.1395 40.075 72.1395 39.985 72.1395 39.845C72.1395 39.825 72.1395 39.8 72.1395 39.78C72.1395 39.78 72.1395 39.775 72.1395 39.77C72.1395 39.36 72.1245 38.62 72.0895 37.675C72.1245 37.165 72.2595 36.785 72.4945 36.58C72.6845 36.415 72.9395 36.355 73.2445 36.395C73.6945 36.455 74.2695 36.7 74.5345 37.2C74.7795 37.66 74.7245 38.25 74.3745 38.96ZM51.3845 41.035C51.3795 40.895 51.2745 40.79 51.1245 40.795C50.9845 40.8 50.8795 40.92 50.8895 41.055C50.9395 42.07 51.0495 43.055 51.2045 44.01C50.0945 43.97 49.8095 43.12 49.4445 41.555C49.2545 40.75 49.0395 39.84 48.6045 38.955C48.2545 38.245 48.1995 37.655 48.4445 37.195C48.7095 36.695 49.2845 36.45 49.7345 36.39C50.0395 36.35 50.2945 36.41 50.4845 36.575C50.7595 36.815 50.9045 37.28 50.9045 37.92C50.9045 38.06 51.0145 38.17 51.1545 38.17C51.2945 38.17 51.4045 38.06 51.4045 37.92C51.4045 37.12 51.2045 36.54 50.8145 36.195C50.5145 35.935 50.1195 35.83 49.6695 35.89C49.3845 35.93 49.1195 36.01 48.8845 36.13C47.3245 29.92 48.7095 24.4 52.6295 21.32C56.7295 18.095 62.8995 18.2 69.1345 21.6C69.1795 21.625 69.2345 21.635 69.2845 21.63C70.7195 21.455 71.8995 21.845 72.7995 22.785C74.8245 24.91 75.3445 29.68 74.2795 36.23C73.9995 36.06 73.6745 35.94 73.3195 35.89C72.8695 35.83 72.4745 35.935 72.1745 36.195C72.1245 36.24 72.0895 36.295 72.0445 36.35C71.8695 32.92 71.4095 28.09 70.1995 26.08C70.0645 25.86 69.8745 25.6 69.6045 25.565C69.3195 25.53 69.1095 25.74 68.8645 25.98C68.2145 26.62 67.1345 27.695 63.6495 26.03C59.4145 24.01 57.7595 23.51 56.8295 23.955C56.1295 24.29 55.9445 25.11 55.6845 26.245C55.3195 27.845 54.7645 30.26 52.3545 32.93C52.2295 32.88 51.7545 32.395 50.8245 28.245C50.7945 28.11 50.6645 28.025 50.5245 28.055C50.3895 28.085 50.3045 28.22 50.3345 28.355C51.2945 32.615 51.8095 33.305 52.2245 33.415C52.3195 33.44 52.5095 33.455 52.6895 33.265C55.2245 30.505 55.7945 28.015 56.1745 26.365C56.4095 25.33 56.5695 24.65 57.0495 24.415C57.7945 24.055 59.4645 24.595 63.4345 26.49C67.2345 28.3 68.5245 27.025 69.2145 26.345C69.3295 26.23 69.4845 26.075 69.5395 26.07C69.5395 26.07 69.6145 26.09 69.7695 26.35C71.0795 28.525 71.4795 34.415 71.5995 37.74C71.5995 37.805 71.5845 37.86 71.5845 37.93C71.5845 37.965 71.5945 38 71.6095 38.03C71.6395 38.895 71.6495 39.55 71.6495 39.875C71.6145 48.805 67.0795 56.055 61.5045 56.055C56.2395 56.055 51.7945 49.455 51.3895 41.03L51.3845 41.035ZM70.0795 64.465C68.0845 67.22 64.8495 68.86 61.4145 68.86C61.3795 68.86 61.3445 68.86 61.3145 68.86C57.8445 68.825 54.7345 67.2 52.7795 64.39C52.5245 64.02 52.3345 63.68 52.1895 63.36C53.4545 62.895 54.5645 61.415 55.1395 60.06C55.6095 58.95 56.1045 57.26 55.8495 53.98C57.4945 55.615 59.4345 56.565 61.4945 56.565C63.5545 56.565 65.4895 55.63 67.1245 54.015C66.9145 56.635 67.1145 58.53 67.7645 60.065C68.4095 61.59 69.6145 62.89 70.7395 63.345C70.5845 63.69 70.3645 64.07 70.0745 64.47L70.0795 64.465Z" fill="#07064E"></path>
<g id="Vector_64">
<path d="M64.024 48.625C63.214 49.48 62.269 49.935 61.284 49.935C60.294 49.935 59.349 49.48 58.544 48.63C58.449 48.53 58.289 48.525 58.189 48.62C58.089 48.715 58.084 48.875 58.179 48.975C59.079 49.93 60.149 50.44 61.279 50.44C62.404 50.44 63.479 49.935 64.384 48.975C64.479 48.875 64.474 48.715 64.374 48.62C64.274 48.525 64.114 48.53 64.019 48.63L64.024 48.625Z" fill="#07064E"></path>
<path d="M62.584 52.21L59.984 52.22C59.844 52.22 59.734 52.335 59.734 52.47C59.734 52.605 59.844 52.72 59.984 52.72L62.584 52.71C62.724 52.71 62.834 52.595 62.834 52.46C62.834 52.325 62.724 52.21 62.584 52.21Z" fill="#07064E"></path>
<path d="M58.214 37.59C58.074 37.59 57.964 37.7 57.964 37.84C57.964 38.66 57.354 39.325 56.604 39.325C55.854 39.325 55.244 38.66 55.244 37.84C55.244 37.7 55.134 37.59 54.994 37.59C54.854 37.59 54.744 37.7 54.744 37.84C54.744 38.935 55.579 39.825 56.604 39.825C57.629 39.825 58.464 38.935 58.464 37.84C58.464 37.7 58.354 37.59 58.214 37.59Z" fill="#07064E"></path>
<path d="M67.739 37.59C67.599 37.59 67.489 37.7 67.489 37.84C67.489 38.66 66.879 39.325 66.129 39.325C65.379 39.325 64.769 38.66 64.769 37.84C64.769 37.7 64.659 37.59 64.519 37.59C64.379 37.59 64.269 37.7 64.269 37.84C64.269 38.935 65.104 39.825 66.129 39.825C67.154 39.825 67.989 38.935 67.989 37.84C67.989 37.7 67.879 37.59 67.739 37.59Z" fill="#07064E"></path>
<path d="M60.234 44.765C60.494 44.98 60.874 45.095 61.249 45.095C61.554 45.095 61.854 45.0201 62.084 44.865C62.199 44.79 62.229 44.635 62.154 44.52C62.074 44.405 61.919 44.375 61.809 44.45C61.514 44.645 60.889 44.66 60.554 44.38C60.324 44.19 60.294 43.9 60.444 43.54C61.209 42.23 61.734 40.815 61.994 39.32L62.199 38.165C62.224 38.03 62.134 37.9 61.994 37.875C61.859 37.85 61.729 37.94 61.704 38.08L61.499 39.235C61.249 40.67 60.744 42.03 59.994 43.315C59.654 44.12 59.994 44.565 60.234 44.765Z" fill="#07064E"></path>
<path d="M58.314 34.635C58.619 34.665 58.934 34.7 59.259 34.73C59.394 34.74 59.519 34.64 59.529 34.505C59.544 34.37 59.439 34.245 59.304 34.235C58.984 34.205 58.669 34.175 58.364 34.14C55.784 33.87 53.739 33.66 52.749 35.625C52.689 35.75 52.734 35.9 52.859 35.96C52.894 35.98 52.934 35.985 52.974 35.985C53.064 35.985 53.154 35.935 53.199 35.85C54.039 34.195 55.834 34.38 58.319 34.635H58.314Z" fill="#07064E"></path>
<path d="M70.199 35.62C69.204 33.655 67.164 33.87 64.584 34.135C64.279 34.165 63.964 34.2 63.644 34.23C63.504 34.245 63.404 34.365 63.419 34.5C63.434 34.64 63.554 34.735 63.689 34.725C64.014 34.695 64.329 34.66 64.634 34.63C67.119 34.37 68.914 34.185 69.754 35.845C69.799 35.93 69.884 35.98 69.979 35.98C70.019 35.98 70.054 35.97 70.094 35.955C70.219 35.895 70.269 35.74 70.204 35.62H70.199Z" fill="#07064E"></path>
</g>
</g>
<g id="Group_10">
<path id="Vector_65" d="M12.2549 96.5449H9.00488C8.86488 96.5449 8.75488 96.4349 8.75488 96.2949C8.75488 96.1549 8.86488 96.0449 9.00488 96.0449H12.2549C12.3949 96.0449 12.5049 96.1549 12.5049 96.2949C12.5049 96.4349 12.3949 96.5449 12.2549 96.5449Z" fill="#2BF5BA"></path>
<path id="Vector_66" d="M14.3994 96.545C14.2594 96.545 14.1494 96.435 14.1494 96.295C14.1494 96.155 14.2594 96.045 14.3994 96.045L192.739 95.845C192.879 95.845 192.989 95.955 192.989 96.095C192.989 96.235 192.879 96.345 192.739 96.345L14.3994 96.545Z" fill="#07064E"></path>
</g>
</g>
</g>
</g>
</g>
<defs>
<clipPath id="clip0_86_281">
<rect width="200" height="140" fill="white"></rect>
</clipPath>
</defs>
</svg>