<svg width="200" height="140" viewBox="0 0 200 140" fill="none" xmlns="http://www.w3.org/2000/svg">
<g id="illu_bg_regular-voter/Default" clip-path="url(#clip0_86_651)">
<g id="illu_bg_regular-voter">
<g id="background">
<path d="M190.037 131.142C193.33 129.443 194.934 125.998 193.618 123.448C192.303 120.899 188.566 120.209 185.273 121.908C181.98 123.607 180.376 127.052 181.692 129.601C183.007 132.151 186.743 132.841 190.037 131.142Z" fill="#2BF5BA"></path>
<path d="M191.55 114.335C192.326 114.335 192.955 113.706 192.955 112.93C192.955 112.154 192.326 111.525 191.55 111.525C190.774 111.525 190.145 112.154 190.145 112.93C190.145 113.706 190.774 114.335 191.55 114.335Z" fill="#2BF5BA"></path>
<path d="M20.612 25.0086C26.784 22.6246 30.404 17.1107 28.6976 12.693C26.9911 8.27524 20.6045 6.6266 14.4325 9.01063C8.26058 11.3947 4.64057 16.9086 6.347 21.3263C8.05343 25.744 14.4401 27.3927 20.612 25.0086Z" fill="#2BF5BA"></path>
<path d="M44.1701 13.5051C13.5401 32.2901 30.2801 47.6701 16.9751 65.2451C-3.76495 92.6451 4.57506 148.365 89.8551 131.61C121.195 125.455 166.515 145.915 182.495 111.675C199.845 74.5001 184.32 35.2651 144.41 16.3051C107.33 -1.30492 56.9451 5.67508 44.1701 13.5051Z" fill="#2BF5BA"></path>
</g>
<g id="illu_bg_regular-voter_2">
<g id="stroke">
<path id="Vector" d="M124.75 79.27L111.05 76.74C108.57 81.575 108.305 81.39 110.675 76.835C106.585 74.595 105.63 72.08 106.37 64.565C105.805 65.1 105.245 65.575 104.695 65.995C108.5 62.48 111.125 55.635 111.125 47.585C111.125 41.665 110.88 38.99 108.655 35.135C106.355 31.62 100.42 36.9 97.1448 36.87C94.2598 36.61 92.2048 32.535 90.6098 32.21C90.6098 32.21 87.0648 40.66 86.7048 45.845C86.5248 44.565 85.7698 44.22 85.0048 44.325C83.8198 44.485 83.0198 45.28 83.4148 47.835C83.8398 50.54 84.4598 52.26 87.0898 54.08L86.8648 49.125C87.9598 59.435 91.6698 66.98 97.0798 68.32C95.3698 67.93 93.7598 66.86 92.2398 65.135C92.3398 73.57 90.7348 75.005 87.6948 76.85L74.1798 79.265C68.1648 79.455 64.6398 84.04 64.8948 90.055L65.8148 116.43L132.88 116.47L133.785 88.455C133.895 83.4 129.815 79.245 124.76 79.27H124.75Z" fill="white"></path>
<path id="Vector_2" d="M99.0045 89.9748C92.6345 89.7248 86.8595 82.4948 84.8945 77.4998L87.6145 76.8948C89.2795 81.1098 94.3345 87.1849 98.9345 87.4099H99.1695C103.76 87.2349 109.005 81.0698 110.675 76.8398L113.37 77.4448C111.4 82.4348 105.61 89.7198 99.2345 89.9698H98.9995L99.0045 89.9748Z" fill="#2BF5BA"></path>
<path id="Vector_3" d="M111.05 46.4598C111.05 44.6748 111.91 44.2048 112.79 44.3198C113.975 44.4798 114.775 45.2748 114.38 47.8298C113.955 50.5348 113.335 52.2548 110.705 54.0748" fill="white"></path>
<path id="Vector_4" d="M99.7448 23.5648C88.8548 22.9548 83.3098 31.8148 84.7998 44.2998C84.7998 44.2998 86.3798 44.2798 86.6998 45.8398C87.0098 41.0198 89.1798 35.2648 90.1498 33.0948C90.2498 33.1448 90.3548 33.1848 90.4698 33.1998C90.8948 33.2548 91.6198 34.0548 92.2598 34.7598C93.6798 36.3198 95.6298 38.4598 98.5348 37.7448C99.8248 37.4298 101.075 36.8348 102.29 36.2598C104.085 35.4098 105.78 34.6048 106.94 35.0448C107.59 35.2948 108.135 35.9548 108.605 37.0648C109.065 38.1498 109.94 41.7098 109.96 43.8048C109.5 52.7898 108.155 62.9048 99.2798 68.2048C99.1448 68.2098 99.0098 68.2148 98.8748 68.2148C95.9348 68.2148 93.3998 66.9548 92.1948 65.1298C92.1698 65.3998 92.1548 65.6698 92.1548 65.9448C92.1548 70.2898 95.2798 73.8098 99.1398 73.8098C103 73.8098 106.125 70.2898 106.125 65.9448C106.125 65.5898 106.095 65.2398 106.055 64.8948C111.715 58.4998 110.995 45.9398 110.995 45.9398C110.975 45.9148 110.975 45.8648 110.99 45.7898C111.025 46.2098 111.045 46.4548 111.045 46.4548L111.245 45.2148C111.435 44.6598 112.03 44.5098 112.605 44.3848L112.985 44.2998C114.21 33.1198 110.81 24.1848 99.7398 23.5648H99.7448Z" fill="#EBEBEB"></path>
<g id="Vector_5">
<path d="M98.91 61.42C97.57 61.42 96.295 60.815 95.22 59.675C95.125 59.575 95.13 59.415 95.23 59.32C95.33 59.225 95.49 59.23 95.585 59.33C96.56 60.365 97.71 60.915 98.91 60.915C100.11 60.915 101.26 60.365 102.24 59.33C102.335 59.23 102.495 59.225 102.595 59.32C102.695 59.415 102.7 59.575 102.605 59.675C101.53 60.815 100.25 61.42 98.915 61.42H98.91Z" fill="#07064E"></path>
<path d="M88.29 43.67C88.215 43.67 88.135 43.635 88.085 43.565C88.005 43.455 88.03 43.295 88.14 43.215C90.81 41.29 94.385 41.025 97.04 42.555C97.16 42.625 97.2 42.775 97.13 42.895C97.06 43.015 96.905 43.055 96.79 42.985C94.305 41.555 90.945 41.805 88.435 43.62C88.39 43.65 88.34 43.665 88.29 43.665V43.67Z" fill="#07064E"></path>
<path d="M109.985 43.67C109.935 43.67 109.885 43.655 109.84 43.625C107.33 41.815 103.97 41.56 101.485 42.99C101.365 43.06 101.21 43.02 101.145 42.9C101.075 42.78 101.115 42.63 101.235 42.56C103.89 41.03 107.465 41.295 110.135 43.22C110.245 43.3 110.27 43.455 110.19 43.57C110.14 43.64 110.065 43.675 109.985 43.675V43.67Z" fill="#07064E"></path>
<path d="M93.29 48.685C92.085 48.685 91.11 47.635 91.11 46.35C91.11 46.21 91.22 46.1 91.36 46.1C91.5 46.1 91.61 46.21 91.61 46.35C91.61 47.365 92.365 48.185 93.29 48.185C94.215 48.185 94.97 47.36 94.97 46.35C94.97 46.21 95.08 46.1 95.22 46.1C95.36 46.1 95.47 46.21 95.47 46.35C95.47 47.64 94.49 48.685 93.29 48.685Z" fill="#07064E"></path>
<path d="M104.73 48.685C103.525 48.685 102.55 47.635 102.55 46.35C102.55 46.21 102.66 46.1 102.8 46.1C102.94 46.1 103.05 46.21 103.05 46.35C103.05 47.365 103.805 48.185 104.73 48.185C105.655 48.185 106.41 47.36 106.41 46.35C106.41 46.21 106.52 46.1 106.66 46.1C106.8 46.1 106.91 46.21 106.91 46.35C106.91 47.64 105.93 48.685 104.73 48.685Z" fill="#07064E"></path>
<path d="M99.465 53.5C99.21 53.5 98.96 53.43 98.73 53.29C98.29 53.02 98.035 52.55 98.055 52.035L98.29 45.335C98.29 45.195 98.43 45.09 98.55 45.095C98.69 45.095 98.795 45.215 98.79 45.355L98.555 52.055C98.545 52.39 98.705 52.695 98.995 52.865C99.28 53.04 99.625 53.045 99.915 52.88C100.035 52.81 100.185 52.855 100.255 52.975C100.325 53.095 100.28 53.25 100.16 53.315C99.94 53.44 99.705 53.5 99.465 53.5Z" fill="#07064E"></path>
<path d="M97.345 64.165C97.205 64.165 97.095 64.055 97.095 63.915C97.095 63.775 97.205 63.665 97.345 63.665L100.465 63.655C100.605 63.655 100.715 63.765 100.715 63.905C100.715 64.045 100.605 64.155 100.465 64.155L97.345 64.165Z" fill="#07064E"></path>
</g>
<path id="Vector_6" d="M91.1248 27.9999C100.035 22.4249 107.835 26.3299 111.475 31.4749C109.08 24.1849 100.96 23.5649 99.7448 23.5649C88.2898 23.5649 83.3098 31.8149 84.7998 44.2999C84.7998 44.2999 85.3198 44.2949 85.8198 44.5799C85.8898 38.3199 85.8598 31.3499 91.1248 27.9999Z" fill="white"></path>
<path id="Vector_7" d="M122.145 109.655H75.8047V113.15H122.145V109.655Z" fill="#2BF5BA"></path>
<g id="Vector_8">
<path d="M76.255 116.625C76.125 116.625 76.015 116.52 76.005 116.39L74.84 95.165C74.83 95.025 74.94 94.91 75.075 94.9C75.225 94.885 75.33 95 75.34 95.135L76.505 116.36C76.515 116.5 76.405 116.615 76.27 116.625C76.27 116.625 76.26 116.625 76.255 116.625Z" fill="#07064E"></path>
<path d="M121.975 116.625C121.975 116.625 121.965 116.625 121.96 116.625C121.82 116.62 121.715 116.5 121.725 116.36L122.89 95.135C122.895 94.995 123.005 94.885 123.155 94.9C123.295 94.905 123.4 95.025 123.39 95.165L122.225 116.39C122.22 116.525 122.105 116.625 121.975 116.625Z" fill="#07064E"></path>
<path d="M126.47 79.3549L110.875 76.5999C110.875 76.5999 110.865 76.5999 110.865 76.5949C109.57 76.3049 107.995 74.6849 107.205 72.8199C106.745 71.7349 106.045 69.2149 106.525 64.5149C106.525 64.4749 106.525 64.4349 106.505 64.3999C109.43 60.6349 111.32 54.7649 111.32 48.1749L111.3 46.4599C111.3 45.6749 111.48 45.0999 111.82 44.8049C112.12 44.5449 112.495 44.5349 112.76 44.5699C113.265 44.6399 113.625 44.8249 113.86 45.1399C114.24 45.6499 114.33 46.5399 114.135 47.7949C113.82 49.8149 113.39 51.2449 112.135 52.5649C112.04 52.6649 112.045 52.8249 112.145 52.9199C112.245 53.0149 112.405 53.0099 112.5 52.9099C113.85 51.4949 114.305 49.9949 114.635 47.8749C114.855 46.4649 114.735 45.4749 114.265 44.8449C114.02 44.5199 113.69 44.2949 113.26 44.1699C113.805 39.0099 113.58 31.9749 109.5 27.4299C107.05 24.6999 103.57 23.3149 99.1498 23.3149C94.4848 23.3149 90.8099 24.7899 88.2299 27.6999C84.9899 31.3499 83.7198 37.0449 84.5398 44.1699C84.1098 44.2949 83.7799 44.5199 83.5349 44.8449C83.0649 45.4749 82.9448 46.4649 83.1648 47.8749C83.6048 50.6999 84.3098 52.4699 86.9448 54.2849C86.9898 54.3149 87.0398 54.3299 87.0848 54.3299C87.1048 54.3299 87.1248 54.3199 87.1448 54.3149C88.0148 58.7049 89.6498 62.3899 91.7748 64.9349C91.7748 64.9549 91.7648 64.9799 91.7698 64.9999C92.2098 69.3399 91.6048 71.4599 91.0298 72.8199C90.2148 74.7449 88.7648 76.2849 87.5048 76.5749L71.7548 79.3599C67.4598 80.2899 64.3398 84.1599 64.3398 88.5649L65.3148 116.425C65.3148 116.56 65.4298 116.665 65.5648 116.665H132.67C132.805 116.665 132.915 116.56 132.92 116.425L133.895 88.5549C133.895 84.1599 130.775 80.2899 126.47 79.3549ZM88.5948 28.0249C91.0798 25.2249 94.6248 23.8099 99.1398 23.8099C103.415 23.8099 106.77 25.1399 109.12 27.7599C113.065 32.1599 113.285 39.0149 112.755 44.0749C112.255 44.0199 111.815 44.1399 111.485 44.4349C111.025 44.8349 110.795 45.5199 110.795 46.4699L110.815 48.1849C110.815 59.2399 105.465 68.2349 98.8848 68.2349C92.3048 68.2349 87.3148 59.6099 86.9548 48.1799C86.9398 47.6299 86.9498 47.0749 86.9748 46.5099C86.9748 46.4949 86.9848 46.4799 86.9848 46.4649C86.9848 46.4449 86.9848 46.4249 86.9848 46.4049C87.3348 40.2549 90.2199 33.6599 90.7449 32.4999C91.3948 32.6949 92.0848 33.4549 92.8198 34.2599C94.1848 35.7649 95.8898 37.6299 98.3598 37.0199C99.5748 36.7199 100.795 36.1449 101.97 35.5849C104.045 34.5999 106.005 33.6699 107.51 34.4849C108.95 35.2649 109.92 37.6049 110.475 41.6499C110.495 41.7849 110.62 41.8849 110.755 41.8649C110.89 41.8449 110.985 41.7199 110.97 41.5849C110.385 37.3149 109.36 34.9199 107.745 34.0499C106.015 33.1149 103.945 34.0949 101.75 35.1349C100.595 35.6849 99.3998 36.2499 98.2348 36.5349C96.0448 37.0699 94.5248 35.3999 93.1798 33.9199C92.2798 32.9299 91.5048 32.0799 90.6248 31.9649C90.5198 31.9499 90.4148 32.0049 90.3648 32.1049C90.3298 32.1799 87.3648 38.4749 86.6098 44.8299C86.5198 44.6749 86.4149 44.5399 86.2849 44.4299C85.9499 44.1399 85.5098 44.0199 85.0148 44.0699C84.2198 37.1049 85.4498 31.5549 88.5848 28.0249H88.5948ZM83.6599 47.7899C83.4649 46.5349 83.5548 45.6449 83.9348 45.1349C84.1698 44.8199 84.5299 44.6349 85.0349 44.5649C85.2999 44.5299 85.6748 44.5399 85.9748 44.7999C86.3048 45.0899 86.4798 45.6449 86.4898 46.3999C86.4548 46.9999 86.4448 47.5949 86.4648 48.1849C86.5248 50.1249 86.7248 51.9799 87.0448 53.7299C84.7098 52.0549 84.0848 50.4599 83.6648 47.7899H83.6599ZM91.4898 73.0099C92.0648 71.6599 92.6598 69.5949 92.3198 65.5449C94.2198 67.5699 96.4648 68.7249 98.8898 68.7249C101.52 68.7249 103.965 67.3599 105.975 65.0449C105.615 69.2499 106.185 71.6899 106.745 73.0099C107.525 74.8499 108.985 76.4249 110.34 76.9449C108.62 81.1599 103.845 86.9799 99.1599 87.1649H99.0848C94.4048 86.9849 89.6399 81.1849 87.9099 76.9699C89.4399 76.4449 90.7898 74.6499 91.4848 73.0099H91.4898ZM132.43 116.165H65.8048L64.8398 88.5549C64.8398 84.3899 67.7949 80.7299 71.8549 79.8499L87.4249 77.0949C89.1798 81.4399 94.1548 87.4799 99.0848 87.6699H99.1798C104.095 87.4749 109.07 81.4399 110.825 77.0949L126.375 79.8449C130.445 80.7299 133.395 84.3899 133.395 88.5449L132.43 116.165Z" fill="#07064E"></path>
</g>
</g>
</g>
</g>
</g>
<defs>
<clipPath id="clip0_86_651">
<rect width="200" height="140" fill="white"></rect>
</clipPath>
</defs>
</svg>