<svg width="200" height="140" viewBox="0 0 200 140" fill="none" xmlns="http://www.w3.org/2000/svg">
<g id="illu_bg_participant-woman/Default" clip-path="url(#clip0_86_627)">
<g id="background">
<path d="M18.8951 24.8823C19.5018 23.707 19.0168 22.25 17.812 21.6281C16.6072 21.0063 15.1386 21.455 14.532 22.6304C13.9253 23.8058 14.4102 25.2627 15.6151 25.8846C16.8199 26.5065 18.2884 26.0577 18.8951 24.8823Z" fill="#2BF5BA"></path>
<path d="M172.825 12.1099C213.365 27.3799 164.845 63.1499 172.955 92.5899C182.085 125.72 196.61 156.51 123.52 121.415C94.7254 107.59 45.8454 123.045 29.8704 88.8049C12.5204 51.6349 53.0854 8.84994 93.2604 4.67994C139.97 -0.175064 158.8 6.83494 172.825 12.1149V12.1099Z" fill="#2BF5BA"></path>
<path d="M32.0489 130.267C37.6117 126.685 40.0426 120.553 37.4786 116.572C34.9145 112.59 28.3264 112.266 22.7637 115.848C17.2009 119.43 14.77 125.562 17.3341 129.544C19.8981 133.526 26.4862 133.849 32.0489 130.267Z" fill="#2BF5BA"></path>
<path d="M190.822 62.3836C192.746 61.391 193.79 59.5876 193.154 58.3557C192.519 57.1237 190.444 56.9297 188.52 57.9224C186.596 58.915 185.551 60.7183 186.187 61.9503C186.823 63.1822 188.898 63.3762 190.822 62.3836Z" fill="#2BF5BA"></path>
<path d="M54.5351 129.962C55.3343 128.413 54.8165 126.556 53.3785 125.814C51.9405 125.072 50.127 125.726 49.3278 127.274C48.5286 128.822 49.0465 130.679 50.4844 131.421C51.9224 132.164 53.7359 131.51 54.5351 129.962Z" fill="#2BF5BA"></path>
</g>
<g id="illu_bg_participant-woman">
<g id="illu_bg_participant-woman_2">
<g id="stroke">
<path id="Vector" d="M10.165 98.4851H6.91504C6.77504 98.4851 6.66504 98.3751 6.66504 98.2351C6.66504 98.0951 6.77504 97.9851 6.91504 97.9851H10.165C10.305 97.9851 10.415 98.0951 10.415 98.2351C10.415 98.3751 10.305 98.4851 10.165 98.4851Z" fill="#2BF5BA"></path>
<path id="Vector_2" d="M12.3047 98.4852C12.1647 98.4852 12.0547 98.3752 12.0547 98.2352C12.0547 98.0952 12.1647 97.9852 12.3047 97.9852L190.645 97.7852C190.785 97.7852 190.895 97.8952 190.895 98.0352C190.895 98.1752 190.785 98.2852 190.645 98.2852L12.3047 98.4852Z" fill="#07064E"></path>
<path id="Vector_3" d="M115.225 22.19C122.955 23.235 123.8 30.32 128.495 35.17C124.59 17.845 112.995 14.345 110.105 17.97C107.395 13.875 94.8905 17.895 91.1055 32.86C95.7155 24.71 106.32 21.02 115.22 22.195L115.225 22.19Z" fill="white"></path>
<path id="Vector_4" d="M139.215 97.7351C139.215 99.8951 137.59 105.62 110.47 105.62C83.3502 105.62 81.0352 99.8901 81.0352 97.7351C81.0352 95.5801 94.4052 96.0251 110.47 96.0251C126.535 96.0251 139.215 95.5801 139.215 97.7351Z" fill="#2AEDB4"></path>
<path id="Vector_5" d="M140.2 73.8602C140.295 69.4752 136.755 65.8702 132.37 65.8952L120.485 63.7002C113.93 76.4852 106.04 74.6902 100.365 63.7652L88.4948 65.8852C83.2748 66.0502 80.2198 70.0252 80.4398 75.2452L81.2398 98.1252L139.415 98.1602L140.2 73.8602Z" fill="white"></path>
<path id="Vector_6" d="M114.75 70.9402H105.525L106.94 98.2002H113.33L114.75 70.9402Z" fill="#2BF5BA"></path>
<path id="Vector_7" d="M120.16 63.78C113.85 75.9 106.515 75.855 100.155 63.83C102.69 62.905 104.255 61.005 104.165 53.625C107.67 57.605 111.74 57.555 116.425 53.135C115.78 59.655 116.525 62.94 120.16 63.78Z" fill="white"></path>
<path id="Vector_8" d="M110.135 87.1001C109.995 87.1001 109.885 86.9901 109.885 86.8501V82.9001C109.885 82.7601 109.995 82.6501 110.135 82.6501C110.275 82.6501 110.385 82.7601 110.385 82.9001V86.8501C110.385 86.9901 110.275 87.1001 110.135 87.1001Z" fill="white"></path>
<path id="Vector_9" d="M122 35.5752C121.235 35.4702 120.49 35.8802 120.49 37.4302L120.47 37.8652C120.465 37.3052 120.445 36.9802 120.445 36.9802C113.89 29.6202 104.485 31.7852 102.93 25.5852C102.93 25.5852 100.405 28.4002 99.9898 30.6952C99.6548 32.5452 99.3698 34.5152 99.2998 36.5752C99.0698 35.7352 98.4898 35.4952 97.8948 35.5752C96.8698 35.7152 96.1698 36.4052 96.5148 38.6202C96.8798 40.9702 97.4198 42.4602 99.7048 44.0352L99.6298 42.3952C100.84 50.6902 105.07 57.0452 110.105 56.5302C117.665 55.7552 119.745 47.4002 120.29 41.8652L120.19 44.0352C122.475 42.4602 123.01 40.9652 123.38 38.6202C123.725 36.4052 123.03 35.7152 122 35.5752Z" fill="white"></path>
<path id="Vector_10" d="M129.361 42.7152C127.451 18.8952 113.376 13.8702 110.106 17.9652C106.906 13.1302 90.0205 19.6102 90.0205 42.1102C90.0205 48.3702 100.651 50.3602 100.651 50.3602C100.651 50.3602 101.196 50.4852 102.151 50.6452C100.951 48.3152 100.076 45.4302 99.6255 42.2802L99.7055 44.0352C97.4205 42.4602 96.8855 40.9652 96.5155 38.6202C96.1705 36.4052 96.8655 35.7152 97.8955 35.5752C98.4905 35.4952 99.0705 35.7352 99.3005 36.5752C99.3705 34.5152 99.6555 32.5502 99.9905 30.6952C100.256 29.2352 101.376 27.5652 102.156 26.5402C103.181 29.6852 106.376 30.8052 109.751 31.9802C112.491 32.9352 115.596 34.0202 118.181 36.3052C118.356 36.4602 118.571 36.5402 118.791 36.5502C118.376 44.0752 117.371 52.3402 109.856 56.5402C109.941 56.5402 110.021 56.5402 110.106 56.5252C107.901 56.7502 105.846 55.6552 104.136 53.6552C104.116 53.8752 104.106 54.1002 104.106 54.3252C104.106 58.0952 106.816 61.1502 110.161 61.1502C113.506 61.1502 116.216 58.0952 116.216 54.3252C116.216 54.0152 116.191 53.7102 116.156 53.4152C116.876 52.6052 117.476 51.6802 117.976 50.6902C123.521 49.6352 129.691 46.8702 129.356 42.7152H129.361ZM123.376 38.6202C123.011 40.9702 122.471 42.4602 120.186 44.0352L120.486 37.4302C120.486 35.8802 121.231 35.4702 121.996 35.5752C123.021 35.7152 123.721 36.4052 123.376 38.6202Z" fill="#EBEBEB"></path>
<g id="Vector_11">
<path d="M90.3095 98.3301C90.1795 98.3301 90.0695 98.2251 90.0595 98.0951L89.0495 79.6801C89.0395 79.5401 89.1495 79.4251 89.2845 79.4151C89.4345 79.4001 89.5395 79.5151 89.5495 79.6501L90.5595 98.0651C90.5695 98.2051 90.4595 98.3201 90.3245 98.3301C90.3245 98.3301 90.3145 98.3301 90.3095 98.3301Z" fill="#07064E"></path>
<path d="M129.965 98.3301C129.965 98.3301 129.955 98.3301 129.95 98.3301C129.81 98.3251 129.705 98.2051 129.715 98.0651L130.725 79.6501C130.735 79.5101 130.85 79.4001 130.99 79.4151C131.13 79.4201 131.235 79.5401 131.225 79.6801L130.215 98.0951C130.21 98.2301 130.095 98.3301 129.965 98.3301Z" fill="#07064E"></path>
<path d="M109.955 49.94C108.925 49.94 107.935 49.465 107.095 48.575C107 48.475 106.84 48.47 106.74 48.565C106.64 48.66 106.635 48.82 106.73 48.92C107.665 49.915 108.78 50.44 109.955 50.445C111.125 50.445 112.24 49.92 113.18 48.92C113.275 48.82 113.27 48.66 113.17 48.565C113.07 48.47 112.91 48.475 112.815 48.575C111.97 49.47 110.98 49.94 109.95 49.94H109.955Z" fill="#07064E"></path>
<path d="M107.475 34.805C107.6 34.855 107.75 34.795 107.8 34.665C107.85 34.535 107.79 34.39 107.66 34.34C103.785 32.78 101.725 32.87 100.535 34.655C100.46 34.77 100.49 34.925 100.605 35C100.645 35.03 100.695 35.04 100.745 35.04C100.825 35.04 100.905 35 100.955 34.93C101.825 33.63 103.265 33.11 107.475 34.805Z" fill="#07064E"></path>
<path d="M110.45 44.11C110.515 44.11 110.58 44.11 110.645 44.1C110.78 44.085 110.88 43.96 110.865 43.82C110.85 43.685 110.725 43.585 110.585 43.6C110.185 43.65 109.815 43.485 109.58 43.16C109.345 42.835 109.31 42.42 109.485 42.055C110.335 40.27 110.77 38.455 110.77 36.655C110.77 36.515 110.66 36.405 110.52 36.405C110.38 36.405 110.27 36.515 110.27 36.655C110.27 38.38 109.855 40.12 109.035 41.835C108.78 42.365 108.835 42.97 109.175 43.445C109.475 43.865 109.945 44.1 110.45 44.1V44.11Z" fill="#07064E"></path>
<path d="M104.835 39.37V40.33C104.835 40.47 104.945 40.58 105.085 40.58C105.225 40.58 105.335 40.47 105.335 40.33V39.37C105.575 39.335 105.8 39.255 106.005 39.135L106.74 39.87C106.79 39.92 106.855 39.945 106.915 39.945C106.975 39.945 107.045 39.92 107.09 39.87C107.19 39.77 107.19 39.615 107.09 39.515L106.4 38.825C106.77 38.45 107.005 37.925 107.005 37.335C107.005 37.195 106.895 37.085 106.755 37.085C106.615 37.085 106.505 37.195 106.505 37.335C106.505 38.195 105.865 38.895 105.08 38.895C104.295 38.895 103.655 38.195 103.655 37.335C103.655 37.195 103.545 37.085 103.405 37.085C103.265 37.085 103.155 37.195 103.155 37.335C103.155 37.92 103.39 38.45 103.755 38.825L103.065 39.515C102.965 39.615 102.965 39.77 103.065 39.87C103.115 39.92 103.18 39.945 103.24 39.945C103.3 39.945 103.37 39.92 103.415 39.87L104.15 39.135C104.355 39.255 104.58 39.335 104.825 39.37H104.835Z" fill="#07064E"></path>
<path d="M113.17 39.94C113.235 39.94 113.3 39.915 113.345 39.865L114.08 39.13C114.285 39.25 114.51 39.33 114.755 39.365V40.325C114.755 40.465 114.865 40.575 115.005 40.575C115.145 40.575 115.255 40.465 115.255 40.325V39.365C115.495 39.33 115.725 39.25 115.93 39.13L116.665 39.865C116.715 39.915 116.78 39.94 116.84 39.94C116.9 39.94 116.97 39.915 117.015 39.865C117.115 39.765 117.115 39.61 117.015 39.51L116.325 38.82C116.695 38.445 116.93 37.92 116.93 37.33C116.93 37.19 116.82 37.08 116.68 37.08C116.54 37.08 116.43 37.19 116.43 37.33C116.43 38.19 115.79 38.89 115.005 38.89C114.22 38.89 113.58 38.19 113.58 37.33C113.58 37.19 113.47 37.08 113.33 37.08C113.19 37.08 113.08 37.19 113.08 37.33C113.08 37.915 113.315 38.445 113.685 38.82L112.995 39.51C112.895 39.61 112.895 39.765 112.995 39.865C113.045 39.915 113.11 39.94 113.17 39.94Z" fill="#07064E"></path>
<path d="M133.87 65.93L121.745 63.785L120.345 63.54C120.345 63.54 120.34 63.54 120.335 63.54C119.22 63.29 117.865 61.895 117.185 60.285C116.79 59.35 116.185 57.18 116.595 53.13C117.08 52.5 117.535 51.8 117.95 51.045L124.22 49.055C127.6 47.98 129.845 44.765 129.68 41.235C129.105 28.975 122.085 18.985 115.905 16.765C113.595 15.935 111.55 16.26 110.115 17.675C109.13 16.585 107.67 16.095 105.875 16.26C102.065 16.605 96.5946 20.025 92.9746 26.875C90.6746 31.22 89.5396 36.33 89.6896 41.645C89.7846 44.995 91.9896 47.92 95.1696 48.925L101.94 51.06C102.48 52.04 103.085 52.925 103.745 53.69C104.095 57.325 103.58 59.125 103.09 60.28C102.385 61.94 101.135 63.27 100.05 63.52L86.3946 65.935C82.6496 66.745 79.9346 70.115 79.9346 73.955L80.7796 98.125C80.7796 98.26 80.8946 98.365 81.0296 98.365H139.24C139.375 98.365 139.485 98.26 139.49 98.125L140.335 73.95C140.335 70.12 137.62 66.75 133.865 65.94L133.87 65.93ZM99.6246 39.06C99.6246 38.51 99.6296 37.985 99.6396 37.475C99.6396 37.46 99.6496 37.445 99.6496 37.425C99.6496 37.39 99.6446 37.365 99.6446 37.33C99.6996 34.75 99.8896 32.67 100.23 30.89C100.73 28.725 101.585 27.45 102.79 26.215C103.6 29.155 106.43 30.075 109.685 31.135C111.575 31.75 113.645 32.425 115.635 33.565C114.98 33.745 114.245 34 113.41 34.335C113.28 34.385 113.22 34.53 113.27 34.66C113.31 34.76 113.405 34.815 113.5 34.815C113.53 34.815 113.565 34.81 113.595 34.795C114.62 34.38 115.485 34.1 116.24 33.925C116.94 34.365 117.625 34.865 118.285 35.45C118.39 35.54 118.545 35.53 118.64 35.43C118.73 35.325 118.72 35.17 118.62 35.075C117.955 34.485 116.475 33.465 116.34 33.395C114.17 32.06 111.905 31.32 109.84 30.65C106.445 29.545 103.76 28.67 103.175 25.665C103.155 25.575 103.09 25.5 103.005 25.475C102.915 25.445 102.82 25.475 102.755 25.535C101.315 26.935 100.31 28.3 99.7396 30.78C99.4646 32.235 99.2846 33.88 99.1946 35.815C99.1446 35.755 99.0996 35.685 99.0396 35.635C98.7296 35.365 98.3196 35.26 97.8546 35.32C97.2846 35.395 96.8746 35.62 96.5896 36C96.1796 36.55 96.0696 37.42 96.2646 38.655C96.6496 41.115 97.2646 42.655 99.5546 44.24C99.5696 44.25 99.5846 44.245 99.5996 44.255C100.025 46.54 100.71 48.635 101.61 50.43L95.3196 48.445C92.3396 47.505 90.2746 44.765 90.1846 41.625C90.0396 36.395 91.1546 31.37 93.4096 27.1C96.9246 20.45 102.355 17.07 105.915 16.75C107.655 16.59 109.03 17.09 109.9 18.195C109.945 18.255 110.015 18.29 110.09 18.29C110.17 18.3 110.235 18.265 110.285 18.21C111.95 16.375 114.165 16.665 115.735 17.225C121.76 19.395 128.615 29.195 129.18 41.25C129.335 44.555 127.23 47.565 124.065 48.57L118.28 50.405C119.825 47.315 120.755 43.365 120.755 39.055L120.735 37.565C120.735 36.895 120.885 36.405 121.175 36.155C121.375 35.98 121.64 35.915 121.965 35.96C122.395 36.02 122.7 36.175 122.895 36.44C123.22 36.875 123.295 37.64 123.13 38.715C122.855 40.46 122.485 41.695 121.4 42.835C121.305 42.935 121.31 43.095 121.41 43.19C121.51 43.285 121.67 43.28 121.765 43.18C122.94 41.95 123.335 40.64 123.625 38.795C123.815 37.56 123.71 36.695 123.3 36.14C123.015 35.76 122.605 35.54 122.035 35.46C121.57 35.4 121.16 35.505 120.85 35.775C120.445 36.13 120.24 36.73 120.24 37.565L120.26 39.055C120.26 43.49 119.265 47.54 117.63 50.615C117.515 50.66 117.455 50.775 117.48 50.895C115.595 54.29 112.915 56.415 109.945 56.415C107.835 56.415 105.87 55.34 104.235 53.505C104.235 53.49 104.235 53.475 104.235 53.455C104.225 53.335 104.125 53.25 104.01 53.235C101.365 50.09 99.6296 44.905 99.6296 39.05L99.6246 39.06ZM99.4796 43.57C97.6246 42.175 97.1096 40.81 96.7596 38.58C96.5896 37.5 96.6696 36.735 96.9946 36.305C97.1946 36.04 97.4996 35.88 97.9246 35.825C98.1446 35.795 98.4646 35.805 98.7146 36.02C98.9846 36.255 99.1296 36.71 99.1496 37.325C99.1396 37.885 99.1296 38.455 99.1296 39.06C99.1296 40.62 99.2546 42.125 99.4846 43.565L99.4796 43.57ZM103.55 60.475C104.035 59.335 104.54 57.61 104.3 54.29C105.945 55.955 107.875 56.92 109.94 56.92C112.2 56.92 114.295 55.77 116.03 53.81C115.76 57.31 116.25 59.355 116.725 60.475C117.4 62.065 118.655 63.425 119.835 63.89C118.34 67.535 114.22 72.55 110.18 72.705H110.115C106.08 72.55 101.97 67.555 100.465 63.915C101.79 63.44 102.95 61.89 103.555 60.475H103.55ZM139.005 97.86H81.2746L80.4346 73.94C80.4346 70.345 82.9846 67.18 86.4896 66.42L99.9696 64.035C101.48 67.745 105.675 72.855 109.885 73.19V79.76C109.885 79.9 109.995 80.01 110.135 80.01C110.275 80.01 110.385 79.9 110.385 79.76V73.19C114.59 72.875 118.8 67.755 120.31 64.04L133.77 66.42C137.285 67.18 139.835 70.345 139.835 73.935L138.995 97.86H139.005Z" fill="#07064E"></path>
</g>
</g>
</g>
</g>
</g>
<defs>
<clipPath id="clip0_86_627">
<rect width="200" height="140" fill="white"></rect>
</clipPath>
</defs>
</svg>