<svg width="200" height="140" viewBox="0 0 200 140" fill="none" xmlns="http://www.w3.org/2000/svg">
<g id="Size=Default" clip-path="url(#clip0_86_86)">
<g id="illu_bg_agenda">
<g id="background">
<path id="Vector" d="M178.94 17.8399C215.03 31.5949 194.735 104.075 166.085 119.265C147.07 129.345 99.4595 115.3 58.4995 123.565C26.5695 130.01 15.5545 125.045 27.1595 102.075C39.4595 77.7399 3.81455 69.9049 3.08455 42.2049C2.62955 24.9799 10.5645 4.5799 45.9745 11.9549C118.245 26.9999 146.16 5.3499 178.945 17.8399H178.94Z" fill="#EDEDED"></path>
<g id="Vector_2">
<path d="M177.58 15.115C213.67 28.87 193.375 101.35 164.725 116.54C145.71 126.62 98.1002 112.575 57.1402 120.84C25.2102 127.285 14.1952 122.32 25.8002 99.35C38.1002 75.015 2.45518 67.185 1.72518 39.48C1.27018 22.255 9.20018 1.85504 44.6102 9.23004C116.88 24.275 144.795 2.62504 177.58 15.115Z" fill="#2BF5BA"></path>
<path d="M194.795 120.4C195.813 117.941 193.666 114.716 190 113.198C186.334 111.68 182.536 112.444 181.518 114.903C180.499 117.363 182.646 120.587 186.313 122.105C189.979 123.623 193.777 122.86 194.795 120.4Z" fill="#2BF5BA"></path>
<path d="M9.75012 86.045C9.17012 83.555 11.0801 80.88 14.0101 80.07C16.9401 79.26 19.7851 80.625 20.3651 83.115C20.9451 85.605 19.0351 88.28 16.1051 89.09C13.1751 89.9 10.3301 88.535 9.75012 86.045Z" fill="#2BF5BA"></path>
<path d="M164.837 131.654C166.093 130.715 166.511 129.152 165.772 128.163C165.033 127.175 163.415 127.135 162.159 128.075C160.903 129.015 160.484 130.577 161.224 131.566C161.963 132.554 163.581 132.594 164.837 131.654Z" fill="#2BF5BA"></path>
</g>
</g>
<g id="illu_bg_agenda__2">
<g id="stroke">
<g id="Group">
<path id="Vector_3" d="M15.3897 67.0098L43.4297 45.8098L5.98975 45.9048L2.98975 47.3298C4.52475 52.9248 7.97975 58.9798 15.3897 67.0098Z" fill="#2AEDB4"></path>
<g id="Vector_4">
<path d="M15.9248 19.19H12.2498C11.6561 19.19 11.1748 19.6713 11.1748 20.265V44.705C11.1748 45.2987 11.6561 45.78 12.2498 45.78H15.9248C16.5185 45.78 16.9998 45.2987 16.9998 44.705V20.265C16.9998 19.6713 16.5185 19.19 15.9248 19.19Z" fill="#2BF5BA"></path>
<path d="M29.4797 14.46H27.0047C26.411 14.46 25.9297 14.9413 25.9297 15.535V44.7C25.9297 45.2937 26.411 45.775 27.0047 45.775H29.4797C30.0735 45.775 30.5547 45.2937 30.5547 44.7V15.535C30.5547 14.9413 30.0735 14.46 29.4797 14.46Z" fill="#2BF5BA"></path>
</g>
<path id="Vector_5" d="M22.6795 16.7749H18.1245C17.5032 16.7749 16.9995 17.2786 16.9995 17.8999V44.6499C16.9995 45.2712 17.5032 45.7749 18.1245 45.7749H22.6795C23.3008 45.7749 23.8045 45.2712 23.8045 44.6499V17.8999C23.8045 17.2786 23.3008 16.7749 22.6795 16.7749Z" fill="#2AEDB4"></path>
<g id="Vector_6">
<path d="M30.5099 41.4398H25.8599V41.9398H30.5099V41.4398Z" fill="#FF8578"></path>
<path d="M30.5099 18.2998H25.8599V18.7998H30.5099V18.2998Z" fill="#FF8578"></path>
</g>
<g id="Vector_7">
<path d="M16.9998 23.6698H11.1748V41.2998H16.9998V23.6698Z" fill="#FFC391"></path>
<path d="M25.9547 22.9249C25.9547 22.3311 25.4735 21.8499 24.8797 21.8499C24.286 21.8499 23.8047 22.3311 23.8047 22.9249V44.6999C23.8047 45.2936 24.286 45.7749 24.8797 45.7749C25.4735 45.7749 25.9547 45.2936 25.9547 44.6999V22.9249Z" fill="#FFC391"></path>
<path d="M32.8241 23.8822C32.6202 23.3247 32.0028 23.038 31.4452 23.2419C30.8877 23.4458 30.601 24.0632 30.8049 24.6208L38.2845 45.0708C38.4885 45.6284 39.1058 45.9151 39.6634 45.7112C40.221 45.5072 40.5077 44.8899 40.3037 44.3323L32.8241 23.8822Z" fill="#FFC391"></path>
</g>
<path id="Vector_8" d="M43.4298 45.5298H40.3248C40.3898 45.4498 40.4498 45.3598 40.4948 45.2648C40.6448 44.9448 40.6598 44.5848 40.5398 44.2498L33.0598 23.7998C32.8098 23.1148 32.0448 22.7598 31.3598 23.0098C31.1398 23.0898 30.9548 23.2248 30.8098 23.3998V15.5398C30.8098 14.8098 30.2148 14.2148 29.4848 14.2148H27.0098C26.2798 14.2148 25.6848 14.8098 25.6848 15.5398V21.8848C25.4598 21.7148 25.1848 21.6098 24.8848 21.6098C24.5848 21.6098 24.2848 21.7248 24.0598 21.9048V17.9048C24.0598 17.1498 23.4448 16.5298 22.6848 16.5298H18.1248C17.3698 16.5298 16.7498 17.1448 16.7498 17.9048V19.2398C16.5248 19.0548 16.2398 18.9448 15.9248 18.9448H12.2498C11.5198 18.9448 10.9248 19.5398 10.9248 20.2698V44.7098C10.9248 45.0248 11.0398 45.3098 11.2198 45.5348H6.1748C6.0348 45.5348 5.9248 45.6448 5.9248 45.7848C5.9248 45.9248 6.0348 46.0348 6.1748 46.0348H39.2898C39.2898 46.0348 39.2898 46.0348 39.2948 46.0348H43.4248C43.5648 46.0348 43.6748 45.9248 43.6748 45.7848C43.6748 45.6448 43.5648 45.5348 43.4248 45.5348L43.4298 45.5298ZM31.0648 23.9048C31.1598 23.7048 31.3248 23.5548 31.5298 23.4748C31.6248 23.4398 31.7198 23.4248 31.8098 23.4248C32.1448 23.4248 32.4648 23.6348 32.5848 23.9648L40.0648 44.4148C40.1398 44.6198 40.1298 44.8448 40.0398 45.0448C39.9448 45.2448 39.7798 45.3948 39.5748 45.4748C39.3698 45.5498 39.1448 45.5398 38.9448 45.4498C38.7448 45.3548 38.5948 45.1898 38.5198 44.9848L31.0398 24.5348C30.9648 24.3298 30.9748 24.1048 31.0648 23.9048ZM38.0498 45.1548C38.0998 45.2898 38.1748 45.4148 38.2648 45.5248H30.5148C30.6998 45.2998 30.8098 45.0148 30.8098 44.6998V25.3598L38.0498 45.1548ZM24.8798 22.0998C25.2698 22.0998 25.5948 22.3748 25.6798 22.7398V44.7048C25.6798 44.7448 25.6898 44.7798 25.6898 44.8198C25.6348 45.2198 25.2898 45.5298 24.8748 45.5298C24.4198 45.5298 24.0498 45.1598 24.0498 44.7048V22.9298C24.0498 22.4748 24.4198 22.1048 24.8748 22.1048L24.8798 22.0998ZM25.9448 45.4848C25.9448 45.4848 25.9698 45.5148 25.9798 45.5248H25.9098C25.9098 45.5248 25.9348 45.4998 25.9448 45.4848ZM23.7898 45.4548C23.8098 45.4798 23.8298 45.5048 23.8498 45.5248H23.7298C23.7298 45.5248 23.7698 45.4798 23.7898 45.4548ZM17.0698 45.5298H16.9498C16.9498 45.5298 16.9898 45.4848 17.0098 45.4598C17.0298 45.4848 17.0498 45.5098 17.0698 45.5298ZM12.2498 45.5298C11.7948 45.5298 11.4248 45.1598 11.4248 44.7048V20.2648C11.4248 19.8098 11.7948 19.4398 12.2498 19.4398H15.9248C16.3798 19.4398 16.7498 19.8098 16.7498 20.2648V44.7048C16.7498 45.1598 16.3798 45.5298 15.9248 45.5298H12.2498ZM18.1198 45.5298C17.6398 45.5298 17.2448 45.1398 17.2448 44.6548V17.8998C17.2448 17.4198 17.6348 17.0248 18.1198 17.0248H22.6798C23.1598 17.0248 23.5548 17.4148 23.5548 17.8998V44.6548C23.5548 45.1348 23.1648 45.5298 22.6798 45.5298H18.1198ZM27.0048 45.5298C26.5898 45.5298 26.2498 45.2198 26.1898 44.8198C26.1898 44.7798 26.1998 44.7448 26.1998 44.7048V22.9298C26.1998 22.8498 26.1898 22.7748 26.1748 22.6998V15.5398C26.1748 15.0848 26.5448 14.7148 26.9998 14.7148H29.4748C29.9298 14.7148 30.2998 15.0848 30.2998 15.5398V44.7048C30.2998 45.1598 29.9298 45.5298 29.4748 45.5298H26.9998H27.0048Z" fill="#07064E"></path>
</g>
<path id="Vector_9" d="M16.9248 95.4649C16.7848 95.4649 16.6748 95.3549 16.6748 95.2149C16.6748 95.0749 16.7848 94.9649 16.9248 94.9649L188.2 94.7749C188.34 94.7749 188.45 94.8849 188.45 95.0249C188.45 95.1649 188.34 95.2749 188.2 95.2749L16.9248 95.4649Z" fill="#07064E"></path>
<path id="Vector_10" d="M14.8696 95.4648H11.7446C11.6046 95.4648 11.4946 95.3548 11.4946 95.2148C11.4946 95.0748 11.6046 94.9648 11.7446 94.9648H14.8696C15.0096 94.9648 15.1196 95.0748 15.1196 95.2148C15.1196 95.3548 15.0096 95.4648 14.8696 95.4648Z" fill="#2BF5BA"></path>
<g id="Group_2">
<path id="Vector_11" d="M70.8998 108.175C70.0698 109.325 60.5248 111.955 47.3448 112.22C30.9498 112.55 25.5398 110.645 26.1548 109.54C27.4948 107.135 45.8898 105.055 59.0748 105.055C72.2598 105.055 71.6548 107.13 70.8998 108.17V108.175Z" fill="#2AEDB4"></path>
<path id="Vector_12" d="M67.4548 100.495H40.7698L29.8848 104.575V110.02H56.5648L67.4548 105.94V100.495Z" fill="#2BF5BA"></path>
<path id="Vector_13" d="M66.2697 100.94C65.0447 100.72 63.7897 100.56 62.5297 100.495H60.2197C58.3197 100.6 56.4297 100.98 54.6247 101.78C46.5247 105.59 37.4797 100.9 30.3047 104.58H56.5647L66.2697 100.94Z" fill="#2AEDB4"></path>
<g id="Vector_14">
<path d="M29.8848 104.825H56.5648C56.5948 104.825 56.6248 104.82 56.6548 104.81L67.5448 100.725C67.6598 100.685 67.7248 100.565 67.7048 100.445C67.6848 100.325 67.5798 100.24 67.4598 100.24H40.7798C40.7498 100.24 40.7198 100.245 40.6898 100.255L29.7998 104.34C29.6848 104.38 29.6198 104.5 29.6398 104.62C29.6598 104.74 29.7648 104.825 29.8848 104.825ZM40.8148 100.745H66.0748L56.5198 104.33H31.2598L40.8148 100.745Z" fill="#07064E"></path>
<path d="M29.8848 106.19H56.5648C56.5948 106.19 56.6248 106.185 56.6548 106.175L67.5448 102.09C67.6748 102.04 67.7398 101.9 67.6898 101.77C67.6398 101.64 67.4948 101.575 67.3698 101.625L56.5248 105.69H29.8898C29.7498 105.69 29.6398 105.8 29.6398 105.94C29.6398 106.08 29.7498 106.19 29.8898 106.19H29.8848Z" fill="#07064E"></path>
<path d="M67.3648 102.98L56.5198 107.045H29.8848C29.7448 107.045 29.6348 107.155 29.6348 107.295C29.6348 107.435 29.7448 107.545 29.8848 107.545H56.5648C56.5948 107.545 56.6248 107.54 56.6548 107.53L67.5448 103.445C67.6748 103.395 67.7398 103.255 67.6898 103.125C67.6398 102.995 67.4948 102.93 67.3698 102.98H67.3648Z" fill="#07064E"></path>
<path d="M67.3648 104.345L56.5198 108.41H29.8848C29.7448 108.41 29.6348 108.52 29.6348 108.66C29.6348 108.8 29.7448 108.91 29.8848 108.91H56.5648C56.5948 108.91 56.6248 108.905 56.6548 108.895L67.5448 104.81C67.6748 104.76 67.7398 104.62 67.6898 104.49C67.6398 104.36 67.4948 104.295 67.3698 104.345H67.3648Z" fill="#07064E"></path>
<path d="M67.3648 105.705L56.5198 109.77H29.8848C29.7448 109.77 29.6348 109.88 29.6348 110.02C29.6348 110.16 29.7448 110.27 29.8848 110.27H56.5648C56.5948 110.27 56.6248 110.265 56.6548 110.255L67.5448 106.17C67.6748 106.12 67.7398 105.98 67.6898 105.85C67.6398 105.72 67.4948 105.655 67.3698 105.705H67.3648Z" fill="#07064E"></path>
</g>
</g>
<path id="Vector_15" d="M117.755 97.5647C117.42 99.0147 116.11 100.11 114.56 100.11H79.57C78.02 100.11 76.715 99.0197 76.375 97.5647C54.91 100.68 78.135 103.775 97.065 103.635C116 103.77 139.205 100.675 117.755 97.5647Z" fill="#2AEDB4"></path>
<path id="Vector_16" d="M58.4148 22.2698H135.715C138.895 22.2698 141.475 24.8498 141.475 28.0298V70.1548H52.6548V28.0348C52.6548 24.8548 55.2348 22.2748 58.4148 22.2748V22.2698Z" fill="#EDEDED"></path>
<g id="Group_3">
<path id="Vector_17" d="M52.4648 70.0598V73.1848C52.4648 76.3548 55.0598 78.9448 58.2248 78.9448H89.5148V93.2448H104.61V78.9448H135.53C138.7 78.9448 141.29 76.3498 141.29 73.1848V70.0598H52.4648Z" fill="white"></path>
<path id="Vector_18" d="M114.56 93.2649H79.57C77.765 93.2649 76.29 94.7399 76.29 96.5449C76.29 98.3499 77.765 99.8249 79.57 99.8249H114.56C116.365 99.8249 117.84 98.3499 117.84 96.5449C117.84 94.7399 116.365 93.2649 114.56 93.2649Z" fill="white"></path>
</g>
<path id="Vector_19" d="M89.7346 78.8347C89.7346 78.8797 89.7246 78.9247 89.7246 78.9697C89.7246 82.6747 93.0096 85.6797 97.0596 85.6797C101.11 85.6797 104.395 82.6747 104.395 78.9697C104.395 78.9247 104.39 78.8797 104.385 78.8347H89.7246H89.7346Z" fill="#EBEBEB"></path>
<path id="Vector_20" d="M135.715 22.0198H58.4148C55.0998 22.0198 52.4048 24.7148 52.4048 28.0298V73.2548C52.4048 76.5698 55.0998 79.2648 58.4148 79.2648H89.2448V93.0098H79.5698C77.6248 93.0098 76.0398 94.5948 76.0398 96.5398C76.0398 98.4848 77.6248 100.07 79.5698 100.07H114.56C116.505 100.07 118.09 98.4848 118.09 96.5398C118.09 94.5948 116.505 93.0098 114.56 93.0098H104.885V79.2648H135.715C139.03 79.2648 141.725 76.5698 141.725 73.2548V28.0348C141.725 24.7198 139.03 22.0248 135.715 22.0248V22.0198ZM58.4148 22.5198H135.715C138.755 22.5198 141.225 24.9948 141.225 28.0298V69.8798H52.9048V28.0348C52.9048 24.9948 55.3798 22.5248 58.4148 22.5248V22.5198ZM89.7448 93.0148V79.2698H104.385V93.0148H89.7448ZM117.59 96.5448C117.59 98.2148 116.23 99.5748 114.56 99.5748H79.5698C77.8998 99.5748 76.5398 98.2148 76.5398 96.5448C76.5398 94.8748 77.8998 93.5148 79.5698 93.5148H89.3248C89.3698 93.5598 89.4298 93.5848 89.4948 93.5848C89.5598 93.5848 89.6198 93.5598 89.6648 93.5148H114.56C116.23 93.5148 117.59 94.8748 117.59 96.5448ZM135.715 78.7698H58.4148C55.3748 78.7698 52.9048 76.2948 52.9048 73.2598V70.3848H141.23V73.2598C141.23 76.2998 138.755 78.7698 135.72 78.7698H135.715Z" fill="#07064E"></path>
<path id="Vector_21" d="M129.33 28.8948H64.4349C62.0905 28.8948 60.1899 30.7953 60.1899 33.1398V61.4048C60.1899 63.7492 62.0905 65.6498 64.4349 65.6498H129.33C131.674 65.6498 133.575 63.7492 133.575 61.4048V33.1398C133.575 30.7953 131.674 28.8948 129.33 28.8948Z" fill="#DDDDDD"></path>
<path id="Vector_22" d="M129.33 26.8547H64.4349C62.0905 26.8547 60.1899 28.7553 60.1899 31.0997V59.3647C60.1899 61.7092 62.0905 63.6097 64.4349 63.6097H129.33C131.674 63.6097 133.575 61.7092 133.575 59.3647V31.0997C133.575 28.7553 131.674 26.8547 129.33 26.8547Z" fill="white"></path>
<path id="Vector_23" d="M63.4249 26.2898H130.34C132.125 26.2898 133.57 27.7398 133.57 29.5198V33.3348H60.1899V29.5198C60.1899 27.7348 61.6399 26.2898 63.4199 26.2898H63.4249Z" fill="#07064E"></path>
<path id="Vector_24" d="M121.875 31.6899C122.913 31.6899 123.755 30.8482 123.755 29.8099C123.755 28.7716 122.913 27.9299 121.875 27.9299C120.836 27.9299 119.995 28.7716 119.995 29.8099C119.995 30.8482 120.836 31.6899 121.875 31.6899Z" fill="white"></path>
<path id="Vector_25" d="M127.32 31.6899C128.358 31.6899 129.2 30.8482 129.2 29.8099C129.2 28.7716 128.358 27.9299 127.32 27.9299C126.282 27.9299 125.44 28.7716 125.44 29.8099C125.44 30.8482 126.282 31.6899 127.32 31.6899Z" fill="#2BF5BA"></path>
<g id="Vector_26">
<path d="M93.2149 39.2798H72.5699C71.6172 39.2798 70.8449 40.0521 70.8449 41.0048V42.4398C70.8449 43.3925 71.6172 44.1648 72.5699 44.1648H93.2149C94.1676 44.1648 94.9399 43.3925 94.9399 42.4398V41.0048C94.9399 40.0521 94.1676 39.2798 93.2149 39.2798Z" fill="#2BF5BA"></path>
<path d="M67.3099 39.2848H66.7699L65.3149 40.5398L65.5199 40.8298C65.5199 40.8298 65.5499 40.8598 65.5699 40.8748C65.5899 40.8898 65.6149 40.8998 65.6449 40.9048C65.6749 40.9048 65.7049 40.9048 65.7349 40.9048C65.7649 40.8998 65.7999 40.8848 65.8299 40.8598L66.6549 40.1598C66.6499 40.2698 66.6449 40.3748 66.6449 40.4748V43.6648H65.6149V44.1698H68.2449V43.6648H67.3049V39.2948L67.3099 39.2848Z" fill="#2BF5BA"></path>
</g>
<g id="Vector_27">
<path d="M93.2152 51.7449H72.5702C71.6175 51.7449 70.8452 52.5172 70.8452 53.4699V54.9049C70.8452 55.8576 71.6175 56.6299 72.5702 56.6299H93.2152C94.1679 56.6299 94.9402 55.8576 94.9402 54.9049V53.4699C94.9402 52.5172 94.1679 51.7449 93.2152 51.7449Z" fill="#EBEBEB"></path>
<path d="M68.3602 56.0749C68.4302 56.0749 68.4902 56.0949 68.5302 56.1399C68.5702 56.1849 68.5902 56.2349 68.5902 56.3049V56.7049H65.3252V56.4799C65.3252 56.4349 65.3352 56.3849 65.3502 56.3349C65.3702 56.2849 65.4002 56.2399 65.4402 56.1999L66.9802 54.6599C67.1102 54.5299 67.2252 54.4049 67.3302 54.2849C67.4352 54.1649 67.5202 54.0449 67.5952 53.9299C67.6652 53.8099 67.7252 53.6899 67.7652 53.5649C67.8052 53.4399 67.8252 53.3099 67.8252 53.1699C67.8252 53.0299 67.8052 52.9149 67.7602 52.8149C67.7152 52.7099 67.6602 52.6249 67.5852 52.5599C67.5102 52.4899 67.4252 52.4399 67.3202 52.4049C67.2202 52.3699 67.1102 52.3549 66.9902 52.3549C66.8702 52.3549 66.7652 52.3699 66.6652 52.4049C66.5652 52.4399 66.4802 52.4849 66.4002 52.5449C66.3252 52.6049 66.2602 52.6799 66.2052 52.7599C66.1552 52.8449 66.1152 52.9349 66.0952 53.0299C66.0652 53.1149 66.0252 53.1749 65.9752 53.2049C65.9252 53.2349 65.8552 53.2399 65.7652 53.2249L65.4202 53.1649C65.4502 52.9399 65.5152 52.7399 65.6052 52.5699C65.6952 52.3999 65.8152 52.2549 65.9552 52.1399C66.0952 52.0249 66.2552 51.9349 66.4402 51.8799C66.6202 51.8199 66.8202 51.7899 67.0302 51.7899C67.2402 51.7899 67.4402 51.8199 67.6202 51.8849C67.8002 51.9449 67.9552 52.0349 68.0852 52.1549C68.2152 52.2699 68.3202 52.4149 68.3952 52.5849C68.4702 52.7549 68.5052 52.9449 68.5052 53.1549C68.5052 53.3349 68.4802 53.5049 68.4252 53.6599C68.3702 53.8149 68.3002 53.9599 68.2102 54.0999C68.1202 54.2399 68.0102 54.3749 67.8902 54.5099C67.7702 54.6449 67.6402 54.7749 67.5052 54.9099L66.2702 56.1699C66.3652 56.1449 66.4602 56.1249 66.5552 56.1099C66.6502 56.0949 66.7402 56.0849 66.8302 56.0849H68.3652L68.3602 56.0749Z" fill="#EBEBEB"></path>
</g>
<g id="Vector_28">
<path d="M93.2152 50.4399H72.5702C71.6175 50.4399 70.8452 51.2123 70.8452 52.1649V53.5999C70.8452 54.5526 71.6175 55.3249 72.5702 55.3249H93.2152C94.1679 55.3249 94.9402 54.5526 94.9402 53.5999V52.1649C94.9402 51.2123 94.1679 50.4399 93.2152 50.4399Z" fill="#07064E"></path>
<path d="M68.3602 54.7149C68.4302 54.7149 68.4902 54.7349 68.5302 54.7799C68.5702 54.8249 68.5902 54.8749 68.5902 54.9449V55.3449H65.3252V55.1199C65.3252 55.0749 65.3352 55.0249 65.3502 54.9749C65.3702 54.9249 65.4002 54.8799 65.4402 54.8399L66.9802 53.2999C67.1102 53.1699 67.2252 53.0449 67.3302 52.9249C67.4352 52.8049 67.5202 52.6849 67.5952 52.5699C67.6652 52.4499 67.7252 52.3299 67.7652 52.2049C67.8052 52.0799 67.8252 51.9499 67.8252 51.8099C67.8252 51.6699 67.8052 51.5549 67.7602 51.4549C67.7152 51.3499 67.6602 51.2649 67.5852 51.1999C67.5102 51.1299 67.4252 51.0799 67.3202 51.0449C67.2202 51.0099 67.1102 50.9949 66.9902 50.9949C66.8702 50.9949 66.7652 51.0099 66.6652 51.0449C66.5652 51.0799 66.4802 51.1249 66.4002 51.1849C66.3252 51.2449 66.2602 51.3199 66.2052 51.3999C66.1552 51.4849 66.1152 51.5749 66.0952 51.6699C66.0652 51.7549 66.0252 51.8149 65.9752 51.8449C65.9252 51.8749 65.8552 51.8799 65.7652 51.8649L65.4202 51.8049C65.4502 51.5799 65.5152 51.3799 65.6052 51.2099C65.6952 51.0399 65.8152 50.8949 65.9552 50.7799C66.0952 50.6649 66.2552 50.5749 66.4402 50.5199C66.6202 50.4599 66.8202 50.4299 67.0302 50.4299C67.2402 50.4299 67.4402 50.4599 67.6202 50.5249C67.8002 50.5849 67.9552 50.6749 68.0852 50.7949C68.2152 50.9099 68.3202 51.0549 68.3952 51.2249C68.4702 51.3949 68.5052 51.5849 68.5052 51.7949C68.5052 51.9749 68.4802 52.1449 68.4252 52.2999C68.3702 52.4549 68.3002 52.5999 68.2102 52.7399C68.1202 52.8799 68.0102 53.0149 67.8902 53.1499C67.7702 53.2849 67.6402 53.4149 67.5052 53.5499L66.2702 54.8099C66.3652 54.7849 66.4602 54.7649 66.5552 54.7499C66.6502 54.7349 66.7402 54.7249 66.8302 54.7249H68.3652L68.3602 54.7149Z" fill="#07064E"></path>
</g>
<g id="Vector_29">
<path d="M127.175 50.4399H106.53C105.577 50.4399 104.805 51.2123 104.805 52.1649V53.5999C104.805 54.5526 105.577 55.3249 106.53 55.3249H127.175C128.128 55.3249 128.9 54.5526 128.9 53.5999V52.1649C128.9 51.2123 128.128 50.4399 127.175 50.4399Z" fill="#2BF5BA"></path>
<path d="M102.055 50.4999H101.43L99.0801 53.6249L99.1501 53.9649C99.1601 54.0099 99.1851 54.0449 99.2201 54.0699C99.2551 54.0999 99.2951 54.1099 99.3451 54.1099H101.48V55.3649H102.06V54.1099H102.62C102.665 54.1099 102.7 54.0949 102.725 54.0699C102.75 54.0449 102.76 54.0099 102.76 53.9699V53.5849H102.055V50.4899V50.4999ZM101.485 51.4849C101.485 51.5599 101.48 51.6299 101.48 51.6949V53.5899H99.8051L101.51 51.2549C101.5 51.3349 101.49 51.4099 101.49 51.4849H101.485Z" fill="#2BF5BA"></path>
</g>
<g id="Vector_30">
<path d="M127.175 39.2798H106.53C105.577 39.2798 104.805 40.0521 104.805 41.0048V42.4398C104.805 43.3925 105.577 44.1648 106.53 44.1648H127.175C128.128 44.1648 128.9 43.3925 128.9 42.4398V41.0048C128.9 40.0521 128.128 39.2798 127.175 39.2798Z" fill="#FFC391"></path>
<path d="M101.635 41.6448C101.76 41.6048 101.875 41.5548 101.975 41.4898C102.075 41.4298 102.165 41.3498 102.235 41.2598C102.305 41.1698 102.36 41.0648 102.4 40.9448C102.44 40.8248 102.46 40.6898 102.46 40.5298C102.46 40.3448 102.425 40.1748 102.355 40.0198C102.285 39.8648 102.185 39.7348 102.06 39.6248C101.935 39.5148 101.785 39.4298 101.61 39.3698C101.435 39.3098 101.24 39.2798 101.03 39.2798C100.82 39.2798 100.625 39.3098 100.44 39.3698C100.26 39.4298 100.095 39.5148 99.955 39.6298C99.815 39.7448 99.7 39.8898 99.605 40.0598C99.51 40.2298 99.45 40.4298 99.415 40.6548L99.765 40.7148C99.855 40.7298 99.925 40.7248 99.975 40.6948C100.025 40.6648 100.065 40.6098 100.095 40.5198C100.12 40.4248 100.155 40.3298 100.205 40.2498C100.255 40.1648 100.32 40.0948 100.4 40.0348C100.475 39.9748 100.565 39.9248 100.665 39.8948C100.765 39.8598 100.875 39.8448 100.99 39.8448C101.105 39.8448 101.215 39.8598 101.315 39.8948C101.415 39.9298 101.505 39.9748 101.575 40.0448C101.65 40.1098 101.705 40.1948 101.745 40.2948C101.785 40.3948 101.805 40.5098 101.805 40.6448C101.805 40.7648 101.785 40.8798 101.745 40.9748C101.705 41.0748 101.64 41.1598 101.555 41.2298C101.465 41.2998 101.35 41.3598 101.21 41.3998C101.065 41.4398 100.89 41.4598 100.685 41.4648V41.9448C100.94 41.9448 101.145 41.9648 101.3 42.0098C101.455 42.0548 101.58 42.1098 101.67 42.1898C101.76 42.2648 101.82 42.3548 101.85 42.4648C101.88 42.5698 101.9 42.6848 101.9 42.8148C101.9 42.9148 101.88 43.0198 101.84 43.1248C101.8 43.2298 101.74 43.3248 101.655 43.4098C101.575 43.4948 101.47 43.5648 101.35 43.6148C101.23 43.6698 101.085 43.6948 100.925 43.6948C100.765 43.6948 100.615 43.6698 100.505 43.6148C100.395 43.5648 100.3 43.4998 100.225 43.4248C100.15 43.3498 100.09 43.2698 100.045 43.1848C100 43.0998 99.96 43.0248 99.93 42.9548C99.9 42.8898 99.85 42.8498 99.775 42.8348C99.705 42.8198 99.635 42.8348 99.56 42.8598L99.27 42.9798C99.33 43.1648 99.4 43.3398 99.485 43.4948C99.57 43.6498 99.675 43.7848 99.805 43.8998C99.935 44.0148 100.09 44.0998 100.275 44.1598C100.46 44.2198 100.675 44.2548 100.93 44.2548C101.155 44.2548 101.365 44.2198 101.56 44.1548C101.76 44.0898 101.93 43.9898 102.08 43.8648C102.23 43.7398 102.345 43.5848 102.43 43.4048C102.515 43.2248 102.56 43.0198 102.56 42.7898C102.56 42.4948 102.48 42.2498 102.325 42.0548C102.17 41.8598 101.935 41.7198 101.625 41.6348L101.635 41.6448Z" fill="#FFC391"></path>
</g>
<path id="Vector_31" d="M145.69 57.3349C142.525 57.4599 140.555 59.4349 139.49 61.2199C138.085 63.5699 138.11 68.3599 138.365 70.2699C138.485 71.1849 138.905 79.4399 138.765 80.5899C139.385 79.8249 143.77 77.8649 146.1 77.3449C150.64 76.3399 152.84 75.5849 155.23 73.4349C158.04 70.9049 161.01 65.1549 157.44 61.4049C155.56 59.4299 150.3 59.4849 150.3 59.4849C150.3 59.4849 148.42 57.2249 145.695 57.3349H145.69Z" fill="#2BF5BA"></path>
<path id="Vector_32" d="M166.175 103.04C171.637 103.04 176.065 102.221 176.065 101.21C176.065 100.199 171.637 99.3799 166.175 99.3799C160.713 99.3799 156.285 100.199 156.285 101.21C156.285 102.221 160.713 103.04 166.175 103.04Z" fill="#2AEDB4"></path>
<path id="Vector_33" d="M178.505 77.0447H153.845V84.6247H163.715L155.605 84.6397L159.33 101.13H173.02L176.75 84.6247H178.505V77.0447Z" fill="#FFC391"></path>
<g id="Vector_34">
<path d="M159.055 65.2198C159.015 63.9098 158.305 62.4848 157.46 61.4848C156.57 60.4348 154.875 59.6298 151.59 59.5098C152.445 63.9898 152.36 69.6298 148.37 72.2848C144.02 75.1848 141.555 76.2648 138.785 79.8748C138.785 80.1998 138.785 80.4448 138.765 80.5898C139.385 79.8248 144.705 77.7148 147.025 77.1448C150.72 76.2348 152.175 75.9948 154.645 73.9348C157.18 71.8198 159.175 68.9998 159.06 65.2198H159.055Z" fill="#2AEDB4"></path>
<path d="M156 36.4548C157.135 36.4548 158.34 35.8998 159.18 35.2248C160.06 34.5148 160.7 33.1398 160.69 30.4348C156.84 31.0398 151.96 30.8448 149.525 27.5048C146.87 23.8598 145.85 21.8048 142.635 19.4448C142.355 19.4448 142.14 19.4298 142.02 19.4148C142.705 19.9398 144.71 24.3698 145.28 26.2898C146.19 29.3498 146.45 30.5548 148.315 32.6298C150.23 34.7648 152.74 36.4698 156.005 36.4598L156 36.4548Z" fill="#2AEDB4"></path>
<path d="M176.47 45.7648C175.36 45.9848 174.065 45.6848 173.11 45.1848C172.11 44.6648 171.21 43.4398 170.685 40.7898C175.625 42.8598 180.67 41.4448 182.395 37.6848C184.28 33.5848 183.525 29.3898 186.21 26.4448C186.485 26.3848 186.69 26.3298 186.81 26.2898C186.245 26.9398 185.155 31.6798 184.975 33.6748C184.69 36.8548 184.67 38.0848 183.255 40.4898C181.8 42.9598 179.68 45.1298 176.475 45.7648H176.47Z" fill="#2AEDB4"></path>
<path d="M172.715 62.2448C172.27 61.3648 172.22 60.2098 172.415 59.2948C172.62 58.3298 173.43 57.2898 175.535 56.2298C176.59 59.4548 178.32 60.8998 181.875 61.4648C185.755 62.0848 188.1 64.3298 191.2 65.8898C191.315 66.1048 191.405 66.2648 191.47 66.3548C190.79 66.0348 186.565 66.2298 184.845 66.5448C182.11 67.0498 181.075 67.3248 178.725 66.6998C176.31 66.0598 173.995 64.7848 172.715 62.2498V62.2448Z" fill="#2AEDB4"></path>
<path d="M161.375 50.7998C161.915 50.0398 162.185 48.9648 162.215 48.0748C162.245 47.1398 162.075 47.0798 161.895 46.8148C160.39 49.6798 156.375 50.7548 153.385 50.7498C150.12 50.7398 148.515 50.4198 145.69 51.4098C145.555 51.5948 145.445 51.7348 145.38 51.8048C145.995 51.6048 149.375 52.4298 150.7 52.9898C152.81 53.8798 153.59 54.2898 155.62 54.0648C157.7 53.8298 159.83 52.9898 161.38 50.7998H161.375Z" fill="#2AEDB4"></path>
</g>
<path id="Vector_35" d="M178.505 77.0198H178.46L169.22 77.0348C169.66 79.5348 169.25 82.0598 169.36 84.5998H171.3C171.595 90.7748 170.905 97.0398 168.585 100.995L173.02 101.13L176.755 84.6048H178.505V77.0248V77.0198Z" fill="#FFAF6E"></path>
<path id="Vector_36" d="M191.675 66.2098C191.185 65.5148 188.5 59.9298 188.255 59.3048C187.74 57.9898 186 54.7098 184.17 53.5248C183.09 52.8248 180.915 51.7998 178.5 52.7848C176.945 53.4248 176.365 54.9248 176.19 55.5148C175.48 55.4098 174.785 55.4398 174.1 55.6148C170.94 56.4248 169.1 59.9198 168.61 60.9698C168.61 60.9798 168.605 60.9898 168.6 60.9948C168.315 59.0148 168.045 57.1298 167.835 55.4048C167.415 51.9648 167.815 47.7098 168.91 44.0248C169.25 42.8848 169.715 41.5998 170.345 40.2998C170.585 41.5098 171.325 44.4298 172.915 45.3898C173.75 45.8898 174.625 46.1048 175.505 46.1048C178.545 46.1048 181.63 43.5248 183.12 41.1898C184.66 38.7798 185.015 36.7698 185.275 32.8898C185.41 30.8998 186.505 27.0148 187 26.4448C187.075 26.3598 187.08 26.2348 187.02 26.1398C186.955 26.0448 186.835 26.0048 186.73 26.0448C185.805 26.3698 178.79 27.6198 178.025 27.6998C176.415 27.8598 172.26 28.7698 170.395 30.4248C169.29 31.3998 167.495 33.4798 167.84 36.4348C168.05 38.2448 169.4 39.3348 170.045 39.7548C167.395 44.9848 166.845 51.4248 167.34 55.4648C167.58 57.4398 167.895 59.6148 168.23 61.9198C166.85 65.7748 166.75 71.7848 166.835 76.7648H166.515C166.37 76.0948 166.275 75.0748 166.165 73.8998C165.92 71.2448 165.585 67.6098 164.37 65.1948C163.99 64.4348 163.49 63.5298 162.9 62.6048C162.885 58.0198 163.385 52.8248 165.065 47.6748C168.15 38.2098 164.895 33.0298 160.925 29.4748C161.335 29.1148 162.795 27.6698 162.62 25.6048C162.375 22.6398 160.2 20.9548 158.925 20.2198C156.765 18.9698 152.515 18.8948 150.905 19.0598C150.14 19.1348 143.01 19.2948 142.045 19.1598C141.935 19.1498 141.825 19.2048 141.78 19.3098C141.735 19.4148 141.77 19.5348 141.86 19.6048C142.46 20.0648 144.3 23.6548 144.825 25.5848C145.845 29.3348 146.595 31.2348 148.58 33.2948C150.26 35.0348 153.165 36.7198 155.86 36.7198C157.145 36.7198 158.385 36.3348 159.415 35.3898C160.695 34.2198 160.905 31.5248 160.925 30.1648C164.575 33.5798 167.42 38.5248 164.675 47.2398C163.75 45.5848 162.515 44.5448 160.99 44.1548C160.645 44.0648 160.3 44.0198 159.965 43.9998C159.945 43.4298 159.79 41.9048 158.63 41.0498C156.85 39.7348 154.86 40.3748 153.83 40.8748C152.105 41.7098 150.035 44.5198 149.355 45.6748C149.03 46.2248 145.73 51.0548 145.195 51.6348C145.12 51.7198 145.105 51.8448 145.17 51.9398C145.23 52.0348 145.35 52.0798 145.46 52.0448C145.985 51.8698 148.79 52.3998 150.08 52.9798C152.09 53.8898 153.39 54.3548 154.87 54.3548C155.275 54.3548 155.69 54.3198 156.14 54.2498C158.745 53.8498 162.565 51.5898 162.49 48.0148C162.46 46.6648 161.245 45.2898 160.48 44.5598C160.61 44.5798 160.74 44.6098 160.87 44.6398C162.38 45.0248 163.59 46.1248 164.47 47.9048C162.96 52.7098 162.44 57.5298 162.405 61.8548C160.81 59.5448 158.63 57.2748 156.05 56.8748C154.125 56.5798 152.215 57.3598 150.37 59.1848C149.905 58.6848 148.14 56.9848 145.685 57.0798C142.105 57.2198 140.135 59.6498 139.28 61.0848C137.83 63.5198 137.875 68.4298 138.12 70.2948C138.235 71.1848 138.655 79.4348 138.52 80.5498C138.505 80.6598 138.57 80.7648 138.67 80.8098C138.7 80.8248 138.735 80.8298 138.765 80.8298C138.84 80.8298 138.91 80.7948 138.96 80.7348C139.515 80.0448 143.77 78.1098 146.155 77.5798C150.675 76.5798 152.96 75.8048 155.395 73.6098C157.265 71.9248 159.205 68.8698 159.32 65.8298C159.39 64.0298 158.815 62.4798 157.62 61.2198C156.095 59.6198 152.57 59.2998 151.03 59.2348C152.655 57.7398 154.315 57.1048 155.97 57.3598C158.615 57.7698 160.84 60.3148 162.4 62.7398C162.425 67.6098 163.025 71.7798 163.415 74.4648C163.555 75.4248 163.665 76.2048 163.715 76.7548H153.89C153.845 76.7548 153.8 76.7698 153.76 76.7948C153.665 76.8298 153.6 76.9198 153.6 77.0248V84.6048C153.6 84.7448 153.71 84.8548 153.85 84.8548H155.405L157.95 96.1198L159.09 101.16C159.115 101.275 159.215 101.355 159.335 101.355H173.025C173.14 101.355 173.245 101.275 173.27 101.16L176.955 84.8498H178.51C178.65 84.8498 178.76 84.7398 178.76 84.5998V77.0198C178.76 76.9148 178.695 76.8248 178.6 76.7898C178.56 76.7648 178.52 76.7498 178.47 76.7498H170.26C170.395 73.3698 169.56 67.5948 168.745 62.0048C168.745 61.9848 168.74 61.9698 168.735 61.9498C168.835 61.6748 168.945 61.4098 169.06 61.1648C169.39 60.4498 171.195 56.8548 174.22 56.0848C174.65 55.9748 175.085 55.9298 175.525 55.9448C174.45 56.5248 172.55 57.7248 172.155 59.1498C171.145 62.8048 175.1 65.8548 178.085 66.7648C179.15 67.0898 180.095 67.2348 181.105 67.2348C182.36 67.2348 183.725 67.0098 185.565 66.6298C187.265 66.2748 190.765 66.2848 191.355 66.5648C191.46 66.6148 191.58 66.5848 191.655 66.4998C191.73 66.4148 191.735 66.2898 191.67 66.1948L191.675 66.2098ZM168.33 36.3848C168.01 33.6548 169.69 31.7198 170.72 30.8048C172.5 29.2298 176.515 28.3598 178.07 28.2048C178.7 28.1398 184.285 27.1648 186.295 26.6848C185.68 28.0448 184.89 31.1298 184.775 32.8648C184.51 36.8298 184.155 38.6448 182.7 40.9298C179.625 45.7448 175.2 46.1848 173.175 44.9698C171.39 43.8948 170.75 39.7498 170.745 39.7098C170.74 39.6748 170.725 39.6398 170.705 39.6098C171.855 37.4548 173.475 35.3348 175.77 33.8448C175.885 33.7698 175.92 33.6148 175.845 33.4998C175.77 33.3848 175.615 33.3498 175.5 33.4248C173.25 34.8848 171.545 36.9648 170.28 39.3148C169.695 38.9148 168.52 37.9348 168.335 36.3848H168.33ZM160.545 29.1448C159.4 28.1548 158.205 27.2948 157.105 26.4948C155.96 25.6698 154.885 24.8848 154.095 24.1248C153.995 24.0298 153.835 24.0298 153.74 24.1298C153.645 24.2298 153.645 24.3898 153.745 24.4848C154.56 25.2698 155.655 26.0648 156.81 26.8998C157.97 27.7398 159.225 28.6498 160.425 29.7098C160.435 30.7198 160.365 33.8448 159.075 35.0198C157.33 36.6148 152.905 37.0598 148.94 32.9448C147.06 30.9948 146.355 29.2848 145.31 25.4498C144.855 23.7748 143.47 20.9048 142.595 19.6948C144.655 19.7648 150.325 19.6198 150.955 19.5548C152.515 19.3998 156.62 19.4598 158.675 20.6498C159.865 21.3398 161.895 22.9048 162.12 25.6448C162.28 27.5698 160.78 28.9348 160.545 29.1398V29.1448ZM161.985 48.0298C162.025 49.9648 160.175 53.1248 156.06 53.7598C154.12 54.0598 152.86 53.6948 150.28 52.5298C149.26 52.0648 147.095 51.5648 145.925 51.5248C146.98 50.1248 149.525 46.3798 149.785 45.9348C150.44 44.8198 152.425 42.1148 154.045 41.3298C154.97 40.8798 156.76 40.2998 158.33 41.4598C159.28 42.1598 159.435 43.4798 159.46 43.9998C157.8 44.0398 156.395 44.7448 155.895 45.0998C155.265 45.5448 154.685 46.1048 154.12 46.6448C153.315 47.4198 152.555 48.1498 151.775 48.4248C151.645 48.4698 151.575 48.6148 151.625 48.7448C151.66 48.8498 151.76 48.9098 151.86 48.9098C151.89 48.9098 151.915 48.9098 151.945 48.8948C152.825 48.5798 153.625 47.8148 154.47 46.9998C155.02 46.4748 155.585 45.9248 156.185 45.5048C156.63 45.1898 158.04 44.4898 159.655 44.4948C160.09 44.8598 161.955 46.5248 161.985 48.0298ZM157.255 61.5798C158.355 62.7348 158.885 64.1648 158.82 65.8248C158.71 68.7198 156.85 71.6398 155.06 73.2548C152.74 75.3398 150.685 76.0798 146.045 77.1048C144.025 77.5548 140.415 79.0998 139.04 80.0398C139.075 77.7748 138.71 70.9848 138.61 70.2398C138.375 68.4298 138.32 63.6748 139.705 61.3498C140.51 59.9998 142.36 57.7198 145.7 57.5898C147.94 57.4948 149.615 59.1248 150.01 59.5498C148.21 61.4798 147.63 63.3148 147.02 65.2498C146.355 67.3798 145.595 69.7948 143.05 72.8498C142.96 72.9548 142.975 73.1148 143.08 73.2048C143.185 73.2898 143.345 73.2798 143.43 73.1748C146.04 70.0398 146.81 67.5798 147.49 65.4048C148.12 63.3898 148.67 61.6448 150.51 59.7448C151.52 59.7598 155.675 59.9398 157.245 61.5898L157.255 61.5798ZM163.905 74.4098C163.54 71.8948 162.99 68.0648 162.905 63.5798C163.3 64.2398 163.64 64.8748 163.915 65.4248C165.09 67.7548 165.42 71.3348 165.66 73.9498C165.765 75.0798 165.855 76.0748 165.995 76.7698H164.205C164.155 76.1998 164.045 75.4048 163.9 74.4048L163.905 74.4098ZM178.255 84.3748H163.65C163.51 84.3748 163.4 84.4848 163.4 84.6248C163.4 84.7648 163.51 84.8748 163.65 84.8748H176.435L172.82 100.88H159.53L155.915 84.8748H158.205C158.345 84.8748 158.455 84.7648 158.455 84.6248C158.455 84.4848 158.345 84.3748 158.205 84.3748H154.095V77.2948H178.255V84.3748ZM169.755 76.7698H167.33C167.25 72.2298 167.33 66.8298 168.39 63.0598C169.155 68.3348 169.89 73.6348 169.76 76.7698H169.755ZM185.47 66.1548C182.09 66.8598 180.49 66.9898 178.24 66.3048C175.82 65.5698 171.69 62.7548 172.645 59.2998C173.09 57.6848 176 56.2698 176.42 56.0748C177.35 56.2698 178.3 56.7148 179.265 57.4298C179.375 57.5098 179.535 57.4898 179.615 57.3748C179.695 57.2648 179.675 57.1048 179.56 57.0248C178.59 56.3098 177.63 55.8398 176.685 55.6148C176.86 55.0698 177.39 53.7848 178.69 53.2498C180.89 52.3498 182.895 53.2998 183.9 53.9448C185.63 55.0648 187.295 58.2148 187.79 59.4848C187.99 59.9948 190.07 64.3448 190.96 65.9698C189.605 65.7748 186.83 65.8698 185.475 66.1548H185.47Z" fill="#07064E"></path>
</g>
</g>
</g>
</g>
<defs>
<clipPath id="clip0_86_86">
<rect width="200" height="140" fill="white"></rect>
</clipPath>
</defs>
</svg>