<svg width="200" height="140" viewBox="0 0 200 140" fill="none" xmlns="http://www.w3.org/2000/svg">
<g id="illu_bg_forgot-password/Default" clip-path="url(#clip0_86_762)">
<g id="illu_bg_forgot-password">
<g id="illu_bg_forgot-password_2">
<g id="background">
<path d="M175.78 11.17C217.575 27.565 191.99 109.51 163.89 125.795C145.415 136.505 97.2851 114.695 56.9851 123.115C25.5751 129.675 15.8651 128.52 27.2851 105.13C39.3901 80.345 -1.87492 56.595 2.53508 28.745C5.23008 11.7 13.0901 3.68004 46.0501 7.07004C129.855 15.69 143.51 -1.48996 175.78 11.17Z" fill="#2BF5BA"></path>
<path d="M15.8849 131.832C19.0264 129.541 20.3715 126.036 18.8893 124.004C17.4071 121.971 13.6588 122.18 10.5173 124.471C7.37574 126.762 6.03059 130.267 7.51281 132.299C8.99502 134.332 12.7433 134.123 15.8849 131.832Z" fill="#2BF5BA"></path>
<path d="M193.33 104.873C195.153 103.932 196.143 102.223 195.54 101.054C194.937 99.8863 192.971 99.7019 191.147 100.643C189.324 101.583 188.334 103.293 188.937 104.461C189.54 105.629 191.506 105.814 193.33 104.873Z" fill="#2BF5BA"></path>
</g>
<g id="illu_bg_forgot-password_3">
<g id="stroke">
<path id="Vector" d="M186.89 99.915L17.8604 100.105C17.7954 100.105 17.7304 100.13 17.6854 100.18C17.6404 100.23 17.6104 100.29 17.6104 100.355C17.6104 100.495 17.7204 100.605 17.8604 100.605L186.89 100.415C187.03 100.415 187.14 100.305 187.14 100.165C187.14 100.025 187.03 99.915 186.89 99.915Z" fill="#07064E"></path>
<path id="Vector_2" d="M15.8251 100.105H12.7451C12.6051 100.105 12.4951 100.215 12.4951 100.355C12.4951 100.495 12.6051 100.605 12.7451 100.605H15.8251C15.9651 100.605 16.0751 100.495 16.0751 100.355C16.0751 100.215 15.9651 100.105 15.8251 100.105Z" fill="#2BF5BA"></path>
<g id="Group">
<g id="Vector_3">
<path d="M28.5349 53.86C36.8827 53.86 43.6499 46.9696 43.6499 38.47C43.6499 29.9703 36.8827 23.08 28.5349 23.08C20.1871 23.08 13.4199 29.9703 13.4199 38.47C13.4199 46.9696 20.1871 53.86 28.5349 53.86Z" fill="#2AEDB4"></path>
<path d="M28.9799 51.845C37.5735 51.845 44.5399 44.8517 44.5399 36.225C44.5399 27.5983 37.5735 20.605 28.9799 20.605C20.3864 20.605 13.4199 27.5983 13.4199 36.225C13.4199 44.8517 20.3864 51.845 28.9799 51.845Z" fill="#2AEDB4"></path>
</g>
<path id="Vector_4" d="M38.8004 23.875C40.2104 44.57 29.0804 48.895 22.5054 49.555C24.5204 50.565 26.7854 51.135 29.1804 51.135C37.5254 51.135 44.2954 44.245 44.2954 35.745C44.2954 30.965 42.1554 26.7 38.8004 23.875Z" fill="#00EBA6"></path>
<g id="Vector_5">
<path d="M29.1799 20.1001C20.7099 20.1001 13.8149 27.1151 13.8149 35.7401C13.8149 44.3651 20.7049 51.3801 29.1799 51.3801C37.6549 51.3801 44.5449 44.3651 44.5449 35.7401C44.5449 27.1151 37.6549 20.1001 29.1799 20.1001ZM29.1799 50.8851C20.9849 50.8851 14.3149 44.0951 14.3149 35.7451C14.3149 27.3951 20.9849 20.6051 29.1799 20.6051C37.3749 20.6051 44.0449 27.3951 44.0449 35.7451C44.0449 44.0951 37.3749 50.8851 29.1799 50.8851Z" fill="#07064E"></path>
<path d="M29.1099 23.2901C25.1799 23.2901 21.5649 25.0851 19.1849 28.2201C19.0999 28.3301 19.1249 28.4851 19.2349 28.5701C19.3449 28.6551 19.4999 28.6301 19.5849 28.5201C21.8699 25.5101 25.3399 23.7901 29.1099 23.7901C35.6999 23.7901 41.0649 29.1501 41.0649 35.7451C41.0649 42.3401 35.7049 47.7001 29.1099 47.7001C22.5149 47.7001 17.1549 42.3401 17.1549 35.7451C17.1549 34.1701 17.4549 32.6351 18.0549 31.1901C18.1099 31.0601 18.0449 30.9151 17.9199 30.8651C17.7899 30.8101 17.6449 30.8751 17.5949 31.0001C16.9749 32.5051 16.6599 34.1051 16.6599 35.7451C16.6599 42.6101 22.2449 48.2001 29.1149 48.2001C35.9849 48.2001 41.5699 42.6151 41.5699 35.7451C41.5699 28.8751 35.9849 23.2901 29.1149 23.2901H29.1099Z" fill="#07064E"></path>
<path d="M29.5949 37.0701C29.7349 37.0701 29.8449 36.9601 29.8449 36.8201V27.6301C29.8449 27.4901 29.7349 27.3801 29.5949 27.3801C29.4549 27.3801 29.3449 27.4901 29.3449 27.6301V36.5701H23.8749C23.7349 36.5701 23.6249 36.6801 23.6249 36.8201C23.6249 36.9601 23.7349 37.0701 23.8749 37.0701H29.5949Z" fill="#07064E"></path>
</g>
</g>
<g id="Group_2">
<path id="Vector_6" d="M121.505 85.1052C120.88 85.5502 120.165 85.7752 119.455 85.7952C119.325 85.8102 119.195 85.8102 119.06 85.7902H119.02C118.82 85.7652 118.625 85.7352 118.43 85.6852L111.33 84.4902H109.66C109.64 84.5552 109.62 84.6252 109.61 84.7002C109.475 85.5152 110.02 86.2852 110.835 86.4252L118.43 87.7052C118.625 87.7552 118.82 87.7852 119.02 87.8052H119.06C119.195 87.8352 119.325 87.8302 119.455 87.8202C120.165 87.8002 120.88 87.5752 121.505 87.1302L125.185 84.5102C125.185 84.5102 125.195 84.5002 125.205 84.4952H122.38L121.51 85.1152L121.505 85.1052Z" fill="#2AEDB4"></path>
<path id="Vector_7" d="M61.0201 28.355H137.305C140.445 28.355 142.99 30.905 142.99 34.04V75.615H55.3301V34.04C55.3301 30.9 57.8801 28.355 61.0151 28.355H61.0201Z" fill="#EDEDED"></path>
<path id="Vector_8" d="M132.825 19.7251H66.3801C63.9004 19.7251 61.8901 21.7353 61.8901 24.2151V71.0651C61.8901 73.5449 63.9004 75.5551 66.3801 75.5551H132.825C135.305 75.5551 137.315 73.5449 137.315 71.0651V24.2151C137.315 21.7353 135.305 19.7251 132.825 19.7251Z" fill="#DDDDDD"></path>
<path id="Vector_9" d="M119.58 102.45C119.245 103.885 117.96 104.96 116.43 104.96H81.8951C80.3651 104.96 79.0751 103.885 78.7451 102.45C57.5651 105.52 80.4851 108.575 99.1651 108.445C117.85 108.58 140.755 105.525 119.585 102.45H119.58Z" fill="#2AEDB4"></path>
<g id="Vector_10">
<path d="M106.605 84.23H91.71V98.4H106.605V84.23Z" fill="white"></path>
<path d="M55.145 75.52V78.605C55.145 81.735 57.705 84.29 60.83 84.29H91.77V98.345H81.96C80.15 98.345 78.685 99.81 78.685 101.62C78.685 103.43 80.15 104.895 81.96 104.895H116.365C118.175 104.895 119.64 103.43 119.64 101.62C119.64 99.81 118.175 98.345 116.365 98.345H106.55V84.29H137.12C140.25 84.29 142.805 81.73 142.805 78.605V75.52H55.145Z" fill="white"></path>
</g>
<path id="Vector_11" d="M126.645 80.375C126.415 81.2 125.92 81.96 125.185 82.485L122.73 84.235H125.505C126.59 83.26 127.025 81.73 126.645 80.375Z" fill="#EDEDED"></path>
<path id="Vector_12" d="M91.9298 84.1802C91.9298 84.2252 91.9248 84.2702 91.9248 84.3152C91.9248 87.9702 95.1648 90.9352 99.1648 90.9352C103.165 90.9352 106.405 87.9702 106.405 84.3152C106.405 84.2702 106.4 84.2252 106.4 84.1802H91.9348H91.9298Z" fill="#EBEBEB"></path>
<path id="Vector_13" d="M137.305 28.105H61.02C57.745 28.105 55.085 30.77 55.085 34.04V78.67C55.085 81.945 57.75 84.605 61.02 84.605H91.445V98.09H81.965C80.02 98.09 78.44 99.67 78.44 101.615C78.44 103.56 80.02 105.14 81.965 105.14H116.37C118.315 105.14 119.895 103.56 119.895 101.615C119.895 99.67 118.315 98.09 116.37 98.09H106.89V84.605H137.315C140.59 84.605 143.25 81.94 143.25 78.67V34.04C143.25 30.765 140.585 28.105 137.315 28.105H137.305ZM91.94 98.095V84.61H106.38V98.095H91.94ZM116.365 104.64H81.96C80.295 104.64 78.935 103.285 78.935 101.615C78.935 99.945 80.29 98.59 81.96 98.59H106.585L106.6 98.6H106.68L106.685 98.59H116.365C118.03 98.59 119.39 99.945 119.39 101.615C119.39 103.285 118.035 104.64 116.365 104.64ZM137.305 84.11H61.02C58.02 84.11 55.585 81.67 55.585 78.675V75.84H142.745V78.675C142.745 81.675 140.305 84.11 137.31 84.11H137.305ZM61.02 28.605H137.305C140.305 28.605 142.74 31.045 142.74 34.04V75.335H55.58V34.04C55.58 31.04 58.02 28.605 61.015 28.605H61.02Z" fill="#07064E"></path>
<g id="Group_3">
<path id="Vector_14" d="M132.825 17.6001H66.3801C63.9004 17.6001 61.8901 19.6103 61.8901 22.0901V68.9401C61.8901 71.4199 63.9004 73.4301 66.3801 73.4301H132.825C135.305 73.4301 137.315 71.4199 137.315 68.9401V22.0901C137.315 19.6103 135.305 17.6001 132.825 17.6001Z" fill="white"></path>
<path id="Vector_15" d="M123.81 64.1802H103.67C101.917 64.1802 100.495 65.6006 100.495 67.3527C100.495 69.1048 101.917 70.5252 103.67 70.5252H123.81C125.564 70.5252 126.985 69.1048 126.985 67.3527C126.985 65.6006 125.564 64.1802 123.81 64.1802Z" fill="#2BF5BA"></path>
<path id="Vector_16" d="M126.985 56.0049H72.2251C72.0851 56.0049 71.9751 56.1149 71.9751 56.2549C71.9751 56.3949 72.0851 56.5049 72.2251 56.5049H126.985C127.125 56.5049 127.235 56.3949 127.235 56.2549C127.235 56.1149 127.125 56.0049 126.985 56.0049Z" fill="#07064E"></path>
<g id="Vector_17">
<path d="M86.3848 52.0601C85.7848 52.0601 85.2998 52.5451 85.2998 53.1451C85.2998 53.7451 85.7848 54.2301 86.3848 54.2301C86.9848 54.2301 87.4698 53.7451 87.4698 53.1451C87.4698 52.5451 86.9848 52.0601 86.3848 52.0601Z" fill="#FFC391"></path>
<path d="M89.3248 52.0601C88.7248 52.0601 88.2398 52.5451 88.2398 53.1451C88.2398 53.7451 88.7248 54.2301 89.3248 54.2301C89.9248 54.2301 90.4098 53.7451 90.4098 53.1451C90.4098 52.5451 89.9248 52.0601 89.3248 52.0601Z" fill="#FFC391"></path>
<path d="M92.2648 52.0601C91.6648 52.0601 91.1798 52.5451 91.1798 53.1451C91.1798 53.7451 91.6648 54.2301 92.2648 54.2301C92.8648 54.2301 93.3498 53.7451 93.3498 53.1451C93.3498 52.5451 92.8648 52.0601 92.2648 52.0601Z" fill="#FFC391"></path>
<path d="M95.2048 52.0601C94.6048 52.0601 94.1198 52.5451 94.1198 53.1451C94.1198 53.7451 94.6048 54.2301 95.2048 54.2301C95.8048 54.2301 96.2898 53.7451 96.2898 53.1451C96.2898 52.5451 95.8048 52.0601 95.2048 52.0601Z" fill="#FFC391"></path>
<path d="M98.1448 52.0601C97.5448 52.0601 97.0598 52.5451 97.0598 53.1451C97.0598 53.7451 97.5448 54.2301 98.1448 54.2301C98.7448 54.2301 99.2298 53.7451 99.2298 53.1451C99.2298 52.5451 98.7448 52.0601 98.1448 52.0601Z" fill="#FFC391"></path>
<path d="M101.085 52.0601C100.485 52.0601 99.9998 52.5451 99.9998 53.1451C99.9998 53.7451 100.485 54.2301 101.085 54.2301C101.685 54.2301 102.17 53.7451 102.17 53.1451C102.17 52.5451 101.685 52.0601 101.085 52.0601Z" fill="#FFC391"></path>
<path d="M104 52.0601C103.4 52.0601 102.915 52.5451 102.915 53.1451C102.915 53.7451 103.4 54.2301 104 54.2301C104.6 54.2301 105.085 53.7451 105.085 53.1451C105.085 52.5451 104.6 52.0601 104 52.0601Z" fill="#FFC391"></path>
<path d="M106.94 52.0601C106.34 52.0601 105.855 52.5451 105.855 53.1451C105.855 53.7451 106.34 54.2301 106.94 54.2301C107.54 54.2301 108.025 53.7451 108.025 53.1451C108.025 52.5451 107.54 52.0601 106.94 52.0601Z" fill="#FFC391"></path>
<path d="M109.88 52.0601C109.28 52.0601 108.795 52.5451 108.795 53.1451C108.795 53.7451 109.28 54.2301 109.88 54.2301C110.48 54.2301 110.965 53.7451 110.965 53.1451C110.965 52.5451 110.48 52.0601 109.88 52.0601Z" fill="#FFC391"></path>
<path d="M112.82 52.0601C112.22 52.0601 111.735 52.5451 111.735 53.1451C111.735 53.7451 112.22 54.2301 112.82 54.2301C113.42 54.2301 113.905 53.7451 113.905 53.1451C113.905 52.5451 113.42 52.0601 112.82 52.0601Z" fill="#FFC391"></path>
</g>
<path id="Vector_18" d="M100.66 48.2649C104.788 48.2649 108.135 44.9183 108.135 40.7899C108.135 36.6616 104.788 33.3149 100.66 33.3149C96.5317 33.3149 93.1851 36.6616 93.1851 40.7899C93.1851 44.9183 96.5317 48.2649 100.66 48.2649Z" fill="#2BF5BA"></path>
<path id="Vector_19" d="M98.5001 37.4852C98.6251 37.3752 98.7651 37.2652 98.9151 37.1652C99.0651 37.0652 99.2301 36.9752 99.4051 36.9002C99.5801 36.8252 99.7701 36.7652 99.9751 36.7252C100.18 36.6802 100.4 36.6602 100.64 36.6602C100.965 36.6602 101.26 36.7052 101.525 36.7952C101.79 36.8852 102.02 37.0102 102.21 37.1802C102.4 37.3452 102.55 37.5452 102.65 37.7802C102.755 38.0152 102.805 38.2802 102.805 38.5702C102.805 38.8602 102.765 39.1002 102.68 39.3052C102.6 39.5102 102.495 39.6902 102.37 39.8452C102.245 40.0002 102.11 40.1302 101.965 40.2402C101.82 40.3502 101.68 40.4552 101.55 40.5552C101.42 40.6552 101.305 40.7502 101.21 40.8452C101.115 40.9402 101.06 41.0452 101.04 41.1652L100.91 41.9802H99.9651L99.8701 41.0702C99.8701 41.0702 99.8651 41.0352 99.8651 41.0202V40.9702C99.8651 40.8052 99.9051 40.6652 99.9901 40.5402C100.07 40.4202 100.175 40.3052 100.3 40.2002C100.425 40.0952 100.555 39.9902 100.695 39.8902C100.835 39.7902 100.97 39.6802 101.09 39.5652C101.215 39.4452 101.315 39.3152 101.4 39.1652C101.48 39.0152 101.525 38.8402 101.525 38.6402C101.525 38.5052 101.5 38.3852 101.45 38.2802C101.4 38.1752 101.33 38.0802 101.24 38.0052C101.15 37.9302 101.045 37.8702 100.92 37.8302C100.795 37.7902 100.66 37.7702 100.515 37.7702C100.3 37.7702 100.12 37.7952 99.9751 37.8402C99.8301 37.8852 99.7051 37.9402 99.6001 37.9952C99.4951 38.0552 99.4101 38.1052 99.3401 38.1502C99.2701 38.1952 99.2051 38.2202 99.1501 38.2202C99.0151 38.2202 98.9201 38.1652 98.8601 38.0502L98.4951 37.4752L98.5001 37.4852ZM99.5601 44.0852C99.5601 43.9702 99.5801 43.8602 99.6251 43.7552C99.6701 43.6502 99.7301 43.5602 99.8051 43.4852C99.8801 43.4102 99.9701 43.3502 100.075 43.3052C100.18 43.2602 100.29 43.2402 100.41 43.2402C100.53 43.2402 100.635 43.2602 100.74 43.3052C100.845 43.3502 100.935 43.4102 101.01 43.4852C101.085 43.5602 101.145 43.6502 101.19 43.7552C101.235 43.8602 101.255 43.9702 101.255 44.0852C101.255 44.2002 101.235 44.3152 101.19 44.4202C101.145 44.5252 101.085 44.6102 101.01 44.6852C100.935 44.7602 100.845 44.8202 100.74 44.8602C100.635 44.9052 100.525 44.9252 100.41 44.9252C100.295 44.9252 100.18 44.9052 100.075 44.8602C99.9701 44.8152 99.8801 44.7602 99.8051 44.6852C99.7301 44.6102 99.6701 44.5202 99.6251 44.4202C99.5801 44.3152 99.5601 44.2052 99.5601 44.0852Z" fill="white"></path>
<path id="Vector_20" d="M65.5251 17.6001H133.685C135.69 17.6001 137.32 19.2301 137.32 21.2351V23.9801H61.8901V21.2351C61.8901 19.2301 63.5201 17.6001 65.5251 17.6001Z" fill="#07064E"></path>
<path id="Vector_21" d="M128.545 22.3451C129.407 22.3451 130.105 21.6467 130.105 20.7851C130.105 19.9235 129.407 19.2251 128.545 19.2251C127.684 19.2251 126.985 19.9235 126.985 20.7851C126.985 21.6467 127.684 22.3451 128.545 22.3451Z" fill="white"></path>
<path id="Vector_22" d="M133.065 22.3451C133.927 22.3451 134.625 21.6467 134.625 20.7851C134.625 19.9235 133.927 19.2251 133.065 19.2251C132.204 19.2251 131.505 19.9235 131.505 20.7851C131.505 21.6467 132.204 22.3451 133.065 22.3451Z" fill="#2BF5BA"></path>
</g>
<path id="Vector_23" d="M107.26 71.4199C106.8 71.9299 106.74 72.7049 107.155 73.2849L113.19 81.7649L114.82 82.0399L107.26 71.4199Z" fill="#EDEDED"></path>
<path id="Vector_24" d="M121.065 70.2253C120.675 69.6753 119.81 69.6203 119.14 70.1003C118.475 70.5703 118.25 71.3853 118.615 71.9353C118.215 71.4103 117.37 71.3603 116.71 71.8303C116.045 72.3003 115.82 73.1153 116.185 73.6653C115.785 73.1403 114.94 73.0903 114.28 73.5603C113.62 74.0303 113.4 74.8203 113.74 75.3703L109.59 69.5403C109.11 68.8653 108.18 68.7103 107.505 69.1903C106.83 69.6703 106.675 70.6003 107.155 71.2753L114.82 82.0453L111.335 81.4603C110.52 81.3253 109.75 81.8703 109.61 82.6853C109.475 83.5003 110.02 84.2703 110.835 84.4103L118.43 85.6903C118.625 85.7403 118.82 85.7703 119.02 85.7903H119.06C119.195 85.8203 119.325 85.8153 119.455 85.8053C120.165 85.7853 120.88 85.5603 121.505 85.1153L125.185 82.4953C126.595 81.4903 127.145 79.6153 126.555 78.0653C126.5 77.9153 126.43 77.7803 126.325 77.6303L121.06 70.2353L121.065 70.2253Z" fill="white"></path>
<path id="Vector_25" d="M119.215 85.8351C119.125 85.8351 119.045 85.8302 118.96 85.8152C118.73 85.7902 118.515 85.7552 118.31 85.7052L110.73 84.4302C109.78 84.2702 109.14 83.3701 109.3 82.4201C109.375 81.9601 109.63 81.5602 110.01 81.2902C110.39 81.0202 110.85 80.9151 111.31 80.9901L114.2 81.4751L106.885 71.2001C106.615 70.8201 106.51 70.3602 106.585 69.9002C106.665 69.4402 106.915 69.0401 107.295 68.7701C108.08 68.2101 109.17 68.3952 109.73 69.1802L113.315 74.2151C113.415 73.8101 113.675 73.4201 114.07 73.1401C114.59 72.7701 115.2 72.6801 115.695 72.8501C115.695 72.3251 115.985 71.7802 116.5 71.4102C117.015 71.0402 117.63 70.9502 118.125 71.1202C118.125 70.5952 118.415 70.0502 118.93 69.6802C119.715 69.1202 120.735 69.2051 121.205 69.8651L126.47 77.2602C126.585 77.4202 126.665 77.5751 126.73 77.7551C127.365 79.4301 126.75 81.4151 125.27 82.4751L121.59 85.0952C120.945 85.5552 120.19 85.8052 119.4 85.8302C119.335 85.8352 119.27 85.8401 119.21 85.8401L119.215 85.8351ZM111.02 81.4601C110.765 81.4601 110.515 81.5402 110.3 81.6902C110.03 81.8852 109.85 82.1701 109.795 82.5001C109.68 83.1751 110.14 83.8201 110.815 83.9351L118.41 85.2151C118.61 85.2651 118.795 85.2951 118.98 85.3101C118.985 85.3101 119.035 85.3202 119.04 85.3202C119.135 85.3351 119.24 85.3401 119.37 85.3251C120.075 85.3051 120.74 85.0802 121.3 84.6802L124.98 82.0601C126.28 81.1351 126.82 79.3952 126.265 77.9252C126.215 77.7852 126.155 77.6701 126.065 77.5451L120.8 70.1502C120.49 69.7152 119.78 69.6852 119.225 70.0802C118.68 70.4702 118.475 71.1351 118.765 71.5701C118.84 71.6801 118.81 71.8352 118.7 71.9152C118.59 71.9952 118.435 71.9702 118.355 71.8602C118.04 71.4452 117.34 71.4202 116.795 71.8052C116.25 72.1952 116.045 72.8601 116.335 73.2951C116.41 73.4051 116.38 73.5601 116.27 73.6401C116.16 73.7201 116.005 73.6951 115.925 73.5851C115.61 73.1701 114.91 73.1452 114.365 73.5352C113.825 73.9202 113.615 74.5652 113.895 75.0102C113.965 75.1252 113.935 75.2751 113.82 75.3501C113.705 75.4251 113.555 75.3952 113.475 75.2852L109.325 69.4552C108.925 68.8952 108.15 68.7652 107.59 69.1652C107.32 69.3602 107.14 69.6451 107.085 69.9751C107.03 70.3051 107.105 70.6351 107.3 70.9051L114.965 81.6752C115.025 81.7552 115.025 81.8652 114.975 81.9552C114.92 82.0402 114.825 82.0851 114.72 82.0701L111.235 81.4852C111.165 81.4752 111.095 81.4651 111.025 81.4651L111.02 81.4601Z" fill="#07064E"></path>
</g>
<g id="Group_4">
<path id="Vector_26" d="M146.425 67.3551C143.305 67.4801 141.355 69.4251 140.305 71.1851C138.92 73.5051 138.945 78.2301 139.19 80.1151C139.31 81.0201 139.72 89.1651 139.585 90.3001C140.195 89.5451 144.525 87.6101 146.825 87.1001C151.305 86.1051 153.475 85.3651 155.835 83.2401C158.61 80.7451 161.54 75.0651 158.015 71.3651C156.16 69.4201 150.97 69.4701 150.97 69.4701C150.97 69.4701 149.115 67.2401 146.425 67.3501V67.3551Z" fill="#2BF5BA"></path>
<path id="Vector_27" d="M167.455 108.42C172.846 108.42 177.215 107.444 177.215 106.24C177.215 105.036 172.846 104.06 167.455 104.06C162.065 104.06 157.695 105.036 157.695 106.24C157.695 107.444 162.065 108.42 167.455 108.42Z" fill="#2AEDB4"></path>
<g id="Vector_28">
<path d="M177.895 89.8803L174.21 106.19H160.7L157.02 89.9153" fill="#2BF5BA"></path>
<path d="M179.59 82.4253H155.25V89.9053H179.59V82.4253Z" fill="#2BF5BA"></path>
</g>
<g id="Vector_29">
<path d="M179.585 82.4L171.7 82.505C173.1 90.44 173.075 100.54 169.835 106.06L174.21 106.19L179.585 82.4Z" fill="#00EBA6"></path>
<path d="M179.625 82.3999L170.46 82.4149C170.895 84.8849 170.49 87.3749 170.6 89.8799H179.625V82.3999Z" fill="#00EBA6"></path>
</g>
<g id="Vector_30">
<path d="M159.65 42.9801C160.745 43.1951 162.02 42.9001 162.965 42.4101C163.955 41.8951 164.84 40.6901 165.36 38.0701C161.515 37.9051 156.835 36.7601 155.13 33.0551C153.27 29.0101 152.685 26.8251 150.035 23.9151C149.765 23.8551 149.56 23.8051 149.445 23.7651C150.005 24.4101 151.08 29.0851 151.26 31.0501C151.545 34.1901 151.56 35.4051 152.96 37.7751C154.395 40.2151 156.49 42.3551 159.65 42.9801Z" fill="#00EBA6"></path>
<path d="M177.595 55.1601C176.675 55.0451 175.755 54.4751 175.14 53.8451C174.495 53.1851 174.115 52.0051 174.39 49.8101C177.685 52.6901 181.96 52.8901 184.265 50.4201C186.78 47.7251 187.275 44.2851 190.115 42.6901C190.345 42.7151 190.515 42.7251 190.62 42.7251C190.015 43.0851 187.95 46.4751 187.295 47.9751C186.255 50.3651 185.925 51.3151 184.205 52.8151C182.44 54.3551 180.235 55.4901 177.59 55.1551L177.595 55.1601Z" fill="#00EBA6"></path>
<path d="M175.435 65.6851C175.135 65.0951 175.105 64.3201 175.235 63.7051C175.37 63.0601 175.915 62.3601 177.325 61.6501C178.03 63.8151 179.195 64.7801 181.575 65.1601C184.175 65.5751 185.75 67.0801 187.83 68.1251C187.905 68.2701 187.97 68.3801 188.01 68.4401C187.555 68.2251 184.72 68.3551 183.57 68.5651C181.735 68.9051 181.04 69.0851 179.465 68.6701C177.845 68.2401 176.295 67.3851 175.435 65.6851Z" fill="#00EBA6"></path>
<path d="M160 59.2101C160.875 58.9301 161.73 58.2451 162.28 57.5601C162.86 56.8401 162.76 56.6951 162.775 56.3751C159.89 57.7451 156.085 56.2051 153.73 54.4251C151.16 52.4801 150.085 51.2701 147.27 50.3801C147.055 50.4451 146.885 50.4901 146.79 50.5051C147.395 50.7151 149.57 53.3701 150.28 54.5951C151.415 56.5501 151.785 57.3401 153.52 58.3601C155.3 59.4101 157.48 60.0101 160 59.2051V59.2101Z" fill="#00EBA6"></path>
<path d="M155.16 83.6151V82.4251C155.16 82.3801 155.19 82.3451 155.225 82.3251C155.25 82.2951 155.285 82.2801 155.325 82.2801H156.635C157.865 80.9451 159.01 79.07 159.48 77.09C159.59 76.4701 159.64 75.8201 159.62 75.1401C159.58 73.8451 158.88 72.4401 158.045 71.4551C157.165 70.4201 155.495 69.6251 152.25 69.5101C153.095 73.9351 153.01 79.4951 149.075 82.1201C144.95 84.8701 142.545 85.9701 139.94 89.2001C139.94 89.44 139.94 89.6451 139.935 89.8101C141.065 88.9201 144.905 87.2601 147 86.7951C150.905 85.9301 153.09 85.2401 155.17 83.6201L155.16 83.6151Z" fill="#00EBA6"></path>
<path d="M139.7 90.2001C139.67 90.175 139.65 90.1401 139.655 90.0951C139.67 89.9751 139.675 89.7701 139.68 89.5051C139.655 89.535 139.63 89.5651 139.605 89.5951C139.605 89.9151 139.605 90.1601 139.585 90.3001C139.61 90.2701 139.655 90.2301 139.695 90.1951L139.7 90.2001Z" fill="#00EBA6"></path>
<path d="M147.045 87.0351C145.25 87.4351 142.39 88.6401 140.86 89.5051C142.715 88.5751 146.04 87.3251 147.74 86.9051C150.535 86.2201 152.03 85.9151 153.67 84.9001C151.975 85.8251 149.995 86.3851 147.045 87.0401V87.0351Z" fill="#00EBA6"></path>
</g>
<path id="Vector_31" d="M190.865 42.6601C190.835 42.5551 190.735 42.4801 190.6 42.4801C189.745 42.4801 184.04 41.6501 183.46 41.5201C182.705 41.3501 181.34 41.1801 180 41.1801C178.66 41.1801 177.58 41.3451 176.815 41.6701C175.7 42.1451 173.755 43.3051 173.26 45.7051C172.915 47.3701 173.945 48.6901 174.25 49.0401C174.24 49.1201 174.22 49.2301 174.205 49.3701C173.25 50.3301 172.34 51.4251 171.51 52.6201C169.3 55.7851 167.57 59.7151 166.885 63.1301C166.415 65.4501 166.015 67.9401 165.625 70.3501L165.595 70.5401C165.06 69.2551 163.83 67.4401 162.445 65.9251C163.195 62.2051 164.47 58.7401 166.23 55.6251C167.465 53.4401 168.305 51.3151 168.73 49.2751L168.735 49.2401C169.07 47.7051 169.46 46.1451 169.845 44.6401C170.515 41.9951 171.205 39.2651 171.595 36.5551C171.75 35.4701 171.915 34.3451 172.55 33.4851C172.98 32.9101 173.7 32.5201 174.35 32.5201C174.65 32.5201 174.925 32.6001 175.16 32.7601C175.555 33.0251 175.81 33.4901 176.055 33.9401L176.16 34.1301C176.79 35.2601 177.495 36.0451 178.32 36.5351C178.905 36.8801 179.55 37.0651 180.19 37.0651C180.685 37.0651 181.16 36.9501 181.565 36.7351C182.475 36.2501 183.07 35.3001 183.38 33.8351C183.59 33.8851 183.8 33.9201 184.015 33.9401C184.155 33.9551 184.3 33.9601 184.44 33.9601C185.85 33.9601 187.235 33.3301 188.145 32.2751C188.235 32.1701 188.225 32.0101 188.12 31.9201C188.075 31.8801 188.015 31.8601 187.955 31.8601C187.88 31.8601 187.815 31.8901 187.765 31.9451C186.95 32.8901 185.705 33.4551 184.445 33.4551C184.315 33.4551 184.19 33.4501 184.06 33.4351C183.865 33.4151 183.665 33.3851 183.47 33.3351C183.505 33.1251 183.53 32.9051 183.555 32.6751C183.665 31.5801 183.675 30.4451 183.025 29.5701C182.665 29.0801 182.01 28.7651 181.36 28.7651C181.32 28.7651 181.28 28.7651 181.24 28.7651C180.705 28.8001 180.28 29.0501 180.045 29.4751C179.74 30.0251 179.815 30.7751 180.26 31.5351C180.835 32.5251 181.79 33.3051 182.895 33.6901C182.62 35.0201 182.105 35.8701 181.325 36.2851C181 36.4601 180.605 36.5501 180.19 36.5501C179.64 36.5501 179.065 36.3901 178.57 36.0951C177.825 35.6501 177.175 34.9251 176.59 33.8751L176.485 33.6851C176.21 33.1851 175.93 32.6651 175.43 32.3301C175.115 32.1201 174.75 32.0101 174.35 32.0101C173.53 32.0101 172.665 32.4651 172.14 33.1751C171.43 34.1351 171.25 35.3751 171.09 36.4701C170.705 39.1551 170.015 41.8751 169.35 44.5051C169.245 44.9151 169.14 45.3301 169.04 45.7451C168.94 42.7901 167.885 40.0501 165.765 37.2001C166.235 36.9301 167.925 35.8201 168.16 33.7851C168.5 30.8701 166.725 28.8151 165.635 27.8501C163.79 26.2201 159.69 25.3201 158.1 25.1601C157.345 25.0851 150.42 23.8501 149.51 23.5301L149.45 23.5151H149.43C149.345 23.5151 149.27 23.5551 149.225 23.6251C149.16 23.7201 149.17 23.8451 149.245 23.9301C149.735 24.4901 150.815 28.3251 150.945 30.2901C151.2 34.1201 151.555 36.1051 153.07 38.4801C153.85 39.7051 155.385 41.3901 157.345 42.4301C158.465 43.0251 159.56 43.3301 160.595 43.3301C161.505 43.3301 162.365 43.0901 163.145 42.6201C164.615 41.7351 165.34 39.1801 165.63 37.8651C168.085 41.3001 170.615 46.8051 165.78 55.3701C165.46 55.9351 165.16 56.5101 164.865 57.1151C164.895 55.6701 164.51 54.4401 163.71 53.4451C163.5 53.1851 163.27 52.9451 162.995 52.7151C163.335 52.2301 164.095 50.9451 163.69 49.5951C163.065 47.5001 161.115 46.8201 160.01 46.6051C159.74 46.5501 159.425 46.5251 159.08 46.5251C157.165 46.5251 154.58 47.3401 153.63 47.7351C153.05 47.9751 147.58 49.8251 146.81 49.9651C146.7 49.9851 146.615 50.0801 146.605 50.1901C146.595 50.3051 146.665 50.4101 146.77 50.4451C147.24 50.6051 149.14 52.6151 149.855 53.9251C151.185 56.3601 152.04 57.5351 153.88 58.5251C154.75 58.9951 156.27 59.4951 157.925 59.4951C158.03 59.4951 158.135 59.4951 158.235 59.4901C159.565 59.4401 161.4 59.0301 162.59 57.3801C163.37 56.3001 163.225 54.4951 163.06 53.4701C163.15 53.5651 163.235 53.6601 163.31 53.7601C164.275 54.9601 164.575 56.5501 164.205 58.4851V58.5201V58.5301C163.255 60.7101 162.515 63.0451 162.005 65.4701C159.985 63.3751 157.925 62.1551 156.195 62.0251C156.08 62.0151 155.97 62.0101 155.855 62.0101C154.15 62.0101 152.73 63.0201 151.635 65.0051C151.05 66.0651 150.755 67.2901 150.55 68.3801C149.815 67.7751 148.465 66.9151 146.775 66.9151C146.715 66.9151 146.65 66.9151 146.59 66.9151C143.055 67.0551 141.11 69.4551 140.265 70.8701C138.83 73.2751 138.88 78.1201 139.12 79.9651C139.235 80.8401 139.65 88.9851 139.515 90.0901C139.5 90.2001 139.565 90.3051 139.665 90.3501L139.735 90.3701H139.76C139.835 90.3701 139.905 90.3351 139.955 90.2751C140.505 89.5951 144.7 87.6851 147.055 87.1601C150.795 86.3301 152.985 85.6601 155.015 84.1851V89.9101C155.015 90.0501 155.125 90.1601 155.265 90.1601H156.8L160.435 106.255C160.46 106.37 160.56 106.45 160.68 106.45H174.195C174.31 106.45 174.415 106.37 174.44 106.255L178.075 90.1601H179.61C179.75 90.1601 179.86 90.0501 179.86 89.9101V82.4301C179.86 82.3451 179.815 82.2701 179.765 82.2501C179.715 82.1901 179.645 82.1551 179.57 82.1551H169.045C169.16 80.7851 169.35 79.3601 170.09 78.2201C170.6 77.4301 171.62 76.6351 172.745 76.6351C172.85 76.6351 172.955 76.6401 173.055 76.6551C172.665 77.2651 172.535 78.0001 172.715 78.6551C172.83 79.0701 173.13 79.5451 173.63 79.6401C173.69 79.6501 173.75 79.6551 173.81 79.6551C174.01 79.6551 174.215 79.5951 174.405 79.4801C174.98 79.1351 175.255 78.3501 175.045 77.6601C174.885 77.1401 174.48 76.6801 173.94 76.4101C174.385 76.0551 174.98 75.8501 175.6 75.8501C175.73 75.8501 175.86 75.8601 175.995 75.8751C176.775 75.9801 177.505 76.3851 178.21 76.7701L178.475 76.9151C179.26 77.3401 180.115 77.7401 181.015 77.7401C181.095 77.7401 181.175 77.7401 181.26 77.7301C182.285 77.6501 183.365 76.8251 183.335 75.7301C183.335 75.5951 183.225 75.4901 183.08 75.4851C182.945 75.4851 182.835 75.6051 182.835 75.7401C182.855 76.5501 182.02 77.1651 181.22 77.2251C181.155 77.2301 181.085 77.2351 181.02 77.2351C180.225 77.2351 179.44 76.8701 178.715 76.4751L178.45 76.3301C177.705 75.9201 176.93 75.4951 176.06 75.3751C175.905 75.3551 175.75 75.3451 175.6 75.3451C174.815 75.3451 174.05 75.6251 173.51 76.1101C173.475 76.1401 173.44 76.1751 173.41 76.2051C173.195 76.1501 172.975 76.1251 172.75 76.1251C171.435 76.1251 170.255 77.0351 169.67 77.9351C168.925 79.0801 168.7 80.4451 168.575 81.7801C168.495 76.5701 168.645 70.3001 170.29 66.7651C170.615 66.0601 172.4 62.5151 175.38 61.7501C175.75 61.6551 176.135 61.6051 176.52 61.6051C176.635 61.6051 176.75 61.6051 176.865 61.6151C176.145 62.0501 175.195 62.7601 174.97 63.5851C174.28 66.0901 176.97 68.1701 179.005 68.7901C179.73 69.0101 180.36 69.1101 181.055 69.1101C181.925 69.1101 182.85 68.9551 184.06 68.7001C184.6 68.5851 185.48 68.5151 186.36 68.5151C187.24 68.5151 187.75 68.5801 187.89 68.6451C187.925 68.6601 187.96 68.6701 187.995 68.6701C188.07 68.6701 188.14 68.6351 188.185 68.5801C188.26 68.4951 188.265 68.3701 188.2 68.2751C187.875 67.8101 186.08 64.0801 185.915 63.6601C185.57 62.7701 184.39 60.5501 183.145 59.7451C182.595 59.3901 181.72 58.9651 180.68 58.9651C180.195 58.9651 179.72 59.0601 179.27 59.2451C178.16 59.7001 177.77 60.7751 177.655 61.1801L177.595 61.2101C177.225 61.1351 176.86 61.1001 176.5 61.1001C176.08 61.1001 175.66 61.1501 175.26 61.2551C172.06 62.0751 170.18 65.8001 169.84 66.5401C168.115 70.2501 167.995 76.8001 168.085 82.1301H167.775C167.61 81.4001 167.465 80.2551 167.31 79.0401C167.01 76.7101 166.635 73.8101 165.925 71.5151L166.11 70.3751C166.5 67.9801 166.9 65.5001 167.36 63.2001C168.035 59.8501 169.735 55.9901 171.905 52.8801C172.59 51.9001 173.33 50.9801 174.115 50.1451C174.045 51.3001 174.09 53.0451 174.885 53.9701C175.73 54.9551 176.895 55.4501 178.35 55.4501C178.73 55.4501 179.13 55.4151 179.535 55.3451C181.355 55.0351 183.005 54.1101 183.945 53.3501C185.765 51.8701 186.56 50.4001 187.765 47.4551C188.38 45.9501 190.215 43.2351 190.74 42.9251C190.835 42.8651 190.885 42.7501 190.855 42.6401L190.865 42.6601ZM174.685 49.5901C176.8 47.5001 179.1 46.1201 181.515 45.4901C181.65 45.4551 181.73 45.3201 181.695 45.1851C181.665 45.0751 181.565 44.9951 181.455 44.9951H181.405L181.39 45.0051C179.045 45.6151 176.81 46.9051 174.74 48.8451C174.73 48.8201 174.71 48.7951 174.695 48.7751C174.68 48.7601 173.41 47.4401 173.75 45.8001C174.2 43.6201 175.99 42.5651 177.01 42.1251C177.705 41.8301 178.735 41.6701 179.99 41.6701C181.245 41.6701 182.615 41.8351 183.35 42.0001C183.93 42.1301 188.29 42.7701 190.03 42.9351C189.175 43.8901 187.805 46.0701 187.31 47.2801C186.085 50.2751 185.35 51.5901 183.635 52.9751C182.745 53.6951 181.18 54.5751 179.46 54.8651C179.085 54.9301 178.715 54.9601 178.365 54.9601C177.06 54.9601 176.02 54.5201 175.275 53.6551C174.455 52.6951 174.58 50.5201 174.68 49.5801L174.685 49.5901ZM163.62 82.1501C164.525 79.7101 165.17 76.1851 165.745 72.7051C166.27 74.7901 166.575 77.1751 166.825 79.1201C166.985 80.3401 167.12 81.4051 167.275 82.1451H163.62V82.1501ZM165.215 70.9301C165.285 71.1201 165.35 71.3251 165.425 71.5651C164.755 75.6851 164.07 79.5901 163.09 82.1501H161.72C161.78 81.4101 161.735 80.3301 161.69 79.0901C161.57 76.0951 161.39 71.5901 162.335 66.5151C163.84 68.2351 164.865 69.9551 165.225 70.9351L165.215 70.9301ZM164.71 89.9051C164.71 90.0451 164.82 90.1551 164.96 90.1551H177.575L174.01 105.945H160.895L157.33 90.1551H159.585C159.725 90.1551 159.835 90.0451 159.835 89.9051C159.835 89.7651 159.725 89.6551 159.585 89.6551H155.535V82.6751H179.375V89.6551H164.965C164.825 89.6551 164.715 89.7651 164.715 89.9051H164.71ZM155.035 82.4251V83.5551C152.985 85.1351 150.79 85.8201 146.965 86.6701C145 87.1051 141.435 88.6101 140.055 89.5601C140.085 87.3751 139.75 80.7851 139.635 79.9001C139.4 78.1101 139.345 73.4201 140.715 71.1301C141.51 69.8001 143.33 67.5501 146.63 67.4201C146.69 67.4201 146.745 67.4201 146.805 67.4201C148.47 67.4201 149.795 68.3651 150.47 68.9601C150.41 69.3201 150.35 69.6851 150.29 70.0601C149.765 73.3951 149.165 77.1701 145.455 80.8251C145.355 80.9201 145.355 81.0801 145.455 81.1801C145.5 81.2301 145.565 81.2551 145.635 81.2551C145.705 81.2551 145.765 81.2301 145.81 81.1851C149.64 77.4201 150.25 73.5551 150.79 70.1451C150.83 69.8901 150.87 69.6401 150.91 69.3901C150.95 69.4301 150.97 69.4551 150.975 69.4651C151.025 69.5201 151.09 69.5551 151.175 69.5551H151.23C151.435 69.5551 156.325 69.5751 158.035 71.3751C159.12 72.5151 159.64 73.9251 159.58 75.5601C159.48 78.1301 157.975 80.6501 156.59 82.1701H155.335C155.26 82.1701 155.19 82.2051 155.175 82.2351C155.095 82.2801 155.045 82.3601 155.045 82.4451L155.035 82.4251ZM156.175 62.5151C158.445 62.6901 160.725 64.7851 161.905 66.0501C160.87 71.3351 161.06 76.0101 161.18 79.1101C161.23 80.3601 161.275 81.4451 161.21 82.1501H157.24C158.93 80.1601 159.985 77.7151 160.07 75.5601C160.14 73.7851 159.575 72.2551 158.39 71.0101C156.615 69.1451 152.03 69.0401 151.275 69.0351C151.215 68.9701 151.125 68.8751 151.01 68.7601C151.225 67.5651 151.505 66.3101 152.095 65.2401C153.095 63.4251 154.365 62.5001 155.875 62.5001C155.975 62.5001 156.075 62.5001 156.175 62.5101V62.5151ZM162.66 33.5551C161.715 32.5351 160.825 31.5651 160.21 30.6751C160.165 30.6051 160.085 30.5651 160.005 30.5651C159.955 30.5651 159.905 30.5801 159.865 30.6101C159.75 30.6901 159.725 30.8451 159.8 30.9551C160.435 31.8801 161.34 32.8551 162.295 33.8901C163.225 34.9001 164.28 36.0401 165.24 37.3101C165.05 38.3001 164.37 41.3001 162.9 42.1801C162.2 42.6001 161.425 42.8151 160.605 42.8151C159.65 42.8151 158.635 42.5351 157.59 41.9751C155.715 40.9751 154.25 39.3701 153.5 38.1951C152.06 35.9401 151.715 34.1501 151.45 30.2401C151.34 28.6001 150.57 25.5201 149.95 24.1451C151.91 24.6051 157.325 25.5651 158.06 25.6401C159.595 25.7951 163.56 26.6551 165.315 28.2051C166.33 29.1051 167.99 31.0151 167.675 33.7051C167.455 35.5801 165.755 36.6151 165.47 36.7751C164.545 35.5801 163.545 34.5001 162.66 33.5401V33.5551ZM181.375 29.2551C181.865 29.2551 182.355 29.4901 182.63 29.8601C183.18 30.6001 183.16 31.6251 183.065 32.6201C183.045 32.8151 183.025 33.0001 182.995 33.1801C182.035 32.8251 181.205 32.1401 180.7 31.2751C180.535 30.9901 180.185 30.2701 180.49 29.7101C180.64 29.4451 180.92 29.2801 181.28 29.2601C181.31 29.2601 181.345 29.2601 181.375 29.2601V29.2551ZM159.08 47.0151C159.395 47.0151 159.68 47.0401 159.925 47.0851C160.92 47.2801 162.675 47.8851 163.225 49.7301C163.555 50.8351 162.915 51.9551 162.61 52.3951C161.295 51.4551 159.78 51.1651 159.145 51.1451C159.07 51.1451 158.995 51.1451 158.92 51.1451C158.215 51.1451 157.48 51.2351 156.825 51.3151C156.18 51.3951 155.57 51.4651 155.01 51.4651C154.575 51.4651 154.22 51.4201 153.925 51.3251L153.865 51.3101H153.845C153.735 51.3101 153.64 51.3801 153.61 51.4851C153.59 51.5501 153.595 51.6151 153.625 51.6751C153.655 51.7351 153.71 51.7801 153.77 51.8001C154.12 51.9101 154.525 51.9601 155.005 51.9601C155.595 51.9601 156.22 51.8851 156.925 51.8001C157.575 51.7201 158.245 51.6401 158.885 51.6401C158.965 51.6401 159.04 51.6401 159.12 51.6401C159.73 51.6601 161.205 51.9451 162.45 52.8951C162.555 53.3451 163.065 55.8501 162.19 57.0701C161.49 58.0401 159.84 59.0201 157.725 59.0201C156.505 59.0201 155.295 58.7001 154.12 58.0701C152.415 57.1551 151.635 56.1201 150.295 53.6701C149.755 52.6801 148.35 51.0201 147.46 50.2951C149.115 49.8201 153.265 48.4101 153.82 48.1801C154.745 47.7951 157.24 47.0051 159.07 47.0051L159.08 47.0151ZM173.585 76.7901C174.08 76.9901 174.45 77.3651 174.585 77.8051C174.73 78.2851 174.55 78.8201 174.165 79.0551C174.055 79.1251 173.935 79.1601 173.83 79.1601C173.8 79.1601 173.77 79.1601 173.745 79.1501C173.47 79.0951 173.29 78.7901 173.22 78.5251C173.065 77.9601 173.205 77.3051 173.59 76.7951L173.585 76.7901ZM180.715 63.0101C180.795 62.9001 180.775 62.7451 180.66 62.6601C179.82 62.0401 178.975 61.6001 178.14 61.3551C178.215 61.0851 178.545 60.1051 179.465 59.7251C179.855 59.5651 180.27 59.4851 180.685 59.4851C181.605 59.4851 182.385 59.8651 182.88 60.1851C184.025 60.9251 185.13 63.0201 185.455 63.8601C185.575 64.1701 186.87 66.8851 187.51 68.0801C187.205 68.0451 186.805 68.0301 186.365 68.0301C185.45 68.0301 184.53 68.1051 183.965 68.2201C182.81 68.4601 181.875 68.6201 181.055 68.6201C180.425 68.6201 179.835 68.5251 179.155 68.3201C176.03 67.3701 175.1 65.0151 175.46 63.7251C175.7 62.8601 177.055 62.0701 177.675 61.7501C178.56 61.9551 179.465 62.3951 180.365 63.0601C180.41 63.0901 180.46 63.1101 180.515 63.1101C180.595 63.1101 180.67 63.0701 180.715 63.0101Z" fill="#07064E"></path>
</g>
<g id="Group_5">
<g id="Vector_32">
<path d="M50.9748 113.29L50.9398 115.095L70.5598 115.075C70.8048 115.075 71.1248 114.755 71.1248 114.51L71.1148 113.67C64.3148 112.505 58.0848 113.985 50.9648 113.29H50.9748Z" fill="#2DEBC8"></path>
<path d="M46.2598 110.21L46.2448 111.42L70.9148 111.4C71.2248 111.4 71.6298 111.08 71.6298 110.835L71.6048 110.195C63.0548 109.03 54.7998 110.66 46.2598 110.21Z" fill="#2DEBC8"></path>
<path d="M44.6448 106.795L44.6298 108.005L69.2998 107.985C69.6098 107.985 70.0148 107.665 70.0148 107.42L69.9898 106.78C61.4398 105.615 53.1848 107.245 44.6448 106.795Z" fill="#2DEBC8"></path>
<path d="M43.4796 108.145L32.6496 108.055L32.6646 104.485L43.4996 104.575L43.4796 108.145Z" fill="#2DEBC8"></path>
<path d="M45.2644 111.67L34.4344 111.575L34.4494 108.005L45.2794 108.1L45.2644 111.67Z" fill="#2DEBC8"></path>
<path d="M49.9536 111.617L31.0638 111.525L31.0464 115.095L49.9362 115.187L49.9536 111.617Z" fill="#2DEBC8"></path>
</g>
<path id="Vector_33" d="M74.6652 115.775C74.6652 116.365 65.4252 116.84 52.3752 116.84C39.3252 116.84 27.7202 116.38 27.7202 115.79C27.7202 115.2 39.1452 115.07 52.2002 115.07C65.2552 115.07 74.6702 115.185 74.6702 115.775H74.6652Z" fill="#2AEDB4"></path>
<g id="Vector_34">
<path d="M58.2599 103.05H45.8299C45.4626 103.05 45.1649 103.347 45.1649 103.715C45.1649 104.082 45.4626 104.38 45.8299 104.38H58.2599C58.6272 104.38 58.9249 104.082 58.9249 103.715C58.9249 103.347 58.6272 103.05 58.2599 103.05Z" fill="#2BF5BA"></path>
<path d="M59.5699 93.0347L56.5049 103.05H47.5849L44.5249 93.0347H59.5699Z" fill="#2BF5BA"></path>
</g>
<path id="Vector_35" d="M59.795 67.3049C58.39 65.8299 56.24 65.0449 54.12 64.4649C52.325 63.9699 50.38 63.5799 48.57 64.0399C46.76 64.4999 45.225 66.0899 45.68 67.6499C46.035 68.8599 47.37 69.6249 48.455 70.4549C49.54 71.2849 50.51 72.5899 49.87 73.7099C48.945 75.3249 45.51 75.0849 44.975 76.8249C44.775 77.4699 45.11 78.1549 45.585 78.6899C47.05 80.3299 49.88 81.0799 50.55 83.0599C50.945 84.2199 50.43 85.4749 49.705 86.5099C48.975 87.5499 48.03 88.4749 47.43 89.5699C46.83 90.6649 46.63 92.0249 47.41 93.0349H49.045C49.39 91.8199 50.055 90.6799 51.035 89.7449C52.135 88.6999 53.55 87.9299 54.745 86.9599C55.94 85.9899 56.95 84.6999 56.86 83.2949C56.7 80.7299 53.02 78.5799 54.125 76.1899C55.045 74.1999 58.455 74.1399 60.11 72.5349C61.58 71.1099 61.195 68.7799 59.79 67.3049H59.795Z" fill="#AAFBE3"></path>
<g id="Vector_36">
<path d="M71.1152 107.805H70.1552C70.2252 107.675 70.2602 107.53 70.2602 107.38V105.21C70.2602 104.7 69.8452 104.285 69.3352 104.285H31.4052C31.2652 104.285 31.1552 104.395 31.1552 104.535C31.1552 104.675 31.2652 104.785 31.4052 104.785H43.2452V105.415H32.8352C32.6952 105.415 32.5852 105.525 32.5852 105.665C32.5852 105.805 32.6952 105.915 32.8352 105.915H43.2452V106.465H32.8352C32.6952 106.465 32.5852 106.575 32.5852 106.715C32.5852 106.855 32.6952 106.965 32.8352 106.965H43.2452V107.805H31.4052C31.2652 107.805 31.1552 107.92 31.1552 108.055C31.1552 108.19 31.2652 108.305 31.4052 108.305H45.0302V108.935H34.6202C34.4802 108.935 34.3702 109.045 34.3702 109.185C34.3702 109.325 34.4802 109.435 34.6202 109.435H45.0302V110.015H34.6202C34.4802 110.015 34.3702 110.125 34.3702 110.265C34.3702 110.405 34.4802 110.515 34.6202 110.515H45.0302V111.325H29.8052C29.6652 111.325 29.5552 111.435 29.5552 111.575C29.5552 111.715 29.6652 111.825 29.8052 111.825L49.7052 111.83V112.455H31.2352C31.0952 112.455 30.9852 112.565 30.9852 112.705C30.9852 112.845 31.0952 112.955 31.2352 112.955H49.7052V113.535H31.2352C31.0952 113.535 30.9852 113.645 30.9852 113.785C30.9852 113.925 31.0952 114.035 31.2352 114.035H49.7052V114.85H29.8052C29.6652 114.85 29.5552 114.96 29.5552 115.1C29.5552 115.24 29.6652 115.35 29.8052 115.35H70.4202C70.9302 115.35 71.3452 114.935 71.3452 114.425V112.255C71.3452 112.105 71.3102 111.96 71.2402 111.825C71.6952 111.765 72.0452 111.375 72.0452 110.905V108.735C72.0452 108.225 71.6302 107.81 71.1202 107.81L71.1152 107.805ZM50.2052 114.845V111.83H50.6952V114.845H50.2052ZM45.5302 111.32V108.305H46.0202V111.32H45.5302ZM70.4252 111.32H65.1802C65.0402 111.32 64.9302 111.43 64.9302 111.57C64.9302 111.71 65.0402 111.82 65.1802 111.82H70.4352C70.6602 111.84 70.8402 112.025 70.8402 112.245V114.415C70.8402 114.65 70.6502 114.84 70.4152 114.84H51.1902V111.825H59.8052C59.9452 111.82 60.0552 111.705 60.0552 111.57C60.0552 111.435 59.9452 111.32 59.8052 111.32H46.5152V108.305H71.1102C71.3452 108.305 71.5352 108.495 71.5352 108.73V110.9C71.5352 111.135 71.3452 111.325 71.1102 111.325H70.4652L70.4202 111.32H70.4252ZM44.7352 104.78H69.3302C69.5652 104.78 69.7552 104.97 69.7552 105.205V107.375C69.7552 107.61 69.5652 107.8 69.3352 107.8H44.7352V104.78ZM43.7452 107.805V104.785H44.2352V107.805H43.7452Z" fill="#07064E"></path>
<path d="M62.4352 95.87C62.1602 95.345 61.6952 94.955 61.1302 94.78C60.9102 94.71 60.6852 94.675 60.4602 94.675C60.1052 94.675 59.7502 94.765 59.4352 94.93C59.3602 94.97 59.2852 95.015 59.2102 95.07L59.8102 93.11C59.8352 93.035 59.8202 92.95 59.7702 92.89C59.7252 92.825 59.6502 92.79 59.5702 92.79H44.5302C44.4502 92.79 44.3752 92.83 44.3302 92.89C44.2852 92.955 44.2702 93.035 44.2902 93.11L47.2502 102.805H45.8352C45.3302 102.805 44.9202 103.215 44.9202 103.72C44.9202 104.225 45.3302 104.635 45.8352 104.635H58.2652C58.7702 104.635 59.1802 104.225 59.1802 103.72C59.1802 103.215 58.7702 102.805 58.2652 102.805H56.8502L58.0052 99.02L59.1352 99.375C59.4052 99.46 59.6852 99.505 59.9652 99.505C60.4052 99.505 60.8452 99.395 61.2352 99.19C61.8852 98.85 62.3702 98.275 62.5902 97.575C62.7702 97.01 62.7152 96.405 62.4402 95.88L62.4352 95.87ZM58.2602 104.13H45.8302C45.6002 104.13 45.4152 103.945 45.4152 103.715C45.4152 103.485 45.6002 103.3 45.8302 103.3H58.2602C58.4902 103.3 58.6752 103.485 58.6752 103.715C58.6752 103.945 58.4902 104.13 58.2602 104.13ZM57.5802 98.68L56.3202 102.805H47.7702L44.8602 93.29H59.2252L57.9152 97.58L57.5852 98.63L57.5752 98.675L57.5802 98.68ZM58.3952 97.72L58.8152 96.38C58.9552 95.94 59.2552 95.58 59.6602 95.37C59.9052 95.24 60.1802 95.175 60.4552 95.175C60.6302 95.175 60.8052 95.2 60.9752 95.255C61.4152 95.395 61.7752 95.695 61.9852 96.1C62.1952 96.505 62.2402 96.975 62.1002 97.415C61.9202 97.99 61.5252 98.46 60.9902 98.74C60.6702 98.91 60.3102 98.995 59.9502 98.995C59.7202 98.995 59.4902 98.96 59.2702 98.89L58.1402 98.535L58.3902 97.72H58.3952Z" fill="#07064E"></path>
</g>
</g>
</g>
</g>
</g>
</g>
</g>
<defs>
<clipPath id="clip0_86_762">
<rect width="200" height="140" fill="white"></rect>
</clipPath>
</defs>
</svg>