<svg width="200" height="140" viewBox="0 0 200 140" fill="none" xmlns="http://www.w3.org/2000/svg">
<g id="illu_bg_loading-screen/Default">
<g id="illu_bg_loading-screen">
<g id="background">
<path id="Vector" d="M177.419 16.1076C217.782 31.5726 194.55 104.527 164.421 120.348C144.387 130.869 122.634 125.198 80.4608 134.384C47.5877 141.543 5.41986 130.839 17.3697 105.323C30.0314 78.289 1.7662 72.7467 1.0147 41.9749C0.545018 22.8414 11.2291 -2.87758 47.3307 6.98087C123.711 27.8349 143.384 3.06518 177.419 16.1076Z" fill="#EBEBEB"></path>
<g id="Vector_2">
<path d="M177.423 13.3043C217.787 28.7693 194.555 101.724 164.425 117.545C144.392 128.066 122.638 122.395 80.4654 131.581C47.5924 138.74 5.4245 128.036 17.3743 102.52C30.036 75.4858 1.7659 69.9435 1.0144 39.1716C0.549661 20.0381 11.2338 -5.68087 47.3353 4.17759C123.716 25.0316 143.384 0.261893 177.423 13.3043Z" fill="#2BF5BA"></path>
<path d="M190.624 111.883C192.527 110.902 193.559 109.119 192.931 107.9C192.302 106.682 190.251 106.49 188.348 107.472C186.446 108.453 185.413 110.237 186.042 111.455C186.67 112.673 188.722 112.865 190.624 111.883Z" fill="#2BF5BA"></path>
<path d="M12.8566 132.349C16.1351 129.958 17.5395 126.302 15.9934 124.181C14.4473 122.061 10.5363 122.28 7.25779 124.671C3.97932 127.062 2.57493 130.719 4.12101 132.839C5.66708 134.959 9.57814 134.74 12.8566 132.349Z" fill="#2BF5BA"></path>
<path d="M125.794 6.99016C126.394 5.82792 125.914 4.38726 124.723 3.77235C123.532 3.15744 122.08 3.60115 121.48 4.76339C120.88 5.92563 121.359 7.36629 122.551 7.9812C123.742 8.59611 125.194 8.15241 125.794 6.99016Z" fill="#2BF5BA"></path>
</g>
</g>
<g id="illu_bg_loading-screen_2">
<g id="stroke">
<path id="Vector_3" d="M97.5999 126.135C102.256 126.135 106.03 125.369 106.03 124.425C106.03 123.481 102.256 122.715 97.5999 122.715C92.9442 122.715 89.1699 123.481 89.1699 124.425C89.1699 125.369 92.9442 126.135 97.5999 126.135Z" fill="#2AEDB4"></path>
<path id="Vector_4" d="M111.94 65.85C112.985 54.685 113.815 45.495 113.815 40.965C113.815 29.86 106.69 20.855 97.9004 20.855C89.1104 20.855 81.9854 29.86 81.9854 40.965C81.9854 45.13 82.5053 54.07 83.2803 66.295L111.94 65.845V65.85Z" fill="#EBEBEB"></path>
<path id="Vector_5" d="M97.8998 20.86C89.1698 20.86 82.6598 29.845 82.0898 38.67C85.6548 25.375 92.6548 24.285 98.1398 24.335C103.625 24.385 111.55 28.965 113.81 40.775C113.725 29.76 106.635 20.86 97.8998 20.86Z" fill="white"></path>
<path id="Vector_6" d="M67.6054 75.245C67.5104 70.86 71.0504 67.255 75.4354 67.28L87.7704 65.005C89.6104 69.905 93.0854 77.58 97.8304 80.29C103.26 77.42 105.715 70.525 107.9 65.005L119.305 67.27C124.525 67.435 127.985 71.49 127.55 76.85L126.22 105.175C125.81 107.475 124.29 109.105 122.295 110.695L116.87 105.27L117.395 103.58L117.505 97.935L77.8254 97.955H77.6104H68.3804L67.6104 75.24L67.6054 75.245Z" fill="#FFC391"></path>
<path id="Vector_7" d="M91.16 54.525H104.51C104.635 58.74 103.115 63.33 107.71 64.87C107.805 64.9 106.055 69.715 106.055 69.715C104.645 74.025 101.96 77.575 97.83 80.285C94.74 78.425 92.165 75.115 89.99 70.7C89.99 70.7 87.685 64.975 87.775 64.955C92.64 63.855 91.035 58.82 91.16 54.525Z" fill="white"></path>
<path id="Vector_8" d="M104.37 103.59L104.405 102.445C104.45 101.535 103.785 100.745 102.975 100.745H91.4601C90.6451 100.745 89.9551 101.625 90.0001 102.535L90.1301 104.81C90.1651 105.485 104.335 104.26 104.37 103.585V103.59Z" fill="white"></path>
<path id="Vector_9" d="M91.6801 105.26C90.1601 105.26 89.8951 105.125 89.8801 104.825L89.75 102.55C89.725 101.995 89.9351 101.425 90.3251 101.015C90.6451 100.68 91.05 100.495 91.46 100.495H102.975C103.405 100.495 103.815 100.675 104.13 101.01C104.49 101.39 104.685 101.92 104.66 102.46L104.625 103.6C104.615 103.855 104.595 104.2 99.43 104.75C96.5601 105.055 93.4451 105.26 91.6851 105.26H91.6801ZM90.375 104.685C91.63 105.045 103.04 104.06 104.125 103.49L104.16 102.44C104.18 102.03 104.035 101.64 103.77 101.355C103.55 101.125 103.27 100.995 102.98 100.995H91.4651C91.1901 100.995 90.9151 101.125 90.6901 101.36C90.3951 101.67 90.2351 102.1 90.2551 102.52L90.3801 104.68L90.375 104.685Z" fill="#07064E"></path>
<path id="Vector_10" d="M92.3402 124.575H102.1C102.79 124.575 103.375 124.035 103.41 123.36L104.375 103.53C104.42 102.62 103.795 101.875 102.98 101.875H91.4652C90.6502 101.875 90.0302 102.62 90.0702 103.53L91.0352 123.36C91.0702 124.035 91.6552 124.575 92.3452 124.575H92.3402Z" fill="white"></path>
<path id="Vector_11" d="M102.975 101.88H102.76C101.02 111.905 98.2004 117.155 92.4404 124.575H102.095C102.785 124.575 103.37 124.035 103.405 123.36L104.37 103.53C104.415 102.62 103.79 101.875 102.975 101.875V101.88Z" fill="#EDEDED"></path>
<path id="Vector_12" d="M102.095 124.825H92.3352C91.5152 124.825 90.8152 124.175 90.7802 123.375L89.8152 103.545C89.7902 103.005 89.9752 102.49 90.3202 102.125C90.6252 101.805 91.0302 101.63 91.4602 101.63H102.975C103.405 101.63 103.81 101.805 104.115 102.125C104.46 102.49 104.645 103.005 104.62 103.545L103.655 123.375C103.615 124.175 102.92 124.825 102.1 124.825H102.095ZM91.4602 102.13C91.1702 102.13 90.8952 102.25 90.6852 102.47C90.4302 102.735 90.3002 103.12 90.3202 103.52L91.2852 123.35C91.3102 123.89 91.7852 124.325 92.3452 124.325H102.105C102.66 124.325 103.135 123.885 103.165 123.35L104.13 103.52C104.15 103.12 104.015 102.735 103.765 102.47C103.555 102.25 103.28 102.13 102.99 102.13H91.4752H91.4602Z" fill="#07064E"></path>
<path id="Vector_13" d="M93.2301 107.135C92.9801 107.135 92.7401 107.08 92.5151 106.975C92.3901 106.915 92.3401 106.765 92.4001 106.64C92.4601 106.515 92.6101 106.465 92.7351 106.52C92.8901 106.595 93.0601 106.635 93.2351 106.635C93.8701 106.635 94.3851 106.12 94.3851 105.485C94.3851 104.85 93.8701 104.335 93.2351 104.335C92.6001 104.335 92.0851 104.85 92.0851 105.485C92.0851 105.56 92.0901 105.63 92.1051 105.7C92.1301 105.835 92.0401 105.965 91.9051 105.995C91.7701 106.02 91.6401 105.935 91.6101 105.795C91.5901 105.695 91.5801 105.59 91.5801 105.485C91.5801 104.575 92.3201 103.835 93.2301 103.835C94.1401 103.835 94.8801 104.575 94.8801 105.485C94.8801 106.395 94.1401 107.135 93.2301 107.135Z" fill="#07064E"></path>
<path id="Vector_14" d="M115.44 107.05V107.04L113.86 108.195L106.515 113.57L104.265 110.39L104.15 113.005C104.02 114.28 103.645 115.285 102.48 115.395L92.5998 115.535C91.4848 115.615 91.2998 117.075 92.5698 117.31L92.2448 117.38C90.1648 117.385 90.4198 118.73 91.5098 119.115L92.6648 119.215C90.1948 119.135 90.8298 121.275 92.2448 121.095L93.0298 120.995C92.4198 121.215 92.0748 122.495 93.1498 122.88L103.095 122.76C104.325 122.54 105.665 121.915 106.555 121.445L118.83 113.165C122.59 110.495 116.335 106.235 115.435 107.055L115.44 107.05Z" fill="white"></path>
<path id="Vector_15" d="M77.1299 86.045C77.2799 89.675 77.4249 93.22 77.4249 93.22L77.6099 97.96L104.88 97.94L104.9 97.43C97.2049 96.51 83.2999 92.535 77.1299 86.045Z" fill="#FFAF6E"></path>
<path id="Vector_16" d="M97.9499 59.12C92.6399 58.68 91.5449 53.945 91.5449 54.875C91.5449 60.3 94.3899 64.7 97.8949 64.7C101.4 64.7 104.245 60.3 104.245 54.875C104.245 53.945 102.315 59.485 97.9449 59.12H97.9499Z" fill="#EDEDED"></path>
<path id="Vector_17" d="M87.7202 39.18C87.4152 38.2 86.1502 38.24 85.5902 38.835C84.7352 39.74 85.2202 41.345 85.9302 43.42C86.3852 44.745 86.7602 46.39 87.9302 46.39" fill="white"></path>
<path id="Vector_18" d="M108.02 33.505C108.02 33.505 108.02 40.455 108.02 43.065C108.02 52.105 101.755 59.43 97.8354 59.43C93.9154 59.43 87.6504 52.1 87.6504 43.065C87.6504 40.1 88.3504 32.65 88.3504 32.65C93.4154 32.05 96.3054 30.395 98.2054 27.025C98.9454 30.265 103.31 33.12 108.02 33.505Z" fill="white"></path>
<path id="Vector_19" d="M98.4003 47.275C98.3653 47.275 98.3353 47.27 98.3003 47.255L96.9203 46.655C96.2903 46.32 96.5954 45.635 96.9104 44.915C97.0754 44.545 97.2603 44.125 97.3703 43.68L97.6253 42.42C97.6553 42.285 97.7853 42.195 97.9203 42.225C98.0553 42.255 98.1453 42.385 98.1153 42.52L97.8554 43.79C97.7304 44.285 97.5353 44.725 97.3653 45.115C97.0703 45.785 96.9503 46.11 97.1353 46.205L98.4953 46.8C98.6203 46.855 98.6803 47 98.6253 47.13C98.5853 47.225 98.4904 47.28 98.3954 47.28L98.4003 47.275Z" fill="#07064E"></path>
<path id="Vector_20" d="M119.31 67.27L117.505 66.98C121.32 69.17 124.67 72.615 124.755 77.765C124.955 89.695 124.73 100.74 123.705 104.375C123.49 105.135 120.925 108.23 120.475 108.87L122.3 110.695C124.29 109.105 125.815 107.475 126.225 105.175L127.555 76.85C127.99 71.49 124.53 67.435 119.31 67.27Z" fill="#FFAF6E"></path>
<path id="Vector_21" d="M108.025 39.18C108.33 38.2 109.595 38.24 110.155 38.835C111.01 39.74 110.525 41.345 109.815 43.42C109.36 44.745 108.985 46.39 107.815 46.39" fill="white"></path>
<path id="Vector_22" d="M97.9002 80.41C93.6402 77.565 90.1952 72.565 87.6802 65.1C95.2552 75.74 101.525 75.875 107.715 65.085C105.19 73.145 101.96 78.175 97.9002 80.41Z" fill="#07064E"></path>
<path id="Vector_23" d="M119.34 109.35C111.44 115.51 109.115 119.82 99.88 122.795C99.925 122.82 96.21 122.84 96.21 122.84L103.1 122.755C104.33 122.535 105.67 121.91 106.56 121.44L118.835 113.16C120.46 112.01 120.215 110.56 119.34 109.35Z" fill="#EDEDED"></path>
<path id="Vector_24" d="M98.9804 55.155H96.8604C96.7204 55.155 96.6104 55.045 96.6104 54.905C96.6104 54.765 96.7204 54.655 96.8604 54.655H98.9804C99.1204 54.655 99.2304 54.765 99.2304 54.905C99.2304 55.045 99.1204 55.155 98.9804 55.155Z" fill="#07064E"></path>
<path id="Vector_25" d="M77.8251 97.95C77.6951 97.95 77.5851 97.845 77.5751 97.715L76.8801 86.06C76.8701 85.92 76.975 85.805 77.115 85.795C77.25 85.785 77.3701 85.89 77.3801 86.03L78.0751 97.685C78.0851 97.825 77.9801 97.94 77.8401 97.95C77.8351 97.95 77.8301 97.95 77.8251 97.95Z" fill="#07064E"></path>
<path id="Vector_26" d="M106.52 113.82C106.445 113.82 106.37 113.785 106.32 113.72L103.845 110.395C103.765 110.285 103.785 110.125 103.895 110.045C104.005 109.965 104.16 109.985 104.245 110.095L106.575 113.225L115.295 106.845C116.925 105.415 117.09 104.435 117.16 103.095L117.815 86.045C117.82 85.905 117.94 85.815 118.075 85.805C118.215 85.81 118.32 85.925 118.315 86.065L117.66 103.12C117.59 104.495 117.4 105.675 115.61 107.235L106.67 113.775C106.625 113.81 106.575 113.825 106.525 113.825L106.52 113.82Z" fill="#07064E"></path>
<path id="Vector_27" d="M108.02 33.505C107.29 33.445 106.01 33.14 105.31 32.97C109.215 46.04 104.065 53.225 96.6699 59.23C97.0749 59.36 97.4649 59.43 97.8349 59.43C101.76 59.43 108.02 52.1 108.02 43.065V33.505Z" fill="#EBEBEB"></path>
<path id="Vector_28" d="M89.8199 37.015C89.7749 37.015 89.7249 37 89.6849 36.975C89.5699 36.9 89.5349 36.745 89.6099 36.63C90.5549 35.165 92.6249 35.01 95.4449 36.185C95.5699 36.24 95.6349 36.385 95.5799 36.51C95.5249 36.64 95.3799 36.695 95.2549 36.645C93.7649 36.025 91.1099 35.23 90.0349 36.9C89.9849 36.975 89.9049 37.015 89.8249 37.015H89.8199Z" fill="#07064E"></path>
<path id="Vector_29" d="M105.585 37.015C105.505 37.015 105.42 36.975 105.375 36.9C104.3 35.23 101.64 36.025 100.155 36.645C100.03 36.695 99.88 36.64 99.83 36.51C99.775 36.385 99.835 36.235 99.965 36.185C102.785 35.01 104.855 35.165 105.8 36.63C105.875 36.745 105.84 36.9 105.725 36.975C105.685 37 105.635 37.015 105.59 37.015H105.585Z" fill="#07064E"></path>
<path id="Vector_30" d="M122.217 111.016L116.426 104.814C116.121 104.487 115.608 104.47 115.281 104.775L113.538 106.403C113.211 106.708 113.193 107.221 113.499 107.548L119.29 113.749C119.595 114.076 120.108 114.093 120.435 113.788L122.178 112.16C122.505 111.855 122.522 111.343 122.217 111.016Z" fill="#07064E"></path>
<path id="Vector_31" d="M119.885 114.26C119.6 114.26 119.32 114.145 119.11 113.925L113.315 107.72C112.915 107.295 112.94 106.625 113.365 106.225L115.11 104.595C115.535 104.2 116.205 104.22 116.605 104.645L122.4 110.85C122.8 111.275 122.775 111.945 122.35 112.345L120.605 113.975C120.4 114.165 120.14 114.26 119.885 114.26ZM119.48 113.58C119.69 113.805 120.045 113.815 120.27 113.605L122.015 111.975C122.24 111.765 122.25 111.41 122.04 111.185L116.245 104.98C116.035 104.755 115.68 104.745 115.455 104.955L113.71 106.585C113.485 106.795 113.475 107.15 113.685 107.375L119.48 113.58Z" fill="#07064E"></path>
<path id="Vector_32" d="M108.02 35.215C107.98 35.215 107.94 35.215 107.895 35.21C103.275 34.645 99.6105 32.655 98.0105 30.01C95.7705 32.73 91.2405 34.505 86.1055 34.505C85.5555 34.505 85.1055 34.055 85.1055 33.505C85.1055 32.955 85.5555 32.505 86.1055 32.505C91.4655 32.505 96.1605 30.35 97.2655 27.385C97.4255 26.96 97.8455 26.695 98.3005 26.74C98.7505 26.785 99.1155 27.125 99.1905 27.57C99.6455 30.31 103.325 32.635 108.14 33.225C108.69 33.29 109.08 33.79 109.01 34.34C108.95 34.845 108.515 35.22 108.02 35.22V35.215Z" fill="#EBEBEB"></path>
<path id="Vector_33" d="M121.405 67.32L112.205 65.65C113.26 54.395 114.06 45.43 114.06 40.97C114.06 29.745 106.81 20.61 97.8948 20.61C88.9798 20.61 81.7298 29.745 81.7298 40.97C81.7298 45.005 82.1748 52.835 82.9848 65.72L73.9248 67.32C70.1798 68.13 67.4648 71.5 67.4648 75.34L68.2148 97.9C68.2148 98.035 68.3298 98.14 68.4648 98.14H68.4748C68.6148 98.14 68.7198 98.02 68.7148 97.88L67.9648 75.325C67.9648 71.73 70.5148 68.565 74.0198 67.805L86.1448 65.66L86.7548 65.55C86.7548 65.55 86.7548 65.55 86.7648 65.55L87.5198 65.415C90.2198 72.99 93.5448 77.925 97.6948 80.49C97.7698 80.535 97.8648 80.54 97.9448 80.5C102.215 78.24 105.285 73.565 107.88 65.36L121.305 67.8C124.82 68.565 127.37 71.725 127.37 75.31L126.075 103.79C125.91 107.475 123.56 109.575 121.535 110.99L108.54 119.895L105.76 121.515C104.525 122.235 103.115 122.615 101.68 122.615H93.2998C92.9298 122.615 92.6298 122.315 92.6298 121.95C92.6298 121.585 92.9148 121.305 93.2698 121.29H93.3798C93.3798 121.29 93.3998 121.29 93.4098 121.285H99.2448C99.3848 121.285 99.4948 121.175 99.4948 121.035C99.4948 120.895 99.3848 120.785 99.2448 120.785H93.2998C93.2998 120.785 93.2598 120.785 93.2398 120.79H91.8998C91.5298 120.79 91.2298 120.49 91.2298 120.125C91.2298 119.76 91.5298 119.455 91.8998 119.455H99.2648C99.4048 119.455 99.5148 119.345 99.5148 119.205C99.5148 119.065 99.4048 118.955 99.2648 118.955H91.6098C91.2398 118.955 90.9398 118.655 90.9398 118.29C90.9398 117.925 91.2398 117.625 91.6098 117.625H99.1598C99.2998 117.625 99.4098 117.515 99.4098 117.375C99.4098 117.235 99.2998 117.125 99.1598 117.125H92.6098C92.2398 117.125 91.9398 116.825 91.9398 116.455C91.9398 116.085 92.2398 115.785 92.6048 115.785L102.075 115.695C103.055 115.685 103.905 115.05 104.19 114.11C104.2 114.085 104.2 114.055 104.2 114.025L104.155 112.925C104.15 112.785 104.03 112.685 103.895 112.685C103.755 112.69 103.65 112.805 103.655 112.945L103.695 114.005C103.46 114.715 102.81 115.19 102.065 115.195L92.5948 115.285C91.9548 115.29 91.4348 115.815 91.4348 116.455C91.4348 116.705 91.5148 116.935 91.6498 117.125H91.6098C90.9648 117.125 90.4398 117.65 90.4398 118.29C90.4398 118.735 90.6948 119.115 91.0598 119.315C90.8548 119.525 90.7298 119.81 90.7298 120.125C90.7298 120.77 91.2548 121.29 91.8998 121.29H92.3398C92.2098 121.48 92.1298 121.705 92.1298 121.95C92.1298 122.595 92.6548 123.115 93.3198 123.115H101.68C103.2 123.115 104.695 122.71 106.01 121.945L108.805 120.315L121.82 111.4C123.94 109.915 126.4 107.715 126.575 103.81L127.87 75.315C127.87 71.485 125.155 68.115 121.405 67.3V67.32ZM97.8448 80C93.8548 77.475 90.6348 72.645 88.0048 65.26C92.3548 63.885 91.9498 59.82 91.5548 55.875C91.5348 55.68 91.5198 55.49 91.4998 55.295C93.5298 58.005 95.9448 59.68 97.8348 59.68C99.7248 59.68 102.235 58.005 104.27 55.265C104.25 55.47 104.235 55.67 104.21 55.875C103.825 59.715 103.43 63.67 107.43 65.145C104.895 73.175 101.935 77.77 97.8448 79.995V80ZM109.085 65.065C103.88 64.18 104.28 60.17 104.71 55.925C104.76 55.43 104.81 54.93 104.85 54.445C104.85 54.445 104.85 54.445 104.85 54.44C106.27 52.295 107.42 49.61 107.95 46.63C109.06 46.53 109.5 45.18 109.89 43.985C109.945 43.82 109.995 43.66 110.05 43.505C110.83 41.225 111.275 39.655 110.34 38.665C109.96 38.26 109.325 38.075 108.76 38.205C108.57 38.25 108.41 38.335 108.27 38.435V34.215C108.27 34.215 108.265 34.195 108.265 34.18C108.265 34.165 108.265 34.145 108.255 34.13C108.25 34.115 108.24 34.1 108.235 34.09C108.225 34.075 108.22 34.065 108.21 34.05C108.2 34.04 108.185 34.03 108.175 34.02C108.165 34.01 108.15 34 108.135 33.995C108.12 33.985 108.105 33.985 108.085 33.98C108.075 33.98 108.065 33.97 108.055 33.97C102.91 33.34 98.9648 30.76 98.4548 27.695C98.4348 27.585 98.3448 27.5 98.2298 27.485C98.1198 27.475 98.0098 27.54 97.9698 27.645C96.7598 30.895 91.7698 33.25 86.1098 33.25C85.9698 33.25 85.8598 33.36 85.8598 33.5C85.8598 33.64 85.9698 33.75 86.1098 33.75C91.6798 33.75 96.4698 31.62 98.1348 28.49C99.0948 31.44 102.83 33.765 107.77 34.425V40.18C107.77 40.32 107.88 40.43 108.02 40.43C108.16 40.43 108.27 40.32 108.27 40.18V39.24C108.39 38.87 108.665 38.735 108.875 38.685C109.255 38.595 109.72 38.73 109.975 39C110.715 39.785 110.28 41.29 109.58 43.335C109.525 43.495 109.47 43.66 109.42 43.825C109.085 44.855 108.735 45.905 108.04 46.095C108.19 45.11 108.27 44.1 108.27 43.06C108.27 42.92 108.16 42.81 108.02 42.81C107.88 42.81 107.77 42.92 107.77 43.06C107.77 51.8 101.665 59.18 97.8348 59.18C95.9098 59.18 93.4148 57.32 91.4048 54.36C91.3898 54.305 91.3598 54.255 91.3148 54.22C89.3698 51.3 87.8998 47.345 87.8998 43.06C87.8998 40.145 88.2798 36.82 88.2848 36.785C88.2998 36.65 88.2048 36.525 88.0648 36.51C87.9298 36.5 87.8048 36.595 87.7898 36.73C87.7898 36.745 87.7048 37.47 87.6148 38.535C87.4498 38.375 87.2398 38.26 86.9898 38.205C86.4298 38.07 85.7948 38.26 85.4098 38.665C84.4748 39.655 84.9148 41.225 85.6948 43.505C85.7498 43.66 85.7998 43.825 85.8548 43.985C86.2398 45.155 86.6698 46.475 87.7248 46.625C88.2748 49.605 89.4598 52.31 90.9148 54.475C90.9548 54.955 91.0048 55.44 91.0498 55.925C91.4748 60.17 91.8798 64.175 86.6748 65.065L86.0598 65.175L83.4948 65.63C82.6848 52.79 82.2248 44.985 82.2248 40.97C82.2248 30.02 89.2548 21.11 97.8898 21.11C106.525 21.11 113.555 30.02 113.555 40.97C113.555 45.4 112.755 54.335 111.705 65.56L109.14 65.095C109.14 65.095 109.1 65.075 109.08 65.07L109.085 65.065ZM87.6348 46.085C86.9898 45.845 86.6548 44.82 86.3298 43.825C86.2748 43.66 86.2198 43.495 86.1698 43.335C85.4698 41.29 85.0298 39.785 85.7748 39C86.0298 38.73 86.4948 38.595 86.8748 38.685C87.0898 38.735 87.3648 38.875 87.4848 39.25C87.4998 39.29 87.5198 39.325 87.5498 39.35C87.4698 40.465 87.3998 41.8 87.3998 43.06C87.3998 44.09 87.4848 45.1 87.6398 46.08L87.6348 46.085Z" fill="#07064E"></path>
<path id="Vector_34" d="M94.6704 41.46L93.9804 40.77C94.3504 40.395 94.5804 39.87 94.5804 39.28C94.5804 39.14 94.4704 39.03 94.3304 39.03C94.1904 39.03 94.0804 39.14 94.0804 39.28C94.0804 40.14 93.4404 40.84 92.6554 40.84C91.8704 40.84 91.2304 40.14 91.2304 39.28C91.2304 39.14 91.1204 39.03 90.9804 39.03C90.8404 39.03 90.7304 39.14 90.7304 39.28C90.7304 39.865 90.9654 40.395 91.3304 40.77L90.6404 41.46C90.5404 41.56 90.5404 41.715 90.6404 41.815C90.6904 41.865 90.7554 41.89 90.8154 41.89C90.8754 41.89 90.9454 41.865 90.9904 41.815L91.7254 41.08C91.9304 41.2 92.1554 41.28 92.4004 41.315V42.275C92.4004 42.415 92.5104 42.525 92.6504 42.525C92.7904 42.525 92.9004 42.415 92.9004 42.275V41.315C93.1404 41.28 93.3704 41.2 93.5754 41.08L94.3104 41.815C94.3604 41.865 94.4254 41.89 94.4854 41.89C94.5454 41.89 94.6154 41.865 94.6604 41.815C94.7604 41.715 94.7604 41.56 94.6604 41.46H94.6704Z" fill="#07064E"></path>
<path id="Vector_35" d="M105.015 41.46L104.325 40.77C104.695 40.395 104.925 39.87 104.925 39.28C104.925 39.14 104.815 39.03 104.675 39.03C104.535 39.03 104.425 39.14 104.425 39.28C104.425 40.14 103.785 40.84 103 40.84C102.215 40.84 101.575 40.14 101.575 39.28C101.575 39.14 101.465 39.03 101.325 39.03C101.185 39.03 101.075 39.14 101.075 39.28C101.075 39.865 101.31 40.395 101.675 40.77L100.985 41.46C100.885 41.56 100.885 41.715 100.985 41.815C101.035 41.865 101.1 41.89 101.16 41.89C101.22 41.89 101.29 41.865 101.335 41.815L102.07 41.08C102.275 41.2 102.5 41.28 102.745 41.315V42.275C102.745 42.415 102.855 42.525 102.995 42.525C103.135 42.525 103.245 42.415 103.245 42.275V41.315C103.485 41.28 103.715 41.2 103.92 41.08L104.655 41.815C104.705 41.865 104.77 41.89 104.83 41.89C104.89 41.89 104.96 41.865 105.005 41.815C105.105 41.715 105.105 41.56 105.005 41.46H105.015Z" fill="#07064E"></path>
<path id="Vector_36" d="M97.835 98.29C97.695 98.29 97.585 98.18 97.585 98.04V80.285C97.585 80.145 97.695 80.035 97.835 80.035C97.975 80.035 98.085 80.145 98.085 80.285V98.04C98.085 98.18 97.975 98.29 97.835 98.29Z" fill="#07064E"></path>
<path id="Vector_37" d="M98.2301 73.395C94.7951 73.395 91.2051 70.65 87.5651 65.225C87.4901 65.11 87.5201 64.955 87.6351 64.88C87.7501 64.805 87.9051 64.835 87.9801 64.95C91.6251 70.38 95.1701 73.04 98.5101 72.895C101.67 72.745 104.695 70.055 107.495 64.895C107.56 64.775 107.715 64.73 107.835 64.795C107.955 64.86 108 65.015 107.935 65.135C105.045 70.46 101.88 73.24 98.5301 73.395C98.4301 73.395 98.3301 73.4 98.2301 73.4V73.395Z" fill="#07064E"></path>
<path id="Vector_38" d="M33.2399 17.465C34.7249 39.3 22.9849 43.865 16.0449 44.56C18.1699 45.625 20.5599 46.23 23.0849 46.23C31.8899 46.23 39.0299 38.96 39.0299 29.99C39.0299 24.95 36.7749 20.445 33.2349 17.465H33.2399Z" fill="#2AEDB4"></path>
<g id="Group">
<path id="Vector_39" d="M179.215 49.12C179.86 49.085 180.525 49.065 181.22 49.055C173.905 54.705 165.335 56.285 163.5 70.025L162.56 72.8C162.465 71.785 162.375 70.6 162.305 69.335C163.665 59.045 169.93 51.25 179.215 49.115V49.12Z" fill="#2AEDB4"></path>
<path id="Vector_40" d="M161.865 52.435C162.64 43.9 166.65 37.375 172.425 32.1C172.755 31.95 173.09 31.805 173.435 31.665C165.93 40.11 163.49 50.43 162.665 58.695L162.185 65.11C161.535 62.46 161.08 57.965 160.935 56.465C161.25 55.12 161.905 53.625 161.865 52.435Z" fill="#2AEDB4"></path>
<path id="Vector_41" d="M162.48 72.565C161.175 68.145 159.42 64.895 157.085 63.155C154.635 58.68 156.43 56.525 151.455 54.095C151.455 54.095 151.805 54.11 152.385 54.17C160.505 57.315 159.805 62.335 162.385 70.805L162.43 71.355L162.475 72.555L162.48 72.565Z" fill="#2AEDB4"></path>
<path id="Vector_42" d="M182.295 61.945C182.33 61.955 182.36 61.965 182.395 61.98C176.095 63.14 170.225 67.455 165.51 74.125L162.825 78.17C162.76 78.015 162.69 77.785 162.625 77.505C165.685 68.325 172.255 61.325 182.3 61.95L182.295 61.945Z" fill="#2AEDB4"></path>
<path id="Vector_43" d="M183 69.935C178.38 71.13 166.95 75.13 163 85.12L162.855 79.465C163.13 79.045 163.42 78.64 163.75 78.265C168.8 72.675 175.95 71.045 183 69.94V69.935Z" fill="#2AEDB4"></path>
<path id="Vector_44" d="M163.18 82.31C163.18 82.335 163.19 82.36 163.195 82.385C163.165 83.195 163.09 84.01 162.975 84.81C160.24 81.295 160.92 72.96 153.615 71.29C153.765 71.25 153.91 71.22 154.055 71.185C159.445 70.78 162.44 76.06 163.18 82.31Z" fill="#2AEDB4"></path>
<path id="Vector_45" d="M182.92 70.905C182.83 70.87 172.425 69.55 166.75 72.86C171.305 66.95 176.7 63.28 182.435 62.225C182.545 62.205 182.63 62.11 182.64 62C182.65 61.89 182.585 61.785 182.475 61.745C177.665 59.975 174.035 60.635 168.075 64.36C166.195 65.665 164.885 67.13 163.98 68.61C165.67 59.27 170.805 56.075 176.23 52.705C177.93 51.65 179.69 50.56 181.375 49.26C181.46 49.195 181.495 49.08 181.46 48.98C181.425 48.88 181.33 48.795 181.22 48.81C171.845 48.92 165.99 51.285 163.31 56.04C163.28 56.09 163.25 56.15 163.22 56.205C164.595 46.15 168.005 38.155 173.625 31.835C173.7 31.75 173.71 31.62 173.64 31.525C173.575 31.43 173.45 31.39 173.34 31.44C157.715 37.87 159.63 49.65 160.445 54.68C160.535 55.235 160.615 55.715 160.65 56.08L160.66 56.195C160.78 57.455 160.905 58.63 161.04 59.705C160.135 57.58 158.865 56.01 157.23 55.03C154.38 53.32 151.52 54.03 151.395 54.06C151.295 54.085 151.22 54.175 151.21 54.275C151.2 54.38 151.255 54.48 151.35 54.525C154.48 56.055 154.83 57.355 155.36 59.33C155.66 60.435 155.995 61.69 156.865 63.28C156.91 63.365 156.995 63.41 157.085 63.41C157.1 63.41 157.17 63.535 157.23 63.575C160.36 65.77 161.815 71.96 162.19 73.805C162.19 73.81 162.19 73.815 162.195 73.82C162.12 74.515 162.105 75.165 162.13 75.75C161.885 75.28 161.615 74.825 161.3 74.395C161.3 74.395 161.295 74.385 161.29 74.385C161.035 74.075 160.805 73.785 160.585 73.515C158.45 70.85 157.73 69.955 153.43 71.09C153.32 71.12 153.24 71.22 153.245 71.335C153.245 71.45 153.325 71.55 153.44 71.575C158.345 72.7 159.72 76.935 160.935 80.675C161.475 82.335 161.985 83.9 162.765 84.96C162.765 84.96 162.775 84.965 162.775 84.97C162.79 84.99 162.81 85 162.83 85.015C162.84 85.02 162.85 85.03 162.86 85.035C162.86 85.035 162.86 85.035 162.865 85.035C162.895 85.05 162.93 85.055 162.96 85.055C162.98 85.055 163 85.055 163.02 85.045C163.035 85.045 163.04 85.03 163.055 85.025C163.08 85.015 163.1 85.005 163.12 84.985C163.14 84.97 163.15 84.95 163.165 84.93C163.175 84.92 163.185 84.91 163.19 84.895C167.865 73.7 182.695 71.395 182.845 71.375C182.96 71.36 183.045 71.27 183.06 71.16C183.075 71.045 183.01 70.94 182.905 70.895L182.92 70.905ZM168.35 64.775C173.78 61.38 177.215 60.6 181.445 61.92C175.525 63.295 170 67.395 165.41 73.83C164.935 74.2 163.82 75.395 162.845 77.4C162.515 75.98 162.34 73.15 163.695 70.18C163.71 70.155 163.725 70.13 163.735 70.1C164.585 68.27 166.015 66.4 168.35 64.775ZM163.74 56.29C166.255 51.83 171.725 49.545 180.455 49.32C178.98 50.405 177.45 51.355 175.97 52.275C170.175 55.87 164.7 59.27 163.26 69.955C163.03 70.455 162.845 70.95 162.695 71.435C162.245 65.665 162.27 58.7 163.74 56.29ZM172.54 32.325C166.83 39.12 163.52 47.735 162.425 58.63C162.18 59.86 162.045 61.3 161.985 62.785C161.69 61.02 161.41 58.75 161.16 56.145L161.15 56.03C161.115 55.65 161.035 55.16 160.945 54.6C160.165 49.795 158.36 38.685 172.545 32.325H172.54ZM157.52 63.165C157.465 63.125 157.395 63.11 157.33 63.125C157.33 63.095 157.32 63.065 157.305 63.04C156.46 61.5 156.135 60.28 155.84 59.2C155.335 57.32 154.96 55.925 152.25 54.43C153.255 54.335 155.14 54.355 156.975 55.46C159.105 56.74 160.6 59.095 161.415 62.455C161.585 63.515 161.755 64.415 161.93 65.135C161.93 67.74 162.09 70.225 162.21 71.735C161.49 69.045 160.025 64.925 157.515 63.165H157.52ZM154.49 71.35C157.66 70.65 158.29 71.435 160.205 73.83C160.42 74.1 160.655 74.39 160.905 74.7C162.63 77.08 163.26 80.16 162.81 84.1C162.265 83.135 161.85 81.86 161.415 80.525C160.295 77.08 158.92 72.845 154.485 71.355L154.49 71.35ZM163.385 83.355C163.535 81.455 163.43 79.75 163.055 78.23C163.07 78.185 163.07 78.13 163.055 78.085C163.075 78.065 163.09 78.045 163.105 78.015C164.015 75.995 165.06 74.83 165.54 74.37C165.61 74.36 165.67 74.33 165.715 74.27C165.75 74.22 165.79 74.17 165.825 74.12C169.65 70.895 177.645 71.015 181.115 71.24C177.225 72.17 167.63 75.225 163.39 83.36L163.385 83.355Z" fill="#07064E"></path>
</g>
<g id="Group_2">
<path id="Vector_46" d="M156.635 75.78C157.095 71.085 158.82 73.005 165.2 60.87C160.01 62.01 158.455 62.33 156.675 64.96C154.88 67.465 154.82 72.045 155.255 75.485" fill="#2BF5BA"></path>
<g id="Group_3">
<path id="Vector_47" d="M156.345 65.51C157.205 60.585 159.16 53.145 162.87 49.085C162.87 49.085 151.65 54.325 152.46 64.27C152.46 64.27 152.825 69.085 153.82 70.465L154.785 73.945H155.145C155.145 73.945 155.13 67.535 156.345 65.51Z" fill="#2BF5BA"></path>
<path id="Vector_48" d="M156.615 75.29C155.6 78.485 156.52 81.5 157.92 84.135C159.05 80.66 158.35 73.21 164.045 69.38C159.855 69.975 157.985 71.675 156.61 75.295L156.615 75.29Z" fill="#2BF5BA"></path>
<path id="Vector_49" d="M134.195 61.165C133.645 61.36 133.075 61.57 132.485 61.8C140.245 63.815 147.92 62.15 153.325 72.505L154.9 74.4C154.695 73.555 154.44 72.575 154.14 71.545C150.1 63.785 142.625 59.695 134.195 61.165Z" fill="#2AEDB4"></path>
<path id="Vector_50" d="M149.76 57.88C146.705 51.325 141.495 47.475 135.14 45.24C134.82 45.235 134.495 45.23 134.165 45.24C142.865 49.425 147.825 56.84 150.84 63.165L153.045 68.13C152.85 65.79 151.97 62.04 151.67 60.795C151.025 59.825 150.055 58.86 149.755 57.89L149.76 57.88Z" fill="#2AEDB4"></path>
<path id="Vector_51" d="M155.165 73.08C155.02 68.64 155.055 67.525 156.62 65.09C157.48 60.165 159.575 52.585 163.285 48.525C163.285 48.525 162.98 48.67 162.475 48.95C156.165 54.855 154.51 62.945 154.725 71.485L154.845 71.995L155.165 73.085V73.08Z" fill="#2AEDB4"></path>
<path id="Vector_52" d="M135.2 72.465C135.2 72.465 135.15 72.505 135.125 72.525C140.765 71.3 146.93 72.74 152.78 76.46L156.18 78.775C156.19 78.63 156.185 78.425 156.165 78.175C151.005 71.88 143.495 68.535 135.195 72.465H135.2Z" fill="#2AEDB4"></path>
<path id="Vector_53" d="M156.185 76.91L156.58 75.4C157.02 70.925 158.66 72.755 164.745 61.185C164.47 61.245 164.21 61.3 163.955 61.36C158.78 64.52 154.27 71.745 156.185 76.91Z" fill="#2AEDB4"></path>
<path id="Vector_54" d="M136.845 79.09C141.08 78.465 151.845 77.76 157.985 84.39L156.52 79.82C156.17 79.58 155.81 79.355 155.425 79.165C149.595 76.425 143.105 77.565 136.845 79.09Z" fill="#2AEDB4"></path>
<path id="Vector_55" d="M157.045 82.205C157.045 82.205 157.05 82.25 157.055 82.27C157.305 82.91 157.6 83.53 157.92 84.135C159.05 80.655 158.35 73.21 164.045 69.38C163.905 69.4 163.775 69.425 163.645 69.445C158.985 70.965 155.915 76.96 157.045 82.205Z" fill="#2AEDB4"></path>
<path id="Vector_56" d="M164.965 61.305C165.01 61.22 165 61.115 164.945 61.035C164.885 60.955 164.79 60.92 164.695 60.94L164.58 60.965C160.015 61.965 158.395 62.325 156.81 64.4C157.575 60.495 159.42 53.235 163.06 49.255C163.14 49.165 163.15 49.035 163.075 48.94C163 48.845 162.875 48.81 162.77 48.86C162.665 48.91 153.065 53.5 152.24 62.08C152.125 61.565 152 61.035 151.865 60.48L151.84 60.385C151.77 60.085 151.7 59.675 151.62 59.2C150.9 54.93 149.23 44.985 134.61 44.985C134.465 44.985 134.315 44.985 134.165 44.985C134.05 44.985 133.95 45.07 133.925 45.18C133.9 45.295 133.955 45.41 134.06 45.46C140.54 48.575 145.64 53.765 149.61 61.265C149.595 61.255 149.585 61.245 149.57 61.235C145.96 58.335 140.34 58.445 132.395 61.565C132.295 61.605 132.23 61.705 132.235 61.815C132.24 61.925 132.315 62.015 132.42 62.04C134.205 62.505 136 62.775 137.73 63.035C143.22 63.865 148.42 64.66 152.45 71.445C151.275 70.595 149.77 69.89 147.845 69.495C141.775 68.555 138.525 69.27 134.96 72.33C134.875 72.405 134.85 72.53 134.9 72.63C134.95 72.735 135.065 72.785 135.175 72.765C140.045 71.705 145.32 72.635 150.545 75.44C144.87 74.3 136.13 78.595 135.06 79.165C134.995 79.2 134.955 79.22 134.955 79.225C134.87 79.305 134.855 79.43 134.91 79.53C134.965 79.63 135.08 79.68 135.195 79.65C135.34 79.61 150.13 76.265 157.81 84.56C157.86 84.615 157.925 84.64 157.995 84.64C158.055 84.64 158.115 84.62 158.165 84.575C158.265 84.48 158.27 84.325 158.18 84.22L158.17 84.21C158.465 83.295 158.635 82.15 158.83 80.82C159.38 77.055 160.065 72.37 164.2 69.585C164.295 69.52 164.335 69.395 164.295 69.29C164.255 69.18 164.14 69.12 164.025 69.13C160.78 69.59 158.815 70.72 157.41 73.07C157.715 72.43 158.145 71.88 158.765 71.1C160.025 69.505 161.935 67.095 164.98 61.305H164.965ZM161.85 49.925C158.315 54.595 156.67 62.19 156.105 65.435C154.83 67.65 154.73 70.935 154.845 73.175C154.515 71.915 153.975 70.01 153.295 68.065C153.21 67.11 153.01 65.83 152.705 64.295C152.705 64.28 152.71 64.27 152.705 64.255C152.075 56.48 159.05 51.57 161.845 49.93L161.85 49.925ZM135.23 45.49C148.85 45.77 150.435 55.2 151.125 59.28C151.205 59.765 151.275 60.18 151.355 60.5L151.38 60.6C151.88 62.675 152.265 64.51 152.515 65.99C152.065 64.895 151.575 63.86 151.055 63.015C147.09 54.725 141.91 48.98 135.235 45.495L135.23 45.49ZM137.805 62.545C136.335 62.32 134.825 62.095 133.32 61.745C140.69 58.975 145.91 58.94 149.265 61.635C151.155 63.035 153.115 68.525 154.35 73.26C154.105 72.95 153.83 72.645 153.525 72.355C149.3 64.29 143.715 63.445 137.805 62.55V62.545ZM136.05 72.095C139.205 69.675 142.31 69.15 147.76 69.995C150.19 70.495 151.92 71.505 153.145 72.675C153.155 72.69 153.17 72.7 153.18 72.71C155.165 74.62 155.805 76.95 155.92 78.185C154.895 77.265 153.755 76.635 152.885 76.24C147.22 72.645 141.425 71.23 136.045 72.105L136.05 72.095ZM136.87 78.845C140.01 77.425 147.01 74.68 151.355 76.17H151.365C151.475 76.205 154.09 77.005 155.975 78.915C156.095 80.305 156.515 81.76 157.22 83.285C150.88 77.545 140.925 78.25 136.865 78.84L136.87 78.845ZM163.065 69.8C159.49 72.76 158.82 77.34 158.325 80.745C158.175 81.77 158.04 82.685 157.855 83.455C156.38 80.46 156.06 77.88 156.855 75.375C158.13 72.025 159.81 70.475 163.07 69.805L163.065 69.8ZM156.33 75.365C156.22 75.735 156.13 76.115 156.07 76.49C155.935 76.05 155.75 75.58 155.515 75.095C155.515 75.095 155.515 75.09 155.515 75.085C155.31 73.485 154.8 68.05 156.825 65.225C158.4 62.89 159.81 62.525 164.27 61.545C161.395 66.95 159.575 69.25 158.36 70.785C157.125 72.345 156.56 73.055 156.335 75.365H156.33Z" fill="#07064E"></path>
</g>
</g>
<g id="Group_4">
<path id="Vector_57" d="M171.96 78.2C172.915 74.625 175.025 68.38 177.24 66.89C179.265 65.42 183.445 63.62 193.545 67.21C186.07 68.965 178.68 67.515 173.47 76.545" fill="#2BF5BA"></path>
<path id="Vector_58" d="M173.74 72.725C173.955 70.435 174.995 66.585 175.14 66.025C175.835 63.395 176.025 52.57 191.925 52.765C183.545 56.415 178.77 62.885 175.86 68.395" fill="#2BF5BA"></path>
<path id="Vector_59" d="M170.12 69.845C169.34 65.995 167.94 61.99 164.56 58.82C164.56 58.82 174.785 62.915 174.045 70.685L172.045 76.91H171.355L170.12 69.845Z" fill="#2BF5BA"></path>
<path id="Vector_60" d="M170.72 82.015C170.62 80.85 171.67 75.465 178.785 74.145C184.605 73.33 187.69 73.995 191 76.565C185.565 75.495 179.63 76.755 173.995 79.995L170.72 82.015Z" fill="#2BF5BA"></path>
<path id="Vector_61" d="M170.34 79.075C169.915 75.17 168.335 76.765 162.475 66.68C167.24 67.625 168.67 67.895 170.3 70.08C171.95 72.16 172.005 75.97 171.6 78.83" fill="#2BF5BA"></path>
<path id="Vector_62" d="M170.305 78.98C171.28 81.77 170.395 84.395 169.045 86.695C167.96 83.66 168.63 77.17 163.145 73.825C167.18 74.345 168.98 75.825 170.305 78.98Z" fill="#2BF5BA"></path>
</g>
<g id="Group_5">
<path id="Vector_63" d="M191.631 66.655C192.161 66.825 192.711 67.005 193.276 67.21C185.801 68.965 178.411 67.515 173.201 76.545L171.686 78.2C171.886 77.46 172.131 76.61 172.416 75.71C176.306 68.945 183.506 65.375 191.626 66.655H191.631Z" fill="#2AEDB4"></path>
<path id="Vector_64" d="M176.635 63.795C179.575 58.08 184.595 54.72 190.715 52.77C191.025 52.77 191.335 52.765 191.655 52.77C183.275 56.42 178.5 62.89 175.59 68.4L173.465 72.73C173.655 70.69 174.5 67.42 174.785 66.33C175.405 65.485 176.34 64.64 176.63 63.795H176.635Z" fill="#2AEDB4"></path>
<path id="Vector_65" d="M171.685 78.01C171.82 74.54 171.27 71.75 169.845 69.845C169.065 65.995 167.665 61.99 164.285 58.82C164.285 58.82 164.565 58.935 165.02 59.15C170.77 63.765 172.28 70.085 172.085 76.76L171.975 77.16L171.685 78.01Z" fill="#2AEDB4"></path>
<path id="Vector_66" d="M190.66 76.51C190.66 76.51 190.705 76.545 190.73 76.56C185.3 75.49 179.36 76.75 173.725 79.99L170.45 82.01C170.44 81.885 170.445 81.705 170.465 81.485C175.435 75.995 182.67 73.08 190.66 76.505V76.51Z" fill="#2AEDB4"></path>
<path id="Vector_67" d="M170.451 80.39L170.071 79.075C169.646 75.17 168.066 76.765 162.206 66.68C162.471 66.735 162.721 66.78 162.966 66.83C167.946 69.585 172.296 75.885 170.451 80.39Z" fill="#2AEDB4"></path>
<path id="Vector_68" d="M169.62 85.01C169.62 85.01 169.615 85.045 169.61 85.065C169.365 85.625 169.085 86.165 168.775 86.69C167.69 83.655 168.36 77.165 162.875 73.82C163.01 73.835 163.135 73.86 163.26 73.88C167.75 75.205 170.705 80.435 169.62 85.01Z" fill="#2AEDB4"></path>
<path id="Vector_69" d="M193.36 66.975C185.72 64.26 180.315 64.165 176.845 66.675C180.655 60.19 185.55 55.695 191.755 52.995C191.865 52.95 191.925 52.83 191.9 52.715C191.875 52.6 191.775 52.515 191.66 52.515C191.515 52.515 191.375 52.515 191.235 52.515C177.15 52.515 175.535 61.205 174.84 64.935C174.765 65.345 174.695 65.705 174.63 65.965L174.605 66.05C174.36 66.97 174.15 67.825 173.965 68.615C172.95 62.095 164.48 58.625 164.385 58.585C164.275 58.54 164.145 58.585 164.08 58.685C164.015 58.785 164.03 58.92 164.12 59C167.38 62.055 168.69 65.825 169.405 68.97C167.99 67.575 166.34 67.24 162.37 66.455L162.255 66.43C162.16 66.41 162.06 66.45 162.005 66.53C161.95 66.61 161.945 66.715 161.99 66.8C164.925 71.855 166.765 73.955 167.98 75.345C168.44 75.87 168.785 76.265 169.05 76.665C167.71 74.845 165.855 73.95 162.91 73.57C162.795 73.55 162.68 73.625 162.64 73.735C162.6 73.845 162.645 73.97 162.745 74.03C166.715 76.45 167.375 80.53 167.905 83.805C168.095 84.965 168.255 85.97 168.54 86.775C168.575 86.865 168.655 86.93 168.75 86.94C168.76 86.94 168.765 86.94 168.775 86.94C168.865 86.94 168.945 86.895 168.99 86.815C169.95 85.18 170.505 83.64 170.655 82.175L173.85 80.21C179.54 76.935 185.36 75.76 190.685 76.805C190.8 76.83 190.915 76.77 190.96 76.665C191.01 76.56 190.975 76.435 190.885 76.365C187.455 73.7 184.325 73.075 178.47 73.895C176.665 74.23 175.235 74.825 174.115 75.55C177.985 69.73 182.965 69.045 188.22 68.325C189.89 68.095 191.615 67.86 193.335 67.455C193.445 67.43 193.52 67.335 193.525 67.225C193.53 67.115 193.465 67.015 193.36 66.975ZM175.085 66.175L175.11 66.09C175.185 65.81 175.25 65.445 175.33 65.025C175.99 61.48 177.5 53.32 190.495 53.02C184.13 56.07 179.18 61.07 175.385 68.255C174.895 68.98 174.435 69.85 174.015 70.78C174.255 69.51 174.62 67.94 175.09 66.18L175.085 66.175ZM165.445 59.64C168.11 61.02 174.075 64.785 173.525 70.65C173.375 71.43 173.275 72.105 173.22 72.66C172.58 74.32 172.07 75.945 171.75 77.045C171.865 74.94 171.725 71.82 170.23 69.93C170.18 69.865 170.13 69.805 170.085 69.745C169.46 66.695 168.365 62.89 165.445 59.645V59.64ZM162.7 67.03C166.965 67.88 168.32 68.2 169.835 70.235C171.77 72.68 171.28 77.405 171.085 78.795C170.865 79.21 170.69 79.61 170.56 79.985C170.5 79.665 170.415 79.345 170.315 79.03C170.095 77.005 169.545 76.38 168.355 75.02C167.19 73.69 165.45 71.695 162.7 67.03ZM168.845 86.065C168.67 85.4 168.54 84.61 168.4 83.73C167.925 80.785 167.285 76.835 163.93 74.245C166.995 74.84 168.59 76.19 169.8 79.07C170.555 81.24 170.255 83.475 168.845 86.065ZM178.55 74.39C180.09 74.175 181.43 74.06 182.64 74.06C185.515 74.06 187.615 74.7 189.73 76.14C184.575 75.41 179.025 76.655 173.595 79.785L170.705 81.565C170.795 80.515 171.395 78.45 173.335 76.755C173.355 76.745 173.37 76.725 173.385 76.71C174.565 75.7 176.225 74.825 178.55 74.39ZM188.15 67.825C182.46 68.605 177.08 69.345 173.005 76.38C172.725 76.625 172.47 76.88 172.24 77.14C173.43 73.035 175.3 68.31 177.115 67.09C180.325 64.76 185.315 64.775 192.355 67.15C190.94 67.44 189.525 67.635 188.15 67.82V67.825Z" fill="#07064E"></path>
</g>
<g id="Group_6">
<path id="Vector_70" d="M11.1401 98.41C11.0001 98.41 10.8901 98.3 10.8901 98.16C10.8901 98.02 11.0001 97.91 11.1401 97.91L117.595 97.79C117.735 97.79 117.845 97.9 117.845 98.04C117.845 98.18 117.735 98.29 117.595 98.29L11.1401 98.41Z" fill="#07064E"></path>
<path id="Vector_71" d="M126.595 98.28C126.455 98.28 126.345 98.17 126.345 98.03C126.345 97.89 126.455 97.78 126.595 97.78L189.485 97.71C189.625 97.71 189.735 97.82 189.735 97.96C189.735 98.1 189.625 98.21 189.485 98.21L126.595 98.28Z" fill="#07064E"></path>
<path id="Vector_72" d="M9 98.41H5.75C5.61 98.41 5.5 98.3 5.5 98.16C5.5 98.02 5.61 97.91 5.75 97.91H9C9.14 97.91 9.25 98.02 9.25 98.16C9.25 98.3 9.14 98.41 9 98.41Z" fill="#2BF5BA"></path>
</g>
<g id="Group_7">
<path id="Vector_73" d="M23.4899 13.5C14.5599 13.5 7.29492 20.895 7.29492 29.99C7.29492 39.085 14.5599 46.48 23.4899 46.48C32.4199 46.48 39.6849 39.085 39.6849 29.99C39.6849 20.895 32.4199 13.5 23.4899 13.5ZM23.4899 45.98C14.8349 45.98 7.79492 38.81 7.79492 29.99C7.79492 21.17 14.8349 14 23.4899 14C32.1449 14 39.1849 21.175 39.1849 29.99C39.1849 38.805 32.1449 45.98 23.4899 45.98Z" fill="#07064E"></path>
<path id="Vector_74" d="M23.1449 16.765C21.8699 16.765 20.6099 16.95 19.4049 17.32C14.5799 18.795 10.9999 23.025 10.2849 28.095C10.2649 28.23 10.3599 28.36 10.4999 28.375C10.5099 28.375 10.5249 28.375 10.5349 28.375C10.6599 28.375 10.7649 28.285 10.7799 28.16C11.4649 23.28 14.9049 19.21 19.5499 17.795C20.7099 17.44 21.9199 17.26 23.1449 17.26C30.0299 17.26 35.6349 22.965 35.6349 29.975C35.6349 36.985 30.0299 42.69 23.1449 42.69C16.9899 42.69 11.6749 38.02 10.7849 31.83C10.7649 31.695 10.6399 31.6 10.4999 31.62C10.3649 31.64 10.2699 31.765 10.2899 31.905C11.2149 38.34 16.7399 43.195 23.1449 43.195C30.3099 43.195 36.1349 37.265 36.1349 29.98C36.1349 22.695 30.3099 16.765 23.1449 16.765Z" fill="#07064E"></path>
</g>
<path id="Vector_75" d="M23.4705 31.39H17.4105C17.2405 31.39 17.1055 31.255 17.1055 31.085C17.1055 30.915 17.2405 30.78 17.4105 30.78H23.1705V21.47C23.1705 21.3 23.3055 21.165 23.4755 21.165C23.6455 21.165 23.7805 21.3 23.7805 21.47V31.085C23.7805 31.255 23.6455 31.39 23.4755 31.39H23.4705Z" fill="#07064E"></path>
<path id="Vector_76" d="M161.665 106.385C166.702 106.385 170.785 105.407 170.785 104.2C170.785 102.993 166.702 102.015 161.665 102.015C156.628 102.015 152.545 102.993 152.545 104.2C152.545 105.407 156.628 106.385 161.665 106.385Z" fill="#2AEDB4"></path>
<path id="Vector_77" d="M170.555 88.465L167.255 104.15H155.15L151.86 88.5" fill="#FFC391"></path>
<path id="Vector_78" d="M172.1 81.295H150.305V88.485H172.1V81.295Z" fill="#FFC391"></path>
<path id="Vector_79" d="M172.1 81.275H172.06L163.895 81.29C164.285 83.665 163.925 86.055 164.02 88.465H165.735C165.995 94.325 165.385 100.27 163.335 104.025L167.255 104.15L170.555 88.465H172.105V81.275H172.1Z" fill="#FFAF6E"></path>
<g id="Group_8">
<path id="Vector_80" d="M66.3399 105.915H39.6899V109.625H66.3399V105.915Z" fill="#FFC391"></path>
<path id="Vector_81" d="M65.7403 109.56H44.5303V113.27H65.7403V109.56Z" fill="#FFC391"></path>
<path id="Vector_82" d="M44.515 111.44L44.48 113.345L65.18 113.325C65.44 113.325 65.78 112.985 65.78 112.725L65.77 111.84C58.595 110.61 52.02 112.17 44.515 111.44Z" fill="#FFAF6E"></path>
<path id="Vector_83" d="M39.7051 108.37L39.6851 109.65L65.7151 109.63C66.0401 109.63 66.4651 109.29 66.4651 109.03L66.4401 108.355C57.4201 107.125 48.7101 108.845 39.7001 108.37H39.7051Z" fill="#FFAF6E"></path>
<g id="Group_9">
<path id="Vector_84" d="M61.1152 96.71H59.5552C59.4152 96.71 59.3052 96.6 59.3052 96.46V93.75C59.3052 92.435 60.3752 91.365 61.6902 91.365C63.0052 91.365 64.0752 92.435 64.0752 93.75C64.0752 95.38 62.7502 96.71 61.1202 96.71H61.1152ZM59.8052 96.21H61.1152C62.4702 96.21 63.5702 95.105 63.5702 93.75C63.5702 92.71 62.7252 91.865 61.6852 91.865C60.6452 91.865 59.8002 92.71 59.8002 93.75V96.21H59.8052Z" fill="#07064E"></path>
<path id="Vector_85" d="M48.535 87.8C46.145 85.93 48.01 82.525 49.505 80.575C50.855 77.25 45.34 77.115 45.745 73.17C46.045 70.29 50.565 66.995 53.025 70.015C54.675 72.04 52.955 73.7 53.535 75.68C53.825 76.67 55.325 77.015 55.77 78.02C57.075 80.96 52.72 83.13 51.855 86.115C51.085 88.775 52.73 89.945 53.21 91.65C53.995 94.45 52.06 90.565 48.535 87.805V87.8Z" fill="#AAFBE3"></path>
<path id="Vector_86" d="M44.0001 91.025H59.5351V97.95C59.5351 102.235 56.0551 105.72 51.7651 105.72C47.4801 105.72 43.9951 102.24 43.9951 97.95V91.025H44.0001Z" fill="#FFC391"></path>
<path id="Vector_87" d="M56.7299 91.1C56.6899 94.595 56.1349 98.295 54.5999 100.59C53.1449 102.63 48.3899 104.76 48.3149 104.8C49.9999 105.545 49.8999 105.72 51.7699 105.72C56.0599 105.72 59.5399 102.24 59.5399 97.95V91.025L56.7299 91.1Z" fill="#FFAF6E"></path>
<path id="Vector_88" d="M51.77 105.97C47.35 105.97 43.75 102.375 43.75 97.95V90.775H59.785V97.95C59.785 102.37 56.19 105.97 51.765 105.97H51.77ZM44.25 91.275V97.95C44.25 102.095 47.625 105.47 51.77 105.47C55.915 105.47 59.29 102.095 59.29 97.95V91.275H44.255H44.25Z" fill="#07064E"></path>
</g>
<path id="Vector_89" d="M38.4901 109.73L27.0601 109.63L27.0801 105.865L38.5051 105.965L38.4901 109.73Z" fill="#2AEDB4"></path>
<path id="Vector_90" d="M65.765 105.665H25.75C25.61 105.665 25.5 105.775 25.5 105.915C25.5 106.055 25.61 106.165 25.75 106.165H38.255V106.86H27.255C27.115 106.86 27.005 106.97 27.005 107.11C27.005 107.25 27.115 107.36 27.255 107.36H38.255V107.995H27.255C27.115 107.995 27.005 108.105 27.005 108.245C27.005 108.385 27.115 108.495 27.255 108.495H38.255V109.38H25.75C25.61 109.38 25.5 109.49 25.5 109.63C25.5 109.77 25.61 109.88 25.75 109.88H53.26C53.4 109.88 53.51 109.77 53.51 109.63C53.51 109.49 53.4 109.38 53.26 109.38H39.8V106.165H65.765C66.02 106.165 66.23 106.375 66.23 106.63V108.92C66.23 109.175 66.02 109.385 65.765 109.385H61.765C61.625 109.385 61.515 109.495 61.515 109.635C61.515 109.775 61.625 109.885 61.765 109.885H65.765C66.295 109.885 66.73 109.45 66.73 108.92V106.63C66.73 106.1 66.295 105.665 65.765 105.665ZM39.3 109.38H38.755V106.165H39.3V109.38Z" fill="#07064E"></path>
<path id="Vector_91" d="M69.5101 114.065C69.5101 114.685 59.7601 115.19 45.9901 115.19C32.2201 115.19 19.9751 114.7 19.9751 114.08C19.9751 113.46 32.0301 113.32 45.8001 113.32C59.5701 113.32 69.5101 113.44 69.5101 114.06V114.065Z" fill="#2AEDB4"></path>
<path id="Vector_92" d="M43.4322 109.672L23.5024 109.574L23.484 113.339L43.4138 113.437L43.4322 109.672Z" fill="#2AEDB4"></path>
<path id="Vector_93" d="M65.0253 109.375H59.5003C59.3603 109.375 59.2503 109.485 59.2503 109.625C59.2503 109.765 59.3603 109.875 59.5003 109.875H65.0253C65.2803 109.875 65.4903 110.085 65.4903 110.34V112.63C65.4903 112.885 65.2803 113.095 65.0253 113.095H44.7303V109.88H53.8353C53.9753 109.88 54.0853 109.77 54.0853 109.63C54.0853 109.49 53.9753 109.38 53.8353 109.38H22.1753C22.0353 109.38 21.9253 109.49 21.9253 109.63C21.9253 109.77 22.0353 109.88 22.1753 109.88H43.1853V110.575H23.6803C23.5403 110.575 23.4303 110.685 23.4303 110.825C23.4303 110.965 23.5403 111.075 23.6803 111.075H43.1853V111.71H23.6803C23.5403 111.71 23.4303 111.82 23.4303 111.96C23.4303 112.1 23.5403 112.21 23.6803 112.21H43.1853V113.095H22.1753C22.0353 113.095 21.9253 113.205 21.9253 113.345C21.9253 113.485 22.0353 113.595 22.1753 113.595H65.0253C65.5553 113.595 65.9903 113.16 65.9903 112.63V110.34C65.9903 109.81 65.5553 109.375 65.0253 109.375ZM44.2303 109.875V113.09H43.6853V109.875H44.2303Z" fill="#07064E"></path>
</g>
<path id="Vector_94" d="M98.1399 53.125H98.1349C96.4899 53.125 94.9199 52.38 93.6049 50.98C93.5349 50.905 93.5199 50.8 93.5599 50.71C93.5999 50.62 93.6899 50.56 93.7899 50.56H102.495C102.595 50.56 102.685 50.62 102.725 50.71C102.765 50.8 102.745 50.91 102.675 50.98C101.35 52.38 99.7849 53.12 98.1399 53.12V53.125ZM94.3949 51.06C95.5199 52.085 96.7999 52.62 98.1349 52.625H98.1399C99.4699 52.625 100.755 52.085 101.88 51.06H94.3949Z" fill="#07064E"></path>
<path id="Vector_95" opacity="0.5" d="M94.3699 44.475H90.4199C90.2799 44.475 90.1699 44.365 90.1699 44.225C90.1699 44.085 90.2799 43.975 90.4199 43.975H94.3699C94.5099 43.975 94.6199 44.085 94.6199 44.225C94.6199 44.365 94.5099 44.475 94.3699 44.475Z" fill="#FFC391"></path>
<path id="Vector_96" opacity="0.5" d="M105 44.475H101.05C100.91 44.475 100.8 44.365 100.8 44.225C100.8 44.085 100.91 43.975 101.05 43.975H105C105.14 43.975 105.25 44.085 105.25 44.225C105.25 44.365 105.14 44.475 105 44.475Z" fill="#FFC391"></path>
<path id="Vector_97" d="M172.195 81.065C172.155 81.04 172.115 81.025 172.065 81.025H150.34C150.295 81.025 150.25 81.04 150.21 81.065C150.12 81.1 150.055 81.19 150.055 81.295V88.485C150.055 88.625 150.165 88.735 150.305 88.735H151.655L154.91 104.2C154.935 104.315 155.035 104.4 155.155 104.4H167.255C167.375 104.4 167.475 104.315 167.5 104.2L170.755 88.735H172.105C172.245 88.735 172.355 88.625 172.355 88.485V81.295C172.355 81.19 172.29 81.1 172.2 81.065H172.195ZM171.85 88.24H158.97C158.83 88.24 158.72 88.35 158.72 88.49C158.72 88.63 158.83 88.74 158.97 88.74H170.24L167.05 103.9H155.355L152.165 88.74H154.155C154.295 88.74 154.405 88.63 154.405 88.49C154.405 88.35 154.295 88.24 154.155 88.24H150.55V81.55H171.845V88.24H171.85Z" fill="#07064E"></path>
</g>
</g>
</g>
</g>
</svg>