<svg width="200" height="140" viewBox="0 0 200 140" fill="none" xmlns="http://www.w3.org/2000/svg">
<g id="illu_bg_survey/Default" clip-path="url(#clip0_86_1344)">
<g id="illu_bg_survey">
<g id="background">
<path d="M194.564 17.9798C195.873 17.0005 196.311 15.3732 195.542 14.345C194.773 13.3168 193.088 13.2771 191.779 14.2564C190.47 15.2357 190.032 16.863 190.801 17.8912C191.571 18.9194 193.255 18.9591 194.564 17.9798Z" fill="#2BF5BA"></path>
<path d="M176.835 20.4597C196.805 37.5947 207.88 71.0697 180.62 111.765C158.99 144.055 143.97 103.09 97.0101 128.135C66.9451 144.17 19.1701 126.94 31.2551 100.895C44.0601 73.2947 5.28007 75.0347 3.22507 43.6797C2.31007 29.7247 7.80507 12.1597 44.9651 10.8097C105.275 8.61972 148.5 -3.84529 176.835 20.4597Z" fill="#2BF5BA"></path>
<path d="M8.12507 89.3697C7.52507 86.7747 9.51007 83.9897 12.5651 83.1497C15.6151 82.3047 18.5801 83.7247 19.1801 86.3197C19.7801 88.9147 17.7951 91.6997 14.7401 92.5397C11.6901 93.3847 8.72507 91.9647 8.12507 89.3697Z" fill="#2BF5BA"></path>
</g>
<g id="illu_bg_survey_2">
<g id="stroke">
<path id="Vector" d="M144.845 54.4004H53.9399C50.6262 54.4004 47.9399 57.0867 47.9399 60.4004V64.2854C47.9399 67.5991 50.6262 70.2854 53.9399 70.2854H144.845C148.159 70.2854 150.845 67.5991 150.845 64.2854V60.4004C150.845 57.0867 148.159 54.4004 144.845 54.4004Z" fill="#2AEDB4"></path>
<path id="Vector_2" d="M15.9302 98.5999C15.7902 98.5999 15.6802 98.4899 15.6802 98.3499C15.6802 98.2099 15.7902 98.0999 15.9302 98.0999L194.27 97.8999C194.41 97.8999 194.52 98.0099 194.52 98.1499C194.52 98.2899 194.41 98.3999 194.27 98.3999L15.9302 98.5999Z" fill="#07064E"></path>
<path id="Vector_3" d="M13.79 98.6001H10.54C10.4 98.6001 10.29 98.4901 10.29 98.3501C10.29 98.2101 10.4 98.1001 10.54 98.1001H13.79C13.93 98.1001 14.04 98.2101 14.04 98.3501C14.04 98.4901 13.93 98.6001 13.79 98.6001Z" fill="#2BF5BA"></path>
<path id="Vector_4" d="M58.7749 22.0801H139.265C142.575 22.0801 145.265 24.7701 145.265 28.0801V71.9451H52.7749V28.0801C52.7749 24.7701 55.4649 22.0801 58.7749 22.0801Z" fill="#EDEDED"></path>
<path id="Vector_5" d="M120.56 100.255C120.21 101.765 118.85 102.905 117.235 102.905H80.8002C79.1852 102.905 77.8252 101.77 77.4752 100.255C55.1252 103.495 79.3102 106.72 99.0152 106.58C118.73 106.725 142.895 103.5 120.56 100.255Z" fill="#2AEDB4"></path>
<g id="Vector_6">
<path d="M117.235 96.0001H80.8C78.914 96.0001 77.385 97.529 77.385 99.4151C77.385 101.301 78.914 102.83 80.8 102.83H117.235C119.121 102.83 120.65 101.301 120.65 99.4151C120.65 97.529 119.121 96.0001 117.235 96.0001Z" fill="white"></path>
<path d="M52.5801 71.8403V75.0953C52.5801 78.3953 55.2801 81.0953 58.5801 81.0953H91.1601V95.9853H106.875V81.0953H139.07C142.37 81.0953 145.07 78.3953 145.07 75.0953V71.8403H52.5801Z" fill="white"></path>
<path d="M117.235 96.0001H80.8C78.92 96.0001 77.385 97.5351 77.385 99.4151C77.385 101.295 78.92 102.83 80.8 102.83H117.235C119.115 102.83 120.65 101.295 120.65 99.4151C120.65 97.5351 119.115 96.0001 117.235 96.0001Z" fill="white"></path>
</g>
<path id="Vector_7" d="M91.385 80.98C91.385 81.03 91.375 81.075 91.375 81.125C91.375 84.985 94.795 88.11 99.015 88.11C103.235 88.11 106.655 84.985 106.655 81.125C106.655 81.075 106.65 81.03 106.645 80.98H91.38H91.385Z" fill="#EBEBEB"></path>
<path id="Vector_8" d="M139.26 60.0449H58.7749C55.3299 60.0449 52.5249 62.8499 52.5249 66.2949V70.1099C52.9799 70.2199 53.4549 70.2849 53.9399 70.2849H144.845C145.07 70.2849 145.29 70.2699 145.51 70.2449V66.2949C145.51 62.8499 142.705 60.0449 139.26 60.0449Z" fill="#DDDDDD"></path>
<g id="Vector_9">
<path d="M117.235 103.08H80.7999C78.7799 103.08 77.1349 101.435 77.1349 99.415C77.1349 97.395 78.7799 95.75 80.7999 95.75H117.235C119.255 95.75 120.9 97.395 120.9 99.415C120.9 101.435 119.255 103.08 117.235 103.08ZM80.7999 96.25C79.0549 96.25 77.6349 97.67 77.6349 99.415C77.6349 101.16 79.0549 102.58 80.7999 102.58H117.235C118.98 102.58 120.4 101.16 120.4 99.415C120.4 97.67 118.98 96.25 117.235 96.25H80.7999Z" fill="#07064E"></path>
<path d="M139.26 21.8301H58.7749C55.3299 21.8301 52.5249 24.6351 52.5249 28.0801V75.1701C52.5249 78.6151 55.3299 81.4201 58.7749 81.4201H90.8849V95.7501L80.7999 95.75C78.7799 95.75 77.1349 97.395 77.1349 99.415C77.1349 101.435 78.7799 103.08 80.7999 103.08H117.235C119.255 103.08 120.9 101.435 120.9 99.415C120.9 97.395 119.255 95.75 117.235 95.75L107.15 95.7501V81.4201H139.26C142.705 81.4201 145.51 78.6151 145.51 75.1701V28.0801C145.51 24.6351 142.705 21.8301 139.26 21.8301ZM58.7749 22.3301H139.265C142.435 22.3301 145.015 24.9101 145.015 28.0801V71.6651H53.0249V28.0801C53.0249 24.9101 55.6049 22.3301 58.7749 22.3301ZM117.235 96.25C118.98 96.25 120.4 97.67 120.4 99.415C120.4 101.16 118.98 102.58 117.235 102.58H80.7999C79.0549 102.58 77.6349 101.16 77.6349 99.415C77.6349 97.67 79.0549 96.25 80.7999 96.25H117.235ZM91.3849 95.7501V81.4201H106.65V95.7501H91.3849ZM58.7749 80.9201C55.6049 80.9201 53.0249 78.3401 53.0249 75.1701V72.1651H145.015V75.1701C145.015 78.3401 142.435 80.9201 139.265 80.9201H58.7749Z" fill="#07064E"></path>
</g>
<path id="Vector_10" d="M144.845 15.8203H53.9399C50.6262 15.8203 47.9399 18.5066 47.9399 21.8203V62.1553C47.9399 65.469 50.6262 68.1553 53.9399 68.1553H144.845C148.159 68.1553 150.845 65.469 150.845 62.1553V21.8203C150.845 18.5066 148.159 15.8203 144.845 15.8203Z" fill="white"></path>
<path id="Vector_11" d="M52.4699 15.8203H146.305C148.805 15.8203 150.835 17.8503 150.835 20.3503V25.7003H47.9399V20.3503C47.9399 17.8503 49.9699 15.8203 52.4699 15.8203Z" fill="#07064E"></path>
<path id="Vector_12" d="M134.44 23.395C135.895 23.395 137.075 22.2153 137.075 20.76C137.075 19.3047 135.895 18.125 134.44 18.125C132.985 18.125 131.805 19.3047 131.805 20.76C131.805 22.2153 132.985 23.395 134.44 23.395Z" fill="white"></path>
<path id="Vector_13" d="M142.075 23.395C143.53 23.395 144.71 22.2153 144.71 20.76C144.71 19.3047 143.53 18.125 142.075 18.125C140.62 18.125 139.44 19.3047 139.44 20.76C139.44 22.2153 140.62 23.395 142.075 23.395Z" fill="#2BF5BA"></path>
<g id="Vector_14">
<path d="M91.355 33.0755H56.63C55.1775 33.0755 54 34.253 54 35.7055V37.2905C54 38.743 55.1775 39.9205 56.63 39.9205H91.355C92.8075 39.9205 93.985 38.743 93.985 37.2905V35.7055C93.985 34.253 92.8075 33.0755 91.355 33.0755Z" fill="#EBEBEB"></path>
<path d="M142.16 44.2356H107.435C105.982 44.2356 104.805 45.4131 104.805 46.8656V48.4506C104.805 49.9031 105.982 51.0806 107.435 51.0806H142.16C143.612 51.0806 144.79 49.9031 144.79 48.4506V46.8656C144.79 45.4131 143.612 44.2356 142.16 44.2356Z" fill="#EBEBEB"></path>
<path d="M142.16 33.0752H107.435C105.982 33.0752 104.805 34.2527 104.805 35.7052V37.2902C104.805 38.7427 105.982 39.9202 107.435 39.9202H142.16C143.612 39.9202 144.79 38.7427 144.79 37.2902V35.7052C144.79 34.2527 143.612 33.0752 142.16 33.0752Z" fill="#EBEBEB"></path>
</g>
<g id="Vector_15">
<path d="M91.355 42.8155H56.63C55.1775 42.8155 54 43.993 54 45.4455V47.0305C54 48.483 55.1775 49.6605 56.63 49.6605H91.355C92.8075 49.6605 93.985 48.483 93.985 47.0305V45.4455C93.985 43.993 92.8075 42.8155 91.355 42.8155Z" fill="#2BF5BA"></path>
<path d="M91.355 53.9755H56.63C55.1775 53.9755 54 55.153 54 56.6055V58.1905C54 59.643 55.1775 60.8205 56.63 60.8205H91.355C92.8075 60.8205 93.985 59.643 93.985 58.1905V56.6055C93.985 55.153 92.8075 53.9755 91.355 53.9755Z" fill="#2BF5BA"></path>
<path d="M142.16 31.6553H107.435C105.982 31.6553 104.805 32.8328 104.805 34.2853V35.8703C104.805 37.3228 105.982 38.5003 107.435 38.5003H142.16C143.612 38.5003 144.79 37.3228 144.79 35.8703V34.2853C144.79 32.8328 143.612 31.6553 142.16 31.6553Z" fill="#2BF5BA"></path>
</g>
<g id="Vector_16">
<path d="M91.355 31.6553H56.63C55.1775 31.6553 54 32.8328 54 34.2853V35.8703C54 37.3228 55.1775 38.5003 56.63 38.5003H91.355C92.8075 38.5003 93.985 37.3228 93.985 35.8703V34.2853C93.985 32.8328 92.8075 31.6553 91.355 31.6553Z" fill="#07064E"></path>
<path d="M142.16 42.8155H107.435C105.982 42.8155 104.805 43.993 104.805 45.4455V47.0305C104.805 48.483 105.982 49.6605 107.435 49.6605H142.16C143.613 49.6605 144.79 48.483 144.79 47.0305V45.4455C144.79 43.993 143.613 42.8155 142.16 42.8155Z" fill="#07064E"></path>
<path d="M142.16 53.9755H107.435C105.982 53.9755 104.805 55.153 104.805 56.6055V58.1905C104.805 59.643 105.982 60.8205 107.435 60.8205H142.16C143.613 60.8205 144.79 59.643 144.79 58.1905V56.6055C144.79 55.153 143.613 53.9755 142.16 53.9755Z" fill="#07064E"></path>
</g>
<g id="Vector_17">
<path d="M90.5552 48.8855C92.0159 48.8855 93.2001 47.7013 93.2001 46.2405C93.2001 44.7797 92.0159 43.5955 90.5552 43.5955C89.0944 43.5955 87.9102 44.7797 87.9102 46.2405C87.9102 47.7013 89.0944 48.8855 90.5552 48.8855Z" fill="white"></path>
<path d="M90.5552 60.0455C92.016 60.0455 93.2002 58.8613 93.2002 57.4005C93.2002 55.9398 92.016 54.7555 90.5552 54.7555C89.0945 54.7555 87.9102 55.9398 87.9102 57.4005C87.9102 58.8613 89.0945 60.0455 90.5552 60.0455Z" fill="white"></path>
<path d="M141.36 37.7255C142.821 37.7255 144.005 36.5413 144.005 35.0805C144.005 33.6198 142.821 32.4355 141.36 32.4355C139.9 32.4355 138.715 33.6198 138.715 35.0805C138.715 36.5413 139.9 37.7255 141.36 37.7255Z" fill="white"></path>
<path d="M141.36 48.8857C142.821 48.8857 144.005 47.7015 144.005 46.2407C144.005 44.7799 142.821 43.5957 141.36 43.5957C139.899 43.5957 138.715 44.7799 138.715 46.2407C138.715 47.7015 139.899 48.8857 141.36 48.8857Z" fill="white"></path>
<path d="M141.36 60.0457C142.821 60.0457 144.005 58.8615 144.005 57.4007C144.005 55.9399 142.821 54.7557 141.36 54.7557C139.899 54.7557 138.715 55.9399 138.715 57.4007C138.715 58.8615 139.899 60.0457 141.36 60.0457Z" fill="white"></path>
<path d="M90.5552 37.7257C92.016 37.7257 93.2002 36.5415 93.2002 35.0807C93.2002 33.6199 92.016 32.4357 90.5552 32.4357C89.0945 32.4357 87.9102 33.6199 87.9102 35.0807C87.9102 36.5415 89.0945 37.7257 90.5552 37.7257Z" fill="white"></path>
</g>
<g id="Vector_18">
<path d="M80.0152 15.8204C79.9402 15.5754 79.8202 15.3454 79.6502 15.1454C79.3302 14.7754 78.8852 14.5554 78.4002 14.5204L70.3102 13.9404C70.0902 13.9054 69.8652 13.8904 69.6202 13.8904C69.4702 13.8804 69.3152 13.8904 69.1552 13.9254C68.3302 14.0304 67.5652 14.3704 66.9402 14.9154L65.8852 15.8254H80.0152V15.8204Z" fill="#DDDDDD"></path>
<path d="M64.4152 25.7054L68.8652 30.8454C69.1302 31.1504 69.5152 31.3204 69.9552 31.3204C69.9702 31.3204 69.9901 31.3204 70.0051 31.3204C70.4451 31.3054 70.8902 31.1254 71.2502 30.8154C71.7602 30.3754 72.0052 29.7654 71.9452 29.2154C72.4802 29.3504 73.1201 29.1954 73.6301 28.7554C74.1402 28.3154 74.3851 27.7054 74.3251 27.1554C74.8601 27.2904 75.5002 27.1354 76.0102 26.6954C76.3302 26.4154 76.5402 26.0654 76.6402 25.7054H64.4102H64.4152Z" fill="#DDDDDD"></path>
<path d="M81.7402 25.7054H76.9052L80.9902 30.4204C81.6502 31.1804 82.8052 31.2654 83.5702 30.6054C84.3302 29.9454 84.4151 28.7904 83.7551 28.0254L81.7402 25.7004V25.7054Z" fill="#DDDDDD"></path>
</g>
<path id="Vector_19" d="M75.0151 17.9402L78.1351 18.1652C79.1351 18.2352 80.0151 17.4802 80.0901 16.4752C80.1051 16.2502 80.0751 16.0302 80.0151 15.8252H65.8851L63.3351 18.0302C61.8851 19.2852 61.4401 21.4252 62.2751 23.1152C62.3651 23.3002 62.4651 23.4502 62.6001 23.6052L64.4151 25.7052H76.6451C76.6651 25.6252 76.6901 25.5452 76.7001 25.4702L76.9051 25.7052H81.7401L75.0201 17.9452L75.0151 17.9402Z" fill="#07064E"></path>
<path id="Vector_20" d="M69.0549 28.5553C69.5199 29.0903 70.4299 29.0653 71.0899 28.4953C71.7399 27.9353 71.8949 27.0553 71.4549 26.5153C71.9249 27.0303 72.8199 26.9953 73.4649 26.4353C74.1149 25.8753 74.2699 24.9953 73.8299 24.4553C74.2999 24.9703 75.1949 24.9353 75.8399 24.3753C76.4799 23.8203 76.6399 22.9653 76.2249 22.4203L81.1699 28.1303C81.7399 28.7903 82.7349 28.8603 83.3949 28.2903C84.0549 27.7203 84.1249 26.7253 83.5549 26.0653L74.4249 15.5203L78.1449 15.7853C79.0149 15.8453 79.7699 15.1953 79.8299 14.3253C79.8899 13.4553 79.2399 12.7003 78.3699 12.6403L70.2649 12.0553C70.0549 12.0253 69.8449 12.0103 69.6349 12.0103H69.5899C69.4449 11.9953 69.3099 12.0103 69.1749 12.0403C68.4299 12.1353 67.6999 12.4403 67.0899 12.9703L63.4899 16.0903C62.1099 17.2853 61.7199 19.3103 62.4899 20.8803C62.5649 21.0353 62.6499 21.1653 62.7749 21.3153L69.0449 28.5553H69.0549Z" fill="white"></path>
<path id="Vector_21" d="M69.9552 29.1901C69.5152 29.1901 69.1302 29.0251 68.8652 28.7151L62.5952 21.4751C62.4602 21.3201 62.3602 21.1701 62.2702 20.9851C61.4352 19.2901 61.8802 17.1501 63.3302 15.9001L66.9302 12.7801C67.5602 12.2351 68.3252 11.8951 69.1452 11.7901C69.3102 11.7551 69.4602 11.7451 69.6102 11.7551C69.8552 11.7551 70.0802 11.7701 70.3002 11.8051L78.3902 12.3851C78.8752 12.4201 79.3202 12.6401 79.6402 13.0101C79.9602 13.3801 80.1152 13.8501 80.0802 14.3351C80.0102 15.3401 79.1252 16.1001 78.1252 16.0251L75.0052 15.8001L83.7402 25.8851C84.4002 26.6451 84.3152 27.8051 83.5552 28.4651C82.7952 29.1251 81.6352 29.0401 80.9752 28.2801L76.6852 23.3251C76.6252 23.7651 76.3902 24.2101 76.0002 24.5501C75.4902 24.9901 74.8552 25.1451 74.3152 25.0101C74.3752 25.5601 74.1302 26.1701 73.6202 26.6101C73.1102 27.0501 72.4702 27.2051 71.9352 27.0701C71.9952 27.6201 71.7502 28.2301 71.2402 28.6701C70.8802 28.9851 70.4352 29.1651 69.9952 29.1751C69.9802 29.1751 69.9602 29.1751 69.9452 29.1751L69.9552 29.1901ZM69.2452 28.3901C69.4202 28.5901 69.6852 28.6951 69.9952 28.6901C70.3202 28.6801 70.6552 28.5451 70.9302 28.3051C71.4702 27.8401 71.6202 27.1051 71.2652 26.6701C71.1802 26.5651 71.1952 26.4101 71.2952 26.3251C71.3952 26.2351 71.5502 26.2451 71.6452 26.3451C72.0252 26.7551 72.7702 26.7101 73.3102 26.2451C73.8502 25.7801 74.0002 25.0451 73.6452 24.6101C73.5602 24.5051 73.5752 24.3501 73.6752 24.2651C73.7752 24.1751 73.9302 24.1851 74.0252 24.2851C74.4052 24.6951 75.1502 24.6501 75.6902 24.1851C76.2252 23.7201 76.3802 23.0151 76.0402 22.5701C75.9602 22.4651 75.9752 22.3101 76.0802 22.2251C76.1852 22.1401 76.3402 22.1551 76.4252 22.2551L81.3702 27.9651C81.8502 28.5201 82.6902 28.5801 83.2452 28.1001C83.8002 27.6201 83.8602 26.7801 83.3802 26.2251L74.2502 15.6801C74.1852 15.6051 74.1702 15.4951 74.2152 15.4051C74.2602 15.3151 74.3552 15.2601 74.4552 15.2701L78.1752 15.5351C78.9102 15.5851 79.5402 15.0351 79.5952 14.3051C79.6202 13.9501 79.5052 13.6101 79.2752 13.3401C79.0452 13.0701 78.7202 12.9101 78.3652 12.8851L70.2602 12.3001C70.0452 12.2701 69.8552 12.2501 69.6502 12.2551C69.6502 12.2551 69.5952 12.2551 69.5902 12.2551C69.4852 12.2451 69.3752 12.2551 69.2402 12.2851C68.5002 12.3801 67.8252 12.6801 67.2702 13.1601L63.6702 16.2801C62.3902 17.3851 61.9952 19.2751 62.7352 20.7701C62.8052 20.9151 62.8802 21.0301 62.9852 21.1501L69.2552 28.3901H69.2452Z" fill="#07064E"></path>
<path id="Vector_22" d="M168.42 53.8498C168.255 53.7348 168.09 53.6548 167.895 53.5848L158.85 50.4298C158.455 50.2898 158.02 50.3498 157.625 50.5898C157.25 50.8198 156.955 51.1949 156.795 51.6499C156.575 52.2849 156.665 52.9348 156.99 53.3848C156.46 53.5348 155.98 53.9848 155.76 54.6198C155.54 55.2548 155.63 55.9048 155.955 56.3548C155.425 56.5048 154.945 56.9548 154.725 57.5898C154.555 58.0798 154.57 58.5798 154.74 58.9948L148.555 56.8348C148.095 56.6748 147.6 56.6999 147.16 56.9149C146.72 57.1299 146.39 57.4998 146.23 57.9598C146.07 58.4198 146.095 58.9148 146.31 59.3548C146.52 59.7948 146.895 60.1248 147.355 60.2848L159.95 64.6798L157.135 66.0399C156.23 66.4799 155.845 67.5699 156.285 68.4799C156.495 68.9199 156.87 69.2499 157.33 69.4099C157.525 69.4799 157.73 69.5148 157.935 69.5148C158.205 69.5148 158.475 69.4549 158.73 69.3299L166.03 65.8048C166.235 65.7248 166.44 65.6248 166.655 65.5048C166.79 65.4398 166.92 65.3549 167.04 65.2449C167.7 64.7449 168.195 64.0698 168.47 63.2848L170.04 58.7848C170.67 56.9748 169.99 54.8999 168.425 53.8449L168.42 53.8498Z" fill="#2AEDB4"></path>
<path id="Vector_23" d="M150.85 57.6353L148.555 56.8353C148.095 56.6753 147.6 56.7003 147.16 56.9153C146.72 57.1303 146.39 57.5003 146.23 57.9603C146.07 58.4203 146.095 58.9153 146.31 59.3553C146.52 59.7953 146.895 60.1253 147.355 60.2853L150.85 61.5053V57.6353Z" fill="#EDEDED"></path>
<path id="Vector_24" d="M158.77 48.5402C158.1 48.3052 157.32 48.7852 157.035 49.6052C156.75 50.4152 157.05 51.2552 157.705 51.5052C157.04 51.2952 156.285 51.7652 156 52.5752C155.715 53.3852 156.015 54.2252 156.67 54.4752C156.005 54.2652 155.25 54.7352 154.965 55.5452C154.68 56.3552 154.975 57.1702 155.605 57.4302L148.475 54.9402C147.655 54.6552 146.755 55.0852 146.465 55.9102C146.18 56.7302 146.61 57.6302 147.435 57.9202L160.6 62.5152L157.24 64.1352C156.455 64.5152 156.125 65.4552 156.505 66.2402C156.885 67.0252 157.825 67.3552 158.61 66.9752L165.93 63.4452C166.125 63.3702 166.315 63.2752 166.495 63.1702L166.535 63.1502C166.665 63.0852 166.775 63.0052 166.88 62.9152C167.48 62.4652 167.96 61.8352 168.225 61.0702L169.795 56.5702C170.4 54.8452 169.725 52.8952 168.275 51.9202C168.135 51.8252 167.995 51.7502 167.81 51.6852L158.765 48.5302L158.77 48.5402Z" fill="white"></path>
<path id="Vector_25" d="M157.93 67.3901C157.725 67.3901 157.525 67.3551 157.325 67.2851C156.865 67.1251 156.495 66.7951 156.28 66.3551C155.84 65.4451 156.225 64.3551 157.13 63.9151L159.945 62.5551L147.35 58.1601C146.89 58.0001 146.52 57.6701 146.305 57.2301C146.095 56.7901 146.065 56.2951 146.225 55.8351C146.385 55.3751 146.715 55.0051 147.155 54.7901C147.595 54.5751 148.09 54.5501 148.55 54.7101L154.735 56.8701C154.565 56.4601 154.55 55.9551 154.72 55.4651C154.94 54.8301 155.42 54.3751 155.95 54.2301C155.625 53.7801 155.535 53.1301 155.755 52.4951C155.975 51.8601 156.455 51.4051 156.985 51.2601C156.66 50.8101 156.57 50.1601 156.79 49.5251C156.95 49.0751 157.24 48.6951 157.62 48.4651C158.015 48.2251 158.45 48.1701 158.845 48.3051L167.89 51.4601C168.085 51.5301 168.245 51.6101 168.415 51.7251C169.98 52.7751 170.66 54.8551 170.03 56.6651L168.46 61.1651C168.185 61.9501 167.69 62.6251 167.03 63.1251C166.905 63.2351 166.78 63.3201 166.645 63.3851C166.43 63.5051 166.23 63.6051 166.02 63.6851L158.72 67.2101C158.47 67.3301 158.2 67.3951 157.925 67.3951L157.93 67.3901ZM147.955 55.1051C147.405 55.1051 146.89 55.4501 146.7 55.9951C146.46 56.6851 146.825 57.4451 147.515 57.6851L160.68 62.2801C160.775 62.3151 160.84 62.4001 160.845 62.5001C160.85 62.6001 160.795 62.6951 160.705 62.7401L157.345 64.3601C156.685 64.6801 156.41 65.4751 156.725 66.1301C156.88 66.4501 157.15 66.6901 157.485 66.8051C157.82 66.9201 158.18 66.9001 158.5 66.7451L165.82 63.2151C166.02 63.1351 166.2 63.0501 166.37 62.9501C166.375 62.9501 166.42 62.9251 166.425 62.9201C166.52 62.8751 166.61 62.8101 166.715 62.7201C167.31 62.2701 167.745 61.6701 167.99 60.9801L169.56 56.4801C170.12 54.8851 169.52 53.0501 168.135 52.1201C168 52.0301 167.88 51.9701 167.725 51.9151L158.68 48.7601C158.43 48.6701 158.145 48.7101 157.88 48.8751C157.6 49.0451 157.38 49.3301 157.26 49.6751C157.025 50.3501 157.26 51.0601 157.78 51.2601C157.905 51.3101 157.97 51.4501 157.925 51.5751C157.88 51.7051 157.745 51.7701 157.615 51.7301C157.085 51.5651 156.455 51.9701 156.22 52.6451C155.985 53.3201 156.22 54.0301 156.74 54.2301C156.865 54.2801 156.93 54.4201 156.885 54.5451C156.84 54.6751 156.705 54.7401 156.575 54.7001C156.045 54.5351 155.415 54.9401 155.18 55.6151C154.945 56.2851 155.165 56.9751 155.68 57.1901C155.805 57.2401 155.865 57.3851 155.815 57.5101C155.765 57.6351 155.625 57.7001 155.5 57.6551L148.37 55.1651C148.225 55.1151 148.08 55.0901 147.935 55.0901L147.955 55.1051Z" fill="#07064E"></path>
</g>
</g>
</g>
</g>
<defs>
<clipPath id="clip0_86_1344">
<rect width="200" height="140" fill="white"></rect>
</clipPath>
</defs>
</svg>