<svg width="200" height="140" viewBox="0 0 200 140" fill="none" xmlns="http://www.w3.org/2000/svg">
<g id="illu_bg_acknowledgments/Default" clip-path="url(#clip0_85_2120)">
<g id="illu_bg_acknowledgments">
<g id="background">
<path id="Vector" d="M163.05 14.54C199.715 32.095 195.4 108.155 172.185 123.16C161.785 129.885 157.055 124.755 106.83 134.67C72.8749 141.375 -3.68505 138.62 19.315 98.38C34.575 71.68 18.335 54.345 15.52 42.805C10.59 22.62 30.4 1.29498 54.65 6.00998C118.345 18.395 144.01 5.41998 163.05 14.535V14.54Z" fill="#EDEDED"></path>
<g id="Vector_2">
<path d="M161.635 11.705C198.3 29.26 193.985 105.32 170.77 120.325C160.37 127.05 155.64 121.92 105.415 131.835C71.4601 138.54 -5.09994 135.785 17.9001 95.545C33.1601 68.845 16.9201 51.51 14.1051 39.97C9.17006 19.785 28.9801 -1.54001 53.2301 3.17499C116.925 15.56 142.59 2.58499 161.63 11.7L161.635 11.705Z" fill="#2BF5BA"></path>
<path d="M190.785 134.73C193.726 134.73 196.11 132.346 196.11 129.405C196.11 126.464 193.726 124.08 190.785 124.08C187.844 124.08 185.46 126.464 185.46 129.405C185.46 132.346 187.844 134.73 190.785 134.73Z" fill="#2BF5BA"></path>
<path d="M13.1589 16.925C16.1373 14.6968 17.1774 11.0532 15.4818 8.78679C13.7863 6.52036 9.99735 6.48932 7.01892 8.71747C4.04049 10.9456 3.00048 14.5892 4.69599 16.8556C6.39151 19.1221 10.1805 19.1531 13.1589 16.925Z" fill="#2BF5BA"></path>
<path d="M9.08731 38.9313C10.3963 37.9521 10.8339 36.3247 10.0647 35.2965C9.29556 34.2683 7.61085 34.2287 6.30185 35.2079C4.99284 36.1872 4.55523 37.8145 5.32441 38.8427C6.09359 39.8709 7.7783 39.9106 9.08731 38.9313Z" fill="#2BF5BA"></path>
</g>
</g>
<g id="illu_bg_acknowledgments_2">
<g id="stroke">
<path id="Vector_3" d="M126.765 79.055L126.995 74.15C127.43 68.79 123.97 64.735 118.75 64.57L107.345 62.305C103.745 65.715 100.13 67.37 96.4999 67.155C92.4049 66.89 89.7099 64.73 87.2149 62.305L74.8799 64.58C70.4949 64.56 66.9499 68.16 67.0499 72.545L67.2699 79.055H126.765Z" fill="#FFC391"></path>
<path id="Vector_4" d="M109.48 36.19C109.575 34.495 109.385 29.31 109.54 28.975C110.42 27.09 114.66 28.6 109.77 24.715C108.78 23.93 110.815 21.735 106.54 22.88C105.855 20.435 110.795 19.035 105.955 19.195C103.22 19.285 102.225 20.01 102.26 20.385C98.1149 17.06 99.6599 21.18 98.7849 20.66C90.4299 15.735 83.3749 21.835 83.5849 23.89C90.0349 25.325 81.4349 26.77 83.2899 29.45C85.5599 26.025 85.3049 32.175 85.2549 36.195L86.9099 37.81H108.09L109.48 36.195V36.19Z" fill="#EDEDED"></path>
<path id="Vector_5" d="M110.24 63.01L107.895 65.29C101.88 71.15 92.6352 71.22 86.5402 65.455L84.0352 63.09L87.1252 62.44C93.3802 67.285 100.005 67.81 107.145 62.385L110.235 63.01H110.24Z" fill="#07064E"></path>
<g id="Vector_6">
<path d="M106.25 28.74C103.39 25.835 99.7398 26.41 97.1548 28.39C94.4898 26.105 89.6548 26.195 88.1148 29.04C86.9898 31.55 86.3698 34.8 86.4898 38.82C86.7548 47.695 91.3148 55.745 97.2598 55.745C103.205 55.745 107.84 47.695 108.03 38.82C108.055 37.74 108.205 36.16 108.205 36.16C108.205 36.16 106.97 31.125 106.25 28.74Z" fill="white"></path>
<path d="M90.5998 51.985H103.95C104.075 56.155 103.865 60.715 107.15 62.225C107.245 62.27 106.66 62.875 105.74 63.76C101.01 68.315 93.5298 68.355 88.7298 63.875C87.7548 62.965 87.1298 62.34 87.2098 62.305C90.6898 60.885 90.4698 56.23 90.5948 51.985" fill="white"></path>
</g>
<g id="Vector_7">
<path d="M86.4499 37.41C86.4499 35.86 84.9949 35.99 84.3799 36.53C83.4199 37.375 83.4199 38.49 83.8799 40.69C84.1649 42.06 84.2949 43.07 85.1749 44C85.6549 44.505 86.3199 44.625 87.0199 44.625" fill="white"></path>
<path d="M108.135 37.41C108.135 35.86 109.59 35.99 110.205 36.53C111.165 37.375 111.165 38.49 110.705 40.69C110.42 42.06 110.29 43.07 109.41 44C108.93 44.505 108.01 44.625 107.31 44.625" fill="white"></path>
</g>
<path id="Vector_8" d="M97.2551 55.745C91.8751 55.37 90.7651 51.37 90.7651 52.155C90.7651 56.74 93.6451 60.46 97.2001 60.46C100.755 60.46 103.635 56.74 103.635 52.155C103.635 51.37 101.68 56.05 97.2501 55.745H97.2551Z" fill="#EDEDED"></path>
<g id="Vector_9">
<path d="M106.25 28.74C104.875 27.345 104.78 27.31 103.22 26.935C109.31 40.54 103.54 51.38 98.7902 55.565C103.985 54.33 107.86 46.92 108.035 38.82C108.06 37.74 108.21 36.16 108.21 36.16C108.21 36.16 106.975 31.125 106.255 28.74H106.25Z" fill="#EDEDED"></path>
<path d="M87.3702 26.085C88.5202 24.765 86.4352 24.185 88.2002 22.655C92.2002 19.155 94.9702 23.78 98.9702 23.28C100.29 23.2 100.17 21.78 100.905 21.69C102.65 21.625 103.175 27.385 107.215 24.62C107.415 24.48 107.685 24.63 107.67 24.875C107.525 27.675 109.525 29.02 109.545 28.975C110.425 27.09 114.665 28.6 109.775 24.715C108.785 23.93 110.82 21.735 106.545 22.875C105.86 20.43 110.8 19.03 105.96 19.19C103.225 19.28 102.23 20.005 102.265 20.38C98.1202 17.055 99.6652 21.17 98.7902 20.655C90.4352 15.73 83.3802 21.83 83.5902 23.885C90.0402 25.32 81.4402 26.765 83.2952 29.445C83.9652 28.435 83.9102 28.84 84.2802 28.465C84.8302 28.295 86.8052 26.74 87.3752 26.09L87.3702 26.085Z" fill="white"></path>
</g>
<g id="Vector_10">
<path d="M97.1501 29.39C96.8851 29.39 96.6201 29.285 96.4201 29.075C95.4701 28.065 93.7501 27.56 92.0351 27.78C91.4851 27.85 90.9851 27.465 90.9151 26.915C90.8451 26.365 91.2301 25.865 91.7801 25.795C94.1401 25.49 96.4801 26.22 97.8751 27.7C98.2551 28.1 98.2351 28.735 97.8351 29.115C97.6401 29.295 97.3951 29.385 97.1501 29.385V29.39Z" fill="#EDEDED"></path>
<path d="M88.0651 30C87.9651 30 87.8651 29.985 87.7601 29.955C87.2301 29.795 86.9401 29.215 87.1001 28.685C87.4001 27.69 89.1951 26.135 91.7801 25.8C92.3301 25.73 92.8301 26.115 92.9001 26.665C92.9701 27.215 92.5851 27.715 92.0351 27.785C90.2201 28.02 89.1251 29.055 88.9951 29.31C88.8651 29.735 88.4801 30 88.0601 30H88.0651Z" fill="#EDEDED"></path>
<path d="M106.365 29.975C105.935 29.975 105.54 29.695 105.41 29.265C105.295 29.055 104.2 28.02 102.385 27.785C100.67 27.565 98.9501 28.07 98.0001 29.08C97.6201 29.48 96.9901 29.5 96.5851 29.12C96.1851 28.74 96.1651 28.11 96.5451 27.705C97.9401 26.225 100.28 25.495 102.64 25.8C105.225 26.135 107.02 27.69 107.32 28.685C107.48 29.215 107.18 29.77 106.655 29.935C106.56 29.965 106.46 29.98 106.365 29.98V29.975Z" fill="#EDEDED"></path>
</g>
<g id="Vector_11">
<path d="M93.4499 40.44C93.668 40.44 93.8449 40.2631 93.8449 40.045C93.8449 39.8268 93.668 39.65 93.4499 39.65C93.2317 39.65 93.0549 39.8268 93.0549 40.045C93.0549 40.2631 93.2317 40.44 93.4499 40.44Z" fill="#FFC391"></path>
<path d="M91.6849 41.975C91.903 41.975 92.0799 41.7982 92.0799 41.58C92.0799 41.3618 91.903 41.185 91.6849 41.185C91.4667 41.185 91.2899 41.3618 91.2899 41.58C91.2899 41.7982 91.4667 41.975 91.6849 41.975Z" fill="#FFC391"></path>
<path d="M89.6499 41.13C89.868 41.13 90.0449 40.9532 90.0449 40.735C90.0449 40.5168 89.868 40.34 89.6499 40.34C89.4317 40.34 89.2549 40.5168 89.2549 40.735C89.2549 40.9532 89.4317 41.13 89.6499 41.13Z" fill="#FFC391"></path>
<path d="M91.2299 40.13C91.448 40.13 91.6249 39.9532 91.6249 39.735C91.6249 39.5168 91.448 39.34 91.2299 39.34C91.0117 39.34 90.8349 39.5168 90.8349 39.735C90.8349 39.9532 91.0117 40.13 91.2299 40.13Z" fill="#FFC391"></path>
<path d="M103.93 41.67C104.148 41.67 104.325 41.4932 104.325 41.275C104.325 41.0568 104.148 40.88 103.93 40.88C103.712 40.88 103.535 41.0568 103.535 41.275C103.535 41.4932 103.712 41.67 103.93 41.67Z" fill="#FFC391"></path>
<path d="M102.165 40.13C102.383 40.13 102.56 39.9531 102.56 39.735C102.56 39.5168 102.383 39.34 102.165 39.34C101.947 39.34 101.77 39.5168 101.77 39.735C101.77 39.9531 101.947 40.13 102.165 40.13Z" fill="#FFC391"></path>
<path d="M100.13 40.975C100.348 40.975 100.525 40.7982 100.525 40.58C100.525 40.3618 100.348 40.185 100.13 40.185C99.9117 40.185 99.7349 40.3618 99.7349 40.58C99.7349 40.7982 99.9117 40.975 100.13 40.975Z" fill="#FFC391"></path>
<path d="M101.71 41.975C101.928 41.975 102.105 41.7982 102.105 41.58C102.105 41.3618 101.928 41.185 101.71 41.185C101.492 41.185 101.315 41.3618 101.315 41.58C101.315 41.7982 101.492 41.975 101.71 41.975Z" fill="#FFC391"></path>
</g>
<g id="Vector_12">
<path d="M97.58 43.79C97.545 43.79 97.515 43.785 97.48 43.77L96.1 43.17C95.47 42.835 95.775 42.15 96.09 41.43C96.255 41.06 96.44 40.64 96.55 40.195L97.085 34.925C97.1 34.785 97.225 34.685 97.36 34.7C97.495 34.715 97.595 34.835 97.585 34.975L97.04 40.28C96.91 40.8 96.715 41.24 96.545 41.63C96.25 42.3 96.13 42.625 96.315 42.72L97.675 43.315C97.8 43.37 97.86 43.515 97.805 43.645C97.765 43.74 97.67 43.795 97.575 43.795L97.58 43.79Z" fill="#07064E"></path>
<path d="M97.1201 49.705C95.8951 49.705 94.7201 49.3 93.6001 48.49C93.4901 48.41 93.4651 48.255 93.5451 48.14C93.6251 48.03 93.7801 48.005 93.8951 48.085C95.9801 49.595 98.1901 49.59 100.645 48.075C100.76 48.005 100.915 48.04 100.99 48.155C101.06 48.275 101.025 48.425 100.91 48.5C99.6051 49.305 98.3401 49.705 97.1201 49.705Z" fill="#07064E"></path>
<path d="M91.9101 38.05C90.8501 38.05 89.9851 37.125 89.9851 35.99C89.9851 35.85 90.0951 35.74 90.2351 35.74C90.3751 35.74 90.4851 35.85 90.4851 35.99C90.4851 36.85 91.1251 37.55 91.9101 37.55C92.6951 37.55 93.3351 36.85 93.3351 35.99C93.3351 35.85 93.4451 35.74 93.5851 35.74C93.7251 35.74 93.8351 35.85 93.8351 35.99C93.8351 37.125 92.9701 38.05 91.9101 38.05Z" fill="#07064E"></path>
<path d="M98.1151 51.275H95.9951C95.8551 51.275 95.7451 51.165 95.7451 51.025C95.7451 50.885 95.8551 50.775 95.9951 50.775H98.1151C98.2551 50.775 98.3651 50.885 98.3651 51.025C98.3651 51.165 98.2551 51.275 98.1151 51.275Z" fill="#07064E"></path>
<path d="M102.26 38.05C101.2 38.05 100.335 37.125 100.335 35.99C100.335 35.85 100.445 35.74 100.585 35.74C100.725 35.74 100.835 35.85 100.835 35.99C100.835 36.85 101.475 37.55 102.26 37.55C103.045 37.55 103.685 36.85 103.685 35.99C103.685 35.85 103.795 35.74 103.935 35.74C104.075 35.74 104.185 35.85 104.185 35.99C104.185 37.125 103.32 38.05 102.26 38.05Z" fill="#07064E"></path>
<path d="M89.255 33.745C89.21 33.745 89.16 33.73 89.12 33.705C89.005 33.63 88.97 33.475 89.045 33.36C89.99 31.895 92.06 31.74 94.88 32.915C95.005 32.97 95.07 33.115 95.015 33.24C94.96 33.37 94.815 33.425 94.69 33.375C93.2 32.755 90.545 31.96 89.47 33.63C89.42 33.705 89.34 33.745 89.26 33.745H89.255Z" fill="#07064E"></path>
<path d="M105.025 33.745C104.945 33.745 104.86 33.705 104.815 33.63C103.74 31.965 101.08 32.755 99.595 33.375C99.47 33.425 99.32 33.37 99.27 33.24C99.215 33.115 99.275 32.965 99.405 32.915C102.225 31.74 104.295 31.895 105.24 33.36C105.315 33.475 105.28 33.63 105.165 33.705C105.125 33.73 105.075 33.745 105.03 33.745H105.025Z" fill="#07064E"></path>
</g>
<path id="Vector_13" d="M96.72 125.05C117.022 125.05 133.48 123.161 133.48 120.83C133.48 118.499 117.022 116.61 96.72 116.61C76.418 116.61 59.96 118.499 59.96 120.83C59.96 123.161 76.418 125.05 96.72 125.05Z" fill="#2AEDB4"></path>
<path id="Vector_14" d="M133.68 83.66C133.965 81.145 132.105 79.055 129.535 79.055H63.7402C61.1752 79.055 59.3102 81.14 59.5952 83.66L62.7902 111.835H62.6452L62.9152 114.19C63.1452 116.225 65.1902 117.87 67.4552 117.87H125.53C127.795 117.87 129.835 116.225 130.07 114.19L130.265 112.46H130.41L133.69 83.66H133.68Z" fill="white"></path>
<path id="Vector_15" d="M130.925 79.275C114.98 93.07 107.205 101.945 91.5951 107.455C82.4001 111.13 73.1251 114.14 63.2451 115.335C63.9551 116.805 65.6251 117.865 67.4451 117.865H125.52C127.785 117.865 129.825 116.22 130.06 114.185L130.255 112.455H130.4L133.68 83.655C133.91 81.62 132.74 79.87 130.925 79.27V79.275Z" fill="#EDEDED"></path>
<path id="Vector_16" d="M96.7203 105.125C95.2803 105.125 93.8853 104.735 92.6803 103.99C92.5603 103.92 92.5253 103.765 92.6003 103.645C92.6703 103.525 92.8253 103.49 92.9453 103.565C94.0703 104.26 95.3803 104.625 96.7253 104.625C100.11 104.625 103.04 102.26 103.395 99.24C103.58 97.645 103.075 96.085 101.97 94.84C100.705 93.415 98.7953 92.6 96.7303 92.6C94.6653 92.6 92.7553 93.415 91.4903 94.84C90.3853 96.085 89.8753 97.645 90.0653 99.24C90.1603 100.035 90.4253 100.795 90.8553 101.49C90.9253 101.605 90.8903 101.76 90.7753 101.835C90.6553 101.91 90.5053 101.87 90.4303 101.755C89.9603 100.995 89.6753 100.17 89.5703 99.3C89.3653 97.565 89.9153 95.86 91.1203 94.51C92.4803 92.98 94.5303 92.105 96.7353 92.105C98.9403 92.105 100.99 92.98 102.35 94.51C103.555 95.86 104.105 97.565 103.9 99.3C103.515 102.565 100.37 105.125 96.7353 105.125H96.7203Z" fill="#07064E"></path>
<g id="Group">
<path id="Vector_17" d="M27.5801 28.965L61.3851 18.855C64.0951 18.045 66.9701 19.6 67.7851 22.305L70.3951 31.03L75.1751 47.01L78.1951 57.11C78.4751 58.045 77.3251 58.73 76.6351 58.045L69.3651 50.805C68.3851 49.83 66.9551 49.47 65.6301 49.865L36.4451 58.595C33.7351 59.405 30.8601 57.85 30.0451 55.145L24.1301 35.37C23.3201 32.66 24.8751 29.785 27.5801 28.97V28.965Z" fill="#2AEDB4"></path>
<path id="Vector_18" d="M27.5801 26.84L61.3851 16.73C64.0951 15.92 66.9701 17.475 67.7851 20.18L70.3951 28.905L75.1751 44.885L78.1951 54.985C78.4751 55.92 77.3251 56.605 76.6351 55.92L69.3651 48.68C68.3851 47.705 66.9551 47.345 65.6301 47.74L36.4451 56.47C33.7351 57.28 30.8601 55.725 30.0451 53.02L24.1301 33.245C23.3201 30.535 24.8751 27.66 27.5801 26.845V26.84Z" fill="white"></path>
<path id="Vector_19" d="M26.3441 26.9987L62.4394 16.2039C64.528 15.5793 66.7262 16.7694 67.3494 18.8532L67.8451 20.5107L24.1905 33.5662L23.6948 31.9087C23.0702 29.8201 24.2602 27.6219 26.3441 26.9987Z" fill="#07064E"></path>
<path id="Vector_20" d="M58.54 21.8C59.2994 21.8 59.915 21.1844 59.915 20.425C59.915 19.6656 59.2994 19.05 58.54 19.05C57.7806 19.05 57.165 19.6656 57.165 20.425C57.165 21.1844 57.7806 21.8 58.54 21.8Z" fill="white"></path>
<path id="Vector_21" d="M62.3501 20.66C63.1095 20.66 63.7251 20.0444 63.7251 19.285C63.7251 18.5256 63.1095 17.91 62.3501 17.91C61.5907 17.91 60.9751 18.5256 60.9751 19.285C60.9751 20.0444 61.5907 20.66 62.3501 20.66Z" fill="#2BF5BA"></path>
<path id="Vector_22" d="M37.8504 50.51C37.8104 50.51 37.7654 50.5 37.7304 50.48C37.6704 50.45 37.6304 50.395 37.6104 50.33L33.2354 35.36C33.1954 35.225 33.2704 35.09 33.4054 35.05C33.5404 35.01 33.6754 35.085 33.7154 35.22L38.0204 49.95L63.4204 42.525C63.5554 42.485 63.6904 42.56 63.7304 42.695C63.7704 42.83 63.6954 42.965 63.5604 43.005L37.9204 50.5C37.9204 50.5 37.8754 50.51 37.8504 50.51Z" fill="#07064E"></path>
<g id="Vector_23">
<path d="M39.2049 47.97C39.2049 47.97 39.1749 47.97 39.1599 47.97C39.0249 47.945 38.9349 47.815 38.9549 47.68L40.1999 40.555C40.2149 40.47 40.2699 40.4 40.3499 40.37C40.4299 40.335 40.5149 40.345 40.5899 40.395L44.3199 42.915L46.1449 35.535C46.1649 35.45 46.2349 35.38 46.3199 35.355C46.4049 35.33 46.4999 35.355 46.5649 35.42L53.8349 42.61L57.3999 28.825C57.4349 28.69 57.5699 28.61 57.7049 28.645C57.8399 28.68 57.9199 28.815 57.8849 28.95L54.2149 43.155C54.1949 43.24 54.1249 43.31 54.0399 43.335C53.9549 43.36 53.8599 43.335 53.7999 43.27L46.5299 36.08L44.7249 43.38C44.7049 43.46 44.6499 43.525 44.5699 43.555C44.4949 43.585 44.4099 43.575 44.3399 43.53L40.6299 41.025L39.4549 47.77C39.4349 47.89 39.3299 47.975 39.2099 47.975L39.2049 47.97Z" fill="#FFC391"></path>
<path d="M59.0549 31.345C58.9649 31.345 58.8799 31.3 58.8349 31.215L57.6299 29.04L55.4399 30.25C55.3199 30.315 55.1649 30.275 55.0999 30.15C55.0349 30.03 55.0749 29.875 55.1999 29.81L57.6099 28.48C57.6699 28.45 57.7349 28.44 57.7999 28.46C57.8649 28.48 57.9199 28.52 57.9499 28.58L59.2749 30.975C59.3399 31.095 59.2999 31.25 59.1749 31.315C59.1349 31.335 59.0949 31.345 59.0549 31.345Z" fill="#FFC391"></path>
</g>
</g>
<g id="Group_2">
<path id="Vector_24" d="M159.665 41.825L135.79 32.5C133.875 31.755 131.7 32.705 130.955 34.62L128.55 40.78L124.14 52.065L121.355 59.2C121.1 59.86 121.89 60.425 122.43 59.97L128.125 55.16C128.89 54.515 129.95 54.335 130.885 54.7L151.5 62.75C153.415 63.495 155.59 62.545 156.335 60.63L161.79 46.665C162.535 44.75 161.585 42.575 159.67 41.83L159.665 41.825Z" fill="#2AEDB4"></path>
<path id="Vector_25" d="M159.665 39.7L135.79 30.375C133.875 29.63 131.7 30.58 130.955 32.495L128.55 38.655L124.14 49.94L121.355 57.075C121.1 57.735 121.89 58.3 122.43 57.845L128.125 53.035C128.89 52.39 129.95 52.21 130.885 52.575L151.5 60.625C153.415 61.37 155.59 60.42 156.335 58.505L161.79 44.54C162.535 42.625 161.585 40.45 159.67 39.705L159.665 39.7Z" fill="white"></path>
<path id="Vector_26" d="M135.421 30.2372L160.025 39.8497C161.743 40.5211 162.595 42.4641 161.923 44.1826L161.696 44.7647L130.865 32.7196L131.093 32.1374C131.764 30.4189 133.707 29.5676 135.426 30.239L135.421 30.2372Z" fill="#07064E"></path>
<path id="Vector_27" d="M156.71 41.645C157.246 41.645 157.68 41.2107 157.68 40.675C157.68 40.1393 157.246 39.705 156.71 39.705C156.175 39.705 155.74 40.1393 155.74 40.675C155.74 41.2107 156.175 41.645 156.71 41.645Z" fill="white"></path>
<path id="Vector_28" d="M159.325 42.665C159.861 42.665 160.295 42.2307 160.295 41.695C160.295 41.1593 159.861 40.725 159.325 40.725C158.789 40.725 158.355 41.1593 158.355 41.695C158.355 42.2307 158.789 42.665 159.325 42.665Z" fill="#2BF5BA"></path>
<path id="Vector_29" d="M137.441 39.6319L133.804 38.2108C132.896 37.8561 131.873 38.3046 131.518 39.2125L130.097 42.8498C129.742 43.7577 130.191 44.7813 131.099 45.1361L134.736 46.5571C135.644 46.9118 136.667 46.4634 137.022 45.5554L138.443 41.9181C138.798 41.0102 138.349 39.9866 137.441 39.6319Z" fill="#07064E"></path>
<path id="Vector_30" d="M140.712 44.9278L139.291 48.5651C138.936 49.473 139.385 50.4966 140.293 50.8514L143.93 52.2724C144.838 52.6271 145.862 52.1786 146.216 51.2707L147.637 47.6334C147.992 46.7255 147.544 45.7019 146.636 45.3472L142.999 43.9261C142.091 43.5714 141.067 44.0199 140.712 44.9278Z" fill="#EDEDED"></path>
<g id="Vector_31">
<path d="M140.713 42.7995L139.292 46.4368C138.937 47.3448 139.386 48.3684 140.294 48.7231L143.931 50.1441C144.839 50.4988 145.862 50.0504 146.217 49.1424L147.638 45.5052C147.993 44.5972 147.544 43.5736 146.636 43.2189L142.999 41.7978C142.091 41.4431 141.068 41.8916 140.713 42.7995Z" fill="#2BF5BA"></path>
<path d="M155.809 46.8095L152.172 45.3884C151.264 45.0337 150.24 45.4822 149.886 46.3901L148.465 50.0274C148.11 50.9354 148.558 51.959 149.466 52.3137L153.103 53.7347C154.011 54.0894 155.035 53.641 155.39 52.733L156.811 49.0958C157.166 48.1878 156.717 47.1642 155.809 46.8095Z" fill="#2BF5BA"></path>
</g>
<g id="Vector_32">
<path d="M135.475 45.385L135.015 45.205C134.96 45.185 134.925 45.155 134.9 45.115C134.88 45.075 134.865 45.03 134.865 44.985V43.76L132.89 42.99L132.065 43.895C132.04 43.925 132 43.95 131.955 43.965C131.91 43.98 131.86 43.98 131.81 43.96L131.35 43.78L134.835 40.06L135.44 40.295L135.48 45.39L135.475 45.385ZM134.87 43.265L134.88 41.2C134.88 41.14 134.88 41.07 134.89 40.99C134.89 40.91 134.905 40.825 134.915 40.74C134.805 40.89 134.71 41.01 134.62 41.105L133.23 42.625L134.875 43.27L134.87 43.265Z" fill="white"></path>
<path d="M144.17 43.705C144.44 43.81 144.665 43.93 144.84 44.06C145.015 44.19 145.145 44.33 145.235 44.475C145.325 44.625 145.37 44.78 145.37 44.945C145.37 45.11 145.34 45.285 145.27 45.46C145.225 45.57 145.17 45.665 145.095 45.75C145.02 45.835 144.935 45.91 144.835 45.97C144.735 46.03 144.62 46.075 144.49 46.1C144.36 46.13 144.215 46.135 144.06 46.125C144.36 46.315 144.56 46.525 144.655 46.755C144.75 46.99 144.745 47.24 144.64 47.515C144.565 47.7 144.465 47.86 144.34 47.985C144.215 48.11 144.06 48.205 143.885 48.265C143.71 48.325 143.515 48.345 143.295 48.33C143.08 48.315 142.85 48.26 142.6 48.165L141.045 47.555L142.765 43.15L144.17 43.7V43.705ZM143.175 43.86L142.59 45.365L143.375 45.67C143.545 45.735 143.695 45.775 143.835 45.785C143.975 45.795 144.095 45.785 144.205 45.75C144.31 45.715 144.4 45.66 144.48 45.58C144.555 45.5 144.615 45.41 144.66 45.295C144.76 45.035 144.76 44.815 144.65 44.635C144.54 44.455 144.325 44.3 143.995 44.17L143.185 43.855L143.175 43.86ZM142.775 47.695C142.945 47.76 143.1 47.8 143.24 47.81C143.38 47.82 143.5 47.805 143.605 47.765C143.71 47.725 143.8 47.665 143.875 47.58C143.95 47.495 144.01 47.395 144.055 47.28C144.145 47.05 144.135 46.84 144.025 46.645C143.915 46.45 143.7 46.29 143.375 46.16L142.42 45.79L141.82 47.325L142.775 47.695Z" fill="white"></path>
<path d="M153.66 51.445C153.695 51.46 153.715 51.48 153.73 51.52L153.865 51.87C153.605 52.01 153.32 52.085 153.02 52.1C152.715 52.115 152.385 52.055 152.02 51.91C151.705 51.785 151.44 51.62 151.225 51.41C151.01 51.2 150.85 50.96 150.745 50.69C150.64 50.42 150.59 50.13 150.6 49.81C150.61 49.495 150.675 49.17 150.805 48.84C150.935 48.51 151.105 48.225 151.32 47.99C151.535 47.755 151.775 47.575 152.04 47.45C152.305 47.325 152.595 47.26 152.9 47.255C153.205 47.25 153.52 47.31 153.84 47.435C154.16 47.56 154.41 47.715 154.61 47.91C154.81 48.105 154.97 48.325 155.085 48.565L154.78 48.76C154.78 48.76 154.735 48.785 154.715 48.79C154.69 48.795 154.66 48.79 154.63 48.78C154.595 48.765 154.555 48.73 154.52 48.665C154.48 48.605 154.43 48.535 154.365 48.45C154.3 48.365 154.21 48.28 154.095 48.19C153.98 48.1 153.83 48.02 153.64 47.945C153.41 47.855 153.19 47.815 152.97 47.82C152.75 47.825 152.545 47.875 152.35 47.97C152.155 48.065 151.98 48.21 151.82 48.395C151.66 48.58 151.525 48.81 151.42 49.08C151.315 49.35 151.255 49.615 151.25 49.86C151.245 50.105 151.28 50.33 151.36 50.53C151.44 50.73 151.555 50.91 151.71 51.06C151.865 51.21 152.05 51.33 152.265 51.41C152.395 51.46 152.515 51.5 152.63 51.525C152.74 51.55 152.85 51.565 152.95 51.565C153.05 51.565 153.15 51.56 153.25 51.54C153.345 51.52 153.445 51.49 153.55 51.45C153.595 51.435 153.64 51.43 153.675 51.445H153.66Z" fill="white"></path>
</g>
</g>
<path id="Vector_33" d="M124.195 75.07C124.22 76.415 124.26 77.745 124.32 79.055H126.76L126.99 74.15C127.425 68.79 123.965 64.735 118.745 64.57L116.94 64.28C120.755 66.47 124.105 69.915 124.19 75.065L124.195 75.07Z" fill="#FFAF6E"></path>
<path id="Vector_34" d="M125.525 117.87H67.4499C66.2049 117.87 65.0399 117.365 64.1949 116.58C64.1449 116.725 64.1099 116.88 64.1099 117.04V119.435C64.1099 120.205 64.7349 120.83 65.5049 120.83H127.9C128.67 120.83 129.295 120.205 129.295 119.435V117.04C129.295 116.765 129.215 116.515 129.075 116.3C128.22 117.25 126.915 117.87 125.525 117.87Z" fill="#EDEDED"></path>
<path id="Vector_35" d="M188.79 95.13L132.615 95.2L133.925 83.685C134.07 82.4 133.695 81.18 132.87 80.255C132.035 79.32 130.85 78.805 129.535 78.805H127.03L127.31 72.63C127.31 68.8 124.595 65.43 120.84 64.62L108.385 62.355C104.415 61.565 104.32 57.44 104.22 53.075C104.21 52.705 104.205 52.34 104.195 51.975C104.195 51.955 104.185 51.94 104.18 51.92C105.5 50.085 106.565 47.69 107.295 44.86C107.295 44.86 107.3 44.86 107.305 44.86C108.04 44.86 109.035 44.74 109.585 44.16C110.43 43.27 110.62 42.32 110.865 41.115L110.945 40.73C111.41 38.505 111.44 37.28 110.365 36.335C110.2 36.19 109.98 36.07 109.735 35.995C109.77 35.175 109.755 33.8 109.735 32.465C109.72 31.05 109.7 29.29 109.76 29.08C110.02 28.52 110.66 28.3 111.225 28.105C111.745 27.925 112.24 27.755 112.315 27.31C112.395 26.83 112.025 26.195 109.915 24.52C109.705 24.355 109.705 24.085 109.72 23.655C109.74 23.25 109.755 22.79 109.395 22.505C108.975 22.17 108.17 22.19 106.72 22.57C106.63 21.73 107.275 21.01 107.76 20.475C108.15 20.04 108.46 19.7 108.3 19.36C108.155 19.05 107.735 18.895 105.93 18.95C104.08 19.01 102.675 19.39 102.17 19.955C102.16 19.965 102.15 19.98 102.14 19.99C100.895 19.03 100.055 18.68 99.5101 18.9C98.9951 19.11 98.9201 19.715 98.8601 20.16C98.8501 20.235 98.8401 20.33 98.8251 20.405C93.2051 16.73 87.9351 19.355 86.4501 20.255C84.5351 21.41 83.2201 22.95 83.3151 23.92C83.3251 24.025 83.4051 24.115 83.5101 24.14C85.3651 24.555 85.7101 24.915 85.7451 25.095C85.8101 25.385 85.1701 25.875 84.6051 26.3C83.5451 27.105 82.1001 28.205 83.0601 29.595C83.1051 29.665 83.1901 29.71 83.2701 29.7C83.3551 29.7 83.4301 29.655 83.4751 29.59C84.1001 28.645 84.3701 28.695 84.4001 28.705C85.0951 28.92 85.0301 33.095 84.9951 35.34L84.9851 35.96C84.6801 36.03 84.3951 36.17 84.1951 36.345C83.1201 37.29 83.1501 38.515 83.6151 40.74L83.6951 41.125C83.9401 42.33 84.1301 43.28 84.9751 44.17C85.5651 44.79 86.3651 44.87 87.0001 44.87C87.0251 44.87 87.0501 44.865 87.0701 44.855C87.8001 47.66 88.9301 50.09 90.3301 51.95C90.3301 51.96 90.3251 51.97 90.3251 51.98C90.3151 52.345 90.3051 52.71 90.3001 53.08C90.2001 57.465 90.1101 61.605 86.0901 62.37L85.4801 62.48L73.3451 64.625C69.6001 65.435 66.8851 68.805 66.8851 72.645L67.0901 78.81H63.7151C62.4001 78.81 61.2151 79.325 60.3801 80.26C59.5501 81.185 59.1751 82.405 59.3251 83.69L60.6401 95.28L10.4351 95.335C10.2951 95.335 10.1851 95.445 10.1851 95.585C10.1851 95.725 10.2951 95.835 10.4351 95.835L60.7001 95.78L62.7951 114.265C62.8951 115.135 63.3051 115.935 63.9201 116.585C63.8751 116.73 63.8451 116.885 63.8451 117.045V119.44C63.8451 120.345 64.5801 121.085 65.4901 121.085H127.885C128.79 121.085 129.53 120.35 129.53 119.44V117.045C129.53 116.84 129.49 116.65 129.42 116.47C129.975 115.84 130.345 115.08 130.435 114.26L132.55 95.7L188.78 95.63C188.92 95.63 189.03 95.52 189.03 95.38C189.03 95.24 188.92 95.13 188.78 95.13H188.79ZM110.04 36.715C110.85 37.425 110.945 38.305 110.46 40.635L110.38 41.02C110.145 42.19 109.975 43.03 109.225 43.82C108.805 44.265 107.955 44.355 107.42 44.365C107.8 42.765 108.08 41.04 108.235 39.195C108.275 38.725 108.31 38.085 108.33 37.55C108.36 37.51 108.38 37.46 108.38 37.41C108.38 36.93 108.53 36.62 108.825 36.485C109.21 36.31 109.75 36.47 110.03 36.72L110.04 36.715ZM87.1551 42.825C87.1301 42.69 87.0001 42.6 86.8651 42.625C86.7301 42.65 86.6401 42.78 86.6651 42.915C86.7551 43.41 86.8601 43.89 86.9701 44.365C86.2101 44.355 85.7101 44.19 85.3601 43.825C84.6151 43.035 84.4451 42.195 84.2051 41.025L84.1251 40.64C83.6401 38.31 83.7351 37.435 84.5451 36.72C84.7051 36.58 84.9451 36.47 85.2001 36.43C85.2151 36.43 85.2301 36.44 85.2501 36.44C85.2901 36.44 85.3251 36.43 85.3551 36.415C85.4951 36.415 85.6301 36.43 85.7501 36.485C86.0451 36.62 86.1951 36.93 86.1951 37.41C86.1951 37.445 86.2051 37.48 86.2151 37.51C86.2151 37.945 86.2151 38.38 86.2251 38.825C86.2251 38.96 86.3401 39.07 86.4751 39.07H86.4851C86.6251 39.07 86.7301 38.95 86.7301 38.815C86.7101 38.065 86.7101 37.325 86.7401 36.62C86.7901 35.44 88.2801 29.095 88.2951 29.045C88.4301 28.605 89.7501 27.32 91.9401 27.04C93.8851 26.79 95.8551 27.385 96.9651 28.565C97.0301 28.635 97.1201 28.655 97.2051 28.63C97.2901 28.65 97.3851 28.63 97.4451 28.565C98.5551 27.39 100.53 26.79 102.47 27.04C104.63 27.32 105.915 28.495 106.12 29.06C106.155 29.16 106.255 29.225 106.355 29.225C106.385 29.225 106.41 29.225 106.44 29.21C106.57 29.165 106.635 29.02 106.59 28.89C106.31 28.12 104.825 26.845 102.535 26.545C100.5 26.28 98.4351 26.895 97.2001 28.11C95.9651 26.895 93.9001 26.28 91.8651 26.545C89.5451 26.845 88.0151 28.22 87.8001 28.92C87.7451 29.165 86.4901 34.49 86.2651 36.25C86.1551 36.145 86.0401 36.075 85.9451 36.03C85.8001 35.965 85.6451 35.93 85.4901 35.92L85.5001 35.345C85.5651 31.24 85.5301 28.53 84.5551 28.225C84.0951 28.08 83.6551 28.51 83.3051 28.97C83.0501 28.195 83.8251 27.525 84.9151 26.695C85.6951 26.1 86.3751 25.585 86.2401 24.985C86.1251 24.45 85.3951 24.06 83.8201 23.695C83.9251 22.98 84.9651 21.735 86.7101 20.68C88.1401 19.82 93.2251 17.285 98.6301 20.87C98.8201 20.995 98.9651 20.975 99.0551 20.935C99.2851 20.83 99.3201 20.55 99.3601 20.22C99.4051 19.88 99.4551 19.46 99.7001 19.36C99.9151 19.275 100.51 19.315 102.085 20.58C102.165 20.645 102.27 20.655 102.36 20.61C102.45 20.565 102.5 20.47 102.49 20.37C102.51 20.245 103.225 19.535 105.945 19.445C107.5 19.39 107.795 19.52 107.84 19.54C107.835 19.64 107.575 19.925 107.385 20.135C106.81 20.775 105.945 21.74 106.28 22.945C106.315 23.08 106.455 23.155 106.59 23.12C108.285 22.65 108.88 22.74 109.08 22.895C109.23 23.015 109.235 23.255 109.215 23.635C109.195 24.055 109.175 24.58 109.595 24.915C111.5 26.425 111.855 27.01 111.815 27.23C111.79 27.385 111.415 27.515 111.055 27.64C110.43 27.855 109.65 28.125 109.3 28.875C109.205 29.08 109.2 29.87 109.225 32.48C109.24 33.775 109.255 35.11 109.225 35.925C109.015 35.92 108.805 35.95 108.61 36.04C108.52 36.08 108.415 36.145 108.31 36.24L107.805 33.62C107.78 33.485 107.645 33.395 107.51 33.42C107.375 33.445 107.285 33.575 107.31 33.715L107.855 36.54C107.85 36.765 107.795 38.27 107.72 39.17C107.03 47.305 103.52 55.515 97.2351 55.515C92.6351 55.515 88.4801 50.305 87.1301 42.845L87.1551 42.825ZM90.8251 53.085C90.8251 52.905 90.8351 52.725 90.8401 52.545C92.6801 54.725 94.9101 55.995 97.2601 55.995C99.6101 55.995 101.925 54.75 103.72 52.535C103.72 52.715 103.73 52.9 103.735 53.08C103.82 56.895 103.91 60.82 106.835 62.335L105.2 63.84C100.675 68.005 93.8051 68.055 89.2151 63.955L87.5151 62.435C90.6451 61 90.7401 56.985 90.8301 53.08L90.8251 53.085ZM85.5901 62.965L86.2051 62.855L87.0551 62.705L88.8751 64.335C93.6551 68.605 100.815 68.555 105.53 64.215L107.23 62.65L108.295 62.845C108.295 62.845 108.325 62.855 108.345 62.86C108.36 62.86 108.375 62.86 108.385 62.86L109.775 63.11L107.725 65.11C101.775 70.905 92.7451 70.975 86.7151 65.27L84.4801 63.16L85.5851 62.965H85.5901ZM73.4651 65.11L83.8701 63.27L86.3701 65.635C89.4501 68.55 93.2951 70.005 97.1351 70.005C100.975 70.005 104.97 68.49 108.07 65.47L110.375 63.225L120.745 65.11C124.26 65.87 126.81 69.035 126.81 72.62L126.53 78.805H67.6101L67.4051 72.63C67.4051 69.035 69.9551 65.87 73.4601 65.11H73.4651ZM129.04 119.44C129.04 120.07 128.525 120.585 127.895 120.585H65.5001C64.8701 120.585 64.3551 120.07 64.3551 119.44V117.045C64.3551 117.045 64.3601 117.01 64.3601 116.995C65.2301 117.715 66.3751 118.165 67.5901 118.165H125.655C126.93 118.165 128.13 117.665 129.01 116.88C129.02 116.935 129.03 116.985 129.03 117.045V119.44H129.04ZM129.95 114.205C129.735 116.115 127.81 117.665 125.66 117.665H67.5951C65.4451 117.665 63.5251 116.115 63.3051 114.205L59.8401 83.635C59.7101 82.495 60.0401 81.415 60.7751 80.595C61.5151 79.765 62.5651 79.31 63.7401 79.31H129.54C130.71 79.31 131.765 79.765 132.505 80.595C133.235 81.415 133.565 82.495 133.435 83.635L129.955 114.205H129.95Z" fill="#07064E"></path>
<path id="Vector_36" d="M8.31006 95.83H5.06006C4.92006 95.83 4.81006 95.72 4.81006 95.58C4.81006 95.44 4.92006 95.33 5.06006 95.33H8.31006C8.45006 95.33 8.56006 95.44 8.56006 95.58C8.56006 95.72 8.45006 95.83 8.31006 95.83Z" fill="#2BF5BA"></path>
</g>
</g>
</g>
</g>
<defs>
<clipPath id="clip0_85_2120">
<rect width="200" height="140" fill="white"></rect>
</clipPath>
</defs>
</svg>