<svg width="200" height="140" viewBox="0 0 200 140" fill="none" xmlns="http://www.w3.org/2000/svg">
<g id="illu_bg_registration/Default" clip-path="url(#clip0_86_1280)">
<g id="illu_bg_registration">
<g id="background">
<path d="M175.78 11.1202C217.575 27.5152 191.99 109.46 163.89 125.745C145.415 136.455 97.2851 114.645 56.9851 123.065C25.5751 129.625 15.8651 128.47 27.2851 105.08C39.3901 80.3002 -1.87492 56.5452 2.53508 28.7002C5.23008 11.6502 13.0901 3.63022 46.0501 7.02022C129.855 15.6402 143.51 -1.53978 175.78 11.1202Z" fill="#2BF5BA"></path>
<path d="M15.473 131.884C18.6146 129.593 19.9597 126.088 18.4775 124.056C16.9953 122.023 13.247 122.232 10.1055 124.523C6.96392 126.814 5.61878 130.319 7.10099 132.352C8.58321 134.384 12.3315 134.175 15.473 131.884Z" fill="#2BF5BA"></path>
<path d="M192.918 104.925C194.742 103.985 195.731 102.275 195.129 101.107C194.526 99.9389 192.559 99.7545 190.736 100.695C188.913 101.636 187.923 103.345 188.526 104.514C189.128 105.682 191.095 105.866 192.918 104.925Z" fill="#2BF5BA"></path>
</g>
<g id="illu_bg_registration_2">
<g id="stroke">
<path id="Vector" d="M155.725 82.5846H157.09C159.56 79.8146 161.635 74.8696 158.455 71.5346C156.6 69.5896 151.41 69.6396 151.41 69.6396C151.41 69.6396 149.555 67.4096 146.87 67.5196C143.75 67.6446 141.8 69.5896 140.75 71.3496C139.365 73.6696 139.39 78.3946 139.635 80.2796C139.755 81.1846 140.165 89.3296 140.03 90.4646C140.64 89.7096 144.97 87.7746 147.27 87.2646C151.4 86.3496 153.57 85.6446 155.73 83.8746V82.5846H155.725Z" fill="#2BF5BA"></path>
<path id="Vector_2" d="M121.95 85.2644C121.325 85.7094 120.61 85.9344 119.9 85.9544C119.77 85.9694 119.64 85.9694 119.505 85.9494H119.465C119.265 85.9244 119.07 85.8944 118.875 85.8444L111.775 84.6494H110.105C110.085 84.7144 110.065 84.7844 110.055 84.8594C109.92 85.6744 110.465 86.4444 111.28 86.5844L118.875 87.8644C119.07 87.9144 119.265 87.9444 119.465 87.9644H119.505C119.64 87.9944 119.77 87.9894 119.9 87.9794C120.61 87.9594 121.325 87.7344 121.95 87.2894L125.63 84.6694C125.63 84.6694 125.64 84.6594 125.65 84.6544H122.825L121.955 85.2744L121.95 85.2644Z" fill="#2AEDB4"></path>
<path id="Vector_3" d="M61.46 28.5146H137.745C140.885 28.5146 143.43 31.0646 143.43 34.1996V75.7747H55.77V34.1996C55.77 31.0596 58.32 28.5146 61.455 28.5146H61.46Z" fill="#EDEDED"></path>
<path id="Vector_4" d="M18.2949 100.765C18.1549 100.765 18.0449 100.655 18.0449 100.515C18.0449 100.375 18.1549 100.265 18.2949 100.265L187.325 100.075C187.465 100.075 187.575 100.185 187.575 100.325C187.575 100.465 187.465 100.575 187.325 100.575L18.2949 100.765Z" fill="#07064E"></path>
<path id="Vector_5" d="M16.2651 100.765H13.1851C13.0451 100.765 12.9351 100.655 12.9351 100.515C12.9351 100.375 13.0451 100.265 13.1851 100.265H16.2651C16.4051 100.265 16.5151 100.375 16.5151 100.515C16.5151 100.655 16.4051 100.765 16.2651 100.765Z" fill="#2BF5BA"></path>
<path id="Vector_6" d="M119.835 102.615C119.5 104.05 118.215 105.125 116.685 105.125H82.15C80.62 105.125 79.33 104.05 79 102.615C57.82 105.685 80.7399 108.74 99.4199 108.61C118.105 108.745 141.01 105.69 119.84 102.615H119.835Z" fill="#2AEDB4"></path>
<g id="Vector_7">
<path d="M55.585 75.6797V78.7647C55.585 81.8947 58.145 84.4497 61.27 84.4497H92.21V98.5047H82.4C80.59 98.5047 79.125 99.9697 79.125 101.78C79.125 103.59 80.59 105.055 82.4 105.055H116.805C118.615 105.055 120.08 103.59 120.08 101.78C120.08 99.9697 118.615 98.5047 116.805 98.5047H106.99V84.4497H137.56C140.69 84.4497 143.245 81.8897 143.245 78.7647V75.6797H55.585Z" fill="white"></path>
<path d="M107.05 84.3948H92.155V98.5648H107.05V84.3948Z" fill="white"></path>
</g>
<path id="Vector_8" d="M92.3702 84.3398C92.3702 84.3848 92.3652 84.4298 92.3652 84.4748C92.3652 88.1298 95.6052 91.0948 99.6052 91.0948C103.605 91.0948 106.845 88.1298 106.845 84.4748C106.845 84.4298 106.84 84.3848 106.84 84.3398H92.3752H92.3702Z" fill="#EBEBEB"></path>
<g id="Vector_9">
<path d="M28.9754 54.0196C37.3231 54.0196 44.0904 47.1293 44.0904 38.6297C44.0904 30.13 37.3231 23.2396 28.9754 23.2396C20.6276 23.2396 13.8604 30.13 13.8604 38.6297C13.8604 47.1293 20.6276 54.0196 28.9754 54.0196Z" fill="#2AEDB4"></path>
<path d="M29.6204 51.2946C37.9681 51.2946 44.7354 44.4043 44.7354 35.9046C44.7354 27.405 37.9681 20.5146 29.6204 20.5146C21.2726 20.5146 14.5054 27.405 14.5054 35.9046C14.5054 44.4043 21.2726 51.2946 29.6204 51.2946Z" fill="#2AEDB4"></path>
</g>
<path id="Vector_10" d="M39.2403 24.0347C40.6503 44.7297 29.5203 49.0547 22.9453 49.7147C24.9603 50.7247 27.2253 51.2947 29.6203 51.2947C37.9653 51.2947 44.7353 44.4047 44.7353 35.9047C44.7353 31.1247 42.5953 26.8597 39.2403 24.0347Z" fill="#2DEBC8"></path>
<path id="Vector_11" d="M29.6204 51.5446C21.1504 51.5446 14.2554 44.5296 14.2554 35.9046C14.2554 27.2796 21.1454 20.2646 29.6204 20.2646C38.0954 20.2646 44.9854 27.2796 44.9854 35.9046C44.9854 44.5296 38.0954 51.5446 29.6204 51.5446ZM29.6204 20.7646C21.4254 20.7646 14.7554 27.5546 14.7554 35.9046C14.7554 44.2546 21.4254 51.0446 29.6204 51.0446C37.8154 51.0446 44.4854 44.2546 44.4854 35.9046C44.4854 27.5546 37.8154 20.7646 29.6204 20.7646Z" fill="#07064E"></path>
<g id="Vector_12">
<path d="M29.5497 48.3592C22.6847 48.3592 17.0947 42.7742 17.0947 35.9042C17.0947 34.2592 17.4097 32.6642 18.0297 31.1592C18.0847 31.0292 18.2297 30.9692 18.3547 31.0242C18.4847 31.0792 18.5447 31.2242 18.4897 31.3492C17.8947 32.7942 17.5897 34.3242 17.5897 35.9042C17.5897 42.4942 22.9497 47.8592 29.5447 47.8592C36.1397 47.8592 41.4997 42.4992 41.4997 35.9042C41.4997 29.3092 36.1397 23.9492 29.5447 23.9492C25.7747 23.9492 22.2997 25.6742 20.0197 28.6792C19.9347 28.7892 19.7797 28.8092 19.6697 28.7292C19.5597 28.6442 19.5397 28.4892 19.6197 28.3792C21.9997 25.2442 25.6147 23.4492 29.5447 23.4492C36.4097 23.4492 41.9997 29.0342 41.9997 35.9042C41.9997 42.7742 36.4147 48.3592 29.5447 48.3592H29.5497Z" fill="#07064E"></path>
<path d="M26.3599 40.9892C26.2949 40.9892 26.2349 40.9642 26.1849 40.9192C26.0849 40.8242 26.0849 40.6642 26.1849 40.5642L29.7899 36.8792V27.7942C29.7899 27.6542 29.8999 27.5442 30.0399 27.5442C30.1799 27.5442 30.2899 27.6542 30.2899 27.7942V36.9842C30.2899 37.0492 30.2649 37.1142 30.2199 37.1592L26.5399 40.9142C26.4899 40.9642 26.4249 40.9892 26.3599 40.9892Z" fill="#07064E"></path>
</g>
<path id="Vector_13" d="M127.085 80.5396C126.855 81.3646 126.36 82.1246 125.625 82.6496L123.17 84.3996H125.945C127.03 83.4246 127.465 81.8946 127.085 80.5396Z" fill="#EDEDED"></path>
<g id="Vector_14">
<path d="M116.805 105.305H82.4002C80.4552 105.305 78.8752 103.725 78.8752 101.78C78.8752 99.8346 80.4552 98.2546 82.4002 98.2546H116.805C118.75 98.2546 120.33 99.8346 120.33 101.78C120.33 103.725 118.75 105.305 116.805 105.305ZM82.4002 98.7546C80.7352 98.7546 79.3752 100.11 79.3752 101.78C79.3752 103.45 80.7302 104.805 82.4002 104.805H116.805C118.47 104.805 119.83 103.45 119.83 101.78C119.83 100.11 118.475 98.7546 116.805 98.7546H82.4002Z" fill="#07064E"></path>
<path d="M61.4604 28.2646C58.1854 28.2646 55.5254 30.9296 55.5254 34.1996V78.8297C55.5254 82.1047 58.1904 84.7646 61.4604 84.7646H91.8854V98.6396C91.8854 98.7796 91.9954 98.8896 92.1354 98.8896C92.2754 98.8896 92.3854 98.7796 92.3854 98.6396V84.7646H106.815V98.4947C106.815 98.6347 106.925 98.7447 107.065 98.7447C107.205 98.7447 107.315 98.6347 107.315 98.4947V84.7646H137.75C141.025 84.7646 143.685 82.0997 143.685 78.8297V34.1996C143.685 30.9246 141.02 28.2646 137.75 28.2646H61.4604ZM137.745 28.7646C140.745 28.7646 143.18 31.2046 143.18 34.1996V75.4846H56.0204V34.1996C56.0204 31.1996 58.4604 28.7646 61.4554 28.7646H137.745ZM107.11 84.2747C107.11 84.2747 107.075 84.2646 107.06 84.2646C107.045 84.2646 107.025 84.2696 107.01 84.2747H61.4604C58.4604 84.2747 56.0254 81.8346 56.0254 78.8396V75.9947H143.185V78.8396C143.185 81.8396 140.745 84.2747 137.75 84.2747H107.11Z" fill="#07064E"></path>
</g>
<g id="Group">
<path id="Vector_15" d="M146.865 67.5143C143.745 67.6393 141.795 69.5843 140.745 71.3443C139.36 73.6643 139.385 78.3893 139.63 80.2743C139.75 81.1793 140.16 89.3243 140.025 90.4593C140.635 89.7043 144.965 87.7693 147.265 87.2593C151.745 86.2643 153.915 85.5243 156.275 83.3993C159.05 80.9043 161.98 75.2243 158.455 71.5243C156.6 69.5793 151.41 69.6293 151.41 69.6293C151.41 69.6293 149.555 67.3993 146.865 67.5093V67.5143Z" fill="#2BF5BA"></path>
<path id="Vector_16" d="M160.055 75.2994C160.015 74.0044 159.315 72.5994 158.48 71.6144C157.6 70.5794 155.93 69.7844 152.685 69.6694C153.53 74.0944 153.445 79.6544 149.51 82.2794C145.215 85.1444 142.785 86.2094 140.05 89.7694C140.05 90.0894 140.05 90.3344 140.03 90.4744C140.64 89.7194 145.895 87.6344 148.18 87.0744C151.825 86.1794 153.26 85.9394 155.7 83.9044C158.205 81.8194 160.175 79.0344 160.06 75.3044L160.055 75.2994Z" fill="#2DEBC8"></path>
<path id="Vector_17" d="M167.895 108.585C173.286 108.585 177.655 107.609 177.655 106.405C177.655 105.201 173.286 104.225 167.895 104.225C162.505 104.225 158.135 105.201 158.135 106.405C158.135 107.609 162.505 108.585 167.895 108.585Z" fill="#2AEDB4"></path>
<g id="Vector_18">
<path d="M178.335 90.0395L174.65 106.354H161.14L157.465 90.0795" fill="#2BF5BA"></path>
<path d="M180.065 82.5845H155.725V90.0645H180.065V82.5845Z" fill="#2BF5BA"></path>
</g>
<g id="Vector_19">
<path d="M180.065 82.5643H180.02L170.9 82.5793C171.335 85.0493 170.93 87.5393 171.04 90.0443H172.955C173.245 96.1393 172.565 102.324 170.275 106.224L174.65 106.354L178.335 90.0443H180.065V82.5643Z" fill="#2DEBC8"></path>
<path d="M160.09 43.1393C161.185 43.3543 162.46 43.0593 163.405 42.5693C164.395 42.0543 165.28 40.8493 165.8 38.2293C161.955 38.0643 157.275 36.9193 155.57 33.2143C153.71 29.1693 153.125 26.9843 150.475 24.0743C150.205 24.0143 150 23.9643 149.885 23.9243C150.445 24.5693 151.52 29.2443 151.7 31.2093C151.985 34.3493 152 35.5643 153.4 37.9343C154.835 40.3743 156.93 42.5143 160.09 43.1393Z" fill="#2DEBC8"></path>
<path d="M178.04 55.3193C177.12 55.2043 176.2 54.6343 175.585 54.0043C174.94 53.3443 174.56 52.1643 174.835 49.9693C178.13 52.8493 182.405 53.0493 184.71 50.5793C187.225 47.8843 187.72 44.4443 190.56 42.8493C190.79 42.8743 190.96 42.8843 191.065 42.8843C190.46 43.2443 188.395 46.6343 187.74 48.1343C186.7 50.5243 186.37 51.4743 184.65 52.9743C182.885 54.5143 180.68 55.6493 178.035 55.3143L178.04 55.3193Z" fill="#2DEBC8"></path>
<path d="M175.875 65.8443C175.575 65.2543 175.545 64.4793 175.675 63.8643C175.81 63.2193 176.355 62.5193 177.765 61.8093C178.47 63.9743 179.635 64.9393 182.015 65.3193C184.615 65.7343 186.19 67.2393 188.27 68.2843C188.345 68.4293 188.41 68.5393 188.45 68.5993C187.995 68.3843 185.16 68.5143 184.01 68.7243C182.175 69.0643 181.48 69.2443 179.905 68.8293C178.285 68.3993 176.735 67.5443 175.875 65.8443Z" fill="#2DEBC8"></path>
<path d="M160.44 59.3693C161.315 59.0893 162.17 58.4043 162.72 57.7193C163.3 56.9993 163.2 56.8543 163.215 56.5343C160.33 57.9043 156.525 56.3643 154.17 54.5843C151.6 52.6393 150.525 51.4293 147.71 50.5393C147.495 50.6043 147.325 50.6493 147.23 50.6643C147.835 50.8743 150.01 53.5293 150.72 54.7543C151.855 56.7093 152.225 57.4993 153.96 58.5193C155.74 59.5693 157.92 60.1693 160.44 59.3643V59.3693Z" fill="#2DEBC8"></path>
</g>
<path id="Vector_20" d="M191.31 42.8194C191.28 42.7094 191.18 42.6344 191.065 42.6394C190.255 42.6594 184.515 41.8194 183.905 41.6794C182.61 41.3894 179.145 41.0244 177.26 41.8294C176.145 42.3044 174.2 43.4644 173.705 45.8644C173.36 47.5194 174.38 48.8394 174.695 49.1994C174.685 49.2744 174.67 49.3844 174.65 49.5144C170.6 53.5844 168.115 59.3794 167.325 63.2894C166.9 65.3944 166.53 67.6394 166.175 69.8444C165.495 68.5994 164.355 67.0144 162.985 65.6094C163.665 62.4444 164.8 59.0944 166.67 55.7844C168.56 52.4344 169.38 49.5344 169.495 46.9894C169.495 46.9794 169.5 46.9744 169.5 46.9694C170.09 40.5244 172.315 39.1444 174.895 37.5444C175.62 37.0944 176.37 36.6294 177.11 36.0344C178 35.3194 178.65 34.2194 178.89 33.0144C179.13 31.8144 178.555 30.3194 177.315 30.0044C176.735 29.8594 176.155 29.9944 175.6 30.1294L175.39 30.1794C174.22 30.4494 173.245 30.4544 172.415 30.1944C171.425 29.8844 170.645 29.1344 170.43 28.2744C170.22 27.4194 170.505 26.4644 171.31 25.3694C172.325 25.9294 173.535 26.1244 174.675 25.8894C175.535 25.7094 176.14 25.2644 176.345 24.6694C176.5 24.2144 176.405 23.7294 176.075 23.3094C175.655 22.7744 174.935 22.4594 174.285 22.5194C173.195 22.6244 172.33 23.4294 171.625 24.2044C171.47 24.3744 171.325 24.5394 171.19 24.7044C171.025 24.5894 170.87 24.4694 170.72 24.3294C169.7 23.3894 169.175 21.9544 169.35 20.5794C169.365 20.4444 169.27 20.3194 169.135 20.2994C169 20.2844 168.875 20.3794 168.855 20.5144C168.66 22.0444 169.245 23.6494 170.385 24.6944C170.545 24.8394 170.71 24.9744 170.885 25.0944C170.005 26.3044 169.7 27.3844 169.945 28.3844C170.205 29.4244 171.09 30.2944 172.265 30.6594C173.18 30.9444 174.24 30.9444 175.5 30.6544L175.715 30.6044C176.235 30.4794 176.73 30.3644 177.19 30.4794C178.14 30.7194 178.59 31.9494 178.4 32.9044C178.18 33.9944 177.595 34.9894 176.795 35.6344C176.075 36.2094 175.34 36.6694 174.63 37.1094C172.415 38.4844 170.3 39.7994 169.365 44.3894C168.95 41.6294 167.695 39.3394 166.22 37.3644C166.69 37.0894 168.375 35.9794 168.615 33.9494C168.955 31.0294 167.18 28.9794 166.09 28.0144C164.245 26.3794 160.145 25.4844 158.555 25.3244C157.8 25.2494 150.88 24.0144 149.965 23.6944C149.86 23.6594 149.74 23.6944 149.675 23.7894C149.61 23.8844 149.62 24.0094 149.695 24.0944C150.185 24.6544 151.265 28.4894 151.395 30.4544C151.65 34.2844 152.005 36.2694 153.52 38.6444C154.99 40.9494 158.035 43.4944 161.04 43.4944C161.91 43.4944 162.775 43.2794 163.6 42.7844C165.065 41.9044 165.795 39.3444 166.08 38.0294C168.975 42.0894 170.77 47.4944 166.23 55.5294C165.9 56.1144 165.6 56.6994 165.315 57.2844C165.35 55.8394 164.96 54.6044 164.16 53.6044C163.94 53.3294 163.7 53.0894 163.445 52.8744C163.775 52.4044 164.545 51.1044 164.14 49.7544C163.515 47.6594 161.565 46.9794 160.46 46.7644C158.605 46.3994 155.3 47.3894 154.08 47.8944C153.5 48.1344 148.03 49.9844 147.26 50.1244C147.15 50.1444 147.065 50.2394 147.055 50.3494C147.045 50.4594 147.115 50.5694 147.225 50.6044C147.74 50.7794 149.64 52.8594 150.31 54.0844C151.64 56.5194 152.495 57.6944 154.335 58.6844C155.385 59.2494 156.875 59.6594 158.37 59.6594C160.14 59.6594 161.93 59.0894 163.045 57.5394C163.82 56.4594 163.68 54.6644 163.515 53.6294C163.6 53.7194 163.685 53.8194 163.77 53.9194C164.735 55.1194 165.035 56.7094 164.665 58.6444C164.665 58.6594 164.665 58.6744 164.665 58.6944C163.71 60.8944 163.03 63.0794 162.56 65.1844C160.92 63.5994 159.01 62.3244 157.205 62.1894C155.345 62.0444 153.815 63.0494 152.645 65.1744C152.03 66.2944 151.725 67.5894 151.485 68.9744C150.84 68.3394 149.21 66.9994 147.045 67.0894C143.51 67.2294 141.565 69.6294 140.72 71.0444C139.285 73.4494 139.335 78.2944 139.575 80.1394C139.69 81.0194 140.105 89.1594 139.97 90.2644C139.955 90.3744 140.02 90.4794 140.12 90.5244C140.15 90.5394 140.185 90.5444 140.215 90.5444C140.29 90.5444 140.36 90.5094 140.41 90.4494C140.96 89.7694 145.155 87.8594 147.51 87.3344C151.255 86.5044 153.445 85.8294 155.47 84.3594V90.0844C155.47 90.2244 155.58 90.3344 155.72 90.3344H157.255L160.89 106.429C160.915 106.544 161.015 106.624 161.135 106.624H174.65C174.765 106.624 174.87 106.544 174.895 106.429L178.53 90.3344H180.065C180.205 90.3344 180.315 90.2244 180.315 90.0844V82.6044C180.315 82.4994 180.25 82.4094 180.155 82.3744C180.115 82.3494 180.075 82.3344 180.025 82.3344H169.04C168.945 77.0444 169.065 70.5694 170.745 66.9544C171.07 66.2494 172.855 62.7044 175.835 61.9394C176.315 61.8144 176.81 61.7794 177.31 61.8144C176.58 62.2544 175.65 62.9594 175.425 63.7744C174.735 66.2794 177.425 68.3594 179.46 68.9794C180.185 69.1994 180.825 69.2994 181.51 69.2994C182.36 69.2994 183.28 69.1494 184.515 68.8894C185.715 68.6394 187.99 68.6694 188.345 68.8394C188.45 68.8894 188.57 68.8594 188.645 68.7744C188.72 68.6894 188.725 68.5644 188.66 68.4694C188.335 68.0044 186.54 64.2744 186.375 63.8544C186.015 62.9294 184.86 60.7544 183.605 59.9394C182.865 59.4594 181.38 58.7594 179.73 59.4394C178.615 59.8944 178.22 60.9994 178.115 61.3744C178.1 61.3844 178.075 61.3944 178.055 61.4044C177.265 61.2444 176.485 61.2544 175.72 61.4494C172.6 62.2444 170.78 65.6994 170.3 66.7344C168.74 70.0894 168.49 75.7644 168.53 80.7744C168.465 80.3044 168.395 79.7844 168.325 79.2344C167.985 76.6044 167.565 73.3344 166.69 70.9344C166.655 70.8344 166.61 70.7294 166.565 70.6194C166.565 70.6094 166.565 70.5994 166.565 70.5894C166.955 68.1844 167.355 65.6994 167.82 63.3894C168.1 61.9944 168.57 60.5094 169.165 59.0294C169.595 58.4594 170.855 57.7144 171.98 57.8444C171.6 58.4444 171.465 59.1794 171.645 59.8344C171.76 60.2494 172.06 60.7244 172.56 60.8194C172.62 60.8294 172.68 60.8344 172.74 60.8344C172.94 60.8344 173.145 60.7744 173.335 60.6594C173.91 60.3144 174.185 59.5294 173.975 58.8394C173.815 58.3144 173.41 57.8594 172.87 57.5894C173.41 57.1544 174.17 56.9544 174.925 57.0594C175.705 57.1644 176.435 57.5694 177.14 57.9544L177.405 58.0994C178.27 58.5694 179.205 58.9894 180.19 58.9144C181.215 58.8344 182.295 58.0094 182.265 56.9144C182.265 56.7744 182.15 56.6644 182.01 56.6694C181.87 56.6694 181.765 56.7894 181.765 56.9244C181.785 57.7244 180.93 58.3494 180.15 58.4094C179.29 58.4794 178.44 58.0894 177.645 57.6544L177.38 57.5094C176.635 57.0994 175.86 56.6744 174.99 56.5544C174.045 56.4244 173.095 56.6994 172.44 57.2894C172.405 57.3194 172.37 57.3544 172.335 57.3894C171.365 57.1544 170.335 57.5144 169.595 57.9894C170.365 56.2644 171.305 54.5744 172.365 53.0594C172.97 52.1894 173.71 51.2444 174.58 50.3194C174.505 51.5044 174.56 53.2294 175.35 54.1494C176.265 55.2194 177.515 55.6344 178.83 55.6344C180.85 55.6344 183.025 54.6494 184.41 53.5294C186.23 52.0494 187.025 50.5794 188.23 47.6344C188.845 46.1294 190.68 43.4144 191.21 43.1044C191.31 43.0444 191.355 42.9294 191.325 42.8194H191.31ZM171.995 24.5244C172.67 23.7844 173.42 23.0894 174.335 22.9994C174.815 22.9544 175.37 23.1994 175.685 23.5994C175.815 23.7644 176.01 24.0994 175.875 24.4894C175.665 25.0944 174.895 25.3144 174.575 25.3844C173.58 25.5944 172.52 25.4294 171.625 24.9544C171.74 24.8144 171.865 24.6694 171.995 24.5294V24.5244ZM163.345 42.3494C161.345 43.5494 156.98 43.1144 153.945 38.3644C152.505 36.1094 152.16 34.3194 151.895 30.4094C151.78 28.7044 151.005 25.6594 150.395 24.3144C152.385 24.7844 157.885 25.7494 158.505 25.8094C160.04 25.9644 164.005 26.8244 165.76 28.3744C166.775 29.2744 168.435 31.1844 168.12 33.8744C167.9 35.7594 166.195 36.7894 165.915 36.9444C165 35.7644 164.015 34.6994 163.105 33.7094C162.16 32.6844 161.27 31.7194 160.655 30.8294C160.575 30.7144 160.42 30.6844 160.305 30.7644C160.19 30.8444 160.165 30.9994 160.24 31.1144C160.875 32.0344 161.775 33.0144 162.735 34.0494C163.69 35.0844 164.73 36.2144 165.68 37.4744C165.495 38.4544 164.815 41.4594 163.34 42.3444L163.345 42.3494ZM162.645 57.2394C161.53 58.7894 158.195 60.1794 154.575 58.2394C152.87 57.3244 152.09 56.2894 150.75 53.8394C150.22 52.8694 148.815 51.1944 147.92 50.4644C149.585 49.9844 153.805 48.5444 154.275 48.3494C155.455 47.8594 158.62 46.9044 160.365 47.2494C161.36 47.4444 163.115 48.0494 163.665 49.8944C163.995 51.0094 163.34 52.1394 163.05 52.5594C161.715 51.6094 160.19 51.3294 159.585 51.3094C158.82 51.2844 158.035 51.3794 157.27 51.4744C156.175 51.6044 155.145 51.7344 154.365 51.4894C154.235 51.4494 154.095 51.5194 154.05 51.6544C154.01 51.7844 154.08 51.9244 154.215 51.9694C155.095 52.2444 156.18 52.1144 157.33 51.9744C158.075 51.8844 158.845 51.7894 159.57 51.8144C160.105 51.8294 161.635 52.1144 162.9 53.0744C163.025 53.6194 163.505 56.0394 162.64 57.2394H162.645ZM179.91 59.8894C180.33 59.7144 180.745 59.6494 181.13 59.6494C182.065 59.6494 182.86 60.0494 183.325 60.3494C184.405 61.0494 185.535 63.0894 185.9 64.0244C186.03 64.3494 187.32 67.0594 187.955 68.2444C186.985 68.1394 185.27 68.2044 184.405 68.3844C182.155 68.8544 181.09 68.9394 179.595 68.4844C178 67.9994 175.275 66.1494 175.9 63.8894C176.12 63.0844 177.375 62.2944 178.11 61.9144C178.99 62.1194 179.89 62.5494 180.8 63.2244C180.91 63.3044 181.07 63.2844 181.15 63.1694C181.23 63.0594 181.21 62.8994 181.095 62.8194C180.245 62.1944 179.405 61.7644 178.575 61.5194C178.645 61.2594 178.97 60.2694 179.905 59.8844L179.91 59.8894ZM162.86 66.1844C164.345 67.7744 165.51 69.5394 166.03 70.6744C165.295 75.2344 164.59 79.5344 163.52 82.3094H162.15C162.21 81.5844 162.165 80.5344 162.115 79.2494C161.99 76.1644 161.805 71.4544 162.855 66.1844H162.86ZM153.09 65.4044C154.155 63.4694 155.53 62.5494 157.17 62.6794C158.73 62.7994 160.585 63.8944 162.435 65.7544C161.3 71.2144 161.495 76.0994 161.62 79.2744C161.67 80.5744 161.715 81.6244 161.65 82.3144H157.675C159.135 80.5894 160.41 78.1544 160.505 75.7244C160.575 73.9494 160.01 72.4144 158.825 71.1744C157.18 69.4494 153.17 69.2294 151.95 69.2044C152.19 67.8044 152.48 66.4994 153.085 65.4044H153.09ZM155.635 82.3544C155.54 82.3894 155.475 82.4794 155.475 82.5844V83.7144C153.485 85.2594 151.425 85.9344 147.405 86.8294C145.415 87.2694 141.86 88.7944 140.495 89.7244C140.53 87.4794 140.17 80.7944 140.07 80.0594C139.835 78.2694 139.78 73.5794 141.15 71.2894C141.945 69.9594 143.765 67.7094 147.065 67.5794C149.43 67.4844 151.155 69.3294 151.38 69.5844C151.345 69.7944 151.315 70.0044 151.28 70.2144C150.755 73.5494 150.155 77.3244 146.445 80.9794C146.345 81.0744 146.345 81.2344 146.445 81.3344C146.54 81.4344 146.7 81.4344 146.8 81.3344C150.63 77.5694 151.24 73.7044 151.78 70.2944C151.81 70.0944 151.84 69.8994 151.875 69.7044C152.945 69.7244 156.945 69.9194 158.47 71.5194C159.555 72.6594 160.075 74.0694 160.015 75.7044C159.92 78.1744 158.535 80.6594 157.02 82.3144H155.77C155.725 82.3144 155.68 82.3294 155.64 82.3544H155.635ZM179.815 82.8344V89.8144H165.405C165.265 89.8144 165.155 89.9244 165.155 90.0644C165.155 90.2044 165.265 90.3144 165.405 90.3144H178.02L174.455 106.104H161.34L157.775 90.3144H160.03C160.17 90.3144 160.28 90.2044 160.28 90.0644C160.28 89.9244 160.17 89.8144 160.03 89.8144H155.98V82.8344H179.82H179.815ZM167.82 79.2844C167.975 80.5044 168.115 81.5744 168.27 82.3144H164.06C165.04 79.6694 165.71 75.7994 166.385 71.6344C167.12 73.9194 167.505 76.8744 167.82 79.2844ZM172.495 57.9594C172.99 58.1594 173.36 58.5344 173.495 58.9744C173.64 59.4444 173.455 59.9944 173.075 60.2244C172.935 60.3094 172.78 60.3444 172.655 60.3194C172.38 60.2694 172.2 59.9494 172.13 59.6944C171.975 59.1194 172.12 58.4694 172.5 57.9644L172.495 57.9594ZM187.755 47.4444C186.53 50.4394 185.79 51.7544 184.08 53.1394C182.24 54.6344 177.9 56.3644 175.72 53.8194C174.91 52.8694 175.015 50.7794 175.125 49.7494C176.915 47.9794 179.195 46.3644 181.96 45.6444C182.095 45.6094 182.175 45.4744 182.14 45.3394C182.105 45.2044 181.97 45.1244 181.835 45.1594C179.3 45.8194 177.075 47.2144 175.175 48.9944C175.165 48.9744 175.155 48.9494 175.14 48.9344C175.125 48.9194 173.855 47.5994 174.195 45.9594C174.645 43.7794 176.43 42.7244 177.455 42.2844C178.245 41.9444 179.345 41.8294 180.435 41.8294C181.785 41.8294 183.11 42.0094 183.795 42.1644C184.29 42.2744 188.72 42.9344 190.475 43.0994C189.61 44.0644 188.245 46.2494 187.76 47.4444H187.755Z" fill="#07064E"></path>
</g>
<g id="Group_2">
<path id="Vector_21" d="M133.265 19.8848H66.8201C64.3403 19.8848 62.3301 21.895 62.3301 24.3748V71.2248C62.3301 73.7045 64.3403 75.7148 66.8201 75.7148H133.265C135.745 75.7148 137.755 73.7045 137.755 71.2248V24.3748C137.755 21.895 135.745 19.8848 133.265 19.8848Z" fill="#DDDDDD"></path>
<path id="Vector_22" d="M133.265 17.7598H66.8201C64.3403 17.7598 62.3301 19.77 62.3301 22.2498V69.0998C62.3301 71.5795 64.3403 73.5898 66.8201 73.5898H133.265C135.745 73.5898 137.755 71.5795 137.755 69.0998V22.2498C137.755 19.77 135.745 17.7598 133.265 17.7598Z" fill="white"></path>
<path id="Vector_23" d="M65.9651 17.7598H134.125C136.13 17.7598 137.76 19.3898 137.76 21.3948V24.1398H62.3301V21.3948C62.3301 19.3898 63.9601 17.7598 65.9651 17.7598Z" fill="#07064E"></path>
<path id="Vector_24" d="M128.985 22.5096C129.847 22.5096 130.545 21.8112 130.545 20.9496C130.545 20.0881 129.847 19.3896 128.985 19.3896C128.124 19.3896 127.425 20.0881 127.425 20.9496C127.425 21.8112 128.124 22.5096 128.985 22.5096Z" fill="white"></path>
<path id="Vector_25" d="M133.505 22.5096C134.367 22.5096 135.065 21.8112 135.065 20.9496C135.065 20.0881 134.367 19.3896 133.505 19.3896C132.644 19.3896 131.945 20.0881 131.945 20.9496C131.945 21.8112 132.644 22.5096 133.505 22.5096Z" fill="#2BF5BA"></path>
</g>
<path id="Vector_26" d="M124.25 64.3447H104.11C102.357 64.3447 100.935 65.7651 100.935 67.5172C100.935 69.2694 102.357 70.6897 104.11 70.6897H124.25C126.004 70.6897 127.425 69.2694 127.425 67.5172C127.425 65.7651 126.004 64.3447 124.25 64.3447Z" fill="#2BF5BA"></path>
<g id="Vector_27">
<path d="M127.425 56.6643H72.665C72.525 56.6643 72.415 56.5543 72.415 56.4143C72.415 56.2743 72.525 56.1643 72.665 56.1643H127.425C127.565 56.1643 127.675 56.2743 127.675 56.4143C127.675 56.5543 127.565 56.6643 127.425 56.6643Z" fill="#07064E"></path>
<path d="M127.425 34.3594H72.665C72.525 34.3594 72.415 34.2494 72.415 34.1094C72.415 33.9694 72.525 33.8594 72.665 33.8594H127.425C127.565 33.8594 127.675 33.9694 127.675 34.1094C127.675 34.2494 127.565 34.3594 127.425 34.3594Z" fill="#07064E"></path>
<path d="M127.425 45.5142H72.665C72.525 45.5142 72.415 45.4042 72.415 45.2642C72.415 45.1242 72.525 45.0142 72.665 45.0142H127.425C127.565 45.0142 127.675 45.1242 127.675 45.2642C127.675 45.4042 127.565 45.5142 127.425 45.5142Z" fill="#07064E"></path>
</g>
<g id="Vector_28">
<path d="M103.46 49.9495H74.0004C73.1167 49.9495 72.4004 50.6658 72.4004 51.5495V52.8495C72.4004 53.7331 73.1167 54.4495 74.0004 54.4495H103.46C104.344 54.4495 105.06 53.7331 105.06 52.8495V51.5495C105.06 50.6658 104.344 49.9495 103.46 49.9495Z" fill="#EDEDED"></path>
<path d="M103.46 38.7996H74.0004C73.1167 38.7996 72.4004 39.5159 72.4004 40.3996V41.6996C72.4004 42.5832 73.1167 43.2996 74.0004 43.2996H103.46C104.344 43.2996 105.06 42.5832 105.06 41.6996V40.3996C105.06 39.5159 104.344 38.7996 103.46 38.7996Z" fill="#EDEDED"></path>
<path d="M103.46 27.6494H74.0004C73.1167 27.6494 72.4004 28.3658 72.4004 29.2494V30.5494C72.4004 31.4331 73.1167 32.1494 74.0004 32.1494H103.46C104.344 32.1494 105.06 31.4331 105.06 30.5494V29.2494C105.06 28.3658 104.344 27.6494 103.46 27.6494Z" fill="#EDEDED"></path>
</g>
<path id="Vector_29" d="M121.505 70.3898C121.115 69.8398 120.25 69.7848 119.58 70.2648C118.915 70.7348 118.69 71.5498 119.055 72.0998C118.655 71.5748 117.81 71.5248 117.15 71.9948C116.485 72.4648 116.26 73.2798 116.625 73.8298C116.225 73.3048 115.38 73.2548 114.72 73.7248C114.06 74.1948 113.84 74.9848 114.18 75.5349L110.03 69.7048C109.55 69.0298 108.62 68.8748 107.945 69.3548C107.27 69.8348 107.115 70.7648 107.595 71.4398L115.26 82.2098L111.775 81.6248C110.96 81.4898 110.19 82.0348 110.05 82.8498C109.915 83.6648 110.46 84.4348 111.275 84.5748L118.87 85.8548C119.065 85.9048 119.26 85.9348 119.46 85.9548H119.5C119.635 85.9848 119.765 85.9798 119.895 85.9698C120.605 85.9498 121.32 85.7248 121.945 85.2798L125.625 82.6599C127.035 81.6549 127.585 79.7799 126.995 78.2298C126.94 78.0799 126.87 77.9448 126.765 77.7948L121.5 70.3998L121.505 70.3898Z" fill="white"></path>
<g id="Group_3">
<path id="Vector_30" d="M107.7 71.5845C107.24 72.0945 107.18 72.8695 107.595 73.4495L113.63 81.9295L115.26 82.2045L107.7 71.5845Z" fill="#EDEDED"></path>
<path id="Vector_31" d="M119.715 86.2145C119.625 86.2145 119.545 86.2095 119.46 86.1945C119.23 86.1695 119.015 86.1345 118.81 86.0845L111.23 84.8095C110.28 84.6495 109.64 83.7495 109.8 82.7995C109.875 82.3395 110.13 81.9395 110.51 81.6695C110.89 81.3995 111.35 81.2945 111.81 81.3695L114.7 81.8545L107.385 71.5795C107.115 71.1995 107.01 70.7395 107.085 70.2795C107.165 69.8195 107.415 69.4195 107.795 69.1495C108.58 68.5895 109.67 68.7745 110.23 69.5595L113.815 74.5945C113.915 74.1895 114.175 73.7995 114.57 73.5195C115.09 73.1495 115.7 73.0595 116.195 73.2295C116.195 72.7045 116.485 72.1595 117 71.7895C117.515 71.4195 118.13 71.3295 118.625 71.4995C118.625 70.9745 118.915 70.4295 119.43 70.0595C120.215 69.4995 121.235 69.5845 121.705 70.2445L126.97 77.6395C127.085 77.7995 127.165 77.9545 127.23 78.1345C127.865 79.8095 127.25 81.7945 125.77 82.8545L122.09 85.4745C121.445 85.9345 120.69 86.1845 119.9 86.2095C119.835 86.2145 119.77 86.2195 119.71 86.2195L119.715 86.2145ZM111.52 81.8445C111.265 81.8445 111.015 81.9245 110.8 82.0745C110.53 82.2695 110.35 82.5545 110.295 82.8845C110.18 83.5595 110.64 84.2045 111.315 84.3195L118.91 85.5995C119.11 85.6495 119.295 85.6795 119.48 85.6945C119.485 85.6945 119.535 85.7045 119.54 85.7045C119.635 85.7195 119.74 85.7245 119.87 85.7095C120.575 85.6895 121.24 85.4645 121.8 85.0645L125.48 82.4445C126.78 81.5195 127.32 79.7795 126.765 78.3095C126.715 78.1695 126.655 78.0545 126.565 77.9295L121.3 70.5345C120.99 70.0995 120.28 70.0695 119.725 70.4645C119.18 70.8545 118.975 71.5195 119.265 71.9545C119.34 72.0645 119.31 72.2195 119.2 72.2995C119.09 72.3795 118.935 72.3545 118.855 72.2445C118.54 71.8295 117.84 71.8045 117.295 72.1895C116.75 72.5795 116.545 73.2445 116.835 73.6795C116.91 73.7895 116.88 73.9445 116.77 74.0245C116.66 74.1045 116.505 74.0795 116.425 73.9695C116.11 73.5545 115.41 73.5295 114.865 73.9195C114.325 74.3045 114.115 74.9495 114.395 75.3945C114.465 75.5095 114.435 75.6595 114.32 75.7345C114.205 75.8095 114.055 75.7795 113.975 75.6695L109.825 69.8395C109.425 69.2795 108.65 69.1495 108.09 69.5495C107.82 69.7445 107.64 70.0295 107.585 70.3595C107.53 70.6895 107.605 71.0195 107.8 71.2895L115.465 82.0595C115.525 82.1395 115.525 82.2495 115.475 82.3395C115.42 82.4245 115.325 82.4695 115.22 82.4545L111.735 81.8695C111.665 81.8595 111.595 81.8495 111.525 81.8495L111.52 81.8445Z" fill="#07064E"></path>
</g>
<g id="Group_4">
<g id="Vector_32">
<path d="M51.4149 113.45L51.3799 115.255L70.9999 115.235C71.2449 115.235 71.5649 114.915 71.5649 114.67L71.5549 113.83C64.7549 112.665 58.5249 114.145 51.4049 113.45H51.4149Z" fill="#2DEBC8"></path>
<path d="M46.7049 110.37L46.6899 111.58L71.3599 111.56C71.6699 111.56 72.0749 111.24 72.0749 110.995L72.0499 110.355C63.4999 109.19 55.2449 110.82 46.7049 110.37Z" fill="#2DEBC8"></path>
<path d="M45.0849 106.96L45.0699 108.17L69.7399 108.15C70.0499 108.15 70.4549 107.83 70.4549 107.585L70.4299 106.945C61.8799 105.78 53.6249 107.41 45.0849 106.96Z" fill="#2DEBC8"></path>
<path d="M43.9198 108.31L33.0898 108.215L33.1098 104.645L43.9398 104.74L43.9198 108.31Z" fill="#2DEBC8"></path>
<path d="M45.7048 111.83L34.8748 111.74L34.8898 108.17L45.7198 108.26L45.7048 111.83Z" fill="#2DEBC8"></path>
</g>
<path id="Vector_33" d="M50.3932 111.774L31.5034 111.682L31.486 115.252L50.3757 115.344L50.3932 111.774Z" fill="#2DEBC8"></path>
<path id="Vector_34" d="M75.11 115.939C75.11 116.529 65.87 117.004 52.82 117.004C39.77 117.004 28.165 116.544 28.165 115.954C28.165 115.364 39.59 115.234 52.645 115.234C65.7 115.234 75.115 115.349 75.115 115.939H75.11Z" fill="#2AEDB4"></path>
<g id="Vector_35">
<path d="M58.6998 103.215H46.2698C45.9026 103.215 45.6048 103.512 45.6048 103.88C45.6048 104.247 45.9026 104.545 46.2698 104.545H58.6998C59.0671 104.545 59.3648 104.247 59.3648 103.88C59.3648 103.512 59.0671 103.215 58.6998 103.215Z" fill="#2BF5BA"></path>
<path d="M60.0098 86.0347L56.9498 103.215H48.0248L44.9648 86.0347H60.0098Z" fill="#2BF5BA"></path>
</g>
<path id="Vector_36" d="M44.985 76.5245C44.785 77.1695 45.12 77.8545 45.595 78.3895C47.06 80.0295 49.235 80.0695 50.4 81.6195C51.14 82.5995 51.125 84.1895 50.4 85.2295C50.205 85.5045 50 85.7745 49.785 86.0395H54.98C55.135 85.9245 55.29 85.8045 55.44 85.6845C56.635 84.7145 56.8 83.5495 56.71 82.1445C56.55 79.5795 53.715 77.3045 54.82 74.9145C55.74 72.9245 55.54 72.3045 57.195 70.6995C58.665 69.2745 58.28 66.9445 56.875 65.4695C55.47 63.9945 53.32 63.2095 51.2 62.6295C49.405 62.1345 47.46 61.7445 45.65 62.2045C43.84 62.6595 42.305 64.2545 42.76 65.8145C43.115 67.0245 44.45 67.7895 45.535 68.6195C46.62 69.4495 47.72 71.2795 47.08 72.3995C46.155 74.0145 45.52 74.7945 44.985 76.5345V76.5245Z" fill="#AAFBE3"></path>
<g id="Vector_37">
<path d="M71.5549 107.965H70.5899C70.6549 107.835 70.6999 107.695 70.6999 107.54V105.37C70.6999 104.86 70.2849 104.445 69.7749 104.445H31.8499C31.7099 104.445 31.5999 104.555 31.5999 104.695C31.5999 104.835 31.7099 104.945 31.8499 104.945H43.6899V105.575H33.2799C33.1399 105.575 33.0299 105.685 33.0299 105.825C33.0299 105.965 33.1399 106.075 33.2799 106.075H43.6899V106.625H33.2799C33.1399 106.625 33.0299 106.735 33.0299 106.875C33.0299 107.015 33.1399 107.125 33.2799 107.125H43.6899V107.965H31.8549C31.7149 107.965 31.6049 108.075 31.6049 108.215C31.6049 108.355 31.7149 108.465 31.8549 108.465H45.4799V109.095H35.0699C34.9299 109.095 34.8199 109.205 34.8199 109.345C34.8199 109.485 34.9299 109.595 35.0699 109.595H45.4799V110.175H35.0699C34.9299 110.175 34.8199 110.285 34.8199 110.425C34.8199 110.565 34.9299 110.675 35.0699 110.675H45.4799V111.485H30.2549C30.1149 111.485 30.0049 111.595 30.0049 111.735C30.0049 111.875 30.1149 111.985 30.2549 111.985H33.6099C33.6099 111.985 33.6299 111.99 33.6399 111.99H50.1549V112.615H31.6849C31.5449 112.615 31.4349 112.725 31.4349 112.865C31.4349 113.005 31.5449 113.115 31.6849 113.115H50.1549V113.695H31.6849C31.5449 113.695 31.4349 113.805 31.4349 113.945C31.4349 114.085 31.5449 114.195 31.6849 114.195H50.1549V115.01H30.2549C30.1149 115.01 30.0049 115.12 30.0049 115.26C30.0049 115.4 30.1149 115.51 30.2549 115.51H70.8699C71.3799 115.51 71.7949 115.095 71.7949 114.585V112.415C71.7949 112.26 71.7499 112.11 71.6849 111.98C72.1399 111.92 72.4949 111.535 72.4949 111.065V108.895C72.4949 108.385 72.0799 107.97 71.5699 107.97L71.5549 107.965ZM69.7749 104.945C70.0099 104.945 70.1999 105.135 70.1999 105.37V107.54C70.1999 107.775 70.0099 107.965 69.7799 107.965H45.1799V104.945H69.7749ZM45.9699 108.465H46.4599V111.48H45.9699V108.465ZM44.1899 104.945H44.6799V107.965H44.1899V104.945ZM51.1349 115.005H50.6449V111.99H51.1349V115.005ZM71.9849 111.06C71.9849 111.295 71.7949 111.485 71.5599 111.485H70.9199C70.9199 111.485 70.8799 111.48 70.8599 111.48H65.6249C65.4849 111.48 65.3749 111.59 65.3749 111.73C65.3749 111.87 65.4849 111.98 65.6249 111.98H70.8899C71.1099 112 71.2849 112.18 71.2849 112.405V114.575C71.2849 114.81 71.0949 115 70.8599 115H51.6349V111.985H60.2499C60.3899 111.98 60.4999 111.865 60.4999 111.73C60.4999 111.595 60.3899 111.48 60.2499 111.48H46.9599V108.465H71.5549C71.7899 108.465 71.9799 108.655 71.9799 108.89V111.06H71.9849Z" fill="#07064E"></path>
<path d="M61.9299 95.6397C61.5899 95.1547 61.0799 94.8297 60.4949 94.7247C59.7899 94.5997 59.1049 94.8297 58.6149 95.2797L60.2549 86.0797C60.2699 86.0047 60.2499 85.9297 60.1999 85.8747C60.1549 85.8197 60.0799 85.7847 60.0099 85.7847H44.9699C44.8949 85.7847 44.8249 85.8197 44.7799 85.8747C44.7349 85.9297 44.7099 86.0047 44.7249 86.0797L47.7349 102.965H46.2799C45.7749 102.965 45.3649 103.375 45.3649 103.88C45.3649 104.385 45.7749 104.795 46.2799 104.795H58.7099C59.2149 104.795 59.6249 104.385 59.6249 103.88C59.6249 103.375 59.2149 102.965 58.7099 102.965H57.2549L57.9049 99.3197L59.1149 99.5347C59.2799 99.5647 59.4399 99.5797 59.5999 99.5797C60.1599 99.5797 60.7049 99.4097 61.1699 99.0847C61.7749 98.6647 62.1749 98.0347 62.3049 97.3097C62.4099 96.7247 62.2799 96.1347 61.9399 95.6497L61.9299 95.6397ZM45.2649 86.2847H59.7099L59.5649 87.1047H45.4149L45.2699 86.2847H45.2649ZM59.1149 103.88C59.1149 104.11 58.9299 104.295 58.6999 104.295H46.2699C46.0399 104.295 45.8549 104.11 45.8549 103.88C45.8549 103.65 46.0399 103.465 46.2699 103.465H58.6999C58.9299 103.465 59.1149 103.65 59.1149 103.88ZM48.2349 102.965L48.1299 102.365H56.8449L56.7399 102.965H48.2349ZM56.9349 101.865H48.0399L45.4999 87.6047H59.4749L56.9349 101.865ZM61.8049 97.2147C61.6999 97.8097 61.3699 98.3247 60.8749 98.6697C60.3799 99.0147 59.7849 99.1447 59.1899 99.0397L58.0149 98.8297L58.4099 96.6097C58.5749 95.6747 59.4699 95.0447 60.4099 95.2147C60.8649 95.2947 61.2599 95.5497 61.5199 95.9247C61.7799 96.2997 61.8849 96.7597 61.8049 97.2147Z" fill="#07064E"></path>
</g>
</g>
</g>
</g>
</g>
</g>
<defs>
<clipPath id="clip0_86_1280">
<rect width="200" height="140" fill="white"></rect>
</clipPath>
</defs>
</svg>