<svg width="200" height="140" viewBox="0 0 200 140" fill="none" xmlns="http://www.w3.org/2000/svg">
<g id="illu_bg_results-preview-unavailable-v1/Default" clip-path="url(#clip0_86_920)">
<g id="illu_bg_results-preview-unavailable-v1">
<g id="background">
<path d="M174.945 8.63005C212.575 21.9951 188.635 108.655 163.62 121.56C146.06 130.62 98.6653 109.375 59.3403 117.31C28.6903 123.495 22.1353 125.365 27.2453 102.785C33.0253 77.2551 6.84531 65.8001 6.14531 39.2101C5.71031 22.6801 14.0603 0.205054 47.3153 10.1751C119.34 31.7601 143.21 -2.63995 174.945 8.63505V8.63005Z" fill="#2BF5BA"></path>
<path d="M18.2975 130.152C21.3387 127.935 22.642 124.543 21.2086 122.578C19.7752 120.612 16.1478 120.816 13.1067 123.034C10.0656 125.252 8.76226 128.643 10.1957 130.608C11.6291 132.574 15.2564 132.37 18.2975 130.152Z" fill="#2BF5BA"></path>
<path d="M189.973 104.07C191.738 103.16 192.696 101.507 192.113 100.378C191.531 99.249 189.629 99.0718 187.864 99.9822C186.1 100.892 185.141 102.546 185.724 103.674C186.306 104.803 188.209 104.98 189.973 104.07Z" fill="#2BF5BA"></path>
<path d="M27.5453 131.26C28.8156 131.26 29.8453 130.23 29.8453 128.96C29.8453 127.69 28.8156 126.66 27.5453 126.66C26.2751 126.66 25.2453 127.69 25.2453 128.96C25.2453 130.23 26.2751 131.26 27.5453 131.26Z" fill="#2BF5BA"></path>
<path d="M114.743 9.6603C115.299 8.58306 114.853 7.24674 113.746 6.67553C112.64 6.10433 111.292 6.51455 110.736 7.59179C110.18 8.66903 110.626 10.0054 111.733 10.5766C112.839 11.1478 114.187 10.7375 114.743 9.6603Z" fill="#2BF5BA"></path>
<path d="M105.879 13.1636C106.155 12.6287 105.934 11.965 105.384 11.6813C104.834 11.3976 104.165 11.6013 103.889 12.1362C103.613 12.6712 103.834 13.3348 104.384 13.6185C104.934 13.9022 105.603 13.6985 105.879 13.1636Z" fill="#2BF5BA"></path>
</g>
<g id="illu_bg_results-preview-unavailable-v1_2">
<g id="stroke">
<path id="Vector" d="M62.7453 24.6147H136.945C140 24.6147 142.475 27.0947 142.475 30.1447V70.5847H57.2153V30.1447C57.2153 27.0897 59.6953 24.6147 62.7453 24.6147Z" fill="#EDEDED"></path>
<path id="Vector_2" d="M21.1851 94.7446C21.0601 94.7446 20.9551 94.6396 20.9551 94.5146C20.9551 94.3896 21.0551 94.2846 21.1851 94.2846L184.72 94.0996C184.845 94.0996 184.95 94.2046 184.95 94.3296C184.95 94.4546 184.85 94.5596 184.72 94.5596L21.1851 94.7446Z" fill="#07064E"></path>
<path id="Vector_3" d="M19.2203 94.7447H16.2403C16.1153 94.7447 16.0103 94.6397 16.0103 94.5147C16.0103 94.3897 16.1153 94.2847 16.2403 94.2847H19.2203C19.3453 94.2847 19.4503 94.3897 19.4503 94.5147C19.4503 94.6397 19.3453 94.7447 19.2203 94.7447Z" fill="#2BF5BA"></path>
<path id="Vector_4" d="M119.605 96.5444C119.285 97.9294 118.035 98.9744 116.555 98.9744H83.145C81.665 98.9744 80.42 97.9344 80.095 96.5444C59.6 99.5144 81.775 102.474 99.85 102.344C117.93 102.474 140.085 99.5194 119.605 96.5444Z" fill="#2AEDB4"></path>
<g id="Vector_5">
<path d="M57.2651 70.4897V73.4747C57.2651 76.4997 59.7401 78.9747 62.7651 78.9747H92.6401V92.6247H107.05V78.9747H136.57C139.595 78.9747 142.07 76.4997 142.07 73.4747V70.4897H57.2651Z" fill="white"></path>
<path d="M116.55 92.6397H83.1401C81.4151 92.6397 80.0101 94.0497 80.0101 95.7697C80.0101 97.4897 81.4201 98.8997 83.1401 98.8997H116.55C118.275 98.8997 119.68 97.4897 119.68 95.7697C119.68 94.0497 118.27 92.6397 116.55 92.6397Z" fill="white"></path>
</g>
<path id="Vector_6" d="M46.7352 21.6348C46.4502 22.5098 46.1052 23.3698 45.6852 24.2098C40.8752 38.3298 31.7502 47.7798 20.1802 54.9598H46.7352V21.6348Z" fill="#00EBA6"></path>
<path id="Vector_7" d="M90.655 34.6846H64.785C63.0508 34.6846 61.645 36.0904 61.645 37.8246V61.9846C61.645 63.7187 63.0508 65.1246 64.785 65.1246H90.655C92.3892 65.1246 93.795 63.7187 93.795 61.9846V37.8246C93.795 36.0904 92.3892 34.6846 90.655 34.6846Z" fill="#DDDDDD"></path>
<path id="Vector_8" d="M90.655 32.7349H64.785C63.0508 32.7349 61.645 34.1407 61.645 35.8749V60.0349C61.645 61.769 63.0508 63.1749 64.785 63.1749H90.655C92.3892 63.1749 93.795 61.769 93.795 60.0349V35.8749C93.795 34.1407 92.3892 32.7349 90.655 32.7349Z" fill="white"></path>
<path id="Vector_9" d="M64.9751 32.7349H90.4601C92.3001 32.7349 93.7901 34.2299 93.7901 36.0649V37.2999H61.6401V36.0649C61.6401 34.2249 63.1351 32.7349 64.9701 32.7349H64.9751Z" fill="#07064E"></path>
<path id="Vector_10" d="M87.0549 35.8994C87.6707 35.8994 88.1699 35.4002 88.1699 34.7844C88.1699 34.1686 87.6707 33.6694 87.0549 33.6694C86.4391 33.6694 85.9399 34.1686 85.9399 34.7844C85.9399 35.4002 86.4391 35.8994 87.0549 35.8994Z" fill="white"></path>
<path id="Vector_11" d="M136.125 34.6846H110.255C108.521 34.6846 107.115 36.0904 107.115 37.8246V61.9846C107.115 63.7187 108.521 65.1246 110.255 65.1246H136.125C137.859 65.1246 139.265 63.7187 139.265 61.9846V37.8246C139.265 36.0904 137.859 34.6846 136.125 34.6846Z" fill="#DDDDDD"></path>
<path id="Vector_12" d="M136.125 32.7349H110.255C108.521 32.7349 107.115 34.1407 107.115 35.8749V60.0349C107.115 61.769 108.521 63.1749 110.255 63.1749H136.125C137.859 63.1749 139.265 61.769 139.265 60.0349V35.8749C139.265 34.1407 137.859 32.7349 136.125 32.7349Z" fill="white"></path>
<path id="Vector_13" d="M110.445 32.7349H135.93C137.77 32.7349 139.26 34.2299 139.26 36.0649V37.2999H107.11V36.0649C107.11 34.2249 108.605 32.7349 110.44 32.7349H110.445Z" fill="#07064E"></path>
<path id="Vector_14" d="M132.525 35.8994C133.141 35.8994 133.64 35.4002 133.64 34.7844C133.64 34.1686 133.141 33.6694 132.525 33.6694C131.909 33.6694 131.41 34.1686 131.41 34.7844C131.41 35.4002 131.909 35.8994 132.525 35.8994Z" fill="white"></path>
<path id="Vector_15" d="M90.2903 35.8994C90.9061 35.8994 91.4053 35.4002 91.4053 34.7844C91.4053 34.1686 90.9061 33.6694 90.2903 33.6694C89.6745 33.6694 89.1753 34.1686 89.1753 34.7844C89.1753 35.4002 89.6745 35.8994 90.2903 35.8994Z" fill="#2BF5BA"></path>
<g id="Vector_16">
<path d="M44.0403 51.8798H19.8753C19.7503 51.8798 19.6453 51.7748 19.6453 51.6498V21.3948C19.6453 21.2698 19.7503 21.1648 19.8753 21.1648H44.0403C44.1653 21.1648 44.2703 21.2698 44.2703 21.3948V51.6498C44.2703 51.7748 44.1653 51.8798 44.0403 51.8798ZM20.1053 51.4198H43.8103V21.6248H20.1053V51.4198Z" fill="#07064E"></path>
<path d="M27.2453 38.1949C24.4253 38.1949 22.1253 35.8999 22.1253 33.0749C22.1253 30.2499 24.4203 27.9549 27.2453 27.9549C30.0703 27.9549 32.3653 30.2499 32.3653 33.0749C32.3653 35.8999 30.0703 38.1949 27.2453 38.1949ZM27.2453 28.4199C24.6753 28.4199 22.5853 30.5099 22.5853 33.0799C22.5853 35.6499 24.6753 37.7399 27.2453 37.7399C29.8153 37.7399 31.9053 35.6499 31.9053 33.0799C31.9053 30.5099 29.8153 28.4199 27.2453 28.4199Z" fill="#07064E"></path>
<path d="M37.8303 48.5497C36.0753 48.5497 34.6453 47.1197 34.6453 45.3647C34.6453 43.6097 36.0753 42.1797 37.8303 42.1797C39.5853 42.1797 41.0153 43.6097 41.0153 45.3647C41.0153 47.1197 39.5853 48.5497 37.8303 48.5497ZM37.8303 42.6397C36.3253 42.6397 35.1053 43.8647 35.1053 45.3647C35.1053 46.8647 36.3303 48.0897 37.8303 48.0897C39.3303 48.0897 40.5553 46.8647 40.5553 45.3647C40.5553 43.8647 39.3303 42.6397 37.8303 42.6397Z" fill="#07064E"></path>
<path d="M36.2752 37.9C36.1502 37.9 36.0452 37.795 36.0452 37.67V26.605C36.0452 26.48 36.1502 26.375 36.2752 26.375C36.4002 26.375 36.5052 26.48 36.5052 26.605V37.67C36.5052 37.795 36.4002 37.9 36.2752 37.9Z" fill="#07064E"></path>
<path d="M38.8753 40.5001C38.7503 40.5001 38.6453 40.3951 38.6453 40.2701V29.2051C38.6453 29.0801 38.7503 28.9751 38.8753 28.9751C39.0003 28.9751 39.1053 29.0801 39.1053 29.2051V40.2701C39.1053 40.3951 39.0003 40.5001 38.8753 40.5001Z" fill="#07064E"></path>
<path d="M46.6701 55.17H17.2451C17.1201 55.17 17.0151 55.065 17.0151 54.94V18.105C17.0151 17.98 17.1201 17.875 17.2451 17.875H23.7251C25.0251 16.315 28.3101 15.27 31.9601 15.27C35.6101 15.27 38.8901 16.31 40.1901 17.875H46.6701C46.7951 17.875 46.9001 17.98 46.9001 18.105V54.945C46.9001 55.07 46.7951 55.175 46.6701 55.175V55.17ZM17.4751 54.715H46.4401V18.335H40.0801C40.0101 18.335 39.9401 18.3 39.9001 18.245C38.7351 16.74 35.5451 15.73 31.9601 15.73C28.3751 15.73 25.1851 16.74 24.0201 18.245C23.9751 18.3 23.9101 18.335 23.8401 18.335H17.4801V54.715H17.4751Z" fill="#07064E"></path>
</g>
<g id="Vector_17">
<path d="M72.215 54.0049H70.78C70.5342 54.0049 70.335 54.2041 70.335 54.4499V57.8049C70.335 58.0507 70.5342 58.2499 70.78 58.2499H72.215C72.4607 58.2499 72.66 58.0507 72.66 57.8049V54.4499C72.66 54.2041 72.4607 54.0049 72.215 54.0049Z" fill="#AAFBE3"></path>
<path d="M76.3251 45.7351H74.8901C74.6443 45.7351 74.4451 45.9343 74.4451 46.1801V57.8101C74.4451 58.0559 74.6443 58.2551 74.8901 58.2551H76.3251C76.5708 58.2551 76.7701 58.0559 76.7701 57.8101V46.1801C76.7701 45.9343 76.5708 45.7351 76.3251 45.7351Z" fill="#AAFBE3"></path>
<path d="M80.4349 51.3701H78.9999C78.7542 51.3701 78.5549 51.5694 78.5549 51.8151V57.8101C78.5549 58.0559 78.7542 58.2551 78.9999 58.2551H80.4349C80.6807 58.2551 80.8799 58.0559 80.8799 57.8101V51.8151C80.8799 51.5694 80.6807 51.3701 80.4349 51.3701Z" fill="#AAFBE3"></path>
<path d="M84.545 48.835H83.11C82.8643 48.835 82.665 49.0342 82.665 49.28V57.805C82.665 58.0507 82.8643 58.25 83.11 58.25H84.545C84.7908 58.25 84.99 58.0507 84.99 57.805V49.28C84.99 49.0342 84.7908 48.835 84.545 48.835Z" fill="#AAFBE3"></path>
<path d="M88.465 44.165H87.03C86.7842 44.165 86.585 44.3643 86.585 44.61V57.805C86.585 58.0508 86.7842 58.25 87.03 58.25H88.465C88.7107 58.25 88.91 58.0508 88.91 57.805V44.61C88.91 44.3643 88.7107 44.165 88.465 44.165Z" fill="#AAFBE3"></path>
</g>
<path id="Vector_18" d="M69.5652 41.4147L68.4952 39.5347C68.4952 39.5347 68.4852 39.5297 68.4852 39.5247C68.4402 39.4547 68.3652 39.4097 68.2802 39.4097C68.1952 39.4097 68.1201 39.4547 68.0751 39.5247C68.0751 39.5297 68.0652 39.5297 68.0602 39.5347L66.9902 41.4147C66.9202 41.5347 66.9652 41.6897 67.0852 41.7547C67.1252 41.7747 67.1652 41.7897 67.2102 41.7897C67.2952 41.7897 67.3802 41.7447 67.4252 41.6647L68.0302 40.6047V45.2697H66.5352C66.3952 45.2697 66.2852 45.3797 66.2852 45.5197C66.2852 45.6597 66.3952 45.7697 66.5352 45.7697H68.0302V47.3547H66.5352C66.3952 47.3547 66.2852 47.4647 66.2852 47.6047C66.2852 47.7447 66.3952 47.8547 66.5352 47.8547H68.0302V49.4397H66.5352C66.3952 49.4397 66.2852 49.5497 66.2852 49.6897C66.2852 49.8297 66.3952 49.9397 66.5352 49.9397H68.0302V51.5247H66.5352C66.3952 51.5247 66.2852 51.6347 66.2852 51.7747C66.2852 51.9147 66.3952 52.0247 66.5352 52.0247H68.0302V53.6097H66.5352C66.3952 53.6097 66.2852 53.7197 66.2852 53.8597C66.2852 53.9997 66.3952 54.1097 66.5352 54.1097H68.0302V55.6947H66.5352C66.3952 55.6947 66.2852 55.8047 66.2852 55.9447C66.2852 56.0847 66.3952 56.1947 66.5352 56.1947H68.0302V57.7797H66.5352C66.3952 57.7797 66.2852 57.8897 66.2852 58.0297C66.2852 58.1697 66.3952 58.2797 66.5352 58.2797H68.2802C68.4202 58.2797 68.5302 58.1697 68.5302 58.0297V40.5897L69.1352 41.6497C69.2052 41.7697 69.3552 41.8097 69.4752 41.7447C69.5952 41.6747 69.6352 41.5247 69.5702 41.4047L69.5652 41.4147Z" fill="#156678"></path>
<g id="Vector_19">
<path d="M72.215 58.9697H70.78C70.5342 58.9697 70.335 59.169 70.335 59.4147V60.0197C70.335 60.2655 70.5342 60.4647 70.78 60.4647H72.215C72.4607 60.4647 72.66 60.2655 72.66 60.0197V59.4147C72.66 59.169 72.4607 58.9697 72.215 58.9697Z" fill="#EDEDED"></path>
<path d="M76.3251 58.9697H74.8901C74.6443 58.9697 74.4451 59.169 74.4451 59.4147V60.0197C74.4451 60.2655 74.6443 60.4647 74.8901 60.4647H76.3251C76.5708 60.4647 76.7701 60.2655 76.7701 60.0197V59.4147C76.7701 59.169 76.5708 58.9697 76.3251 58.9697Z" fill="#EDEDED"></path>
<path d="M80.4349 58.9697H78.9999C78.7542 58.9697 78.5549 59.169 78.5549 59.4147V60.0197C78.5549 60.2655 78.7542 60.4647 78.9999 60.4647H80.4349C80.6807 60.4647 80.8799 60.2655 80.8799 60.0197V59.4147C80.8799 59.169 80.6807 58.9697 80.4349 58.9697Z" fill="#EDEDED"></path>
<path d="M84.545 58.9697H83.11C82.8643 58.9697 82.665 59.169 82.665 59.4147V60.0197C82.665 60.2655 82.8643 60.4647 83.11 60.4647H84.545C84.7908 60.4647 84.99 60.2655 84.99 60.0197V59.4147C84.99 59.169 84.7908 58.9697 84.545 58.9697Z" fill="#EDEDED"></path>
<path d="M88.465 58.9697H87.03C86.7842 58.9697 86.585 59.169 86.585 59.4147V60.0197C86.585 60.2655 86.7842 60.4647 87.03 60.4647H88.465C88.7107 60.4647 88.91 60.2655 88.91 60.0197V59.4147C88.91 59.169 88.7107 58.9697 88.465 58.9697Z" fill="#EDEDED"></path>
</g>
<path id="Vector_20" d="M89.23 58.1797L79.775 50.9097L89.23 43.6397C89.705 43.2747 89.795 42.5947 89.43 42.1197C89.065 41.6447 88.385 41.5547 87.91 41.9197L78 49.5447L68.09 41.9197C67.615 41.5547 66.935 41.6447 66.57 42.1197C66.205 42.5947 66.295 43.2747 66.77 43.6397L76.225 50.9097L66.77 58.1797C66.295 58.5447 66.205 59.2247 66.57 59.6997C66.935 60.1747 67.615 60.2647 68.09 59.8997L78 52.2747L87.91 59.8997C88.385 60.2647 89.065 60.1747 89.43 59.6997C89.795 59.2247 89.705 58.5447 89.23 58.1797Z" fill="#DDDDDD"></path>
<path id="Vector_21" d="M89.23 56.0547L79.775 48.7847L89.23 41.5147C89.705 41.1497 89.795 40.4697 89.43 39.9947C89.065 39.5197 88.385 39.4297 87.91 39.7947L78 47.4197L68.09 39.7947C67.615 39.4297 66.935 39.5197 66.57 39.9947C66.205 40.4697 66.295 41.1497 66.77 41.5147L76.225 48.7847L66.77 56.0547C66.295 56.4197 66.205 57.0997 66.57 57.5747C66.935 58.0497 67.615 58.1397 68.09 57.7747L78 50.1497L87.91 57.7747C88.385 58.1397 89.065 58.0497 89.43 57.5747C89.795 57.0997 89.705 56.4197 89.23 56.0547Z" fill="#FFB87E"></path>
<g id="Group">
<path id="Vector_22" d="M111.24 49.3449C105.625 58.5349 96.1055 58.0399 90.2505 49.4649C99.5905 55.1749 106.26 53.8499 107.49 50.6949C108 49.3849 104.2 47.5199 103.545 46.1699C102.23 43.4599 104.745 43.3049 111.235 49.3449H111.24Z" fill="#EDEDED"></path>
<path id="Vector_23" d="M100.685 54.9047C103.756 54.9047 106.245 52.4154 106.245 49.3447C106.245 46.274 103.756 43.7847 100.685 43.7847C97.6148 43.7847 95.1255 46.274 95.1255 49.3447C95.1255 52.4154 97.6148 54.9047 100.685 54.9047Z" fill="white"></path>
<path id="Vector_24" d="M100.685 52.5799C102.472 52.5799 103.92 51.1315 103.92 49.3449C103.92 47.5582 102.472 46.1099 100.685 46.1099C98.8986 46.1099 97.4502 47.5582 97.4502 49.3449C97.4502 51.1315 98.8986 52.5799 100.685 52.5799Z" fill="#2BF5BA"></path>
<g id="Vector_25">
<path d="M111.05 44.1251C110.985 44.1251 110.92 44.1001 110.875 44.0501C110.775 43.9501 110.775 43.7951 110.875 43.6951L114.005 40.5651C114.105 40.4651 114.26 40.4651 114.36 40.5651C114.46 40.6651 114.46 40.8201 114.36 40.9201L111.23 44.0501C111.18 44.1001 111.115 44.1251 111.055 44.1251H111.05Z" fill="#07064E"></path>
<path d="M106.57 41.7951C106.535 41.7951 106.5 41.7901 106.47 41.7751C106.345 41.7201 106.285 41.5701 106.345 41.4451L108.185 37.3301C108.24 37.2051 108.39 37.1501 108.515 37.2051C108.64 37.2601 108.7 37.4101 108.64 37.5351L106.8 41.6501C106.76 41.7451 106.665 41.8001 106.57 41.8001V41.7951Z" fill="#07064E"></path>
<path d="M101.175 41.1951C101.035 41.1951 100.925 41.0851 100.925 40.9451V36.5151C100.925 36.3751 101.035 36.2651 101.175 36.2651C101.315 36.2651 101.425 36.3751 101.425 36.5151V40.9451C101.425 41.0851 101.315 41.1951 101.175 41.1951Z" fill="#07064E"></path>
<path d="M91.3053 44.1251C91.2403 44.1251 91.1753 44.1001 91.1303 44.0501L88.0003 40.9201C87.9003 40.8201 87.9003 40.6651 88.0003 40.5651C88.1003 40.4651 88.2553 40.4651 88.3553 40.5651L91.4853 43.6951C91.5853 43.7951 91.5853 43.9501 91.4853 44.0501C91.4353 44.1001 91.3703 44.1251 91.3103 44.1251H91.3053Z" fill="#07064E"></path>
<path d="M95.7803 41.7951C95.6853 41.7951 95.5953 41.7401 95.5503 41.6451L93.7103 37.5301C93.6553 37.4051 93.7103 37.2551 93.8353 37.2001C93.9603 37.1451 94.1103 37.2001 94.1653 37.3251L96.0053 41.4401C96.0603 41.5651 96.0053 41.7151 95.8803 41.7701C95.8453 41.7851 95.8103 41.7901 95.7803 41.7901V41.7951Z" fill="#07064E"></path>
</g>
<path id="Vector_26" d="M100.65 51.3546C101.78 51.3546 102.695 50.4391 102.695 49.3097C102.695 48.1802 101.78 47.2646 100.65 47.2646C99.521 47.2646 98.6055 48.1802 98.6055 49.3097C98.6055 50.4391 99.521 51.3546 100.65 51.3546Z" fill="#07064E"></path>
<path id="Vector_27" d="M98.8052 48.8199C99.5535 48.8199 100.16 48.2132 100.16 47.4649C100.16 46.7165 99.5535 46.1099 98.8052 46.1099C98.0569 46.1099 97.4502 46.7165 97.4502 47.4649C97.4502 48.2132 98.0569 48.8199 98.8052 48.8199Z" fill="white"></path>
<g id="Vector_28">
<path d="M89.9505 49.1551C89.9005 49.2051 89.8805 49.2751 89.8805 49.3401C89.8805 49.4051 89.9005 49.4751 89.9555 49.5251C93.8305 53.3701 97.3855 55.2451 100.811 55.2451C100.851 55.2451 100.886 55.2451 100.926 55.2451C104.331 55.2051 107.766 53.3301 111.421 49.5251C111.471 49.4751 111.491 49.4051 111.491 49.3401C111.491 49.2751 111.471 49.2051 111.416 49.1551C107.496 45.2651 103.906 43.4001 100.446 43.4401C97.0405 43.4801 93.6055 45.3551 89.9505 49.1601V49.1551ZM90.4805 49.3301C92.9605 46.7801 95.3205 45.1551 97.6355 44.4101C95.9855 45.4351 94.8805 47.2601 94.8805 49.3451C94.8805 51.3001 95.8555 53.0251 97.3355 54.0801C95.1555 53.2651 92.8855 51.6901 90.4805 49.3301ZM110.891 49.3401C108.431 51.8651 106.091 53.4901 103.796 54.2401C105.416 53.2101 106.496 51.4001 106.496 49.3451C106.496 47.2901 105.506 45.6301 104.001 44.5801C106.196 45.3901 108.476 46.9701 110.896 49.3401H110.891ZM105.996 49.3451C105.996 52.2701 103.616 54.6551 100.686 54.6551C97.7555 54.6551 95.3755 52.2751 95.3755 49.3451C95.3755 46.4151 97.7555 44.0351 100.686 44.0351C103.616 44.0351 105.996 46.4151 105.996 49.3451Z" fill="#07064E"></path>
<path d="M113.096 50.0951C112.996 50.0001 112.836 50.0051 112.741 50.1001C110.441 52.4951 108.281 54.1801 106.131 55.2451C102.506 57.0401 98.9405 57.0051 95.2355 55.1301C93.1205 54.0601 90.9605 52.4151 88.6205 50.0951C88.5205 50.0001 88.3655 50.0001 88.2655 50.0951C88.1655 50.1901 88.1705 50.3501 88.2655 50.4501C90.6405 52.8101 92.8455 54.4851 95.0055 55.5751C96.9755 56.5701 98.9005 57.0651 100.821 57.0651C102.741 57.0651 104.501 56.6051 106.346 55.6901C108.546 54.6001 110.751 52.8851 113.091 50.4451C113.186 50.3451 113.181 50.1851 113.086 50.0901L113.096 50.0951Z" fill="#07064E"></path>
<path d="M88.6155 47.9451C96.8655 40.5251 104.091 40.5301 112.761 47.9451C112.806 47.9851 112.866 48.0051 112.926 48.0051C112.996 48.0051 113.066 47.9751 113.116 47.9201C113.206 47.8151 113.196 47.6551 113.091 47.5651C104.186 39.9451 96.7655 39.9451 88.2855 47.5651C88.1805 47.6601 88.1755 47.8151 88.2655 47.9201C88.3605 48.0251 88.5155 48.0301 88.6205 47.9401L88.6155 47.9451Z" fill="#07064E"></path>
</g>
</g>
<path id="Vector_29" d="M135.76 35.8994C136.376 35.8994 136.875 35.4002 136.875 34.7844C136.875 34.1686 136.376 33.6694 135.76 33.6694C135.144 33.6694 134.645 34.1686 134.645 34.7844C134.645 35.4002 135.144 35.8994 135.76 35.8994Z" fill="#2BF5BA"></path>
<path id="Vector_30" d="M116.885 55.2298C117.405 55.2298 118.295 54.8748 120.005 51.8498C120.99 51.3998 122.07 50.9948 123.14 50.6748C123.915 50.4448 124.695 50.2648 125.45 50.1398C126.7 50.9098 128.155 51.3998 129.19 51.3998C130.335 51.3998 130.455 50.7498 130.46 50.5548C130.47 50.2848 130.375 50.0298 130.18 49.8248C129.765 49.3898 128.92 49.1698 127.665 49.1698C127.04 49.1698 126.35 49.2248 125.615 49.3348C124.87 48.8398 124.25 48.2598 123.825 47.6498C123.425 47.0748 123.07 46.4448 122.77 45.7798C123.585 43.3848 123.745 41.8148 123.245 41.1048C123.045 40.8248 122.75 40.6748 122.39 40.6748C121.99 40.6748 121.66 40.8498 121.44 41.1898C120.79 42.1848 121.295 44.2698 121.95 45.8098C121.645 46.6698 121.265 47.5948 120.845 48.4998C120.375 49.5198 119.905 50.4448 119.455 51.2548C118.17 51.8598 116.125 52.9898 115.935 54.0898C115.88 54.4098 115.975 54.6998 116.205 54.9348C116.395 55.1248 116.63 55.2248 116.885 55.2248V55.2298ZM127.665 49.9348C129.115 49.9348 129.535 50.2548 129.625 50.3548C129.69 50.4198 129.695 50.4748 129.695 50.5298C129.68 50.5548 129.55 50.6348 129.19 50.6348C128.62 50.6348 127.725 50.4248 126.755 49.9748C127.075 49.9498 127.375 49.9348 127.665 49.9348ZM122.08 41.6148C122.155 41.4998 122.25 41.4498 122.39 41.4498C122.52 41.4498 122.575 41.4898 122.62 41.5548C122.845 41.8698 122.86 42.8448 122.325 44.6548C121.835 43.1798 121.81 42.0298 122.08 41.6148ZM121.54 48.8248C121.85 48.1598 122.135 47.4798 122.39 46.8248L122.4 46.8498L122.415 46.8048C122.655 47.2548 122.915 47.6848 123.195 48.0948C123.545 48.5948 124.005 49.0748 124.545 49.5098L124.47 49.5198L124.505 49.5398C123.98 49.6498 123.45 49.7848 122.92 49.9448C122.145 50.1748 121.37 50.4498 120.62 50.7498L120.645 50.7048L120.615 50.7198C120.92 50.1298 121.23 49.4998 121.54 48.8248ZM116.69 54.2248C116.755 53.8648 117.41 53.2298 118.73 52.4898C117.55 54.3498 116.995 54.4598 116.885 54.4598C116.85 54.4598 116.805 54.4498 116.75 54.3948C116.685 54.3298 116.68 54.2848 116.69 54.2248Z" fill="#07064E"></path>
<path id="Vector_31" d="M92.8502 78.8647C92.8502 78.9097 92.8452 78.9498 92.8452 78.9948C92.8452 82.5298 95.9802 85.3997 99.8502 85.3997C103.72 85.3997 106.855 82.5298 106.855 78.9948C106.855 78.9498 106.85 78.9097 106.85 78.8647H92.8552H92.8502Z" fill="#EBEBEB"></path>
<path id="Vector_32" d="M136.75 24.6299H62.9453C59.7853 24.6299 57.2153 27.1999 57.2153 30.3599V73.5399C57.2153 76.6999 59.7853 79.2699 62.9453 79.2699H92.3903V92.4099H83.1403C81.2853 92.4099 79.7803 93.9199 79.7803 95.7699C79.7803 97.6199 81.2903 99.1299 83.1403 99.1299H116.55C118.405 99.1299 119.91 97.6199 119.91 95.7699C119.91 93.9199 118.4 92.4099 116.55 92.4099H107.3V79.2699H136.745C139.905 79.2699 142.475 76.6999 142.475 73.5399V30.3599C142.475 27.1999 139.905 24.6299 136.745 24.6299H136.75ZM62.9453 25.0849H136.75C139.655 25.0849 142.02 27.4499 142.02 30.3599V70.3249H57.6703V30.3599C57.6703 27.4549 60.0353 25.0849 62.9403 25.0849H62.9453ZM92.8503 92.4099V79.2699H106.85V92.4099H92.8503ZM119.455 95.7749C119.455 97.3749 118.155 98.6799 116.55 98.6799H83.1403C81.5403 98.6799 80.2353 97.3799 80.2353 95.7749C80.2353 94.1699 81.5353 92.8699 83.1403 92.8699H92.4553C92.4953 92.9099 92.5553 92.9349 92.6153 92.9349C92.6753 92.9349 92.7353 92.9099 92.7753 92.8699H116.545C118.145 92.8699 119.45 94.1699 119.45 95.7749H119.455ZM136.75 78.8149H62.9453C60.0403 78.8149 57.6753 76.4499 57.6753 73.5399V70.7849H142.025V73.5399C142.025 76.4449 139.66 78.8149 136.755 78.8149H136.75Z" fill="#07064E"></path>
<path id="Vector_33" d="M165.92 102.32C171.134 102.32 175.36 101.375 175.36 100.21C175.36 99.0443 171.134 98.0996 165.92 98.0996C160.706 98.0996 156.48 99.0443 156.48 100.21C156.48 101.375 160.706 102.32 165.92 102.32Z" fill="#2AEDB4"></path>
<g id="Group_2">
<path id="Vector_34" d="M146.36 58.3496C143.34 58.4696 141.455 60.3546 140.44 62.0596C139.1 64.3046 139.125 68.8746 139.365 70.6996C139.48 71.5746 139.88 79.4596 139.745 80.5546C140.335 79.8246 144.525 77.9496 146.75 77.4596C151.085 76.4996 153.185 75.7796 155.465 73.7246C158.145 71.3096 160.985 65.8196 157.575 62.2396C155.78 60.3546 150.755 60.4046 150.755 60.4046C150.755 60.4046 148.96 58.2496 146.36 58.3496Z" fill="#2BF5BA"></path>
<g id="Vector_35">
<path d="M176.02 84.3794L172.455 100.159H159.38L155.825 84.4194" fill="#2BF5BA"></path>
<path d="M177.69 77.1694H154.145V84.4044H177.69V77.1694Z" fill="#2BF5BA"></path>
</g>
<g id="Vector_36">
<path d="M177.655 77.1446L170.025 77.2446C171.38 84.9196 171.355 94.6896 168.22 100.035L172.455 100.16L177.655 77.1446Z" fill="#00EBA6"></path>
<path d="M177.69 77.1445L168.825 77.1595C169.245 79.5495 168.855 81.9545 168.96 84.3795H177.69V77.1445Z" fill="#00EBA6"></path>
</g>
<g id="Vector_37">
<path d="M159.12 65.8747C159.08 64.6247 158.405 63.2647 157.595 62.3097C156.745 61.3047 155.13 60.5397 151.99 60.4247C152.81 64.7047 152.725 70.0847 148.92 72.6247C144.765 75.3947 142.415 76.4247 139.77 79.8697C139.77 80.1797 139.77 80.4147 139.75 80.5497C140.34 79.8197 145.425 77.8047 147.635 77.2597C151.165 76.3947 152.55 76.1597 154.91 74.1947C157.33 72.1747 159.235 69.4847 159.125 65.8747H159.12Z" fill="#00EBA6"></path>
<path d="M156.2 38.4151C157.28 38.4151 158.435 37.8851 159.235 37.2401C160.075 36.5651 160.685 35.2501 160.675 32.6651C157 33.2451 152.34 33.0551 150.015 29.8651C147.48 26.3851 146.505 24.4251 143.435 22.1701C143.165 22.1701 142.965 22.1551 142.845 22.1401C143.5 22.6451 145.415 26.8701 145.96 28.7051C146.83 31.6301 147.08 32.7751 148.86 34.7601C150.69 36.8001 153.085 38.4251 156.2 38.4151Z" fill="#00EBA6"></path>
<path d="M175.745 47.3004C174.685 47.5104 173.45 47.2204 172.54 46.7454C171.585 46.2454 170.725 45.0804 170.225 42.5454C174.94 44.5254 179.76 43.1704 181.405 39.5804C183.205 35.6654 182.485 31.6604 185.045 28.8454C185.305 28.7854 185.505 28.7354 185.615 28.7004C185.075 29.3254 184.035 33.8454 183.86 35.7504C183.585 38.7904 183.57 39.9604 182.22 42.2604C180.83 44.6204 178.805 46.6904 175.745 47.2954V47.3004Z" fill="#00EBA6"></path>
<path d="M172.16 63.0356C171.735 62.1956 171.69 61.0906 171.87 60.2156C172.065 59.2956 172.84 58.3056 174.85 57.2906C175.855 60.3706 177.51 61.7506 180.905 62.2906C184.61 62.8806 186.85 65.0256 189.81 66.5156C189.92 66.7206 190.01 66.8756 190.065 66.9606C189.415 66.6556 185.38 66.8406 183.74 67.1406C181.13 67.6206 180.14 67.8856 177.895 67.2856C175.59 66.6756 173.38 65.4606 172.155 63.0356H172.16Z" fill="#00EBA6"></path>
<path d="M161.335 52.1106C161.85 51.3856 162.11 50.3606 162.135 49.5106C162.165 48.6206 162.005 48.5606 161.83 48.3056C160.395 51.0406 156.56 52.0656 153.705 52.0606C150.59 52.0556 149.055 51.7456 146.36 52.6906C146.23 52.8656 146.125 53.0006 146.06 53.0706C146.645 52.8806 149.875 53.6656 151.14 54.2006C153.155 55.0506 153.9 55.4456 155.835 55.2256C157.82 55.0006 159.855 54.1956 161.335 52.1106Z" fill="#00EBA6"></path>
</g>
<g id="Vector_38">
<path d="M139.745 80.7797C139.715 80.7797 139.685 80.7747 139.655 80.7597C139.56 80.7197 139.505 80.6247 139.515 80.5197C139.645 79.4547 139.245 71.5747 139.135 70.7247C138.9 68.9447 138.855 64.2597 140.24 61.9347C141.055 60.5647 142.935 58.2497 146.35 58.1147C148.775 58.0147 150.485 59.7597 150.86 60.1647C151.62 60.1647 156.025 60.2697 157.74 62.0697C158.885 63.2697 159.43 64.7497 159.365 66.4647C159.255 69.3647 157.405 72.2797 155.62 73.8847C153.295 75.9747 151.115 76.7147 146.8 77.6697C144.52 78.1747 140.46 80.0297 139.925 80.6847C139.88 80.7397 139.815 80.7697 139.745 80.7697V80.7797ZM146.37 58.5797C143.175 58.7047 141.405 60.8897 140.635 62.1747C139.31 64.3947 139.36 68.9397 139.59 70.6697C139.685 71.3847 140.035 77.8997 140 80.0447C141.3 79.1497 144.765 77.6647 146.7 77.2347C151.13 76.2547 153.095 75.5497 155.31 73.5547C157.02 72.0147 158.795 69.2197 158.905 66.4547C158.965 64.8697 158.46 63.4997 157.41 62.3947C155.705 60.6047 150.81 60.6297 150.76 60.6297C150.69 60.6347 150.625 60.5997 150.58 60.5447C150.565 60.5247 148.805 58.4697 146.37 58.5747V58.5797Z" fill="#07064E"></path>
<path d="M156.065 38.6549C153.495 38.6549 150.725 37.0499 149.125 35.3899C147.23 33.4249 146.52 31.6149 145.545 28.0349C145.03 26.1499 143.295 22.7749 142.71 22.3249C142.625 22.2599 142.6 22.1499 142.64 22.0549C142.68 21.9599 142.78 21.9049 142.885 21.9149C143.81 22.0449 150.615 21.8899 151.345 21.8199C152.88 21.6649 156.935 21.7349 158.995 22.9249C160.21 23.6299 162.285 25.2299 162.515 28.0599C162.68 30.0399 161.275 31.4199 160.89 31.7549C160.915 32.4549 160.955 36.0199 159.455 37.3949C158.47 38.2949 157.29 38.6599 156.065 38.6599V38.6549ZM143.38 22.4049C144.21 23.5549 145.56 26.3449 145.985 27.9149C146.985 31.5749 147.655 33.2099 149.455 35.0749C151.695 37.3999 156.325 39.6349 159.145 37.0549C160.615 35.7099 160.43 31.7049 160.43 31.6649C160.43 31.5899 160.46 31.5199 160.515 31.4749C160.53 31.4599 162.22 30.0899 162.055 28.0999C161.84 25.4799 159.9 23.9849 158.76 23.3249C156.795 22.1849 152.87 22.1299 151.385 22.2749C150.78 22.3349 145.325 22.4749 143.38 22.4099V22.4049Z" fill="#07064E"></path>
<path d="M190.255 66.8249C189.79 66.1599 187.22 60.8249 186.99 60.2299C186.5 58.9749 184.84 55.8499 183.095 54.7199C182.065 54.0499 179.99 53.0749 177.69 54.0149C176.2 54.6249 175.65 56.0649 175.485 56.6249C174.81 56.5249 174.14 56.5499 173.485 56.7149C170.47 57.4849 168.715 60.8199 168.25 61.8199C168.24 61.8399 168.235 61.8599 168.225 61.8749C167.95 59.9699 167.69 58.1599 167.49 56.5049C167.035 52.7749 167.52 46.8699 169.895 42.0249C170.115 43.1399 170.81 46.0049 172.355 46.9349C173.15 47.4149 173.985 47.6199 174.825 47.6199C177.725 47.6199 180.665 45.1599 182.09 42.9299C183.555 40.6299 183.895 38.7149 184.145 35.0099C184.275 33.0599 185.31 29.4099 185.795 28.8499C185.865 28.7699 185.87 28.6549 185.81 28.5699C185.75 28.4849 185.645 28.4499 185.545 28.4849C184.665 28.7949 177.965 29.9899 177.235 30.0649C175.7 30.2199 171.735 31.0849 169.955 32.6649C168.905 33.5949 167.19 35.5799 167.52 38.3949C167.725 40.1249 169.02 41.1649 169.63 41.5649C167.1 46.5549 166.57 52.7099 167.045 56.5649C167.275 58.4499 167.575 60.5299 167.895 62.7299C166.58 66.4099 166.48 72.1549 166.565 76.9149H166.24C166.1 76.2749 166.01 75.2999 165.905 74.1699C165.67 71.6349 165.35 68.1649 164.19 65.8599C163.825 65.1349 163.35 64.2699 162.785 63.3849C162.77 59.0049 163.25 54.0449 164.85 49.1249C167.795 40.0849 164.685 35.1449 160.895 31.7499C161.275 31.4149 162.68 30.0349 162.52 28.0549C162.285 25.2249 160.215 23.6249 159 22.9199C156.94 21.7249 152.885 21.6599 151.35 21.8149C150.62 21.8899 143.815 22.0399 142.89 21.9099C142.785 21.8949 142.685 21.9499 142.645 22.0499C142.605 22.1449 142.635 22.2549 142.715 22.3199C143.3 22.7699 145.035 26.1499 145.55 28.0299C146.525 31.6099 147.24 33.4249 149.13 35.3849C150.73 37.0449 153.505 38.6499 156.07 38.6499C157.295 38.6499 158.475 38.2849 159.46 37.3849C160.685 36.2649 160.885 33.6699 160.9 32.3849C164.4 35.6549 167.13 40.3799 164.49 48.7349C163.605 47.1449 162.425 46.1499 160.97 45.7749C160.635 45.6899 160.305 45.6449 159.985 45.6249C159.97 45.0899 159.82 43.6249 158.715 42.8049C157.02 41.5499 155.12 42.1599 154.14 42.6349C152.495 43.4299 150.52 46.1149 149.87 47.2149C149.56 47.7399 146.405 52.3549 145.895 52.9099C145.825 52.9849 145.815 53.0999 145.87 53.1899C145.925 53.2799 146.035 53.3149 146.135 53.2849C146.64 53.1199 149.32 53.6199 150.555 54.1799C152.475 55.0499 153.715 55.4899 155.125 55.4899C155.51 55.4899 155.91 55.4549 156.335 55.3899C158.82 55.0049 162.465 52.8549 162.39 49.4449C162.36 48.1449 161.18 46.8249 160.455 46.1299C160.59 46.1499 160.725 46.1799 160.86 46.2099C162.305 46.5799 163.465 47.6299 164.305 49.3349C162.855 53.9349 162.365 58.5499 162.33 62.6849C160.805 60.4699 158.725 58.2949 156.25 57.9099C154.415 57.6249 152.59 58.3749 150.83 60.1199C150.4 59.6549 148.715 58.0099 146.36 58.1049C142.945 58.2399 141.07 60.5549 140.25 61.9249C138.865 64.2499 138.91 68.9349 139.145 70.7149C139.255 71.5649 139.655 79.4449 139.525 80.5099C139.515 80.6099 139.57 80.7099 139.665 80.7499C139.695 80.7599 139.725 80.7699 139.755 80.7699C139.825 80.7699 139.89 80.7399 139.935 80.6849C140.47 80.0249 144.53 78.1749 146.81 77.6699C151.125 76.7149 153.305 75.9749 155.63 73.8849C157.415 72.2799 159.265 69.3599 159.375 66.4649C159.44 64.7499 158.895 63.2699 157.75 62.0699C156.29 60.5399 152.895 60.2349 151.445 60.1799C153.005 58.7399 154.6 58.1249 156.185 58.3699C158.71 58.7599 160.84 61.1949 162.335 63.5149C162.36 68.1649 162.935 72.1449 163.305 74.7099C163.44 75.6399 163.545 76.3799 163.59 76.9099H154.2C154.155 76.9099 154.115 76.9249 154.08 76.9499C153.995 76.9849 153.935 77.0649 153.935 77.1649V84.3999C153.935 84.5249 154.04 84.6299 154.165 84.6299H155.66L159.18 100.21C159.205 100.315 159.295 100.39 159.405 100.39H172.48C172.585 100.39 172.68 100.315 172.705 100.21L176.225 84.6299H177.72C177.845 84.6299 177.95 84.5249 177.95 84.3999V77.1649C177.95 77.0649 177.89 76.9849 177.805 76.9499C177.77 76.9249 177.73 76.9099 177.685 76.9099H169.835C169.97 73.6849 169.17 68.1699 168.39 62.8249C168.39 62.8049 168.385 62.7849 168.38 62.7699C168.475 62.5049 168.58 62.2549 168.69 62.0149C169.005 61.3349 170.73 57.8999 173.625 57.1599C174.045 57.0549 174.475 57.0149 174.91 57.0299C173.895 57.5749 172.045 58.7299 171.67 60.0999C170.71 63.5849 174.48 66.4899 177.33 67.3599C178.345 67.6699 179.245 67.8099 180.215 67.8099C181.415 67.8099 182.715 67.5949 184.47 67.2299C186.09 66.8899 189.44 66.8999 190.005 67.1649C190.1 67.2099 190.21 67.1849 190.28 67.1049C190.345 67.0249 190.355 66.9099 190.295 66.8249H190.255ZM167.965 38.3449C167.66 35.7349 169.265 33.8849 170.25 33.0099C171.95 31.5049 175.785 30.6749 177.275 30.5249C177.88 30.4649 183.25 29.5249 185.15 29.0699C184.565 30.3599 183.795 33.3649 183.685 34.9849C183.43 38.7699 183.095 40.5049 181.7 42.6899C179.965 45.4099 175.87 48.5199 172.59 46.5499C170.88 45.5249 170.27 41.5599 170.265 41.5199C170.26 41.4749 170.24 41.4399 170.21 41.4099C171.385 39.2149 172.97 37.2749 175.065 35.9149C175.17 35.8449 175.2 35.7049 175.135 35.5999C175.065 35.4949 174.925 35.4649 174.82 35.5299C172.67 36.9249 171.04 38.9149 169.83 41.1649C169.27 40.7899 168.14 39.8499 167.965 38.3549V38.3449ZM160.54 31.4449C159.445 30.4999 158.305 29.6749 157.25 28.9099C156.16 28.1199 155.13 27.3749 154.375 26.6449C154.285 26.5549 154.14 26.5599 154.05 26.6499C153.96 26.7399 153.965 26.8849 154.055 26.9749C154.83 27.7249 155.875 28.4799 156.98 29.2799C158.085 30.0799 159.29 30.9549 160.435 31.9649C160.445 32.9249 160.38 35.9199 159.145 37.0449C156.325 39.6249 151.695 37.3899 149.455 35.0649C147.66 33.1999 146.985 31.5699 145.985 27.9049C145.56 26.3349 144.21 23.5449 143.38 22.3949C145.33 22.4649 150.78 22.3249 151.385 22.2599C152.875 22.1149 156.8 22.1699 158.76 23.3099C159.9 23.9699 161.84 25.4649 162.055 28.0849C162.21 29.9399 160.755 31.2549 160.54 31.4349V31.4449ZM161.925 49.4649C161.99 52.5999 158.585 54.5849 156.26 54.9449C154.405 55.2299 153.2 54.8849 150.735 53.7699C149.755 53.3249 147.675 52.8449 146.56 52.8099C147.56 51.4849 150.005 47.8849 150.255 47.4599C150.88 46.3949 152.775 43.8099 154.33 43.0599C155.215 42.6299 156.93 42.0749 158.43 43.1849C159.345 43.8599 159.49 45.1399 159.515 45.6249C157.93 45.6599 156.58 46.3349 156.105 46.6749C155.505 47.0999 154.95 47.6349 154.41 48.1499C153.64 48.8899 152.915 49.5899 152.17 49.8549C152.05 49.8949 151.99 50.0299 152.03 50.1499C152.065 50.2449 152.15 50.3049 152.245 50.3049C152.27 50.3049 152.295 50.3049 152.32 50.2899C153.16 49.9899 153.92 49.2599 154.725 48.4849C155.25 47.9799 155.79 47.4599 156.365 47.0549C156.79 46.7549 158.14 46.0799 159.685 46.0899C160.095 46.4349 161.885 48.0299 161.915 49.4749L161.925 49.4649ZM157.405 62.3949C158.46 63.4999 158.96 64.8649 158.9 66.4549C158.795 69.2199 157.02 72.0099 155.305 73.5549C153.09 75.5499 151.125 76.2549 146.695 77.2349C144.76 77.6649 141.295 79.1499 139.995 80.0449C140.03 77.8999 139.68 71.3849 139.585 70.6699C139.36 68.9399 139.305 64.3949 140.63 62.1749C141.4 60.8849 143.165 58.7049 146.365 58.5799C148.51 58.4899 150.13 60.0699 150.495 60.4649C148.77 62.3049 148.22 64.0599 147.64 65.9099C147 67.9449 146.28 70.2499 143.85 73.1699C143.77 73.2649 143.78 73.4099 143.88 73.4949C143.98 73.5749 144.12 73.5649 144.205 73.4649C146.695 70.4749 147.43 68.1249 148.08 66.0499C148.685 64.1249 149.21 62.4549 150.965 60.6399C151.92 60.6549 155.905 60.8249 157.405 62.3999V62.3949ZM163.745 74.6499C163.395 72.2399 162.87 68.5699 162.79 64.2749C163.17 64.9149 163.505 65.5299 163.775 66.0699C164.895 68.2949 165.21 71.7149 165.44 74.2149C165.54 75.2999 165.63 76.2549 165.76 76.9199H164.03C163.985 76.3749 163.875 75.6099 163.74 74.6549L163.745 74.6499ZM177.46 84.1749H163.505C163.38 84.1749 163.275 84.2799 163.275 84.4049C163.275 84.5299 163.38 84.6349 163.505 84.6349H175.725L172.27 99.9349H159.565L156.11 84.6349H158.31C158.435 84.6349 158.54 84.5299 158.54 84.4049C158.54 84.2799 158.435 84.1749 158.31 84.1749H154.375V77.3949H177.46V84.1749ZM169.345 76.9149H167.01C166.935 72.5599 167.01 67.3749 168.03 63.7699C168.765 68.8249 169.47 73.9149 169.34 76.9149H169.345ZM184.34 66.7799C181.11 67.4549 179.58 67.5749 177.43 66.9199C174.755 66.1049 171.2 63.4099 172.08 60.2199C172.51 58.6699 175.3 57.3149 175.69 57.1349C176.58 57.3199 177.49 57.7449 178.415 58.4299C178.515 58.5049 178.66 58.4849 178.735 58.3799C178.81 58.2799 178.79 58.1349 178.685 58.0599C177.755 57.3749 176.835 56.9299 175.935 56.7149C176.1 56.1949 176.605 54.9549 177.86 54.4399C178.48 54.1849 179.08 54.0849 179.65 54.0849C181.01 54.0849 182.17 54.6649 182.845 55.1049C184.5 56.1749 186.09 59.1899 186.565 60.3999C186.755 60.8849 188.755 65.0749 189.6 66.6099C188.35 66.4249 185.745 66.4899 184.345 66.7799H184.34Z" fill="#07064E"></path>
</g>
</g>
<g id="Group_3">
<path id="Vector_39" d="M50.7152 108.77L50.6802 110.585L70.3952 110.565C70.6452 110.565 70.9652 110.245 70.9652 109.995L70.9552 109.155C64.1202 107.98 57.8602 109.47 50.7102 108.77H50.7152Z" fill="#00EBA6"></path>
<path id="Vector_40" d="M46.1302 105.85L46.1152 107.065L70.9052 107.045C71.2152 107.045 71.6202 106.725 71.6202 106.475L71.5952 105.83C63.0052 104.655 54.7102 106.295 46.1302 105.845V105.85Z" fill="#00EBA6"></path>
<path id="Vector_41" d="M50.4905 81.5096C47.5805 79.2296 49.8555 75.0846 51.6705 72.7146C53.3105 68.6646 46.6005 68.5046 47.0955 63.6996C47.4605 60.1946 52.9605 56.1846 55.9555 59.8546C57.9605 62.3146 55.8705 64.3396 56.5755 66.7496C56.9255 67.9546 58.7555 68.3746 59.2955 69.5946C60.8855 73.1696 55.5855 75.8146 54.5305 79.4446C53.5905 82.6796 55.5955 84.1096 56.1805 86.1846C57.1355 89.5946 54.7805 84.8646 50.4855 81.5046L50.4905 81.5096Z" fill="#AAFBE3"></path>
<path id="Vector_42" d="M44.9702 85.4346H63.8802V93.8646C63.8802 99.0846 59.6452 103.32 54.4252 103.32C49.2052 103.32 44.9702 99.0846 44.9702 93.8646V85.4346Z" fill="#2BF5BA"></path>
<path id="Vector_43" d="M60.4652 85.5245C60.4202 89.7795 59.7452 94.2794 57.8702 97.0744C56.1002 99.5594 50.3102 102.154 50.2202 102.204C52.2702 103.114 52.1502 103.324 54.4252 103.324C59.6452 103.324 63.8802 99.0895 63.8802 93.8695V85.4395L60.4602 85.5294L60.4652 85.5245Z" fill="#00EBA6"></path>
<path id="Vector_44" d="M74.5153 111.269C74.5153 111.859 65.2303 112.339 52.1153 112.339C39.0003 112.339 27.3403 111.874 27.3403 111.284C27.3403 110.694 38.8203 110.564 51.9353 110.564C65.0503 110.564 74.5153 110.679 74.5153 111.269Z" fill="#2AEDB4"></path>
<path id="Vector_45" d="M70.9504 103.27H57.2904C61.2554 102.05 64.1404 98.3548 64.1404 93.9948V92.2898H65.8004C67.7504 92.2898 69.3354 90.7048 69.3354 88.7548C69.3354 87.1898 68.0654 85.9198 66.5004 85.9198C65.5154 85.9198 64.6504 86.4248 64.1404 87.1848V85.1948H44.7304V93.9898C44.7304 98.3498 47.6204 102.045 51.5804 103.265H32.8354C32.7054 103.265 32.5954 103.37 32.5954 103.505C32.5954 103.64 32.7004 103.745 32.8354 103.745H44.7454V104.405H34.2704C34.1404 104.405 34.0304 104.51 34.0304 104.645C34.0304 104.78 34.1354 104.885 34.2704 104.885H44.7454V105.49H34.2704C34.1404 105.49 34.0304 105.595 34.0304 105.73C34.0304 105.865 34.1354 105.97 34.2704 105.97H44.7454V106.81H29.4354C29.3054 106.81 29.1954 106.915 29.1954 107.05C29.1954 107.185 29.3004 107.29 29.4354 107.29H32.8054C32.8054 107.29 32.8254 107.295 32.8354 107.295H49.4404V107.95H30.8654C30.7354 107.95 30.6254 108.055 30.6254 108.19C30.6254 108.325 30.7304 108.43 30.8654 108.43H49.4404V109.035H30.8654C30.7354 109.035 30.6254 109.14 30.6254 109.275C30.6254 109.41 30.7304 109.515 30.8654 109.515H49.4404V110.36H29.4304C29.3004 110.36 29.1904 110.465 29.1904 110.6C29.1904 110.735 29.2954 110.84 29.4304 110.84H70.2354C70.7404 110.84 71.1554 110.43 71.1554 109.92V107.74C71.1554 107.575 71.1104 107.425 71.0354 107.295C71.4954 107.245 71.8604 106.86 71.8604 106.385V104.205C71.8604 103.7 71.4504 103.285 70.9404 103.285L70.9504 103.27ZM64.1454 88.7548C64.1454 87.4548 65.2054 86.3948 66.5054 86.3948C67.8054 86.3948 68.8654 87.4548 68.8654 88.7548C68.8654 90.4398 67.4954 91.8148 65.8054 91.8148H64.1454V88.7548ZM45.2104 93.9948V85.6748H63.6704V93.9948C63.6704 99.0848 59.5304 103.225 54.4404 103.225C49.3504 103.225 45.2104 99.0848 45.2104 93.9948ZM45.7454 106.805H45.2254V103.745H45.7454V106.805ZM50.4404 110.345H49.9204V107.285H50.4404V110.345ZM71.3904 106.37C71.3904 106.615 71.1904 106.815 70.9504 106.815H70.3104C70.3104 106.815 70.2704 106.81 70.2504 106.81H64.9904C64.8604 106.81 64.7504 106.915 64.7504 107.05C64.7504 107.185 64.8554 107.29 64.9904 107.29C64.9904 107.29 67.1304 107.295 67.1454 107.295H70.2804C70.5104 107.31 70.6904 107.5 70.6904 107.73V109.91C70.6904 110.155 70.4904 110.355 70.2504 110.355H50.9204V107.295H59.5904C59.7204 107.29 59.8304 107.18 59.8304 107.05C59.8304 106.92 59.7254 106.81 59.5904 106.81H46.2254V103.75H70.9504C71.1954 103.75 71.3904 103.95 71.3904 104.19V106.37Z" fill="#07064E"></path>
</g>
</g>
</g>
</g>
</g>
<defs>
<clipPath id="clip0_86_920">
<rect width="200" height="140" fill="white"></rect>
</clipPath>
</defs>
</svg>