<svg width="200" height="140" viewBox="0 0 200 140" fill="none" xmlns="http://www.w3.org/2000/svg">
<g id="illu_bg_first-time-participant-v2/Default" clip-path="url(#clip0_86_498)">
<g id="illu_bg_first-time-participant-v2">
<g id="background">
<path d="M38.2 18.5349C9.06501 42.0249 26.965 57.4399 12.415 75.8949C-10.265 104.67 -2.05499 154.545 85.94 128.32C119.37 118.36 163.26 154.52 188.12 123.215C204.715 102.315 204.97 38.4399 165.095 16.1349C126.195 -5.62514 56.7 3.61986 38.2 18.5349Z" fill="#2BF5BA"></path>
<path d="M193.983 135.831C197.276 134.132 198.88 130.687 197.564 128.137C196.249 125.588 192.513 124.898 189.219 126.597C185.926 128.296 184.323 131.741 185.638 134.29C186.953 136.84 190.69 137.53 193.983 135.831Z" fill="#2BF5BA"></path>
<path d="M9.29501 36.6999C10.071 36.6999 10.7 36.0708 10.7 35.2949C10.7 34.5189 10.071 33.8899 9.29501 33.8899C8.51905 33.8899 7.89001 34.5189 7.89001 35.2949C7.89001 36.0708 8.51905 36.6999 9.29501 36.6999Z" fill="#2BF5BA"></path>
<path d="M17.0857 23.3228C22.6321 19.7154 25.0352 13.5727 22.4531 9.60265C19.871 5.63264 13.2815 5.33869 7.73509 8.9461C2.18865 12.5535 -0.214425 18.6962 2.36767 22.6662C4.94977 26.6362 11.5392 26.9302 17.0857 23.3228Z" fill="#2BF5BA"></path>
</g>
<g id="illu_bg_first-time-participant-v2_2">
<g id="stroke">
<g id="Group">
<path id="Vector" d="M135.655 81.02L122.335 78.56C121.99 79.04 121.64 79.485 121.29 79.91C121.52 79.505 121.745 79.085 121.97 78.655C117.9 77.71 116.83 73.11 117.555 65.8C112.305 70.755 107.935 70.545 104.01 66.085C104.11 74.21 102.455 77.55 99.7049 78.65L86.4899 81.01C80.6399 81.195 76.7049 85.705 77.4649 91.5L78.3599 117.145L143.565 117.185L144.445 89.95C144.555 85.035 140.585 80.995 135.67 81.025L135.655 81.02Z" fill="#AAFBE3"></path>
<path id="Vector_2" d="M124.115 79.1599C123.7 80.9849 122.31 82.6449 121.885 83.1849C116.35 90.1999 104.75 90.2049 99.3599 83.0949C98.9749 82.5899 97.4199 80.2149 97.1899 79.0399L99.3899 78.6499C106.41 89.2849 117.105 86.3049 121.83 78.9349L124.12 79.1599H124.115Z" fill="#2BF5BA"></path>
<path id="Vector_3" d="M124.535 47.0401C123.75 46.9351 122.98 47.3151 122.86 48.7301C122.56 38.1451 121.725 35.8951 121.725 35.8951C121.39 35.4101 121.535 35.7851 118.645 35.1751L115.64 33.9601C113.775 39.7701 109.48 35.0251 109.48 35.0251C107.87 36.7101 106.695 34.8901 106.695 34.8901C105.255 37.2601 101.22 34.2601 101.22 34.2601C101.22 34.2601 103.815 29.5401 101.15 34.3601C98.4898 39.1851 98.4648 44.1051 98.4648 44.1051C98.4648 44.1051 98.5398 46.0251 98.5998 48.2101C98.3548 47.2251 97.6848 46.9501 97.0098 47.0451C95.8598 47.2001 94.3548 48.2051 95.4648 50.4601C96.9198 53.4051 96.2148 56.6801 99.0398 56.5301L99.0198 56.1051C100.66 64.5501 107.94 70.7901 110.785 70.5851C113.855 70.3651 120.895 64.0001 122.56 55.3401L122.505 56.5301C125.33 56.6751 124.625 53.4051 126.08 50.4601C127.19 48.2051 125.685 47.2051 124.535 47.0451V47.0401Z" fill="#AAFBE3"></path>
<path id="Vector_4" d="M128.495 36.1851C128.805 36.4351 129.11 36.6851 129.42 36.9401C129.155 36.6401 128.845 36.3851 128.495 36.1851Z" fill="#EDEDED"></path>
<path id="Vector_5" d="M130.315 39.525C130.315 37.45 128.715 35.76 126.72 35.7C127.41 35.21 127.845 34.395 127.805 33.485C127.745 32.06 126.535 30.95 125.11 31.01C125.04 31.01 124.98 31.03 124.91 31.04C125.11 30.565 125.22 30.05 125.22 29.505C125.22 27.31 123.44 25.53 121.245 25.53C120.205 25.53 119.26 25.935 118.55 26.59C118.575 26.425 118.585 26.255 118.58 26.085C118.52 24.66 117.31 23.55 115.885 23.61C115.145 23.64 114.5 23.985 114.05 24.5C113.685 23.28 112.57 22.385 111.23 22.385C110.295 22.385 109.47 22.83 108.93 23.505C107.74 22.775 106.185 23.115 105.415 24.29C105.36 24.375 105.325 24.46 105.28 24.55C104.585 23.96 103.69 23.605 102.71 23.605C100.515 23.605 98.735 25.385 98.735 27.58C98.735 27.84 98.76 28.09 98.81 28.335C98.66 28.31 98.515 28.29 98.36 28.29C96.73 28.29 95.405 29.615 95.405 31.245C95.405 31.705 95.52 32.14 95.71 32.525C94.49 32.735 93.56 33.79 93.56 35.07C93.56 35.57 93.71 36.03 93.95 36.425C92.415 36.855 91.29 38.26 91.29 39.93C91.29 41.295 92.04 42.485 93.155 43.11C92.72 43.625 92.45 44.28 92.45 45.005C92.45 46.635 93.775 47.96 95.405 47.96C96.16 46.81 98.27 46.95 98.63 47.9C98.63 46.165 98.52 44.93 98.515 44.01C98.685 44.035 98.86 44.05 99.04 44.05C101.1 44.05 102.78 42.4 102.825 40.355C103.23 40.2 103.595 39.955 103.895 39.64C105.1 39.855 106.345 39.41 107.15 38.555C107.725 38.87 108.415 39 109.075 38.915C109.73 40.08 110.975 40.855 112.37 40.855C113.765 40.855 115.1 40.02 115.73 38.785C115.865 38.785 116 38.77 116.135 38.745C116.82 39.765 117.975 40.405 119.27 40.405C119.31 40.405 119.345 40.405 119.38 40.4C121.08 49.545 121.695 59.005 115.165 66.84C114.03 68.26 112.065 69.27 110.21 70.53C107.62 70.2 105.065 67.735 104.005 66.08C103.98 66.34 104.17 67.79 104.17 68.055C104.17 72.28 107.12 75.7 110.76 75.7C114.4 75.7 117.35 72.275 117.35 68.055C117.35 67.525 117.425 66.64 117.55 65.795C117.355 65.975 117.175 66.155 116.995 66.335C120.135 62.825 123.025 57.43 122.915 51.275C122.9 50.31 122.875 49.405 122.85 48.55C123.28 46.655 124.655 46.875 126.415 47.955C128.045 47.955 129.37 46.63 129.37 45C129.37 44.15 129.005 43.39 128.43 42.85C129.55 42.19 130.31 40.95 130.31 39.52L130.315 39.525ZM110.28 70.545C110.28 70.545 110.255 70.545 110.24 70.545C110.255 70.545 110.265 70.545 110.28 70.545ZM110.785 70.575C112.085 70.48 114.095 69.285 116.11 67.28C114.49 69.055 113.265 70.575 110.785 70.575Z" fill="#9FF0D8"></path>
<path id="Vector_6" d="M130.4 39.525C130.4 37.45 128.8 35.76 126.805 35.7C127.495 35.21 127.93 34.395 127.89 33.485C127.83 32.06 126.62 30.95 125.195 31.01C125.125 31.01 125.065 31.03 124.995 31.04C125.195 30.565 125.305 30.05 125.305 29.505C125.305 27.31 123.525 25.53 121.33 25.53C120.29 25.53 119.345 25.935 118.635 26.59C118.66 26.425 118.67 26.255 118.665 26.085C118.605 24.66 117.395 23.55 115.97 23.61C115.23 23.64 114.585 23.985 114.135 24.5C113.77 23.28 112.655 22.385 111.315 22.385C110.38 22.385 109.555 22.83 109.015 23.505C107.825 22.775 106.27 23.115 105.5 24.29C105.445 24.375 105.41 24.46 105.365 24.55C104.67 23.96 103.775 23.605 102.795 23.605C100.6 23.605 98.82 25.385 98.82 27.58C98.82 27.84 98.845 28.09 98.895 28.335C98.745 28.31 98.6 28.29 98.445 28.29C96.815 28.29 95.49 29.615 95.49 31.245C95.49 31.705 95.605 32.14 95.795 32.525C94.575 32.735 93.645 33.79 93.645 35.07C93.645 35.57 93.795 36.03 94.035 36.425C92.5 36.855 91.375 38.26 91.375 39.93C91.375 41.295 92.125 42.485 93.24 43.11C96.42 21.535 128.185 17.81 126.765 47.935C128.275 47.8 129.46 46.55 129.46 45.005C129.46 44.155 129.095 43.395 128.52 42.855C129.64 42.195 130.4 40.955 130.4 39.525Z" fill="#AAFBE3"></path>
<path id="Vector_7" d="M143.415 117.065L78.1151 117.13L77.4551 100.285H143.735L143.415 117.065Z" fill="#2AF5BA"></path>
<g id="Group_2">
<path id="Vector_8" d="M106.95 61.6201C106.85 61.7151 106.845 61.8751 106.94 61.9751C107.98 63.0851 109.225 63.6701 110.53 63.6751C111.835 63.6751 113.075 63.0901 114.125 61.9801C114.22 61.8801 114.215 61.7201 114.115 61.6251C114.015 61.5301 113.855 61.5351 113.76 61.6351C112.81 62.6451 111.69 63.1751 110.53 63.1751C109.365 63.1751 108.25 62.6401 107.305 61.6351C107.21 61.5351 107.05 61.5301 106.95 61.6251V61.6201Z" fill="#156678"></path>
<path id="Vector_9" d="M112.05 65.8301L109.015 65.8401C108.875 65.8401 108.765 65.9551 108.765 66.0901C108.765 66.2251 108.875 66.3401 109.015 66.3401L112.05 66.3301C112.19 66.3301 112.3 66.2151 112.3 66.0801C112.3 65.9451 112.19 65.8301 112.05 65.8301Z" fill="#156678"></path>
<path id="Vector_10" d="M107.2 49.0149C107.2 48.8749 107.09 48.7649 106.95 48.7649C106.81 48.7649 106.7 48.8749 106.7 49.0149C106.7 49.9949 105.97 50.7949 105.07 50.7949C104.17 50.7949 103.445 49.9949 103.445 49.0149C103.445 48.8749 103.335 48.7649 103.195 48.7649C103.055 48.7649 102.945 48.8749 102.945 49.0149C102.945 50.2699 103.9 51.2949 105.07 51.2949C106.24 51.2949 107.2 50.2749 107.2 49.0149Z" fill="#156678"></path>
<path id="Vector_11" d="M118.069 48.7649C117.929 48.7649 117.819 48.8749 117.819 49.0149C117.819 49.9949 117.089 50.7949 116.189 50.7949C115.289 50.7949 114.564 49.9949 114.564 49.0149C114.564 48.8749 114.454 48.7649 114.314 48.7649C114.174 48.7649 114.064 48.8749 114.064 49.0149C114.064 50.2699 115.019 51.2949 116.189 51.2949C117.359 51.2949 118.319 50.2749 118.319 49.0149C118.319 48.8749 118.209 48.7649 118.069 48.7649Z" fill="#156678"></path>
<path id="Vector_12" d="M109.335 57.0651C109.635 57.3151 110.065 57.4401 110.495 57.4401C110.845 57.4401 111.185 57.3551 111.45 57.1801C111.565 57.1051 111.595 56.9501 111.52 56.8351C111.44 56.7201 111.285 56.6901 111.175 56.7651C110.82 57.0001 110.065 57.0151 109.66 56.6801C109.375 56.4451 109.335 56.0901 109.52 55.6501C110.41 54.1301 111.02 52.4751 111.325 50.7401L111.56 49.3901C111.585 49.2551 111.495 49.1251 111.355 49.1001C111.22 49.0751 111.09 49.1651 111.065 49.3051L110.83 50.6551C110.535 52.3351 109.95 53.9301 109.07 55.4301C108.68 56.3451 109.07 56.8501 109.335 57.0701V57.0651Z" fill="#156678"></path>
<path id="Vector_13" d="M107.07 45.2299C107.425 45.2649 107.795 45.3049 108.175 45.3399C108.31 45.3499 108.435 45.2499 108.445 45.1149C108.455 44.9799 108.355 44.8549 108.22 44.8449C107.845 44.8099 107.48 44.7699 107.125 44.7349C104.125 44.4249 101.755 44.1799 100.61 46.4449C100.55 46.5699 100.595 46.7199 100.72 46.7799C100.755 46.7999 100.795 46.8049 100.835 46.8049C100.925 46.8049 101.015 46.7549 101.06 46.6699C102.05 44.7099 104.16 44.9299 107.075 45.2299H107.07Z" fill="#156678"></path>
<path id="Vector_14" d="M113.34 45.3399C113.715 45.3049 114.085 45.2649 114.445 45.2299C117.365 44.9249 119.47 44.7099 120.46 46.6699C120.505 46.7549 120.59 46.8049 120.685 46.8049C120.725 46.8049 120.76 46.7949 120.8 46.7799C120.925 46.7199 120.975 46.5649 120.91 46.4449C119.765 44.1799 117.395 44.4249 114.395 44.7349C114.04 44.7699 113.675 44.8099 113.3 44.8449C113.16 44.8599 113.06 44.9799 113.075 45.1149C113.09 45.2499 113.21 45.3499 113.345 45.3399H113.34Z" fill="#156678"></path>
<path id="Vector_15" d="M137.33 81.09L122.17 78.41C122.17 78.41 122.16 78.41 122.16 78.405C120.9 78.125 119.375 76.55 118.605 74.74C118.005 73.32 117.545 69.93 117.965 65.825C117.97 65.765 117.985 65.635 117.99 65.51C119.835 63.16 121.5 60.15 122.42 56.755C122.445 56.765 122.465 56.77 122.49 56.775C122.555 56.775 122.625 56.78 122.685 56.78C124.585 56.78 124.945 55.25 125.36 53.48C125.575 52.57 125.815 51.54 126.3 50.56C126.835 49.475 126.765 48.7 126.565 48.2C128.285 48.105 129.705 46.685 129.705 45.005C129.705 44.22 129.425 43.485 128.905 42.9C129.985 42.145 130.645 40.88 130.645 39.525C130.645 37.51 129.255 35.85 127.39 35.51C127.895 34.96 128.17 34.235 128.135 33.475C128.1 32.72 127.775 32.02 127.22 31.505C126.705 31.035 126.055 30.77 125.36 30.76C125.485 30.355 125.55 29.935 125.55 29.505C125.55 27.175 123.655 25.28 121.325 25.28C120.455 25.28 119.615 25.55 118.905 26.045C118.865 25.3 118.54 24.61 117.99 24.105C117.43 23.595 116.705 23.33 115.95 23.36C115.305 23.39 114.705 23.63 114.225 24.045C113.72 22.89 112.59 22.135 111.31 22.135C110.41 22.135 109.565 22.515 108.955 23.19C107.67 22.525 106.095 22.925 105.29 24.155C105.29 24.155 105.285 24.165 105.28 24.17C104.56 23.645 103.69 23.36 102.795 23.36C100.465 23.36 98.5699 25.255 98.5699 27.585C98.5699 27.74 98.5799 27.895 98.5949 28.05C98.5449 28.05 98.4949 28.045 98.4449 28.045C96.6799 28.045 95.2399 29.485 95.2399 31.25C95.2399 31.625 95.3099 31.995 95.4449 32.355C94.2399 32.7 93.3949 33.8 93.3949 35.075C93.3949 35.49 93.4899 35.905 93.6749 36.285C92.1649 36.845 91.1299 38.305 91.1299 39.935C91.1299 41.245 91.7899 42.46 92.8749 43.18C92.4899 43.725 92.2849 44.35 92.2849 45.01C92.2849 46.61 93.4499 47.935 94.9949 48.175C94.7849 48.67 94.6999 49.455 95.2449 50.565C95.7249 51.54 95.9699 52.575 96.1849 53.485C96.5999 55.25 96.9599 56.78 98.8599 56.78C98.9199 56.78 98.9849 56.78 99.0499 56.78C99.9349 60.28 101.655 63.41 103.59 65.825C103.59 65.825 103.59 65.83 103.59 65.835C104 69.835 103.505 73.26 102.87 74.75C102.075 76.62 100.67 78.115 99.4449 78.395L84.1349 81.1C79.9549 82.005 76.9199 85.77 76.9199 90.06L77.8699 117.15C77.8699 117.285 77.9849 117.39 78.1199 117.39H143.365C143.5 117.39 143.61 117.285 143.615 117.15L144.565 90.055C144.565 85.775 141.53 82.015 137.34 81.105L137.33 81.09ZM98.9349 52.745C98.9299 52.605 98.8249 52.495 98.6749 52.505C98.5349 52.51 98.4299 52.63 98.4399 52.765C98.4999 53.965 98.6699 55.135 98.9249 56.27C97.4399 56.305 97.1199 55.285 96.6699 53.36C96.4499 52.425 96.1999 51.36 95.6949 50.335C95.2799 49.495 95.2199 48.79 95.5099 48.24C95.8299 47.64 96.5149 47.35 97.0499 47.28C97.3049 47.245 97.6699 47.255 97.9549 47.505C98.2849 47.79 98.4549 48.345 98.4549 49.11C98.4549 49.25 98.5649 49.36 98.7049 49.36C98.8449 49.36 98.9549 49.25 98.9549 49.11C98.9549 48.185 98.7299 47.52 98.2799 47.13C97.9399 46.835 97.4949 46.715 96.9749 46.785C96.4149 46.86 95.7199 47.14 95.2749 47.69C93.8699 47.585 92.7799 46.425 92.7799 45C92.7799 44.365 93.0049 43.765 93.4249 43.265C93.4749 43.21 93.4949 43.135 93.4799 43.06C93.4649 42.985 93.4199 42.925 93.3549 42.885C92.2849 42.285 91.6199 41.15 91.6199 39.925C91.6199 38.41 92.6399 37.07 94.0949 36.66C94.1699 36.64 94.2299 36.585 94.2599 36.51C94.2899 36.435 94.2799 36.355 94.2399 36.29C94.0099 35.915 93.8849 35.49 93.8849 35.065C93.8849 33.93 94.6999 32.96 95.8249 32.77C95.8999 32.755 95.9699 32.71 96.0049 32.64C96.0399 32.57 96.0399 32.485 96.0049 32.415C95.8199 32.035 95.7249 31.64 95.7249 31.24C95.7249 29.75 96.9399 28.535 98.4299 28.535C98.5649 28.535 98.6999 28.555 98.8399 28.575C98.9199 28.59 99.0049 28.56 99.0599 28.5C99.1149 28.44 99.1399 28.36 99.1249 28.28C99.0799 28.04 99.0549 27.8 99.0549 27.57C99.0549 25.515 100.725 23.845 102.78 23.845C103.66 23.845 104.515 24.16 105.185 24.73C105.245 24.78 105.32 24.8 105.395 24.785C105.47 24.77 105.535 24.72 105.57 24.65L105.61 24.57C105.635 24.52 105.66 24.465 105.69 24.415C106.385 23.355 107.78 23.04 108.865 23.71C108.97 23.775 109.115 23.75 109.19 23.655C109.71 23 110.48 22.625 111.295 22.625C112.49 22.625 113.525 23.4 113.875 24.56C113.9 24.645 113.975 24.715 114.06 24.735C114.15 24.755 114.24 24.725 114.3 24.655C114.73 24.165 115.315 23.88 115.96 23.85C116.585 23.82 117.18 24.04 117.64 24.465C118.1 24.885 118.37 25.465 118.395 26.085C118.4 26.235 118.395 26.385 118.37 26.54C118.355 26.645 118.405 26.75 118.5 26.8C118.59 26.85 118.71 26.835 118.785 26.765C119.475 26.125 120.375 25.77 121.31 25.77C123.365 25.77 125.035 27.44 125.035 29.495C125.035 29.995 124.94 30.48 124.745 30.935C124.71 31.015 124.72 31.11 124.775 31.18C124.83 31.25 124.915 31.29 125.005 31.28C125.035 31.28 125.065 31.27 125.1 31.265C125.13 31.26 125.155 31.255 125.185 31.255C125.81 31.23 126.405 31.445 126.865 31.87C127.325 32.295 127.595 32.87 127.62 33.49C127.655 34.28 127.29 35.03 126.64 35.49C126.555 35.55 126.515 35.665 126.545 35.765C126.575 35.87 126.67 35.94 126.775 35.94C128.655 36 130.125 37.57 130.125 39.515C130.125 40.8 129.45 41.995 128.37 42.63C128.3 42.67 128.255 42.74 128.25 42.82C128.245 42.9 128.27 42.975 128.33 43.03C128.885 43.55 129.19 44.25 129.19 45C129.19 46.465 127.9 47.705 126.37 47.705C126.335 47.705 126.305 47.71 126.28 47.725C125.835 47.15 125.12 46.86 124.55 46.785C124.035 46.715 123.585 46.835 123.245 47.13C123.21 47.16 123.19 47.2 123.155 47.235C123.26 42.095 122.125 36.625 122.115 36.565C122.09 36.44 121.98 36.355 121.845 36.37C121.72 36.385 121.62 36.49 121.62 36.62C121.62 37.925 120.555 38.99 119.25 38.99C118.145 38.99 117.195 38.235 116.945 37.155C116.925 37.07 116.86 37 116.775 36.975C116.69 36.95 116.6 36.97 116.535 37.025C116.13 37.39 115.555 37.48 115.045 37.22C114.975 37.185 114.89 37.185 114.815 37.22C114.745 37.255 114.695 37.325 114.685 37.405C114.52 38.56 113.515 39.435 112.35 39.435C111.185 39.435 110.18 38.56 110.015 37.395C110.005 37.31 109.95 37.235 109.87 37.2C109.79 37.165 109.7 37.17 109.63 37.22C109.34 37.415 109 37.52 108.65 37.52C108 37.52 107.405 37.16 107.095 36.575C107.045 36.485 106.95 36.43 106.845 36.445C106.745 36.455 106.66 36.53 106.63 36.63C106.37 37.6 105.49 38.275 104.495 38.275C104.16 38.275 103.83 38.195 103.505 38.03C103.44 38 103.37 37.995 103.3 38.02C103.235 38.045 103.18 38.1 103.155 38.165C102.935 38.75 102.39 39.125 101.77 39.125C101.68 39.125 101.59 39.115 101.505 39.1C101.415 39.085 101.325 39.115 101.27 39.185C101.215 39.255 101.195 39.35 101.23 39.435C101.335 39.715 101.39 39.995 101.39 40.265C101.39 41.57 100.325 42.635 99.0199 42.635C97.7149 42.635 96.6499 41.57 96.6499 40.265C96.6499 40.125 96.5399 40.015 96.3999 40.015C96.2599 40.015 96.1499 40.125 96.1499 40.265C96.1499 41.85 97.4399 43.135 99.0199 43.135C100.6 43.135 101.89 41.845 101.89 40.265C101.89 40.055 101.865 39.845 101.815 39.63C102.54 39.615 103.18 39.22 103.52 38.59C103.84 38.715 104.165 38.78 104.495 38.78C105.545 38.78 106.49 38.165 106.935 37.235C107.36 37.73 107.98 38.025 108.645 38.025C108.975 38.025 109.295 37.955 109.59 37.82C109.925 39.05 111.055 39.94 112.35 39.94C113.645 39.94 114.795 39.035 115.12 37.79C115.605 37.945 116.135 37.875 116.565 37.62C116.975 38.74 118.035 39.49 119.25 39.49C120.395 39.49 121.385 38.815 121.845 37.845C122.215 39.975 122.89 44.63 122.59 48.69C122.59 48.71 122.59 48.725 122.595 48.745C122.585 48.865 122.57 48.985 122.57 49.115C122.57 49.245 122.68 49.365 122.82 49.365C122.96 49.365 123.07 49.255 123.07 49.115C123.07 48.355 123.245 47.8 123.57 47.51C123.855 47.26 124.22 47.25 124.475 47.285C125.01 47.355 125.695 47.65 126.015 48.245C126.305 48.795 126.245 49.5 125.83 50.34C125.325 51.365 125.075 52.43 124.855 53.365C124.395 55.32 124.085 56.34 122.525 56.275C122.915 54.685 123.145 53.01 123.145 51.28C123.145 51.14 123.035 51.03 122.895 51.03C122.755 51.03 122.645 51.14 122.645 51.28C122.645 61.88 114.11 70.325 110.76 70.325C107.41 70.325 99.3999 62.9 98.9099 52.745H98.9349ZM103.325 74.935C103.945 73.48 104.435 70.265 104.145 66.485C106.485 69.18 109.05 70.825 110.785 70.825C112.345 70.825 114.985 69.09 117.43 66.2C117.075 70.2 117.54 73.515 118.145 74.935C118.905 76.725 120.32 78.25 121.635 78.765C121.455 79.185 121.185 79.64 120.835 80.125C118.495 83.355 114.71 85.275 110.69 85.275C110.65 85.275 110.61 85.275 110.57 85.275C106.505 85.235 102.86 83.33 100.57 80.04C100.26 79.595 100.025 79.18 99.8549 78.795C101.34 78.275 102.65 76.535 103.325 74.945V74.935ZM99.3649 78.91C99.5499 79.35 99.8199 79.82 100.165 80.32C102.545 83.745 106.34 85.73 110.57 85.77C110.61 85.77 110.655 85.77 110.695 85.77C114.88 85.77 118.815 83.775 121.245 80.415C121.63 79.88 121.925 79.375 122.125 78.91L123.655 79.18L123.84 79.215C123.43 80.84 122.235 82.35 121.775 82.93L121.69 83.035C119 86.445 114.605 88.4 109.955 88.265C105.61 88.135 101.825 86.2 99.5649 82.955L99.4049 82.725C98.8899 81.99 98.1249 80.895 97.4749 79.245L99.3649 78.91ZM143.115 116.88H133.435L134.555 96.47C134.565 96.33 134.455 96.215 134.32 96.205C134.175 96.19 134.065 96.305 134.055 96.44L132.935 116.88H88.7449L87.6249 96.44C87.6199 96.3 87.5199 96.19 87.3599 96.205C87.2199 96.21 87.1149 96.33 87.1249 96.47L88.2449 116.88H78.3499L77.4099 90.04C77.4099 85.995 80.2799 82.44 84.2199 81.58L96.9649 79.325C97.6399 81.085 98.4449 82.235 98.9899 83.005L99.1499 83.23C101.505 86.605 105.435 88.62 109.935 88.75C110.095 88.75 110.255 88.755 110.41 88.755C115.045 88.755 119.38 86.75 122.075 83.33L122.155 83.225C122.635 82.62 123.895 81.03 124.325 79.29L137.23 81.57C141.185 82.425 144.05 85.985 144.05 90.02L143.11 116.865L143.115 116.88Z" fill="#156678"></path>
</g>
</g>
<g id="Group_3">
<path id="Vector_16" d="M163.965 36.1598H157.92V30.1148C157.92 28.8398 156.89 27.8098 155.615 27.8098H154.82C153.545 27.8098 152.515 28.8398 152.515 30.1148V36.1598H146.47C145.195 36.1598 144.165 37.1898 144.165 38.4648V39.2598C144.165 40.5348 145.195 41.5648 146.47 41.5648H152.515V47.6098C152.515 48.8848 153.545 49.9148 154.82 49.9148H155.615C156.89 49.9148 157.92 48.8848 157.92 47.6098V41.5648H163.965C165.24 41.5648 166.27 40.5348 166.27 39.2598V38.4648C166.27 37.1898 165.24 36.1598 163.965 36.1598Z" fill="white"></path>
<path id="Vector_17" d="M155.615 50.1648H154.82C153.41 50.1648 152.265 49.0198 152.265 47.6098V41.8148H146.47C145.06 41.8148 143.915 40.6698 143.915 39.2598V38.4648C143.915 37.0548 145.06 35.9098 146.47 35.9098H152.265V30.1148C152.265 28.7048 153.41 27.5598 154.82 27.5598H155.615C157.025 27.5598 158.17 28.7048 158.17 30.1148V35.9098H163.965C165.375 35.9098 166.52 37.0548 166.52 38.4648V39.2598C166.52 40.6698 165.375 41.8148 163.965 41.8148H158.17V47.6098C158.17 49.0198 157.025 50.1648 155.615 50.1648ZM146.475 36.4098C145.34 36.4098 144.42 37.3298 144.42 38.4648V39.2598C144.42 40.3948 145.34 41.3148 146.475 41.3148H152.52C152.66 41.3148 152.77 41.4248 152.77 41.5648V47.6098C152.77 48.7448 153.69 49.6648 154.825 49.6648H155.62C156.755 49.6648 157.675 48.7448 157.675 47.6098V41.5648C157.675 41.4248 157.785 41.3148 157.925 41.3148H163.97C165.105 41.3148 166.025 40.3948 166.025 39.2598V38.4648C166.025 37.3298 165.105 36.4098 163.97 36.4098H157.925C157.785 36.4098 157.675 36.2998 157.675 36.1598V30.1148C157.675 28.9798 156.755 28.0598 155.62 28.0598H154.825C153.69 28.0598 152.77 28.9798 152.77 30.1148V36.1598C152.77 36.2998 152.66 36.4098 152.52 36.4098H146.475Z" fill="#07064E"></path>
</g>
<g id="Group_4">
<path id="Vector_18" d="M60.3203 80.5648C60.7553 87.4048 64.0103 91.5098 72.8203 100.455C79.0603 94.4648 84.4703 89.0948 85.2603 80.4198L83.5503 80.2248C82.5053 86.2148 79.0603 91.6798 72.8203 96.5898C67.5903 92.5048 62.6703 87.1948 62.1703 80.1648L60.3203 80.5698V80.5648Z" fill="#2BF5BA"></path>
<g id="Group_5">
<path id="Vector_19" d="M72.8204 96.5897C72.8204 96.5897 83.0854 89.2697 83.4704 80.1747C80.1604 78.6597 78.7504 75.2347 78.8504 68.6047C73.7854 73.3847 70.5154 72.9097 66.7254 68.6047C66.8204 76.5847 64.8504 78.5847 62.1704 80.2447C62.3454 87.7897 72.8204 96.5897 72.8204 96.5897Z" fill="white"></path>
<path id="Vector_20" d="M97.0105 82.4748L85.4705 80.4648C84.9455 91.4998 72.8205 100.46 72.8205 100.46C72.8205 100.46 60.6005 90.1648 60.3405 80.6798L49.5655 82.4648C43.9205 82.6448 40.6155 86.9448 40.8555 92.5848L41.7205 117.33L104.64 117.37L105.485 91.0848C105.59 86.3398 101.76 82.4448 97.0155 82.4698L97.0105 82.4748Z" fill="white"></path>
</g>
<path id="Vector_21" d="M104.731 109.125H94.9355L95.0956 104.79H104.881L104.731 109.125Z" fill="#2BF5BA"></path>
<path id="Vector_22" d="M41.2301 109.125H51.0251L50.8651 104.79H41.0801L41.2301 109.125Z" fill="#2BF5BA"></path>
<path id="Vector_23" d="M72.7853 72.3948C70.4053 72.3948 68.3153 70.8598 67.1103 68.5498C67.0853 68.8498 67.0703 69.1548 67.0703 69.4648C67.0703 73.8848 69.6303 77.4648 72.7853 77.4648C75.9403 77.4648 78.4953 73.8848 78.4953 69.4648C78.4953 69.1548 78.4803 68.8498 78.4553 68.5498C77.2553 70.8598 75.1653 72.3948 72.7803 72.3948H72.7853Z" fill="#EBEBEB"></path>
<path id="Vector_24" d="M96.3504 64.0448C94.4554 60.3098 90.9205 54.7148 90.2855 47.0648C88.9955 31.4148 76.5154 27.5698 72.5005 32.7598C68.4855 27.5698 56.0055 31.4148 54.7155 47.0648C54.0855 54.7198 50.5505 60.3098 48.6505 64.0448C48.3455 64.6448 48.8755 65.3348 49.5355 65.1998L53.6455 64.3698C54.1455 64.2698 54.6105 64.6498 54.6155 65.1598L54.6505 70.5248C54.6505 71.1248 55.2905 71.5148 55.8255 71.2398L60.1155 69.0748C60.6055 68.8298 61.1904 69.1298 61.2804 69.6698L61.9805 73.9898C62.0705 74.5498 62.6955 74.8448 63.1855 74.5598L66.2855 72.7598H78.7104L81.8104 74.5598C82.3004 74.8448 82.9254 74.5498 83.0154 73.9898L83.7154 69.6698C83.8054 69.1298 84.3904 68.8298 84.8804 69.0748L89.1704 71.2398C89.7054 71.5098 90.3405 71.1248 90.3455 70.5248L90.3804 65.1598C90.3804 64.6498 90.8504 64.2698 91.3504 64.3698L95.4604 65.1998C96.1204 65.3348 96.6505 64.6448 96.3455 64.0448H96.3504Z" fill="#EDEDED"></path>
<path id="Vector_25" d="M87.8953 52.9748C88.3853 50.5998 87.3503 49.4698 86.2403 49.3198C85.4153 49.2098 84.7703 50.0098 84.7703 51.6848C84.7603 51.7798 84.7553 51.8698 84.7503 51.9648C84.5753 48.5798 83.6253 44.5798 83.6253 44.5798C83.6253 44.5798 80.3503 45.2898 77.0253 42.8798C73.2003 40.1798 72.7703 36.8398 72.7703 36.8398C71.9703 40.3898 67.6953 44.9548 62.2503 44.8348C61.4953 47.5048 61.4703 49.2548 61.4253 52.4398C61.4253 52.7448 61.4253 53.0498 61.4253 53.3498C61.3953 52.8048 61.3703 52.2448 61.3453 51.6848C61.3453 50.0098 60.7003 49.2048 59.8753 49.3198C58.7653 49.4698 57.7353 50.5998 58.2203 52.9748C58.4853 54.2748 59.1903 57.0998 60.5353 58.3348C60.1803 58.5348 59.9303 58.9248 59.9303 59.3848C59.9303 60.0398 60.4303 60.5698 61.0453 60.5698C61.6603 60.5698 62.1603 60.0398 62.1603 59.3848C62.1603 59.2198 62.1303 59.0648 62.0753 58.9248C62.0853 58.9248 62.1003 58.9248 62.1103 58.9248C64.0003 67.1148 69.3553 72.5998 72.6903 72.3948C76.0303 72.1898 82.5753 65.5998 84.3253 57.1248C84.2503 57.7148 84.1553 58.2298 84.0303 58.6598C83.8803 58.8598 83.7903 59.1098 83.7903 59.3898C83.7903 60.0448 84.2903 60.5748 84.9053 60.5748C85.5203 60.5748 86.0203 60.0448 86.0203 59.3898C86.0203 58.9748 85.8203 58.6098 85.5153 58.3998C86.9003 57.1948 87.6203 54.2998 87.8903 52.9798L87.8953 52.9748Z" fill="white"></path>
<path id="Vector_26" d="M72.6405 34.8199C82.0555 30.5549 86.6405 39.7599 90.2405 44.7449C88.0155 32.4999 78.2455 27.5799 72.7505 32.7899C66.4355 26.4999 55.9105 34.5649 55.0405 46.2899C59.0005 39.4049 63.6455 30.5899 72.6405 34.8249V34.8199Z" fill="white"></path>
<g id="Group_6">
<path id="Vector_27" d="M83.6254 44.5798C83.6254 44.5798 82.5004 44.8198 80.9054 44.5398C84.1854 55.5098 78.7454 69.5048 71.2554 72.1698C71.7604 72.3398 72.2454 72.4198 72.6954 72.3948C76.5404 72.1598 84.6254 63.4698 84.7754 53.1848C84.8254 49.6348 83.6254 44.5848 83.6254 44.5848V44.5798Z" fill="#EDEDED"></path>
<g id="Group_7">
<path id="Vector_28" d="M72.7654 65.1348C71.1254 65.1348 69.4854 64.5948 68.0854 63.5148C67.9754 63.4298 67.9554 63.2748 68.0404 63.1648C68.1254 63.0548 68.2854 63.0348 68.3904 63.1198C71.0054 65.1398 74.5204 65.1398 77.1504 63.1198C77.2604 63.0348 77.4154 63.0548 77.5004 63.1648C77.5854 63.2748 77.5654 63.4298 77.4554 63.5148C76.0504 64.5948 74.4104 65.1348 72.7654 65.1348Z" fill="#07064E"></path>
<path id="Vector_29" d="M72.6301 58.7699C72.1551 58.7699 71.7201 58.5449 71.4251 58.1349C71.0551 57.6199 71.0101 56.9299 71.3101 56.3749C71.9401 55.2049 72.3251 53.6199 72.5551 51.2299C72.5701 51.0899 72.6951 50.9949 72.8301 51.0049C72.9701 51.0199 73.0701 51.1399 73.0551 51.2799C72.8151 53.7399 72.4151 55.3849 71.7501 56.6149C71.5401 56.9999 71.5751 57.4849 71.8301 57.8449C72.0651 58.1699 72.4201 58.3199 72.8051 58.2549C72.9151 58.2349 73.0101 58.2049 73.0901 58.1599C73.2101 58.0949 73.3651 58.1349 73.4301 58.2549C73.5001 58.3749 73.4551 58.5299 73.3351 58.5949C73.2051 58.6649 73.0601 58.7199 72.8901 58.7449C72.8001 58.7599 72.7151 58.7699 72.6301 58.7699Z" fill="#07064E"></path>
<g id="Group_8">
<path id="Vector_30" d="M68.6101 53.2599C69.0151 52.8549 69.2701 52.2849 69.2701 51.6499C69.2701 51.5099 69.1601 51.3999 69.0201 51.3999C68.8801 51.3999 68.7701 51.5099 68.7701 51.6499C68.7701 52.5899 68.0701 53.3549 67.2101 53.3549C66.3501 53.3549 65.6501 52.5899 65.6501 51.6499C65.6501 51.5099 65.5401 51.3999 65.4001 51.3999C65.2601 51.3999 65.1501 51.5099 65.1501 51.6499C65.1501 52.2849 65.4051 52.8549 65.8101 53.2599L65.0501 54.0199C64.9501 54.1199 64.9501 54.2749 65.0501 54.3749C65.1001 54.4249 65.1651 54.4499 65.2251 54.4499C65.2851 54.4499 65.3551 54.4249 65.4001 54.3749L66.2051 53.5699C66.4351 53.7049 66.6851 53.7949 66.9551 53.8349V54.8899C66.9551 55.0299 67.0651 55.1399 67.2051 55.1399C67.3451 55.1399 67.4551 55.0299 67.4551 54.8899V53.8349C67.7251 53.7999 67.9801 53.7099 68.2051 53.5699L69.0101 54.3749C69.0601 54.4249 69.1251 54.4499 69.1851 54.4499C69.2451 54.4499 69.3151 54.4249 69.3601 54.3749C69.4601 54.2749 69.4601 54.1199 69.3601 54.0199L68.6001 53.2599H68.6101Z" fill="#07064E"></path>
<path id="Vector_31" d="M80.1001 54.0199L79.3401 53.2599C79.7451 52.8549 80.0001 52.2849 80.0001 51.6499C80.0001 51.5099 79.8901 51.3999 79.7501 51.3999C79.6101 51.3999 79.5001 51.5099 79.5001 51.6499C79.5001 52.5899 78.8001 53.3549 77.9401 53.3549C77.0801 53.3549 76.3801 52.5899 76.3801 51.6499C76.3801 51.5099 76.2701 51.3999 76.1301 51.3999C75.9901 51.3999 75.8801 51.5099 75.8801 51.6499C75.8801 52.2849 76.1351 52.8549 76.5401 53.2599L75.7801 54.0199C75.6801 54.1199 75.6801 54.2749 75.7801 54.3749C75.8301 54.4249 75.8951 54.4499 75.9551 54.4499C76.0151 54.4499 76.0851 54.4249 76.1301 54.3749L76.9351 53.5699C77.1651 53.7049 77.4151 53.7949 77.6851 53.8349V54.8899C77.6851 55.0299 77.7951 55.1399 77.9351 55.1399C78.0751 55.1399 78.1851 55.0299 78.1851 54.8899V53.8349C78.4551 53.7999 78.7101 53.7099 78.9351 53.5699L79.7401 54.3749C79.7901 54.4249 79.8551 54.4499 79.9151 54.4499C79.9751 54.4499 80.0451 54.4249 80.0901 54.3749C80.1901 54.2749 80.1901 54.1199 80.0901 54.0199H80.1001Z" fill="#07064E"></path>
</g>
<path id="Vector_32" d="M63.5753 48.8749C63.4753 48.8749 63.3853 48.8149 63.3453 48.7199C63.2953 48.5899 63.3552 48.4449 63.4802 48.3949C65.6502 47.5099 67.6253 47.1699 70.1753 48.3999C70.3003 48.4599 70.3503 48.6099 70.2903 48.7349C70.2303 48.8599 70.0803 48.9099 69.9553 48.8499C67.5703 47.6999 65.7203 48.0199 63.6653 48.8549C63.6353 48.8699 63.6052 48.8749 63.5702 48.8749H63.5753Z" fill="#07064E"></path>
<path id="Vector_33" d="M81.8703 48.8749C81.8403 48.8749 81.8053 48.8699 81.7753 48.8549C79.7253 48.0199 77.8753 47.6999 75.4853 48.8499C75.3653 48.9099 75.2103 48.8599 75.1503 48.7349C75.0903 48.6099 75.1403 48.4599 75.2653 48.3999C77.8153 47.1699 79.7853 47.5099 81.9603 48.3949C82.0903 48.4449 82.1503 48.5949 82.0953 48.7199C82.0553 48.8149 81.9603 48.8749 81.8653 48.8749H81.8703Z" fill="#07064E"></path>
</g>
<path id="Vector_34" d="M98.6303 82.5348L85.5153 80.2148C85.5153 80.2148 85.5103 80.2148 85.5053 80.2148L83.8253 79.9998L83.5253 79.9298C82.3403 79.6648 80.9803 78.2198 80.2153 76.4148C79.8753 75.6198 79.4953 74.5748 79.2503 73.2448L81.9403 74.8098C82.1053 74.9048 82.2903 74.9548 82.4703 74.9548C82.6253 74.9548 82.7803 74.9198 82.9253 74.8548C83.2403 74.7048 83.4603 74.4098 83.5203 74.0648L84.2203 69.7448C84.2503 69.5648 84.3603 69.4198 84.5203 69.3348C84.6803 69.2548 84.8653 69.2548 85.0253 69.3348L89.3153 71.4998C89.6453 71.6648 90.0303 71.6498 90.3453 71.4598C90.6603 71.2648 90.8503 70.9298 90.8503 70.5648L90.8853 65.1998C90.8853 65.0298 90.9603 64.8748 91.0903 64.7698C91.2203 64.6648 91.3903 64.6198 91.5553 64.6548L95.6653 65.4848C96.0703 65.5648 96.4703 65.4148 96.7203 65.0848C96.9653 64.7598 97.0053 64.3348 96.8203 63.9698C96.5553 63.4448 96.2553 62.8898 95.9403 62.2898C93.9903 58.6298 91.3203 53.6098 90.7853 47.0798C89.9653 37.1148 84.7753 32.1148 80.1903 30.7598C77.2053 29.8748 74.3953 30.5098 72.7503 32.4048C71.1103 30.5098 68.2953 29.8798 65.3103 30.7598C60.7253 32.1148 55.5353 37.1148 54.7153 47.0798C54.1753 53.6098 51.5053 58.6298 49.5603 62.2898C49.2453 62.8848 48.9453 63.4448 48.6803 63.9698C48.4953 64.3348 48.5353 64.7598 48.7803 65.0848C49.0303 65.4098 49.4353 65.5648 49.8353 65.4848L53.9453 64.6548C54.1103 64.6198 54.2803 64.6648 54.4103 64.7698C54.5403 64.8748 54.6153 65.0348 54.6153 65.1998L54.6503 70.5648C54.6503 70.9348 54.8403 71.2698 55.1603 71.4598C55.4803 71.6498 55.8603 71.6698 56.1903 71.4998L60.4803 69.3348C60.6403 69.2548 60.8253 69.2548 60.9853 69.3348C61.1453 69.4148 61.2553 69.5648 61.2853 69.7448L61.9853 74.0648C62.0403 74.4098 62.2603 74.7048 62.5803 74.8548C62.7253 74.9248 62.8803 74.9548 63.0353 74.9548C63.2203 74.9548 63.4053 74.9048 63.5653 74.8098L66.3303 73.1998C66.0903 74.5498 65.7053 75.6098 65.3653 76.4148C64.6003 78.2198 63.2453 79.6598 62.0603 79.9298L47.2903 82.5398C43.2503 83.4148 40.3203 87.0498 40.3203 91.1948L41.2353 117.335C41.2353 117.47 41.3503 117.575 41.4853 117.575H104.445C104.58 117.575 104.69 117.47 104.695 117.335L105.61 91.1848C105.61 87.0548 102.68 83.4148 98.6303 82.5398V82.5348ZM63.3103 74.3698C63.1503 74.4648 62.9603 74.4698 62.7903 74.3898C62.6203 74.3098 62.5053 74.1598 62.4753 73.9748L61.7753 69.6548C61.7203 69.3198 61.5153 69.0348 61.2103 68.8798C60.9053 68.7248 60.5553 68.7248 60.2503 68.8798L55.9603 71.0448C55.7853 71.1348 55.5853 71.1248 55.4153 71.0248C55.2503 70.9248 55.1503 70.7448 55.1453 70.5498L55.1103 65.1848C55.1103 64.8648 54.9653 64.5698 54.7203 64.3698C54.4753 64.1698 54.1553 64.0898 53.8403 64.1548L49.7303 64.9848C49.5153 65.0298 49.3053 64.9498 49.1703 64.7748C49.0403 64.5998 49.0203 64.3848 49.1153 64.1898C49.3803 63.6698 49.6753 63.1098 49.9903 62.5198C51.9603 58.8198 54.6553 53.7498 55.2003 47.1148C56.0003 37.4048 61.0153 32.5448 65.4403 31.2348C68.3253 30.3798 71.0303 31.0248 72.5103 32.9098C72.5253 32.9398 72.5503 32.9698 72.5753 32.9898C72.5853 32.9998 72.6003 32.9998 72.6103 33.0098C72.6103 33.0098 72.6103 33.0098 72.6153 33.0098C72.6403 33.0198 72.6653 33.0298 72.6903 33.0348C72.7003 33.0348 72.7153 33.0348 72.7253 33.0348C72.7403 33.0348 72.7553 33.0348 72.7703 33.0348C72.7953 33.0348 72.8153 33.0248 72.8403 33.0098C72.8403 33.0098 72.8453 33.0098 72.8503 33.0098C72.8603 33.0048 72.8753 32.9998 72.8853 32.9948C72.9153 32.9698 72.9353 32.9448 72.9503 32.9148C74.4353 31.0298 77.1353 30.3848 80.0203 31.2398C84.4453 32.5498 89.4603 37.4048 90.2603 47.1198C90.8053 53.7548 93.5053 58.8248 95.4753 62.5248C95.7903 63.1198 96.0853 63.6748 96.3503 64.1948C96.4503 64.3898 96.4303 64.6048 96.2953 64.7798C96.1603 64.9548 95.9503 65.0348 95.7353 64.9898L91.6253 64.1598C91.3153 64.0998 90.9953 64.1748 90.7453 64.3748C90.5003 64.5748 90.3553 64.8698 90.3553 65.1898L90.3203 70.5548C90.3203 70.7498 90.2203 70.9248 90.0503 71.0298C89.8853 71.1298 89.6803 71.1398 89.5053 71.0498L85.2153 68.8848C84.9103 68.7298 84.5603 68.7298 84.2553 68.8848C83.9503 69.0398 83.7453 69.3248 83.6903 69.6598L82.9903 73.9798C82.9603 74.1648 82.8453 74.3148 82.6753 74.3948C82.5053 74.4748 82.3153 74.4648 82.1553 74.3748L79.1103 72.6048C78.9553 71.4698 78.9053 70.1548 79.0603 68.6298C79.0603 68.5998 79.0603 68.5698 79.0503 68.5448C80.8853 66.4448 82.5953 63.5898 83.7103 60.1298C83.9503 60.5448 84.3803 60.8248 84.8753 60.8248C85.6253 60.8248 86.2403 60.1798 86.2403 59.3898C86.2403 59.0048 86.0953 58.6548 85.8553 58.3948C87.0703 57.1498 87.7603 54.7098 88.1053 53.0298C88.4353 51.4298 88.0753 50.4848 87.7153 49.9798C87.3603 49.4798 86.8353 49.1598 86.2403 49.0798C85.8603 49.0298 85.5153 49.1348 85.2303 49.3798C85.1003 49.4948 84.9903 49.6348 84.8903 49.7998C84.8653 49.4998 84.8353 49.1998 84.7953 48.8848C84.6203 47.4448 84.3203 46.0548 83.9053 44.7548C84.9703 44.4998 85.8353 43.9998 86.3053 43.3048C86.3803 43.1898 86.3503 43.0348 86.2353 42.9598C86.1203 42.8848 85.9653 42.9148 85.8903 43.0298C84.7253 44.7648 80.7653 45.1448 77.6103 43.0198C74.6153 41.0048 72.9653 38.6498 72.9653 36.3998C72.9653 36.2598 72.8553 36.1498 72.7153 36.1498C72.5753 36.1498 72.4653 36.2598 72.4653 36.3998C72.4653 38.6498 70.8153 41.0048 67.8203 43.0198C66.3853 43.9898 64.5953 44.5148 62.9253 44.4598C61.3753 44.4098 60.1103 43.8748 59.5403 43.0298C59.4603 42.9148 59.3053 42.8848 59.1953 42.9598C59.0803 43.0348 59.0503 43.1898 59.1253 43.3048C59.6553 44.0948 60.6853 44.6448 61.9553 44.8548C61.5303 46.3898 61.2553 48.0348 61.1353 49.7648C61.0453 49.6148 60.9353 49.4848 60.8153 49.3798C60.5303 49.1298 60.1853 49.0248 59.8053 49.0798C59.2103 49.1598 58.6853 49.4798 58.3303 49.9798C57.9703 50.4898 57.6103 51.4298 57.9403 53.0298C58.2803 54.6748 58.9453 57.0498 60.1153 58.3148C59.8303 58.5798 59.6453 58.9598 59.6453 59.3898C59.6453 60.1798 60.2553 60.8248 61.0103 60.8248C61.5153 60.8248 61.9503 60.5298 62.1853 60.1048C63.1803 63.6648 64.7253 66.5898 66.4353 68.7048C66.5803 70.1848 66.5303 71.4598 66.3803 72.5698C66.3753 72.5698 66.3703 72.5698 66.3653 72.5748L63.2653 74.3748L63.3103 74.3698ZM61.8753 55.9448C61.8553 55.8098 61.7253 55.7098 61.5953 55.7298C61.4603 55.7498 61.3603 55.8748 61.3803 56.0098C61.4803 56.7498 61.6103 57.4598 61.7553 58.1598C61.5503 58.0298 61.3153 57.9548 61.0603 57.9548C60.9003 57.9548 60.7503 57.9898 60.6053 58.0398C59.3653 56.7698 58.6903 53.9798 58.4753 52.9298C58.1803 51.5048 58.4803 50.6948 58.7853 50.2698C59.0603 49.8848 59.4603 49.6348 59.9203 49.5748C60.1503 49.5448 60.3553 49.6048 60.5303 49.7598C60.9003 50.0848 61.1053 50.7698 61.1053 51.6948C61.1053 51.8348 61.2153 51.9448 61.3553 51.9448C61.3903 51.9448 61.4203 51.9398 61.4503 51.9248C61.4703 51.9148 61.4853 51.8998 61.5053 51.8898C61.5153 51.8848 61.5253 51.8798 61.5303 51.8748C61.5403 51.8648 61.5503 51.8448 61.5603 51.8298C61.5703 51.8198 61.5803 51.8048 61.5853 51.7948C61.5903 51.7798 61.5903 51.7648 61.5953 51.7548C61.5953 51.7348 61.6053 51.7198 61.6053 51.6998C61.6153 49.2748 61.9153 46.9948 62.5003 44.9248C62.6503 44.9398 62.8003 44.9548 62.9503 44.9598C63.0303 44.9598 63.1153 44.9598 63.1953 44.9598C64.9003 44.9598 66.6903 44.4098 68.1403 43.4298C70.5903 41.7798 72.1753 39.8948 72.7553 37.9948C73.3353 39.8948 74.9203 41.7798 77.3703 43.4298C78.9453 44.4898 80.7103 44.9548 82.2853 44.9498C82.6903 44.9498 83.0853 44.9148 83.4553 44.8548C83.8703 46.1448 84.1653 47.5198 84.3403 48.9498C84.4653 49.9548 84.5203 50.8448 84.5253 51.8348C84.5253 51.9698 84.6403 52.0848 84.7753 52.0848C84.9153 52.0848 85.0253 51.9698 85.0253 51.8348C85.0253 51.7898 85.0253 51.7448 85.0253 51.6998C85.0253 50.7748 85.2303 50.0848 85.6003 49.7648C85.7753 49.6148 85.9803 49.5498 86.2103 49.5798C86.6653 49.6398 87.0703 49.8898 87.3453 50.2748C87.6503 50.6998 87.9503 51.5098 87.6553 52.9348C87.4353 53.9948 86.7453 56.8398 85.4803 58.0898C85.3053 58.0048 85.1153 57.9548 84.9153 57.9548C84.7053 57.9548 84.5053 58.0098 84.3253 58.0998C84.4853 57.4248 84.6303 56.7298 84.7353 56.0148C84.7553 55.8798 84.6603 55.7498 84.5253 55.7298C84.3853 55.7098 84.2603 55.8048 84.2403 55.9398C82.7553 65.8248 75.7953 72.1648 72.6553 72.1848H72.6403C69.1303 72.1848 63.2003 65.8748 61.8753 55.9448ZM61.9203 59.3848C61.9203 59.8998 61.5303 60.3198 61.0553 60.3198C60.5803 60.3198 60.1903 59.8998 60.1903 59.3848C60.1903 58.8698 60.5803 58.4498 61.0553 58.4498C61.5303 58.4498 61.9203 58.8698 61.9203 59.3848ZM85.7753 59.3848C85.7753 59.8998 85.3853 60.3198 84.9103 60.3198C84.4353 60.3198 84.0453 59.8998 84.0453 59.3848C84.0453 58.8698 84.4353 58.4498 84.9103 58.4498C85.3853 58.4498 85.7753 58.8698 85.7753 59.3848ZM65.8203 76.6048C66.4553 75.1098 67.2453 72.7698 67.0353 69.3498C68.9603 71.5048 71.0103 72.6798 72.6403 72.6798H72.6603C74.1553 72.6698 76.3953 71.4198 78.5553 69.1348C78.2953 72.6698 79.1053 75.0798 79.7553 76.6048C80.4203 78.1798 81.7353 79.9048 83.2153 80.3598C83.0653 87.6898 74.1353 95.2048 72.8303 96.2648C71.5253 95.1448 62.4553 87.1048 62.4303 80.3398C63.8853 79.8598 65.1703 78.1548 65.8303 76.6048H65.8203ZM61.9203 80.4548C62.0503 87.9098 72.2203 96.4198 72.6603 96.7798C72.7503 96.8548 72.8803 96.8548 72.9703 96.7798C73.4053 96.4448 83.4553 88.5448 83.7103 80.4798L85.0453 80.6548C84.9953 89.6548 74.2703 98.9148 72.8203 100.125C71.3753 98.8498 60.5203 88.9648 60.5853 80.6848L61.9203 80.4498V80.4548ZM104.2 117.07H94.6703L95.7503 97.3848C95.7603 97.2448 95.6503 97.1298 95.5153 97.1198C95.3653 97.1048 95.2603 97.2198 95.2503 97.3548L94.1703 117.07H51.7903L50.7103 97.3548C50.7053 97.2148 50.6053 97.1048 50.4453 97.1198C50.3053 97.1248 50.2003 97.2448 50.2103 97.3848L51.2903 117.07H41.7253L40.8203 91.1798C40.8203 87.2798 43.5853 83.8498 47.3853 83.0248L60.0903 80.7798C60.1003 89.8148 72.1403 100.21 72.6553 100.65C72.6653 100.66 72.6803 100.665 72.6953 100.675C72.7053 100.68 72.7103 100.685 72.7203 100.69C72.7503 100.705 72.7853 100.71 72.8153 100.71C72.8653 100.71 72.9103 100.69 72.9553 100.66C72.9603 100.66 72.9703 100.66 72.9753 100.655C73.4853 100.245 85.4353 90.5498 85.5453 80.7298L98.5303 83.0248C102.34 83.8498 105.105 87.2798 105.105 91.1698L104.2 117.07Z" fill="#07064E"></path>
</g>
</g>
</g>
</g>
</g>
</g>
<defs>
<clipPath id="clip0_86_498">
<rect width="200" height="140" fill="white"></rect>
</clipPath>
</defs>
</svg>