<svg width="885" height="360" viewBox="0 0 885 360" fill="none" xmlns="http://www.w3.org/2000/svg">
<g id="illu_bg_acknowledgments">
<rect x="0.5" y="0.5" width="884" height="359" rx="4.5" stroke="#8A38F5" stroke-dasharray="10 5"></rect>
<g id="Size=Small" clip-path="url(#clip0_85_2121)">
<g id="illu_bg_acknowledgments_2">
<g id="background">
<path id="Vector" d="M141.906 145.139C164.822 156.174 162.125 203.983 147.616 213.415C141.116 217.642 138.159 214.417 106.769 220.65C85.5468 224.864 37.6968 223.133 52.0718 197.839C61.6093 181.056 51.4593 170.16 49.7 162.906C46.6187 150.218 59 136.814 74.1562 139.778C113.966 147.563 130.006 139.407 141.906 145.136V145.139Z" fill="#EDEDED"></path>
<g id="Vector_2">
<path d="M141.022 143.357C163.937 154.392 161.24 202.201 146.731 211.633C140.231 215.86 137.275 212.635 105.884 218.868C84.6624 223.082 36.8124 221.351 51.1874 196.057C60.7249 179.274 50.5749 168.378 48.8155 161.124C45.7311 148.436 58.1124 135.032 73.2686 137.996C113.078 145.781 129.119 137.625 141.019 143.354L141.022 143.357Z" fill="#2BF5BA"></path>
<path d="M159.24 220.687C161.079 220.687 162.569 219.189 162.569 217.34C162.569 215.492 161.079 213.993 159.24 213.993C157.402 213.993 155.912 215.492 155.912 217.34C155.912 219.189 157.402 220.687 159.24 220.687Z" fill="#2BF5BA"></path>
<path d="M48.2241 146.639C50.0857 145.238 50.7357 142.948 49.676 141.523C48.6163 140.099 46.2482 140.079 44.3866 141.48C42.5251 142.88 41.8751 145.17 42.9348 146.595C43.9945 148.02 46.3626 148.039 48.2241 146.639Z" fill="#2BF5BA"></path>
</g>
<path id="Vector_3" d="M45.6793 160.471C46.4974 159.856 46.7709 158.833 46.2902 158.186C45.8095 157.54 44.7565 157.515 43.9384 158.131C43.1203 158.746 42.8467 159.769 43.3275 160.415C43.8082 161.062 44.8612 161.087 45.6793 160.471Z" fill="#FFC391"></path>
</g>
<g id="illu_bg_acknowledgments_3">
<g id="stroke">
<path id="Vector_4" d="M119.228 185.692L119.372 182.609C119.644 179.239 117.482 176.691 114.219 176.587L107.091 175.163C104.841 177.307 102.582 178.347 100.313 178.212C97.7534 178.045 96.0691 176.687 94.5097 175.163L86.8003 176.593C84.0597 176.581 81.8441 178.843 81.9066 181.6L82.0441 185.692H119.228Z" fill="#FFC391"></path>
<path id="Vector_5" d="M108.425 158.748C108.485 157.683 108.366 154.423 108.463 154.213C109.013 153.028 111.663 153.977 108.606 151.535C107.988 151.042 109.26 149.662 106.588 150.382C106.16 148.845 109.247 147.965 106.222 148.065C104.513 148.122 103.891 148.578 103.913 148.813C101.322 146.723 102.288 149.313 101.741 148.986C96.5189 145.891 92.1095 149.725 92.2408 151.017C96.272 151.919 90.897 152.827 92.0564 154.511C93.4752 152.359 93.3158 156.224 93.2845 158.751L94.3189 159.766H107.556L108.425 158.751V158.748Z" fill="#EDEDED"></path>
<path id="Vector_6" d="M108.9 175.606L107.434 177.039C103.675 180.723 97.897 180.767 94.0876 177.143L92.522 175.657L94.4532 175.248C98.3626 178.293 102.503 178.623 106.966 175.213L108.897 175.606H108.9Z" fill="#07064E"></path>
<g id="Vector_7">
<path d="M106.407 154.065C104.619 152.239 102.338 152.601 100.722 153.845C99.0566 152.409 96.0347 152.465 95.0722 154.254C94.3691 155.831 93.9816 157.874 94.0566 160.401C94.2222 165.98 97.0722 171.04 100.788 171.04C104.503 171.04 107.4 165.98 107.519 160.401C107.535 159.722 107.628 158.729 107.628 158.729C107.628 158.729 106.857 155.564 106.407 154.065Z" fill="white"></path>
<path d="M96.6253 168.676H104.969C105.047 171.297 104.916 174.164 106.969 175.113C107.028 175.141 106.663 175.521 106.088 176.078C103.132 178.941 98.4566 178.966 95.4566 176.15C94.8472 175.578 94.4566 175.185 94.5066 175.163C96.6816 174.271 96.5441 171.345 96.6222 168.676" fill="white"></path>
</g>
<g id="Vector_8">
<path d="M94.0311 159.515C94.0311 158.541 93.1218 158.622 92.7374 158.962C92.1374 159.493 92.1374 160.194 92.4249 161.577C92.603 162.438 92.6843 163.073 93.2343 163.657C93.5343 163.975 93.9499 164.05 94.3874 164.05" fill="white"></path>
<path d="M107.584 159.515C107.584 158.541 108.494 158.622 108.878 158.962C109.478 159.493 109.478 160.194 109.191 161.577C109.012 162.438 108.931 163.073 108.381 163.657C108.081 163.975 107.506 164.05 107.069 164.05" fill="white"></path>
</g>
<path id="Vector_9" d="M100.784 171.04C97.4218 170.804 96.728 168.29 96.728 168.783C96.728 171.665 98.528 174.003 100.75 174.003C102.972 174.003 104.772 171.665 104.772 168.783C104.772 168.29 103.55 171.231 100.781 171.04H100.784Z" fill="#EDEDED"></path>
<g id="Vector_10">
<path d="M106.406 154.065C105.547 153.188 105.487 153.166 104.512 152.931C108.319 161.482 104.712 168.296 101.744 170.927C104.991 170.15 107.412 165.493 107.522 160.401C107.537 159.722 107.631 158.729 107.631 158.729C107.631 158.729 106.859 155.564 106.409 154.065H106.406Z" fill="#EDEDED"></path>
<path d="M94.6062 152.396C95.325 151.567 94.0218 151.202 95.125 150.24C97.625 148.04 99.3562 150.947 101.856 150.633C102.681 150.583 102.606 149.69 103.066 149.634C104.156 149.593 104.484 153.213 107.009 151.475C107.134 151.387 107.303 151.482 107.294 151.636C107.203 153.396 108.453 154.241 108.466 154.213C109.016 153.028 111.666 153.977 108.609 151.535C107.991 151.042 109.262 149.662 106.591 150.379C106.162 148.842 109.25 147.962 106.225 148.062C104.516 148.119 103.894 148.575 103.916 148.81C101.325 146.72 102.291 149.307 101.744 148.983C96.5218 145.887 92.1125 149.722 92.2437 151.013C96.275 151.915 90.9 152.824 92.0593 154.508C92.4781 153.873 92.4437 154.128 92.675 153.892C93.0187 153.785 94.2531 152.808 94.6093 152.399L94.6062 152.396Z" fill="white"></path>
</g>
<g id="Vector_11">
<path d="M100.719 154.474C100.553 154.474 100.388 154.408 100.263 154.276C99.6689 153.641 98.5939 153.323 97.522 153.462C97.1782 153.506 96.8657 153.264 96.822 152.918C96.7782 152.572 97.0189 152.258 97.3626 152.214C98.8376 152.022 100.3 152.481 101.172 153.411C101.409 153.663 101.397 154.062 101.147 154.301C101.025 154.414 100.872 154.471 100.719 154.471V154.474Z" fill="#EDEDED"></path>
<path d="M95.0407 154.857C94.9782 154.857 94.9157 154.848 94.8501 154.829C94.5189 154.728 94.3376 154.364 94.4376 154.031C94.6251 153.405 95.747 152.428 97.3626 152.217C97.7064 152.173 98.0189 152.415 98.0626 152.761C98.1064 153.107 97.8657 153.421 97.522 153.465C96.3876 153.613 95.7032 154.263 95.622 154.423C95.5407 154.691 95.3001 154.857 95.0376 154.857H95.0407Z" fill="#EDEDED"></path>
<path d="M106.478 154.841C106.209 154.841 105.963 154.665 105.881 154.395C105.809 154.263 105.125 153.613 103.991 153.465C102.919 153.327 101.844 153.644 101.25 154.279C101.013 154.53 100.619 154.543 100.366 154.304C100.116 154.065 100.103 153.669 100.341 153.415C101.213 152.484 102.675 152.025 104.15 152.217C105.766 152.428 106.888 153.405 107.075 154.031C107.175 154.364 106.988 154.713 106.659 154.816C106.6 154.835 106.538 154.845 106.478 154.845V154.841Z" fill="#EDEDED"></path>
</g>
<g id="Vector_12">
<path d="M98.4065 161.419C98.5429 161.419 98.6534 161.308 98.6534 161.171C98.6534 161.034 98.5429 160.923 98.4065 160.923C98.2702 160.923 98.1597 161.034 98.1597 161.171C98.1597 161.308 98.2702 161.419 98.4065 161.419Z" fill="#FFC391"></path>
<path d="M97.3034 162.384C97.4398 162.384 97.5503 162.273 97.5503 162.136C97.5503 161.999 97.4398 161.888 97.3034 161.888C97.1671 161.888 97.0565 161.999 97.0565 162.136C97.0565 162.273 97.1671 162.384 97.3034 162.384Z" fill="#FFC391"></path>
<path d="M96.0315 161.853C96.1679 161.853 96.2784 161.742 96.2784 161.605C96.2784 161.468 96.1679 161.357 96.0315 161.357C95.8952 161.357 95.7847 161.468 95.7847 161.605C95.7847 161.742 95.8952 161.853 96.0315 161.853Z" fill="#FFC391"></path>
<path d="M97.019 161.225C97.1554 161.225 97.2659 161.113 97.2659 160.976C97.2659 160.839 97.1554 160.728 97.019 160.728C96.8827 160.728 96.7722 160.839 96.7722 160.976C96.7722 161.113 96.8827 161.225 97.019 161.225Z" fill="#FFC391"></path>
<path d="M104.957 162.193C105.093 162.193 105.203 162.081 105.203 161.944C105.203 161.807 105.093 161.696 104.957 161.696C104.82 161.696 104.71 161.807 104.71 161.944C104.71 162.081 104.82 162.193 104.957 162.193Z" fill="#FFC391"></path>
<path d="M103.853 161.225C103.99 161.225 104.1 161.113 104.1 160.976C104.1 160.839 103.99 160.728 103.853 160.728C103.717 160.728 103.607 160.839 103.607 160.976C103.607 161.113 103.717 161.225 103.853 161.225Z" fill="#FFC391"></path>
<path d="M102.582 161.756C102.718 161.756 102.828 161.645 102.828 161.507C102.828 161.37 102.718 161.259 102.582 161.259C102.445 161.259 102.335 161.37 102.335 161.507C102.335 161.645 102.445 161.756 102.582 161.756Z" fill="#FFC391"></path>
<path d="M103.569 162.384C103.705 162.384 103.816 162.273 103.816 162.136C103.816 161.999 103.705 161.888 103.569 161.888C103.433 161.888 103.322 161.999 103.322 162.136C103.322 162.273 103.433 162.384 103.569 162.384Z" fill="#FFC391"></path>
</g>
<g id="Vector_13">
<path d="M100.988 163.525C100.966 163.525 100.947 163.522 100.925 163.513L100.063 163.135C99.6688 162.925 99.8595 162.494 100.056 162.042C100.159 161.809 100.275 161.545 100.344 161.265L100.678 157.953C100.688 157.865 100.766 157.802 100.85 157.811C100.934 157.821 100.997 157.896 100.991 157.984L100.65 161.319C100.569 161.646 100.447 161.922 100.341 162.167C100.156 162.589 100.081 162.793 100.197 162.853L101.047 163.227C101.125 163.261 101.163 163.352 101.128 163.434C101.103 163.494 101.044 163.528 100.984 163.528L100.988 163.525Z" fill="#07064E"></path>
<path d="M100.7 167.243C99.9345 167.243 99.2001 166.989 98.5001 166.479C98.4314 166.429 98.4157 166.332 98.4657 166.259C98.5157 166.19 98.6126 166.175 98.6845 166.225C99.9876 167.174 101.369 167.171 102.903 166.219C102.975 166.175 103.072 166.197 103.119 166.269C103.163 166.344 103.141 166.439 103.069 166.486C102.253 166.992 101.463 167.243 100.7 167.243Z" fill="#07064E"></path>
<path d="M97.4439 159.917C96.7814 159.917 96.2407 159.336 96.2407 158.622C96.2407 158.534 96.3095 158.465 96.397 158.465C96.4845 158.465 96.5532 158.534 96.5532 158.622C96.5532 159.163 96.9532 159.603 97.4439 159.603C97.9345 159.603 98.3345 159.163 98.3345 158.622C98.3345 158.534 98.4032 158.465 98.4907 158.465C98.5782 158.465 98.647 158.534 98.647 158.622C98.647 159.336 98.1064 159.917 97.4439 159.917Z" fill="#07064E"></path>
<path d="M101.322 168.23H99.997C99.9095 168.23 99.8407 168.161 99.8407 168.073C99.8407 167.985 99.9095 167.916 99.997 167.916H101.322C101.409 167.916 101.478 167.985 101.478 168.073C101.478 168.161 101.409 168.23 101.322 168.23Z" fill="#07064E"></path>
<path d="M103.913 159.917C103.25 159.917 102.709 159.336 102.709 158.622C102.709 158.534 102.778 158.465 102.866 158.465C102.953 158.465 103.022 158.534 103.022 158.622C103.022 159.163 103.422 159.603 103.913 159.603C104.403 159.603 104.803 159.163 104.803 158.622C104.803 158.534 104.872 158.465 104.959 158.465C105.047 158.465 105.116 158.534 105.116 158.622C105.116 159.336 104.575 159.917 103.913 159.917Z" fill="#07064E"></path>
<path d="M95.7844 157.211C95.7563 157.211 95.7251 157.202 95.7001 157.186C95.6282 157.139 95.6063 157.041 95.6532 156.969C96.2438 156.048 97.5376 155.951 99.3001 156.689C99.3782 156.724 99.4188 156.815 99.3844 156.894C99.3501 156.975 99.2594 157.01 99.1813 156.979C98.2501 156.589 96.5907 156.089 95.9188 157.139C95.8876 157.186 95.8376 157.211 95.7876 157.211H95.7844Z" fill="#07064E"></path>
<path d="M105.641 157.211C105.591 157.211 105.538 157.186 105.509 157.139C104.838 156.092 103.175 156.589 102.247 156.979C102.169 157.01 102.075 156.975 102.044 156.894C102.009 156.815 102.047 156.721 102.128 156.689C103.891 155.951 105.184 156.048 105.775 156.969C105.822 157.041 105.8 157.139 105.728 157.186C105.703 157.202 105.672 157.211 105.644 157.211H105.641Z" fill="#07064E"></path>
</g>
<path id="Vector_14" d="M100.45 214.603C113.139 214.603 123.425 213.415 123.425 211.95C123.425 210.485 113.139 209.298 100.45 209.298C87.7614 209.298 77.4751 210.485 77.4751 211.95C77.4751 213.415 87.7614 214.603 100.45 214.603Z" fill="#2AEDB4"></path>
<path id="Vector_15" d="M123.55 188.586C123.728 187.005 122.566 185.692 120.959 185.692H79.8376C78.2345 185.692 77.0689 187.002 77.247 188.586L79.2439 206.296H79.1532L79.322 207.777C79.4657 209.056 80.7439 210.09 82.1595 210.09H118.456C119.872 210.09 121.147 209.056 121.294 207.777L121.416 206.689H121.506L123.556 188.586H123.55Z" fill="white"></path>
<path id="Vector_16" d="M121.828 185.83C111.863 194.501 107.003 200.08 97.2471 203.543C91.5002 205.853 85.7033 207.745 79.5283 208.496C79.9721 209.42 81.0158 210.087 82.1533 210.087H118.45C119.866 210.087 121.141 209.053 121.288 207.773L121.41 206.686H121.5L123.55 188.583C123.694 187.304 122.963 186.204 121.828 185.827V185.83Z" fill="#EDEDED"></path>
<path id="Vector_17" d="M100.45 202.079C99.5501 202.079 98.6782 201.833 97.9251 201.365C97.8501 201.321 97.8282 201.224 97.8751 201.148C97.9188 201.073 98.0157 201.051 98.0907 201.098C98.7938 201.535 99.6126 201.764 100.453 201.764C102.569 201.764 104.4 200.278 104.622 198.379C104.738 197.377 104.422 196.396 103.731 195.614C102.941 194.718 101.747 194.206 100.456 194.206C99.1657 194.206 97.972 194.718 97.1813 195.614C96.4907 196.396 96.172 197.377 96.2907 198.379C96.3501 198.879 96.5157 199.357 96.7845 199.794C96.8282 199.866 96.8063 199.963 96.7345 200.011C96.6595 200.058 96.5657 200.033 96.5188 199.96C96.2251 199.483 96.047 198.964 95.9813 198.417C95.8532 197.327 96.197 196.255 96.9501 195.406C97.8001 194.445 99.0813 193.895 100.459 193.895C101.838 193.895 103.119 194.445 103.969 195.406C104.722 196.255 105.066 197.327 104.938 198.417C104.697 200.469 102.731 202.079 100.459 202.079H100.45Z" fill="#07064E"></path>
<g id="Group">
<path id="Vector_18" d="M57.2376 154.207L78.3658 147.852C80.0595 147.343 81.8564 148.32 82.3658 150.02L83.997 155.505L86.9845 165.549L88.872 171.898C89.047 172.485 88.3283 172.916 87.897 172.485L83.3533 167.935C82.7408 167.322 81.847 167.095 81.0189 167.344L62.7783 172.831C61.0845 173.34 59.2876 172.363 58.7783 170.663L55.0814 158.233C54.5751 156.529 55.547 154.722 57.2376 154.21V154.207Z" fill="#2AEDB4"></path>
<path id="Vector_19" d="M57.2376 152.871L78.3658 146.516C80.0595 146.007 81.8564 146.984 82.3658 148.685L83.997 154.169L86.9845 164.213L88.872 170.562C89.047 171.15 88.3283 171.58 87.897 171.15L83.3533 166.599C82.7408 165.986 81.847 165.76 81.0189 166.008L62.7783 171.495C61.0845 172.005 59.2876 171.027 58.7783 169.327L55.0814 156.897C54.5751 155.193 55.547 153.386 57.2376 152.874V152.871Z" fill="white"></path>
<path id="Vector_20" d="M56.4653 152.971L79.0249 146.185C80.3303 145.793 81.7041 146.541 82.0936 147.851L82.4034 148.892L55.1193 157.099L54.8095 156.057C54.4191 154.744 55.1629 153.362 56.4653 152.971Z" fill="#07064E"></path>
<path id="Vector_21" d="M76.5879 149.703C77.0625 149.703 77.4473 149.316 77.4473 148.839C77.4473 148.361 77.0625 147.974 76.5879 147.974C76.1133 147.974 75.7285 148.361 75.7285 148.839C75.7285 149.316 76.1133 149.703 76.5879 149.703Z" fill="white"></path>
<path id="Vector_22" d="M78.9692 148.986C79.4439 148.986 79.8286 148.599 79.8286 148.122C79.8286 147.645 79.4439 147.258 78.9692 147.258C78.4946 147.258 78.1099 147.645 78.1099 148.122C78.1099 148.599 78.4946 148.986 78.9692 148.986Z" fill="#2BF5BA"></path>
<path id="Vector_23" d="M63.6567 167.749C63.6317 167.749 63.6036 167.743 63.5817 167.73C63.5442 167.711 63.5192 167.677 63.5067 167.636L60.7723 158.226C60.7473 158.141 60.7942 158.057 60.8786 158.031C60.963 158.006 61.0473 158.053 61.0723 158.138L63.763 167.397L79.638 162.73C79.7223 162.705 79.8067 162.752 79.8317 162.837C79.8567 162.922 79.8098 163.007 79.7255 163.032L63.7005 167.743C63.7005 167.743 63.6723 167.749 63.6567 167.749Z" fill="#07064E"></path>
<g id="Vector_24">
<path d="M64.5032 166.153C64.5032 166.153 64.4844 166.153 64.4751 166.153C64.3907 166.137 64.3345 166.055 64.347 165.97L65.1251 161.492C65.1345 161.438 65.1688 161.394 65.2188 161.375C65.2688 161.353 65.322 161.36 65.3688 161.391L67.7001 162.975L68.8407 158.336C68.8532 158.283 68.8969 158.239 68.9501 158.223C69.0032 158.207 69.0626 158.223 69.1032 158.264L73.6469 162.783L75.8751 154.119C75.897 154.034 75.9813 153.983 76.0657 154.005C76.1501 154.027 76.2001 154.112 76.1782 154.197L73.8844 163.126C73.872 163.179 73.8282 163.223 73.7751 163.239C73.722 163.255 73.6626 163.239 73.6251 163.198L69.0813 158.679L67.9532 163.267C67.9407 163.318 67.9063 163.359 67.8563 163.377C67.8094 163.396 67.7563 163.39 67.7126 163.362L65.3938 161.787L64.6595 166.027C64.647 166.102 64.5813 166.156 64.5063 166.156L64.5032 166.153Z" fill="#FFC391"></path>
<path d="M76.9094 155.703C76.8532 155.703 76.8001 155.674 76.7719 155.621L76.0188 154.254L74.6501 155.014C74.5751 155.055 74.4782 155.03 74.4376 154.951C74.3969 154.876 74.4219 154.779 74.5001 154.738L76.0063 153.902C76.0438 153.883 76.0844 153.877 76.1251 153.889C76.1657 153.902 76.2001 153.927 76.2188 153.965L77.047 155.47C77.0876 155.545 77.0626 155.643 76.9844 155.684C76.9594 155.696 76.9344 155.703 76.9094 155.703Z" fill="#FFC391"></path>
</g>
</g>
<g id="Group_2">
<path id="Vector_25" d="M139.791 162.29L124.869 156.429C123.672 155.96 122.313 156.557 121.847 157.761L120.344 161.633L117.588 168.727L115.847 173.211C115.688 173.626 116.182 173.981 116.519 173.695L120.078 170.672C120.557 170.267 121.219 170.153 121.803 170.383L134.688 175.443C135.885 175.911 137.244 175.314 137.71 174.11L141.119 165.332C141.585 164.129 140.991 162.761 139.794 162.293L139.791 162.29Z" fill="#2AEDB4"></path>
<path id="Vector_26" d="M139.791 160.954L124.869 155.093C123.672 154.625 122.313 155.222 121.847 156.425L120.344 160.297L117.588 167.391L115.847 171.876C115.688 172.291 116.182 172.646 116.519 172.36L120.078 169.336C120.557 168.931 121.219 168.818 121.803 169.047L134.688 174.107C135.885 174.575 137.244 173.978 137.71 172.775L141.119 163.997C141.585 162.793 140.991 161.426 139.794 160.957L139.791 160.954Z" fill="white"></path>
<path id="Vector_27" d="M124.639 155.006L140.016 161.048C141.09 161.47 141.622 162.692 141.203 163.772L141.061 164.138L121.791 156.567L121.934 156.201C122.353 155.12 123.568 154.585 124.642 155.007L124.639 155.006Z" fill="#07064E"></path>
<path id="Vector_28" d="M137.944 162.177C138.279 162.177 138.55 161.904 138.55 161.567C138.55 161.23 138.279 160.957 137.944 160.957C137.609 160.957 137.338 161.23 137.338 161.567C137.338 161.904 137.609 162.177 137.944 162.177Z" fill="white"></path>
<path id="Vector_29" d="M139.578 162.818C139.913 162.818 140.185 162.545 140.185 162.208C140.185 161.872 139.913 161.599 139.578 161.599C139.244 161.599 138.972 161.872 138.972 162.208C138.972 162.545 139.244 162.818 139.578 162.818Z" fill="#2BF5BA"></path>
<path id="Vector_30" d="M125.901 160.911L123.628 160.018C123.061 159.795 122.421 160.077 122.199 160.648L121.311 162.934C121.089 163.505 121.37 164.148 121.937 164.371L124.21 165.264C124.778 165.487 125.418 165.206 125.639 164.635L126.527 162.349C126.749 161.778 126.469 161.134 125.901 160.911Z" fill="#07064E"></path>
<path id="Vector_31" d="M127.946 164.24L127.058 166.527C126.836 167.097 127.116 167.741 127.684 167.964L129.957 168.857C130.524 169.08 131.164 168.798 131.386 168.227L132.274 165.941C132.496 165.37 132.216 164.727 131.648 164.504L129.375 163.611C128.807 163.388 128.168 163.67 127.946 164.24Z" fill="#EDEDED"></path>
<g id="Vector_32">
<path d="M127.946 162.903L127.058 165.189C126.836 165.76 127.116 166.403 127.684 166.626L129.957 167.519C130.525 167.742 131.164 167.46 131.386 166.889L132.274 164.603C132.496 164.032 132.216 163.389 131.648 163.166L129.375 162.273C128.807 162.05 128.168 162.332 127.946 162.903Z" fill="#2BF5BA"></path>
<path d="M137.381 165.423L135.108 164.53C134.54 164.307 133.901 164.589 133.679 165.159L132.791 167.446C132.569 168.016 132.849 168.66 133.417 168.883L135.69 169.776C136.258 169.999 136.897 169.717 137.119 169.146L138.007 166.86C138.229 166.289 137.949 165.646 137.381 165.423Z" fill="#2BF5BA"></path>
</g>
<g id="Vector_33">
<path d="M124.672 164.528L124.385 164.415C124.35 164.402 124.329 164.383 124.313 164.358C124.3 164.333 124.291 164.305 124.291 164.276V163.506L123.057 163.022L122.541 163.591C122.525 163.61 122.5 163.626 122.472 163.635C122.444 163.645 122.413 163.645 122.382 163.632L122.094 163.519L124.272 161.181L124.65 161.328L124.675 164.531L124.672 164.528ZM124.294 163.195L124.3 161.897C124.3 161.859 124.3 161.815 124.307 161.765C124.307 161.715 124.316 161.661 124.322 161.608C124.254 161.702 124.194 161.778 124.138 161.837L123.269 162.793L124.297 163.198L124.294 163.195Z" fill="white"></path>
<path d="M130.107 163.472C130.275 163.538 130.416 163.613 130.525 163.695C130.635 163.777 130.716 163.865 130.772 163.956C130.829 164.05 130.857 164.147 130.857 164.251C130.857 164.355 130.838 164.465 130.794 164.575C130.766 164.644 130.732 164.704 130.685 164.757C130.638 164.811 130.585 164.858 130.522 164.895C130.46 164.933 130.388 164.961 130.307 164.977C130.225 164.996 130.135 164.999 130.038 164.993C130.225 165.112 130.35 165.244 130.41 165.389C130.469 165.537 130.466 165.694 130.4 165.867C130.354 165.983 130.291 166.083 130.213 166.162C130.135 166.241 130.038 166.3 129.929 166.338C129.819 166.376 129.697 166.388 129.56 166.379C129.425 166.369 129.282 166.335 129.125 166.275L128.154 165.892L129.229 163.123L130.107 163.469V163.472ZM129.485 163.569L129.119 164.515L129.61 164.707C129.716 164.748 129.81 164.773 129.897 164.779C129.985 164.785 130.06 164.779 130.129 164.757C130.194 164.735 130.25 164.701 130.3 164.65C130.347 164.6 130.385 164.543 130.413 164.471C130.475 164.308 130.475 164.169 130.407 164.056C130.338 163.943 130.204 163.846 129.997 163.764L129.491 163.566L129.485 163.569ZM129.235 165.98C129.341 166.021 129.438 166.046 129.525 166.052C129.613 166.058 129.688 166.049 129.754 166.024C129.819 165.999 129.875 165.961 129.922 165.907C129.969 165.854 130.007 165.791 130.035 165.719C130.091 165.574 130.085 165.442 130.016 165.32C129.947 165.197 129.813 165.097 129.61 165.015L129.013 164.782L128.638 165.747L129.235 165.98Z" fill="white"></path>
<path d="M136.038 168.337C136.06 168.346 136.072 168.359 136.082 168.384L136.166 168.604C136.004 168.692 135.825 168.739 135.638 168.749C135.447 168.758 135.241 168.72 135.013 168.629C134.816 168.551 134.65 168.447 134.516 168.315C134.382 168.183 134.282 168.032 134.216 167.862C134.15 167.693 134.119 167.51 134.125 167.309C134.132 167.111 134.172 166.907 134.254 166.699C134.335 166.492 134.441 166.313 134.575 166.165C134.71 166.017 134.86 165.904 135.025 165.826C135.191 165.747 135.372 165.706 135.563 165.703C135.754 165.7 135.95 165.738 136.15 165.816C136.35 165.895 136.507 165.992 136.632 166.115C136.757 166.237 136.857 166.376 136.929 166.527L136.738 166.649C136.738 166.649 136.71 166.665 136.697 166.668C136.682 166.671 136.663 166.668 136.644 166.662C136.622 166.652 136.597 166.63 136.575 166.589C136.55 166.552 136.519 166.508 136.479 166.454C136.438 166.401 136.382 166.347 136.31 166.291C136.238 166.234 136.144 166.184 136.025 166.137C135.882 166.08 135.744 166.055 135.607 166.058C135.469 166.061 135.341 166.093 135.219 166.153C135.097 166.212 134.988 166.303 134.888 166.42C134.788 166.536 134.704 166.681 134.638 166.85C134.572 167.02 134.535 167.187 134.532 167.341C134.529 167.495 134.55 167.636 134.6 167.762C134.65 167.887 134.722 168.001 134.819 168.095C134.916 168.189 135.032 168.265 135.166 168.315C135.247 168.346 135.322 168.371 135.394 168.387C135.463 168.403 135.532 168.412 135.594 168.412C135.657 168.412 135.719 168.409 135.782 168.397C135.841 168.384 135.904 168.365 135.969 168.34C135.997 168.331 136.025 168.327 136.047 168.337H136.038Z" fill="white"></path>
</g>
</g>
<path id="Vector_34" d="M117.622 183.187C117.637 184.032 117.662 184.868 117.7 185.692H119.225L119.369 182.609C119.641 179.239 117.478 176.691 114.216 176.587L113.087 176.405C115.472 177.781 117.566 179.947 117.619 183.184L117.622 183.187Z" fill="#FFAF6E"></path>
<path id="Vector_35" d="M118.453 210.09H82.1563C81.3782 210.09 80.6501 209.772 80.122 209.279C80.0907 209.37 80.0688 209.467 80.0688 209.568V211.073C80.0688 211.557 80.4595 211.95 80.9407 211.95H119.938C120.419 211.95 120.809 211.557 120.809 211.073V209.568C120.809 209.395 120.759 209.238 120.672 209.103C120.138 209.7 119.322 210.09 118.453 210.09Z" fill="#EDEDED"></path>
<path id="Vector_36" d="M157.994 195.796L122.884 195.84L123.703 188.602C123.794 187.794 123.559 187.027 123.044 186.446C122.522 185.858 121.781 185.535 120.959 185.535H119.394L119.569 181.653C119.569 179.246 117.872 177.127 115.525 176.618L107.741 175.195C105.259 174.698 105.2 172.105 105.138 169.361C105.131 169.129 105.128 168.899 105.122 168.67C105.122 168.657 105.116 168.648 105.113 168.635C105.938 167.482 106.603 165.977 107.059 164.198C107.059 164.198 107.063 164.198 107.066 164.198C107.525 164.198 108.147 164.122 108.491 163.758C109.019 163.198 109.138 162.601 109.291 161.844L109.341 161.602C109.631 160.203 109.65 159.433 108.978 158.839C108.875 158.748 108.738 158.673 108.584 158.625C108.606 158.11 108.597 157.246 108.584 156.407C108.575 155.517 108.563 154.411 108.6 154.279C108.763 153.927 109.163 153.789 109.516 153.666C109.841 153.553 110.15 153.446 110.197 153.166C110.247 152.865 110.016 152.465 108.697 151.413C108.566 151.309 108.566 151.139 108.575 150.869C108.588 150.614 108.597 150.325 108.372 150.146C108.109 149.935 107.606 149.948 106.7 150.187C106.644 149.659 107.047 149.206 107.35 148.87C107.594 148.597 107.788 148.383 107.688 148.169C107.597 147.974 107.334 147.877 106.206 147.911C105.05 147.949 104.172 148.188 103.856 148.543C103.85 148.549 103.844 148.559 103.838 148.565C103.059 147.962 102.534 147.742 102.194 147.88C101.872 148.012 101.825 148.392 101.788 148.672C101.781 148.719 101.775 148.779 101.766 148.826C98.2532 146.516 94.9595 148.166 94.0313 148.732C92.8345 149.458 92.0126 150.426 92.072 151.035C92.0782 151.101 92.1282 151.158 92.1939 151.174C93.3532 151.435 93.5689 151.661 93.5907 151.774C93.6314 151.956 93.2313 152.264 92.8782 152.531C92.2157 153.037 91.3126 153.729 91.9126 154.603C91.9407 154.647 91.9938 154.675 92.0438 154.669C92.097 154.669 92.1438 154.64 92.172 154.599C92.5626 154.005 92.7313 154.037 92.7501 154.043C93.1845 154.178 93.1439 156.803 93.122 158.214L93.1157 158.603C92.9251 158.647 92.747 158.735 92.622 158.845C91.9501 159.439 91.9688 160.209 92.2595 161.608L92.3095 161.85C92.4626 162.607 92.5813 163.205 93.1095 163.764C93.4782 164.154 93.9782 164.204 94.3751 164.204C94.3907 164.204 94.4063 164.201 94.4188 164.195C94.8751 165.958 95.5814 167.485 96.4564 168.654C96.4564 168.661 96.4532 168.667 96.4532 168.673C96.447 168.903 96.4407 169.132 96.4376 169.365C96.3751 172.121 96.3188 174.723 93.8063 175.204L93.4251 175.273L85.8407 176.621C83.5001 177.131 81.8032 179.249 81.8032 181.663L81.9313 185.538H79.822C79.0001 185.538 78.2595 185.861 77.7376 186.449C77.2188 187.031 76.9845 187.797 77.0782 188.605L77.9001 195.89L46.522 195.925C46.4345 195.925 46.3657 195.994 46.3657 196.082C46.3657 196.17 46.4345 196.239 46.522 196.239L77.9376 196.205L79.247 207.824C79.3095 208.371 79.5657 208.873 79.9501 209.282C79.922 209.373 79.9032 209.471 79.9032 209.571V211.077C79.9032 211.645 80.3626 212.111 80.9313 212.111H119.928C120.494 212.111 120.956 211.649 120.956 211.077V209.571C120.956 209.442 120.931 209.323 120.888 209.21C121.234 208.814 121.466 208.336 121.522 207.821L122.844 196.154L157.988 196.11C158.075 196.11 158.144 196.041 158.144 195.953C158.144 195.865 158.075 195.796 157.988 195.796H157.994ZM108.775 159.078C109.281 159.524 109.341 160.077 109.038 161.542L108.988 161.784C108.841 162.519 108.734 163.047 108.266 163.544C108.003 163.824 107.472 163.88 107.138 163.887C107.375 162.881 107.55 161.797 107.647 160.637C107.672 160.341 107.694 159.939 107.706 159.603C107.725 159.578 107.738 159.546 107.738 159.515C107.738 159.213 107.831 159.018 108.016 158.933C108.256 158.823 108.594 158.924 108.769 159.081L108.775 159.078ZM94.472 162.919C94.4563 162.834 94.3751 162.777 94.2907 162.793C94.2063 162.809 94.1501 162.89 94.1657 162.975C94.222 163.286 94.2876 163.588 94.3563 163.887C93.8814 163.88 93.5688 163.777 93.3501 163.547C92.8845 163.051 92.7782 162.523 92.6282 161.787L92.5782 161.545C92.2751 160.081 92.3345 159.531 92.8407 159.081C92.9407 158.993 93.0907 158.924 93.2501 158.899C93.2595 158.899 93.2688 158.905 93.2813 158.905C93.3064 158.905 93.3282 158.899 93.347 158.889C93.4345 158.889 93.5188 158.899 93.5938 158.933C93.7782 159.018 93.872 159.213 93.872 159.515C93.872 159.537 93.8782 159.559 93.8845 159.578C93.8845 159.851 93.8845 160.125 93.8907 160.404C93.8907 160.489 93.9626 160.558 94.047 160.558H94.0532C94.1407 160.558 94.2064 160.483 94.2064 160.398C94.1939 159.927 94.1938 159.461 94.2126 159.018C94.2438 158.277 95.1751 154.288 95.1845 154.257C95.2688 153.98 96.0938 153.173 97.4626 152.997C98.6782 152.839 99.9095 153.213 100.603 153.955C100.644 153.999 100.7 154.012 100.753 153.996C100.806 154.009 100.866 153.996 100.903 153.955C101.597 153.217 102.831 152.839 104.044 152.997C105.394 153.173 106.197 153.911 106.325 154.266C106.347 154.329 106.409 154.37 106.472 154.37C106.491 154.37 106.506 154.37 106.525 154.361C106.606 154.332 106.647 154.241 106.619 154.159C106.444 153.675 105.516 152.874 104.084 152.685C102.813 152.519 101.522 152.905 100.75 153.669C99.9782 152.905 98.6876 152.519 97.4157 152.685C95.9657 152.874 95.0095 153.738 94.8751 154.178C94.8407 154.332 94.0563 157.679 93.9157 158.786C93.847 158.72 93.7751 158.676 93.7157 158.647C93.6251 158.607 93.5282 158.585 93.4313 158.578L93.4376 158.217C93.4782 155.637 93.4563 153.933 92.847 153.741C92.5595 153.65 92.2845 153.921 92.0657 154.21C91.9063 153.723 92.3907 153.301 93.072 152.78C93.5595 152.406 93.9845 152.082 93.9001 151.705C93.8282 151.369 93.372 151.123 92.3876 150.894C92.4532 150.445 93.1032 149.662 94.1938 148.999C95.0876 148.458 98.2657 146.865 101.644 149.118C101.763 149.197 101.853 149.184 101.909 149.159C102.053 149.093 102.075 148.917 102.1 148.71C102.128 148.496 102.159 148.232 102.313 148.169C102.447 148.116 102.819 148.141 103.803 148.936C103.853 148.977 103.919 148.983 103.975 148.955C104.031 148.927 104.063 148.867 104.056 148.804C104.069 148.725 104.516 148.279 106.216 148.223C107.188 148.188 107.372 148.27 107.4 148.282C107.397 148.345 107.234 148.524 107.116 148.656C106.756 149.059 106.216 149.665 106.425 150.423C106.447 150.507 106.534 150.555 106.619 150.533C107.678 150.237 108.05 150.294 108.175 150.391C108.269 150.467 108.272 150.617 108.259 150.856C108.247 151.12 108.234 151.45 108.497 151.661C109.688 152.61 109.909 152.978 109.884 153.116C109.869 153.213 109.634 153.295 109.409 153.374C109.019 153.509 108.531 153.679 108.313 154.15C108.253 154.279 108.25 154.775 108.266 156.416C108.275 157.23 108.284 158.069 108.266 158.581C108.134 158.578 108.003 158.597 107.881 158.654C107.825 158.679 107.759 158.72 107.694 158.779L107.378 157.133C107.363 157.048 107.278 156.991 107.194 157.007C107.109 157.023 107.053 157.104 107.069 157.192L107.409 158.968C107.406 159.109 107.372 160.055 107.325 160.621C106.894 165.735 104.7 170.895 100.772 170.895C97.897 170.895 95.3001 167.62 94.4563 162.931L94.472 162.919ZM96.7657 169.368C96.7657 169.255 96.772 169.141 96.7751 169.028C97.9251 170.399 99.3189 171.197 100.788 171.197C102.256 171.197 103.703 170.414 104.825 169.022C104.825 169.135 104.831 169.251 104.834 169.365C104.888 171.763 104.944 174.23 106.772 175.182L105.75 176.128C102.922 178.746 98.6282 178.777 95.7595 176.2L94.697 175.245C96.6532 174.343 96.7126 171.819 96.7689 169.365L96.7657 169.368ZM93.4938 175.578L93.8782 175.509L94.4095 175.415L95.547 176.439C98.5345 179.123 103.009 179.092 105.956 176.364L107.019 175.38L107.684 175.503C107.684 175.503 107.703 175.509 107.716 175.512C107.725 175.512 107.734 175.512 107.741 175.512L108.609 175.669L107.328 176.926C103.609 180.569 97.9657 180.613 94.197 177.027L92.8001 175.701L93.4907 175.578H93.4938ZM85.9157 176.926L92.4188 175.77L93.9813 177.256C95.9063 179.089 98.3095 180.003 100.709 180.003C103.109 180.003 105.606 179.051 107.544 177.153L108.984 175.741L115.466 176.926C117.663 177.404 119.256 179.393 119.256 181.647L119.081 185.535H82.2563L82.1282 181.653C82.1282 179.393 83.722 177.404 85.9126 176.926H85.9157ZM120.65 211.077C120.65 211.473 120.328 211.796 119.934 211.796H80.9376C80.5438 211.796 80.222 211.473 80.222 211.077V209.571C80.222 209.571 80.2251 209.549 80.2251 209.54C80.7688 209.992 81.4845 210.275 82.2438 210.275H118.534C119.331 210.275 120.081 209.961 120.631 209.467C120.638 209.502 120.644 209.533 120.644 209.571V211.077H120.65ZM121.219 207.786C121.084 208.987 119.881 209.961 118.538 209.961H82.247C80.9032 209.961 79.7032 208.987 79.5657 207.786L77.4001 188.571C77.3188 187.854 77.5251 187.175 77.9845 186.66C78.447 186.138 79.1032 185.852 79.8376 185.852H120.963C121.694 185.852 122.353 186.138 122.816 186.66C123.272 187.175 123.478 187.854 123.397 188.571L121.222 207.786H121.219Z" fill="#07064E"></path>
<path id="Vector_37" d="M45.1938 196.236H43.1626C43.0751 196.236 43.0063 196.167 43.0063 196.079C43.0063 195.991 43.0751 195.922 43.1626 195.922H45.1938C45.2813 195.922 45.3501 195.991 45.3501 196.079C45.3501 196.167 45.2813 196.236 45.1938 196.236Z" fill="#2BF5BA"></path>
</g>
</g>
</g>
</g>
<g id="Size=Default" clip-path="url(#clip1_85_2121)">
<g id="illu_bg_acknowledgments_4">
<g id="background_2">
<path id="Vector_38" d="M368.05 124.54C404.715 142.095 400.4 218.155 377.185 233.16C366.785 239.885 362.055 234.755 311.83 244.67C277.875 251.375 201.315 248.62 224.315 208.38C239.575 181.68 223.335 164.345 220.52 152.805C215.59 132.62 235.4 111.295 259.65 116.01C323.345 128.395 349.01 115.42 368.05 124.535V124.54Z" fill="#EDEDED"></path>
<g id="Vector_39">
<path d="M366.635 121.705C403.3 139.26 398.985 215.32 375.77 230.325C365.37 237.05 360.64 231.92 310.415 241.835C276.46 248.54 199.9 245.785 222.9 205.545C238.16 178.845 221.92 161.51 219.105 149.97C214.17 129.785 233.98 108.46 258.23 113.175C321.925 125.56 347.59 112.585 366.63 121.7L366.635 121.705Z" fill="#2BF5BA"></path>
<path d="M395.785 244.73C398.726 244.73 401.11 242.346 401.11 239.405C401.11 236.464 398.726 234.08 395.785 234.08C392.844 234.08 390.46 236.464 390.46 239.405C390.46 242.346 392.844 244.73 395.785 244.73Z" fill="#2BF5BA"></path>
<path d="M218.159 126.925C221.137 124.697 222.177 121.053 220.482 118.787C218.786 116.52 214.997 116.489 212.019 118.717C209.04 120.946 208 124.589 209.696 126.856C211.392 129.122 215.18 129.153 218.159 126.925Z" fill="#2BF5BA"></path>
</g>
<path id="Vector_40" d="M214.087 148.931C215.396 147.952 215.834 146.325 215.065 145.296C214.296 144.268 212.611 144.229 211.302 145.208C209.993 146.187 209.555 147.815 210.324 148.843C211.094 149.871 212.778 149.911 214.087 148.931Z" fill="#FFC391"></path>
</g>
<g id="illu_bg_acknowledgments_5">
<g id="stroke_2">
<path id="Vector_41" d="M331.765 189.055L331.995 184.15C332.43 178.79 328.97 174.735 323.75 174.57L312.345 172.305C308.745 175.715 305.13 177.37 301.5 177.155C297.405 176.89 294.71 174.73 292.215 172.305L279.88 174.58C275.495 174.56 271.95 178.16 272.05 182.545L272.27 189.055H331.765Z" fill="#FFC391"></path>
<path id="Vector_42" d="M314.48 146.19C314.575 144.495 314.385 139.31 314.54 138.975C315.42 137.09 319.66 138.6 314.77 134.715C313.78 133.93 315.815 131.735 311.54 132.88C310.855 130.435 315.795 129.035 310.955 129.195C308.22 129.285 307.225 130.01 307.26 130.385C303.115 127.06 304.66 131.18 303.785 130.66C295.43 125.735 288.375 131.835 288.585 133.89C295.035 135.325 286.435 136.77 288.29 139.45C290.56 136.025 290.305 142.175 290.255 146.195L291.91 147.81H313.09L314.48 146.195V146.19Z" fill="#EDEDED"></path>
<path id="Vector_43" d="M315.24 173.01L312.895 175.29C306.88 181.15 297.635 181.22 291.54 175.455L289.035 173.09L292.125 172.44C298.38 177.285 305.005 177.81 312.145 172.385L315.235 173.01H315.24Z" fill="#07064E"></path>
<g id="Vector_44">
<path d="M311.25 138.74C308.39 135.835 304.74 136.41 302.155 138.39C299.49 136.105 294.655 136.195 293.115 139.04C291.99 141.55 291.37 144.8 291.49 148.82C291.755 157.695 296.315 165.745 302.26 165.745C308.205 165.745 312.84 157.695 313.03 148.82C313.055 147.74 313.205 146.16 313.205 146.16C313.205 146.16 311.97 141.125 311.25 138.74Z" fill="white"></path>
<path d="M295.6 161.985H308.95C309.075 166.155 308.865 170.715 312.15 172.225C312.245 172.27 311.66 172.875 310.74 173.76C306.01 178.315 298.53 178.355 293.73 173.875C292.755 172.965 292.13 172.34 292.21 172.305C295.69 170.885 295.47 166.23 295.595 161.985" fill="white"></path>
</g>
<g id="Vector_45">
<path d="M291.45 147.41C291.45 145.86 289.995 145.99 289.38 146.53C288.42 147.375 288.42 148.49 288.88 150.69C289.165 152.06 289.295 153.07 290.175 154C290.655 154.505 291.32 154.625 292.02 154.625" fill="white"></path>
<path d="M313.135 147.41C313.135 145.86 314.59 145.99 315.205 146.53C316.165 147.375 316.165 148.49 315.705 150.69C315.42 152.06 315.29 153.07 314.41 154C313.93 154.505 313.01 154.625 312.31 154.625" fill="white"></path>
</g>
<path id="Vector_46" d="M302.255 165.745C296.875 165.37 295.765 161.37 295.765 162.155C295.765 166.74 298.645 170.46 302.2 170.46C305.755 170.46 308.635 166.74 308.635 162.155C308.635 161.37 306.68 166.05 302.25 165.745H302.255Z" fill="#EDEDED"></path>
<g id="Vector_47">
<path d="M311.25 138.74C309.875 137.345 309.78 137.31 308.22 136.935C314.31 150.54 308.54 161.38 303.79 165.565C308.985 164.33 312.86 156.92 313.035 148.82C313.06 147.74 313.21 146.16 313.21 146.16C313.21 146.16 311.975 141.125 311.255 138.74H311.25Z" fill="#EDEDED"></path>
<path d="M292.37 136.085C293.52 134.765 291.435 134.185 293.2 132.655C297.2 129.155 299.97 133.78 303.97 133.28C305.29 133.2 305.17 131.78 305.905 131.69C307.65 131.625 308.175 137.385 312.215 134.62C312.415 134.48 312.685 134.63 312.67 134.875C312.525 137.675 314.525 139.02 314.545 138.975C315.425 137.09 319.665 138.6 314.775 134.715C313.785 133.93 315.82 131.735 311.545 132.875C310.86 130.43 315.8 129.03 310.96 129.19C308.225 129.28 307.23 130.005 307.265 130.38C303.12 127.055 304.665 131.17 303.79 130.655C295.435 125.73 288.38 131.83 288.59 133.885C295.04 135.32 286.44 136.765 288.295 139.445C288.965 138.435 288.91 138.84 289.28 138.465C289.83 138.295 291.805 136.74 292.375 136.09L292.37 136.085Z" fill="white"></path>
</g>
<g id="Vector_48">
<path d="M302.15 139.39C301.885 139.39 301.62 139.285 301.42 139.075C300.47 138.065 298.75 137.56 297.035 137.78C296.485 137.85 295.985 137.465 295.915 136.915C295.845 136.365 296.23 135.865 296.78 135.795C299.14 135.49 301.48 136.22 302.875 137.7C303.255 138.1 303.235 138.735 302.835 139.115C302.64 139.295 302.395 139.385 302.15 139.385V139.39Z" fill="#EDEDED"></path>
<path d="M293.065 140C292.965 140 292.865 139.985 292.76 139.955C292.23 139.795 291.94 139.215 292.1 138.685C292.4 137.69 294.195 136.135 296.78 135.8C297.33 135.73 297.83 136.115 297.9 136.665C297.97 137.215 297.585 137.715 297.035 137.785C295.22 138.02 294.125 139.055 293.995 139.31C293.865 139.735 293.48 140 293.06 140H293.065Z" fill="#EDEDED"></path>
<path d="M311.365 139.975C310.935 139.975 310.54 139.695 310.41 139.265C310.295 139.055 309.2 138.02 307.385 137.785C305.67 137.565 303.95 138.07 303 139.08C302.62 139.48 301.99 139.5 301.585 139.12C301.185 138.74 301.165 138.11 301.545 137.705C302.94 136.225 305.28 135.495 307.64 135.8C310.225 136.135 312.02 137.69 312.32 138.685C312.48 139.215 312.18 139.77 311.655 139.935C311.56 139.965 311.46 139.98 311.365 139.98V139.975Z" fill="#EDEDED"></path>
</g>
<g id="Vector_49">
<path d="M298.45 150.44C298.668 150.44 298.845 150.263 298.845 150.045C298.845 149.827 298.668 149.65 298.45 149.65C298.232 149.65 298.055 149.827 298.055 150.045C298.055 150.263 298.232 150.44 298.45 150.44Z" fill="#FFC391"></path>
<path d="M296.685 151.975C296.903 151.975 297.08 151.798 297.08 151.58C297.08 151.362 296.903 151.185 296.685 151.185C296.467 151.185 296.29 151.362 296.29 151.58C296.29 151.798 296.467 151.975 296.685 151.975Z" fill="#FFC391"></path>
<path d="M294.65 151.13C294.868 151.13 295.045 150.953 295.045 150.735C295.045 150.517 294.868 150.34 294.65 150.34C294.432 150.34 294.255 150.517 294.255 150.735C294.255 150.953 294.432 151.13 294.65 151.13Z" fill="#FFC391"></path>
<path d="M296.23 150.13C296.448 150.13 296.625 149.953 296.625 149.735C296.625 149.517 296.448 149.34 296.23 149.34C296.012 149.34 295.835 149.517 295.835 149.735C295.835 149.953 296.012 150.13 296.23 150.13Z" fill="#FFC391"></path>
<path d="M308.93 151.67C309.148 151.67 309.325 151.493 309.325 151.275C309.325 151.057 309.148 150.88 308.93 150.88C308.712 150.88 308.535 151.057 308.535 151.275C308.535 151.493 308.712 151.67 308.93 151.67Z" fill="#FFC391"></path>
<path d="M307.165 150.13C307.383 150.13 307.56 149.953 307.56 149.735C307.56 149.517 307.383 149.34 307.165 149.34C306.947 149.34 306.77 149.517 306.77 149.735C306.77 149.953 306.947 150.13 307.165 150.13Z" fill="#FFC391"></path>
<path d="M305.13 150.975C305.348 150.975 305.525 150.798 305.525 150.58C305.525 150.362 305.348 150.185 305.13 150.185C304.912 150.185 304.735 150.362 304.735 150.58C304.735 150.798 304.912 150.975 305.13 150.975Z" fill="#FFC391"></path>
<path d="M306.71 151.975C306.928 151.975 307.105 151.798 307.105 151.58C307.105 151.362 306.928 151.185 306.71 151.185C306.492 151.185 306.315 151.362 306.315 151.58C306.315 151.798 306.492 151.975 306.71 151.975Z" fill="#FFC391"></path>
</g>
<g id="Vector_50">
<path d="M302.58 153.79C302.545 153.79 302.515 153.785 302.48 153.77L301.1 153.17C300.47 152.835 300.775 152.15 301.09 151.43C301.255 151.06 301.44 150.64 301.55 150.195L302.085 144.925C302.1 144.785 302.225 144.685 302.36 144.7C302.495 144.715 302.595 144.835 302.585 144.975L302.04 150.28C301.91 150.8 301.715 151.24 301.545 151.63C301.25 152.3 301.13 152.625 301.315 152.72L302.675 153.315C302.8 153.37 302.86 153.515 302.805 153.645C302.765 153.74 302.67 153.795 302.575 153.795L302.58 153.79Z" fill="#07064E"></path>
<path d="M302.12 159.705C300.895 159.705 299.72 159.3 298.6 158.49C298.49 158.41 298.465 158.255 298.545 158.14C298.625 158.03 298.78 158.005 298.895 158.085C300.98 159.595 303.19 159.59 305.645 158.075C305.76 158.005 305.915 158.04 305.99 158.155C306.06 158.275 306.025 158.425 305.91 158.5C304.605 159.305 303.34 159.705 302.12 159.705Z" fill="#07064E"></path>
<path d="M296.91 148.05C295.85 148.05 294.985 147.125 294.985 145.99C294.985 145.85 295.095 145.74 295.235 145.74C295.375 145.74 295.485 145.85 295.485 145.99C295.485 146.85 296.125 147.55 296.91 147.55C297.695 147.55 298.335 146.85 298.335 145.99C298.335 145.85 298.445 145.74 298.585 145.74C298.725 145.74 298.835 145.85 298.835 145.99C298.835 147.125 297.97 148.05 296.91 148.05Z" fill="#07064E"></path>
<path d="M303.115 161.275H300.995C300.855 161.275 300.745 161.165 300.745 161.025C300.745 160.885 300.855 160.775 300.995 160.775H303.115C303.255 160.775 303.365 160.885 303.365 161.025C303.365 161.165 303.255 161.275 303.115 161.275Z" fill="#07064E"></path>
<path d="M307.26 148.05C306.2 148.05 305.335 147.125 305.335 145.99C305.335 145.85 305.445 145.74 305.585 145.74C305.725 145.74 305.835 145.85 305.835 145.99C305.835 146.85 306.475 147.55 307.26 147.55C308.045 147.55 308.685 146.85 308.685 145.99C308.685 145.85 308.795 145.74 308.935 145.74C309.075 145.74 309.185 145.85 309.185 145.99C309.185 147.125 308.32 148.05 307.26 148.05Z" fill="#07064E"></path>
<path d="M294.255 143.745C294.21 143.745 294.16 143.73 294.12 143.705C294.005 143.63 293.97 143.475 294.045 143.36C294.99 141.895 297.06 141.74 299.88 142.915C300.005 142.97 300.07 143.115 300.015 143.24C299.96 143.37 299.815 143.425 299.69 143.375C298.2 142.755 295.545 141.96 294.47 143.63C294.42 143.705 294.34 143.745 294.26 143.745H294.255Z" fill="#07064E"></path>
<path d="M310.025 143.745C309.945 143.745 309.86 143.705 309.815 143.63C308.74 141.965 306.08 142.755 304.595 143.375C304.47 143.425 304.32 143.37 304.27 143.24C304.215 143.115 304.275 142.965 304.405 142.915C307.225 141.74 309.295 141.895 310.24 143.36C310.315 143.475 310.28 143.63 310.165 143.705C310.125 143.73 310.075 143.745 310.03 143.745H310.025Z" fill="#07064E"></path>
</g>
<path id="Vector_51" d="M301.72 235.05C322.022 235.05 338.48 233.161 338.48 230.83C338.48 228.499 322.022 226.61 301.72 226.61C281.418 226.61 264.96 228.499 264.96 230.83C264.96 233.161 281.418 235.05 301.72 235.05Z" fill="#2AEDB4"></path>
<path id="Vector_52" d="M338.68 193.66C338.965 191.145 337.105 189.055 334.535 189.055H268.74C266.175 189.055 264.31 191.14 264.595 193.66L267.79 221.835H267.645L267.915 224.19C268.145 226.225 270.19 227.87 272.455 227.87H330.53C332.795 227.87 334.835 226.225 335.07 224.19L335.265 222.46H335.41L338.69 193.66H338.68Z" fill="white"></path>
<path id="Vector_53" d="M335.925 189.275C319.98 203.07 312.205 211.945 296.595 217.455C287.4 221.13 278.125 224.14 268.245 225.335C268.955 226.805 270.625 227.865 272.445 227.865H330.52C332.785 227.865 334.825 226.22 335.06 224.185L335.255 222.455H335.4L338.68 193.655C338.91 191.62 337.74 189.87 335.925 189.27V189.275Z" fill="#EDEDED"></path>
<path id="Vector_54" d="M301.72 215.125C300.28 215.125 298.885 214.735 297.68 213.99C297.56 213.92 297.525 213.765 297.6 213.645C297.67 213.525 297.825 213.49 297.945 213.565C299.07 214.26 300.38 214.625 301.725 214.625C305.11 214.625 308.04 212.26 308.395 209.24C308.58 207.645 308.075 206.085 306.97 204.84C305.705 203.415 303.795 202.6 301.73 202.6C299.665 202.6 297.755 203.415 296.49 204.84C295.385 206.085 294.875 207.645 295.065 209.24C295.16 210.035 295.425 210.795 295.855 211.49C295.925 211.605 295.89 211.76 295.775 211.835C295.655 211.91 295.505 211.87 295.43 211.755C294.96 210.995 294.675 210.17 294.57 209.3C294.365 207.565 294.915 205.86 296.12 204.51C297.48 202.98 299.53 202.105 301.735 202.105C303.94 202.105 305.99 202.98 307.35 204.51C308.555 205.86 309.105 207.565 308.9 209.3C308.515 212.565 305.37 215.125 301.735 215.125H301.72Z" fill="#07064E"></path>
<g id="Group_3">
<path id="Vector_55" d="M232.58 138.965L266.385 128.855C269.095 128.045 271.97 129.6 272.785 132.305L275.395 141.03L280.175 157.01L283.195 167.11C283.475 168.045 282.325 168.73 281.635 168.045L274.365 160.805C273.385 159.83 271.955 159.47 270.63 159.865L241.445 168.595C238.735 169.405 235.86 167.85 235.045 165.145L229.13 145.37C228.32 142.66 229.875 139.785 232.58 138.97V138.965Z" fill="#2AEDB4"></path>
<path id="Vector_56" d="M232.58 136.84L266.385 126.73C269.095 125.92 271.97 127.475 272.785 130.18L275.395 138.905L280.175 154.885L283.195 164.985C283.475 165.92 282.325 166.605 281.635 165.92L274.365 158.68C273.385 157.705 271.955 157.345 270.63 157.74L241.445 166.47C238.735 167.28 235.86 165.725 235.045 163.02L229.13 143.245C228.32 140.535 229.875 137.66 232.58 136.845V136.84Z" fill="white"></path>
<path id="Vector_57" d="M231.344 136.999L267.439 126.204C269.528 125.579 271.726 126.769 272.349 128.853L272.845 130.511L229.19 143.566L228.695 141.909C228.07 139.82 229.26 137.622 231.344 136.999Z" fill="#07064E"></path>
<path id="Vector_58" d="M263.54 131.8C264.299 131.8 264.915 131.184 264.915 130.425C264.915 129.666 264.299 129.05 263.54 129.05C262.781 129.05 262.165 129.666 262.165 130.425C262.165 131.184 262.781 131.8 263.54 131.8Z" fill="white"></path>
<path id="Vector_59" d="M267.35 130.66C268.109 130.66 268.725 130.044 268.725 129.285C268.725 128.526 268.109 127.91 267.35 127.91C266.591 127.91 265.975 128.526 265.975 129.285C265.975 130.044 266.591 130.66 267.35 130.66Z" fill="#2BF5BA"></path>
<path id="Vector_60" d="M242.85 160.51C242.81 160.51 242.765 160.5 242.73 160.48C242.67 160.45 242.63 160.395 242.61 160.33L238.235 145.36C238.195 145.225 238.27 145.09 238.405 145.05C238.54 145.01 238.675 145.085 238.715 145.22L243.02 159.95L268.42 152.525C268.555 152.485 268.69 152.56 268.73 152.695C268.77 152.83 268.695 152.965 268.56 153.005L242.92 160.5C242.92 160.5 242.875 160.51 242.85 160.51Z" fill="#07064E"></path>
<g id="Vector_61">
<path d="M244.205 157.97C244.205 157.97 244.175 157.97 244.16 157.97C244.025 157.945 243.935 157.815 243.955 157.68L245.2 150.555C245.215 150.47 245.27 150.4 245.35 150.37C245.43 150.335 245.515 150.345 245.59 150.395L249.32 152.915L251.145 145.535C251.165 145.45 251.235 145.38 251.32 145.355C251.405 145.33 251.5 145.355 251.565 145.42L258.835 152.61L262.4 138.825C262.435 138.69 262.57 138.61 262.705 138.645C262.84 138.68 262.92 138.815 262.885 138.95L259.215 153.155C259.195 153.24 259.125 153.31 259.04 153.335C258.955 153.36 258.86 153.335 258.8 153.27L251.53 146.08L249.725 153.38C249.705 153.46 249.65 153.525 249.57 153.555C249.495 153.585 249.41 153.575 249.34 153.53L245.63 151.025L244.455 157.77C244.435 157.89 244.33 157.975 244.21 157.975L244.205 157.97Z" fill="#FFC391"></path>
<path d="M264.055 141.345C263.965 141.345 263.88 141.3 263.835 141.215L262.63 139.04L260.44 140.25C260.32 140.315 260.165 140.275 260.1 140.15C260.035 140.03 260.075 139.875 260.2 139.81L262.61 138.48C262.67 138.45 262.735 138.44 262.8 138.46C262.865 138.48 262.92 138.52 262.95 138.58L264.275 140.975C264.34 141.095 264.3 141.25 264.175 141.315C264.135 141.335 264.095 141.345 264.055 141.345Z" fill="#FFC391"></path>
</g>
</g>
<g id="Group_4">
<path id="Vector_62" d="M364.665 151.825L340.79 142.5C338.875 141.755 336.7 142.705 335.955 144.62L333.55 150.78L329.14 162.065L326.355 169.2C326.1 169.86 326.89 170.425 327.43 169.97L333.125 165.16C333.89 164.515 334.95 164.335 335.885 164.7L356.5 172.75C358.415 173.495 360.59 172.545 361.335 170.63L366.79 156.665C367.535 154.75 366.585 152.575 364.67 151.83L364.665 151.825Z" fill="#2AEDB4"></path>
<path id="Vector_63" d="M364.665 149.7L340.79 140.375C338.875 139.63 336.7 140.58 335.955 142.495L333.55 148.655L329.14 159.94L326.355 167.075C326.1 167.735 326.89 168.3 327.43 167.845L333.125 163.035C333.89 162.39 334.95 162.21 335.885 162.575L356.5 170.625C358.415 171.37 360.59 170.42 361.335 168.505L366.79 154.54C367.535 152.625 366.585 150.45 364.67 149.705L364.665 149.7Z" fill="white"></path>
<path id="Vector_64" d="M340.421 140.237L365.025 149.85C366.743 150.521 367.595 152.464 366.923 154.183L366.696 154.765L335.865 142.72L336.093 142.137C336.764 140.419 338.707 139.568 340.426 140.239L340.421 140.237Z" fill="#07064E"></path>
<path id="Vector_65" d="M361.71 151.645C362.246 151.645 362.68 151.211 362.68 150.675C362.68 150.139 362.246 149.705 361.71 149.705C361.175 149.705 360.74 150.139 360.74 150.675C360.74 151.211 361.175 151.645 361.71 151.645Z" fill="white"></path>
<path id="Vector_66" d="M364.325 152.665C364.861 152.665 365.295 152.231 365.295 151.695C365.295 151.159 364.861 150.725 364.325 150.725C363.789 150.725 363.355 151.159 363.355 151.695C363.355 152.231 363.789 152.665 364.325 152.665Z" fill="#2BF5BA"></path>
<path id="Vector_67" d="M342.441 149.632L338.804 148.211C337.896 147.856 336.873 148.305 336.518 149.213L335.097 152.85C334.742 153.758 335.191 154.781 336.099 155.136L339.736 156.557C340.644 156.912 341.667 156.463 342.022 155.555L343.443 151.918C343.798 151.01 343.349 149.987 342.441 149.632Z" fill="#07064E"></path>
<path id="Vector_68" d="M345.712 154.928L344.291 158.565C343.936 159.473 344.385 160.497 345.293 160.851L348.93 162.272C349.838 162.627 350.862 162.179 351.216 161.271L352.637 157.633C352.992 156.725 352.544 155.702 351.636 155.347L347.999 153.926C347.091 153.571 346.067 154.02 345.712 154.928Z" fill="#EDEDED"></path>
<g id="Vector_69">
<path d="M345.713 152.8L344.292 156.437C343.937 157.345 344.386 158.368 345.294 158.723L348.931 160.144C349.839 160.499 350.862 160.05 351.217 159.142L352.638 155.505C352.993 154.597 352.544 153.574 351.636 153.219L347.999 151.798C347.091 151.443 346.068 151.892 345.713 152.8Z" fill="#2BF5BA"></path>
<path d="M360.809 156.809L357.172 155.388C356.264 155.034 355.24 155.482 354.886 156.39L353.465 160.027C353.11 160.935 353.558 161.959 354.466 162.314L358.103 163.735C359.011 164.089 360.035 163.641 360.39 162.733L361.811 159.096C362.166 158.188 361.717 157.164 360.809 156.809Z" fill="#2BF5BA"></path>
</g>
<g id="Vector_70">
<path d="M340.475 155.385L340.015 155.205C339.96 155.185 339.925 155.155 339.9 155.115C339.88 155.075 339.865 155.03 339.865 154.985V153.76L337.89 152.99L337.065 153.895C337.04 153.925 337 153.95 336.955 153.965C336.91 153.98 336.86 153.98 336.81 153.96L336.35 153.78L339.835 150.06L340.44 150.295L340.48 155.39L340.475 155.385ZM339.87 153.265L339.88 151.2C339.88 151.14 339.88 151.07 339.89 150.99C339.89 150.91 339.905 150.825 339.915 150.74C339.805 150.89 339.71 151.01 339.62 151.105L338.23 152.625L339.875 153.27L339.87 153.265Z" fill="white"></path>
<path d="M349.17 153.705C349.44 153.81 349.665 153.93 349.84 154.06C350.015 154.19 350.145 154.33 350.235 154.475C350.325 154.625 350.37 154.78 350.37 154.945C350.37 155.11 350.34 155.285 350.27 155.46C350.225 155.57 350.17 155.665 350.095 155.75C350.02 155.835 349.935 155.91 349.835 155.97C349.735 156.03 349.62 156.075 349.49 156.1C349.36 156.13 349.215 156.135 349.06 156.125C349.36 156.315 349.56 156.525 349.655 156.755C349.75 156.99 349.745 157.24 349.64 157.515C349.565 157.7 349.465 157.86 349.34 157.985C349.215 158.11 349.06 158.205 348.885 158.265C348.71 158.325 348.515 158.345 348.295 158.33C348.08 158.315 347.85 158.26 347.6 158.165L346.045 157.555L347.765 153.15L349.17 153.7V153.705ZM348.175 153.86L347.59 155.365L348.375 155.67C348.545 155.735 348.695 155.775 348.835 155.785C348.975 155.795 349.095 155.785 349.205 155.75C349.31 155.715 349.4 155.66 349.48 155.58C349.555 155.5 349.615 155.41 349.66 155.295C349.76 155.035 349.76 154.815 349.65 154.635C349.54 154.455 349.325 154.3 348.995 154.17L348.185 153.855L348.175 153.86ZM347.775 157.695C347.945 157.76 348.1 157.8 348.24 157.81C348.38 157.82 348.5 157.805 348.605 157.765C348.71 157.725 348.8 157.665 348.875 157.58C348.95 157.495 349.01 157.395 349.055 157.28C349.145 157.05 349.135 156.84 349.025 156.645C348.915 156.45 348.7 156.29 348.375 156.16L347.42 155.79L346.82 157.325L347.775 157.695Z" fill="white"></path>
<path d="M358.66 161.445C358.695 161.46 358.715 161.48 358.73 161.52L358.865 161.87C358.605 162.01 358.32 162.085 358.02 162.1C357.715 162.115 357.385 162.055 357.02 161.91C356.705 161.785 356.44 161.62 356.225 161.41C356.01 161.2 355.85 160.96 355.745 160.69C355.64 160.42 355.59 160.13 355.6 159.81C355.61 159.495 355.675 159.17 355.805 158.84C355.935 158.51 356.105 158.225 356.32 157.99C356.535 157.755 356.775 157.575 357.04 157.45C357.305 157.325 357.595 157.26 357.9 157.255C358.205 157.25 358.52 157.31 358.84 157.435C359.16 157.56 359.41 157.715 359.61 157.91C359.81 158.105 359.97 158.325 360.085 158.565L359.78 158.76C359.78 158.76 359.735 158.785 359.715 158.79C359.69 158.795 359.66 158.79 359.63 158.78C359.595 158.765 359.555 158.73 359.52 158.665C359.48 158.605 359.43 158.535 359.365 158.45C359.3 158.365 359.21 158.28 359.095 158.19C358.98 158.1 358.83 158.02 358.64 157.945C358.41 157.855 358.19 157.815 357.97 157.82C357.75 157.825 357.545 157.875 357.35 157.97C357.155 158.065 356.98 158.21 356.82 158.395C356.66 158.58 356.525 158.81 356.42 159.08C356.315 159.35 356.255 159.615 356.25 159.86C356.245 160.105 356.28 160.33 356.36 160.53C356.44 160.73 356.555 160.91 356.71 161.06C356.865 161.21 357.05 161.33 357.265 161.41C357.395 161.46 357.515 161.5 357.63 161.525C357.74 161.55 357.85 161.565 357.95 161.565C358.05 161.565 358.15 161.56 358.25 161.54C358.345 161.52 358.445 161.49 358.55 161.45C358.595 161.435 358.64 161.43 358.675 161.445H358.66Z" fill="white"></path>
</g>
</g>
<path id="Vector_71" d="M329.195 185.07C329.22 186.415 329.26 187.745 329.32 189.055H331.76L331.99 184.15C332.425 178.79 328.965 174.735 323.745 174.57L321.94 174.28C325.755 176.47 329.105 179.915 329.19 185.065L329.195 185.07Z" fill="#FFAF6E"></path>
<path id="Vector_72" d="M330.525 227.87H272.45C271.205 227.87 270.04 227.365 269.195 226.58C269.145 226.725 269.11 226.88 269.11 227.04V229.435C269.11 230.205 269.735 230.83 270.505 230.83H332.9C333.67 230.83 334.295 230.205 334.295 229.435V227.04C334.295 226.765 334.215 226.515 334.075 226.3C333.22 227.25 331.915 227.87 330.525 227.87Z" fill="#EDEDED"></path>
<path id="Vector_73" d="M393.79 205.13L337.615 205.2L338.925 193.685C339.07 192.4 338.695 191.18 337.87 190.255C337.035 189.32 335.85 188.805 334.535 188.805H332.03L332.31 182.63C332.31 178.8 329.595 175.43 325.84 174.62L313.385 172.355C309.415 171.565 309.32 167.44 309.22 163.075C309.21 162.705 309.205 162.34 309.195 161.975C309.195 161.955 309.185 161.94 309.18 161.92C310.5 160.085 311.565 157.69 312.295 154.86C312.295 154.86 312.3 154.86 312.305 154.86C313.04 154.86 314.035 154.74 314.585 154.16C315.43 153.27 315.62 152.32 315.865 151.115L315.945 150.73C316.41 148.505 316.44 147.28 315.365 146.335C315.2 146.19 314.98 146.07 314.735 145.995C314.77 145.175 314.755 143.8 314.735 142.465C314.72 141.05 314.7 139.29 314.76 139.08C315.02 138.52 315.66 138.3 316.225 138.105C316.745 137.925 317.24 137.755 317.315 137.31C317.395 136.83 317.025 136.195 314.915 134.52C314.705 134.355 314.705 134.085 314.72 133.655C314.74 133.25 314.755 132.79 314.395 132.505C313.975 132.17 313.17 132.19 311.72 132.57C311.63 131.73 312.275 131.01 312.76 130.475C313.15 130.04 313.46 129.7 313.3 129.36C313.155 129.05 312.735 128.895 310.93 128.95C309.08 129.01 307.675 129.39 307.17 129.955C307.16 129.965 307.15 129.98 307.14 129.99C305.895 129.03 305.055 128.68 304.51 128.9C303.995 129.11 303.92 129.715 303.86 130.16C303.85 130.235 303.84 130.33 303.825 130.405C298.205 126.73 292.935 129.355 291.45 130.255C289.535 131.41 288.22 132.95 288.315 133.92C288.325 134.025 288.405 134.115 288.51 134.14C290.365 134.555 290.71 134.915 290.745 135.095C290.81 135.385 290.17 135.875 289.605 136.3C288.545 137.105 287.1 138.205 288.06 139.595C288.105 139.665 288.19 139.71 288.27 139.7C288.355 139.7 288.43 139.655 288.475 139.59C289.1 138.645 289.37 138.695 289.4 138.705C290.095 138.92 290.03 143.095 289.995 145.34L289.985 145.96C289.68 146.03 289.395 146.17 289.195 146.345C288.12 147.29 288.15 148.515 288.615 150.74L288.695 151.125C288.94 152.33 289.13 153.28 289.975 154.17C290.565 154.79 291.365 154.87 292 154.87C292.025 154.87 292.05 154.865 292.07 154.855C292.8 157.66 293.93 160.09 295.33 161.95C295.33 161.96 295.325 161.97 295.325 161.98C295.315 162.345 295.305 162.71 295.3 163.08C295.2 167.465 295.11 171.605 291.09 172.37L290.48 172.48L278.345 174.625C274.6 175.435 271.885 178.805 271.885 182.645L272.09 188.81H268.715C267.4 188.81 266.215 189.325 265.38 190.26C264.55 191.185 264.175 192.405 264.325 193.69L265.64 205.28L215.435 205.335C215.295 205.335 215.185 205.445 215.185 205.585C215.185 205.725 215.295 205.835 215.435 205.835L265.7 205.78L267.795 224.265C267.895 225.135 268.305 225.935 268.92 226.585C268.875 226.73 268.845 226.885 268.845 227.045V229.44C268.845 230.345 269.58 231.085 270.49 231.085H332.885C333.79 231.085 334.53 230.35 334.53 229.44V227.045C334.53 226.84 334.49 226.65 334.42 226.47C334.975 225.84 335.345 225.08 335.435 224.26L337.55 205.7L393.78 205.63C393.92 205.63 394.03 205.52 394.03 205.38C394.03 205.24 393.92 205.13 393.78 205.13H393.79ZM315.04 146.715C315.85 147.425 315.945 148.305 315.46 150.635L315.38 151.02C315.145 152.19 314.975 153.03 314.225 153.82C313.805 154.265 312.955 154.355 312.42 154.365C312.8 152.765 313.08 151.04 313.235 149.195C313.275 148.725 313.31 148.085 313.33 147.55C313.36 147.51 313.38 147.46 313.38 147.41C313.38 146.93 313.53 146.62 313.825 146.485C314.21 146.31 314.75 146.47 315.03 146.72L315.04 146.715ZM292.155 152.825C292.13 152.69 292 152.6 291.865 152.625C291.73 152.65 291.64 152.78 291.665 152.915C291.755 153.41 291.86 153.89 291.97 154.365C291.21 154.355 290.71 154.19 290.36 153.825C289.615 153.035 289.445 152.195 289.205 151.025L289.125 150.64C288.64 148.31 288.735 147.435 289.545 146.72C289.705 146.58 289.945 146.47 290.2 146.43C290.215 146.43 290.23 146.44 290.25 146.44C290.29 146.44 290.325 146.43 290.355 146.415C290.495 146.415 290.63 146.43 290.75 146.485C291.045 146.62 291.195 146.93 291.195 147.41C291.195 147.445 291.205 147.48 291.215 147.51C291.215 147.945 291.215 148.38 291.225 148.825C291.225 148.96 291.34 149.07 291.475 149.07H291.485C291.625 149.07 291.73 148.95 291.73 148.815C291.71 148.065 291.71 147.325 291.74 146.62C291.79 145.44 293.28 139.095 293.295 139.045C293.43 138.605 294.75 137.32 296.94 137.04C298.885 136.79 300.855 137.385 301.965 138.565C302.03 138.635 302.12 138.655 302.205 138.63C302.29 138.65 302.385 138.63 302.445 138.565C303.555 137.39 305.53 136.79 307.47 137.04C309.63 137.32 310.915 138.495 311.12 139.06C311.155 139.16 311.255 139.225 311.355 139.225C311.385 139.225 311.41 139.225 311.44 139.21C311.57 139.165 311.635 139.02 311.59 138.89C311.31 138.12 309.825 136.845 307.535 136.545C305.5 136.28 303.435 136.895 302.2 138.11C300.965 136.895 298.9 136.28 296.865 136.545C294.545 136.845 293.015 138.22 292.8 138.92C292.745 139.165 291.49 144.49 291.265 146.25C291.155 146.145 291.04 146.075 290.945 146.03C290.8 145.965 290.645 145.93 290.49 145.92L290.5 145.345C290.565 141.24 290.53 138.53 289.555 138.225C289.095 138.08 288.655 138.51 288.305 138.97C288.05 138.195 288.825 137.525 289.915 136.695C290.695 136.1 291.375 135.585 291.24 134.985C291.125 134.45 290.395 134.06 288.82 133.695C288.925 132.98 289.965 131.735 291.71 130.68C293.14 129.82 298.225 127.285 303.63 130.87C303.82 130.995 303.965 130.975 304.055 130.935C304.285 130.83 304.32 130.55 304.36 130.22C304.405 129.88 304.455 129.46 304.7 129.36C304.915 129.275 305.51 129.315 307.085 130.58C307.165 130.645 307.27 130.655 307.36 130.61C307.45 130.565 307.5 130.47 307.49 130.37C307.51 130.245 308.225 129.535 310.945 129.445C312.5 129.39 312.795 129.52 312.84 129.54C312.835 129.64 312.575 129.925 312.385 130.135C311.81 130.775 310.945 131.74 311.28 132.945C311.315 133.08 311.455 133.155 311.59 133.12C313.285 132.65 313.88 132.74 314.08 132.895C314.23 133.015 314.235 133.255 314.215 133.635C314.195 134.055 314.175 134.58 314.595 134.915C316.5 136.425 316.855 137.01 316.815 137.23C316.79 137.385 316.415 137.515 316.055 137.64C315.43 137.855 314.65 138.125 314.3 138.875C314.205 139.08 314.2 139.87 314.225 142.48C314.24 143.775 314.255 145.11 314.225 145.925C314.015 145.92 313.805 145.95 313.61 146.04C313.52 146.08 313.415 146.145 313.31 146.24L312.805 143.62C312.78 143.485 312.645 143.395 312.51 143.42C312.375 143.445 312.285 143.575 312.31 143.715L312.855 146.54C312.85 146.765 312.795 148.27 312.72 149.17C312.03 157.305 308.52 165.515 302.235 165.515C297.635 165.515 293.48 160.305 292.13 152.845L292.155 152.825ZM295.825 163.085C295.825 162.905 295.835 162.725 295.84 162.545C297.68 164.725 299.91 165.995 302.26 165.995C304.61 165.995 306.925 164.75 308.72 162.535C308.72 162.715 308.73 162.9 308.735 163.08C308.82 166.895 308.91 170.82 311.835 172.335L310.2 173.84C305.675 178.005 298.805 178.055 294.215 173.955L292.515 172.435C295.645 171 295.74 166.985 295.83 163.08L295.825 163.085ZM290.59 172.965L291.205 172.855L292.055 172.705L293.875 174.335C298.655 178.605 305.815 178.555 310.53 174.215L312.23 172.65L313.295 172.845C313.295 172.845 313.325 172.855 313.345 172.86C313.36 172.86 313.375 172.86 313.385 172.86L314.775 173.11L312.725 175.11C306.775 180.905 297.745 180.975 291.715 175.27L289.48 173.16L290.585 172.965H290.59ZM278.465 175.11L288.87 173.27L291.37 175.635C294.45 178.55 298.295 180.005 302.135 180.005C305.975 180.005 309.97 178.49 313.07 175.47L315.375 173.225L325.745 175.11C329.26 175.87 331.81 179.035 331.81 182.62L331.53 188.805H272.61L272.405 182.63C272.405 179.035 274.955 175.87 278.46 175.11H278.465ZM334.04 229.44C334.04 230.07 333.525 230.585 332.895 230.585H270.5C269.87 230.585 269.355 230.07 269.355 229.44V227.045C269.355 227.045 269.36 227.01 269.36 226.995C270.23 227.715 271.375 228.165 272.59 228.165H330.655C331.93 228.165 333.13 227.665 334.01 226.88C334.02 226.935 334.03 226.985 334.03 227.045V229.44H334.04ZM334.95 224.205C334.735 226.115 332.81 227.665 330.66 227.665H272.595C270.445 227.665 268.525 226.115 268.305 224.205L264.84 193.635C264.71 192.495 265.04 191.415 265.775 190.595C266.515 189.765 267.565 189.31 268.74 189.31H334.54C335.71 189.31 336.765 189.765 337.505 190.595C338.235 191.415 338.565 192.495 338.435 193.635L334.955 224.205H334.95Z" fill="#07064E"></path>
<path id="Vector_74" d="M213.31 205.83H210.06C209.92 205.83 209.81 205.72 209.81 205.58C209.81 205.44 209.92 205.33 210.06 205.33H213.31C213.45 205.33 213.56 205.44 213.56 205.58C213.56 205.72 213.45 205.83 213.31 205.83Z" fill="#2BF5BA"></path>
</g>
</g>
</g>
</g>
<g id="Size=Extra_Large" clip-path="url(#clip2_85_2121)">
<g id="illu_bg_acknowledgments_6">
<g id="background_3">
<path id="Vector_75" d="M771.1 69.08C844.43 104.19 835.8 256.31 789.37 286.32C768.57 299.77 759.11 289.51 658.66 309.34C590.75 322.75 437.63 317.24 483.63 236.76C514.15 183.36 481.67 148.69 476.04 125.61C466.18 85.24 505.8 42.59 554.3 52.02C681.69 76.79 733.02 50.84 771.1 69.07V69.08Z" fill="#EDEDED"></path>
<g id="Vector_76">
<path d="M768.27 63.41C841.6 98.52 832.97 250.64 786.54 280.65C765.74 294.1 756.28 283.84 655.83 303.67C587.92 317.08 434.8 311.57 480.8 231.09C511.32 177.69 478.84 143.02 473.21 119.94C463.34 79.57 502.96 36.92 551.46 46.35C678.85 71.12 730.18 45.17 768.26 63.4L768.27 63.41Z" fill="#2BF5BA"></path>
<path d="M826.57 309.46C832.452 309.46 837.22 304.692 837.22 298.81C837.22 292.928 832.452 288.16 826.57 288.16C820.688 288.16 815.92 292.928 815.92 298.81C815.92 304.692 820.688 309.46 826.57 309.46Z" fill="#2BF5BA"></path>
<path d="M471.318 73.8499C477.275 69.3936 479.355 62.1065 475.964 57.5736C472.573 53.0407 464.995 52.9787 459.038 57.435C453.081 61.8913 451.001 69.1784 454.392 73.7113C457.783 78.2442 465.361 78.3063 471.318 73.8499Z" fill="#2BF5BA"></path>
</g>
<path id="Vector_77" d="M463.175 117.863C465.793 115.904 466.668 112.649 465.129 110.593C463.591 108.537 460.222 108.457 457.604 110.416C454.986 112.374 454.11 115.629 455.649 117.685C457.187 119.742 460.557 119.821 463.175 117.863Z" fill="#FFC391"></path>
</g>
<g id="illu_bg_acknowledgments_7">
<g id="stroke_3">
<path id="Vector_78" d="M698.53 198.11L698.99 188.3C699.86 177.58 692.94 169.47 682.5 169.14L659.69 164.61C652.49 171.43 645.26 174.74 638 174.31C629.81 173.78 624.42 169.46 619.43 164.61L594.76 169.16C585.99 169.12 578.9 176.32 579.1 185.09L579.54 198.11H698.53Z" fill="#FFC391"></path>
<path id="Vector_79" d="M663.96 112.38C664.15 108.99 663.77 98.62 664.08 97.95C665.84 94.18 674.32 97.2 664.54 89.43C662.56 87.86 666.63 83.47 658.08 85.76C656.71 80.87 666.59 78.07 656.91 78.39C651.44 78.57 649.45 80.02 649.52 80.77C641.23 74.12 644.32 82.36 642.57 81.32C625.86 71.47 611.75 83.67 612.17 87.78C625.07 90.65 607.87 93.54 611.58 98.9C616.12 92.05 615.61 104.35 615.51 112.39L618.82 115.62H661.18L663.96 112.39V112.38Z" fill="#EDEDED"></path>
<path id="Vector_80" d="M665.48 166.02L660.79 170.58C648.76 182.3 630.27 182.44 618.08 170.91L613.07 166.18L619.25 164.88C631.76 174.57 645.01 175.62 659.29 164.77L665.47 166.02H665.48Z" fill="#07064E"></path>
<g id="Vector_81">
<path d="M657.5 97.48C651.78 91.67 644.48 92.82 639.31 96.78C633.98 92.21 624.31 92.39 621.23 98.08C618.98 103.1 617.74 109.6 617.98 117.64C618.51 135.39 627.63 151.49 639.52 151.49C651.41 151.49 660.68 135.39 661.06 117.64C661.11 115.48 661.41 112.32 661.41 112.32C661.41 112.32 658.94 102.25 657.5 97.48Z" fill="white"></path>
<path d="M626.2 143.97H652.9C653.15 152.31 652.73 161.43 659.3 164.45C659.49 164.54 658.32 165.75 656.48 167.52C647.02 176.63 632.06 176.71 622.46 167.75C620.51 165.93 619.26 164.68 619.42 164.61C626.38 161.77 625.94 152.46 626.19 143.97" fill="white"></path>
</g>
<g id="Vector_82">
<path d="M617.9 114.82C617.9 111.72 614.99 111.98 613.76 113.06C611.84 114.75 611.84 116.98 612.76 121.38C613.33 124.12 613.59 126.14 615.35 128C616.31 129.01 617.64 129.25 619.04 129.25" fill="white"></path>
<path d="M661.27 114.82C661.27 111.72 664.18 111.98 665.41 113.06C667.33 114.75 667.33 116.98 666.41 121.38C665.84 124.12 665.58 126.14 663.82 128C662.86 129.01 661.02 129.25 659.62 129.25" fill="white"></path>
</g>
<path id="Vector_83" d="M639.51 151.49C628.75 150.74 626.53 142.74 626.53 144.31C626.53 153.48 632.29 160.92 639.4 160.92C646.51 160.92 652.27 153.48 652.27 144.31C652.27 142.74 648.36 152.1 639.5 151.49H639.51Z" fill="#EDEDED"></path>
<g id="Vector_84">
<path d="M657.5 97.48C654.75 94.69 654.56 94.62 651.44 93.87C663.62 121.08 652.08 142.76 642.58 151.13C652.97 148.66 660.72 133.84 661.07 117.64C661.12 115.48 661.42 112.32 661.42 112.32C661.42 112.32 658.95 102.25 657.51 97.48H657.5Z" fill="#EDEDED"></path>
<path d="M619.74 92.17C622.04 89.53 617.87 88.37 621.4 85.31C629.4 78.31 634.94 87.56 642.94 86.56C645.58 86.4 645.34 83.56 646.81 83.38C650.3 83.25 651.35 94.77 659.43 89.24C659.83 88.96 660.37 89.26 660.34 89.75C660.05 95.35 664.05 98.04 664.09 97.95C665.85 94.18 674.33 97.2 664.55 89.43C662.57 87.86 666.64 83.47 658.09 85.75C656.72 80.86 666.6 78.06 656.92 78.38C651.45 78.56 649.46 80.01 649.53 80.76C641.24 74.11 644.33 82.34 642.58 81.31C625.87 71.46 611.76 83.66 612.18 87.77C625.08 90.64 607.88 93.53 611.59 98.89C612.93 96.87 612.82 97.68 613.56 96.93C614.66 96.59 618.61 93.48 619.75 92.18L619.74 92.17Z" fill="white"></path>
</g>
<g id="Vector_85">
<path d="M639.3 98.78C638.77 98.78 638.24 98.57 637.84 98.15C635.94 96.13 632.5 95.12 629.07 95.56C627.97 95.7 626.97 94.93 626.83 93.83C626.69 92.73 627.46 91.73 628.56 91.59C633.28 90.98 637.96 92.44 640.75 95.4C641.51 96.2 641.47 97.47 640.67 98.23C640.28 98.59 639.79 98.77 639.3 98.77V98.78Z" fill="#EDEDED"></path>
<path d="M621.13 100C620.93 100 620.73 99.97 620.52 99.91C619.46 99.59 618.88 98.43 619.2 97.37C619.8 95.38 623.39 92.27 628.56 91.6C629.66 91.46 630.66 92.23 630.8 93.33C630.94 94.43 630.17 95.43 629.07 95.57C625.44 96.04 623.25 98.11 622.99 98.62C622.73 99.47 621.96 100 621.12 100H621.13Z" fill="#EDEDED"></path>
<path d="M657.73 99.95C656.87 99.95 656.08 99.39 655.82 98.53C655.59 98.11 653.4 96.04 649.77 95.57C646.34 95.13 642.9 96.14 641 98.16C640.24 98.96 638.98 99 638.17 98.24C637.37 97.48 637.33 96.22 638.09 95.41C640.88 92.45 645.56 90.99 650.28 91.6C655.45 92.27 659.04 95.38 659.64 97.37C659.96 98.43 659.36 99.54 658.31 99.87C658.12 99.93 657.92 99.96 657.73 99.96V99.95Z" fill="#EDEDED"></path>
</g>
<g id="Vector_86">
<path d="M631.9 120.88C632.337 120.88 632.69 120.526 632.69 120.09C632.69 119.654 632.337 119.3 631.9 119.3C631.464 119.3 631.11 119.654 631.11 120.09C631.11 120.526 631.464 120.88 631.9 120.88Z" fill="#FFC391"></path>
<path d="M628.37 123.95C628.807 123.95 629.16 123.596 629.16 123.16C629.16 122.724 628.807 122.37 628.37 122.37C627.934 122.37 627.58 122.724 627.58 123.16C627.58 123.596 627.934 123.95 628.37 123.95Z" fill="#FFC391"></path>
<path d="M624.3 122.26C624.737 122.26 625.09 121.906 625.09 121.47C625.09 121.034 624.737 120.68 624.3 120.68C623.864 120.68 623.51 121.034 623.51 121.47C623.51 121.906 623.864 122.26 624.3 122.26Z" fill="#FFC391"></path>
<path d="M627.46 120.26C627.897 120.26 628.25 119.906 628.25 119.47C628.25 119.034 627.897 118.68 627.46 118.68C627.024 118.68 626.67 119.034 626.67 119.47C626.67 119.906 627.024 120.26 627.46 120.26Z" fill="#FFC391"></path>
<path d="M652.86 123.34C653.297 123.34 653.65 122.986 653.65 122.55C653.65 122.114 653.297 121.76 652.86 121.76C652.424 121.76 652.07 122.114 652.07 122.55C652.07 122.986 652.424 123.34 652.86 123.34Z" fill="#FFC391"></path>
<path d="M649.33 120.26C649.767 120.26 650.12 119.906 650.12 119.47C650.12 119.034 649.767 118.68 649.33 118.68C648.894 118.68 648.54 119.034 648.54 119.47C648.54 119.906 648.894 120.26 649.33 120.26Z" fill="#FFC391"></path>
<path d="M645.26 121.95C645.697 121.95 646.05 121.596 646.05 121.16C646.05 120.724 645.697 120.37 645.26 120.37C644.824 120.37 644.47 120.724 644.47 121.16C644.47 121.596 644.824 121.95 645.26 121.95Z" fill="#FFC391"></path>
<path d="M648.42 123.95C648.857 123.95 649.21 123.596 649.21 123.16C649.21 122.724 648.857 122.37 648.42 122.37C647.984 122.37 647.63 122.724 647.63 123.16C647.63 123.596 647.984 123.95 648.42 123.95Z" fill="#FFC391"></path>
</g>
<g id="Vector_87">
<path d="M640.16 127.58C640.09 127.58 640.03 127.57 639.96 127.54L637.2 126.34C635.94 125.67 636.55 124.3 637.18 122.86C637.51 122.12 637.88 121.28 638.1 120.39L639.17 109.85C639.2 109.57 639.45 109.37 639.72 109.4C639.99 109.43 640.19 109.67 640.17 109.95L639.08 120.56C638.82 121.6 638.43 122.48 638.09 123.26C637.5 124.6 637.26 125.25 637.63 125.44L640.35 126.63C640.6 126.74 640.72 127.03 640.61 127.29C640.53 127.48 640.34 127.59 640.15 127.59L640.16 127.58Z" fill="#07064E"></path>
<path d="M639.24 139.41C636.79 139.41 634.44 138.6 632.2 136.98C631.98 136.82 631.93 136.51 632.09 136.28C632.25 136.06 632.56 136.01 632.79 136.17C636.96 139.19 641.38 139.18 646.29 136.15C646.52 136.01 646.83 136.08 646.98 136.31C647.12 136.55 647.05 136.85 646.82 137C644.21 138.61 641.68 139.41 639.24 139.41Z" fill="#07064E"></path>
<path d="M628.82 116.1C626.7 116.1 624.97 114.25 624.97 111.98C624.97 111.7 625.19 111.48 625.47 111.48C625.75 111.48 625.97 111.7 625.97 111.98C625.97 113.7 627.25 115.1 628.82 115.1C630.39 115.1 631.67 113.7 631.67 111.98C631.67 111.7 631.89 111.48 632.17 111.48C632.45 111.48 632.67 111.7 632.67 111.98C632.67 114.25 630.94 116.1 628.82 116.1Z" fill="#07064E"></path>
<path d="M641.23 142.55H636.99C636.71 142.55 636.49 142.33 636.49 142.05C636.49 141.77 636.71 141.55 636.99 141.55H641.23C641.51 141.55 641.73 141.77 641.73 142.05C641.73 142.33 641.51 142.55 641.23 142.55Z" fill="#07064E"></path>
<path d="M649.52 116.1C647.4 116.1 645.67 114.25 645.67 111.98C645.67 111.7 645.89 111.48 646.17 111.48C646.45 111.48 646.67 111.7 646.67 111.98C646.67 113.7 647.95 115.1 649.52 115.1C651.09 115.1 652.37 113.7 652.37 111.98C652.37 111.7 652.59 111.48 652.87 111.48C653.15 111.48 653.37 111.7 653.37 111.98C653.37 114.25 651.64 116.1 649.52 116.1Z" fill="#07064E"></path>
<path d="M623.51 107.49C623.42 107.49 623.32 107.46 623.24 107.41C623.01 107.26 622.94 106.95 623.09 106.72C624.98 103.79 629.12 103.48 634.76 105.83C635.01 105.94 635.14 106.23 635.03 106.48C634.92 106.74 634.63 106.85 634.38 106.75C631.4 105.51 626.09 103.92 623.94 107.26C623.84 107.41 623.68 107.49 623.52 107.49H623.51Z" fill="#07064E"></path>
<path d="M655.05 107.49C654.89 107.49 654.72 107.41 654.63 107.26C652.48 103.93 647.16 105.51 644.19 106.75C643.94 106.85 643.64 106.74 643.54 106.48C643.43 106.23 643.55 105.93 643.81 105.83C649.45 103.48 653.59 103.79 655.48 106.72C655.63 106.95 655.56 107.26 655.33 107.41C655.25 107.46 655.15 107.49 655.06 107.49H655.05Z" fill="#07064E"></path>
</g>
<path id="Vector_88" d="M638.44 290.1C679.044 290.1 711.96 286.321 711.96 281.66C711.96 276.999 679.044 273.22 638.44 273.22C597.836 273.22 564.92 276.999 564.92 281.66C564.92 286.321 597.836 290.1 638.44 290.1Z" fill="#2AEDB4"></path>
<path id="Vector_89" d="M712.36 207.32C712.93 202.29 709.21 198.11 704.07 198.11H572.48C567.35 198.11 563.62 202.28 564.19 207.32L570.58 263.67H570.29L570.83 268.38C571.29 272.45 575.38 275.74 579.91 275.74H696.06C700.59 275.74 704.67 272.45 705.14 268.38L705.53 264.92H705.82L712.38 207.32H712.36Z" fill="white"></path>
<path id="Vector_90" d="M706.85 198.55C674.96 226.14 659.41 243.89 628.19 254.91C609.8 262.26 591.25 268.28 571.49 270.67C572.91 273.61 576.25 275.73 579.89 275.73H696.04C700.57 275.73 704.65 272.44 705.12 268.37L705.51 264.91H705.8L712.36 207.31C712.82 203.24 710.48 199.74 706.85 198.54V198.55Z" fill="#EDEDED"></path>
<path id="Vector_91" d="M638.44 250.25C635.56 250.25 632.77 249.47 630.36 247.98C630.12 247.84 630.05 247.53 630.2 247.29C630.34 247.05 630.65 246.98 630.89 247.13C633.14 248.52 635.76 249.25 638.45 249.25C645.22 249.25 651.08 244.52 651.79 238.48C652.16 235.29 651.15 232.17 648.94 229.68C646.41 226.83 642.59 225.2 638.46 225.2C634.33 225.2 630.51 226.83 627.98 229.68C625.77 232.17 624.75 235.29 625.13 238.48C625.32 240.07 625.85 241.59 626.71 242.98C626.85 243.21 626.78 243.52 626.55 243.67C626.31 243.82 626.01 243.74 625.86 243.51C624.92 241.99 624.35 240.34 624.14 238.6C623.73 235.13 624.83 231.72 627.24 229.02C629.96 225.96 634.06 224.21 638.47 224.21C642.88 224.21 646.98 225.96 649.7 229.02C652.11 231.72 653.21 235.13 652.8 238.6C652.03 245.13 645.74 250.25 638.47 250.25H638.44Z" fill="#07064E"></path>
<g id="Group_5">
<path id="Vector_92" d="M500.16 97.93L567.77 77.71C573.19 76.09 578.94 79.2 580.57 84.61L585.79 102.06L595.35 134.02L601.39 154.22C601.95 156.09 599.65 157.46 598.27 156.09L583.73 141.61C581.77 139.66 578.91 138.94 576.26 139.73L517.89 157.19C512.47 158.81 506.72 155.7 505.09 150.29L493.26 110.74C491.64 105.32 494.75 99.57 500.16 97.94V97.93Z" fill="#2AEDB4"></path>
<path id="Vector_93" d="M500.16 93.68L567.77 73.46C573.19 71.84 578.94 74.95 580.57 80.36L585.79 97.81L595.35 129.77L601.39 149.97C601.95 151.84 599.65 153.21 598.27 151.84L583.73 137.36C581.77 135.41 578.91 134.69 576.26 135.48L517.89 152.94C512.47 154.56 506.72 151.45 505.09 146.04L493.26 106.49C491.64 101.07 494.75 95.32 500.16 93.69V93.68Z" fill="white"></path>
<path id="Vector_94" d="M497.688 93.9975L569.879 72.4079C574.056 71.1586 578.452 73.5388 579.699 77.7064L580.69 81.0213L493.381 107.132L492.39 103.817C491.14 99.6402 493.52 95.2439 497.688 93.9975Z" fill="#07064E"></path>
<path id="Vector_95" d="M562.08 83.6C563.599 83.6 564.83 82.3688 564.83 80.85C564.83 79.3312 563.599 78.1 562.08 78.1C560.561 78.1 559.33 79.3312 559.33 80.85C559.33 82.3688 560.561 83.6 562.08 83.6Z" fill="white"></path>
<path id="Vector_96" d="M569.7 81.32C571.219 81.32 572.45 80.0888 572.45 78.57C572.45 77.0512 571.219 75.82 569.7 75.82C568.181 75.82 566.95 77.0512 566.95 78.57C566.95 80.0888 568.181 81.32 569.7 81.32Z" fill="#2BF5BA"></path>
<path id="Vector_97" d="M520.7 141.02C520.62 141.02 520.53 141 520.46 140.96C520.34 140.9 520.26 140.79 520.22 140.66L511.47 110.72C511.39 110.45 511.54 110.18 511.81 110.1C512.08 110.02 512.35 110.17 512.43 110.44L521.04 139.9L571.84 125.05C572.11 124.97 572.38 125.12 572.46 125.39C572.54 125.66 572.39 125.93 572.12 126.01L520.84 141C520.84 141 520.75 141.02 520.7 141.02Z" fill="#07064E"></path>
<g id="Vector_98">
<path d="M523.41 135.94C523.41 135.94 523.35 135.94 523.32 135.94C523.05 135.89 522.87 135.63 522.91 135.36L525.4 121.11C525.43 120.94 525.54 120.8 525.7 120.74C525.86 120.67 526.03 120.69 526.18 120.79L533.64 125.83L537.29 111.07C537.33 110.9 537.47 110.76 537.64 110.71C537.81 110.66 538 110.71 538.13 110.84L552.67 125.22L559.8 97.65C559.87 97.38 560.14 97.22 560.41 97.29C560.68 97.36 560.84 97.63 560.77 97.9L553.43 126.31C553.39 126.48 553.25 126.62 553.08 126.67C552.91 126.72 552.72 126.67 552.6 126.54L538.06 112.16L534.45 126.76C534.41 126.92 534.3 127.05 534.14 127.11C533.99 127.17 533.82 127.15 533.68 127.06L526.26 122.05L523.91 135.54C523.87 135.78 523.66 135.95 523.42 135.95L523.41 135.94Z" fill="#FFC391"></path>
<path d="M563.11 102.69C562.93 102.69 562.76 102.6 562.67 102.43L560.26 98.08L555.88 100.5C555.64 100.63 555.33 100.55 555.2 100.3C555.07 100.06 555.15 99.75 555.4 99.62L560.22 96.96C560.34 96.9 560.47 96.88 560.6 96.92C560.73 96.96 560.84 97.04 560.9 97.16L563.55 101.95C563.68 102.19 563.6 102.5 563.35 102.63C563.27 102.67 563.19 102.69 563.11 102.69Z" fill="#FFC391"></path>
</g>
</g>
<g id="Group_6">
<path id="Vector_99" d="M764.33 123.65L716.58 105C712.75 103.51 708.4 105.41 706.91 109.24L702.1 121.56L693.28 144.13L687.71 158.4C687.2 159.72 688.78 160.85 689.86 159.94L701.25 150.32C702.78 149.03 704.9 148.67 706.77 149.4L748 165.5C751.83 166.99 756.18 165.09 757.67 161.26L768.58 133.33C770.07 129.5 768.17 125.15 764.34 123.66L764.33 123.65Z" fill="#2AEDB4"></path>
<path id="Vector_100" d="M764.33 119.4L716.58 100.75C712.75 99.26 708.4 101.16 706.91 104.99L702.1 117.31L693.28 139.88L687.71 154.15C687.2 155.47 688.78 156.6 689.86 155.69L701.25 146.07C702.78 144.78 704.9 144.42 706.77 145.15L748 161.25C751.83 162.74 756.18 160.84 757.67 157.01L768.58 129.08C770.07 125.25 768.17 120.9 764.34 119.41L764.33 119.4Z" fill="white"></path>
<path id="Vector_101" d="M715.842 100.474L765.05 119.699C768.487 121.042 770.19 124.928 768.847 128.365L768.392 129.529L706.731 105.439L707.186 104.275C708.528 100.838 712.414 99.1352 715.851 100.478L715.842 100.474Z" fill="#07064E"></path>
<path id="Vector_102" d="M758.42 123.29C759.491 123.29 760.36 122.421 760.36 121.35C760.36 120.279 759.491 119.41 758.42 119.41C757.349 119.41 756.48 120.279 756.48 121.35C756.48 122.421 757.349 123.29 758.42 123.29Z" fill="white"></path>
<path id="Vector_103" d="M763.65 125.33C764.721 125.33 765.59 124.461 765.59 123.39C765.59 122.319 764.721 121.45 763.65 121.45C762.579 121.45 761.71 122.319 761.71 123.39C761.71 124.461 762.579 125.33 763.65 125.33Z" fill="#2BF5BA"></path>
<path id="Vector_104" d="M719.883 119.264L712.609 116.422C710.793 115.712 708.746 116.609 708.036 118.425L705.194 125.7C704.485 127.515 705.382 129.563 707.198 130.272L714.472 133.114C716.288 133.824 718.335 132.927 719.045 131.111L721.887 123.836C722.596 122.02 721.699 119.973 719.883 119.264Z" fill="#07064E"></path>
<path id="Vector_105" d="M726.425 129.856L723.583 137.13C722.873 138.946 723.77 140.993 725.586 141.703L732.861 144.545C734.677 145.254 736.724 144.357 737.433 142.541L740.275 135.267C740.985 133.451 740.088 131.404 738.272 130.694L730.998 127.852C729.182 127.143 727.134 128.04 726.425 129.856Z" fill="#EDEDED"></path>
<g id="Vector_106">
<path d="M726.426 125.599L723.584 132.874C722.875 134.689 723.772 136.737 725.588 137.446L732.862 140.288C734.678 140.998 736.725 140.101 737.435 138.285L740.277 131.01C740.986 129.194 740.089 127.147 738.273 126.438L730.999 123.596C729.183 122.886 727.136 123.783 726.426 125.599Z" fill="#2BF5BA"></path>
<path d="M756.619 133.619L749.344 130.777C747.528 130.067 745.481 130.964 744.772 132.78L741.93 140.055C741.22 141.871 742.117 143.918 743.933 144.627L751.207 147.469C753.023 148.179 755.071 147.282 755.78 145.466L758.622 138.191C759.332 136.376 758.435 134.328 756.619 133.619Z" fill="#2BF5BA"></path>
</g>
<g id="Vector_107">
<path d="M715.95 130.77L715.03 130.41C714.92 130.37 714.85 130.31 714.8 130.23C714.76 130.15 714.73 130.06 714.73 129.97V127.52L710.78 125.98L709.13 127.79C709.08 127.85 709 127.9 708.91 127.93C708.82 127.96 708.72 127.96 708.62 127.92L707.7 127.56L714.67 120.12L715.88 120.59L715.96 130.78L715.95 130.77ZM714.74 126.53L714.76 122.4C714.76 122.28 714.76 122.14 714.78 121.98C714.78 121.82 714.81 121.65 714.83 121.48C714.61 121.78 714.42 122.02 714.24 122.21L711.46 125.25L714.75 126.54L714.74 126.53Z" fill="white"></path>
<path d="M733.34 127.41C733.88 127.62 734.33 127.86 734.68 128.12C735.03 128.38 735.29 128.66 735.47 128.95C735.65 129.25 735.74 129.56 735.74 129.89C735.74 130.22 735.68 130.57 735.54 130.92C735.45 131.14 735.34 131.33 735.19 131.5C735.04 131.67 734.87 131.82 734.67 131.94C734.47 132.06 734.24 132.15 733.98 132.2C733.72 132.26 733.43 132.27 733.12 132.25C733.72 132.63 734.12 133.05 734.31 133.51C734.5 133.98 734.49 134.48 734.28 135.03C734.13 135.4 733.93 135.72 733.68 135.97C733.43 136.22 733.12 136.41 732.77 136.53C732.42 136.65 732.03 136.69 731.59 136.66C731.16 136.63 730.7 136.52 730.2 136.33L727.09 135.11L730.53 126.3L733.34 127.4V127.41ZM731.35 127.72L730.18 130.73L731.75 131.34C732.09 131.47 732.39 131.55 732.67 131.57C732.95 131.59 733.19 131.57 733.41 131.5C733.62 131.43 733.8 131.32 733.96 131.16C734.11 131 734.23 130.82 734.32 130.59C734.52 130.07 734.52 129.63 734.3 129.27C734.08 128.91 733.65 128.6 732.99 128.34L731.37 127.71L731.35 127.72ZM730.55 135.39C730.89 135.52 731.2 135.6 731.48 135.62C731.76 135.64 732 135.61 732.21 135.53C732.42 135.45 732.6 135.33 732.75 135.16C732.9 134.99 733.02 134.79 733.11 134.56C733.29 134.1 733.27 133.68 733.05 133.29C732.83 132.9 732.4 132.58 731.75 132.32L729.84 131.58L728.64 134.65L730.55 135.39Z" fill="white"></path>
<path d="M752.32 142.89C752.39 142.92 752.43 142.96 752.46 143.04L752.73 143.74C752.21 144.02 751.64 144.17 751.04 144.2C750.43 144.23 749.77 144.11 749.04 143.82C748.41 143.57 747.88 143.24 747.45 142.82C747.02 142.4 746.7 141.92 746.49 141.38C746.28 140.84 746.18 140.26 746.2 139.62C746.22 138.99 746.35 138.34 746.61 137.68C746.87 137.02 747.21 136.45 747.64 135.98C748.07 135.51 748.55 135.15 749.08 134.9C749.61 134.65 750.19 134.52 750.8 134.51C751.41 134.5 752.04 134.62 752.68 134.87C753.32 135.12 753.82 135.43 754.22 135.82C754.62 136.21 754.94 136.65 755.17 137.13L754.56 137.52C754.56 137.52 754.47 137.57 754.43 137.58C754.38 137.59 754.32 137.58 754.26 137.56C754.19 137.53 754.11 137.46 754.04 137.33C753.96 137.21 753.86 137.07 753.73 136.9C753.6 136.73 753.42 136.56 753.19 136.38C752.96 136.2 752.66 136.04 752.28 135.89C751.82 135.71 751.38 135.63 750.94 135.64C750.5 135.65 750.09 135.75 749.7 135.94C749.31 136.13 748.96 136.42 748.64 136.79C748.32 137.16 748.05 137.62 747.84 138.16C747.63 138.7 747.51 139.23 747.5 139.72C747.49 140.21 747.56 140.66 747.72 141.06C747.88 141.46 748.11 141.82 748.42 142.12C748.73 142.42 749.1 142.66 749.53 142.82C749.79 142.92 750.03 143 750.26 143.05C750.48 143.1 750.7 143.13 750.9 143.13C751.1 143.13 751.3 143.12 751.5 143.08C751.69 143.04 751.89 142.98 752.1 142.9C752.19 142.87 752.28 142.86 752.35 142.89H752.32Z" fill="white"></path>
</g>
</g>
<path id="Vector_108" d="M693.39 190.14C693.44 192.83 693.52 195.49 693.64 198.11H698.52L698.98 188.3C699.85 177.58 692.93 169.47 682.49 169.14L678.88 168.56C686.51 172.94 693.21 179.83 693.38 190.13L693.39 190.14Z" fill="#FFAF6E"></path>
<path id="Vector_109" d="M696.05 275.74H579.9C577.41 275.74 575.08 274.73 573.39 273.16C573.29 273.45 573.22 273.76 573.22 274.08V278.87C573.22 280.41 574.47 281.66 576.01 281.66H700.8C702.34 281.66 703.59 280.41 703.59 278.87V274.08C703.59 273.53 703.43 273.03 703.15 272.6C701.44 274.5 698.83 275.74 696.05 275.74Z" fill="#EDEDED"></path>
<path id="Vector_110" d="M822.58 230.26L710.23 230.4L712.85 207.37C713.14 204.8 712.39 202.36 710.74 200.51C709.07 198.64 706.7 197.61 704.07 197.61H699.06L699.62 185.26C699.62 177.6 694.19 170.86 686.68 169.24L661.77 164.71C653.83 163.13 653.64 154.88 653.44 146.15C653.42 145.41 653.41 144.68 653.39 143.95C653.39 143.91 653.37 143.88 653.36 143.84C656 140.17 658.13 135.38 659.59 129.72C659.59 129.72 659.6 129.72 659.61 129.72C661.08 129.72 663.07 129.48 664.17 128.32C665.86 126.54 666.24 124.64 666.73 122.23L666.89 121.46C667.82 117.01 667.88 114.56 665.73 112.67C665.4 112.38 664.96 112.14 664.47 111.99C664.54 110.35 664.51 107.6 664.47 104.93C664.44 102.1 664.4 98.58 664.52 98.16C665.04 97.04 666.32 96.6 667.45 96.21C668.49 95.85 669.48 95.51 669.63 94.62C669.79 93.66 669.05 92.39 664.83 89.04C664.41 88.71 664.41 88.17 664.44 87.31C664.48 86.5 664.51 85.58 663.79 85.01C662.95 84.34 661.34 84.38 658.44 85.14C658.26 83.46 659.55 82.02 660.52 80.95C661.3 80.08 661.92 79.4 661.6 78.72C661.31 78.1 660.47 77.79 656.86 77.9C653.16 78.02 650.35 78.78 649.34 79.91C649.32 79.93 649.3 79.96 649.28 79.98C646.79 78.06 645.11 77.36 644.02 77.8C642.99 78.22 642.84 79.43 642.72 80.32C642.7 80.47 642.68 80.66 642.65 80.81C631.41 73.46 620.87 78.71 617.9 80.51C614.07 82.82 611.44 85.9 611.63 87.84C611.65 88.05 611.81 88.23 612.02 88.28C615.73 89.11 616.42 89.83 616.49 90.19C616.62 90.77 615.34 91.75 614.21 92.6C612.09 94.21 609.2 96.41 611.12 99.19C611.21 99.33 611.38 99.42 611.54 99.4C611.71 99.4 611.86 99.31 611.95 99.18C613.2 97.29 613.74 97.39 613.8 97.41C615.19 97.84 615.06 106.19 614.99 110.68L614.97 111.92C614.36 112.06 613.79 112.34 613.39 112.69C611.24 114.58 611.3 117.03 612.23 121.48L612.39 122.25C612.88 124.66 613.26 126.56 614.95 128.34C616.13 129.58 617.73 129.74 619 129.74C619.05 129.74 619.1 129.73 619.14 129.71C620.6 135.32 622.86 140.18 625.66 143.9C625.66 143.92 625.65 143.94 625.65 143.96C625.63 144.69 625.61 145.42 625.6 146.16C625.4 154.93 625.22 163.21 617.18 164.74L615.96 164.96L591.69 169.25C584.2 170.87 578.77 177.61 578.77 185.29L579.18 197.62H572.43C569.8 197.62 567.43 198.65 565.76 200.52C564.1 202.37 563.35 204.81 563.65 207.38L566.28 230.56L465.87 230.67C465.59 230.67 465.37 230.89 465.37 231.17C465.37 231.45 465.59 231.67 465.87 231.67L566.4 231.56L570.59 268.53C570.79 270.27 571.61 271.87 572.84 273.17C572.75 273.46 572.69 273.77 572.69 274.09V278.88C572.69 280.69 574.16 282.17 575.98 282.17H700.77C702.58 282.17 704.06 280.7 704.06 278.88V274.09C704.06 273.68 703.98 273.3 703.84 272.94C704.95 271.68 705.69 270.16 705.87 268.52L710.1 231.4L822.56 231.26C822.84 231.26 823.06 231.04 823.06 230.76C823.06 230.48 822.84 230.26 822.56 230.26H822.58ZM665.08 113.43C666.7 114.85 666.89 116.61 665.92 121.27L665.76 122.04C665.29 124.38 664.95 126.06 663.45 127.64C662.61 128.53 660.91 128.71 659.84 128.73C660.6 125.53 661.16 122.08 661.47 118.39C661.55 117.45 661.62 116.17 661.66 115.1C661.72 115.02 661.76 114.92 661.76 114.82C661.76 113.86 662.06 113.24 662.65 112.97C663.42 112.62 664.5 112.94 665.06 113.44L665.08 113.43ZM619.31 125.65C619.26 125.38 619 125.2 618.73 125.25C618.46 125.3 618.28 125.56 618.33 125.83C618.51 126.82 618.72 127.78 618.94 128.73C617.42 128.71 616.42 128.38 615.72 127.65C614.23 126.07 613.89 124.39 613.41 122.05L613.25 121.28C612.28 116.62 612.47 114.87 614.09 113.44C614.41 113.16 614.89 112.94 615.4 112.86C615.43 112.86 615.46 112.88 615.5 112.88C615.58 112.88 615.65 112.86 615.71 112.83C615.99 112.83 616.26 112.86 616.5 112.97C617.09 113.24 617.39 113.86 617.39 114.82C617.39 114.89 617.41 114.96 617.43 115.02C617.43 115.89 617.43 116.76 617.45 117.65C617.45 117.92 617.68 118.14 617.95 118.14H617.97C618.25 118.14 618.46 117.9 618.46 117.63C618.42 116.13 618.42 114.65 618.48 113.24C618.58 110.88 621.56 98.19 621.59 98.09C621.86 97.21 624.5 94.64 628.88 94.08C632.77 93.58 636.71 94.77 638.93 97.13C639.06 97.27 639.24 97.31 639.41 97.26C639.58 97.3 639.77 97.26 639.89 97.13C642.11 94.78 646.06 93.58 649.94 94.08C654.26 94.64 656.83 96.99 657.24 98.12C657.31 98.32 657.51 98.45 657.71 98.45C657.77 98.45 657.82 98.45 657.88 98.42C658.14 98.33 658.27 98.04 658.18 97.78C657.62 96.24 654.65 93.69 650.07 93.09C646 92.56 641.87 93.79 639.4 96.22C636.93 93.79 632.8 92.56 628.73 93.09C624.09 93.69 621.03 96.44 620.6 97.84C620.49 98.33 617.98 108.98 617.53 112.5C617.31 112.29 617.08 112.15 616.89 112.06C616.6 111.93 616.29 111.86 615.98 111.84L616 110.69C616.13 102.48 616.06 97.06 614.11 96.45C613.19 96.16 612.31 97.02 611.61 97.94C611.1 96.39 612.65 95.05 614.83 93.39C616.39 92.2 617.75 91.17 617.48 89.97C617.25 88.9 615.79 88.12 612.64 87.39C612.85 85.96 614.93 83.47 618.42 81.36C621.28 79.64 631.45 74.57 642.26 81.74C642.64 81.99 642.93 81.95 643.11 81.87C643.57 81.66 643.64 81.1 643.72 80.44C643.81 79.76 643.91 78.92 644.4 78.72C644.83 78.55 646.02 78.63 649.17 81.16C649.33 81.29 649.54 81.31 649.72 81.22C649.9 81.13 650 80.94 649.98 80.74C650.02 80.49 651.45 79.07 656.89 78.89C660 78.78 660.59 79.04 660.68 79.08C660.67 79.28 660.15 79.85 659.77 80.27C658.62 81.55 656.89 83.48 657.56 85.89C657.63 86.16 657.91 86.31 658.18 86.24C661.57 85.3 662.76 85.48 663.16 85.79C663.46 86.03 663.47 86.51 663.43 87.27C663.39 88.11 663.35 89.16 664.19 89.83C668 92.85 668.71 94.02 668.63 94.46C668.58 94.77 667.83 95.03 667.11 95.28C665.86 95.71 664.3 96.25 663.6 97.75C663.41 98.16 663.4 99.74 663.45 104.96C663.48 107.55 663.51 110.22 663.45 111.85C663.03 111.84 662.61 111.9 662.22 112.08C662.04 112.16 661.83 112.29 661.62 112.48L660.61 107.24C660.56 106.97 660.29 106.79 660.02 106.84C659.75 106.89 659.57 107.15 659.62 107.43L660.71 113.08C660.7 113.53 660.59 116.54 660.44 118.34C659.06 134.61 652.04 151.03 639.47 151.03C630.27 151.03 621.96 140.61 619.26 125.69L619.31 125.65ZM626.65 146.17C626.65 145.81 626.67 145.45 626.68 145.09C630.36 149.45 634.82 151.99 639.52 151.99C644.22 151.99 648.85 149.5 652.44 145.07C652.44 145.43 652.46 145.8 652.47 146.16C652.64 153.79 652.82 161.64 658.67 164.67L655.4 167.68C646.35 176.01 632.61 176.11 623.43 167.91L620.03 164.87C626.29 162 626.48 153.97 626.66 146.16L626.65 146.17ZM616.18 165.93L617.41 165.71L619.11 165.41L622.75 168.67C632.31 177.21 646.63 177.11 656.06 168.43L659.46 165.3L661.59 165.69C661.59 165.69 661.65 165.71 661.69 165.72C661.72 165.72 661.75 165.72 661.77 165.72L664.55 166.22L660.45 170.22C648.55 181.81 630.49 181.95 618.43 170.54L613.96 166.32L616.17 165.93H616.18ZM591.93 170.22L612.74 166.54L617.74 171.27C623.9 177.1 631.59 180.01 639.27 180.01C646.95 180.01 654.94 176.98 661.14 170.94L665.75 166.45L686.49 170.22C693.52 171.74 698.62 178.07 698.62 185.24L698.06 197.61H580.22L579.81 185.26C579.81 178.07 584.91 171.74 591.92 170.22H591.93ZM703.08 278.88C703.08 280.14 702.05 281.17 700.79 281.17H576C574.74 281.17 573.71 280.14 573.71 278.88V274.09C573.71 274.09 573.72 274.02 573.72 273.99C575.46 275.43 577.75 276.33 580.18 276.33H696.31C698.86 276.33 701.26 275.33 703.02 273.76C703.04 273.87 703.06 273.97 703.06 274.09V278.88H703.08ZM704.9 268.41C704.47 272.23 700.62 275.33 696.32 275.33H580.19C575.89 275.33 572.05 272.23 571.61 268.41L564.68 207.27C564.42 204.99 565.08 202.83 566.55 201.19C568.03 199.53 570.13 198.62 572.48 198.62H704.08C706.42 198.62 708.53 199.53 710.01 201.19C711.47 202.83 712.13 204.99 711.87 207.27L704.91 268.41H704.9Z" fill="#07064E"></path>
<path id="Vector_111" d="M461.62 231.66H455.12C454.84 231.66 454.62 231.44 454.62 231.16C454.62 230.88 454.84 230.66 455.12 230.66H461.62C461.9 230.66 462.12 230.88 462.12 231.16C462.12 231.44 461.9 231.66 461.62 231.66Z" fill="#2BF5BA"></path>
</g>
</g>
</g>
</g>
</g>
<defs>
<clipPath id="clip0_85_2121">
<rect width="125" height="88" fill="white" transform="translate(40 136)"></rect>
</clipPath>
<clipPath id="clip1_85_2121">
<rect width="200" height="140" fill="white" transform="translate(205 110)"></rect>
</clipPath>
<clipPath id="clip2_85_2121">
<rect width="400" height="280" fill="white" transform="translate(445 40)"></rect>
</clipPath>
</defs>
</svg>