<svg width="200" height="140" viewBox="0 0 200 140" fill="none" xmlns="http://www.w3.org/2000/svg">
<g id="illu_spot_not-visible/Default">
<g id="illu_spot_not-visible">
<g id="background">
<path d="M192.708 72.0348C196.813 69.4422 198.767 65.1678 197.074 62.4876C195.381 59.8074 190.682 59.7365 186.577 62.3291C182.473 64.9217 180.518 69.1962 182.211 71.8763C183.904 74.5565 188.604 74.6275 192.708 72.0348Z" fill="#2BF5BA"></path>
<path d="M194.489 17.4307C205.249 29.1707 168.384 60.4607 178.249 89.9107C203.294 164.651 135.009 113.506 69.0737 129.486C7.93868 144.301 13.8737 116.696 21.5887 90.1657C29.3287 63.5557 3.62867 70.1157 5.68367 40.3207C7.24867 17.6307 47.0287 -2.36432 96.0737 10.5857C176.094 31.7157 182.824 4.71068 194.489 17.4357V17.4307Z" fill="#2BF5BA"></path>
<path d="M11.6649 122.228C13.0593 119.527 12.294 116.358 9.95549 115.151C7.61697 113.944 4.59081 115.156 3.19637 117.857C1.80192 120.559 2.56724 123.728 4.90576 124.935C7.24428 126.142 10.2704 124.93 11.6649 122.228Z" fill="#2BF5BA"></path>
<path d="M189.909 86.6208C190.073 85.0748 189.17 83.7119 187.893 83.5768C186.616 83.4417 185.449 84.5855 185.285 86.1315C185.122 87.6776 186.024 89.0405 187.301 89.1756C188.578 89.3107 189.746 88.1669 189.909 86.6208Z" fill="#2BF5BA"></path>
</g>
<g id="illu_spot_not-visible_2">
<g id="stroke">
<path id="Vector" d="M141.17 32.125H59C55.6863 32.125 53 34.8113 53 38.125V104.26C53 107.574 55.6863 110.26 59 110.26H141.17C144.484 110.26 147.17 107.574 147.17 104.26V38.125C147.17 34.8113 144.484 32.125 141.17 32.125Z" fill="#2AEDB4"></path>
<path id="Vector_2" d="M141.17 30H59C55.6863 30 53 32.6863 53 36V102.135C53 105.449 55.6863 108.135 59 108.135H141.17C144.484 108.135 147.17 105.449 147.17 102.135V36C147.17 32.6863 144.484 30 141.17 30Z" fill="white"></path>
<path id="Vector_3" d="M57.535 30H142.64C145.14 30 147.17 32.03 147.17 34.53V41.29H53V34.53C53 32.03 55.03 30 57.53 30H57.535Z" fill="#07064E"></path>
<path id="Vector_4" d="M129.715 38.405C131.239 38.405 132.475 37.1693 132.475 35.645C132.475 34.1207 131.239 32.885 129.715 32.885C128.191 32.885 126.955 34.1207 126.955 35.645C126.955 37.1693 128.191 38.405 129.715 38.405Z" fill="white"></path>
<path id="Vector_5" d="M137.715 38.405C139.239 38.405 140.475 37.1693 140.475 35.645C140.475 34.1207 139.239 32.885 137.715 32.885C136.191 32.885 134.955 34.1207 134.955 35.645C134.955 37.1693 136.191 38.405 137.715 38.405Z" fill="#2BF5BA"></path>
<g id="Vector_6">
<path d="M134.505 97.925H114.915C114.775 97.925 114.665 97.815 114.665 97.675C114.665 97.535 114.775 97.425 114.915 97.425H134.505C134.645 97.425 134.755 97.535 134.755 97.675C134.755 97.815 134.645 97.925 134.505 97.925Z" fill="#EDEDED"></path>
<path d="M111.24 97.925H107.45C107.31 97.925 107.2 97.815 107.2 97.675C107.2 97.535 107.31 97.425 107.45 97.425H111.24C111.38 97.425 111.49 97.535 111.49 97.675C111.49 97.815 111.38 97.925 111.24 97.925Z" fill="#EDEDED"></path>
<path d="M134.965 67.645H132.23C132.09 67.645 131.98 67.535 131.98 67.395C131.98 67.255 132.09 67.145 132.23 67.145H134.965C135.105 67.145 135.215 67.255 135.215 67.395C135.215 67.535 135.105 67.645 134.965 67.645Z" fill="#EDEDED"></path>
<path d="M134.965 73.16H122.51C122.37 73.16 122.26 73.05 122.26 72.91C122.26 72.77 122.37 72.66 122.51 72.66H134.965C135.105 72.66 135.215 72.77 135.215 72.91C135.215 73.05 135.105 73.16 134.965 73.16Z" fill="#EDEDED"></path>
<path d="M81.0649 73.16H65.5799C65.4399 73.16 65.3299 73.05 65.3299 72.91C65.3299 72.77 65.4399 72.66 65.5799 72.66H81.0649C81.2049 72.66 81.3149 72.77 81.3149 72.91C81.3149 73.05 81.2049 73.16 81.0649 73.16Z" fill="#EDEDED"></path>
<path d="M134.965 78.68H107.84C107.7 78.68 107.59 78.57 107.59 78.43C107.59 78.29 107.7 78.18 107.84 78.18H134.965C135.105 78.18 135.215 78.29 135.215 78.43C135.215 78.57 135.105 78.68 134.965 78.68Z" fill="#EDEDED"></path>
<path d="M96.5549 78.68H65.5799C65.4399 78.68 65.3299 78.57 65.3299 78.43C65.3299 78.29 65.4399 78.18 65.5799 78.18H96.5549C96.6949 78.18 96.8049 78.29 96.8049 78.43C96.8049 78.57 96.6949 78.68 96.5549 78.68Z" fill="#EDEDED"></path>
<path d="M134.965 84.195H119.965C119.825 84.195 119.715 84.085 119.715 83.945C119.715 83.805 119.825 83.695 119.965 83.695H134.965C135.105 83.695 135.215 83.805 135.215 83.945C135.215 84.085 135.105 84.195 134.965 84.195Z" fill="#EDEDED"></path>
<path d="M115.12 84.195H65.5799C65.4399 84.195 65.3299 84.085 65.3299 83.945C65.3299 83.805 65.4399 83.695 65.5799 83.695H115.12C115.26 83.695 115.37 83.805 115.37 83.945C115.37 84.085 115.26 84.195 115.12 84.195Z" fill="#EDEDED"></path>
<path d="M98.2749 89.71H65.5799C65.4399 89.71 65.3299 89.6 65.3299 89.46C65.3299 89.32 65.4399 89.21 65.5799 89.21H98.2749C98.4149 89.21 98.5249 89.32 98.5249 89.46C98.5249 89.6 98.4149 89.71 98.2749 89.71Z" fill="#EDEDED"></path>
<path d="M83.1149 58.165H65.2049C65.0649 58.165 64.9549 58.055 64.9549 57.915C64.9549 57.775 65.0649 57.665 65.2049 57.665H83.1149C83.2549 57.665 83.3649 57.775 83.3649 57.915C83.3649 58.055 83.2549 58.165 83.1149 58.165Z" fill="#EDEDED"></path>
<path d="M70.1499 67.645H65.5799C65.4399 67.645 65.3299 67.535 65.3299 67.395C65.3299 67.255 65.4399 67.145 65.5799 67.145H70.1499C70.2899 67.145 70.3999 67.255 70.3999 67.395C70.3999 67.535 70.2899 67.645 70.1499 67.645Z" fill="#EDEDED"></path>
</g>
<path id="Vector_7" d="M126.425 69.5C109.045 87.615 91.43 84.665 77.145 69.94C97.15 79.135 114.73 75.7 117.105 69.065C118.26 65.83 102.485 56.63 102.485 56.63C102.485 56.63 111.945 55.61 126.42 69.505L126.425 69.5Z" fill="#EDEDED"></path>
<g id="Vector_8">
<path d="M79.7049 76.0551L72.3949 83.3651C72.2949 83.4651 72.2949 83.6201 72.3949 83.7201C72.4449 83.7701 72.5099 83.7951 72.5699 83.7951C72.6299 83.7951 72.6999 83.7701 72.7449 83.7201L80.0549 76.4101C80.1549 76.3101 80.1549 76.1551 80.0549 76.0551C79.9549 75.9551 79.7999 75.9551 79.6999 76.0551H79.7049Z" fill="#07064E"></path>
<path d="M90.4349 81.4501C90.3099 81.3951 90.1599 81.4501 90.1049 81.5751L85.8049 91.1801C85.7499 91.3051 85.8049 91.4551 85.9299 91.5101C85.9649 91.5251 85.9999 91.5301 86.0299 91.5301C86.1249 91.5301 86.2149 91.4751 86.2599 91.3801L90.5599 81.7751C90.6149 81.6501 90.5599 81.5001 90.4349 81.4451V81.4501Z" fill="#07064E"></path>
<path d="M102.93 82.8251C102.79 82.8251 102.68 82.9351 102.68 83.0751V93.4151C102.68 93.555 102.79 93.6651 102.93 93.6651C103.07 93.6651 103.18 93.555 103.18 93.4151V83.0751C103.18 82.9351 103.07 82.8251 102.93 82.8251Z" fill="#07064E"></path>
<path d="M133.325 84.6451L126.015 77.3351C125.915 77.2351 125.76 77.2351 125.66 77.3351C125.56 77.4351 125.56 77.5901 125.66 77.6901L132.97 85.0001C133.02 85.0501 133.085 85.0751 133.145 85.0751C133.205 85.0751 133.275 85.0501 133.32 85.0001C133.42 84.9001 133.42 84.7451 133.32 84.6451H133.325Z" fill="#07064E"></path>
<path d="M115.76 81.5801C115.705 81.4551 115.555 81.4001 115.43 81.4551C115.305 81.5101 115.245 81.6601 115.305 81.7851L119.605 91.3901C119.645 91.4851 119.74 91.5401 119.835 91.5401C119.87 91.5401 119.905 91.5351 119.935 91.5201C120.06 91.4651 120.12 91.3151 120.06 91.1901L115.76 81.5851V81.5801Z" fill="#07064E"></path>
<path d="M73.3799 66.3101C92.7999 48.8551 109.79 48.8551 130.19 66.3101C130.235 66.3501 130.295 66.3701 130.355 66.3701C130.425 66.3701 130.495 66.3401 130.545 66.2851C130.635 66.1801 130.625 66.0201 130.52 65.9301C109.885 48.2701 92.6999 48.2701 73.0499 65.9301C72.9449 66.0251 72.9399 66.1801 73.0299 66.2851C73.1199 66.3901 73.2799 66.3951 73.3849 66.3051L73.3799 66.3101Z" fill="#07064E"></path>
<path d="M126.67 69.8101C126.675 69.7401 126.655 69.6651 126.6 69.6101C117.515 60.595 109.2 56.2701 101.225 56.3601C93.3649 56.4551 85.4299 60.7901 76.9649 69.6151C76.9099 69.6701 76.8899 69.7451 76.8999 69.8151C76.8999 69.9001 76.9299 69.9801 76.9999 70.0351C85.8999 76.2751 94.0499 79.3901 102.1 79.3901C110.15 79.3901 118.095 76.2701 126.57 70.0301C126.64 69.9751 126.67 69.8951 126.665 69.8101H126.67ZM77.5099 69.7701C85.8049 61.1801 93.5699 56.9501 101.23 56.8551C101.315 56.8551 101.4 56.8551 101.49 56.8551C109.205 56.8551 117.25 61.0901 126.06 69.7801C109.475 81.9001 94.9249 81.8951 77.5099 69.7701Z" fill="#07064E"></path>
</g>
</g>
</g>
</g>
</g>
</svg>