<svg width="200" height="140" viewBox="0 0 200 140" fill="none" xmlns="http://www.w3.org/2000/svg">
<g id="illu_spot_visible/Default" clip-path="url(#clip0_70_4682)">
<g id="illu_spot_visible">
<g id="background">
<path d="M193.445 72.1055C197.549 69.5129 199.504 65.2384 197.811 62.5583C196.118 59.8781 191.418 59.8071 187.314 62.3998C183.21 64.9924 181.255 69.2668 182.948 71.947C184.641 74.6272 189.341 74.6981 193.445 72.1055Z" fill="#2BF5BA"></path>
<path d="M195.225 17.3651C205.985 29.1051 169.12 60.3951 178.985 89.8451C204.03 164.585 135.745 113.44 69.8099 129.42C8.67495 144.235 14.61 116.63 22.325 90.1001C30.065 63.4901 4.36495 70.0501 6.41995 40.2551C7.98495 17.5601 47.7649 -2.43493 96.8099 10.5151C176.83 31.6451 183.56 4.64007 195.225 17.3651Z" fill="#2BF5BA"></path>
<path d="M12.4048 122.298C13.7992 119.596 13.0339 116.428 10.6954 115.221C8.35688 114.014 5.33071 115.225 3.93627 117.927C2.54182 120.629 3.30715 123.797 5.64566 125.004C7.98418 126.211 11.0103 125 12.4048 122.298Z" fill="#2BF5BA"></path>
<path d="M190.645 86.6973C190.808 85.1512 189.906 83.7884 188.629 83.6533C187.352 83.5182 186.184 84.6619 186.021 86.208C185.857 87.754 186.76 89.1169 188.036 89.252C189.313 89.3871 190.481 88.2433 190.645 86.6973Z" fill="#2BF5BA"></path>
</g>
<g id="illu_spot_visible_2">
<g id="stroke">
<path id="Vector" d="M141.085 31.925H58.915C55.6013 31.925 52.915 34.6113 52.915 37.925V104.06C52.915 107.374 55.6013 110.06 58.915 110.06H141.085C144.399 110.06 147.085 107.374 147.085 104.06V37.925C147.085 34.6113 144.399 31.925 141.085 31.925Z" fill="#2AEDB4"></path>
<path id="Vector_2" d="M141.085 29.7949H58.915C55.6013 29.7949 52.915 32.4812 52.915 35.7949V101.93C52.915 105.244 55.6013 107.93 58.915 107.93H141.085C144.399 107.93 147.085 105.244 147.085 101.93V35.7949C147.085 32.4812 144.399 29.7949 141.085 29.7949Z" fill="white"></path>
<path id="Vector_3" d="M57.445 29.7949H142.55C145.05 29.7949 147.08 31.8249 147.08 34.3249V41.0849H52.915V34.3249C52.915 31.8249 54.945 29.7949 57.445 29.7949Z" fill="#07064E"></path>
<path id="Vector_4" d="M129.63 38.1999C131.154 38.1999 132.39 36.9642 132.39 35.4399C132.39 33.9156 131.154 32.6799 129.63 32.6799C128.106 32.6799 126.87 33.9156 126.87 35.4399C126.87 36.9642 128.106 38.1999 129.63 38.1999Z" fill="white"></path>
<path id="Vector_5" d="M137.63 38.1999C139.154 38.1999 140.39 36.9642 140.39 35.4399C140.39 33.9156 139.154 32.6799 137.63 32.6799C136.106 32.6799 134.87 33.9156 134.87 35.4399C134.87 36.9642 136.106 38.1999 137.63 38.1999Z" fill="#2BF5BA"></path>
<g id="Vector_6">
<path d="M134.42 97.725H114.83C114.69 97.725 114.58 97.615 114.58 97.475C114.58 97.335 114.69 97.225 114.83 97.225H134.42C134.56 97.225 134.67 97.335 134.67 97.475C134.67 97.615 134.56 97.725 134.42 97.725Z" fill="#EDEDED"></path>
<path d="M111.135 97.725H107.355C107.215 97.725 107.105 97.615 107.105 97.475C107.105 97.335 107.215 97.225 107.355 97.225H111.135C111.275 97.225 111.385 97.335 111.385 97.475C111.385 97.615 111.275 97.725 111.135 97.725Z" fill="#EDEDED"></path>
<path d="M134.88 67.44H117.405C117.265 67.44 117.155 67.33 117.155 67.19C117.155 67.05 117.265 66.94 117.405 66.94H134.88C135.02 66.94 135.13 67.05 135.13 67.19C135.13 67.33 135.02 67.44 134.88 67.44Z" fill="#EDEDED"></path>
<path d="M97.9349 57.96H65.12C64.98 57.96 64.87 57.85 64.87 57.71C64.87 57.57 64.98 57.46 65.12 57.46H97.9349C98.0749 57.46 98.1849 57.57 98.1849 57.71C98.1849 57.85 98.0749 57.96 97.9349 57.96Z" fill="#EDEDED"></path>
<path d="M82.1299 67.44H65.495C65.355 67.44 65.245 67.33 65.245 67.19C65.245 67.05 65.355 66.94 65.495 66.94H82.1299C82.2699 66.94 82.3799 67.05 82.3799 67.19C82.3799 67.33 82.2699 67.44 82.1299 67.44Z" fill="#EDEDED"></path>
<path d="M134.88 72.96H125.435C125.295 72.96 125.185 72.85 125.185 72.71C125.185 72.57 125.295 72.46 125.435 72.46H134.88C135.02 72.46 135.13 72.57 135.13 72.71C135.13 72.85 135.02 72.96 134.88 72.96Z" fill="#EDEDED"></path>
<path d="M74.745 72.96H65.495C65.355 72.96 65.245 72.85 65.245 72.71C65.245 72.57 65.355 72.46 65.495 72.46H74.745C74.885 72.46 74.995 72.57 74.995 72.71C74.995 72.85 74.885 72.96 74.745 72.96Z" fill="#EDEDED"></path>
<path d="M134.88 78.475H131.89C131.75 78.475 131.64 78.365 131.64 78.225C131.64 78.085 131.75 77.975 131.89 77.975H134.88C135.02 77.975 135.13 78.085 135.13 78.225C135.13 78.365 135.02 78.475 134.88 78.475Z" fill="#EDEDED"></path>
<path d="M68.8899 78.475H65.4899C65.3499 78.475 65.2399 78.365 65.2399 78.225C65.2399 78.085 65.3499 77.975 65.4899 77.975H68.8899C69.0299 77.975 69.1399 78.085 69.1399 78.225C69.1399 78.365 69.0299 78.475 68.8899 78.475Z" fill="#EDEDED"></path>
<path d="M134.88 83.995H123.84C123.7 83.995 123.59 83.885 123.59 83.745C123.59 83.605 123.7 83.495 123.84 83.495H134.88C135.02 83.495 135.13 83.605 135.13 83.745C135.13 83.885 135.02 83.995 134.88 83.995Z" fill="#EDEDED"></path>
<path d="M76.445 83.995H65.4899C65.3499 83.995 65.2399 83.885 65.2399 83.745C65.2399 83.605 65.3499 83.495 65.4899 83.495H76.445C76.585 83.495 76.695 83.605 76.695 83.745C76.695 83.885 76.585 83.995 76.445 83.995Z" fill="#EDEDED"></path>
<path d="M83.535 89.57H65.495C65.355 89.57 65.245 89.46 65.245 89.32C65.245 89.18 65.355 89.07 65.495 89.07H83.535C83.675 89.07 83.785 89.18 83.785 89.32C83.785 89.46 83.675 89.57 83.535 89.57Z" fill="#EDEDED"></path>
</g>
<path id="Vector_7" d="M123.735 78.06C111.155 98.645 89.83 97.545 76.715 78.325C97.64 91.11 112.585 88.15 115.345 81.075C116.49 78.145 107.975 73.965 106.505 70.945C103.555 64.875 109.195 64.53 123.735 78.06Z" fill="#EDEDED"></path>
<path id="Vector_8" d="M100.09 90.515C106.969 90.515 112.545 84.9387 112.545 78.06C112.545 71.1813 106.969 65.605 100.09 65.605C93.2113 65.605 87.635 71.1813 87.635 78.06C87.635 84.9387 93.2113 90.515 100.09 90.515Z" fill="white"></path>
<path id="Vector_9" d="M100.09 85.3049C104.091 85.3049 107.335 82.0612 107.335 78.0599C107.335 74.0586 104.091 70.8149 100.09 70.8149C96.0887 70.8149 92.845 74.0586 92.845 78.0599C92.845 82.0612 96.0887 85.3049 100.09 85.3049Z" fill="#2BF5BA"></path>
<path id="Vector_10" d="M100.015 82.565C102.544 82.565 104.595 80.5145 104.595 77.985C104.595 75.4556 102.544 73.405 100.015 73.405C97.4856 73.405 95.435 75.4556 95.435 77.985C95.435 80.5145 97.4856 82.565 100.015 82.565Z" fill="#07064E"></path>
<path id="Vector_11" d="M95.88 76.8949C97.559 76.8949 98.92 75.5339 98.92 73.8549C98.92 72.176 97.559 70.8149 95.88 70.8149C94.2011 70.8149 92.84 72.176 92.84 73.8549C92.84 75.5339 94.2011 76.8949 95.88 76.8949Z" fill="white"></path>
<g id="Vector_12">
<path d="M99.555 65.125C92.01 65.2199 84.39 69.38 76.27 77.845C76.22 77.9 76.2 77.97 76.205 78.04C76.2 78.11 76.22 78.18 76.275 78.235C84.895 86.79 92.785 90.955 100.375 90.955C100.46 90.955 100.545 90.955 100.63 90.955C108.175 90.86 115.795 86.7 123.92 78.235C123.97 78.18 123.99 78.11 123.985 78.04C123.99 77.97 123.97 77.9 123.915 77.845C115.295 69.29 107.405 65.125 99.815 65.125C99.73 65.125 99.645 65.125 99.56 65.125H99.555ZM76.78 78.04C83.565 71.005 89.98 67.0299 96.275 65.945C91.125 67.57 87.38 72.385 87.38 78.065C87.38 83.37 90.65 87.9249 95.28 89.8249C89.43 88.3899 83.32 84.4999 76.78 78.0449V78.04ZM123.4 78.0449C116.7 84.9899 110.365 88.9549 104.14 90.0999C109.165 88.4049 112.795 83.6499 112.795 78.0599C112.795 72.4699 109.415 68.0499 104.66 66.2099C110.59 67.5949 116.765 71.4999 123.395 78.0449H123.4ZM112.295 78.0599C112.295 84.7899 106.82 90.2649 100.09 90.2649C93.36 90.2649 87.885 84.7899 87.885 78.0599C87.885 71.3299 93.36 65.855 100.09 65.855C106.82 65.855 112.295 71.3299 112.295 78.0599Z" fill="#07064E"></path>
<path d="M127.325 79.9749C122.145 85.3699 117.275 89.16 112.435 91.5649C104.22 95.6349 96.15 95.5499 87.75 91.3099C82.985 88.9049 78.115 85.1949 72.855 79.9749C72.755 79.8799 72.6 79.8799 72.5 79.9749C72.4 80.0749 72.405 80.2299 72.5 80.33C77.8 85.59 82.715 89.3249 87.525 91.7549C91.885 93.9599 96.16 95.0599 100.415 95.0599C104.67 95.0599 108.56 94.0449 112.66 92.0149C117.555 89.5899 122.47 85.7649 127.69 80.3249C127.785 80.2249 127.785 80.0649 127.685 79.9699C127.585 79.875 127.425 79.8749 127.33 79.9749H127.325Z" fill="#07064E"></path>
<path d="M130.5 58.6199C130.4 58.5199 130.245 58.5199 130.145 58.6199L123.13 65.635C123.03 65.735 123.03 65.8899 123.13 65.9899C123.18 66.0399 123.245 66.065 123.305 66.065C123.365 66.065 123.435 66.0399 123.48 65.9899L130.495 58.9749C130.595 58.8749 130.595 58.7199 130.495 58.6199H130.5Z" fill="#07064E"></path>
<path d="M113.175 60.8149C113.21 60.8299 113.245 60.8349 113.275 60.8349C113.37 60.8349 113.46 60.78 113.505 60.685L117.63 51.47C117.685 51.345 117.63 51.1949 117.505 51.1399C117.38 51.0849 117.23 51.1399 117.175 51.2649L113.05 60.4799C112.995 60.6049 113.05 60.755 113.175 60.81V60.8149Z" fill="#07064E"></path>
<path d="M101.19 59.4949C101.33 59.4949 101.44 59.3849 101.44 59.2449V49.325C101.44 49.185 101.33 49.075 101.19 49.075C101.05 49.075 100.94 49.185 100.94 49.325V59.2449C100.94 59.3849 101.05 59.4949 101.19 59.4949Z" fill="#07064E"></path>
<path d="M79.075 66.065C79.14 66.065 79.205 66.0399 79.25 65.9899C79.35 65.8899 79.35 65.735 79.25 65.635L72.235 58.6199C72.135 58.5199 71.98 58.5199 71.88 58.6199C71.78 58.7199 71.78 58.8749 71.88 58.9749L78.895 65.9899C78.945 66.0399 79.01 66.065 79.07 66.065H79.075Z" fill="#07064E"></path>
<path d="M88.875 60.6899C88.915 60.7849 89.01 60.8399 89.105 60.8399C89.14 60.8399 89.175 60.8349 89.205 60.8199C89.33 60.7649 89.39 60.615 89.33 60.49L85.205 51.275C85.15 51.15 85 51.095 84.875 51.15C84.75 51.205 84.69 51.3549 84.75 51.4799L88.875 60.6949V60.6899Z" fill="#07064E"></path>
<path d="M72.49 74.675C72.58 74.78 72.74 74.785 72.845 74.695C91.475 57.945 107.775 57.9499 127.345 74.695C127.39 74.735 127.45 74.7549 127.51 74.7549C127.58 74.7549 127.65 74.7249 127.7 74.6699C127.79 74.5649 127.78 74.405 127.675 74.315C107.87 57.365 91.375 57.365 72.515 74.315C72.41 74.41 72.405 74.5649 72.495 74.6699L72.49 74.675Z" fill="#07064E"></path>
</g>
</g>
</g>
</g>
</g>
<defs>
<clipPath id="clip0_70_4682">
<rect width="200" height="140" fill="white"></rect>
</clipPath>
</defs>
</svg>