<svg width="200" height="140" viewBox="0 0 200 140" fill="none" xmlns="http://www.w3.org/2000/svg">
<g id="illu_spot_streaming/Default" clip-path="url(#clip0_77_106)">
<g id="illu_spot_streaming">
<g id="background">
<path d="M12.46 29.9099C6.30003 29.8249 1.70503 25.6549 2.19003 20.5999C2.67503 15.5449 8.06503 11.5199 14.225 11.6049C20.385 11.6899 24.98 15.8599 24.495 20.9149C24.01 25.9699 18.62 29.9949 12.46 29.9099Z" fill="#2BF5BA"></path>
<path d="M188.64 57.1249C192.164 57.1249 195.02 54.2685 195.02 50.7449C195.02 47.2214 192.164 44.3649 188.64 44.3649C185.116 44.3649 182.26 47.2214 182.26 50.7449C182.26 54.2685 185.116 57.1249 188.64 57.1249Z" fill="#2BF5BA"></path>
<path d="M190.28 35.4199C191.68 35.4199 192.815 34.285 192.815 32.8849C192.815 31.4849 191.68 30.3499 190.28 30.3499C188.88 30.3499 187.745 31.4849 187.745 32.8849C187.745 34.285 188.88 35.4199 190.28 35.4199Z" fill="#2BF5BA"></path>
<path d="M28.71 8.11494C27.985 9.52494 26.15 10.1349 24.61 9.47494C23.07 8.81494 22.405 7.13994 23.13 5.72994C23.855 4.31994 25.69 3.70994 27.23 4.36994C28.77 5.02994 29.435 6.70494 28.71 8.11494Z" fill="#2BF5BA"></path>
<path d="M38.66 134.695C0.285027 126.165 -3.40997 74.9449 16.575 40.9549C42.33 -2.84506 96.04 1.26494 124.73 4.20994C157.54 7.57494 183.82 8.73494 178.965 36.3449C172.705 71.9549 196.65 57.3149 197.825 92.4199C198.46 111.33 181.84 125.365 151.18 126.815C74.255 130.455 75.825 142.955 38.655 134.695H38.66Z" fill="#2BF5BA"></path>
</g>
<g id="illu_spot_streaming_2">
<g id="stroke">
<path id="Vector" d="M132.56 22.0703H67.4401C65.0301 22.0703 63.0801 24.0203 63.0801 26.4303V115.845C63.0801 118.255 65.0301 120.205 67.4401 120.205H132.56C134.97 120.205 136.92 118.255 136.92 115.845V26.4303C136.92 24.0203 134.97 22.0703 132.56 22.0703Z" fill="#2AEDB4"></path>
<path id="Vector_2" d="M67.05 88.7701V33.3551C67.05 30.9451 69 28.9951 71.41 28.9951H128.59C131 28.9951 132.95 30.9451 132.95 33.3551V100.695C132.95 103.105 131 105.055 128.59 105.055H71.41C69 105.055 67.05 103.105 67.05 100.695V85.8601" fill="white"></path>
<path id="Vector_3" d="M132.56 20.0303H67.4401C65.0301 20.0303 63.0801 21.9803 63.0801 24.3903V113.805C63.0801 116.215 65.0301 118.165 67.4401 118.165H132.56C134.97 118.165 136.92 116.215 136.92 113.805V24.3903C136.92 21.9803 134.97 20.0303 132.56 20.0303ZM132.95 100.7C132.95 103.11 131 105.06 128.59 105.06H71.4101C69.0001 105.06 67.0501 103.11 67.0501 100.7V33.3603C67.0501 30.9503 69.0001 29.0003 71.4101 29.0003H128.59C131 29.0003 132.95 30.9503 132.95 33.3603V100.7Z" fill="#EDEDED"></path>
<path id="Vector_4" d="M132.84 118.41H67.1551C64.7751 118.41 62.8351 116.475 62.8351 114.09V24.11C62.8351 21.73 64.7701 19.79 67.1551 19.79H132.84C135.22 19.79 137.16 21.725 137.16 24.11V114.09C137.16 116.47 135.225 118.41 132.84 118.41ZM67.1601 20.27C65.0451 20.27 63.3201 21.99 63.3201 24.11V114.09C63.3201 116.205 65.0401 117.93 67.1601 117.93H132.845C134.96 117.93 136.685 116.21 136.685 114.09V24.11C136.685 21.995 134.965 20.27 132.845 20.27H67.1601Z" fill="#07064E"></path>
<g id="Group">
<path id="Vector_5" d="M100 115.58C101.969 115.58 103.565 113.984 103.565 112.015C103.565 110.046 101.969 108.45 100 108.45C98.0312 108.45 96.4351 110.046 96.4351 112.015C96.4351 113.984 98.0312 115.58 100 115.58Z" fill="white"></path>
<path id="Vector_6" d="M99.9751 115.82C98.1001 115.82 96.5251 114.48 96.2201 112.635C96.2001 112.505 96.2851 112.38 96.4201 112.36C96.5501 112.34 96.6751 112.425 96.6951 112.56C96.9601 114.175 98.3401 115.345 99.9751 115.345C101.81 115.345 103.3 113.855 103.3 112.02C103.3 110.185 101.81 108.695 99.9751 108.695C98.8351 108.695 97.7901 109.27 97.1751 110.23C97.1051 110.34 96.9551 110.375 96.8451 110.305C96.7351 110.235 96.7001 110.085 96.7701 109.975C97.4751 108.875 98.6701 108.22 99.9751 108.22C102.07 108.22 103.78 109.925 103.78 112.025C103.78 114.125 102.075 115.83 99.9751 115.83V115.82Z" fill="#07064E"></path>
</g>
<g id="Group_2">
<path id="Vector_7" d="M107.6 25.1949H103.78C103.64 25.1949 103.53 25.0799 103.53 24.9399C103.53 24.7999 103.64 24.6899 103.78 24.6899H107.6C107.74 24.6899 107.85 24.8049 107.85 24.9449C107.85 25.0849 107.74 25.1949 107.6 25.1949Z" fill="white"></path>
<path id="Vector_8" d="M101.28 25.1797H92.4C92.27 25.1797 92.16 25.0747 92.16 24.9397C92.16 24.8047 92.265 24.6997 92.4 24.6997H101.28C101.41 24.6997 101.52 24.8047 101.52 24.9397C101.52 25.0747 101.415 25.1797 101.28 25.1797Z" fill="#07064E"></path>
</g>
<path id="Vector_9" d="M123.155 36.6553H76.74C74.2189 36.6553 72.175 38.6991 72.175 41.2203V56.0003C72.175 58.5215 74.2189 60.5653 76.74 60.5653H123.155C125.676 60.5653 127.72 58.5215 127.72 56.0003V41.2203C127.72 38.6991 125.676 36.6553 123.155 36.6553Z" fill="#EDEDED"></path>
<path id="Vector_10" d="M123.155 34.5303H76.74C74.2189 34.5303 72.175 36.5741 72.175 39.0953V53.8753C72.175 56.3965 74.2189 58.4403 76.74 58.4403H123.155C125.676 58.4403 127.72 56.3965 127.72 53.8753V39.0953C127.72 36.5741 125.676 34.5303 123.155 34.5303Z" fill="white"></path>
<g id="Vector_11">
<path d="M103.205 42.5704H101.785C100.775 42.5704 99.9548 43.3904 99.9548 44.4004V44.4354H99.1749V44.1304C99.1749 42.9354 98.2048 41.9654 97.0098 41.9654H91.2548C90.0598 41.9654 89.0898 42.9354 89.0898 44.1304V48.8354C89.0898 50.0304 90.0598 51.0004 91.2548 51.0004H97.0098C98.2048 51.0004 99.1749 50.0304 99.1749 48.8354V48.5304H99.9548V48.5654C99.9548 49.5754 100.775 50.3954 101.785 50.3954H103.205C103.335 50.3954 103.445 50.2904 103.445 50.1554V42.8054C103.445 42.6754 103.34 42.5654 103.205 42.5654V42.5704ZM98.6948 48.8404C98.6948 49.7704 97.9398 50.5254 97.0098 50.5254H91.2548C90.3248 50.5254 89.5698 49.7704 89.5698 48.8404V44.1354C89.5698 43.2054 90.3248 42.4504 91.2548 42.4504H97.0098C97.9398 42.4504 98.6948 43.2054 98.6948 44.1354V48.8404ZM99.1749 48.0554V44.9154H99.9548V48.0554H99.1749ZM102.97 49.9204H101.79C101.045 49.9204 100.44 49.3154 100.44 48.5704V44.4004C100.44 43.6554 101.045 43.0504 101.79 43.0504H102.97V49.9204Z" fill="#07064E"></path>
<path d="M108.025 52.0454C107.985 52.0454 107.95 52.0354 107.915 52.0154C107.8 51.9554 107.755 51.8104 107.815 51.6904C109.92 47.6954 109.92 45.0654 107.815 41.2704C107.75 41.1554 107.795 41.0104 107.91 40.9454C108.025 40.8804 108.17 40.9254 108.235 41.0404C110.435 45.0054 110.435 47.7454 108.235 51.9154C108.19 51.9954 108.11 52.0454 108.025 52.0454Z" fill="#07064E"></path>
<path d="M109.95 53.6754C109.9 53.6754 109.85 53.6604 109.805 53.6254C109.7 53.5454 109.68 53.3954 109.76 53.2904C112.75 49.3454 112.81 43.7454 109.905 39.6754C109.83 39.5654 109.855 39.4154 109.96 39.3404C110.07 39.2604 110.22 39.2904 110.295 39.3954C113.32 43.6354 113.26 49.4654 110.14 53.5754C110.095 53.6354 110.02 53.6704 109.95 53.6704V53.6754Z" fill="#07064E"></path>
<path d="M107.055 46.5353C106.925 46.5353 106.82 46.4303 106.815 46.3003C106.79 44.9653 106.65 44.2903 106.145 43.0253C106.095 42.9003 106.155 42.7653 106.28 42.7153C106.405 42.6653 106.54 42.7253 106.59 42.8503C107.12 44.1803 107.265 44.8903 107.295 46.2953C107.295 46.4253 107.19 46.5353 107.06 46.5403L107.055 46.5353Z" fill="#07064E"></path>
</g>
<path id="Vector_12" d="M106.365 50.2753C106.335 50.2753 106.305 50.2703 106.275 50.2603C106.15 50.2103 106.09 50.0703 106.14 49.9503C106.485 49.0903 106.6 48.6603 106.725 47.7603C106.745 47.6303 106.86 47.5403 106.995 47.5553C107.125 47.5753 107.215 47.6953 107.2 47.8253C107.07 48.7603 106.94 49.2353 106.585 50.1303C106.545 50.2253 106.455 50.2803 106.36 50.2803L106.365 50.2753Z" fill="#2BF5BA"></path>
<path id="Vector_13" d="M123.185 58.6902H76.705C74.07 58.6902 71.925 56.5452 71.925 53.9102V39.0652C71.925 36.4302 74.07 34.2852 76.705 34.2852H123.185C125.82 34.2852 127.965 36.4302 127.965 39.0652V53.9102C127.965 56.5452 125.82 58.6902 123.185 58.6902ZM76.705 34.7802C74.345 34.7802 72.425 36.7002 72.425 39.0602V53.9052C72.425 56.2652 74.345 58.1852 76.705 58.1852H123.185C125.545 58.1852 127.465 56.2652 127.465 53.9052V39.0602C127.465 36.7002 125.545 34.7802 123.185 34.7802H76.705Z" fill="#2BF5BA"></path>
<path id="Vector_14" d="M128.59 29H71.41C69 29 67.05 30.95 67.05 33.36V100.7V90.81V35.395C67.05 32.985 69 31.035 71.41 31.035H128.59C131 31.035 132.95 32.985 132.95 35.395V100.7V33.36C132.95 30.95 131 29 128.59 29Z" fill="#EDEDED"></path>
<path id="Vector_15" d="M128.59 105.3H71.4101C68.8751 105.3 66.8101 103.235 66.8101 100.7V33.3603C66.8101 30.8253 68.8751 28.7603 71.4101 28.7603H128.59C131.125 28.7603 133.19 30.8253 133.19 33.3603V100.7C133.19 103.235 131.125 105.3 128.59 105.3ZM71.4101 29.2403C69.1401 29.2403 67.2901 31.0903 67.2901 33.3603V100.7C67.2901 102.97 69.1401 104.82 71.4101 104.82H128.59C130.86 104.82 132.71 102.97 132.71 100.7V33.3603C132.71 31.0903 130.86 29.2403 128.59 29.2403H71.4101Z" fill="#07064E"></path>
<path id="Vector_16" d="M93.32 84.96H75.125C73.2031 84.96 71.645 86.518 71.645 88.44V99.53C71.645 101.452 73.2031 103.01 75.125 103.01H93.32C95.242 103.01 96.8 101.452 96.8 99.53V88.44C96.8 86.518 95.242 84.96 93.32 84.96Z" fill="#EDEDED"></path>
<path id="Vector_17" d="M93.32 83.085H75.125C73.3411 83.085 71.895 84.5311 71.895 86.315V97.405C71.895 99.1888 73.3411 100.635 75.125 100.635H93.32C95.1039 100.635 96.55 99.1888 96.55 97.405V86.315C96.55 84.5311 95.1039 83.085 93.32 83.085Z" fill="white"></path>
<path id="Vector_18" d="M93.325 100.885H75.125C73.21 100.885 71.645 99.3251 71.645 97.4051V86.3101C71.645 84.3951 73.205 82.8301 75.125 82.8301H93.325C95.24 82.8301 96.805 84.3901 96.805 86.3101V97.4051C96.805 99.3201 95.245 100.885 93.325 100.885ZM75.125 83.3351C73.485 83.3351 72.145 84.6701 72.145 86.3151V97.4101C72.145 99.0501 73.48 100.39 75.125 100.39H93.325C94.965 100.39 96.305 99.0551 96.305 97.4101V86.3151C96.305 84.6751 94.97 83.3351 93.325 83.3351H75.125Z" fill="#2BF5BA"></path>
<g id="Vector_19">
<path d="M124.71 62.4348H106.515C104.731 62.4348 103.285 63.8809 103.285 65.6648V76.7548C103.285 78.5387 104.731 79.9848 106.515 79.9848H124.71C126.494 79.9848 127.94 78.5387 127.94 76.7548V65.6648C127.94 63.8809 126.494 62.4348 124.71 62.4348Z" fill="#EDEDED"></path>
<path d="M124.71 83.0848H106.515C104.731 83.0848 103.285 84.5309 103.285 86.3148V97.4048C103.285 99.1887 104.731 100.635 106.515 100.635H124.71C126.494 100.635 127.94 99.1887 127.94 97.4048V86.3148C127.94 84.5309 126.494 83.0848 124.71 83.0848Z" fill="#EDEDED"></path>
<path d="M93.32 62.2148H75.125C73.3411 62.2148 71.895 63.661 71.895 65.4448V76.5348C71.895 78.3187 73.3411 79.7648 75.125 79.7648H93.32C95.1039 79.7648 96.55 78.3187 96.55 76.5348V65.4448C96.55 63.661 95.1039 62.2148 93.32 62.2148Z" fill="#EDEDED"></path>
</g>
<g id="Vector_20">
<path d="M84.2251 90.9149C85.3794 90.9149 86.3151 89.9791 86.3151 88.8249C86.3151 87.6706 85.3794 86.7349 84.2251 86.7349C83.0708 86.7349 82.1351 87.6706 82.1351 88.8249C82.1351 89.9791 83.0708 90.9149 84.2251 90.9149Z" fill="#07064E"></path>
<path d="M84.2251 91.8349C86.5651 91.8349 88.4601 93.7349 88.4601 96.0699V97.6599H79.9901V96.0699C79.9901 93.7299 81.8901 91.8349 84.2251 91.8349Z" fill="#07064E"></path>
</g>
<g id="Vector_21">
<path d="M84.1799 70.205C85.3342 70.205 86.2699 69.2693 86.2699 68.115C86.2699 66.9608 85.3342 66.025 84.1799 66.025C83.0257 66.025 82.0899 66.9608 82.0899 68.115C82.0899 69.2693 83.0257 70.205 84.1799 70.205Z" fill="#6EF9CB"></path>
<path d="M84.1799 71.125C86.5199 71.125 88.4149 73.025 88.4149 75.36V76.95H79.9449V75.36C79.9449 73.02 81.8449 71.125 84.1799 71.125Z" fill="#6EF9CB"></path>
<path d="M115.345 90.9001C116.499 90.9001 117.435 89.9644 117.435 88.8101C117.435 87.6559 116.499 86.7201 115.345 86.7201C114.191 86.7201 113.255 87.6559 113.255 88.8101C113.255 89.9644 114.191 90.9001 115.345 90.9001Z" fill="#6EF9CB"></path>
<path d="M115.345 91.8201C117.685 91.8201 119.58 93.7201 119.58 96.0551V97.6451H111.11V96.0551C111.11 93.7151 113.01 91.8201 115.345 91.8201Z" fill="#6EF9CB"></path>
<path d="M115.405 70.0701C116.559 70.0701 117.495 69.1344 117.495 67.9801C117.495 66.8259 116.559 65.8901 115.405 65.8901C114.251 65.8901 113.315 66.8259 113.315 67.9801C113.315 69.1344 114.251 70.0701 115.405 70.0701Z" fill="#6EF9CB"></path>
<path d="M115.405 70.9901C117.745 70.9901 119.64 72.8901 119.64 75.2251V76.8151H111.17V75.2251C111.17 72.8851 113.07 70.9901 115.405 70.9901Z" fill="#6EF9CB"></path>
</g>
</g>
</g>
</g>
</g>
<defs>
<clipPath id="clip0_77_106">
<rect width="200" height="140" fill="white"></rect>
</clipPath>
</defs>
</svg>