<svg width="200" height="140" viewBox="0 0 200 140" fill="none" xmlns="http://www.w3.org/2000/svg">
<g id="illu_spot_result/Default" clip-path="url(#clip0_70_5053)">
<g id="illu_spot_result">
<g id="background">
<path d="M192.949 60.7152C197.053 58.1225 199.008 53.8481 197.315 51.1679C195.622 48.4878 190.922 48.4168 186.818 51.0094C182.713 53.602 180.759 57.8765 182.452 60.5567C184.145 63.2368 188.844 63.3078 192.949 60.7152Z" fill="#2BF5BA"></path>
<path d="M153.368 11.9449C153.531 10.3988 152.629 9.036 151.352 8.90088C150.075 8.76577 148.907 9.90956 148.743 11.4556C148.58 13.0017 149.482 14.3645 150.759 14.4996C152.036 14.6347 153.204 13.491 153.368 11.9449Z" fill="#2BF5BA"></path>
<path d="M193.155 16.57C203.915 28.31 163.265 48.86 172.635 78.47C190.245 134.105 99.3401 141.005 65.0351 130.84C38.5701 122.995 29.7801 107.885 20.6851 95.36C9.05507 79.325 -3.24993 60.01 5.00007 36.715C13.1601 13.675 45.7001 -3.22998 94.7451 9.72002C174.765 30.85 181.495 3.84502 193.16 16.57H193.155Z" fill="#2BF5BA"></path>
<path d="M8.69007 117.92C12.3434 117.92 15.3051 114.958 15.3051 111.305C15.3051 107.652 12.3434 104.69 8.69007 104.69C5.03671 104.69 2.07507 107.652 2.07507 111.305C2.07507 114.958 5.03671 117.92 8.69007 117.92Z" fill="#2BF5BA"></path>
</g>
<g id="illu_spot_result_2">
<g id="stroke">
<path id="Vector" d="M140.59 33.3599H58.42C55.1063 33.3599 52.42 36.0462 52.42 39.3599V105.495C52.42 108.809 55.1063 111.495 58.42 111.495H140.59C143.904 111.495 146.59 108.809 146.59 105.495V39.3599C146.59 36.0462 143.904 33.3599 140.59 33.3599Z" fill="#2AEDB4"></path>
<path id="Vector_2" d="M140.59 31.2349H58.42C55.1063 31.2349 52.42 33.9212 52.42 37.2349V103.37C52.42 106.684 55.1063 109.37 58.42 109.37H140.59C143.904 109.37 146.59 106.684 146.59 103.37V37.2349C146.59 33.9212 143.904 31.2349 140.59 31.2349Z" fill="white"></path>
<path id="Vector_3" d="M56.955 31.2349H142.06C144.56 31.2349 146.59 33.2649 146.59 35.7649V42.5249H52.42V35.7649C52.42 33.2649 54.45 31.2349 56.95 31.2349H56.955Z" fill="#07064E"></path>
<path id="Vector_4" d="M129.135 39.6401C130.659 39.6401 131.895 38.4044 131.895 36.8801C131.895 35.3558 130.659 34.1201 129.135 34.1201C127.611 34.1201 126.375 35.3558 126.375 36.8801C126.375 38.4044 127.611 39.6401 129.135 39.6401Z" fill="white"></path>
<path id="Vector_5" d="M137.135 39.6401C138.659 39.6401 139.895 38.4044 139.895 36.8801C139.895 35.3558 138.659 34.1201 137.135 34.1201C135.611 34.1201 134.375 35.3558 134.375 36.8801C134.375 38.4044 135.611 39.6401 137.135 39.6401Z" fill="#2BF5BA"></path>
<g id="Vector_6">
<path d="M84.7801 82.88H79.5801C79.2211 82.88 78.9301 83.171 78.9301 83.53V92.7C78.9301 93.059 79.2211 93.35 79.5801 93.35H84.7801C85.1391 93.35 85.4301 93.059 85.4301 92.7V83.53C85.4301 83.171 85.1391 82.88 84.7801 82.88Z" fill="#2BF5BA"></path>
<path d="M96.2053 61.8101H91.0303C90.6713 61.8101 90.3803 62.1011 90.3803 62.4601V92.7001C90.3803 93.059 90.6713 93.3501 91.0303 93.3501H96.2053C96.5643 93.3501 96.8553 93.059 96.8553 92.7001V62.4601C96.8553 62.1011 96.5643 61.8101 96.2053 61.8101Z" fill="#2BF5BA"></path>
<path d="M107.655 78.4701H102.48C102.121 78.4701 101.83 78.7611 101.83 79.1201V92.7001C101.83 93.059 102.121 93.3501 102.48 93.3501H107.655C108.014 93.3501 108.305 93.059 108.305 92.7001V79.1201C108.305 78.7611 108.014 78.4701 107.655 78.4701Z" fill="#2BF5BA"></path>
<path d="M119.105 69.6251H113.93C113.571 69.6251 113.28 69.9161 113.28 70.2751V92.7001C113.28 93.059 113.571 93.3501 113.93 93.3501H119.105C119.464 93.3501 119.755 93.059 119.755 92.7001V70.2751C119.755 69.9161 119.464 69.6251 119.105 69.6251Z" fill="#2BF5BA"></path>
<path d="M130.03 84.08H124.855C124.496 84.08 124.205 84.3711 124.205 84.73V92.7C124.205 93.059 124.496 93.35 124.855 93.35H130.03C130.389 93.35 130.68 93.059 130.68 92.7V84.73C130.68 84.3711 130.389 84.08 130.03 84.08Z" fill="#2BF5BA"></path>
</g>
<path id="Vector_7" d="M76.3801 53.5649L73.4001 49.1149C73.4001 49.1149 73.3901 49.1099 73.3851 49.1049C73.3701 49.0849 73.3501 49.0649 73.3251 49.0499C73.3151 49.0449 73.3101 49.0349 73.3001 49.0299C73.2651 49.0149 73.2301 49.0049 73.1901 49.0049C73.1501 49.0049 73.1151 49.0149 73.0801 49.0299C73.0701 49.0299 73.0651 49.0399 73.0551 49.0499C73.0301 49.0649 73.0151 49.0799 72.9951 49.1049C72.9951 49.1099 72.9851 49.1099 72.9801 49.1149L70.0001 53.5649C69.9251 53.6799 69.9551 53.8349 70.0701 53.9099C70.1851 53.9849 70.3401 53.9549 70.4151 53.8399L72.9401 50.0699V62.8699H68.3301C68.1901 62.8699 68.0801 62.9799 68.0801 63.1199C68.0801 63.2599 68.1901 63.3699 68.3301 63.3699H72.9401V67.8099H68.3301C68.1901 67.8099 68.0801 67.9199 68.0801 68.0599C68.0801 68.1999 68.1901 68.3099 68.3301 68.3099H72.9401V72.7499H68.3301C68.1901 72.7499 68.0801 72.8599 68.0801 72.9999C68.0801 73.1399 68.1901 73.2499 68.3301 73.2499H72.9401V77.6899H68.3301C68.1901 77.6899 68.0801 77.7999 68.0801 77.9399C68.0801 78.0799 68.1901 78.1899 68.3301 78.1899H72.9401V82.6299H68.3301C68.1901 82.6299 68.0801 82.7399 68.0801 82.8799C68.0801 83.0199 68.1901 83.1299 68.3301 83.1299H72.9401V87.5699H68.3301C68.1901 87.5699 68.0801 87.6799 68.0801 87.8199C68.0801 87.9599 68.1901 88.0699 68.3301 88.0699H72.9401V92.5099H68.3301C68.1901 92.5099 68.0801 92.6199 68.0801 92.7599C68.0801 92.8999 68.1901 93.0099 68.3301 93.0099H73.1901C73.3301 93.0099 73.4401 92.8999 73.4401 92.7599V50.0749L75.9651 53.8449C76.0151 53.9149 76.0901 53.9549 76.1751 53.9549C76.2251 53.9549 76.2701 53.9399 76.3151 53.9149C76.4301 53.8399 76.4601 53.6849 76.3851 53.5699L76.3801 53.5649Z" fill="#07064E"></path>
<g id="Vector_8">
<path d="M84.7801 95.3599H79.5801C79.2211 95.3599 78.9301 95.6509 78.9301 96.0099V98.8799C78.9301 99.2388 79.2211 99.5299 79.5801 99.5299H84.7801C85.1391 99.5299 85.4301 99.2388 85.4301 98.8799V96.0099C85.4301 95.6509 85.1391 95.3599 84.7801 95.3599Z" fill="#EDEDED"></path>
<path d="M96.2052 95.3599H91.0302C90.6712 95.3599 90.3802 95.6509 90.3802 96.0099V98.8799C90.3802 99.2389 90.6712 99.5299 91.0302 99.5299H96.2052C96.5642 99.5299 96.8552 99.2389 96.8552 98.8799V96.0099C96.8552 95.6509 96.5642 95.3599 96.2052 95.3599Z" fill="#EDEDED"></path>
<path d="M107.655 95.3599H102.48C102.121 95.3599 101.83 95.6509 101.83 96.0099V98.8799C101.83 99.2389 102.121 99.5299 102.48 99.5299H107.655C108.014 99.5299 108.305 99.2389 108.305 98.8799V96.0099C108.305 95.6509 108.014 95.3599 107.655 95.3599Z" fill="#EDEDED"></path>
<path d="M119.105 95.3599H113.93C113.571 95.3599 113.28 95.6509 113.28 96.0099V98.8799C113.28 99.2389 113.571 99.5299 113.93 99.5299H119.105C119.464 99.5299 119.755 99.2389 119.755 98.8799V96.0099C119.755 95.6509 119.464 95.3599 119.105 95.3599Z" fill="#EDEDED"></path>
<path d="M130.03 95.3599H124.855C124.496 95.3599 124.205 95.6509 124.205 96.0099V98.8799C124.205 99.2389 124.496 99.5299 124.855 99.5299H130.03C130.389 99.5299 130.68 99.2389 130.68 98.8799V96.0099C130.68 95.6509 130.389 95.3599 130.03 95.3599Z" fill="#EDEDED"></path>
</g>
</g>
</g>
</g>
</g>
<defs>
<clipPath id="clip0_70_5053">
<rect width="200" height="140" fill="white"></rect>
</clipPath>
</defs>
</svg>