<svg width="200" height="140" viewBox="0 0 200 140" fill="none" xmlns="http://www.w3.org/2000/svg">
<g id="illu_spot_videoconference/Default" clip-path="url(#clip0_77_15)">
<g id="illu_spot_videoconference">
<g id="background">
<path d="M12.46 29.9099C6.30003 29.8249 1.70503 25.6549 2.19003 20.5999C2.67503 15.5449 8.06503 11.5199 14.225 11.6049C20.385 11.6899 24.98 15.8599 24.495 20.9149C24.01 25.9699 18.62 29.9949 12.46 29.9099Z" fill="#2BF5BA"></path>
<path d="M188.64 57.1249C192.164 57.1249 195.02 54.2685 195.02 50.7449C195.02 47.2214 192.164 44.3649 188.64 44.3649C185.116 44.3649 182.26 47.2214 182.26 50.7449C182.26 54.2685 185.116 57.1249 188.64 57.1249Z" fill="#2BF5BA"></path>
<path d="M190.28 35.4199C191.68 35.4199 192.815 34.285 192.815 32.8849C192.815 31.4849 191.68 30.3499 190.28 30.3499C188.88 30.3499 187.745 31.4849 187.745 32.8849C187.745 34.285 188.88 35.4199 190.28 35.4199Z" fill="#2BF5BA"></path>
<path d="M28.71 8.11494C27.985 9.52494 26.15 10.1349 24.61 9.47494C23.07 8.81494 22.405 7.13994 23.13 5.72994C23.855 4.31994 25.69 3.70994 27.23 4.36994C28.77 5.02994 29.435 6.70494 28.71 8.11494Z" fill="#2BF5BA"></path>
<path d="M38.66 134.695C0.285027 126.165 -3.40997 74.9449 16.575 40.9549C42.33 -2.84506 96.04 1.26494 124.73 4.20994C157.54 7.57494 183.82 8.73494 178.965 36.3449C172.705 71.9549 196.65 57.3149 197.825 92.4199C198.46 111.33 181.84 125.365 151.18 126.815C74.255 130.455 75.825 142.955 38.655 134.695H38.66Z" fill="#2BF5BA"></path>
</g>
<g id="illu_spot_videoconference_2">
<g id="stroke">
<path id="Vector" d="M120.755 42.8906C117.195 42.4506 113.925 45.0056 113.49 48.5606L112.97 52.7856L110.38 73.7756L108.745 87.0456C108.595 88.2706 110.18 88.8856 110.895 87.8806L118.45 77.2856C119.465 75.8606 121.18 75.1056 122.92 75.3206L132.16 76.4606V43.8406L120.755 42.8856V42.8906Z" fill="#DDDDDD"></path>
<path id="Vector_2" d="M158.635 47.5609L132.16 44.2959V76.4609L154.725 79.2459C158.285 79.6859 161.555 77.1309 161.99 73.5759L164.3 54.8309C164.74 51.2709 162.185 48.0009 158.63 47.5659L158.635 47.5609Z" fill="#2AEDB4"></path>
<path id="Vector_3" d="M128.13 114.04H67.9599C65.5999 114.04 63.6799 112.12 63.6799 109.76V27.1404C63.6799 24.7804 65.5999 22.8604 67.9599 22.8604H128.13C130.49 22.8604 132.41 24.7804 132.41 27.1404V109.76C132.41 112.12 130.49 114.04 128.13 114.04ZM67.9599 23.3604C65.8749 23.3604 64.1799 25.0554 64.1799 27.1404V109.76C64.1799 111.845 65.8749 113.54 67.9599 113.54H128.13C130.215 113.54 131.91 111.845 131.91 109.76V27.1404C131.91 25.0554 130.215 23.3604 128.13 23.3604H67.9599Z" fill="#07064E"></path>
<path id="Vector_4" d="M124.465 101.926H71.63C69.27 101.926 67.35 100.006 67.35 97.6455V35.4255C67.35 33.0655 69.27 31.1455 71.63 31.1455H124.465C126.825 31.1455 128.745 33.0655 128.745 35.4255V97.6455C128.745 100.006 126.825 101.926 124.465 101.926ZM71.63 31.6455C69.545 31.6455 67.85 33.3405 67.85 35.4255V97.6455C67.85 99.7305 69.545 101.426 71.63 101.426H124.465C126.55 101.426 128.245 99.7305 128.245 97.6455V35.4255C128.245 33.3405 126.55 31.6455 124.465 31.6455H71.63Z" fill="#07064E"></path>
<path id="Vector_5" d="M63.68 54.8105L39.315 63.5205C36.45 64.5455 34.94 67.7305 35.965 70.5955L41.365 85.6955C42.39 88.5605 45.575 90.0705 48.44 89.0455L63.68 83.5955V54.8105Z" fill="#2AEDB4"></path>
<path id="Vector_6" d="M74.0649 79.8853C75.4649 79.3853 77.0249 79.6903 78.1349 80.6853L86.3649 88.0603C87.1449 88.7603 88.3449 87.9553 87.9899 86.9653L84.1699 76.2753L78.1249 59.3653L76.9099 55.9653C75.8849 53.1003 72.6999 51.5903 69.8349 52.6153L64.1899 54.6353V83.4203L74.0749 79.8853H74.0649Z" fill="#DDDDDD"></path>
<path id="Vector_7" d="M128.13 113.791H67.9599C65.7349 113.791 63.9299 111.986 63.9299 109.761V113.111C63.9299 115.336 65.7349 117.141 67.9599 117.141H128.13C130.355 117.141 132.16 115.336 132.16 113.111V109.766C132.16 111.991 130.355 113.791 128.13 113.791Z" fill="#2AEDB4"></path>
<path id="Vector_8" d="M67.6 86.6255V35.4255C67.6 33.2005 69.405 31.3955 71.63 31.3955H124.465C126.69 31.3955 128.495 33.2005 128.495 35.4255V97.6455C128.495 99.8705 126.69 101.676 124.465 101.676H71.63C69.405 101.676 67.6 99.8705 67.6 97.6455V83.9355" fill="white"></path>
<path id="Vector_9" d="M128.13 23.1104H67.9599C65.7349 23.1104 63.9299 24.9154 63.9299 27.1404V109.76C63.9299 111.985 65.7349 113.79 67.9599 113.79H128.13C130.355 113.79 132.16 111.985 132.16 109.76V27.1404C132.16 24.9154 130.355 23.1104 128.13 23.1104ZM128.49 97.6504C128.49 99.8754 126.685 101.68 124.46 101.68H71.6249C69.3999 101.68 67.5949 99.8754 67.5949 97.6504V35.4304C67.5949 33.2054 69.3999 31.4004 71.6249 31.4004H124.46C126.685 31.4004 128.49 33.2054 128.49 35.4304V97.6504Z" fill="#EDEDED"></path>
<path id="Vector_10" d="M128.13 114.04H67.9599C65.5999 114.04 63.6799 112.12 63.6799 109.76V27.1404C63.6799 24.7804 65.5999 22.8604 67.9599 22.8604H128.13C130.49 22.8604 132.41 24.7804 132.41 27.1404V109.76C132.41 112.12 130.49 114.04 128.13 114.04ZM67.9599 23.3604C65.8749 23.3604 64.1799 25.0554 64.1799 27.1404V109.76C64.1799 111.845 65.8749 113.54 67.9599 113.54H128.13C130.215 113.54 131.91 111.845 131.91 109.76V27.1404C131.91 25.0554 130.215 23.3604 128.13 23.3604H67.9599Z" fill="#07064E"></path>
<path id="Vector_11" d="M98.045 111.401C99.8648 111.401 101.34 109.925 101.34 108.106C101.34 106.286 99.8648 104.811 98.045 104.811C96.2252 104.811 94.75 106.286 94.75 108.106C94.75 109.925 96.2252 111.401 98.045 111.401Z" fill="white"></path>
<path id="Vector_12" d="M98.025 111.646C96.28 111.646 94.81 110.396 94.53 108.676C94.51 108.541 94.6 108.411 94.735 108.391C94.87 108.371 95 108.461 95.02 108.596C95.26 110.071 96.525 111.146 98.025 111.146C99.705 111.146 101.07 109.781 101.07 108.101C101.07 106.421 99.705 105.061 98.025 105.061C96.98 105.061 96.025 105.586 95.46 106.466C95.385 106.581 95.23 106.616 95.115 106.541C95 106.466 94.965 106.311 95.04 106.196C95.695 105.171 96.81 104.561 98.025 104.561C99.98 104.561 101.57 106.151 101.57 108.101C101.57 110.051 99.98 111.646 98.025 111.646Z" fill="#07064E"></path>
<path id="Vector_13" d="M105.065 27.9005H101.535C101.395 27.9005 101.285 27.7855 101.285 27.6455C101.285 27.5055 101.395 27.3955 101.535 27.3955H105.065C105.205 27.3955 105.315 27.5105 105.315 27.6505C105.315 27.7905 105.205 27.9005 105.065 27.9005Z" fill="white"></path>
<path id="Vector_14" d="M99.23 27.9004H91.025C90.885 27.9004 90.775 27.7904 90.775 27.6504C90.775 27.5104 90.885 27.4004 91.025 27.4004H99.23C99.37 27.4004 99.48 27.5104 99.48 27.6504C99.48 27.7904 99.37 27.9004 99.23 27.9004Z" fill="#07064E"></path>
<path id="Vector_15" d="M124.465 31.3955H71.63C69.405 31.3955 67.6 33.2005 67.6 35.4255V97.6455V88.7505V37.5505C67.6 35.3255 69.405 33.5205 71.63 33.5205H124.465C126.69 33.5205 128.495 35.3255 128.495 37.5505V97.6505V35.4305C128.495 33.2055 126.69 31.4005 124.465 31.4005V31.3955Z" fill="#EDEDED"></path>
<path id="Vector_16" d="M124.465 101.926H71.63C69.27 101.926 67.35 100.006 67.35 97.6455V35.4255C67.35 33.0655 69.27 31.1455 71.63 31.1455H124.465C126.825 31.1455 128.745 33.0655 128.745 35.4255V97.6455C128.745 100.006 126.825 101.926 124.465 101.926ZM71.63 31.6455C69.545 31.6455 67.85 33.3405 67.85 35.4255V97.6455C67.85 99.7305 69.545 101.426 71.63 101.426H124.465C126.55 101.426 128.245 99.7305 128.245 97.6455V35.4255C128.245 33.3405 126.55 31.6455 124.465 31.6455H71.63Z" fill="#07064E"></path>
<path id="Vector_17" d="M120.025 41.0405H77.21C74.6888 41.0405 72.645 43.0843 72.645 45.6055V63.3955C72.645 65.9167 74.6888 67.9605 77.21 67.9605H120.025C122.546 67.9605 124.59 65.9167 124.59 63.3955V45.6055C124.59 43.0843 122.546 41.0405 120.025 41.0405Z" fill="#EDEDED"></path>
<path id="Vector_18" d="M119.53 39.4805H76.715C74.1938 39.4805 72.15 41.5243 72.15 44.0455V61.8355C72.15 64.3566 74.1938 66.4005 76.715 66.4005H119.53C122.051 66.4005 124.095 64.3566 124.095 61.8355V44.0455C124.095 41.5243 122.051 39.4805 119.53 39.4805Z" fill="white"></path>
<g id="Vector_19">
<path d="M92.73 72.1255H76.59C74.0688 72.1255 72.025 74.1693 72.025 76.6905V93.4555C72.025 95.9767 74.0688 98.0205 76.59 98.0205H92.73C95.2512 98.0205 97.295 95.9767 97.295 93.4555V76.6905C97.295 74.1693 95.2512 72.1255 92.73 72.1255Z" fill="#EDEDED"></path>
<path d="M92.73 70.0005H76.59C74.0688 70.0005 72.025 72.0443 72.025 74.5655V91.3305C72.025 93.8517 74.0688 95.8955 76.59 95.8955H92.73C95.2512 95.8955 97.295 93.8517 97.295 91.3305V74.5655C97.295 72.0443 95.2512 70.0005 92.73 70.0005Z" fill="#EDEDED"></path>
<path d="M119.4 72.1255H103.18C100.659 72.1255 98.615 74.1693 98.615 76.6905V93.4555C98.615 95.9767 100.659 98.0205 103.18 98.0205H119.4C121.921 98.0205 123.965 95.9767 123.965 93.4555V76.6905C123.965 74.1693 121.921 72.1255 119.4 72.1255Z" fill="#EDEDED"></path>
<path d="M119.4 70.0005H103.18C100.659 70.0005 98.615 72.0443 98.615 74.5655V91.3305C98.615 93.8517 100.659 95.8955 103.18 95.8955H119.4C121.921 95.8955 123.965 93.8517 123.965 91.3305V74.5655C123.965 72.0443 121.921 70.0005 119.4 70.0005Z" fill="#EDEDED"></path>
</g>
<g id="Vector_20">
<path d="M100.235 49.2009H99.0099C98.0299 49.2009 97.2349 49.9759 97.1899 50.9459H96.4799V50.8009C96.4799 49.6059 95.5099 48.6359 94.3149 48.6359H89.1799C87.9849 48.6359 87.0149 49.6059 87.0149 50.8009V54.9559C87.0149 56.1509 87.9849 57.1209 89.1799 57.1209H94.3149C95.5099 57.1209 96.4799 56.1509 96.4799 54.9559V54.8109H97.1899C97.2349 55.7809 98.0299 56.5559 99.0099 56.5559H100.235C100.365 56.5559 100.475 56.4509 100.475 56.3159V49.4409C100.475 49.3109 100.37 49.2009 100.235 49.2009ZM95.9999 54.9559C95.9999 55.8859 95.2449 56.6409 94.3149 56.6409H89.1799C88.2499 56.6409 87.4949 55.8859 87.4949 54.9559V50.8009C87.4949 49.8709 88.2499 49.1159 89.1799 49.1159H94.3149C95.2449 49.1159 95.9999 49.8709 95.9999 50.8009V54.9559ZM96.4799 51.4259H97.1799V54.3359H96.4799V51.4259ZM99.9949 56.0759H99.0099C98.2649 56.0759 97.6599 55.4709 97.6599 54.7259V51.0309C97.6599 50.2859 98.2649 49.6809 99.0099 49.6809H99.9949V56.0759Z" fill="#07064E"></path>
<path d="M104.745 58.096C104.705 58.096 104.67 58.086 104.635 58.066C104.52 58.006 104.475 57.861 104.535 57.741C106.5 54.011 106.5 51.556 104.535 48.011C104.47 47.896 104.515 47.751 104.63 47.686C104.745 47.621 104.89 47.666 104.955 47.781C107.015 51.491 107.015 54.061 104.955 57.966C104.91 58.046 104.83 58.096 104.745 58.096Z" fill="#07064E"></path>
<path d="M106.54 59.616C106.49 59.616 106.44 59.601 106.395 59.566C106.29 59.486 106.27 59.336 106.35 59.231C109.145 55.546 109.2 50.321 106.485 46.516C106.41 46.406 106.435 46.256 106.54 46.181C106.65 46.106 106.8 46.131 106.875 46.236C109.71 50.206 109.65 55.666 106.73 59.516C106.685 59.576 106.61 59.611 106.54 59.611V59.616Z" fill="#07064E"></path>
<path d="M103.835 52.941C103.705 52.941 103.6 52.836 103.595 52.706C103.57 51.461 103.44 50.831 102.97 49.651C102.92 49.526 102.98 49.391 103.105 49.341C103.23 49.291 103.365 49.351 103.415 49.476C103.91 50.721 104.05 51.386 104.075 52.701C104.075 52.831 103.97 52.941 103.84 52.946L103.835 52.941Z" fill="#07064E"></path>
</g>
<path id="Vector_21" d="M103.19 56.4409C103.16 56.4409 103.13 56.4359 103.1 56.4259C102.975 56.3759 102.915 56.2359 102.965 56.1159C103.285 55.3109 103.395 54.9109 103.51 54.0709C103.53 53.9409 103.645 53.8509 103.78 53.8659C103.91 53.8859 104 54.0059 103.985 54.1359C103.86 55.0109 103.745 55.4559 103.41 56.2909C103.37 56.3859 103.28 56.4409 103.185 56.4409H103.19Z" fill="#2BF5BA"></path>
<path id="Vector_22" d="M119.435 66.5908H76.555C73.92 66.5908 71.775 64.4458 71.775 61.8108V43.9558C71.775 41.3208 73.92 39.1758 76.555 39.1758H119.435C122.07 39.1758 124.215 41.3208 124.215 43.9558V61.8108C124.215 64.4458 122.07 66.5908 119.435 66.5908ZM76.555 39.6708C74.195 39.6708 72.275 41.5908 72.275 43.9508V61.8058C72.275 64.1658 74.195 66.0858 76.555 66.0858H119.435C121.795 66.0858 123.715 64.1658 123.715 61.8058V43.9508C123.715 41.5908 121.795 39.6708 119.435 39.6708H76.555Z" fill="#2BF5BA"></path>
<path id="Vector_23" d="M128.13 114.04H67.9599C65.5999 114.04 63.6799 112.12 63.6799 109.76V27.1404C63.6799 24.7804 65.5999 22.8604 67.9599 22.8604H128.13C130.49 22.8604 132.41 24.7804 132.41 27.1404V109.76C132.41 112.12 130.49 114.04 128.13 114.04ZM67.9599 23.3604C65.8749 23.3604 64.1799 25.0554 64.1799 27.1404V109.76C64.1799 111.845 65.8749 113.54 67.9599 113.54H128.13C130.215 113.54 131.91 111.845 131.91 109.76V27.1404C131.91 25.0554 130.215 23.3604 128.13 23.3604H67.9599Z" fill="#07064E"></path>
<path id="Vector_24" d="M124.465 101.926H71.63C69.27 101.926 67.35 100.006 67.35 97.6455V35.4255C67.35 33.0655 69.27 31.1455 71.63 31.1455H124.465C126.825 31.1455 128.745 33.0655 128.745 35.4255V97.6455C128.745 100.006 126.825 101.926 124.465 101.926ZM71.63 31.6455C69.545 31.6455 67.85 33.3405 67.85 35.4255V97.6455C67.85 99.7305 69.545 101.426 71.63 101.426H124.465C126.55 101.426 128.245 99.7305 128.245 97.6455V35.4255C128.245 33.3405 126.55 31.6455 124.465 31.6455H71.63Z" fill="#07064E"></path>
<path id="Vector_25" d="M39.3149 61.3959L69.8249 50.4859C72.6899 49.4609 75.8749 50.9659 76.8999 53.8359L78.1149 57.2359L84.1599 74.1459L87.9799 84.8359C88.3349 85.8209 87.1349 86.6309 86.3549 85.9309L78.1249 78.5559C77.0199 77.5659 75.4549 77.2559 74.0549 77.7559L48.4299 86.9159C45.5649 87.9409 42.3799 86.4359 41.3549 83.5659L35.9549 68.4659C34.9299 65.6009 36.4349 62.4159 39.3049 61.3909L39.3149 61.3959Z" fill="white"></path>
<g id="Vector_26">
<path d="M62.44 67.1209C64.014 67.1209 65.29 65.8449 65.29 64.2709C65.29 62.6969 64.014 61.4209 62.44 61.4209C60.866 61.4209 59.59 62.6969 59.59 64.2709C59.59 65.8449 60.866 67.1209 62.44 67.1209Z" fill="#2BF5BA"></path>
<path d="M63.8244 68.1437C66.8282 67.07 70.1436 68.6354 71.219 71.6439L71.9495 73.6873L61.0593 77.5801L60.3289 75.5367C59.2551 72.5329 60.8205 69.2175 63.8291 68.1421L63.8244 68.1437Z" fill="#2BF5BA"></path>
</g>
<g id="Vector_27">
<path d="M53.765 70.2205C55.339 70.2205 56.615 68.9445 56.615 67.3705C56.615 65.7965 55.339 64.5205 53.765 64.5205C52.191 64.5205 50.915 65.7965 50.915 67.3705C50.915 68.9445 52.191 70.2205 53.765 70.2205Z" fill="#07064E"></path>
<path d="M55.1491 71.2425C58.153 70.1687 61.4683 71.7341 62.5438 74.7427L63.2742 76.786L52.3841 80.6789L51.6536 78.6355C50.5799 75.6316 52.1453 72.3162 55.1538 71.2408L55.1491 71.2425Z" fill="#07064E"></path>
</g>
<g id="Vector_28">
<path d="M46.585 87.4952C44.21 87.4952 41.975 86.0202 41.135 83.6602L35.735 68.5602C35.215 67.1102 35.295 65.5402 35.96 64.1402C36.625 62.7402 37.785 61.6852 39.235 61.1652L69.745 50.2552C71.195 49.7352 72.765 49.8152 74.165 50.4802C75.565 51.1452 76.62 52.3052 77.14 53.7552L88.225 84.7552C88.425 85.3052 88.225 85.9002 87.74 86.2252C87.255 86.5552 86.63 86.5102 86.195 86.1202L77.965 78.7452C76.925 77.8152 75.46 77.5252 74.145 77.9952L48.52 87.1552C47.88 87.3852 47.225 87.4952 46.58 87.4952H46.585ZM39.315 61.3952L39.4 61.6302C36.655 62.6102 35.22 65.6402 36.205 68.3852L41.605 83.4852C42.585 86.2302 45.615 87.6602 48.36 86.6802L73.985 77.5202C75.475 76.9902 77.13 77.3152 78.305 78.3652L86.535 85.7402C86.86 86.0302 87.24 85.9552 87.465 85.8052C87.69 85.6552 87.905 85.3302 87.755 84.9202L76.67 53.9202C76.195 52.5952 75.23 51.5352 73.95 50.9302C72.67 50.3252 71.235 50.2502 69.915 50.7252L39.405 61.6352L39.32 61.4002L39.315 61.3952Z" fill="#07064E"></path>
<path d="M46.585 87.4952C44.21 87.4952 41.975 86.0202 41.135 83.6602L35.735 68.5602C35.215 67.1102 35.295 65.5402 35.96 64.1402C36.625 62.7402 37.785 61.6852 39.235 61.1652L69.745 50.2552C71.195 49.7352 72.765 49.8152 74.165 50.4802C75.565 51.1452 76.62 52.3052 77.14 53.7552L88.225 84.7552C88.425 85.3052 88.225 85.9002 87.74 86.2252C87.255 86.5552 86.63 86.5102 86.195 86.1202L77.965 78.7452C76.925 77.8152 75.46 77.5252 74.145 77.9952L48.52 87.1552C47.88 87.3852 47.225 87.4952 46.58 87.4952H46.585ZM39.315 61.3952L39.4 61.6302C36.655 62.6102 35.22 65.6402 36.205 68.3852L41.605 83.4852C42.585 86.2302 45.615 87.6602 48.36 86.6802L73.985 77.5202C75.475 76.9902 77.13 77.3152 78.305 78.3652L86.535 85.7402C86.86 86.0302 87.24 85.9552 87.465 85.8052C87.69 85.6552 87.905 85.3302 87.755 84.9202L76.67 53.9202C76.195 52.5952 75.23 51.5352 73.95 50.9302C72.67 50.3252 71.235 50.2502 69.915 50.7252L39.405 61.6352L39.32 61.4002L39.315 61.3952Z" fill="#07064E"></path>
</g>
<path id="Vector_29" d="M158.635 45.4356L120.76 40.7656C117.2 40.3256 113.93 42.8806 113.495 46.4356L112.975 50.6606L110.385 71.6506L108.75 84.9206C108.6 86.1456 110.185 86.7606 110.9 85.7556L118.455 75.1606C119.47 73.7356 121.185 72.9806 122.925 73.1956L154.73 77.1206C158.29 77.5606 161.56 75.0056 161.995 71.4506L164.305 52.7056C164.745 49.1456 162.19 45.8756 158.635 45.4406V45.4356Z" fill="white"></path>
<g id="Vector_30">
<path d="M132.8 58.0559C134.656 58.0559 136.16 56.5516 136.16 54.6959C136.16 52.8403 134.656 51.3359 132.8 51.3359C130.944 51.3359 129.44 52.8403 129.44 54.6959C129.44 56.5516 130.944 58.0559 132.8 58.0559Z" fill="#07064E"></path>
<path d="M137.816 69.6307L124.298 67.9638L124.611 65.423C125.071 61.6913 128.472 59.0375 132.204 59.4977C135.935 59.9579 138.589 63.3582 138.129 67.09L137.816 69.6307Z" fill="#07064E"></path>
</g>
<g id="Vector_31">
<path d="M143.565 59.3806C145.421 59.3806 146.925 57.8763 146.925 56.0206C146.925 54.165 145.421 52.6606 143.565 52.6606C141.709 52.6606 140.205 54.165 140.205 56.0206C140.205 57.8763 141.709 59.3806 143.565 59.3806Z" fill="#2BF5BA"></path>
<path d="M148.589 70.9579L135.072 69.291L135.385 66.7502C135.845 63.0185 139.246 60.3647 142.977 60.8249C146.709 61.2851 149.363 64.6854 148.903 68.4172L148.589 70.9579Z" fill="#2BF5BA"></path>
</g>
<g id="Vector_32">
<path d="M109.935 86.5056C109.76 86.5056 109.58 86.4706 109.4 86.4056C108.775 86.1606 108.41 85.5506 108.495 84.8856L113.24 46.4006C113.46 44.6156 114.37 43.0156 115.8 41.9006C117.23 40.7856 119 40.2906 120.79 40.5106L158.665 45.1806C162.37 45.6356 165.01 49.0206 164.555 52.7256L162.245 71.4706C161.79 75.1756 158.405 77.8206 154.7 77.3606L122.895 73.4356C121.245 73.2306 119.625 73.9456 118.66 75.3006L111.105 85.8956C110.825 86.2856 110.395 86.5006 109.945 86.5006L109.935 86.5056ZM119.955 40.9656C118.57 40.9656 117.225 41.4256 116.11 42.3006C114.785 43.3356 113.945 44.8156 113.74 46.4706L108.995 84.9556C108.93 85.4906 109.275 85.8256 109.585 85.9456C109.9 86.0656 110.38 86.0556 110.69 85.6156L118.245 75.0206C119.315 73.5206 121.12 72.7256 122.95 72.9506L154.755 76.8756C158.185 77.3006 161.32 74.8506 161.745 71.4206L164.055 52.6756C164.48 49.2456 162.03 46.1106 158.6 45.6856L120.725 41.0156C120.465 40.9856 120.21 40.9656 119.955 40.9656Z" fill="#07064E"></path>
<path d="M109.935 86.5056C109.76 86.5056 109.58 86.4706 109.4 86.4056C108.775 86.1606 108.41 85.5506 108.495 84.8856L113.24 46.4006C113.46 44.6156 114.37 43.0156 115.8 41.9006C117.23 40.7856 119 40.2906 120.79 40.5106L158.665 45.1806C162.37 45.6356 165.01 49.0206 164.555 52.7256L162.245 71.4706C161.79 75.1756 158.405 77.8206 154.7 77.3606L122.895 73.4356C121.245 73.2306 119.625 73.9456 118.66 75.3006L111.105 85.8956C110.825 86.2856 110.395 86.5006 109.945 86.5006L109.935 86.5056ZM119.955 40.9656C118.57 40.9656 117.225 41.4256 116.11 42.3006C114.785 43.3356 113.945 44.8156 113.74 46.4706L108.995 84.9556C108.93 85.4906 109.275 85.8256 109.585 85.9456C109.9 86.0656 110.38 86.0556 110.69 85.6156L118.245 75.0206C119.315 73.5206 121.12 72.7256 122.95 72.9506L154.755 76.8756C158.185 77.3006 161.32 74.8506 161.745 71.4206L164.055 52.6756C164.48 49.2456 162.03 46.1106 158.6 45.6856L120.725 41.0156C120.465 40.9856 120.21 40.9656 119.955 40.9656Z" fill="#07064E"></path>
</g>
</g>
</g>
</g>
</g>
<defs>
<clipPath id="clip0_77_15">
<rect width="200" height="140" fill="white"></rect>
</clipPath>
</defs>
</svg>