<svg width="200" height="140" viewBox="0 0 200 140" fill="none" xmlns="http://www.w3.org/2000/svg">
<g id="illu_spot_add-participants-email/Default" clip-path="url(#clip0_70_5362)">
<g id="illu_spot_add-participants-email">
<g id="background">
<path d="M183.45 10.5096C211.095 29.8396 195.835 95.4546 148.67 125.29C116.53 145.625 57.4251 131.19 41.9601 128.165C5.89509 121.12 -4.10991 97.7996 13.9351 74.6196C40.3351 40.7196 3.54509 61.4246 2.80509 28.9596C2.34509 8.77464 24.6251 2.11464 54.1551 8.07964C122.84 21.9546 156.21 -8.53536 183.45 10.5096Z" fill="#2BF5BA"></path>
<path d="M195.887 120.119C196.904 117.662 194.761 114.442 191.1 112.926C187.438 111.41 183.646 112.173 182.629 114.63C181.611 117.087 183.755 120.308 187.416 121.824C191.077 123.339 194.87 122.576 195.887 120.119Z" fill="#2BF5BA"></path>
<path d="M4.64509 61.6246C4.07009 59.1396 5.97509 56.4646 8.90009 55.6596C11.8301 54.8496 14.6701 56.2146 15.2451 58.6996C15.8201 61.1846 13.9151 63.8596 10.9901 64.6646C8.06009 65.4746 5.22009 64.1096 4.64509 61.6246Z" fill="#2BF5BA"></path>
<path d="M165.966 131.757C167.222 130.817 167.642 129.256 166.905 128.27C166.167 127.284 164.551 127.246 163.295 128.186C162.039 129.125 161.619 130.686 162.357 131.673C163.094 132.659 164.71 132.697 165.966 131.757Z" fill="#2BF5BA"></path>
</g>
<g id="illu_spot_add-participants-email_2">
<g id="stroke">
<g id="Vector">
<path d="M62.35 39.0398C61.485 39.0398 60.785 39.7398 60.785 40.6048C60.785 41.4698 61.485 42.1698 62.35 42.1698L63.92 42.1398V39.0098L62.35 39.0398Z" fill="#2AEDB4"></path>
<path d="M62.35 65.1047C61.485 65.1047 60.785 65.8047 60.785 66.6697C60.785 67.5347 61.485 68.2347 62.35 68.2347L63.89 68.2047V65.0747L62.35 65.1047Z" fill="#2AEDB4"></path>
</g>
<path id="Vector_2" d="M146.19 68.2246H133.455V95.4346H146.19C147.69 95.4346 148.91 94.2196 148.91 92.7146V70.9446C148.91 69.4446 147.695 68.2246 146.19 68.2246Z" fill="#2AEDB4"></path>
<path id="Vector_3" d="M129.14 24.1647H68.24C65.99 24.1647 64.16 25.9897 64.16 28.2447V111.865C64.16 114.115 65.985 115.945 68.24 115.945H129.14C131.39 115.945 133.22 114.12 133.22 111.865V28.2397C133.22 25.9897 131.395 24.1597 129.14 24.1597V24.1647ZM129.505 36.6297V99.6047C129.505 101.855 127.68 103.685 125.425 103.685H71.95C69.7 103.685 67.87 101.86 67.87 99.6047V36.6297V34.5897C67.87 32.3397 69.695 30.5097 71.95 30.5097H125.425C127.675 30.5097 129.505 32.3347 129.505 34.5897V36.6297Z" fill="#2AEDB4"></path>
<path id="Vector_4" d="M67.8751 86.4098V34.5898C67.8751 32.3398 69.7001 30.5098 71.9551 30.5098H125.43C127.68 30.5098 129.51 32.3348 129.51 34.5898V97.5648C129.51 99.8148 127.685 101.645 125.43 101.645H71.9551C69.7051 101.645 67.8751 99.8198 67.8751 97.5648V83.6898" fill="white"></path>
<path id="Vector_5" d="M125.425 30.5098H71.9501C69.7001 30.5098 67.8701 32.3348 67.8701 34.5898V36.6298C67.8701 34.3798 69.6951 32.5498 71.9501 32.5498H125.425C127.675 32.5498 129.505 34.3748 129.505 36.6298V34.5898C129.505 32.3398 127.68 30.5098 125.425 30.5098Z" fill="#EDEDED"></path>
<path id="Vector_6" d="M129.14 22.1245H68.24C65.99 22.1245 64.16 23.9495 64.16 26.2045V109.825C64.16 112.075 65.985 113.905 68.24 113.905H129.14C131.39 113.905 133.22 112.08 133.22 109.825V26.2045C133.22 23.9545 131.395 22.1245 129.14 22.1245ZM129.505 97.5645C129.505 99.8145 127.68 101.645 125.425 101.645H71.95C69.7 101.645 67.87 99.8195 67.87 97.5645V34.5895C67.87 32.3395 69.695 30.5095 71.95 30.5095H125.425C127.675 30.5095 129.505 32.3345 129.505 34.5895V97.5645Z" fill="#EDEDED"></path>
<path id="Vector_7" d="M129.14 114.145H68.24C65.86 114.145 63.92 112.21 63.92 109.825V26.2048C63.92 23.8248 65.855 21.8848 68.24 21.8848H129.14C131.52 21.8848 133.46 23.8198 133.46 26.2048V109.825C133.46 112.205 131.525 114.145 129.14 114.145ZM64.4 109.825C64.4 111.94 66.12 113.665 68.24 113.665H129.14C131.255 113.665 132.98 111.945 132.98 109.825V26.2048C132.98 24.0898 131.26 22.3648 129.14 22.3648H68.24C66.125 22.3648 64.4 24.0848 64.4 26.2048" fill="#07064E"></path>
<path id="Vector_8" d="M98.6901 111.484C100.532 111.484 102.025 109.991 102.025 108.149C102.025 106.308 100.532 104.814 98.6901 104.814C96.8482 104.814 95.3551 106.308 95.3551 108.149C95.3551 109.991 96.8482 111.484 98.6901 111.484Z" fill="white"></path>
<path id="Vector_9" d="M98.6651 111.72C96.9051 111.72 95.4201 110.46 95.1401 108.725C95.1201 108.595 95.2051 108.47 95.3401 108.45C95.4701 108.43 95.5951 108.515 95.6151 108.65C95.8601 110.15 97.1451 111.24 98.6651 111.24C100.37 111.24 101.76 109.855 101.76 108.145C101.76 106.435 100.375 105.05 98.6651 105.05C97.6051 105.05 96.6301 105.585 96.0601 106.48C95.9901 106.59 95.8401 106.625 95.7301 106.555C95.6201 106.485 95.5851 106.335 95.6551 106.225C96.3151 105.19 97.4401 104.575 98.6651 104.575C100.635 104.575 102.235 106.18 102.235 108.145C102.235 110.11 100.63 111.715 98.6651 111.715V111.72Z" fill="#07064E"></path>
<path id="Vector_10" d="M105.795 26.9596H102.22C102.085 26.9596 101.98 26.8496 101.98 26.7146C101.98 26.5796 102.085 26.4746 102.22 26.4746H105.795C105.93 26.4746 106.035 26.5846 106.035 26.7196C106.035 26.8546 105.93 26.9596 105.795 26.9596Z" fill="white"></path>
<path id="Vector_11" d="M99.8851 26.9595H91.5801C91.4501 26.9595 91.3401 26.8545 91.3401 26.7195C91.3401 26.5845 91.4451 26.4795 91.5801 26.4795H99.8851C100.015 26.4795 100.125 26.5845 100.125 26.7195C100.125 26.8545 100.02 26.9595 99.8851 26.9595Z" fill="#07064E"></path>
<g id="Vector_12">
<path d="M112.23 44.0347H76.09C75.3086 44.0347 74.675 44.6682 74.675 45.4497V48.6147C74.675 49.3962 75.3086 50.0297 76.09 50.0297H112.23C113.012 50.0297 113.645 49.3962 113.645 48.6147V45.4497C113.645 44.6682 113.012 44.0347 112.23 44.0347Z" fill="#EDEDED"></path>
<path d="M118.78 49.6348C120.219 49.6348 121.385 48.4685 121.385 47.0298C121.385 45.5911 120.219 44.4248 118.78 44.4248C117.341 44.4248 116.175 45.5911 116.175 47.0298C116.175 48.4685 117.341 49.6348 118.78 49.6348Z" fill="#EDEDED"></path>
<path d="M112.23 57.6396H76.09C75.3086 57.6396 74.675 58.2732 74.675 59.0546V62.2197C74.675 63.0011 75.3086 63.6346 76.09 63.6346H112.23C113.012 63.6346 113.645 63.0011 113.645 62.2197V59.0546C113.645 58.2732 113.012 57.6396 112.23 57.6396Z" fill="#EDEDED"></path>
<path d="M118.78 63.2398C120.219 63.2398 121.385 62.0735 121.385 60.6348C121.385 59.1961 120.219 58.0298 118.78 58.0298C117.341 58.0298 116.175 59.1961 116.175 60.6348C116.175 62.0735 117.341 63.2398 118.78 63.2398Z" fill="#EDEDED"></path>
<path d="M112.23 71.2451H76.0901C75.3086 71.2451 74.6751 71.8786 74.6751 72.6601V75.8251C74.6751 76.6066 75.3086 77.2401 76.0901 77.2401H112.23C113.012 77.2401 113.645 76.6066 113.645 75.8251V72.6601C113.645 71.8786 113.012 71.2451 112.23 71.2451Z" fill="#EDEDED"></path>
<path d="M112.23 84.845H76.0901C75.3086 84.845 74.6751 85.4785 74.6751 86.26V89.425C74.6751 90.2064 75.3086 90.84 76.0901 90.84H112.23C113.012 90.84 113.645 90.2064 113.645 89.425V86.26C113.645 85.4785 113.012 84.845 112.23 84.845Z" fill="#EDEDED"></path>
</g>
<g id="Vector_13">
<path d="M118.78 48.2745C120.219 48.2745 121.385 47.1082 121.385 45.6695C121.385 44.2308 120.219 43.0645 118.78 43.0645C117.341 43.0645 116.175 44.2308 116.175 45.6695C116.175 47.1082 117.341 48.2745 118.78 48.2745Z" fill="#07064E"></path>
<path d="M118.78 61.8794C120.219 61.8794 121.385 60.7131 121.385 59.2744C121.385 57.8357 120.219 56.6694 118.78 56.6694C117.341 56.6694 116.175 57.8357 116.175 59.2744C116.175 60.7131 117.341 61.8794 118.78 61.8794Z" fill="#07064E"></path>
</g>
<g id="Vector_14">
<path d="M112.23 42.6748H76.09C75.3086 42.6748 74.675 43.3083 74.675 44.0898V47.2548C74.675 48.0363 75.3086 48.6698 76.09 48.6698H112.23C113.012 48.6698 113.645 48.0363 113.645 47.2548V44.0898C113.645 43.3083 113.012 42.6748 112.23 42.6748Z" fill="#2BF5BA"></path>
<path d="M112.23 56.2798H76.09C75.3086 56.2798 74.675 56.9133 74.675 57.6948V60.8598C74.675 61.6413 75.3086 62.2748 76.09 62.2748H112.23C113.012 62.2748 113.645 61.6413 113.645 60.8598V57.6948C113.645 56.9133 113.012 56.2798 112.23 56.2798Z" fill="#2BF5BA"></path>
<path d="M112.23 69.885H76.0901C75.3086 69.885 74.6751 70.5185 74.6751 71.3V74.465C74.6751 75.2465 75.3086 75.88 76.0901 75.88H112.23C113.012 75.88 113.645 75.2465 113.645 74.465V71.3C113.645 70.5185 113.012 69.885 112.23 69.885Z" fill="#2BF5BA"></path>
<path d="M112.23 83.49H76.0901C75.3086 83.49 74.6751 84.1235 74.6751 84.905V88.07C74.6751 88.8515 75.3086 89.485 76.0901 89.485H112.23C113.012 89.485 113.645 88.8515 113.645 88.07V84.905C113.645 84.1235 113.012 83.49 112.23 83.49Z" fill="#2BF5BA"></path>
</g>
<path id="Vector_15" d="M100.29 70.9446V92.7146C100.29 94.2146 101.505 95.4346 103.01 95.4346H129.265V68.2246H103.01C101.51 68.2246 100.29 69.4396 100.29 70.9446Z" fill="#EDEDED"></path>
<path id="Vector_16" d="M132.98 68.2246H129.745V95.4346H132.98V68.2246Z" fill="#DDDDDD"></path>
<path id="Vector_17" d="M55.4951 50.0444L57.6151 47.9244C58.3001 47.2394 58.3001 46.1294 57.6151 45.4444C56.9301 44.7594 55.8201 44.7594 55.1351 45.4444L49.6351 50.9444C49.4751 51.0844 49.3201 51.2344 49.1651 51.4144C49.0651 51.5144 48.9751 51.6344 48.8951 51.7744C48.4551 52.4344 48.2201 53.2044 48.2201 54.0044V58.5744C48.2201 60.4094 49.4901 62.0794 51.2401 62.5344C51.4301 62.5844 51.6001 62.6094 51.8001 62.6094H60.9851C61.8001 62.6094 62.4601 61.8244 62.4601 60.8544C62.4601 60.2094 62.1701 59.6494 61.7351 59.3444C62.1701 59.0394 62.4601 58.4794 62.4601 57.8344C62.4601 57.1894 62.1701 56.6294 61.7351 56.3244C62.1701 56.0194 62.4601 55.4594 62.4601 54.8144C62.4601 54.3194 62.2851 53.8694 62.0001 53.5494H63.9151V50.0444H55.4901H55.4951Z" fill="#2AEDB4"></path>
<path id="Vector_18" d="M67.635 50.0444H64.4V53.5494H67.635V50.0444Z" fill="#DDDDDD"></path>
<path id="Vector_19" d="M68.2951 53.5494C69.2601 53.5494 70.0451 52.7644 70.0451 51.7994C70.0451 50.8344 69.2601 50.0444 68.2951 50.0444H68.1151V53.5494H68.2951Z" fill="#EDEDED"></path>
<path id="Vector_20" d="M125.425 30.2695H71.95C69.57 30.2695 67.63 32.2045 67.63 34.5895V50.0445H68.11V34.5895C68.11 32.4745 69.83 30.7495 71.95 30.7495H125.425C127.54 30.7495 129.265 32.4695 129.265 34.5895V97.5645C129.265 99.6795 127.545 101.405 125.425 101.405H71.95C69.835 101.405 68.11 99.6845 68.11 97.5645V53.5445H67.63V97.5645C67.63 99.9445 69.565 101.885 71.95 101.885H125.425C127.805 101.885 129.74 99.9495 129.74 97.5645V34.5895C129.74 32.2095 127.805 30.2695 125.425 30.2695Z" fill="#07064E"></path>
<path id="Vector_21" d="M67.6301 39.3047H64.4102V42.4347H67.6301V39.3047Z" fill="#DDDDDD"></path>
<path id="Vector_22" d="M79.2801 42.4244C79.8801 42.4244 80.3651 42.9094 80.3651 43.5094V64.0194C80.3651 64.6194 79.8801 65.1044 79.2801 65.1044L68.1151 65.1194V68.2494L81.6551 68.2344C82.5201 68.2344 83.2201 67.5344 83.2201 66.6694V40.8594C83.2201 39.9944 82.5201 39.2944 81.6551 39.2944L68.1151 39.3044V42.4344L79.2801 42.4244Z" fill="#EDEDED"></path>
<path id="Vector_23" d="M64.4001 65.1246V68.2546L67.6351 68.2496V65.1196L64.4001 65.1246Z" fill="#DDDDDD"></path>
<path id="Vector_24" d="M125.425 101.885H71.9501C69.5701 101.885 67.6301 99.9495 67.6301 97.5645V34.5895C67.6301 32.2095 69.5651 30.2695 71.9501 30.2695H125.425C127.805 30.2695 129.74 32.2045 129.74 34.5895V97.5645C129.74 99.9445 127.805 101.885 125.425 101.885ZM71.9501 30.7495C69.8351 30.7495 68.1101 32.4695 68.1101 34.5895V97.5645C68.1101 99.6795 69.8301 101.405 71.9501 101.405H125.425C127.54 101.405 129.265 99.6845 129.265 97.5645V34.5895C129.265 32.4745 127.545 30.7495 125.425 30.7495H71.9501Z" fill="#07064E"></path>
<path id="Vector_25" d="M61.025 39.5047C61.025 40.2347 61.62 40.8297 62.35 40.8297H79.275C80.005 40.8297 80.6 41.4247 80.6 42.1547V62.6647C80.6 63.3947 80.005 63.9897 79.275 63.9897H62.35C61.62 63.9897 61.025 64.5847 61.025 65.3147C61.025 66.0447 61.62 66.6397 62.35 66.6397H81.655C82.385 66.6397 82.98 66.0447 82.98 65.3147V39.5047C82.98 38.7747 82.385 38.1797 81.655 38.1797H62.35C61.62 38.1797 61.025 38.7747 61.025 39.5047Z" fill="white"></path>
<path id="Vector_26" d="M81.655 66.8795H62.35C61.485 66.8795 60.785 66.1795 60.785 65.3145C60.785 64.4495 61.485 63.7495 62.35 63.7495H79.28C79.88 63.7495 80.365 63.2645 80.365 62.6645V42.1545C80.365 41.5545 79.88 41.0695 79.28 41.0695H62.35C61.485 41.0695 60.785 40.3695 60.785 39.5045C60.785 38.6395 61.485 37.9395 62.35 37.9395H81.655C82.52 37.9395 83.22 38.6395 83.22 39.5045V65.3145C83.22 66.1795 82.52 66.8795 81.655 66.8795ZM62.35 64.2245C61.75 64.2245 61.265 64.7095 61.265 65.3095C61.265 65.9095 61.75 66.3945 62.35 66.3945H81.655C82.255 66.3945 82.74 65.9095 82.74 65.3095V39.4995C82.74 38.8995 82.255 38.4145 81.655 38.4145H62.35C61.75 38.4145 61.265 38.8995 61.265 39.4995C61.265 40.0995 61.75 40.5845 62.35 40.5845H79.28C80.145 40.5845 80.845 41.2845 80.845 42.1495V62.6595C80.845 63.5245 80.145 64.2245 79.28 64.2245H62.35Z" fill="#07064E"></path>
<path id="Vector_27" d="M146.19 66.8647H103.01C101.508 66.8647 100.29 68.0825 100.29 69.5847V91.3548C100.29 92.857 101.508 94.0747 103.01 94.0747H146.19C147.692 94.0747 148.91 92.857 148.91 91.3548V69.5847C148.91 68.0825 147.692 66.8647 146.19 66.8647Z" fill="white"></path>
<path id="Vector_28" d="M148.91 71.2796C148.91 69.5896 147.54 68.2246 145.855 68.2246H103.35C101.66 68.2246 100.295 69.5946 100.295 71.2796V72.3446V72.3796L120.13 88.4796C122.795 90.6396 126.61 90.6446 129.275 88.4796L148.92 72.5596V71.2696L148.91 71.2796Z" fill="#EDEDED"></path>
<path id="Vector_29" d="M148.91 69.9197C148.91 68.2297 147.54 66.8647 145.855 66.8647H103.35C101.66 66.8647 100.295 68.2347 100.295 69.9197V70.9847V71.0197L120.13 87.1198C122.795 89.2798 126.61 89.2848 129.275 87.1198L148.92 71.1997V69.9098L148.91 69.9197Z" fill="white"></path>
<g id="Vector_30">
<path d="M146.19 94.315H103.01C101.38 94.315 100.05 92.99 100.05 91.355V69.585C100.05 67.955 101.375 66.625 103.01 66.625H146.19C147.82 66.625 149.15 67.95 149.15 69.585V91.355C149.15 92.985 147.825 94.315 146.19 94.315ZM103.01 67.105C101.645 67.105 100.53 68.215 100.53 69.585V91.355C100.53 92.72 101.64 93.835 103.01 93.835H146.19C147.555 93.835 148.67 92.725 148.67 91.355V69.585C148.67 68.22 147.56 67.105 146.19 67.105H103.01Z" fill="#07064E"></path>
<path d="M124.7 88.9749C123.02 88.9749 121.345 88.4199 119.975 87.3099L100.195 71.2549C100.09 71.1699 100.075 71.0199 100.16 70.9199C100.245 70.8199 100.395 70.7999 100.495 70.8849L120.275 86.9399C122.835 89.0199 126.555 89.0199 129.115 86.9399L148.72 71.0549C148.825 70.9699 148.975 70.9849 149.055 71.0899C149.14 71.1949 149.12 71.3449 149.02 71.4249L129.415 87.3099C128.045 88.4199 126.37 88.9749 124.695 88.9749H124.7Z" fill="#07064E"></path>
</g>
<path id="Vector_31" d="M60.9901 61.0043C61.6701 61.0043 62.2251 60.3293 62.2251 59.4893C62.2251 58.6643 61.6901 57.9993 61.0201 57.9793C61.6901 57.9593 62.2251 57.2943 62.2251 56.4693C62.2251 55.6443 61.6901 54.9793 61.0201 54.9593C61.6901 54.9393 62.2251 54.2743 62.2251 53.4493C62.2251 52.6243 61.7051 51.9843 61.0501 51.9443H68.2901C69.1251 51.9443 69.8051 51.2693 69.8051 50.4293C69.8051 49.5943 69.1301 48.9143 68.2901 48.9143H54.9151L57.4451 46.3843C58.0351 45.7943 58.0351 44.8343 57.4451 44.2443C56.8551 43.6543 55.8951 43.6543 55.3051 44.2443L49.7901 49.7593C49.6351 49.8893 49.4951 50.0343 49.3651 50.1843L49.3351 50.2143C49.2351 50.3143 49.1601 50.4243 49.0951 50.5343C48.6951 51.1343 48.4601 51.8543 48.4601 52.6293V57.1993C48.4601 58.9543 49.6851 60.5043 51.3051 60.9293C51.4651 60.9743 51.6151 60.9943 51.8001 60.9943H60.9851L60.9901 61.0043Z" fill="white"></path>
<path id="Vector_32" d="M60.9901 61.2447H51.8051C51.6051 61.2447 51.4351 61.2197 51.2451 61.1697C49.4951 60.7097 48.2251 59.0447 48.2251 57.2097V52.6397C48.2251 51.8447 48.4601 51.0747 48.9001 50.4097C48.9801 50.2697 49.0651 50.1547 49.1701 50.0497C49.3251 49.8697 49.4801 49.7197 49.6401 49.5797L55.1401 44.0797C55.8251 43.3947 56.9351 43.3947 57.6201 44.0797C58.3051 44.7647 58.3051 45.8747 57.6201 46.5597L55.5001 48.6797H68.2951C69.2601 48.6797 70.0451 49.4647 70.0451 50.4347C70.0451 51.4047 69.2601 52.1847 68.2951 52.1847H62.0101C62.2951 52.5047 62.4701 52.9547 62.4701 53.4497C62.4701 54.0947 62.1801 54.6547 61.7451 54.9597C62.1801 55.2647 62.4701 55.8247 62.4701 56.4697C62.4701 57.1147 62.1801 57.6747 61.7451 57.9797C62.1801 58.2847 62.4701 58.8447 62.4701 59.4897C62.4701 60.4547 61.8101 61.2447 60.9951 61.2447H60.9901ZM56.3751 44.0497C56.0501 44.0497 55.7251 44.1747 55.4751 44.4197L49.9651 49.9347C49.8101 50.0697 49.6751 50.2047 49.5501 50.3497C49.5501 50.3497 49.5101 50.3897 49.5051 50.3947C49.4351 50.4647 49.3701 50.5497 49.3051 50.6647C48.9101 51.2597 48.7001 51.9397 48.7001 52.6397V57.2097C48.7001 58.8347 49.8201 60.3047 51.3651 60.7097C51.5151 60.7497 51.6451 60.7647 51.8001 60.7647H60.9851C61.5351 60.7647 61.9801 60.1947 61.9801 59.4897C61.9801 58.7847 61.5451 58.2347 61.0051 58.2197C60.8751 58.2197 60.7751 58.1097 60.7751 57.9797C60.7751 57.8497 60.8801 57.7447 61.0051 57.7397C61.5401 57.7247 61.9801 57.1547 61.9801 56.4697C61.9801 55.7847 61.5451 55.2147 61.0051 55.1997C60.8751 55.1997 60.7751 55.0897 60.7751 54.9597C60.7751 54.8297 60.8801 54.7247 61.0051 54.7197C61.5401 54.7047 61.9801 54.1347 61.9801 53.4497C61.9801 52.7647 61.5651 52.2147 61.0301 52.1847C60.9001 52.1747 60.8001 52.0697 60.8051 51.9397C60.8101 51.8097 60.9151 51.7047 61.0451 51.7047H68.2851C68.9851 51.7047 69.5601 51.1347 69.5601 50.4297C69.5601 49.7247 68.9901 49.1547 68.2851 49.1547H54.9101C54.8151 49.1547 54.7251 49.0947 54.6901 49.0047C54.6551 48.9147 54.6751 48.8097 54.7401 48.7447L57.2701 46.2147C57.5101 45.9747 57.6451 45.6547 57.6451 45.3147C57.6451 44.9747 57.5151 44.6547 57.2701 44.4147C57.0201 44.1647 56.6951 44.0447 56.3701 44.0447L56.3751 44.0497Z" fill="#07064E"></path>
</g>
</g>
</g>
</g>
<defs>
<clipPath id="clip0_70_5362">
<rect width="200" height="140" fill="white"></rect>
</clipPath>
</defs>
</svg>