<svg width="200" height="140" viewBox="0 0 200 140" fill="none" xmlns="http://www.w3.org/2000/svg">
<g id="illu_spot_chat-none/Default" clip-path="url(#clip0_70_4797)">
<g id="illu_spot_chat-none">
<g id="background">
<path d="M12.46 29.9099C6.30003 29.8249 1.70503 25.6549 2.19003 20.5999C2.67503 15.5449 8.06503 11.5199 14.225 11.6049C20.385 11.6899 24.98 15.8599 24.495 20.9149C24.01 25.9699 18.62 29.9949 12.46 29.9099Z" fill="#2BF5BA"></path>
<path d="M188.64 57.1249C192.164 57.1249 195.02 54.2685 195.02 50.7449C195.02 47.2214 192.164 44.3649 188.64 44.3649C185.116 44.3649 182.26 47.2214 182.26 50.7449C182.26 54.2685 185.116 57.1249 188.64 57.1249Z" fill="#2BF5BA"></path>
<path d="M190.28 35.4199C191.68 35.4199 192.815 34.285 192.815 32.8849C192.815 31.4849 191.68 30.3499 190.28 30.3499C188.88 30.3499 187.745 31.4849 187.745 32.8849C187.745 34.285 188.88 35.4199 190.28 35.4199Z" fill="#2BF5BA"></path>
<path d="M28.71 8.11494C27.985 9.52494 26.15 10.1349 24.61 9.47494C23.07 8.81494 22.405 7.13994 23.13 5.72994C23.855 4.31994 25.69 3.70994 27.23 4.36994C28.77 5.02994 29.435 6.70494 28.71 8.11494Z" fill="#2BF5BA"></path>
<path d="M38.66 134.695C0.285027 126.165 -3.40997 74.9449 16.575 40.9549C42.33 -2.84506 96.04 1.26494 124.73 4.20994C157.54 7.57494 183.82 8.73494 178.965 36.3449C172.705 71.9549 196.65 57.3149 197.825 92.4199C198.46 111.33 181.84 125.365 151.18 126.815C74.255 130.455 75.825 142.955 38.655 134.695H38.66Z" fill="#2BF5BA"></path>
</g>
<g id="illu_spot_chat-none_2">
<g id="stroke">
<path id="Vector" d="M132.31 118.215H72.14C69.915 118.215 68.11 116.41 68.11 114.185V117.535C68.11 119.76 69.915 121.565 72.14 121.565H132.31C134.535 121.565 136.34 119.76 136.34 117.535V114.19C136.34 116.415 134.535 118.215 132.31 118.215Z" fill="#2AEDB4"></path>
<path id="Vector_2" d="M71.78 91.0501V39.8501C71.78 37.6251 73.585 35.8201 75.81 35.8201H128.645C130.87 35.8201 132.675 37.6251 132.675 39.8501V102.07C132.675 104.295 130.87 106.1 128.645 106.1H75.81C73.585 106.1 71.78 104.295 71.78 102.07V88.3601" fill="white"></path>
<path id="Vector_3" d="M132.31 27.5402H72.14C69.915 27.5402 68.11 29.3452 68.11 31.5702V114.19C68.11 116.415 69.915 118.22 72.14 118.22H132.31C134.535 118.22 136.34 116.415 136.34 114.19V31.5652C136.34 29.3402 134.535 27.5352 132.31 27.5352V27.5402ZM132.67 102.075C132.67 104.3 130.865 106.105 128.64 106.105H75.805C73.58 106.105 71.775 104.3 71.775 102.075V39.8552C71.775 37.6302 73.58 35.8252 75.805 35.8252H128.64C130.865 35.8252 132.67 37.6302 132.67 39.8552V102.075Z" fill="#EDEDED"></path>
<path id="Vector_4" d="M132.31 118.465H72.14C69.78 118.465 67.86 116.545 67.86 114.185V31.5652C67.86 29.2052 69.78 27.2852 72.14 27.2852H132.31C134.67 27.2852 136.59 29.2052 136.59 31.5652V114.185C136.59 116.545 134.67 118.465 132.31 118.465ZM72.14 27.7902C70.055 27.7902 68.36 29.4852 68.36 31.5702V114.19C68.36 116.275 70.055 117.97 72.14 117.97H132.31C134.395 117.97 136.09 116.275 136.09 114.19V31.5652C136.09 29.4802 134.395 27.7852 132.31 27.7852H72.14V27.7902Z" fill="#07064E"></path>
<path id="Vector_5" d="M102.225 115.825C104.045 115.825 105.52 114.35 105.52 112.53C105.52 110.71 104.045 109.235 102.225 109.235C100.405 109.235 98.9301 110.71 98.9301 112.53C98.9301 114.35 100.405 115.825 102.225 115.825Z" fill="white"></path>
<path id="Vector_6" d="M102.205 116.075C100.46 116.075 98.9901 114.825 98.7101 113.105C98.6901 112.97 98.7801 112.84 98.9151 112.82C99.0501 112.8 99.1801 112.89 99.2001 113.025C99.4401 114.5 100.705 115.575 102.205 115.575C103.885 115.575 105.25 114.21 105.25 112.53C105.25 110.85 103.885 109.49 102.205 109.49C101.16 109.49 100.205 110.015 99.6401 110.895C99.5651 111.01 99.4101 111.045 99.2951 110.97C99.1801 110.895 99.1451 110.74 99.2201 110.625C99.8751 109.6 100.99 108.99 102.205 108.99C104.16 108.99 105.75 110.58 105.75 112.53C105.75 114.48 104.16 116.075 102.205 116.075Z" fill="#07064E"></path>
<path id="Vector_7" d="M109.245 32.3251H105.715C105.575 32.3251 105.465 32.2101 105.465 32.0701C105.465 31.9301 105.575 31.8201 105.715 31.8201H109.245C109.385 31.8201 109.495 31.9351 109.495 32.0751C109.495 32.2151 109.385 32.3251 109.245 32.3251Z" fill="white"></path>
<path id="Vector_8" d="M103.41 32.3252H95.205C95.065 32.3252 94.955 32.2152 94.955 32.0752C94.955 31.9352 95.065 31.8252 95.205 31.8252H103.41C103.55 31.8252 103.66 31.9352 103.66 32.0752C103.66 32.2152 103.55 32.3252 103.41 32.3252Z" fill="#07064E"></path>
<path id="Vector_9" d="M128.645 35.8201H75.81C73.585 35.8201 71.78 37.6251 71.78 39.8501V102.07V93.1751V41.9751C71.78 39.7501 73.585 37.9451 75.81 37.9451H128.645C130.87 37.9451 132.675 39.7501 132.675 41.9751V102.075V39.8551C132.675 37.6301 130.87 35.8251 128.645 35.8251V35.8201Z" fill="#EDEDED"></path>
<path id="Vector_10" d="M128.645 106.355H75.81C73.45 106.355 71.53 104.435 71.53 102.075V39.8552C71.53 37.4952 73.45 35.5752 75.81 35.5752H128.645C131.005 35.5752 132.925 37.4952 132.925 39.8552V102.075C132.925 104.435 131.005 106.355 128.645 106.355ZM75.81 36.0702C73.725 36.0702 72.03 37.7652 72.03 39.8502V102.07C72.03 104.155 73.725 105.85 75.81 105.85H128.645C130.73 105.85 132.425 104.155 132.425 102.07V39.8502C132.425 37.7652 130.73 36.0702 128.645 36.0702H75.81Z" fill="#07064E"></path>
<g id="Vector_11">
<path d="M110.06 83.9601H79.545C77.6368 83.9601 76.09 85.507 76.09 87.4151V91.3301C76.09 93.2383 77.6368 94.7851 79.545 94.7851H110.06C111.968 94.7851 113.515 93.2383 113.515 91.3301V87.4151C113.515 85.507 111.968 83.9601 110.06 83.9601Z" fill="#F5F5F5"></path>
<path d="M122.69 94.7901C125.681 94.7901 128.105 92.3657 128.105 89.3751C128.105 86.3845 125.681 83.9601 122.69 83.9601C119.699 83.9601 117.275 86.3845 117.275 89.3751C117.275 92.3657 119.699 94.7901 122.69 94.7901Z" fill="#F5F5F5"></path>
<path d="M94.135 76.9901H124.65C126.558 76.9901 128.105 75.4433 128.105 73.5351V69.6201C128.105 67.712 126.558 66.1651 124.65 66.1651H94.135C92.2268 66.1651 90.68 67.712 90.68 69.6201V73.5351C90.68 75.4433 92.2268 76.9901 94.135 76.9901Z" fill="#F5F5F5"></path>
<path d="M81.5 76.9901C84.4906 76.9901 86.915 74.5657 86.915 71.5751C86.915 68.5845 84.4906 66.1601 81.5 66.1601C78.5093 66.1601 76.085 68.5845 76.085 71.5751C76.085 74.5657 78.5093 76.9901 81.5 76.9901Z" fill="#F5F5F5"></path>
<path d="M110.06 48.3601H79.545C77.6368 48.3601 76.09 49.907 76.09 51.8151V55.7301C76.09 57.6383 77.6368 59.1851 79.545 59.1851H110.06C111.968 59.1851 113.515 57.6383 113.515 55.7301V51.8151C113.515 49.907 111.968 48.3601 110.06 48.3601Z" fill="#F5F5F5"></path>
</g>
<path id="Vector_12" d="M161.605 47.86L136.59 44.095V80.025L156.32 82.995C160.265 83.59 163.98 80.845 164.575 76.9L167.7 56.115C168.295 52.17 165.55 48.455 161.605 47.86Z" fill="#2AEDB4"></path>
<path id="Vector_13" d="M111.345 47.6402L110.64 52.3252L107.14 75.6002L104.925 90.3152C104.72 91.6752 106.465 92.4052 107.295 91.3102L116.015 79.7452C117.19 78.1902 119.12 77.4002 121.045 77.6902L136.09 79.9552V44.0252L119.6 41.5452C115.655 40.9502 111.94 43.6952 111.345 47.6402Z" fill="#DDDDDD"></path>
<path id="Vector_14" d="M72.1399 27.29H88.1699C86.9199 24.3 83.7499 22.4 80.4099 22.9L38.3999 29.18C34.4549 29.77 31.7099 33.48 32.2999 37.43L35.4099 58.22C35.9999 62.165 39.7099 64.91 43.6599 64.32L67.8649 60.7V31.565C67.8649 29.205 69.7849 27.285 72.1449 27.285L72.1399 27.29Z" fill="#2AEDB4"></path>
<path id="Vector_15" d="M68.36 31.565V60.625L78.93 59.045C80.855 58.755 82.79 59.545 83.96 61.105L92.67 72.675C93.495 73.775 95.24 73.04 95.04 71.68L92.84 56.96L89.36 33.68L88.66 28.995C88.595 28.575 88.49 28.17 88.36 27.78H72.14C70.055 27.78 68.36 29.475 68.36 31.56V31.565Z" fill="#DDDDDD"></path>
<path id="Vector_16" d="M132.31 118.465H72.14C69.78 118.465 67.86 116.545 67.86 114.185V31.5652C67.86 29.2052 69.78 27.2852 72.14 27.2852H132.31C134.67 27.2852 136.59 29.2052 136.59 31.5652V114.185C136.59 116.545 134.67 118.465 132.31 118.465ZM72.14 27.7902C70.055 27.7902 68.36 29.4852 68.36 31.5702V114.19C68.36 116.275 70.055 117.97 72.14 117.97H132.31C134.395 117.97 136.09 116.275 136.09 114.19V31.5652C136.09 29.4802 134.395 27.7852 132.31 27.7852H72.14V27.7902Z" fill="#07064E"></path>
<path id="Vector_17" d="M128.645 106.355H75.81C73.45 106.355 71.53 104.435 71.53 102.075V39.8552C71.53 37.4952 73.45 35.5752 75.81 35.5752H128.645C131.005 35.5752 132.925 37.4952 132.925 39.8552V102.075C132.925 104.435 131.005 106.355 128.645 106.355ZM75.81 36.0702C73.725 36.0702 72.03 37.7652 72.03 39.8502V102.07C72.03 104.155 73.725 105.85 75.81 105.85H128.645C130.73 105.85 132.425 104.155 132.425 102.07V39.8502C132.425 37.7652 130.73 36.0702 128.645 36.0702H75.81Z" fill="#07064E"></path>
<path id="Vector_18" d="M38.4049 27.0551L80.4149 20.7751C84.3599 20.1851 88.0749 22.9301 88.6649 26.8751L89.3649 31.5601L92.8449 54.8401L95.0449 69.5601C95.2499 70.9201 93.5049 71.6501 92.6749 70.5551L83.9649 58.9851C82.7949 57.4301 80.8649 56.6351 78.9349 56.9251L43.6599 62.2001C39.7149 62.7901 35.9999 60.0451 35.4099 56.1001L32.2999 35.3101C31.7099 31.3651 34.4549 27.6501 38.3999 27.0601L38.4049 27.0551Z" fill="white"></path>
<g id="Vector_19">
<path d="M44.885 37.6852C44.77 37.6852 44.665 37.6002 44.65 37.4802C44.63 37.3502 44.72 37.2252 44.85 37.2102L77.22 32.3702C77.35 32.3502 77.475 32.4402 77.49 32.5702C77.51 32.7002 77.42 32.8252 77.29 32.8402L44.92 37.6802C44.92 37.6802 44.895 37.6802 44.885 37.6802V37.6852Z" fill="#07064E"></path>
<path d="M45.77 43.6352C45.655 43.6352 45.55 43.5502 45.535 43.4302C45.515 43.3002 45.605 43.1752 45.735 43.1602L63.66 40.4802C63.795 40.4602 63.915 40.5502 63.93 40.6802C63.95 40.8102 63.86 40.9352 63.73 40.9502L45.805 43.6302C45.805 43.6302 45.78 43.6302 45.77 43.6302V43.6352Z" fill="#07064E"></path>
<path d="M46.66 49.5802C46.545 49.5802 46.44 49.4952 46.425 49.3752C46.405 49.2452 46.495 49.1202 46.625 49.1052L67.74 45.9502C67.87 45.9302 67.995 46.0202 68.01 46.1502C68.03 46.2802 67.94 46.4052 67.81 46.4202L46.695 49.5752C46.695 49.5752 46.67 49.5752 46.66 49.5752V49.5802Z" fill="#07064E"></path>
</g>
<path id="Vector_20" d="M71.76 45.8402C71.64 45.8402 71.53 45.7502 71.515 45.6252C71.495 45.4902 71.59 45.3602 71.725 45.3402L75.8 44.7302C75.935 44.7102 76.065 44.8052 76.085 44.9402C76.105 45.0752 76.01 45.2052 75.875 45.2252L71.8 45.8352C71.8 45.8352 71.775 45.8352 71.765 45.8352L71.76 45.8402Z" fill="#2BF5BA"></path>
<g id="Vector_21">
<path d="M93.72 71.3351C93.24 71.3351 92.78 71.1151 92.475 70.7051L83.765 59.1351C82.645 57.6501 80.81 56.9001 78.97 57.1751L43.695 62.4501C39.605 63.0651 35.775 60.2301 35.165 56.1351L32.055 35.3451C31.445 31.2501 34.275 27.4251 38.37 26.8151L80.38 20.5351C84.475 19.9251 88.3 22.7551 88.91 26.8501L95.29 69.5301C95.4 70.2551 95.015 70.9301 94.34 71.2151C94.135 71.3001 93.925 71.3401 93.72 71.3401V71.3351ZM79.72 56.6101C81.45 56.6101 83.1 57.4201 84.16 58.8301L92.87 70.4001C93.24 70.8951 93.79 70.8951 94.145 70.7451C94.5 70.5951 94.885 70.2051 94.79 69.5951L88.41 26.9101C87.84 23.0901 84.265 20.4451 80.445 21.0201L38.435 27.3001C34.615 27.8701 31.97 31.4451 32.545 35.2651L35.655 56.0551C36.225 59.8751 39.8 62.5151 43.62 61.9451L78.895 56.6701C79.17 56.6301 79.445 56.6101 79.72 56.6101Z" fill="#07064E"></path>
<path d="M93.72 71.3351C93.24 71.3351 92.78 71.1151 92.475 70.7051L83.765 59.1351C82.645 57.6501 80.81 56.9001 78.97 57.1751L43.695 62.4501C39.605 63.0651 35.775 60.2301 35.165 56.1351L32.055 35.3451C31.445 31.2501 34.275 27.4251 38.37 26.8151L80.38 20.5351C84.475 19.9251 88.3 22.7551 88.91 26.8501L95.29 69.5301C95.4 70.2551 95.015 70.9301 94.34 71.2151C94.135 71.3001 93.925 71.3401 93.72 71.3401V71.3351ZM79.72 56.6101C81.45 56.6101 83.1 57.4201 84.16 58.8301L92.87 70.4001C93.24 70.8951 93.79 70.8951 94.145 70.7451C94.5 70.5951 94.885 70.2051 94.79 69.5951L88.41 26.9101C87.84 23.0901 84.265 20.4451 80.445 21.0201L38.435 27.3001C34.615 27.8701 31.97 31.4451 32.545 35.2651L35.655 56.0551C36.225 59.8751 39.8 62.5151 43.62 61.9451L78.895 56.6701C79.17 56.6301 79.445 56.6101 79.72 56.6101Z" fill="#07064E"></path>
</g>
<path id="Vector_22" d="M161.605 45.7351L119.6 39.4151C115.655 38.8201 111.94 41.5651 111.345 45.5101L110.64 50.1951L107.14 73.4701L104.925 88.1851C104.72 89.5451 106.465 90.2751 107.295 89.1801L116.015 77.6151C117.19 76.0601 119.12 75.2701 121.045 75.5601L156.315 80.8651C160.26 81.4601 163.975 78.7151 164.57 74.7701L167.695 53.9851C168.29 50.0401 165.545 46.3251 161.6 45.7301L161.605 45.7351Z" fill="white"></path>
<g id="Vector_23">
<path d="M155.115 56.36C155.115 56.36 155.09 56.36 155.08 56.36L122.715 51.49C122.585 51.47 122.495 51.35 122.515 51.215C122.535 51.085 122.655 50.99 122.79 51.015L155.155 55.885C155.285 55.905 155.375 56.025 155.355 56.16C155.335 56.28 155.235 56.365 155.12 56.365L155.115 56.36Z" fill="#07064E"></path>
<path d="M139.775 60.135C139.775 60.135 139.75 60.135 139.74 60.135L121.82 57.44C121.69 57.42 121.6 57.3 121.62 57.165C121.64 57.035 121.765 56.945 121.895 56.965L139.815 59.66C139.945 59.68 140.035 59.8 140.015 59.935C139.995 60.055 139.895 60.14 139.78 60.14L139.775 60.135Z" fill="#07064E"></path>
<path d="M142.07 66.56C142.07 66.56 142.045 66.56 142.035 66.56L120.92 63.385C120.79 63.365 120.7 63.245 120.72 63.11C120.74 62.975 120.865 62.89 120.995 62.91L142.11 66.085C142.24 66.105 142.33 66.225 142.31 66.36C142.29 66.48 142.19 66.565 142.075 66.565L142.07 66.56Z" fill="#07064E"></path>
</g>
<path id="Vector_24" d="M150.125 67.785C150.125 67.785 150.1 67.785 150.09 67.785L146.015 67.17C145.88 67.15 145.785 67.02 145.805 66.885C145.825 66.75 145.955 66.655 146.09 66.675L150.165 67.29C150.3 67.31 150.395 67.44 150.375 67.575C150.355 67.7 150.25 67.79 150.13 67.79L150.125 67.785Z" fill="#2BF5BA"></path>
<g id="Vector_25">
<path d="M106.25 89.965C106.045 89.965 105.835 89.925 105.63 89.84C104.955 89.555 104.575 88.88 104.68 88.155L111.1 45.48C111.715 41.39 115.545 38.56 119.64 39.175L161.645 45.495C165.735 46.11 168.565 49.94 167.95 54.035L164.825 74.82C164.53 76.795 163.475 78.54 161.855 79.735C160.24 80.93 158.26 81.425 156.285 81.125L121.015 75.82C119.175 75.54 117.34 76.295 116.22 77.78L107.5 89.345C107.19 89.755 106.735 89.975 106.255 89.975L106.25 89.965ZM118.515 39.585C115.11 39.585 112.115 42.08 111.595 45.55L105.175 88.225C105.085 88.835 105.465 89.225 105.82 89.375C106.175 89.525 106.725 89.525 107.095 89.03L115.815 77.465C117.045 75.835 119.065 75.01 121.085 75.315L156.355 80.62C158.195 80.9 160.045 80.435 161.555 79.32C163.065 78.205 164.05 76.575 164.325 74.735L167.45 53.95C168.025 50.13 165.385 46.555 161.565 45.98L119.56 39.66C119.21 39.605 118.86 39.58 118.515 39.58V39.585Z" fill="#07064E"></path>
<path d="M106.25 89.965C106.045 89.965 105.835 89.925 105.63 89.84C104.955 89.555 104.575 88.88 104.68 88.155L111.1 45.48C111.715 41.39 115.545 38.56 119.64 39.175L161.645 45.495C165.735 46.11 168.565 49.94 167.95 54.035L164.825 74.82C164.53 76.795 163.475 78.54 161.855 79.735C160.24 80.93 158.26 81.425 156.285 81.125L121.015 75.82C119.175 75.54 117.34 76.295 116.22 77.78L107.5 89.345C107.19 89.755 106.735 89.975 106.255 89.975L106.25 89.965ZM118.515 39.585C115.11 39.585 112.115 42.08 111.595 45.55L105.175 88.225C105.085 88.835 105.465 89.225 105.82 89.375C106.175 89.525 106.725 89.525 107.095 89.03L115.815 77.465C117.045 75.835 119.065 75.01 121.085 75.315L156.355 80.62C158.195 80.9 160.045 80.435 161.555 79.32C163.065 78.205 164.05 76.575 164.325 74.735L167.45 53.95C168.025 50.13 165.385 46.555 161.565 45.98L119.56 39.66C119.21 39.605 118.86 39.58 118.515 39.58V39.585Z" fill="#07064E"></path>
</g>
<g id="Vector_26">
<path d="M139.575 97.755L136.59 95.46V104.545C137.945 104.78 139.38 104.28 140.275 103.115C141.56 101.445 141.25 99.045 139.575 97.76V97.755Z" fill="#2AEDB4"></path>
<path d="M60.425 97.755C58.755 99.04 58.44 101.44 59.725 103.11C61.01 104.78 63.41 105.095 65.08 103.81L67.86 101.67V92.03L60.42 97.75L60.425 97.755Z" fill="#2AEDB4"></path>
</g>
<path id="Vector_27" d="M140.275 41.145C139.99 40.775 138.305 41.24 136.09 42.055V39.835C135.68 39.965 135.28 40.165 134.92 40.445L129.135 44.895C126.2 46.155 123.7 47.26 123.18 47.35L124.96 48.105L99.995 67.31L68.355 42.97V43.28L65.075 40.445C63.405 39.16 61.005 39.47 59.72 41.145C58.435 42.815 58.745 45.215 60.42 46.5L68.36 52.605L93.735 72.125L68.36 91.645V101.285L100 76.945L134.92 103.805C135.28 104.085 135.68 104.285 136.09 104.415V95.07L106.265 72.125L134.65 50.29L139.575 46.5C141.245 45.215 141.56 42.815 140.275 41.145Z" fill="#DDDDDD"></path>
<path id="Vector_28" d="M136.09 81.785V114.19C136.09 116.275 134.395 117.97 132.31 117.97H72.14C70.055 117.97 68.36 116.275 68.36 114.19V71.575H67.86V114.19C67.86 116.55 69.78 118.47 72.14 118.47H132.31C134.67 118.47 136.59 116.55 136.59 114.19V81.785H136.09Z" fill="#07064E"></path>
<path id="Vector_29" d="M139.575 95.625L106.265 70L139.575 44.375C141.245 43.09 141.56 40.69 140.275 39.02C138.99 37.35 136.59 37.035 134.92 38.32L100 65.18L65.08 38.32C63.41 37.035 61.01 37.345 59.725 39.02C58.44 40.69 58.75 43.09 60.425 44.375L93.735 70L60.425 95.625C58.755 96.91 58.44 99.31 59.725 100.98C61.01 102.65 63.41 102.965 65.08 101.68L100 74.82L134.92 101.68C136.59 102.965 138.99 102.655 140.275 100.98C141.56 99.31 141.25 96.91 139.575 95.625Z" fill="#FFB87E"></path>
</g>
</g>
</g>
</g>
<defs>
<clipPath id="clip0_70_4797">
<rect width="200" height="140" fill="white"></rect>
</clipPath>
</defs>
</svg>