<svg width="200" height="140" viewBox="0 0 200 140" fill="none" xmlns="http://www.w3.org/2000/svg">
<g id="illu_spot_not-proxy-v2/Default" clip-path="url(#clip0_70_4979)">
<g id="illu_spot_not-proxy-v2">
<g id="background">
<path d="M16.48 131.415C20.0036 131.415 22.86 128.558 22.86 125.035C22.86 121.511 20.0036 118.655 16.48 118.655C12.9564 118.655 10.1 121.511 10.1 125.035C10.1 128.558 12.9564 131.415 16.48 131.415Z" fill="#2BF5BA"></path>
<path d="M187.48 23.5799C191.004 23.5799 193.86 20.7234 193.86 17.1999C193.86 13.6763 191.004 10.8199 187.48 10.8199C183.956 10.8199 181.1 13.6763 181.1 17.1999C181.1 20.7234 183.956 23.5799 187.48 23.5799Z" fill="#2BF5BA"></path>
<path d="M168.89 16.3099C170.964 16.3099 172.645 14.6287 172.645 12.5549C172.645 10.481 170.964 8.79986 168.89 8.79986C166.816 8.79986 165.135 10.481 165.135 12.5549C165.135 14.6287 166.816 16.3099 168.89 16.3099Z" fill="#2BF5BA"></path>
<path d="M190.76 117.445C192.022 117.445 193.045 116.422 193.045 115.16C193.045 113.898 192.022 112.875 190.76 112.875C189.498 112.875 188.475 113.898 188.475 115.16C188.475 116.422 189.498 117.445 190.76 117.445Z" fill="#2BF5BA"></path>
<path d="M36.96 124.77C4.28499 105.275 1.20999 72.5949 11.125 34.4299C21.69 -6.25014 66.895 5.03485 103.485 11.3149C128.825 15.6649 158.49 7.49486 177.97 29.5749C191.315 44.6999 193.36 65.9849 186.69 96.9049C182.7 115.4 166.76 120.93 148.29 127.82C119.905 138.405 57.965 137.305 36.96 124.77Z" fill="#2BF5BA"></path>
</g>
<g id="illu_spot_not-proxy-v2_2">
<g id="stroke">
<path id="Vector" d="M149.445 29.2197H50.5549C47.2412 29.2197 44.5549 31.906 44.5549 35.2197V109.03C44.5549 112.343 47.2412 115.03 50.5549 115.03H149.445C152.759 115.03 155.445 112.343 155.445 109.03V35.2197C155.445 31.906 152.759 29.2197 149.445 29.2197Z" fill="#2AEDB4"></path>
<path id="Vector_2" d="M149.445 27.0947H50.5549C47.2412 27.0947 44.5549 29.781 44.5549 33.0947V106.905C44.5549 110.218 47.2412 112.905 50.5549 112.905H149.445C152.759 112.905 155.445 110.218 155.445 106.905V33.0947C155.445 29.781 152.759 27.0947 149.445 27.0947Z" fill="white"></path>
<path id="Vector_3" d="M144.855 103.395L107.865 74.9349L144.855 46.475C146.71 45.045 147.06 42.385 145.63 40.525C144.2 38.67 141.54 38.32 139.68 39.75L100.905 69.58L62.1299 39.75C60.2749 38.32 57.6099 38.67 56.1799 40.525C54.7499 42.38 55.0999 45.045 56.9549 46.475L93.9499 74.9349L56.9549 103.395C55.0999 104.825 54.7499 107.485 56.1799 109.345C57.6099 111.2 60.2699 111.55 62.1299 110.12L100.905 80.29L139.68 110.12C141.535 111.55 144.2 111.2 145.63 109.345C147.06 107.49 146.71 104.825 144.855 103.395Z" fill="#EDEDED"></path>
<g id="Vector_4">
<path d="M96.1951 50.8549C95.6401 50.2999 94.9101 49.9949 94.1301 49.9899L56.8401 49.9149H56.8351C56.0601 49.9149 55.3251 50.2199 54.7701 50.7699C54.2151 51.3249 53.9101 52.0549 53.9051 52.8349L53.8701 69.8299C53.8701 70.6099 54.1701 71.3449 54.7251 71.8999C55.2801 72.4549 56.0101 72.7599 56.7901 72.7649L94.0801 72.8399H94.0851C94.8601 72.8399 95.5951 72.5349 96.1451 71.9849C96.7001 71.4299 97.0051 70.6999 97.0101 69.9199L97.0451 52.9249C97.0451 52.1449 96.7451 51.4099 96.1901 50.8549H96.1951Z" fill="#EDEDED"></path>
<path d="M54.0959 50.7094L54.0603 67.7043C54.0571 69.2176 55.2813 70.4469 56.7945 70.4501L94.0845 70.5282C95.5977 70.5313 96.827 69.3072 96.8302 67.7939L96.8658 50.7989C96.869 49.2857 95.6448 48.0564 94.1315 48.0532L56.8416 47.9751C55.3284 47.9719 54.0991 49.1961 54.0959 50.7094Z" fill="#EDEDED"></path>
<path d="M96.2401 84.0698C95.6751 83.5048 94.9251 83.1898 94.1301 83.1898L56.8401 83.1148H56.8351C56.0401 83.1148 55.2951 83.4248 54.7301 83.9898C54.1651 84.5548 53.8501 85.3048 53.8501 86.0998L53.8151 103.095C53.8151 103.89 54.1251 104.64 54.6901 105.21C55.2551 105.775 56.0051 106.09 56.8001 106.09L94.0901 106.165H94.0951C94.8901 106.165 95.6351 105.855 96.2001 105.29C96.7651 104.725 97.0801 103.975 97.0801 103.18L97.1151 86.1848C97.1151 85.3898 96.8051 84.6398 96.2401 84.0698Z" fill="#EDEDED"></path>
<path d="M54.0958 83.969L54.0602 100.964C54.057 102.477 55.2812 103.707 56.7944 103.71L94.0843 103.788C95.5976 103.791 96.8269 102.567 96.8301 101.054L96.8657 84.0586C96.8688 82.5453 95.6447 81.316 94.1314 81.3128L56.8415 81.2347C55.3282 81.2316 54.0989 82.4557 54.0958 83.969Z" fill="#EDEDED"></path>
</g>
<path id="Vector_5" d="M72.8549 48.0095L58.9049 47.9795L88.1949 70.5145L94.0799 70.5245C95.5849 70.5245 96.8199 69.2995 96.8249 67.7895V66.4495L72.8499 48.0045L72.8549 48.0095Z" fill="#DDDDDD"></path>
<path id="Vector_6" d="M56.795 103.71L70.43 103.74L96.8 83.4548C96.525 82.2348 95.435 81.3198 94.135 81.3148L85.69 81.2998L56.96 103.4C56.835 103.495 56.72 103.595 56.61 103.7C56.67 103.7 56.735 103.71 56.795 103.71Z" fill="#DDDDDD"></path>
<g id="Vector_7">
<path d="M94.085 70.7145L56.795 70.6395C56.015 70.6395 55.285 70.3296 54.73 69.7746C54.175 69.2196 53.875 68.4846 53.875 67.7046L53.91 50.7095C53.91 49.9295 54.22 49.1996 54.775 48.6446C55.33 48.0946 56.06 47.7896 56.84 47.7896H56.845L94.135 47.8646C94.915 47.8646 95.645 48.1745 96.2 48.7295C96.755 49.2845 97.055 50.0195 97.055 50.7995L97.02 67.7945C97.02 68.5745 96.71 69.3046 96.155 69.8596C95.6 70.4095 94.87 70.7145 94.095 70.7145H94.085ZM56.835 48.1646C56.16 48.1646 55.52 48.4295 55.035 48.9095C54.55 49.3895 54.285 50.0295 54.28 50.7095L54.245 67.7046C54.245 68.3846 54.51 69.0246 54.99 69.5096C55.47 69.9946 56.11 70.2596 56.79 70.2645L94.08 70.3395H94.085C94.76 70.3395 95.4 70.0746 95.885 69.5946C96.37 69.1146 96.635 68.4745 96.64 67.7945L96.675 50.7995C96.675 50.1195 96.41 49.4795 95.93 48.9945C95.45 48.5095 94.81 48.2446 94.13 48.2396L56.84 48.1646H56.835Z" fill="#07064E"></path>
<path d="M94.0901 104.035H94.0851L56.7951 103.96C56.0001 103.96 55.2501 103.645 54.6851 103.08C54.1201 102.515 53.8101 101.76 53.8101 100.965L53.8451 83.9696C53.8451 83.1746 54.1601 82.4246 54.7251 81.8596C55.2901 81.2946 56.0401 80.9846 56.8301 80.9846H56.8351L94.1251 81.0596C94.9201 81.0596 95.6701 81.3746 96.2351 81.9396C96.8001 82.5046 97.1101 83.2596 97.1101 84.0546L97.0751 101.05C97.0751 101.845 96.7601 102.595 96.1951 103.16C95.6301 103.725 94.8801 104.035 94.0901 104.035ZM56.8351 81.4846C56.1751 81.4846 55.5501 81.7446 55.0801 82.2146C54.6051 82.6846 54.3451 83.3096 54.3451 83.9696L54.3101 100.965C54.3101 101.625 54.5651 102.25 55.0401 102.725C55.5101 103.2 56.1351 103.46 56.7951 103.46L94.0851 103.535H94.0901C94.7501 103.535 95.3701 103.275 95.8451 102.805C96.3201 102.335 96.5801 101.71 96.5801 101.05L96.6151 84.0546C96.6151 83.3946 96.3601 82.7696 95.8851 82.2946C95.4151 81.8196 94.7901 81.5596 94.1301 81.5596L56.8401 81.4846H56.8351Z" fill="#07064E"></path>
</g>
<path id="Vector_8" d="M49.0849 27.0947H150.91C153.41 27.0947 155.44 29.1247 155.44 31.6247V39.8347H44.5549V31.6247C44.5549 29.1247 46.5849 27.0947 49.0849 27.0947Z" fill="#07064E"></path>
<path id="Vector_9" d="M133.43 36.5796C135.15 36.5796 136.545 35.185 136.545 33.4646C136.545 31.7442 135.15 30.3496 133.43 30.3496C131.71 30.3496 130.315 31.7442 130.315 33.4646C130.315 35.185 131.71 36.5796 133.43 36.5796Z" fill="white"></path>
<path id="Vector_10" d="M142.46 36.5796C144.18 36.5796 145.575 35.185 145.575 33.4646C145.575 31.7442 144.18 30.3496 142.46 30.3496C140.74 30.3496 139.345 31.7442 139.345 33.4646C139.345 35.185 140.74 36.5796 142.46 36.5796Z" fill="#2BF5BA"></path>
<g id="Vector_11">
<path d="M63.8051 57.8346C65.0725 57.8346 66.1 56.8071 66.1 55.5396C66.1 54.2721 65.0725 53.2446 63.8051 53.2446C62.5376 53.2446 61.51 54.2721 61.51 55.5396C61.51 56.8071 62.5376 57.8346 63.8051 57.8346Z" fill="#2BF5BA"></path>
<path d="M63.8069 58.8466C66.3769 58.8435 68.4644 60.9259 68.4676 63.4959L68.4697 65.2459L59.1547 65.2573L59.1526 63.5073C59.1495 60.9373 61.2319 58.8498 63.8019 58.8466L63.8069 58.8466Z" fill="#2BF5BA"></path>
</g>
<g id="Vector_12">
<path d="M63.805 91.09C65.078 91.09 66.11 90.058 66.11 88.785C66.11 87.512 65.078 86.48 63.805 86.48C62.532 86.48 61.5 87.512 61.5 88.785C61.5 90.058 62.532 91.09 63.805 91.09Z" fill="#07064E"></path>
<path d="M63.8125 92.102C66.3925 92.0988 68.49 94.1912 68.4932 96.7712L68.4953 98.5262L59.1403 98.5377L59.1382 96.7827C59.135 94.2027 61.2275 92.1051 63.8075 92.102L63.8125 92.102Z" fill="#07064E"></path>
</g>
<path id="Vector_13" d="M139.775 86.7446H117.725C113.387 86.7446 109.87 90.2614 109.87 94.5996C109.87 98.9378 113.387 102.455 117.725 102.455H139.775C144.113 102.455 147.63 98.9378 147.63 94.5996C147.63 90.2614 144.113 86.7446 139.775 86.7446Z" fill="#EDEDED"></path>
<path id="Vector_14" d="M139.775 84.6147H117.725C113.387 84.6147 109.87 88.1316 109.87 92.4697C109.87 96.8079 113.387 100.325 117.725 100.325H139.775C144.113 100.325 147.63 96.8079 147.63 92.4697C147.63 88.1316 144.113 84.6147 139.775 84.6147Z" fill="#07064E"></path>
<path id="Vector_15" d="M117.84 99.4797C121.72 99.4797 124.865 96.3345 124.865 92.4547C124.865 88.5749 121.72 85.4297 117.84 85.4297C113.96 85.4297 110.815 88.5749 110.815 92.4547C110.815 96.3345 113.96 99.4797 117.84 99.4797Z" fill="white"></path>
<path id="Vector_16" d="M139.775 54.6396H117.725C113.387 54.6396 109.87 58.1565 109.87 62.4946C109.87 66.8328 113.387 70.3496 117.725 70.3496H139.775C144.113 70.3496 147.63 66.8328 147.63 62.4946C147.63 58.1565 144.113 54.6396 139.775 54.6396Z" fill="#EDEDED"></path>
<path id="Vector_17" d="M139.775 52.5146H117.725C113.387 52.5146 109.87 56.0315 109.87 60.3696C109.87 64.7078 113.387 68.2246 117.725 68.2246H139.775C144.113 68.2246 147.63 64.7078 147.63 60.3696C147.63 56.0315 144.113 52.5146 139.775 52.5146Z" fill="#2BF5BA"></path>
<path id="Vector_18" d="M139.495 67.3747C143.375 67.3747 146.52 64.2295 146.52 60.3497C146.52 56.4699 143.375 53.3247 139.495 53.3247C135.615 53.3247 132.47 56.4699 132.47 60.3497C132.47 64.2295 135.615 67.3747 139.495 67.3747Z" fill="white"></path>
<g id="Vector_19">
<path d="M91.81 89.1646H73.64C73.5 89.1646 73.39 89.0546 73.39 88.9146C73.39 88.7746 73.5 88.6646 73.64 88.6646H91.81C91.95 88.6646 92.06 88.7746 92.06 88.9146C92.06 89.0546 91.95 89.1646 91.81 89.1646Z" fill="#07064E"></path>
<path d="M82.17 96.2846H73.64C73.5 96.2846 73.39 96.1746 73.39 96.0346C73.39 95.8946 73.5 95.7846 73.64 95.7846H82.17C82.31 95.7846 82.42 95.8946 82.42 96.0346C82.42 96.1746 82.31 96.2846 82.17 96.2846Z" fill="#07064E"></path>
</g>
<path id="Vector_20" d="M91.5149 96.3596L86.6399 96.3496C86.4999 96.3496 86.3899 96.2346 86.3899 96.0996C86.3899 95.9646 86.4999 95.8496 86.6399 95.8496L91.5149 95.8596C91.6549 95.8596 91.7649 95.9746 91.7649 96.1096C91.7649 96.2446 91.6549 96.3596 91.5149 96.3596Z" fill="#2BF5BA"></path>
<g id="Vector_21">
<path d="M91.81 55.9048H73.64C73.5 55.9048 73.39 55.7948 73.39 55.6548C73.39 55.5148 73.5 55.4048 73.64 55.4048H91.81C91.95 55.4048 92.06 55.5148 92.06 55.6548C92.06 55.7948 91.95 55.9048 91.81 55.9048Z" fill="#07064E"></path>
<path d="M82.17 63.0248H73.64C73.5 63.0248 73.39 62.9148 73.39 62.7748C73.39 62.6348 73.5 62.5248 73.64 62.5248H82.17C82.31 62.5248 82.42 62.6348 82.42 62.7748C82.42 62.9148 82.31 63.0248 82.17 63.0248Z" fill="#07064E"></path>
</g>
<path id="Vector_22" d="M91.5149 63.0999L86.6399 63.0899C86.4999 63.0899 86.3899 62.9749 86.3899 62.8399C86.3899 62.6999 86.4799 62.5799 86.6399 62.5899L91.5149 62.5999C91.6549 62.5999 91.7649 62.7149 91.7649 62.8499C91.7649 62.9849 91.6549 63.0999 91.5149 63.0999Z" fill="#2BF5BA"></path>
<path id="Vector_23" d="M120.44 84.6147H117.725C114.975 84.6147 112.555 86.0298 111.155 88.1748L111.885 88.7397C113.125 86.7547 115.325 85.4297 117.84 85.4297C121.72 85.4297 124.865 88.5747 124.865 92.4548C124.865 94.3147 124.135 95.9998 122.955 97.2598L126.95 100.335H139.77C140.11 100.335 140.44 100.305 140.77 100.265L120.435 84.6247L120.44 84.6147Z" fill="#030326"></path>
<path id="Vector_24" d="M117.84 85.4248C115.325 85.4248 113.125 86.7498 111.885 88.7348L122.96 97.2548C124.14 95.9998 124.87 94.3098 124.87 92.4498C124.87 88.5698 121.725 85.4248 117.845 85.4248H117.84Z" fill="#EDEDED"></path>
<path id="Vector_25" d="M110.16 62.4648C110.99 65.4598 113.545 67.7298 116.69 68.1448L137.015 52.5098H123.1L110.16 62.4648Z" fill="#2AEDB4"></path>
<path id="Vector_26" d="M144.855 101.269L107.865 72.8095L144.855 44.3495C146.71 42.9195 147.06 40.2595 145.63 38.3995C144.2 36.5445 141.54 36.1945 139.68 37.6245L100.905 67.4545L62.1299 37.6245C60.2749 36.1945 57.6099 36.5445 56.1799 38.3995C54.7499 40.2545 55.0999 42.9195 56.9549 44.3495L93.9499 72.8095L56.9549 101.269C55.0999 102.699 54.7499 105.359 56.1799 107.219C57.6099 109.074 60.2699 109.424 62.1299 107.994L100.905 78.1645L139.68 107.994C141.535 109.424 144.2 109.074 145.63 107.219C147.06 105.364 146.71 102.699 144.855 101.269Z" fill="#FFB87E"></path>
</g>
</g>
</g>
</g>
<defs>
<clipPath id="clip0_70_4979">
<rect width="200" height="140" fill="white"></rect>
</clipPath>
</defs>
</svg>