<svg width="200" height="140" viewBox="0 0 200 140" fill="none" xmlns="http://www.w3.org/2000/svg">
<g id="illu_spot_no-result/Default" clip-path="url(#clip0_70_5073)">
<g id="background">
<path d="M193.442 60.5722C197.547 57.9796 199.501 53.7052 197.808 51.025C196.115 48.3448 191.416 48.2739 187.311 50.8665C183.207 53.4591 181.252 57.7336 182.945 60.4137C184.638 63.0939 189.338 63.1649 193.442 60.5722Z" fill="#2BF5BA"></path>
<path d="M193.65 16.4298C204.41 28.1698 163.76 48.7198 173.13 78.3298C190.74 133.965 99.8349 140.865 65.5299 130.7C39.0649 122.855 30.2749 107.745 21.1799 95.2198C9.54995 79.1848 -2.75505 59.8748 5.49495 36.5798C13.6549 13.5348 46.1949 -3.37019 95.2399 9.57981C175.26 30.7098 181.99 3.70481 193.655 16.4298H193.65Z" fill="#2BF5BA"></path>
<path d="M9.18495 117.78C12.8383 117.78 15.7999 114.818 15.7999 111.165C15.7999 107.511 12.8383 104.55 9.18495 104.55C5.53158 104.55 2.56995 107.511 2.56995 111.165C2.56995 114.818 5.53158 117.78 9.18495 117.78Z" fill="#2BF5BA"></path>
<path d="M153.865 11.8077C154.029 10.2617 153.126 8.89881 151.85 8.7637C150.573 8.62859 149.405 9.77238 149.241 11.3184C149.078 12.8645 149.98 14.2273 151.257 14.3624C152.534 14.4976 153.702 13.3538 153.865 11.8077Z" fill="#2BF5BA"></path>
</g>
<g id="illu_spot_no-result">
<g id="stroke">
<path id="Vector" d="M140.59 33.3599H58.4199C55.1062 33.3599 52.4199 36.0462 52.4199 39.3599V105.495C52.4199 108.809 55.1062 111.495 58.4199 111.495H140.59C143.904 111.495 146.59 108.809 146.59 105.495V39.3599C146.59 36.0462 143.904 33.3599 140.59 33.3599Z" fill="#2AEDB4"></path>
<path id="Vector_2" d="M140.59 31.2349H58.4199C55.1062 31.2349 52.4199 33.9212 52.4199 37.2349V103.37C52.4199 106.684 55.1062 109.37 58.4199 109.37H140.59C143.904 109.37 146.59 106.684 146.59 103.37V37.2349C146.59 33.9212 143.904 31.2349 140.59 31.2349Z" fill="white"></path>
<path id="Vector_3" d="M56.9549 31.2349H142.06C144.56 31.2349 146.59 33.2649 146.59 35.7649V42.5249H52.4199V35.7649C52.4199 33.2649 54.4499 31.2349 56.9499 31.2349H56.9549Z" fill="#07064E"></path>
<path id="Vector_4" d="M129.135 39.6401C130.659 39.6401 131.895 38.4044 131.895 36.8801C131.895 35.3558 130.659 34.1201 129.135 34.1201C127.611 34.1201 126.375 35.3558 126.375 36.8801C126.375 38.4044 127.611 39.6401 129.135 39.6401Z" fill="white"></path>
<path id="Vector_5" d="M137.135 39.6401C138.659 39.6401 139.895 38.4044 139.895 36.8801C139.895 35.3558 138.659 34.1201 137.135 34.1201C135.611 34.1201 134.375 35.3558 134.375 36.8801C134.375 38.4044 135.611 39.6401 137.135 39.6401Z" fill="#2BF5BA"></path>
<g id="Vector_6">
<path d="M84.7799 82.8796H79.5799C79.2209 82.8796 78.9299 83.1706 78.9299 83.5296V92.6996C78.9299 93.0586 79.2209 93.3496 79.5799 93.3496H84.7799C85.1389 93.3496 85.4299 93.0586 85.4299 92.6996V83.5296C85.4299 83.1706 85.1389 82.8796 84.7799 82.8796Z" fill="#2BF5BA"></path>
<path d="M96.2049 61.8096H91.0299C90.6709 61.8096 90.3799 62.1006 90.3799 62.4596V92.6996C90.3799 93.0586 90.6709 93.3496 91.0299 93.3496H96.2049C96.5639 93.3496 96.8549 93.0586 96.8549 92.6996V62.4596C96.8549 62.1006 96.5639 61.8096 96.2049 61.8096Z" fill="#2BF5BA"></path>
<path d="M107.655 78.4696H102.48C102.121 78.4696 101.83 78.7606 101.83 79.1196V92.6996C101.83 93.0586 102.121 93.3496 102.48 93.3496H107.655C108.014 93.3496 108.305 93.0586 108.305 92.6996V79.1196C108.305 78.7606 108.014 78.4696 107.655 78.4696Z" fill="#2BF5BA"></path>
<path d="M119.105 69.6246H113.93C113.571 69.6246 113.28 69.9156 113.28 70.2746V92.6996C113.28 93.0586 113.571 93.3496 113.93 93.3496H119.105C119.464 93.3496 119.755 93.0586 119.755 92.6996V70.2746C119.755 69.9156 119.464 69.6246 119.105 69.6246Z" fill="#2BF5BA"></path>
<path d="M130.03 84.0796H124.855C124.496 84.0796 124.205 84.3706 124.205 84.7296V92.6996C124.205 93.0586 124.496 93.3496 124.855 93.3496H130.03C130.389 93.3496 130.68 93.0586 130.68 92.6996V84.7296C130.68 84.3706 130.389 84.0796 130.03 84.0796Z" fill="#2BF5BA"></path>
</g>
<path id="Vector_7" d="M76.38 53.5649L73.4 49.1149C73.4 49.1149 73.39 49.1099 73.385 49.1049C73.37 49.0849 73.35 49.0649 73.325 49.0499C73.315 49.0449 73.31 49.0349 73.3 49.0299C73.265 49.0149 73.23 49.0049 73.19 49.0049C73.15 49.0049 73.115 49.0149 73.08 49.0299C73.07 49.0299 73.065 49.0399 73.055 49.0499C73.03 49.0649 73.015 49.0799 72.995 49.1049C72.995 49.1099 72.985 49.1099 72.98 49.1149L70 53.5649C69.925 53.6799 69.955 53.8349 70.07 53.9099C70.185 53.9849 70.34 53.9549 70.415 53.8399L72.94 50.0699V62.8699H68.33C68.19 62.8699 68.08 62.9799 68.08 63.1199C68.08 63.2599 68.19 63.3699 68.33 63.3699H72.94V67.8099H68.33C68.19 67.8099 68.08 67.9199 68.08 68.0599C68.08 68.1999 68.19 68.3099 68.33 68.3099H72.94V72.7499H68.33C68.19 72.7499 68.08 72.8599 68.08 72.9999C68.08 73.1399 68.19 73.2499 68.33 73.2499H72.94V77.6899H68.33C68.19 77.6899 68.08 77.7999 68.08 77.9399C68.08 78.0799 68.19 78.1899 68.33 78.1899H72.94V82.6299H68.33C68.19 82.6299 68.08 82.7399 68.08 82.8799C68.08 83.0199 68.19 83.1299 68.33 83.1299H72.94V87.5699H68.33C68.19 87.5699 68.08 87.6799 68.08 87.8199C68.08 87.9599 68.19 88.0699 68.33 88.0699H72.94V92.5099H68.33C68.19 92.5099 68.08 92.6199 68.08 92.7599C68.08 92.8999 68.19 93.0099 68.33 93.0099H73.19C73.33 93.0099 73.44 92.8999 73.44 92.7599V50.0749L75.965 53.8449C76.015 53.9149 76.09 53.9549 76.175 53.9549C76.225 53.9549 76.27 53.9399 76.315 53.9149C76.43 53.8399 76.46 53.6849 76.385 53.5699L76.38 53.5649Z" fill="#07064E"></path>
<g id="Vector_8">
<path d="M84.7799 95.3599H79.5799C79.2209 95.3599 78.9299 95.6509 78.9299 96.0099V98.8799C78.9299 99.2388 79.2209 99.5299 79.5799 99.5299H84.7799C85.1389 99.5299 85.4299 99.2388 85.4299 98.8799V96.0099C85.4299 95.6509 85.1389 95.3599 84.7799 95.3599Z" fill="#EDEDED"></path>
<path d="M96.2049 95.3599H91.0299C90.6709 95.3599 90.3799 95.6509 90.3799 96.0099V98.8799C90.3799 99.2388 90.6709 99.5299 91.0299 99.5299H96.2049C96.5639 99.5299 96.8549 99.2388 96.8549 98.8799V96.0099C96.8549 95.6509 96.5639 95.3599 96.2049 95.3599Z" fill="#EDEDED"></path>
<path d="M107.655 95.3599H102.48C102.121 95.3599 101.83 95.6509 101.83 96.0099V98.8799C101.83 99.2388 102.121 99.5299 102.48 99.5299H107.655C108.014 99.5299 108.305 99.2388 108.305 98.8799V96.0099C108.305 95.6509 108.014 95.3599 107.655 95.3599Z" fill="#EDEDED"></path>
<path d="M119.105 95.3599H113.93C113.571 95.3599 113.28 95.6509 113.28 96.0099V98.8799C113.28 99.2388 113.571 99.5299 113.93 99.5299H119.105C119.464 99.5299 119.755 99.2388 119.755 98.8799V96.0099C119.755 95.6509 119.464 95.3599 119.105 95.3599Z" fill="#EDEDED"></path>
<path d="M130.03 95.3599H124.855C124.496 95.3599 124.205 95.6509 124.205 96.0099V98.8799C124.205 99.2388 124.496 99.5299 124.855 99.5299H130.03C130.389 99.5299 130.68 99.2388 130.68 98.8799V96.0099C130.68 95.6509 130.389 95.3599 130.03 95.3599Z" fill="#EDEDED"></path>
</g>
<path id="Vector_9" d="M137.32 96.7749L104.01 71.1499L137.32 45.5249C138.99 44.2399 139.305 41.8399 138.02 40.1699C136.735 38.4999 134.335 38.1849 132.665 39.4699L97.7449 66.3299L62.8249 39.4699C61.1549 38.1849 58.7549 38.4949 57.4699 40.1699C56.1849 41.8399 56.4949 44.2399 58.1699 45.5249L91.4799 71.1499L58.1699 96.7749C56.4999 98.0599 56.1849 100.46 57.4699 102.13C58.7549 103.8 61.1549 104.115 62.8249 102.83L97.7449 75.9699L132.665 102.83C134.335 104.115 136.735 103.805 138.02 102.13C139.305 100.46 138.995 98.0599 137.32 96.7749Z" fill="#EDEDED"></path>
<path id="Vector_10" d="M137.32 94.6499L104.01 69.0249L137.32 43.3999C138.99 42.1149 139.305 39.7149 138.02 38.0449C136.735 36.3749 134.335 36.0599 132.665 37.3449L97.7449 64.2049L62.8249 37.3449C61.1549 36.0599 58.7549 36.3699 57.4699 38.0449C56.1849 39.7149 56.4949 42.1149 58.1699 43.3999L91.4799 69.0249L58.1699 94.6499C56.4999 95.9349 56.1849 98.3349 57.4699 100.005C58.7549 101.675 61.1549 101.99 62.8249 100.705L97.7449 73.8449L132.665 100.705C134.335 101.99 136.735 101.68 138.02 100.005C139.305 98.3349 138.995 95.9349 137.32 94.6499Z" fill="#FFB87E"></path>
</g>
</g>
</g>
<defs>
<clipPath id="clip0_70_5073">
<rect width="200" height="140" fill="white"></rect>
</clipPath>
</defs>
</svg>