<svg width="200" height="140" viewBox="0 0 200 140" fill="none" xmlns="http://www.w3.org/2000/svg">
<g id="illu_spot_add-participants-unique-codes/Default" clip-path="url(#clip0_70_5476)">
<g id="illu_spot_add-participants-unique-codes">
<g id="background">
<path d="M167.94 15.12C204.975 35.47 197.83 129.405 179.225 134.14C146.16 142.555 153.335 123.64 90.9849 132.51C55.2249 137.595 28.8799 135.33 28.3249 104.1C27.8549 77.73 3.88491 74.245 3.07991 39.865C2.57991 18.495 22.4299 -3.80499 53.5649 6.04001C114.605 25.34 133.075 -4.03499 167.94 15.12Z" fill="#2BF5BA"></path>
<path d="M8.74991 87.03C8.14991 84.435 10.1349 81.65 13.1899 80.81C16.2399 79.965 19.2049 81.385 19.8049 83.98C20.4049 86.575 18.4199 89.36 15.3649 90.2C12.3149 91.045 9.34991 89.625 8.74991 87.03Z" fill="#2BF5BA"></path>
<path d="M193.834 14.3674C196.826 12.1294 197.826 8.40961 196.067 6.05915C194.309 3.70868 190.458 3.61758 187.467 5.85565C184.475 8.09373 183.475 11.8135 185.234 14.1639C186.992 16.5144 190.843 16.6055 193.834 14.3674Z" fill="#2BF5BA"></path>
<path d="M190.699 22.8759C191.966 21.9281 192.389 20.3531 191.645 19.3581C190.901 18.3631 189.27 18.3248 188.003 19.2726C186.736 20.2205 186.312 21.7955 187.057 22.7905C187.801 23.7855 189.432 23.8238 190.699 22.8759Z" fill="#2BF5BA"></path>
</g>
<g id="stroke">
<path id="Vector" d="M134.91 95.725V101.3C134.91 103.65 133.005 105.55 130.66 105.55H74.9049C72.5549 105.55 70.6549 103.645 70.6549 101.3V86.835V95.73H66.7849V114.085C66.7849 116.435 68.6899 118.335 71.0349 118.335H134.53C136.88 118.335 138.78 116.43 138.78 114.085V95.73H134.91V95.725Z" fill="#2AEDB4"></path>
<path id="Vector_2" d="M70.6499 87.2097V33.1797C70.6499 30.8297 72.5549 28.9297 74.8999 28.9297H130.655C133.005 28.9297 134.905 30.8347 134.905 33.1797V98.8397C134.905 101.19 133 103.09 130.655 103.09H74.8999C72.5499 103.09 70.6499 101.185 70.6499 98.8397V84.3747" fill="white"></path>
<g id="Vector_3">
<path d="M130.66 29.2601H74.9049C72.5549 29.2601 70.6549 31.1651 70.6549 33.5101V99.1701V35.6351C70.6549 33.2851 72.5599 31.3851 74.9049 31.3851H130.66C133.01 31.3851 134.91 33.2901 134.91 35.6351V99.1751V33.5101C134.91 31.1601 133.005 29.2601 130.66 29.2601Z" fill="#EDEDED"></path>
<path d="M134.53 20.5151H71.0349C68.6849 20.5151 66.7849 22.4201 66.7849 24.7651V111.955C66.7849 114.305 68.6899 116.205 71.0349 116.205H134.53C136.88 116.205 138.78 114.3 138.78 111.955V24.7701C138.78 22.4201 136.875 20.5201 134.53 20.5201V20.5151ZM134.91 99.1751C134.91 101.525 133.005 103.425 130.66 103.425H74.9049C72.5549 103.425 70.6549 101.52 70.6549 99.1751V33.5101C70.6549 31.1601 72.5599 29.2601 74.9049 29.2601H130.66C133.01 29.2601 134.91 31.1651 134.91 33.5101V99.1751Z" fill="#EDEDED"></path>
</g>
<g id="Vector_4">
<path d="M134.53 116.46H71.0349C68.5549 116.46 66.5349 114.44 66.5349 111.96V24.77C66.5349 22.29 68.5549 20.27 71.0349 20.27H134.53C137.01 20.27 139.03 22.29 139.03 24.77V111.96C139.03 114.44 137.01 116.46 134.53 116.46ZM71.0349 20.765C68.8299 20.765 67.0349 22.56 67.0349 24.765V111.955C67.0349 114.16 68.8299 115.955 71.0349 115.955H134.53C136.735 115.955 138.53 114.16 138.53 111.955V24.77C138.53 22.565 136.735 20.77 134.53 20.77H71.0349V20.765Z" fill="#07064E"></path>
<path d="M130.66 103.675H74.9049C72.4249 103.675 70.4049 101.655 70.4049 99.175V33.51C70.4049 31.03 72.4249 29.01 74.9049 29.01H130.66C133.14 29.01 135.16 31.03 135.16 33.51V99.17C135.16 101.65 133.14 103.67 130.66 103.67V103.675ZM74.9049 29.51C72.6999 29.51 70.9049 31.305 70.9049 33.51V99.17C70.9049 101.375 72.6999 103.17 74.9049 103.17H130.66C132.865 103.17 134.66 101.375 134.66 99.17V33.51C134.66 31.305 132.865 29.51 130.66 29.51H74.9049Z" fill="#07064E"></path>
</g>
<path id="Vector_5" d="M102.78 113.685C104.699 113.685 106.255 112.129 106.255 110.21C106.255 108.291 104.699 106.735 102.78 106.735C100.861 106.735 99.3049 108.291 99.3049 110.21C99.3049 112.129 100.861 113.685 102.78 113.685Z" fill="white"></path>
<path id="Vector_6" d="M102.76 113.935C100.925 113.935 99.3799 112.62 99.0849 110.815C99.0649 110.68 99.1549 110.55 99.2899 110.53C99.4249 110.51 99.5549 110.6 99.5749 110.735C99.8299 112.3 101.17 113.435 102.76 113.435C104.54 113.435 105.985 111.99 105.985 110.21C105.985 108.43 104.54 106.985 102.76 106.985C101.655 106.985 100.64 107.54 100.04 108.475C99.9649 108.59 99.8099 108.625 99.6949 108.55C99.5799 108.475 99.5449 108.32 99.6199 108.205C100.31 107.13 101.48 106.485 102.76 106.485C104.815 106.485 106.485 108.155 106.485 110.21C106.485 112.265 104.815 113.935 102.76 113.935Z" fill="#07064E"></path>
<path id="Vector_7" d="M110.19 25.5548H106.465C106.325 25.5548 106.215 25.4398 106.215 25.2998C106.215 25.1598 106.325 25.0498 106.465 25.0498H110.19C110.33 25.0498 110.44 25.1648 110.44 25.3048C110.44 25.4448 110.33 25.5548 110.19 25.5548Z" fill="white"></path>
<path id="Vector_8" d="M104.03 25.5547H95.3699C95.2299 25.5547 95.1199 25.4447 95.1199 25.3047C95.1199 25.1647 95.2299 25.0547 95.3699 25.0547H104.03C104.17 25.0547 104.28 25.1647 104.28 25.3047C104.28 25.4447 104.17 25.5547 104.03 25.5547Z" fill="#07064E"></path>
<path id="Vector_9" d="M93.9749 50.8198H87.2499V57.5448H93.9749V50.8198Z" fill="#EDEDED"></path>
<g id="Vector_10">
<path d="M94.2249 57.7951H86.9999V50.5701H94.2249V57.7951ZM87.4999 57.2951H93.7249V51.0701H87.4999V57.2951Z" fill="#07064E"></path>
<path d="M95.1749 58.9951H86.0499C85.9099 58.9951 85.7999 58.8851 85.7999 58.7451V49.6201C85.7999 49.4801 85.9099 49.3701 86.0499 49.3701H95.1749C95.3149 49.3701 95.4249 49.4801 95.4249 49.6201V58.7451C95.4249 58.8851 95.3149 58.9951 95.1749 58.9951ZM86.2999 58.4951H94.9249V49.8701H86.2999V58.4951Z" fill="#07064E"></path>
</g>
<path id="Vector_11" d="M118.31 50.8198H111.585V57.5448H118.31V50.8198Z" fill="#EDEDED"></path>
<g id="Vector_12">
<path d="M118.56 57.7951H111.335V50.5701H118.56V57.7951ZM111.835 57.2951H118.06V51.0701H111.835V57.2951Z" fill="#07064E"></path>
<path d="M119.51 58.9951H110.385C110.245 58.9951 110.135 58.8851 110.135 58.7451V49.6201C110.135 49.4801 110.245 49.3701 110.385 49.3701H119.51C119.65 49.3701 119.76 49.4801 119.76 49.6201V58.7451C119.76 58.8851 119.65 58.9951 119.51 58.9951ZM110.635 58.4951H119.26V49.8701H110.635V58.4951Z" fill="#07064E"></path>
</g>
<path id="Vector_13" d="M93.9749 74.6948H87.2499V81.4198H93.9749V74.6948Z" fill="#EDEDED"></path>
<g id="Vector_14">
<path d="M94.2249 81.6701H86.9999V74.4451H94.2249V81.6701ZM87.4999 81.1701H93.7249V74.9451H87.4999V81.1701Z" fill="#07064E"></path>
<path d="M95.1749 82.8701H86.0499C85.9099 82.8701 85.7999 82.7601 85.7999 82.6201V73.4951C85.7999 73.3551 85.9099 73.2451 86.0499 73.2451H95.1749C95.3149 73.2451 95.4249 73.3551 95.4249 73.4951V82.6201C95.4249 82.7601 95.3149 82.8701 95.1749 82.8701ZM86.2999 82.3701H94.9249V73.7451H86.2999V82.3701Z" fill="#07064E"></path>
</g>
<path id="Vector_15" d="M118.31 74.6948H111.585V81.4198H118.31V74.6948Z" fill="#EDEDED"></path>
<g id="Vector_16">
<path d="M118.56 81.6701H111.335V74.4451H118.56V81.6701ZM111.835 81.1701H118.06V74.9451H111.835V81.1701Z" fill="#07064E"></path>
<path d="M119.51 82.8701H110.385C110.245 82.8701 110.135 82.7601 110.135 82.6201V73.4951C110.135 73.3551 110.245 73.2451 110.385 73.2451H119.51C119.65 73.2451 119.76 73.3551 119.76 73.4951V82.6201C119.76 82.7601 119.65 82.8701 119.51 82.8701ZM110.635 82.3701H119.26V73.7451H110.635V82.3701Z" fill="#07064E"></path>
</g>
<g id="Vector_17">
<path d="M101.175 62.895H86.0499C85.9099 62.895 85.7999 62.785 85.7999 62.645C85.7999 62.505 85.9099 62.395 86.0499 62.395H100.925V54.3C100.925 54.16 101.035 54.05 101.175 54.05C101.315 54.05 101.425 54.16 101.425 54.3V62.645C101.425 62.785 101.315 62.895 101.175 62.895Z" fill="#07064E"></path>
<path d="M103.1 78.8652C102.96 78.8652 102.85 78.7552 102.85 78.6152V67.3502H97.7749C97.6349 67.3502 97.5249 67.2402 97.5249 67.1002C97.5249 66.9602 97.6349 66.8502 97.7749 66.8502H103.1C103.24 66.8502 103.35 66.9602 103.35 67.1002V78.6152C103.35 78.7552 103.24 78.8652 103.1 78.8652Z" fill="#07064E"></path>
<path d="M98.6499 83.3154C98.5099 83.3154 98.3999 83.2054 98.3999 83.0654V71.8004H89.9899C89.8499 71.8004 89.7399 71.6904 89.7399 71.5504C89.7399 71.4104 89.8499 71.3004 89.9899 71.3004H98.6499C98.7899 71.3004 98.8999 71.4104 98.8999 71.5504V83.0654C98.8999 83.2054 98.7899 83.3154 98.6499 83.3154Z" fill="#07064E"></path>
<path d="M112 65.5204H106.675C106.535 65.5204 106.425 65.4104 106.425 65.2704V53.7554C106.425 53.6154 106.535 53.5054 106.675 53.5054C106.815 53.5054 106.925 53.6154 106.925 53.7554V65.0204H112C112.14 65.0204 112.25 65.1304 112.25 65.2704C112.25 65.4104 112.14 65.5204 112 65.5204Z" fill="#07064E"></path>
<path d="M118.67 69.575H107.785C107.645 69.575 107.535 69.465 107.535 69.325C107.535 69.185 107.645 69.075 107.785 69.075H118.67C118.81 69.075 118.92 69.185 118.92 69.325C118.92 69.465 118.81 69.575 118.67 69.575Z" fill="#07064E"></path>
<path d="M116.45 62.9H113.35C113.21 62.9 113.1 62.79 113.1 62.65C113.1 62.51 113.21 62.4 113.35 62.4H116.45C116.59 62.4 116.7 62.51 116.7 62.65C116.7 62.79 116.59 62.9 116.45 62.9Z" fill="#07064E"></path>
</g>
<g id="Vector_18">
<path d="M98.2149 55.1951C98.0749 55.1951 97.9649 55.0851 97.9649 54.9451V49.6201C97.9649 49.4801 98.0749 49.3701 98.2149 49.3701C98.3549 49.3701 98.4649 49.4801 98.4649 49.6201V54.9451C98.4649 55.0851 98.3549 55.1951 98.2149 55.1951Z" fill="#2BF5BA"></path>
<path d="M95.3148 67.3501H92.2148C92.0748 67.3501 91.9648 67.2401 91.9648 67.1001C91.9648 66.9601 92.0748 66.8501 92.2148 66.8501H95.3148C95.4548 66.8501 95.5648 66.9601 95.5648 67.1001C95.5648 67.2401 95.4548 67.3501 95.3148 67.3501Z" fill="#2BF5BA"></path>
<path d="M107.115 80.7751C106.975 80.7751 106.865 80.6651 106.865 80.5251V77.4251C106.865 77.2851 106.975 77.1751 107.115 77.1751C107.255 77.1751 107.365 77.2851 107.365 77.4251V80.5251C107.365 80.6651 107.255 80.7751 107.115 80.7751Z" fill="#2BF5BA"></path>
</g>
<path id="Vector_19" d="M123.36 42.3746H134.66V33.5146C134.66 31.3096 132.865 29.5146 130.66 29.5146H120.53V39.5446C120.53 41.1096 121.8 42.3797 123.365 42.3797L123.36 42.3746Z" fill="#EDEDED"></path>
<path id="Vector_20" d="M120.525 29.0096H130.655C133.135 29.0096 135.155 31.0296 135.155 33.5096V42.3696H138.525V24.7646C138.525 22.5596 136.73 20.7646 134.525 20.7646H120.56C120.54 20.9046 120.525 21.0496 120.525 21.1946V29.0096Z" fill="#DDDDDD"></path>
<path id="Vector_21" d="M141.705 18.36H123.36C122.12 18.36 121.07 19.155 120.685 20.265H134.53C137.01 20.265 139.03 22.285 139.03 24.765V42.37H141.705C143.27 42.37 144.54 41.1 144.54 39.535V21.19C144.54 19.625 143.27 18.355 141.705 18.355V18.36Z" fill="#2AEDB4"></path>
<path id="Vector_22" d="M141.705 16.2349H123.36C121.794 16.2349 120.525 17.5041 120.525 19.0699V37.4149C120.525 38.9806 121.794 40.2499 123.36 40.2499H141.705C143.271 40.2499 144.54 38.9806 144.54 37.4149V19.0699C144.54 17.5041 143.271 16.2349 141.705 16.2349Z" fill="#07064E"></path>
<g id="Vector_23">
<path d="M131.38 31.96H128.22C128.045 31.96 127.855 31.975 127.66 32.01C127.46 32.045 127.265 32.085 127.07 32.135L129.61 29.54C129.89 29.26 130.155 28.985 130.4 28.715C130.65 28.445 130.865 28.165 131.055 27.875C131.245 27.585 131.39 27.285 131.5 26.965C131.61 26.645 131.665 26.3 131.665 25.93C131.665 25.495 131.59 25.1 131.435 24.755C131.28 24.41 131.07 24.115 130.8 23.87C130.53 23.63 130.21 23.445 129.84 23.315C129.47 23.185 129.065 23.125 128.63 23.125C128.195 23.125 127.795 23.185 127.42 23.305C127.045 23.425 126.715 23.605 126.425 23.845C126.135 24.085 125.895 24.38 125.705 24.735C125.515 25.09 125.385 25.5 125.32 25.96L126.03 26.085C126.22 26.115 126.365 26.105 126.465 26.045C126.565 25.985 126.645 25.865 126.71 25.69C126.755 25.49 126.835 25.305 126.94 25.13C127.045 24.96 127.18 24.81 127.34 24.685C127.5 24.56 127.68 24.46 127.88 24.39C128.08 24.32 128.305 24.285 128.545 24.285C128.785 24.285 129.015 24.32 129.22 24.39C129.43 24.46 129.61 24.565 129.765 24.705C129.92 24.845 130.04 25.02 130.13 25.23C130.22 25.44 130.26 25.685 130.26 25.965C130.26 26.245 130.22 26.52 130.14 26.775C130.06 27.03 129.945 27.28 129.795 27.525C129.645 27.77 129.465 28.015 129.25 28.26C129.035 28.505 128.795 28.765 128.53 29.025L125.365 32.2C125.275 32.285 125.215 32.38 125.175 32.485C125.135 32.59 125.12 32.69 125.12 32.78V33.245H131.84V32.42C131.84 32.28 131.8 32.165 131.715 32.08C131.63 31.995 131.515 31.95 131.365 31.95L131.38 31.96Z" fill="white"></path>
<path d="M139.455 28.835C139.135 28.44 138.655 28.15 138.02 27.975C138.28 27.89 138.515 27.785 138.725 27.66C138.935 27.53 139.11 27.375 139.26 27.19C139.405 27.005 139.52 26.79 139.6 26.54C139.68 26.29 139.72 26.01 139.72 25.69C139.72 25.31 139.65 24.96 139.505 24.645C139.36 24.33 139.16 24.06 138.9 23.835C138.64 23.61 138.33 23.435 137.97 23.31C137.605 23.185 137.21 23.125 136.78 23.125C136.35 23.125 135.945 23.185 135.57 23.305C135.195 23.425 134.865 23.605 134.575 23.845C134.285 24.085 134.045 24.38 133.855 24.735C133.665 25.09 133.535 25.5 133.465 25.96L134.185 26.085C134.37 26.115 134.515 26.105 134.615 26.045C134.715 25.985 134.795 25.865 134.865 25.69C134.91 25.49 134.99 25.305 135.095 25.13C135.2 24.96 135.335 24.81 135.49 24.685C135.65 24.56 135.83 24.46 136.035 24.39C136.24 24.32 136.46 24.285 136.705 24.285C136.95 24.285 137.17 24.32 137.38 24.385C137.585 24.45 137.765 24.555 137.915 24.69C138.065 24.825 138.185 25 138.265 25.2C138.35 25.405 138.39 25.645 138.39 25.92C138.39 26.17 138.35 26.4 138.27 26.605C138.19 26.81 138.06 26.985 137.875 27.135C137.695 27.285 137.455 27.4 137.16 27.485C136.865 27.57 136.505 27.615 136.075 27.615V28.605C136.595 28.605 137.02 28.65 137.345 28.74C137.67 28.83 137.925 28.95 138.11 29.105C138.295 29.26 138.42 29.45 138.485 29.665C138.55 29.885 138.585 30.125 138.585 30.385C138.585 30.595 138.545 30.805 138.46 31.02C138.375 31.235 138.25 31.43 138.085 31.6C137.92 31.775 137.71 31.915 137.46 32.025C137.21 32.135 136.915 32.19 136.58 32.19C136.245 32.19 135.94 32.135 135.71 32.03C135.48 31.925 135.29 31.79 135.135 31.635C134.98 31.48 134.86 31.315 134.77 31.14C134.68 30.965 134.6 30.81 134.53 30.67C134.465 30.535 134.36 30.455 134.215 30.425C134.07 30.395 133.92 30.415 133.77 30.48L133.175 30.73C133.295 31.115 133.445 31.47 133.62 31.795C133.795 32.12 134.015 32.395 134.28 32.625C134.545 32.855 134.865 33.035 135.24 33.16C135.615 33.29 136.07 33.35 136.595 33.35C137.055 33.35 137.49 33.28 137.895 33.145C138.3 33.005 138.66 32.81 138.965 32.55C139.27 32.29 139.515 31.975 139.69 31.6C139.865 31.225 139.955 30.805 139.955 30.335C139.955 29.725 139.795 29.225 139.475 28.825L139.455 28.835Z" fill="white"></path>
</g>
<path id="Vector_24" d="M130.55 92.0049H116.02C114.454 92.0049 113.185 93.2742 113.185 94.8399V109.37C113.185 110.936 114.454 112.205 116.02 112.205H130.55C132.116 112.205 133.385 110.936 133.385 109.37V94.8399C133.385 93.2742 132.116 92.0049 130.55 92.0049Z" fill="#DDDDDD"></path>
<path id="Vector_25" d="M130.55 89.875H116.02C114.454 89.875 113.185 91.1443 113.185 92.71V107.24C113.185 108.806 114.454 110.075 116.02 110.075H130.55C132.116 110.075 133.385 108.806 133.385 107.24V92.71C133.385 91.1443 132.116 89.875 130.55 89.875Z" fill="#2BF5BA"></path>
<g id="Vector_26">
<path d="M121.31 99.7902C121.495 99.7302 121.665 99.6552 121.815 99.5602C121.965 99.4702 122.09 99.3552 122.195 99.2202C122.3 99.0852 122.38 98.9302 122.44 98.7552C122.5 98.5802 122.525 98.3752 122.525 98.1452C122.525 97.8702 122.475 97.6202 122.37 97.3952C122.265 97.1702 122.12 96.9752 121.935 96.8102C121.75 96.6452 121.525 96.5252 121.27 96.4352C121.01 96.3452 120.725 96.3052 120.415 96.3052C120.105 96.3052 119.815 96.3502 119.545 96.4352C119.275 96.5202 119.04 96.6502 118.835 96.8202C118.63 96.9902 118.455 97.2052 118.32 97.4602C118.185 97.7152 118.09 98.0052 118.04 98.3402L118.555 98.4302C118.69 98.4552 118.79 98.4452 118.865 98.4002C118.94 98.3552 118.995 98.2702 119.045 98.1452C119.08 98.0002 119.135 97.8702 119.21 97.7452C119.285 97.6202 119.38 97.5152 119.495 97.4252C119.61 97.3352 119.74 97.2652 119.885 97.2152C120.03 97.1652 120.19 97.1402 120.365 97.1402C120.54 97.1402 120.7 97.1652 120.845 97.2102C120.99 97.2552 121.12 97.3302 121.23 97.4302C121.34 97.5302 121.42 97.6502 121.48 97.7952C121.54 97.9402 121.57 98.1152 121.57 98.3102C121.57 98.4902 121.54 98.6552 121.485 98.8002C121.425 98.9452 121.335 99.0752 121.2 99.1802C121.07 99.2852 120.9 99.3702 120.69 99.4302C120.48 99.4902 120.22 99.5202 119.915 99.5252V100.235C120.29 100.235 120.59 100.265 120.825 100.33C121.06 100.395 121.24 100.48 121.37 100.595C121.5 100.705 121.59 100.84 121.64 100.995C121.685 101.15 121.71 101.325 121.71 101.51C121.71 101.66 121.68 101.81 121.62 101.965C121.56 102.12 121.47 102.255 121.35 102.38C121.23 102.505 121.08 102.605 120.9 102.685C120.72 102.765 120.51 102.805 120.27 102.805C120.03 102.805 119.81 102.765 119.645 102.69C119.48 102.615 119.34 102.52 119.23 102.41C119.12 102.3 119.03 102.18 118.965 102.055C118.9 101.93 118.84 101.815 118.795 101.715C118.75 101.62 118.675 101.56 118.57 101.54C118.465 101.52 118.36 101.535 118.25 101.58L117.825 101.76C117.91 102.035 118.02 102.29 118.145 102.52C118.27 102.75 118.425 102.95 118.615 103.115C118.805 103.28 119.035 103.41 119.305 103.5C119.575 103.59 119.9 103.64 120.275 103.64C120.605 103.64 120.915 103.59 121.21 103.495C121.5 103.395 121.755 103.255 121.98 103.07C122.2 102.885 122.375 102.66 122.5 102.39C122.625 102.12 122.69 101.82 122.69 101.48C122.69 101.045 122.575 100.685 122.345 100.395C122.115 100.11 121.77 99.9052 121.315 99.7802L121.31 99.7902Z" fill="white"></path>
<path d="M127.705 100.945V96.3802H126.785L123.315 100.995L123.415 101.495C123.43 101.56 123.465 101.61 123.515 101.65C123.565 101.69 123.625 101.71 123.7 101.71H126.85V103.56H127.705V101.71H128.535C128.6 101.71 128.655 101.69 128.69 101.65C128.725 101.61 128.745 101.56 128.745 101.505V100.94H127.705V100.945ZM126.855 97.8402C126.85 97.9502 126.845 98.0502 126.845 98.1502V100.95H124.37L126.885 97.5052C126.87 97.6202 126.86 97.7352 126.855 97.8402Z" fill="white"></path>
</g>
<path id="Vector_27" d="M57.8449 39.355C56.2799 39.355 55.0099 40.625 55.0099 42.19V56.72C55.0099 58.285 56.2799 59.555 57.8449 59.555H66.5299V39.355H57.8449Z" fill="#2AEDB4"></path>
<path id="Vector_28" d="M72.3799 59.555C73.9449 59.555 75.2149 58.285 75.2149 56.72V42.19C75.2149 40.625 73.9449 39.355 72.3799 39.355H70.9049V59.555H72.3799Z" fill="#EDEDED"></path>
<path id="Vector_29" d="M70.3999 39.355H67.0299V59.555H70.3999V39.355Z" fill="#DDDDDD"></path>
<path id="Vector_30" d="M72.3749 37.23H57.8449C56.2792 37.23 55.0099 38.4993 55.0099 40.065V54.595C55.0099 56.1607 56.2792 57.43 57.8449 57.43H72.3749C73.9406 57.43 75.2099 56.1607 75.2099 54.595V40.065C75.2099 38.4993 73.9406 37.23 72.3749 37.23Z" fill="#07064E"></path>
<g id="Vector_31">
<path d="M63.8899 43.0698H62.8099L58.7399 48.4848L58.8549 49.0698C58.8749 49.1448 58.9149 49.2048 58.9699 49.2548C59.0299 49.3048 59.0999 49.3298 59.1849 49.3298H62.8799V51.4998H63.8849V49.3298H64.8599C64.9399 49.3298 64.9999 49.3048 65.0399 49.2598C65.0849 49.2148 65.1049 49.1548 65.1049 49.0898V48.4248H63.8849V43.0698H63.8899ZM62.8949 44.7798C62.8899 44.9048 62.8849 45.0248 62.8849 45.1398V48.4248H59.9799L62.9299 44.3848C62.9099 44.5198 62.8999 44.6548 62.8899 44.7798H62.8949Z" fill="white"></path>
<path d="M71.3149 47.6298C71.1999 47.3198 71.0249 47.0498 70.7999 46.8198C70.5699 46.5898 70.2899 46.4098 69.9549 46.2798C69.6199 46.1498 69.2299 46.0848 68.7949 46.0848C68.4449 46.0848 68.0599 46.1298 67.6299 46.2198L67.9949 44.1298H70.5599C70.7999 44.1298 70.9749 44.0798 71.0799 43.9748C71.1849 43.8698 71.2349 43.7348 71.2349 43.5748V43.0748H67.1999L66.5149 47.0548L67.2349 47.2648C67.7049 47.1148 68.1449 47.0398 68.5599 47.0398C68.8549 47.0398 69.1149 47.0798 69.3399 47.1548C69.5649 47.2298 69.7499 47.3398 69.8949 47.4848C70.0449 47.6298 70.1549 47.8048 70.2299 48.0048C70.3049 48.2098 70.3399 48.4398 70.3399 48.6898C70.3399 48.9748 70.2999 49.2348 70.2149 49.4698C70.1299 49.7048 70.0099 49.9048 69.8499 50.0748C69.6899 50.2448 69.4999 50.3748 69.2699 50.4648C69.0399 50.5548 68.7849 50.6048 68.4999 50.6048C68.2399 50.6048 68.0199 50.5748 67.8299 50.5148C67.6399 50.4548 67.4799 50.3848 67.3449 50.3148C67.2099 50.2398 67.0899 50.1748 66.9899 50.1098C66.8899 50.0498 66.7999 50.0198 66.7149 50.0198C66.5899 50.0198 66.4899 50.0748 66.4149 50.1848L66.0649 50.6798C66.1999 50.7998 66.3499 50.9148 66.5199 51.0248C66.6899 51.1348 66.8749 51.2298 67.0749 51.3148C67.2749 51.3998 67.4899 51.4648 67.7149 51.5198C67.9449 51.5698 68.1849 51.5948 68.4399 51.5948C68.8699 51.5948 69.2699 51.5248 69.6449 51.3848C70.0199 51.2448 70.3399 51.0498 70.6149 50.7898C70.8899 50.5298 71.1049 50.2198 71.2599 49.8548C71.4149 49.4898 71.4949 49.0848 71.4949 48.6398C71.4949 48.2748 71.4349 47.9398 71.3199 47.6298H71.3149Z" fill="white"></path>
</g>
<path id="Vector_32" d="M90.3199 98.2749H82.5099C80.9442 98.2749 79.6749 99.5442 79.6749 101.11V108.92C79.6749 110.486 80.9442 111.755 82.5099 111.755H90.3199C91.8857 111.755 93.1549 110.486 93.1549 108.92V101.11C93.1549 99.5442 91.8857 98.2749 90.3199 98.2749Z" fill="#DDDDDD"></path>
<path id="Vector_33" d="M90.3199 96.1499H82.5099C80.9442 96.1499 79.6749 97.4192 79.6749 98.9849V106.795C79.6749 108.361 80.9442 109.63 82.5099 109.63H90.3199C91.8857 109.63 93.1549 108.361 93.1549 106.795V98.9849C93.1549 97.4192 91.8857 96.1499 90.3199 96.1499Z" fill="#07064E"></path>
<g id="Vector_34">
<path d="M85.2449 102.785C85.4899 102.69 85.6749 102.55 85.7999 102.365C85.9249 102.18 85.9849 101.96 85.9849 101.7C85.9849 101.52 85.9499 101.355 85.8799 101.2C85.8099 101.045 85.7099 100.91 85.5849 100.8C85.4549 100.685 85.3049 100.6 85.1249 100.535C84.9449 100.47 84.7449 100.44 84.5299 100.44C84.3149 100.44 84.1149 100.47 83.9349 100.535C83.7549 100.6 83.5999 100.69 83.4749 100.8C83.3499 100.91 83.2499 101.045 83.1799 101.2C83.1099 101.355 83.0749 101.52 83.0749 101.7C83.0749 101.955 83.1349 102.175 83.2599 102.365C83.3849 102.55 83.5699 102.69 83.8149 102.785C83.5149 102.875 83.2899 103.02 83.1349 103.215C82.9799 103.415 82.9049 103.665 82.9049 103.965C82.9049 104.175 82.9449 104.365 83.0249 104.53C83.1049 104.7 83.2149 104.845 83.3599 104.96C83.5049 105.08 83.6749 105.17 83.8749 105.235C84.0749 105.3 84.2949 105.33 84.5349 105.33C84.7749 105.33 84.9949 105.3 85.1949 105.235C85.3949 105.17 85.5649 105.08 85.7099 104.96C85.8549 104.84 85.9649 104.695 86.0449 104.53C86.1249 104.36 86.1649 104.17 86.1649 103.965C86.1649 103.665 86.0899 103.41 85.9349 103.215C85.7799 103.015 85.5549 102.875 85.2549 102.785H85.2449ZM83.7449 102.025C83.7149 101.925 83.6999 101.825 83.6999 101.72C83.6999 101.615 83.7149 101.515 83.7499 101.42C83.7849 101.325 83.8349 101.245 83.9049 101.175C83.9749 101.105 84.0599 101.05 84.1649 101.005C84.2699 100.965 84.3899 100.945 84.5249 100.945C84.6599 100.945 84.7849 100.965 84.8849 101.005C84.9899 101.045 85.0749 101.1 85.1449 101.175C85.2149 101.245 85.2649 101.33 85.2999 101.42C85.3349 101.515 85.3499 101.615 85.3499 101.72C85.3499 101.825 85.3349 101.925 85.3049 102.025C85.2749 102.125 85.2249 102.21 85.1599 102.29C85.0949 102.365 85.0099 102.43 84.9049 102.475C84.7999 102.52 84.6699 102.545 84.5249 102.545C84.3799 102.545 84.2449 102.52 84.1399 102.475C84.0349 102.43 83.9499 102.365 83.8849 102.29C83.8199 102.215 83.7699 102.125 83.7399 102.025H83.7449ZM85.4149 104.305C85.3749 104.41 85.3099 104.505 85.2299 104.58C85.1449 104.655 85.0499 104.715 84.9299 104.76C84.8099 104.8 84.6799 104.825 84.5249 104.825C84.3699 104.825 84.2399 104.805 84.1199 104.76C83.9999 104.715 83.8999 104.66 83.8199 104.58C83.7349 104.505 83.6749 104.41 83.6349 104.305C83.5949 104.2 83.5699 104.08 83.5699 103.955C83.5699 103.8 83.5949 103.665 83.6449 103.555C83.6949 103.445 83.7649 103.35 83.8499 103.28C83.9349 103.21 84.0399 103.155 84.1549 103.12C84.2699 103.085 84.3949 103.07 84.5249 103.07C84.6549 103.07 84.7749 103.085 84.8899 103.12C85.0049 103.155 85.1049 103.21 85.1949 103.28C85.2799 103.35 85.3499 103.445 85.3999 103.555C85.4499 103.665 85.4749 103.8 85.4749 103.955C85.4749 104.08 85.4549 104.2 85.4099 104.305H85.4149Z" fill="white"></path>
<path d="M89.8249 101.365C89.7499 101.175 89.6499 101.01 89.5149 100.875C89.3799 100.74 89.2199 100.63 89.0299 100.555C88.8399 100.48 88.6299 100.44 88.3949 100.44C88.1599 100.44 87.9449 100.48 87.7449 100.56C87.5499 100.64 87.3799 100.745 87.2399 100.885C87.0999 101.02 86.9899 101.185 86.9099 101.365C86.8299 101.55 86.7949 101.745 86.7949 101.955C86.7949 102.18 86.8299 102.375 86.9049 102.545C86.9799 102.715 87.0749 102.86 87.1999 102.975C87.3249 103.09 87.4649 103.18 87.6249 103.24C87.7849 103.3 87.9549 103.33 88.1299 103.33C88.2949 103.33 88.4549 103.305 88.5999 103.26C88.7499 103.215 88.8799 103.145 88.9999 103.055C88.9249 103.165 88.8449 103.275 88.7549 103.39L87.2899 105.285H87.8849C87.9599 105.285 88.0299 105.27 88.0849 105.24C88.1399 105.21 88.1899 105.175 88.2199 105.13L89.3699 103.48C89.4549 103.36 89.5349 103.24 89.5999 103.12C89.6699 103.005 89.7249 102.885 89.7749 102.765C89.8249 102.645 89.8599 102.52 89.8849 102.395C89.9099 102.27 89.9249 102.135 89.9249 101.995C89.9249 101.765 89.8899 101.555 89.8149 101.365H89.8249ZM89.2449 102.265C89.2049 102.375 89.1399 102.47 89.0599 102.555C88.9799 102.64 88.8799 102.705 88.7599 102.755C88.6399 102.805 88.5049 102.83 88.3549 102.83C88.0699 102.83 87.8499 102.75 87.6899 102.59C87.5299 102.43 87.4499 102.2 87.4499 101.905C87.4499 101.77 87.4699 101.645 87.5149 101.53C87.5599 101.415 87.6249 101.32 87.7049 101.235C87.7899 101.155 87.8849 101.09 87.9999 101.045C88.1149 101 88.2449 100.975 88.3849 100.975C88.5249 100.975 88.6449 100.995 88.7549 101.04C88.8699 101.085 88.9649 101.145 89.0449 101.225C89.1249 101.305 89.1899 101.405 89.2349 101.52C89.2799 101.635 89.3049 101.765 89.3049 101.91C89.3049 102.03 89.2849 102.145 89.2399 102.255L89.2449 102.265Z" fill="white"></path>
</g>
<path id="Vector_35" d="M86.0499 73.2448H89.0899V71.5098C89.0899 69.9448 87.8199 68.6748 86.2549 68.6748H78.0649C76.4999 68.6748 75.2299 69.9448 75.2299 71.5098V79.6998C75.2299 81.2648 76.4999 82.5348 78.0649 82.5348H85.7999V73.4948C85.7999 73.3548 85.9099 73.2448 86.0499 73.2448Z" fill="#EDEDED"></path>
<path id="Vector_36" d="M86.9999 74.4446H89.0899V73.7446H86.2999V82.3696H87.2049C87.6199 82.2196 87.9899 81.9796 88.2899 81.6696H86.9999V74.4446Z" fill="#EDEDED"></path>
<path id="Vector_37" d="M87.4999 81.1698H88.6699C88.9299 80.7398 89.0899 80.2398 89.0899 79.6998V74.9448H87.4999V81.1698Z" fill="#DDDDDD"></path>
<path id="Vector_38" d="M86.2549 66.5498H78.0649C76.4991 66.5498 75.2299 67.8191 75.2299 69.3848V77.5748C75.2299 79.1405 76.4991 80.4098 78.0649 80.4098H86.2549C87.8206 80.4098 89.0899 79.1405 89.0899 77.5748V69.3848C89.0899 67.8191 87.8206 66.5498 86.2549 66.5498Z" fill="#2BF5BA"></path>
<g id="Vector_39">
<path d="M80.3899 70.5798H79.7499L78.0199 72.0748L78.2649 72.4148C78.2649 72.4148 78.2999 72.4498 78.3249 72.4698C78.3499 72.4898 78.3799 72.4998 78.4149 72.5048C78.4499 72.5098 78.4849 72.5048 78.5199 72.5048C78.5599 72.4948 78.5949 72.4798 78.6349 72.4498L79.6149 71.6148C79.6049 71.7448 79.6049 71.8698 79.6049 71.9898V75.7748H78.3799V76.3748H81.5049V75.7748H80.3899V70.5798Z" fill="white"></path>
<path d="M86.0199 73.8248C85.8349 73.5948 85.5599 73.4298 85.1899 73.3298C85.3399 73.2798 85.4749 73.2198 85.5949 73.1448C85.7149 73.0698 85.8199 72.9798 85.9049 72.8748C85.9899 72.7698 86.0549 72.6448 86.0999 72.4998C86.1449 72.3598 86.1699 72.1948 86.1699 72.0098C86.1699 71.7898 86.1299 71.5898 86.0449 71.4048C85.9599 71.2248 85.8449 71.0648 85.6949 70.9348C85.5449 70.8048 85.3649 70.7048 85.1599 70.6348C84.9499 70.5648 84.7199 70.5298 84.4699 70.5298C84.2199 70.5298 83.9899 70.5648 83.7699 70.6348C83.5549 70.7048 83.3649 70.8098 83.1949 70.9448C83.0299 71.0848 82.8899 71.2548 82.7799 71.4598C82.6699 71.6648 82.5949 71.8998 82.5549 72.1698L82.9699 72.2448C83.0749 72.2648 83.1599 72.2548 83.2199 72.2198C83.2799 72.1848 83.3249 72.1148 83.3649 72.0148C83.3899 71.8998 83.4349 71.7898 83.4999 71.6948C83.5599 71.5948 83.6399 71.5098 83.7299 71.4348C83.8199 71.3648 83.9249 71.3048 84.0449 71.2648C84.1649 71.2248 84.2899 71.2048 84.4299 71.2048C84.5699 71.2048 84.6999 71.2248 84.8199 71.2648C84.9399 71.3048 85.0449 71.3648 85.1299 71.4398C85.2149 71.5198 85.2849 71.6198 85.3349 71.7348C85.3849 71.8548 85.4049 71.9898 85.4049 72.1498C85.4049 72.2948 85.3799 72.4248 85.3349 72.5448C85.2899 72.6648 85.2099 72.7648 85.1049 72.8498C84.9999 72.9348 84.8649 73.0048 84.6949 73.0498C84.5249 73.0948 84.3149 73.1248 84.0699 73.1248V73.6948C84.3699 73.6948 84.6149 73.7198 84.7999 73.7698C84.9899 73.8198 85.1349 73.8898 85.2399 73.9798C85.3449 74.0698 85.4199 74.1798 85.4549 74.3048C85.4949 74.4298 85.5099 74.5698 85.5099 74.7198C85.5099 74.8398 85.4849 74.9648 85.4349 75.0848C85.3849 75.2098 85.3149 75.3198 85.2149 75.4198C85.1199 75.5198 84.9999 75.6048 84.8549 75.6648C84.7099 75.7298 84.5399 75.7598 84.3499 75.7598C84.1599 75.7598 83.9799 75.7298 83.8499 75.6648C83.7149 75.6048 83.6049 75.5248 83.5199 75.4398C83.4299 75.3498 83.3599 75.2548 83.3099 75.1548C83.2599 75.0548 83.2099 74.9648 83.1699 74.8848C83.1299 74.8098 83.0699 74.7598 82.9899 74.7448C82.9049 74.7298 82.8199 74.7398 82.7349 74.7748L82.3949 74.9198C82.4649 75.1398 82.5499 75.3448 82.6499 75.5348C82.7499 75.7198 82.8749 75.8798 83.0299 76.0148C83.1849 76.1498 83.3699 76.2498 83.5849 76.3248C83.8049 76.3998 84.0649 76.4348 84.3649 76.4348C84.6299 76.4348 84.8799 76.3948 85.1149 76.3148C85.3499 76.2348 85.5549 76.1198 85.7349 75.9748C85.9099 75.8248 86.0499 75.6448 86.1549 75.4298C86.2549 75.2148 86.3099 74.9698 86.3099 74.6998C86.3099 74.3498 86.2149 74.0598 86.0299 73.8298L86.0199 73.8248Z" fill="white"></path>
</g>
<path id="Vector_40" d="M139.03 58.9298V72.1298C140.275 71.8298 141.2 70.7148 141.2 69.3748V61.6798C141.2 60.3448 140.275 59.2248 139.03 58.9248V58.9298Z" fill="#2AEDB4"></path>
<path id="Vector_41" d="M138.345 58.8497H135.16V72.2147H138.345C138.4 72.2147 138.455 72.2097 138.51 72.2047V58.8547C138.455 58.8547 138.4 58.8447 138.345 58.8447V58.8497Z" fill="#DDDDDD"></path>
<path id="Vector_42" d="M127.835 61.6851V69.3801C127.835 70.9451 129.105 72.2151 130.67 72.2151H134.66V58.8501H130.67C129.105 58.8501 127.835 60.1201 127.835 61.6851Z" fill="#EDEDED"></path>
<path id="Vector_43" d="M138.365 56.7197H130.67C129.104 56.7197 127.835 57.989 127.835 59.5547V67.2497C127.835 68.8155 129.104 70.0847 130.67 70.0847H138.365C139.931 70.0847 141.2 68.8155 141.2 67.2497V59.5547C141.2 57.989 139.931 56.7197 138.365 56.7197Z" fill="#2BF5BA"></path>
<g id="Vector_44">
<path d="M133.585 60.93C133.42 60.76 133.215 60.63 132.98 60.535C132.745 60.44 132.48 60.395 132.19 60.395C131.9 60.395 131.625 60.445 131.38 60.54C131.135 60.64 130.925 60.77 130.75 60.945C130.575 61.115 130.44 61.315 130.34 61.545C130.245 61.775 130.195 62.02 130.195 62.28C130.195 62.555 130.24 62.8 130.33 63.015C130.42 63.23 130.545 63.41 130.695 63.555C130.85 63.7 131.025 63.81 131.225 63.885C131.425 63.96 131.635 63.995 131.855 63.995C132.075 63.995 132.26 63.965 132.445 63.91C132.63 63.85 132.795 63.765 132.945 63.655C132.85 63.79 132.75 63.93 132.64 64.07L130.815 66.43H131.56C131.655 66.43 131.74 66.41 131.81 66.375C131.885 66.34 131.94 66.295 131.98 66.24L133.415 64.185C133.525 64.035 133.62 63.885 133.705 63.74C133.79 63.595 133.86 63.445 133.92 63.3C133.98 63.15 134.025 62.995 134.055 62.84C134.085 62.68 134.105 62.515 134.105 62.34C134.105 62.055 134.06 61.795 133.97 61.555C133.88 61.315 133.75 61.115 133.585 60.945V60.93ZM133.245 62.665C133.19 62.8 133.115 62.925 133.015 63.025C132.915 63.13 132.79 63.21 132.645 63.275C132.5 63.335 132.33 63.37 132.14 63.37C131.785 63.37 131.51 63.27 131.31 63.07C131.11 62.87 131.01 62.585 131.01 62.22C131.01 62.05 131.04 61.895 131.095 61.755C131.15 61.615 131.23 61.49 131.33 61.39C131.435 61.29 131.555 61.21 131.7 61.15C131.845 61.095 132.005 61.065 132.175 61.065C132.345 61.065 132.5 61.09 132.64 61.145C132.78 61.2 132.9 61.275 133.005 61.38C133.105 61.48 133.185 61.605 133.245 61.75C133.3 61.895 133.33 62.06 133.33 62.24C133.33 62.39 133.305 62.535 133.25 62.67L133.245 62.665Z" fill="white"></path>
<path d="M137.695 60.445H137.035L135.25 61.985L135.505 62.34C135.505 62.34 135.545 62.38 135.57 62.395C135.595 62.415 135.625 62.425 135.66 62.43C135.695 62.435 135.73 62.43 135.77 62.43C135.81 62.42 135.85 62.4 135.885 62.37L136.9 61.51C136.89 61.645 136.885 61.77 136.885 61.895V65.805H135.625V66.425H138.845V65.805H137.695V60.445Z" fill="white"></path>
</g>
</g>
</g>
</g>
<defs>
<clipPath id="clip0_70_5476">
<rect width="200" height="140" fill="white"></rect>
</clipPath>
</defs>
</svg>