<svg width="200" height="140" viewBox="0 0 200 140" fill="none" xmlns="http://www.w3.org/2000/svg">
<g id="illu_spot_one-answer-method/Default" clip-path="url(#clip0_77_280)">
<g id="illu_spot_one-answer-method">
<g id="background">
<path d="M20.0549 110.205C16.3299 115.11 10.2449 116.335 6.46493 112.945C2.68493 109.55 2.64493 102.825 6.36993 97.9201C10.0949 93.0151 16.1799 91.7901 19.9599 95.1801C23.7399 98.5751 23.7799 105.3 20.0549 110.205Z" fill="#2BF5BA"></path>
<path d="M12.1649 84.1901C12.8699 85.6101 12.2699 87.4451 10.8249 88.2951C9.37993 89.1451 7.63993 88.6801 6.92993 87.2651C6.22493 85.8451 6.82493 84.0101 8.26993 83.1601C9.71493 82.3101 11.4549 82.7751 12.1649 84.1901Z" fill="#2BF5BA"></path>
<path d="M165.73 10.0001C202.695 23.3801 208.625 55.8001 184.445 86.9501C153.29 127.085 130.855 133.065 83.8949 133.2C50.9099 133.295 24.8299 120.76 32.2449 93.7301C39.6849 66.6151 1.81493 60.9751 1.05493 30.5501C0.584933 11.6401 22.0499 1.52509 51.6649 9.6001C134.28 32.1201 129.925 -2.95991 165.73 10.0001Z" fill="#2BF5BA"></path>
</g>
<g id="illu_spot_one-answer-method">
<g id="stroke">
<path id="Vector" d="M140.4 33.6602H58.23C54.9163 33.6602 52.23 36.3464 52.23 39.6602V105.795C52.23 109.109 54.9163 111.795 58.23 111.795H140.4C143.714 111.795 146.4 109.109 146.4 105.795V39.6602C146.4 36.3464 143.714 33.6602 140.4 33.6602Z" fill="#2AEDB4"></path>
<path id="Vector_2" d="M140.4 31.5352H58.23C54.9163 31.5352 52.23 34.2214 52.23 37.5352V103.67C52.23 106.984 54.9163 109.67 58.23 109.67H140.4C143.714 109.67 146.4 106.984 146.4 103.67V37.5352C146.4 34.2214 143.714 31.5352 140.4 31.5352Z" fill="white"></path>
<path id="Vector_3" d="M56.765 31.5352H141.87C144.37 31.5352 146.4 33.5652 146.4 36.0652V42.8252H52.23V36.0652C52.23 33.5652 54.26 31.5352 56.76 31.5352H56.765Z" fill="#07064E"></path>
<path id="Vector_4" d="M128.945 39.9404C130.469 39.9404 131.705 38.7047 131.705 37.1804C131.705 35.6561 130.469 34.4204 128.945 34.4204C127.421 34.4204 126.185 35.6561 126.185 37.1804C126.185 38.7047 127.421 39.9404 128.945 39.9404Z" fill="white"></path>
<path id="Vector_5" d="M136.945 39.9404C138.469 39.9404 139.705 38.7047 139.705 37.1804C139.705 35.6561 138.469 34.4204 136.945 34.4204C135.421 34.4204 134.185 35.6561 134.185 37.1804C134.185 38.7047 135.421 39.9404 136.945 39.9404Z" fill="#2BF5BA"></path>
<g id="Vector_6">
<path d="M78.9948 61.4902H63.5098C61.9441 61.4902 60.6748 62.7595 60.6748 64.3252V79.8102C60.6748 81.376 61.9441 82.6452 63.5098 82.6452H78.9948C80.5605 82.6452 81.8298 81.376 81.8298 79.8102V64.3252C81.8298 62.7595 80.5605 61.4902 78.9948 61.4902Z" fill="#2BF5BA"></path>
<path d="M107.055 61.4902H91.5698C90.0041 61.4902 88.7348 62.7595 88.7348 64.3252V79.8102C88.7348 81.376 90.0041 82.6452 91.5698 82.6452H107.055C108.621 82.6452 109.89 81.376 109.89 79.8102V64.3252C109.89 62.7595 108.621 61.4902 107.055 61.4902Z" fill="#2BF5BA"></path>
</g>
<path id="Vector_7" d="M135.12 63.6206H119.635C118.069 63.6206 116.8 64.8899 116.8 66.4556V81.9406C116.8 83.5063 118.069 84.7756 119.635 84.7756H135.12C136.686 84.7756 137.955 83.5063 137.955 81.9406V66.4556C137.955 64.8899 136.686 63.6206 135.12 63.6206Z" fill="#EDEDED"></path>
<path id="Vector_8" d="M135.12 61.4902H119.635C118.069 61.4902 116.8 62.7595 116.8 64.3252V79.8102C116.8 81.376 118.069 82.6452 119.635 82.6452H135.12C136.686 82.6452 137.955 81.376 137.955 79.8102V64.3252C137.955 62.7595 136.686 61.4902 135.12 61.4902Z" fill="#07064E"></path>
<g id="Vector_9">
<path d="M77.5548 78.8001H76.1448C75.9798 78.8001 75.8498 78.7601 75.7498 78.6801C75.6498 78.6001 75.5748 78.4951 75.5248 78.3701L74.2648 75.1201H68.2248L66.9648 78.3701C66.9248 78.4851 66.8548 78.5851 66.7498 78.6701C66.6448 78.7601 66.5098 78.8001 66.3548 78.8001H64.9448L70.3248 65.3451H72.1648L77.5448 78.8001H77.5548ZM73.7598 73.8051L71.6448 68.3301C71.5798 68.1651 71.5148 67.9751 71.4498 67.7601C71.3798 67.5451 71.3148 67.3151 71.2498 67.0701C71.1198 67.5801 70.9848 68.0001 70.8448 68.3401L68.7298 73.8051H73.7598Z" fill="white"></path>
<path d="M98.8648 65.3401C99.6898 65.3401 100.405 65.4201 101 65.5851C101.6 65.7501 102.09 65.9801 102.475 66.2801C102.86 66.5801 103.145 66.9501 103.325 67.3851C103.505 67.8201 103.595 68.3101 103.595 68.8551C103.595 69.1901 103.545 69.5051 103.44 69.8101C103.335 70.1151 103.18 70.3951 102.975 70.6601C102.77 70.9251 102.505 71.1601 102.19 71.3701C101.875 71.5801 101.505 71.7501 101.075 71.8801C102.065 72.0701 102.805 72.4201 103.305 72.9351C103.805 73.4501 104.05 74.1301 104.05 74.9701C104.05 75.5401 103.945 76.0601 103.735 76.5301C103.525 77.0001 103.22 77.4051 102.815 77.7401C102.41 78.0801 101.915 78.3401 101.325 78.5251C100.735 78.7101 100.065 78.8001 99.3148 78.8001H94.5648V65.3451H98.8548L98.8648 65.3401ZM96.3848 66.7801V71.3701H98.7898C99.3048 71.3701 99.7498 71.3151 100.13 71.2001C100.51 71.0851 100.82 70.9301 101.07 70.7301C101.315 70.5301 101.5 70.2851 101.62 70.0001C101.74 69.7151 101.8 69.4051 101.8 69.0651C101.8 68.2701 101.56 67.6901 101.085 67.3251C100.61 66.9601 99.8698 66.7751 98.8698 66.7751H96.3898L96.3848 66.7801ZM99.2948 77.3501C99.8148 77.3501 100.26 77.2901 100.64 77.1701C101.015 77.0501 101.325 76.8851 101.565 76.6701C101.805 76.4551 101.985 76.1951 102.095 75.9001C102.21 75.6001 102.265 75.2751 102.265 74.9201C102.265 74.2251 102.02 73.6751 101.525 73.2701C101.03 72.8651 100.29 72.6651 99.2998 72.6651H96.3898V77.3501H99.2998H99.2948Z" fill="white"></path>
<path d="M132.02 76.0201C132.12 76.0201 132.21 76.0601 132.285 76.1401L133.01 76.9201C132.46 77.5601 131.79 78.0551 131.005 78.4151C130.22 78.7701 129.27 78.9501 128.155 78.9501C127.19 78.9501 126.315 78.7801 125.525 78.4501C124.735 78.1151 124.065 77.6451 123.505 77.0401C122.95 76.4351 122.515 75.7101 122.21 74.8651C121.905 74.0201 121.75 73.0901 121.75 72.0751C121.75 71.0601 121.91 70.1301 122.23 69.2851C122.55 68.4401 123 67.7151 123.58 67.1051C124.16 66.5001 124.85 66.0251 125.66 65.6901C126.465 65.3551 127.36 65.1851 128.335 65.1851C129.31 65.1851 130.14 65.3401 130.87 65.6451C131.6 65.9501 132.245 66.3701 132.805 66.8951L132.205 67.7301C132.165 67.7951 132.12 67.8451 132.06 67.8851C132 67.9251 131.92 67.9451 131.82 67.9451C131.705 67.9451 131.57 67.8851 131.405 67.7601C131.24 67.6401 131.03 67.5001 130.765 67.3501C130.5 67.2001 130.175 67.0651 129.78 66.9401C129.385 66.8201 128.9 66.7551 128.325 66.7551C127.63 66.7551 126.995 66.8751 126.42 67.1151C125.845 67.3551 125.35 67.7051 124.93 68.1601C124.515 68.6201 124.19 69.1751 123.96 69.8301C123.73 70.4901 123.615 71.2301 123.615 72.0551C123.615 72.8801 123.735 73.6401 123.975 74.3001C124.215 74.9601 124.545 75.5151 124.96 75.9651C125.375 76.4201 125.87 76.7651 126.435 77.0051C127 77.2451 127.615 77.3601 128.27 77.3601C128.67 77.3601 129.03 77.3351 129.355 77.2901C129.675 77.2401 129.975 77.1701 130.245 77.0701C130.515 76.9701 130.77 76.8451 131.005 76.6901C131.24 76.5351 131.475 76.3551 131.705 76.1401C131.81 76.0451 131.92 76.0001 132.025 76.0001L132.02 76.0201Z" fill="white"></path>
</g>
<path id="Vector_10" d="M152.695 92.4901C152.635 92.3301 152.565 92.1901 152.45 92.0301L146.895 84.2251C146.77 84.0501 146.595 83.9251 146.395 83.8501V100.42C146.73 100.3 147.055 100.14 147.36 99.9201L151.24 97.1551C152.73 96.0951 153.31 94.1151 152.69 92.4851L152.695 92.4901Z" fill="#2AEDB4"></path>
<path id="Vector_11" d="M146.4 83.8503C145.945 83.6703 145.36 83.7403 144.865 84.0953C144.165 84.5953 143.925 85.4503 144.31 86.0303C143.89 85.4753 143 85.4203 142.3 85.9203C141.6 86.4203 141.36 87.2753 141.745 87.8553C141.325 87.3003 140.435 87.2453 139.735 87.7453C139.045 88.2353 138.805 89.0753 139.165 89.6553L134.785 83.5053C134.28 82.7953 133.295 82.6303 132.585 83.1353C131.875 83.6403 131.71 84.6253 132.215 85.3353L140.3 96.6953L136.625 96.0753C135.765 95.9303 134.95 96.5103 134.81 97.3703C134.665 98.2303 135.245 99.0453 136.105 99.1853L144.12 100.535C144.325 100.585 144.53 100.62 144.74 100.64H144.78C144.92 100.67 145.06 100.67 145.2 100.655C145.605 100.645 146.005 100.565 146.395 100.425V83.8553L146.4 83.8503Z" fill="#EDEDED"></path>
<path id="Vector_12" d="M146.895 82.1053C146.485 81.5253 145.575 81.4653 144.865 81.9703C144.165 82.4703 143.925 83.3253 144.31 83.9053C143.89 83.3503 143 83.2953 142.3 83.7953C141.6 84.2953 141.36 85.1503 141.745 85.7303C141.325 85.1753 140.435 85.1203 139.735 85.6203C139.045 86.1103 138.805 86.9503 139.165 87.5303L134.785 81.3803C134.28 80.6703 133.295 80.5053 132.585 81.0103C131.875 81.5153 131.71 82.5003 132.215 83.2103L140.3 94.5703L136.625 93.9503C135.765 93.8053 134.95 94.3853 134.81 95.2453C134.665 96.1053 135.245 96.9203 136.105 97.0603L144.12 98.4103C144.325 98.4603 144.53 98.4953 144.74 98.5153H144.78C144.92 98.5453 145.06 98.5453 145.2 98.5303C145.95 98.5103 146.705 98.2703 147.365 97.8053L151.245 95.0453C152.735 93.9853 153.315 92.0053 152.695 90.3753C152.635 90.2153 152.565 90.0753 152.45 89.9153L146.895 82.1103V82.1053Z" fill="white"></path>
<path id="Vector_13" d="M145.01 98.7903C144.92 98.7903 144.83 98.7852 144.74 98.7702C144.495 98.7452 144.275 98.7102 144.055 98.6552L136.06 97.3102C135.58 97.2302 135.16 96.9653 134.875 96.5702C134.59 96.1702 134.48 95.6903 134.56 95.2053C134.725 94.2103 135.67 93.5403 136.665 93.7053L139.745 94.2252L132.01 83.3553C131.725 82.9553 131.615 82.4752 131.695 81.9902C131.775 81.5052 132.04 81.0903 132.435 80.8053C132.83 80.5203 133.315 80.4102 133.8 80.4902C134.28 80.5702 134.7 80.8353 134.985 81.2303L138.785 86.5703C138.885 86.1353 139.16 85.7153 139.585 85.4153C140.135 85.0253 140.785 84.9302 141.305 85.1152C141.3 84.5602 141.6 83.9802 142.15 83.5902C142.7 83.2002 143.35 83.1053 143.87 83.2903C143.865 82.7353 144.165 82.1552 144.715 81.7652C145.105 81.4852 145.56 81.3552 146.005 81.3802C146.465 81.4102 146.855 81.6152 147.095 81.9602L152.65 89.7653C152.77 89.9353 152.855 90.0953 152.925 90.2853C153.595 92.0503 152.95 94.1353 151.385 95.2453L147.505 98.0103C146.83 98.4903 146.035 98.7603 145.205 98.7853C145.135 98.7903 145.07 98.7952 145.005 98.7952L145.01 98.7903ZM136.37 94.1753C135.735 94.1753 135.17 94.6353 135.06 95.2802C135 95.6302 135.08 95.9802 135.29 96.2702C135.495 96.5602 135.8 96.7502 136.15 96.8102L144.165 98.1603C144.375 98.2103 144.57 98.2453 144.765 98.2603C144.77 98.2603 144.82 98.2702 144.83 98.2702C144.93 98.2852 145.045 98.2903 145.18 98.2753C145.925 98.2553 146.625 98.0153 147.225 97.5953L151.105 94.8303C152.485 93.8503 153.055 92.0052 152.465 90.4502C152.41 90.3002 152.345 90.1802 152.25 90.0452L146.695 82.2402C146.54 82.0202 146.285 81.8903 145.98 81.8703C145.65 81.8503 145.31 81.9553 145.015 82.1653C144.435 82.5803 144.215 83.2953 144.525 83.7603C144.6 83.8703 144.57 84.0252 144.46 84.1002C144.35 84.1802 144.195 84.1552 144.115 84.0452C143.775 83.6002 143.03 83.5753 142.45 83.9853C141.87 84.4003 141.65 85.1153 141.96 85.5803C142.035 85.6903 142.005 85.8452 141.895 85.9202C141.785 86.0002 141.63 85.9752 141.55 85.8652C141.21 85.4202 140.465 85.3953 139.885 85.8053C139.31 86.2153 139.09 86.9053 139.385 87.3753C139.455 87.4903 139.425 87.6402 139.31 87.7152C139.2 87.7902 139.045 87.7603 138.965 87.6503L134.585 81.5003C134.38 81.2103 134.075 81.0202 133.725 80.9602C133.375 80.9002 133.025 80.9803 132.735 81.1903C132.445 81.3953 132.255 81.7003 132.195 82.0503C132.135 82.4003 132.215 82.7503 132.425 83.0403L140.51 94.4003C140.57 94.4853 140.57 94.5903 140.52 94.6803C140.47 94.7703 140.37 94.8152 140.265 94.7952L136.59 94.1753C136.515 94.1603 136.44 94.1552 136.37 94.1552V94.1753Z" fill="#07064E"></path>
</g>
</g>
</g>
</g>
<defs>
<clipPath id="clip0_77_280">
<rect width="200" height="140" fill="white"></rect>
</clipPath>
</defs>
</svg>