<svg width="200" height="140" viewBox="0 0 200 140" fill="none" xmlns="http://www.w3.org/2000/svg">
<g id="illu_spot_report-pdf-none/Default" clip-path="url(#clip0_70_4507)">
<g id="illu_spot_report-pdf-none">
<g id="Vector">
<path d="M12.46 31.5401C6.3 31.4551 1.705 27.2851 2.19 22.2301C2.675 17.1751 8.065 13.1501 14.225 13.2351C20.385 13.3201 24.98 17.4901 24.495 22.5451C24.01 27.6001 18.62 31.6251 12.46 31.5401Z" fill="#2BF5BA"></path>
<path d="M188.645 58.7551C192.169 58.7551 195.025 55.8986 195.025 52.3751C195.025 48.8515 192.169 45.9951 188.645 45.9951C185.121 45.9951 182.265 48.8515 182.265 52.3751C182.265 55.8986 185.121 58.7551 188.645 58.7551Z" fill="#2BF5BA"></path>
<path d="M190.28 37.0451C191.68 37.0451 192.815 35.9101 192.815 34.5101C192.815 33.11 191.68 31.9751 190.28 31.9751C188.88 31.9751 187.745 33.11 187.745 34.5101C187.745 35.9101 188.88 37.0451 190.28 37.0451Z" fill="#2BF5BA"></path>
<path d="M28.71 9.74506C27.985 11.1551 26.15 11.7651 24.61 11.1051C23.07 10.4451 22.405 8.77006 23.13 7.36006C23.855 5.95006 25.69 5.34006 27.23 6.00006C28.77 6.66006 29.435 8.33506 28.71 9.74506Z" fill="#2BF5BA"></path>
<path d="M38.66 136.325C0.284996 127.795 -3.41 76.5751 16.575 42.5851C42.33 -1.21494 96.04 2.89506 124.73 5.84006C157.54 9.20506 183.82 10.3651 178.965 37.9751C172.705 73.5851 196.65 58.9451 197.825 94.0501C198.46 112.96 181.84 126.995 151.18 128.445C74.255 132.085 75.825 144.585 38.655 136.325H38.66Z" fill="#2BF5BA"></path>
</g>
<g id="illu_spot_report-pdf-none_2">
<g id="stroke">
<path id="Vector_2" d="M129.985 114.485H69.92V29.7651H116.52L129.985 43.2351V114.485Z" fill="#2AEDB4"></path>
<path id="Vector_3" d="M129.985 112.36H69.92V27.6401H116.52L129.985 41.1101V112.36Z" fill="white"></path>
<path id="Vector_4" d="M116.52 99.7051C108.02 108.205 96.82 103.17 76.19 109.88C70.85 112.105 70.015 112.36 70.015 112.36H130.08V42.4451C124.635 71.7951 128.21 87.6001 116.52 99.7051Z" fill="#EDEDED"></path>
<path id="Vector_5" d="M129.985 43.235H120.595C118.345 43.235 116.52 41.41 116.52 39.16V29.77L129.99 41.11V43.235H129.985Z" fill="#EDEDED"></path>
<path id="Vector_6" d="M129.985 41.11H120.595C118.345 41.11 116.52 39.285 116.52 37.035V27.645L129.99 41.115L129.985 41.11Z" fill="white"></path>
<g id="Vector_7">
<path d="M120.49 61.4451H79.7599C79.6199 61.4451 79.5099 61.3351 79.5099 61.1951C79.5099 61.0551 79.6199 60.9451 79.7599 60.9451H120.49C120.63 60.9451 120.74 61.0551 120.74 61.1951C120.74 61.3351 120.63 61.4451 120.49 61.4451Z" fill="#07064E"></path>
<path d="M120.49 66.9601H79.7599C79.6199 66.9601 79.5099 66.8501 79.5099 66.7101C79.5099 66.5701 79.6199 66.4601 79.7599 66.4601H120.49C120.63 66.4601 120.74 66.5701 120.74 66.7101C120.74 66.8501 120.63 66.9601 120.49 66.9601Z" fill="#07064E"></path>
<path d="M97.9399 72.7351H79.7599C79.6199 72.7351 79.5099 72.6251 79.5099 72.4851C79.5099 72.3451 79.6199 72.2351 79.7599 72.2351H97.9399C98.0799 72.2351 98.1899 72.3451 98.1899 72.4851C98.1899 72.6251 98.0799 72.7351 97.9399 72.7351Z" fill="#07064E"></path>
<path d="M103.23 78.2501H79.7599C79.6199 78.2501 79.5099 78.1401 79.5099 78.0001C79.5099 77.8601 79.6199 77.7501 79.7599 77.7501H103.23C103.37 77.7501 103.48 77.8601 103.48 78.0001C103.48 78.1401 103.37 78.2501 103.23 78.2501Z" fill="#07064E"></path>
<path d="M120.775 82.1401C120.205 81.1551 118.945 80.8201 117.96 81.3851C117.485 81.6601 117.145 82.1051 117 82.6351C116.86 83.1651 116.93 83.7201 117.205 84.2001C117.275 84.3201 117.355 84.4301 117.44 84.5301L110.01 91.7501C109.365 91.1201 108.36 90.9601 107.545 91.4301C107.125 91.6751 106.83 92.0451 106.665 92.4651L92.27 89.4301C92.24 89.1451 92.155 88.8651 92.01 88.6051C91.44 87.6201 90.18 87.2851 89.195 87.8501C88.21 88.4201 87.875 89.6801 88.44 90.6651C88.535 90.8301 88.655 90.9701 88.79 91.1001C88.765 91.1151 88.735 91.1351 88.715 91.1601L80.725 100.735C80.425 100.565 80.085 100.465 79.72 100.465C78.585 100.465 77.66 101.39 77.66 102.525C77.66 103.66 78.585 104.585 79.72 104.585C80.855 104.585 81.78 103.66 81.78 102.525C81.78 101.935 81.53 101.405 81.13 101.03L89.095 91.4851C89.12 91.4551 89.135 91.4201 89.145 91.3851C89.315 91.4901 89.49 91.5751 89.69 91.6301C89.865 91.6751 90.05 91.7001 90.225 91.7001C90.58 91.7001 90.935 91.6051 91.25 91.4251C91.725 91.1501 92.065 90.7051 92.21 90.1751C92.23 90.1001 92.235 90.0201 92.25 89.9451L106.54 92.9601C106.485 93.3951 106.555 93.8501 106.79 94.2551C107.065 94.7301 107.51 95.0701 108.04 95.2151C108.215 95.2601 108.4 95.2851 108.575 95.2851C108.93 95.2851 109.285 95.1901 109.6 95.0101C110.075 94.7351 110.415 94.2901 110.56 93.7601C110.705 93.2301 110.63 92.6751 110.355 92.1951C110.345 92.1801 110.335 92.1651 110.325 92.1501L117.82 84.8701C118.01 85.0051 118.225 85.1101 118.455 85.1701C118.63 85.2201 118.815 85.2401 118.99 85.2401C119.345 85.2401 119.7 85.1451 120.015 84.9651C121 84.3951 121.335 83.1351 120.77 82.1501L120.775 82.1401ZM81.29 102.525C81.29 103.385 80.59 104.085 79.73 104.085C78.87 104.085 78.17 103.385 78.17 102.525C78.17 101.665 78.87 100.965 79.73 100.965C80.59 100.965 81.29 101.665 81.29 102.525ZM91.735 90.0401C91.625 90.4401 91.37 90.7801 91.01 90.9851C90.65 91.1951 90.23 91.2501 89.825 91.1401C89.425 91.0301 89.085 90.7751 88.88 90.4151C88.45 89.6701 88.705 88.7151 89.45 88.2851C89.695 88.1451 89.965 88.0751 90.225 88.0751C90.765 88.0751 91.29 88.3551 91.58 88.8551C91.79 89.2151 91.845 89.6351 91.735 90.0401ZM110.085 93.6201C109.975 94.0201 109.72 94.3601 109.36 94.5651C109 94.7751 108.58 94.8301 108.175 94.7201C107.775 94.6101 107.435 94.3551 107.23 93.9951C106.8 93.2501 107.055 92.2951 107.8 91.8651C108.045 91.7251 108.315 91.6551 108.575 91.6551C109.115 91.6551 109.64 91.9351 109.93 92.4351C110.14 92.7951 110.195 93.2151 110.085 93.6201ZM119.775 84.5251C119.415 84.7351 118.995 84.7901 118.59 84.6801C118.19 84.5701 117.85 84.3151 117.645 83.9551C117.44 83.5951 117.38 83.1751 117.49 82.7701C117.6 82.3701 117.855 82.0301 118.215 81.8251C118.46 81.6851 118.73 81.6151 118.99 81.6151C119.53 81.6151 120.055 81.8951 120.345 82.3951C120.775 83.1401 120.52 84.0951 119.775 84.5251Z" fill="#07064E"></path>
</g>
<path id="Vector_8" d="M69.92 100.085L100 76.9449L129.985 100.015V90.3749L106.265 72.1249L129.985 53.8749V44.2399L100 67.3049L69.92 44.1699V53.8049L93.735 72.1249L69.92 90.4449V100.085Z" fill="#EDEDED"></path>
<g id="Vector_9">
<path d="M60.425 46.5L69.67 53.615V43.975L65.08 40.445C63.41 39.16 61.01 39.47 59.725 41.145C58.44 42.815 58.75 45.215 60.425 46.5Z" fill="#2AEDB4"></path>
<path d="M130.235 53.685L139.575 46.5C141.245 45.215 141.56 42.815 140.275 41.145C138.99 39.475 136.59 39.16 134.92 40.445L130.24 44.045V53.685H130.235Z" fill="#2AEDB4"></path>
<path d="M139.575 97.755L130.235 90.57V100.21L134.915 103.81C136.585 105.095 138.985 104.785 140.27 103.11C141.555 101.44 141.245 99.04 139.57 97.755H139.575Z" fill="#2AEDB4"></path>
<path d="M69.67 90.64L60.425 97.755C58.755 99.04 58.44 101.44 59.725 103.11C61.01 104.78 63.41 105.095 65.08 103.81L69.67 100.28V90.64Z" fill="#2AEDB4"></path>
</g>
<path id="Vector_10" d="M130.23 41.08C130.23 41.08 130.23 41.06 130.225 41.05C130.215 41.01 130.195 40.97 130.165 40.935L116.695 27.465C116.665 27.435 116.625 27.415 116.58 27.405C116.57 27.405 116.56 27.405 116.55 27.4C116.54 27.4 116.53 27.395 116.515 27.395H69.92C69.78 27.395 69.67 27.505 69.67 27.645V112.36C69.67 112.5 69.78 112.61 69.92 112.61H129.985C130.125 112.61 130.235 112.5 130.235 112.36V41.11C130.235 41.11 130.235 41.09 130.23 41.08ZM129.385 40.86H120.595C118.485 40.86 116.77 39.145 116.77 37.035V28.245L129.385 40.86ZM70.17 112.11V27.89H116.265V37.03C116.265 39.415 118.205 41.355 120.59 41.355H129.735V112.105H70.17V112.11Z" fill="#07064E"></path>
<path id="Vector_11" d="M139.575 95.625L106.265 70L139.575 44.375C141.245 43.09 141.56 40.69 140.275 39.02C138.99 37.35 136.59 37.035 134.92 38.32L100 65.18L65.08 38.32C63.41 37.035 61.01 37.345 59.725 39.02C58.44 40.69 58.75 43.09 60.425 44.375L93.735 70L60.425 95.625C58.755 96.91 58.44 99.31 59.725 100.98C61.01 102.65 63.41 102.965 65.08 101.68L100 74.82L134.92 101.68C136.59 102.965 138.99 102.655 140.275 100.98C141.56 99.31 141.25 96.91 139.575 95.625Z" fill="#FFB87E"></path>
<g id="Vector_12">
<path d="M80.73 44.8201V46.5151H79.97V41.8351H81.425C81.73 41.8351 81.995 41.8701 82.22 41.9401C82.445 42.0101 82.63 42.1101 82.775 42.2401C82.92 42.3701 83.03 42.5251 83.1 42.7051C83.17 42.8851 83.205 43.0851 83.205 43.3051C83.205 43.5251 83.165 43.7301 83.09 43.9201C83.015 44.1051 82.9 44.2651 82.75 44.4001C82.6 44.5351 82.415 44.6351 82.195 44.7101C81.975 44.7851 81.715 44.8201 81.42 44.8201H80.725H80.73ZM81.425 44.2151C81.595 44.2151 81.745 44.1951 81.87 44.1501C82 44.1051 82.105 44.0451 82.19 43.9651C82.275 43.8851 82.34 43.7901 82.385 43.6751C82.43 43.5601 82.45 43.4351 82.45 43.3001C82.45 43.1651 82.43 43.0401 82.385 42.9351C82.34 42.8301 82.28 42.7351 82.195 42.6601C82.11 42.5851 82.005 42.5251 81.875 42.4851C81.745 42.4451 81.595 42.4251 81.42 42.4251H80.725V44.2151H81.425Z" fill="#2BF5BA"></path>
<path d="M88.045 44.1701C88.045 44.5151 87.99 44.8351 87.875 45.1201C87.76 45.4051 87.605 45.6551 87.4 45.8601C87.195 46.0651 86.95 46.2251 86.66 46.3401C86.37 46.4551 86.055 46.5101 85.705 46.5101H83.935V41.8301H85.705C86.055 41.8301 86.375 41.8851 86.66 42.0001C86.945 42.1151 87.195 42.2751 87.4 42.4801C87.605 42.6851 87.765 42.9301 87.875 43.2201C87.99 43.5051 88.045 43.8251 88.045 44.1701ZM87.265 44.1701C87.265 43.9001 87.23 43.6601 87.155 43.4451C87.08 43.2301 86.98 43.0501 86.845 42.9001C86.71 42.7551 86.545 42.6401 86.355 42.5601C86.165 42.4801 85.945 42.4401 85.705 42.4401H84.7V45.8901H85.705C85.945 45.8901 86.16 45.8501 86.355 45.7751C86.55 45.6951 86.71 45.5851 86.845 45.4351C86.98 45.2851 87.085 45.1051 87.155 44.8901C87.225 44.6751 87.265 44.4351 87.265 44.1651V44.1701Z" fill="#2BF5BA"></path>
<path d="M91.8 41.8301V42.4451H89.645V43.9451H91.475V44.5601H89.645V46.5151H88.88V41.8351H91.8V41.8301Z" fill="#2BF5BA"></path>
</g>
</g>
</g>
</g>
</g>
<defs>
<clipPath id="clip0_70_4507">
<rect width="200" height="140" fill="white"></rect>
</clipPath>
</defs>
</svg>