<svg width="200" height="140" viewBox="0 0 200 140" fill="none" xmlns="http://www.w3.org/2000/svg">
<g id="illu_spot_response-method-point-system/Default" clip-path="url(#clip0_77_349)">
<g id="illu_spot_response-method-point-system">
<g id="background">
<path d="M15.8889 90.9287C19.9932 88.336 21.9479 84.0616 20.2549 81.3814C18.5619 78.7012 13.8622 78.6303 9.75794 81.2229C5.65364 83.8155 3.69892 88.09 5.39194 90.7701C7.08496 93.4503 11.7846 93.5213 15.8889 90.9287Z" fill="#2BF5BA"></path>
<path d="M192.16 17.42C202.92 29.16 166.055 60.45 175.92 89.9C200.965 164.64 132.68 113.495 66.745 129.475C5.61002 144.29 21.595 115.56 29.31 89.025C37.05 62.42 1.30002 70.105 3.35502 40.31C4.92002 17.615 44.7 -2.38 93.745 10.57C173.765 31.7 180.495 4.695 192.16 17.42Z" fill="#2BF5BA"></path>
<path d="M192.28 81.6161C193.675 78.9144 192.909 75.7458 190.571 74.5388C188.232 73.3318 185.206 74.5435 183.812 77.2452C182.417 79.9469 183.182 83.1155 185.521 84.3225C187.859 85.5295 190.886 84.3178 192.28 81.6161Z" fill="#2BF5BA"></path>
<path d="M196.704 93.5914C196.868 92.0453 195.965 90.6825 194.688 90.5473C193.411 90.4122 192.244 91.556 192.08 93.1021C191.916 94.6481 192.819 96.011 194.096 96.1461C195.373 96.2812 196.541 95.1374 196.704 93.5914Z" fill="#2BF5BA"></path>
<path d="M196.704 93.5914C196.868 92.0453 195.965 90.6825 194.688 90.5473C193.411 90.4122 192.244 91.556 192.08 93.1021C191.916 94.6481 192.819 96.011 194.096 96.1461C195.373 96.2812 196.541 95.1374 196.704 93.5914Z" fill="#2BF5BA"></path>
</g>
<g id="illu_spot_response-method-point-system_2">
<g id="stroke">
<path id="Vector" d="M141.085 29.4551H58.915C55.6013 29.4551 52.915 32.1414 52.915 35.4551V101.59C52.915 104.904 55.6013 107.59 58.915 107.59H141.085C144.399 107.59 147.085 104.904 147.085 101.59V35.4551C147.085 32.1414 144.399 29.4551 141.085 29.4551Z" fill="#2AEDB4"></path>
<path id="Vector_2" d="M141.085 27.3301H58.915C55.6013 27.3301 52.915 30.0164 52.915 33.3301V99.4651C52.915 102.779 55.6013 105.465 58.915 105.465H141.085C144.399 105.465 147.085 102.779 147.085 99.4651V33.3301C147.085 30.0164 144.399 27.3301 141.085 27.3301Z" fill="white"></path>
<path id="Vector_3" d="M57.445 27.3301H142.55C145.05 27.3301 147.08 29.3601 147.08 31.8601V38.6201H52.915V31.8601C52.915 29.3601 54.945 27.3301 57.445 27.3301Z" fill="#07064E"></path>
<path id="Vector_4" d="M129.63 35.7348C131.154 35.7348 132.39 34.4991 132.39 32.9748C132.39 31.4505 131.154 30.2148 129.63 30.2148C128.106 30.2148 126.87 31.4505 126.87 32.9748C126.87 34.4991 128.106 35.7348 129.63 35.7348Z" fill="white"></path>
<path id="Vector_5" d="M137.63 35.7348C139.154 35.7348 140.39 34.4991 140.39 32.9748C140.39 31.4505 139.154 30.2148 137.63 30.2148C136.106 30.2148 134.87 31.4505 134.87 32.9748C134.87 34.4991 136.106 35.7348 137.63 35.7348Z" fill="#2BF5BA"></path>
<path id="Vector_6" d="M107.92 59.2354H92.08C90.5143 59.2354 89.245 60.5046 89.245 62.0704V77.9104C89.245 79.4761 90.5143 80.7454 92.08 80.7454H107.92C109.486 80.7454 110.755 79.4761 110.755 77.9104V62.0704C110.755 60.5046 109.486 59.2354 107.92 59.2354Z" fill="#EDEDED"></path>
<path id="Vector_7" d="M107.92 57.1104H92.08C90.5143 57.1104 89.245 58.3796 89.245 59.9454V75.7854C89.245 77.3511 90.5143 78.6204 92.08 78.6204H107.92C109.486 78.6204 110.755 77.3511 110.755 75.7854V59.9454C110.755 58.3796 109.486 57.1104 107.92 57.1104Z" fill="#07064E"></path>
<g id="Vector_8">
<path d="M79.3901 57.1094H63.5501C61.9844 57.1094 60.7151 58.3786 60.7151 59.9444V75.7844C60.7151 77.3501 61.9844 78.6194 63.5501 78.6194H79.3901C80.9558 78.6194 82.2251 77.3501 82.2251 75.7844V59.9444C82.2251 58.3786 80.9558 57.1094 79.3901 57.1094Z" fill="#2BF5BA"></path>
<path d="M136.45 57.1096H120.61C119.044 57.1096 117.775 58.3789 117.775 59.9446V75.7846C117.775 77.3503 119.044 78.6196 120.61 78.6196H136.45C138.016 78.6196 139.285 77.3503 139.285 75.7846V59.9446C139.285 58.3789 138.016 57.1096 136.45 57.1096Z" fill="#2BF5BA"></path>
</g>
<path id="Vector_9" d="M124.26 64.655C124.35 64.015 124.525 63.45 124.785 62.96C125.045 62.47 125.375 62.055 125.775 61.725C126.175 61.395 126.635 61.14 127.155 60.97C127.675 60.795 128.23 60.71 128.83 60.71C129.43 60.71 129.97 60.795 130.47 60.965C130.97 61.135 131.405 61.375 131.765 61.69C132.125 62 132.41 62.38 132.61 62.825C132.81 63.27 132.915 63.76 132.915 64.3C132.915 64.745 132.86 65.14 132.745 65.485C132.63 65.835 132.47 66.14 132.255 66.4C132.04 66.66 131.79 66.88 131.49 67.065C131.19 67.25 130.855 67.395 130.485 67.515C131.395 67.75 132.085 68.15 132.54 68.72C133 69.29 133.23 70 133.23 70.855C133.23 71.5 133.105 72.08 132.865 72.595C132.62 73.11 132.285 73.55 131.865 73.91C131.44 74.27 130.95 74.55 130.385 74.74C129.82 74.93 129.22 75.03 128.575 75.03C127.83 75.03 127.195 74.935 126.67 74.75C126.14 74.565 125.695 74.31 125.33 73.985C124.965 73.66 124.665 73.275 124.43 72.825C124.195 72.375 123.995 71.895 123.835 71.375L124.585 71.065C124.78 70.98 124.97 70.96 125.155 70.995C125.34 71.03 125.475 71.14 125.56 71.315C125.645 71.5 125.75 71.715 125.88 71.97C126.005 72.225 126.18 72.47 126.4 72.7C126.62 72.935 126.905 73.135 127.245 73.295C127.585 73.46 128.02 73.54 128.55 73.54C129.04 73.54 129.465 73.46 129.835 73.3C130.205 73.14 130.51 72.935 130.755 72.68C131 72.425 131.185 72.145 131.305 71.83C131.43 71.515 131.49 71.205 131.49 70.9C131.49 70.52 131.44 70.18 131.345 69.865C131.25 69.555 131.065 69.28 130.8 69.055C130.535 68.825 130.165 68.65 129.7 68.52C129.235 68.39 128.635 68.325 127.905 68.325V67.065C128.505 67.06 129.015 66.995 129.435 66.87C129.855 66.745 130.195 66.575 130.46 66.36C130.725 66.145 130.915 65.89 131.035 65.59C131.155 65.29 131.215 64.96 131.215 64.595C131.215 64.19 131.15 63.84 131.025 63.54C130.9 63.24 130.725 62.995 130.505 62.795C130.285 62.6 130.02 62.455 129.72 62.355C129.415 62.26 129.09 62.21 128.74 62.21C128.39 62.21 128.06 62.26 127.76 62.365C127.46 62.47 127.19 62.615 126.96 62.8C126.73 62.985 126.535 63.205 126.38 63.46C126.225 63.715 126.115 63.995 126.05 64.3C125.965 64.53 125.86 64.68 125.735 64.755C125.61 64.83 125.425 64.85 125.185 64.82L124.275 64.665L124.26 64.655Z" fill="white"></path>
<path id="Vector_10" d="M76.7451 69.8154V70.8103C76.7451 70.9153 76.7151 71.0003 76.6551 71.0753C76.5951 71.1453 76.4951 71.1804 76.3651 71.1804H74.6251V74.8653H73.1001V71.1804H66.8851C66.7551 71.1804 66.6451 71.1404 66.5501 71.0704C66.4551 70.9954 66.3951 70.9004 66.3701 70.7904L66.1951 69.9004L73.0051 60.8604H74.6251V69.8103H76.7451V69.8154ZM73.1001 69.8154V64.0404C73.1001 63.8704 73.1051 63.6854 73.1201 63.4854C73.1351 63.2854 73.1501 63.0803 73.1801 62.8703L68.0801 69.8204H73.1001V69.8154Z" fill="white"></path>
<path id="Vector_11" d="M97.98 66.0703C98.71 65.9153 99.38 65.8353 99.995 65.8353C100.725 65.8353 101.37 65.9403 101.93 66.1553C102.49 66.3703 102.96 66.6653 103.33 67.0453C103.705 67.4253 103.99 67.8703 104.18 68.3853C104.37 68.9003 104.47 69.4603 104.47 70.0653C104.47 70.8103 104.34 71.4803 104.085 72.0803C103.825 72.6803 103.47 73.1953 103.02 73.6203C102.565 74.0453 102.035 74.3753 101.425 74.6003C100.81 74.8303 100.15 74.9453 99.44 74.9453C99.03 74.9453 98.635 74.9053 98.26 74.8203C97.885 74.7353 97.53 74.6303 97.2 74.4953C96.87 74.3603 96.565 74.2003 96.285 74.0253C96.005 73.8503 95.76 73.6653 95.545 73.4703L96.08 72.7253C96.195 72.5553 96.35 72.4703 96.54 72.4703C96.67 72.4703 96.815 72.5203 96.98 72.6203C97.145 72.7203 97.34 72.8353 97.575 72.9553C97.81 73.0803 98.085 73.1903 98.4 73.2903C98.715 73.3903 99.09 73.4403 99.53 73.4403C100.02 73.4403 100.46 73.3603 100.85 73.2053C101.24 73.0503 101.575 72.8253 101.855 72.5353C102.135 72.2453 102.35 71.9003 102.5 71.4953C102.65 71.0903 102.725 70.6403 102.725 70.1353C102.725 69.7003 102.66 69.3053 102.535 68.9553C102.405 68.6053 102.215 68.3053 101.96 68.0553C101.705 67.8103 101.38 67.6153 101 67.4803C100.615 67.3453 100.165 67.2753 99.65 67.2753C99.3 67.2753 98.93 67.3053 98.55 67.3603C98.17 67.4203 97.78 67.5153 97.38 67.6453L96.285 67.3253L97.41 60.7803H104.045V61.5403C104.045 61.7853 103.97 61.9903 103.815 62.1503C103.66 62.3103 103.4 62.3903 103.03 62.3903H98.635L97.99 66.0653L97.98 66.0703Z" fill="white"></path>
<path id="Vector_12" d="M87.95 97.6799C88.435 97.2149 88.36 96.3549 87.79 95.7649C87.23 95.1799 86.395 95.0749 85.905 95.5199C86.365 95.0499 86.29 94.2099 85.73 93.6299C85.17 93.0499 84.335 92.9399 83.845 93.3849C84.305 92.9149 84.23 92.0749 83.67 91.4949C83.115 90.9199 82.3 90.8099 81.81 91.2299L86.94 86.2849C87.53 85.7149 87.55 84.7699 86.98 84.1799C86.41 83.5899 85.465 83.5699 84.875 84.1399L75.405 93.2699L75.47 89.7499C75.485 88.9299 74.83 88.2499 74.01 88.2349C73.19 88.2199 72.51 88.8749 72.495 89.6949L72.355 97.3599C72.335 97.5549 72.33 97.7549 72.345 97.9549V97.9949C72.345 98.1299 72.365 98.2599 72.395 98.3849C72.52 99.0849 72.845 99.7549 73.375 100.3L76.495 103.535C77.69 104.775 79.62 105.04 81.055 104.235C81.195 104.16 81.315 104.07 81.45 103.945L87.955 97.6749L87.95 97.6799Z" fill="#EDEDED"></path>
<path id="Vector_13" d="M87.95 95.5549C88.435 95.0899 88.36 94.2299 87.79 93.6399C87.23 93.0549 86.395 92.9499 85.905 93.3949C86.365 92.9249 86.29 92.0849 85.73 91.5049C85.17 90.9199 84.335 90.8149 83.845 91.2599C84.305 90.7899 84.23 89.9499 83.67 89.3699C83.115 88.7949 82.3 88.6849 81.81 89.1049L86.94 84.1599C87.53 83.5899 87.55 82.6449 86.98 82.0549C86.41 81.4649 85.465 81.4449 84.875 82.0149L75.405 91.1449L75.47 87.6249C75.485 86.8049 74.83 86.1249 74.01 86.1099C73.19 86.0949 72.51 86.7499 72.495 87.5699L72.355 95.2349C72.335 95.4299 72.33 95.6299 72.345 95.8299V95.8699C72.345 96.0049 72.365 96.1349 72.395 96.2599C72.52 96.9599 72.845 97.6299 73.375 98.1749L76.495 101.41C77.69 102.65 79.62 102.915 81.055 102.11C81.195 102.035 81.315 101.945 81.45 101.82L87.955 95.5499L87.95 95.5549Z" fill="white"></path>
<path id="Vector_14" d="M72.1801 96.1653C72.1651 96.0803 72.1601 95.9953 72.1601 95.9153C72.1451 95.6853 72.1501 95.4753 72.1701 95.2653L72.2551 87.6453C72.2601 87.1853 72.4451 86.7553 72.7701 86.4353C73.1001 86.1153 73.5301 85.9403 73.9901 85.9453C74.9351 85.9553 75.7001 86.7353 75.6851 87.6803L75.6501 90.6153L84.6151 81.8553C84.9451 81.5353 85.3751 81.3603 85.8351 81.3653C86.2951 81.3703 86.7251 81.5553 87.0451 81.8803C87.3651 82.2103 87.5401 82.6403 87.5351 83.1003C87.5301 83.5603 87.3451 83.9903 87.0201 84.3103L82.6151 88.6153C83.0301 88.6453 83.4601 88.8403 83.8001 89.1903C84.2401 89.6453 84.4251 90.2303 84.3251 90.7403C84.8351 90.6553 85.4251 90.8503 85.8651 91.3003C86.3101 91.7553 86.4901 92.3453 86.3901 92.8553C86.9051 92.7703 87.4901 92.9653 87.9301 93.4153C88.2451 93.7353 88.4351 94.1403 88.4751 94.5553C88.5151 94.9853 88.3801 95.3753 88.0951 95.6503L81.6601 101.94C81.5201 102.075 81.3851 102.18 81.2201 102.27C79.6801 103.15 77.6451 102.85 76.3901 101.565L73.2601 98.3653C72.7151 97.8053 72.3501 97.1053 72.2101 96.3403C72.1951 96.2803 72.1801 96.2153 72.1701 96.1553L72.1801 96.1653ZM75.2051 87.4703C75.1151 86.8803 74.6051 86.4253 73.9851 86.4153C73.6501 86.4153 73.3351 86.5353 73.1001 86.7703C72.8601 87.0053 72.7301 87.3153 72.7251 87.6503L72.6351 95.2853C72.6151 95.4903 72.6151 95.6753 72.6301 95.8603C72.6301 95.8653 72.6301 95.9153 72.6301 95.9203C72.6301 96.0153 72.6451 96.1203 72.6751 96.2453C72.8051 96.9353 73.1251 97.5503 73.6051 98.0403L76.7351 101.24C77.8451 102.375 79.6401 102.64 81.0001 101.865C81.1301 101.79 81.2351 101.715 81.3451 101.61L87.7801 95.3203C87.9601 95.1453 88.0451 94.8903 88.0201 94.6003C87.9901 94.2953 87.8451 93.9903 87.6051 93.7453C87.1351 93.2653 86.4401 93.1653 86.0551 93.5203C85.9601 93.6053 85.8151 93.6003 85.7301 93.5103C85.6401 93.4203 85.6401 93.2753 85.7301 93.1853C86.0951 92.8053 86.0101 92.1103 85.5401 91.6303C85.0701 91.1503 84.3751 91.0503 83.9901 91.4053C83.8951 91.4903 83.7501 91.4853 83.6651 91.3953C83.5751 91.3053 83.5751 91.1603 83.6651 91.0703C84.0301 90.6903 83.9451 89.9953 83.4751 89.5153C83.0101 89.0403 82.3351 88.9353 81.9451 89.2803C81.8501 89.3653 81.7051 89.3553 81.6201 89.2603C81.5351 89.1653 81.5401 89.0203 81.6301 88.9353L86.7051 83.9753C86.9451 83.7403 87.0751 83.4303 87.0801 83.0953C87.0801 82.7603 86.9601 82.4453 86.7251 82.2103C86.4901 81.9703 86.1801 81.8403 85.8451 81.8353C85.5101 81.8353 85.1951 81.9553 84.9601 82.1903L75.5901 91.3503C75.5201 91.4153 75.4201 91.4353 75.3351 91.4003C75.2501 91.3653 75.1901 91.2803 75.1951 91.1803L75.2351 87.6753C75.2351 87.6053 75.2351 87.5353 75.2201 87.4653L75.2051 87.4703Z" fill="#07064E"></path>
</g>
</g>
</g>
</g>
<defs>
<clipPath id="clip0_77_349">
<rect width="200" height="140" fill="white"></rect>
</clipPath>
</defs>
</svg>