<svg width="200" height="140" viewBox="0 0 200 140" fill="none" xmlns="http://www.w3.org/2000/svg">
<g id="illu_spot_no-vote-v2/Default" clip-path="url(#clip0_70_4705)">
<g id="illu_spot_no-vote-v2">
<g id="background">
<path d="M177.505 26.3501C171.345 26.2651 166.75 22.0951 167.235 17.0401C167.72 11.9851 173.11 7.96009 179.27 8.04509C185.43 8.13009 190.025 12.3001 189.54 17.3551C189.055 22.4101 183.665 26.4351 177.505 26.3501Z" fill="#2BF5BA"></path>
<path d="M189.575 57.1251C193.099 57.1251 195.955 54.2687 195.955 50.7451C195.955 47.2215 193.099 44.3651 189.575 44.3651C186.051 44.3651 183.195 47.2215 183.195 50.7451C183.195 54.2687 186.051 57.1251 189.575 57.1251Z" fill="#2BF5BA"></path>
<path d="M191.21 35.4201C192.61 35.4201 193.745 34.2851 193.745 32.8851C193.745 31.4851 192.61 30.3501 191.21 30.3501C189.81 30.3501 188.675 31.4851 188.675 32.8851C188.675 34.2851 189.81 35.4201 191.21 35.4201Z" fill="#2BF5BA"></path>
<path d="M18.1601 18.3901C17.4351 19.8001 15.6001 20.4101 14.0601 19.7501C12.5201 19.0901 11.8551 17.4151 12.5801 16.0051C13.3051 14.5951 15.1401 13.9851 16.6801 14.6451C18.2201 15.3051 18.8851 16.9801 18.1601 18.3901Z" fill="#2BF5BA"></path>
<path d="M47.1251 129.52C6.73506 112.345 -7.31994 74.8151 12.6651 40.8251C38.4151 -2.9749 70.69 -0.129907 106.015 11.3001C137.395 21.4551 166.865 13.3051 167.255 45.6501C167.69 81.8001 188.37 60.3001 189.55 95.4051C190.185 114.315 177.86 124.095 147.275 126.685C87.1301 131.78 69.6351 139.09 47.1251 129.52Z" fill="#2BF5BA"></path>
</g>
<g id="illu_spot_no-vote-v2_2">
<g id="stroke">
<path id="Vector" d="M139.57 58.7849C139.21 58.0499 138.585 57.4999 137.81 57.2349C137.035 56.9699 136.205 57.0199 135.47 57.3799C135.28 57.4749 135.1 57.5849 134.935 57.7149L136.005 54.5949C136.27 53.8199 136.22 52.9899 135.86 52.2549C135.5 51.5199 134.875 50.9699 134.1 50.7049C133.14 50.3749 132.12 50.5399 131.335 51.0999L132.07 48.9649C132.62 47.3649 131.765 45.6199 130.165 45.0699C128.57 44.5199 126.82 45.3749 126.27 46.9749L125.485 49.2549C125.435 49.0399 125.355 48.8249 125.255 48.6199C124.895 47.8849 124.27 47.3349 123.5 47.0699C122.73 46.8049 121.895 46.8549 121.16 47.2149C120.425 47.5749 119.875 48.1999 119.61 48.9699L111.73 71.9149L109.075 66.4849C108.715 65.7499 108.09 65.1999 107.32 64.9349C106.55 64.6699 105.715 64.7199 104.98 65.0799C104.245 65.4399 103.695 66.0649 103.43 66.8349C103.165 67.6049 103.215 68.4399 103.575 69.1749L109.93 82.1749C110.07 82.5349 110.24 82.8849 110.43 83.2049L110.465 83.2699C110.575 83.4949 110.72 83.7049 110.915 83.9249C111.205 84.3049 111.54 84.6549 111.91 84.9749H92.0249C92.8499 83.9099 93.3849 82.6549 93.5299 81.3349C93.5699 80.9949 93.5649 80.6849 93.5099 80.3399L89.7149 54.9499C89.4649 53.2799 87.9049 52.1249 86.2299 52.3749C85.4199 52.4949 84.7049 52.9249 84.2199 53.5849C84.0949 53.7549 83.9849 53.9399 83.8999 54.1299L83.4099 50.8649C83.2899 50.0549 82.8599 49.3399 82.1999 48.8549C81.5399 48.3699 80.7349 48.1649 79.9249 48.2899C78.9249 48.4399 78.0949 49.0599 77.6549 49.9149L77.3199 47.6849C77.1999 46.8749 76.7699 46.1599 76.1099 45.6749C75.4499 45.1899 74.6449 44.9849 73.8349 45.1099C73.0249 45.2299 72.3099 45.6599 71.8249 46.3199C71.3399 46.9799 71.1349 47.7849 71.2599 48.5949L71.6149 50.9799C71.4699 50.8099 71.3049 50.6599 71.1199 50.5199C70.4599 50.0349 69.6549 49.8349 68.8449 49.9549C68.0349 50.0749 67.3249 50.5049 66.8349 51.1599C66.3499 51.8149 66.1449 52.6249 66.2699 53.4349L69.8549 77.4299L64.9949 73.8349C63.6349 72.8299 61.7149 73.1199 60.7099 74.4749C59.7049 75.8299 59.9949 77.7549 61.3499 78.7599L72.9849 87.3649C73.2749 87.6199 73.5899 87.8499 73.9049 88.0449L73.9649 88.0899C74.1649 88.2399 74.3949 88.3599 74.6649 88.4649C75.1349 88.6899 75.6449 88.8599 76.1699 88.9799L76.3499 90.1999L75.5399 90.3199C74.4999 90.4749 73.7799 91.4449 73.9399 92.4849L74.3699 95.3599C74.4449 95.8649 74.7099 96.3049 75.1199 96.6099C75.2649 96.7149 75.4199 96.7949 75.5799 96.8549L78.3199 115.19L78.3549 115.435L91.2499 113.505V115.4H113.535V113.62L118.915 115.47L125.02 97.6949C125.19 97.6649 125.36 97.6149 125.515 97.5399C125.975 97.3149 126.315 96.9299 126.48 96.4449L127.425 93.6949C127.59 93.2149 127.56 92.6949 127.335 92.2399C127.11 91.7849 126.725 91.4399 126.24 91.2749L125.56 91.0399L126.115 89.4199C128.095 89.0499 129.84 87.9199 130.91 86.3049C131.1 86.0199 131.24 85.7449 131.35 85.4149L139.685 61.1349C139.95 60.3599 139.9 59.5299 139.54 58.7949L139.57 58.7849ZM90.7099 86.3049C90.9999 86.0749 91.2649 85.8249 91.5149 85.5599V87.9149L90.9599 87.9999L90.7049 86.3049H90.7099Z" fill="#2AEDB4"></path>
<path id="Vector_2" d="M92.4299 86.2201L90.7999 86.4651L90.4399 84.0701C92.0049 82.8951 93.0699 81.1201 93.2799 79.1751C93.3149 78.8751 93.3149 78.5901 93.2649 78.2451L89.4699 52.8551C89.2399 51.3201 87.8099 50.2601 86.2699 50.4901C84.7349 50.7201 83.6749 52.1501 83.9049 53.6901L85.3999 63.6751C85.3999 63.6751 85.3999 63.6651 85.3999 63.6601L83.1749 48.7651C82.9449 47.2301 81.5149 46.1701 79.9749 46.4001C78.6599 46.5951 77.6949 47.6751 77.5899 48.9501L77.0849 45.5851C76.8549 44.0501 75.4249 42.9901 73.8849 43.2201C72.3449 43.4501 71.2899 44.8801 71.5199 46.4201L74.3699 65.4851L72.0949 50.4301C71.8649 48.8951 70.4349 47.8351 68.8999 48.0651C67.3649 48.2951 66.3049 49.7251 66.5349 51.2601L70.2099 75.8501L64.8649 71.8951C63.6149 70.9701 61.8549 71.2351 60.9299 72.4851C60.0049 73.7351 60.2699 75.4951 61.5199 76.4201L73.1699 85.0401C73.4549 85.2851 73.7549 85.5101 74.0749 85.7101L74.1349 85.7551C74.3399 85.9101 74.5649 86.0151 74.7949 86.1051C75.3049 86.3451 75.8499 86.5251 76.4149 86.6351L76.7049 88.5801L74.9799 88.8401L78.5949 113.025L96.0549 110.415L92.4399 86.2301L92.4299 86.2201Z" fill="#EDEDED"></path>
<path id="Vector_3" d="M91.7082 86.0204L75.5873 88.4297C74.6833 88.5648 74.06 89.4071 74.1951 90.3111L74.6245 93.1842C74.7596 94.0882 75.6019 94.7115 76.5059 94.5764L92.6269 92.1671C93.5308 92.032 94.1542 91.1897 94.0191 90.2857L93.5897 87.4126C93.4546 86.5086 92.6122 85.8853 91.7082 86.0204Z" fill="white"></path>
<path id="Vector_4" d="M137.73 55.3449C136.26 54.8399 134.66 55.6249 134.155 57.0899L130.875 66.6399C130.875 66.6399 130.875 66.6299 130.875 66.6249L135.765 52.3849C136.27 50.9149 135.485 49.3149 134.02 48.8099C132.76 48.3799 131.41 48.8899 130.73 49.9699L131.835 46.7499C132.34 45.2799 131.555 43.6799 130.09 43.1749C128.62 42.6699 127.02 43.4549 126.515 44.9249L120.255 63.1549L125.175 48.7449C125.68 47.2749 124.895 45.6749 123.43 45.1699C121.96 44.6649 120.36 45.4499 119.855 46.9149L111.78 70.4299L108.86 64.4549C108.18 63.0599 106.495 62.4799 105.1 63.1649C103.705 63.8449 103.125 65.5299 103.81 66.9249L110.175 79.9449C110.31 80.2949 110.475 80.6299 110.67 80.9549L110.705 81.0249C110.82 81.2549 110.965 81.4549 111.13 81.6399C111.475 82.0899 111.875 82.4999 112.325 82.8599L111.685 84.7199L110.035 84.1549L102.095 107.28L118.795 113.015L126.735 89.8899L125.175 89.3549L125.96 87.0649C127.89 86.7449 129.655 85.6599 130.735 84.0349C130.905 83.7849 131.035 83.5349 131.15 83.2049L139.485 58.9249C139.99 57.4549 139.205 55.8549 137.735 55.3499L137.73 55.3449Z" fill="#EDEDED"></path>
<path id="Vector_5" d="M108.658 85.1039L107.715 87.8514C107.418 88.7159 107.878 89.6574 108.743 89.9542L124.159 95.2475C125.024 95.5443 125.965 95.0841 126.262 94.2197L127.206 91.4721C127.502 90.6076 127.042 89.6662 126.178 89.3693L110.761 84.076C109.897 83.7792 108.955 84.2394 108.658 85.1039Z" fill="white"></path>
<path id="Vector_6" d="M106.265 72.1249L135.54 49.6049C135.175 49.1299 134.68 48.7699 134.105 48.5699C133.46 48.3499 132.79 48.3549 132.18 48.5499C132.29 47.9849 132.24 47.4149 132.05 46.8999L132.075 46.8299C132.51 45.5599 132.06 44.1999 131.055 43.4199L117.11 54.1499L116.035 57.2849V54.9749L100.005 67.3049L71.3298 45.2449C71.2298 45.6349 71.2098 46.0399 71.2698 46.4499L71.3798 47.1949C71.2498 47.6049 71.2048 48.0399 71.2598 48.4799C71.2148 48.4449 71.1748 48.4049 71.1298 48.3699C70.4698 47.8849 69.6648 47.6849 68.8548 47.8049C68.0448 47.9249 67.3348 48.3549 66.8448 49.0099C66.4198 49.5849 66.2148 50.2699 66.2498 50.9699L93.7398 72.1199L73.4648 87.7149C73.6148 87.8249 73.7648 87.9299 73.9148 88.0199L73.9748 88.0649C74.1748 88.2149 74.4048 88.3349 74.6748 88.4399C74.7048 88.4549 74.7398 88.4649 74.7748 88.4799C74.1848 88.8799 73.8398 89.5849 73.9548 90.3349L74.1098 91.3799C73.9598 91.7049 73.8948 92.0799 73.9548 92.4599L74.3848 95.3349C74.4398 95.6999 74.5948 96.0299 74.8298 96.2999L93.4198 81.9999C93.4198 81.9999 93.4198 81.9949 93.4198 81.9899L99.9998 76.9349L126.145 97.0449C126.3 96.8649 126.425 96.6549 126.505 96.4199L127.45 93.6699C127.615 93.1899 127.585 92.6699 127.36 92.2149C127.335 92.1649 127.3 92.1199 127.27 92.0699L127.45 91.5449C127.615 91.0649 127.585 90.5449 127.36 90.0899C127.195 89.7499 126.935 89.4699 126.615 89.2849C127.085 89.1649 127.535 89.0049 127.965 88.8049L106.27 72.1149L106.265 72.1249Z" fill="#DDDDDD"></path>
<g id="Vector_7">
<path d="M132.07 46.83L132.045 46.9C132.235 47.415 132.285 47.985 132.175 48.55C132.785 48.355 133.455 48.345 134.1 48.57C134.68 48.77 135.175 49.13 135.535 49.605L139.57 46.5C141.24 45.215 141.555 42.815 140.27 41.145C138.985 39.475 136.585 39.16 134.915 40.445L131.05 43.42C132.055 44.2 132.505 45.565 132.07 46.83Z" fill="#2AEDB4"></path>
<path d="M60.4249 46.5L66.2449 50.98C66.2099 50.28 66.4199 49.59 66.8399 49.02C67.3249 48.36 68.0399 47.935 68.8499 47.815C69.6599 47.695 70.4649 47.895 71.1249 48.38C71.1699 48.415 71.2099 48.45 71.2549 48.49C71.2049 48.05 71.2449 47.615 71.3749 47.205L71.2649 46.46C71.2049 46.05 71.2249 45.645 71.3249 45.255L65.0799 40.45C63.4099 39.165 61.0099 39.475 59.7249 41.15C58.4399 42.82 58.7499 45.22 60.4249 46.505V46.5Z" fill="#2AEDB4"></path>
<path d="M139.575 97.755L127.96 88.82C127.53 89.02 127.08 89.185 126.61 89.3C126.93 89.49 127.19 89.765 127.355 90.105C127.58 90.56 127.61 91.08 127.445 91.56L127.265 92.085C127.295 92.135 127.33 92.18 127.355 92.23C127.58 92.685 127.61 93.205 127.445 93.685L124.965 95.345C124.885 95.58 125.02 95.89 124.86 96.07L134.915 103.805C136.585 105.09 138.985 104.78 140.27 103.105C141.555 101.435 141.245 99.035 139.57 97.75L139.575 97.755Z" fill="#2AEDB4"></path>
<path d="M75.0249 94.03L73.9499 92.465C73.8949 92.0849 73.9549 91.71 74.1049 91.385L73.9499 90.34C73.8399 89.59 74.1849 88.885 74.7699 88.485C74.7399 88.47 74.7049 88.46 74.6699 88.445C74.3999 88.34 74.1699 88.22 73.9699 88.07L73.9099 88.025C73.7599 87.93 73.6099 87.83 73.4599 87.72L60.4199 97.75C58.7499 99.035 58.4349 101.435 59.7199 103.105C61.0049 104.775 63.4049 105.09 65.0749 103.805L75.7249 95.615C75.9249 94.385 75.2249 94.065 75.0199 94.03H75.0249Z" fill="#2AEDB4"></path>
</g>
<path id="Vector_8" d="M93.5499 92.0251C93.6849 91.9201 93.8148 91.8001 93.9198 91.6601C94.2198 91.2501 94.3498 90.7501 94.2698 90.2451L93.8398 87.3701C93.6848 86.3301 92.7149 85.6151 91.6749 85.7651L90.9599 85.8701L90.7049 84.1751C92.2899 82.9351 93.3149 81.1301 93.5249 79.2001C93.5649 78.8601 93.5598 78.5501 93.5048 78.2051L89.7099 52.8151C89.4599 51.1451 87.8999 49.9901 86.2249 50.2401C85.4149 50.3601 84.6999 50.7901 84.2148 51.4501C84.0898 51.6201 83.9798 51.8051 83.8948 51.9951L83.4049 48.7301C83.2849 47.9201 82.8549 47.2051 82.1949 46.7201C81.5349 46.2351 80.7299 46.0301 79.9199 46.1551C78.9199 46.3051 78.0899 46.9251 77.6499 47.7801L77.3149 45.5501C77.1949 44.7401 76.7649 44.0251 76.1049 43.5401C75.4449 43.0551 74.6399 42.8501 73.8299 42.9751C73.0199 43.0951 72.3049 43.5251 71.8199 44.1851C71.3349 44.8451 71.1298 45.6501 71.2548 46.4601L71.6099 48.8451C71.4649 48.6751 71.2999 48.5251 71.1149 48.3851C70.4549 47.9001 69.6498 47.7001 68.8398 47.8201C68.0298 47.9401 67.3199 48.3701 66.8299 49.0251C66.3449 49.6801 66.1399 50.4901 66.2649 51.3001L69.8499 75.2951L64.9899 71.7001C63.6298 70.6951 61.7099 70.9851 60.7049 72.3401C59.6999 73.6951 59.9899 75.6201 61.3449 76.6251L72.9799 85.2301C73.2699 85.4851 73.5849 85.7151 73.8999 85.9101L73.9599 85.9551C74.1599 86.1051 74.3899 86.2251 74.6599 86.3301C75.1299 86.5551 75.6399 86.7251 76.1649 86.8451L76.3449 88.0651L75.5349 88.1851C74.4949 88.3401 73.7748 89.3101 73.9348 90.3501L74.3649 93.2251C74.4398 93.7301 74.7049 94.1701 75.1149 94.4751C75.2599 94.5801 75.4148 94.6601 75.5748 94.7201L78.3149 113.055L78.3499 113.3L96.3049 110.615L93.5249 92.0251H93.5499ZM74.8699 85.8651C74.6249 85.7701 74.4348 85.6701 74.2698 85.5451L74.1899 85.4901C73.8849 85.3001 73.5899 85.0801 73.3049 84.8351L61.6549 76.2151C60.5199 75.3751 60.2799 73.7651 61.1199 72.6301C61.6199 71.9501 62.3949 71.5951 63.1799 71.5951C63.7099 71.5951 64.2448 71.7601 64.6998 72.0951L70.0449 76.0501C70.1299 76.1101 70.2348 76.1151 70.3248 76.0651C70.4148 76.0151 70.4599 75.9151 70.4449 75.8151L66.7698 51.2251C66.6698 50.5501 66.8349 49.8701 67.2449 49.3201C67.6549 48.7701 68.2499 48.4101 68.9249 48.3101C69.5999 48.2051 70.2799 48.3751 70.8299 48.7851C71.3799 49.1951 71.7398 49.7901 71.8398 50.4651C71.8448 50.5051 71.8598 50.5401 71.8798 50.5701L74.1149 65.5201C74.1349 65.6551 74.2649 65.7501 74.3999 65.7301C74.5349 65.7101 74.6299 65.5801 74.6099 65.4451L71.7599 46.3801C71.6599 45.7051 71.8249 45.0251 72.2349 44.4751C72.6449 43.9251 73.2399 43.5651 73.9199 43.4651C74.5999 43.3651 75.2748 43.5301 75.8248 43.9401C76.3748 44.3451 76.7349 44.9451 76.8349 45.6201L76.8499 45.7251L79.6599 64.5251C79.6799 64.6501 79.7849 64.7401 79.9049 64.7401C79.9199 64.7401 79.9299 64.7401 79.9449 64.7401C80.0799 64.7201 80.1749 64.5901 80.1549 64.4551L77.8349 48.9501C77.9399 47.7701 78.8299 46.8251 80.0049 46.6501C80.6798 46.5501 81.3599 46.7151 81.9099 47.1251C82.4599 47.5301 82.8199 48.1301 82.9199 48.8051L85.1499 63.7151C85.1499 63.7151 85.1549 63.7501 85.1599 63.7651C85.1999 63.8801 85.3199 63.9501 85.4449 63.9251C85.5749 63.9001 85.6649 63.7751 85.6448 63.6451L84.1499 53.6551C84.0499 52.9801 84.2149 52.3001 84.6249 51.7501C85.0349 51.2001 85.6299 50.8401 86.3049 50.7401C87.7049 50.5251 89.0099 51.5001 89.2199 52.8951L93.0149 78.2851C93.0598 78.5901 93.0648 78.8451 93.0299 79.1501C92.8298 80.9901 91.8299 82.7101 90.2849 83.8701C90.2099 83.9251 90.1749 84.0151 90.1899 84.1051L90.4648 85.9451L76.8499 87.9801L76.6399 86.5901C76.6249 86.4851 76.5449 86.4001 76.4399 86.3801C75.8899 86.2701 75.3649 86.1001 74.8599 85.8601L74.8699 85.8651ZM74.8749 93.1451L74.4449 90.2701C74.3299 89.5051 74.8599 88.7851 75.6249 88.6751L91.7499 86.2651C91.8199 86.2551 91.8899 86.2501 91.9599 86.2501C92.6449 86.2501 93.2449 86.7501 93.3498 87.4501L93.7799 90.3251C93.8349 90.6951 93.7448 91.0651 93.5198 91.3701C93.2948 91.6751 92.9698 91.8701 92.5998 91.9251L76.4749 94.3351C76.1049 94.3901 75.7349 94.3001 75.4299 94.0751C75.1249 93.8501 74.9299 93.5251 74.8749 93.1551V93.1451ZM76.1149 94.8301C76.1649 94.8301 76.2099 94.8401 76.2599 94.8401C76.3549 94.8401 76.4499 94.8351 76.5449 94.8201L92.6698 92.4101C92.8148 92.3901 92.9499 92.3451 93.0849 92.2951L95.7599 110.195L78.7899 112.73L76.1149 94.8301Z" fill="#07064E"></path>
<path id="Vector_9" d="M139.57 56.6599C139.21 55.9249 138.585 55.3749 137.81 55.1099C137.035 54.8449 136.205 54.8949 135.47 55.2549C135.28 55.3499 135.1 55.4599 134.935 55.5899L136.005 52.4699C136.27 51.6949 136.22 50.8649 135.86 50.1299C135.5 49.3949 134.875 48.8449 134.1 48.5799C133.14 48.2499 132.12 48.4149 131.335 48.9749L132.07 46.8399C132.62 45.2399 131.765 43.4949 130.165 42.9449C128.57 42.3949 126.82 43.2499 126.27 44.8499L125.485 47.1299C125.435 46.9149 125.355 46.6999 125.255 46.4949C124.895 45.7599 124.27 45.2099 123.5 44.9449C122.73 44.6799 121.895 44.7299 121.16 45.0899C120.425 45.4499 119.875 46.0749 119.61 46.8449L111.73 69.7899L109.075 64.3599C108.715 63.6249 108.09 63.0749 107.32 62.8099C106.55 62.5449 105.715 62.5949 104.98 62.9549C104.245 63.3149 103.695 63.9399 103.43 64.7099C103.165 65.4799 103.215 66.3149 103.575 67.0499L109.93 80.0499C110.07 80.4099 110.24 80.7599 110.43 81.0799L110.465 81.1449C110.575 81.3699 110.72 81.5799 110.915 81.7999C111.23 82.2149 111.6 82.5999 112.015 82.9499L111.615 84.1149L110.84 83.8499C109.845 83.5099 108.76 84.0399 108.42 85.0349L107.475 87.7849C107.245 88.4599 107.42 89.1699 107.865 89.6649L101.76 107.445L118.93 113.34L125.035 95.5649C125.205 95.5349 125.375 95.4849 125.535 95.4099C125.995 95.1849 126.335 94.7999 126.5 94.3149L127.445 91.5649C127.61 91.0849 127.58 90.5649 127.355 90.1099C127.13 89.6549 126.745 89.3099 126.26 89.1449L125.58 88.9099L126.135 87.2899C128.115 86.9199 129.86 85.7899 130.93 84.1749C131.12 83.8899 131.26 83.6149 131.37 83.2849L139.705 59.0049C139.97 58.2299 139.92 57.3999 139.56 56.6649L139.57 56.6599ZM118.625 112.695L102.4 107.125L108.275 90.0099C108.395 90.0849 108.525 90.1499 108.66 90.1999L124.08 95.4949C124.22 95.5449 124.36 95.5699 124.5 95.5849L118.62 112.705L118.625 112.695ZM126.1 89.6099C126.455 89.7299 126.74 89.9849 126.905 90.3199C127.07 90.6549 127.095 91.0399 126.97 91.3949L126.025 94.1449C125.905 94.4999 125.65 94.7849 125.315 94.9499C124.98 95.1149 124.6 95.1399 124.24 95.0149L108.82 89.7199C108.085 89.4699 107.695 88.6649 107.945 87.9349L108.89 85.1849C109.01 84.8299 109.265 84.5449 109.6 84.3799C109.935 84.2149 110.315 84.1899 110.675 84.3149L126.095 89.6099H126.1ZM139.24 58.8399L130.905 83.1199C130.805 83.4149 130.69 83.6449 130.52 83.8949C129.495 85.4349 127.815 86.4999 125.91 86.8199C125.82 86.8349 125.745 86.8999 125.715 86.9849L125.11 88.7449L112.09 84.2749L112.545 82.9449C112.58 82.8449 112.545 82.7349 112.465 82.6699C112.03 82.3199 111.64 81.9249 111.305 81.4799C111.13 81.2799 111.01 81.1049 110.92 80.9199L110.88 80.8349C110.695 80.5249 110.535 80.1949 110.395 79.8449L104.03 66.8249C103.73 66.2099 103.685 65.5149 103.91 64.8699C104.13 64.2249 104.595 63.6999 105.21 63.3999C105.825 63.0999 106.52 63.0549 107.165 63.2799C107.81 63.4999 108.335 63.9649 108.635 64.5799L111.555 70.5549C111.6 70.6449 111.69 70.6999 111.795 70.6949C111.895 70.6899 111.985 70.6199 112.015 70.5249L120.09 47.0099C120.31 46.3649 120.775 45.8399 121.39 45.5399C122.005 45.2399 122.7 45.1949 123.35 45.4199C124 45.6449 124.52 46.1049 124.82 46.7199C125.12 47.3349 125.165 48.0299 124.94 48.6749C124.925 48.7149 124.925 48.7499 124.93 48.7899L120.02 63.0849C119.975 63.2149 120.045 63.3599 120.175 63.4049C120.305 63.4499 120.445 63.3799 120.49 63.2499L126.75 45.0199C127.21 43.6849 128.67 42.9699 130.01 43.4249C131.345 43.8849 132.06 45.3449 131.6 46.6799L125.39 64.7599C125.345 64.8899 125.415 65.0349 125.545 65.0799C125.57 65.0899 125.6 65.0949 125.625 65.0949C125.73 65.0949 125.825 65.0299 125.86 64.9249L130.95 50.0999C131.59 49.0999 132.815 48.6749 133.935 49.0599C134.58 49.2799 135.105 49.7449 135.405 50.3599C135.705 50.9749 135.75 51.6699 135.525 52.3199L130.63 66.5799C130.63 66.5799 130.62 66.6099 130.62 66.6249C130.6 66.7449 130.675 66.8649 130.795 66.8999C130.92 66.9399 131.06 66.8699 131.1 66.7399L134.38 57.1899C134.84 55.8549 136.3 55.1399 137.64 55.5999C138.29 55.8199 138.81 56.2849 139.11 56.8999C139.41 57.5149 139.455 58.2099 139.23 58.8599L139.24 58.8399Z" fill="#07064E"></path>
<path id="Vector_10" d="M112.305 38.125C110.39 38.125 108.835 39.68 108.835 41.595V54.055C108.835 54.055 108.835 54.04 108.835 54.035V35.455C108.835 33.54 107.28 31.985 105.365 31.985C103.725 31.985 102.35 33.125 101.99 34.66V30.46C101.99 28.545 100.435 26.99 98.5199 26.99C96.6049 26.99 95.0499 28.545 95.0499 30.46V54.24L95.0199 35.45C95.0199 33.535 93.4649 31.98 91.5499 31.98C89.6349 31.98 88.0799 33.535 88.0799 35.45V66.13L82.2799 60.33C80.9249 58.975 78.7299 58.975 77.3749 60.33C76.0199 61.685 76.0199 63.88 77.3749 65.235L90.0199 77.88C90.3199 78.23 90.6499 78.56 90.9999 78.86L91.0649 78.925C91.2899 79.15 91.5399 79.32 91.8049 79.47C92.3849 79.86 93.0149 80.175 93.6849 80.415V82.46H91.9799C91.0649 82.46 90.3249 83.2 90.3249 84.115V88.475C90.3249 89.235 90.8349 89.865 91.5299 90.06V113.01H113.315V90.06C114.01 89.865 114.52 89.23 114.52 88.475V84.115C114.52 83.2 113.78 82.46 112.865 82.46H111.28V79.855C113.4 78.705 115.03 76.735 115.64 74.4C115.74 74.04 115.79 73.695 115.79 73.265V41.59C115.79 39.675 114.235 38.12 112.32 38.12L112.305 38.125Z" fill="white"></path>
<path id="Vector_11" d="M111.27 82.2099V79.8549C113.39 78.7049 115.02 76.7349 115.63 74.3999C115.73 74.0399 115.78 73.6949 115.78 73.2649V41.5899C115.78 39.6749 114.225 38.1199 112.31 38.1199C112.26 38.1199 112.215 38.1249 112.165 38.1249C113.515 48.4699 111.74 64.0699 110.86 68.7499C110.295 71.7549 109.035 78.1599 102.775 78.1599C95.0148 77.9649 91.5248 77.2899 79.8248 67.6949L90.0098 77.8799C90.3098 78.2299 90.6398 78.5599 90.9898 78.8599L91.0548 78.9249C91.2798 79.1499 91.5298 79.3199 91.7948 79.4699C92.3748 79.8599 93.0048 80.1749 93.6748 80.4149V82.2099" fill="#EDEDED"></path>
<path id="Vector_12" d="M91.5199 91.415C100.28 91.575 107.285 95.335 113.305 101.1V90.01H91.5199V91.415Z" fill="#EDEDED"></path>
<path id="Vector_13" d="M112.305 37.875C110.93 37.875 109.725 38.625 109.08 39.74V35.455C109.08 33.405 107.41 31.735 105.36 31.735C104.065 31.735 102.9 32.395 102.235 33.435V30.46C102.235 28.41 100.565 26.74 98.5148 26.74C96.4648 26.74 94.7948 28.41 94.7948 30.46V33.65C94.1598 32.51 92.9398 31.735 91.5448 31.735C89.4948 31.735 87.8248 33.405 87.8248 35.455V65.53L82.4498 60.155C81.7448 59.45 80.8148 59.065 79.8198 59.065C78.8248 59.065 77.8898 59.45 77.1898 60.155C75.7398 61.605 75.7398 63.965 77.1898 65.415L89.8198 78.045C90.1298 78.405 90.4648 78.745 90.8148 79.04L90.8798 79.105C91.0948 79.32 91.3448 79.505 91.6548 79.685C92.1998 80.05 92.7948 80.355 93.4248 80.595V82.215H91.9698C90.9198 82.215 90.0648 83.07 90.0648 84.12V88.48C90.0648 89.285 90.5648 89.97 91.2698 90.25V113.27H113.555V90.25C114.26 89.97 114.76 89.285 114.76 88.48V84.12C114.76 83.07 113.905 82.215 112.855 82.215H111.52V80.01C113.685 78.795 115.265 76.785 115.87 74.475C115.98 74.07 116.03 73.7 116.03 73.275V41.6C116.03 39.55 114.36 37.88 112.31 37.88L112.305 37.875ZM113.055 112.765H91.7698V90.365C91.8348 90.37 91.8998 90.385 91.9698 90.385H112.855C112.925 90.385 112.985 90.37 113.055 90.365V112.765ZM112.855 82.71C113.63 82.71 114.26 83.34 114.26 84.115V88.475C114.26 89.25 113.63 89.88 112.855 89.88H91.9698C91.1948 89.88 90.5648 89.25 90.5648 88.475V84.115C90.5648 83.34 91.1948 82.71 91.9698 82.71H112.855ZM115.53 73.27C115.53 73.655 115.49 73.975 115.39 74.34C114.805 76.565 113.265 78.495 111.155 79.635C111.075 79.68 111.025 79.765 111.025 79.855V82.21H93.9248V80.415C93.9248 80.31 93.8598 80.215 93.7598 80.18C93.1048 79.945 92.4898 79.635 91.9198 79.255C91.6348 79.09 91.4148 78.93 91.2348 78.745L91.1548 78.665C90.8148 78.375 90.4948 78.055 90.1898 77.7L77.5448 65.055C76.2898 63.8 76.2898 61.755 77.5448 60.5C78.1548 59.89 78.9598 59.555 79.8198 59.555C80.6798 59.555 81.4898 59.89 82.0948 60.5L87.8948 66.3C87.9648 66.37 88.0748 66.395 88.1648 66.355C88.2598 66.315 88.3198 66.225 88.3198 66.125V35.445C88.3198 33.67 89.7648 32.225 91.5398 32.225C93.3148 32.225 94.7598 33.67 94.7598 35.445C94.7598 35.49 94.7698 35.53 94.7898 35.565V54.23C94.7898 54.37 94.8998 54.48 95.0398 54.48C95.1798 54.48 95.2898 54.37 95.2898 54.23V30.45C95.2898 28.675 96.7348 27.23 98.5098 27.23C100.285 27.23 101.73 28.675 101.73 30.45V54.035C101.73 54.175 101.84 54.285 101.98 54.285C102.12 54.285 102.23 54.175 102.23 54.035V34.685C102.58 33.235 103.865 32.225 105.355 32.225C107.13 32.225 108.575 33.67 108.575 35.445V54.045C108.575 54.045 108.575 54.075 108.58 54.085C108.6 54.205 108.69 54.31 108.835 54.295C108.97 54.295 109.075 54.18 109.075 54.045V41.585C109.075 39.81 110.52 38.365 112.295 38.365C114.07 38.365 115.515 39.81 115.515 41.585V73.26L115.53 73.27Z" fill="#07064E"></path>
<path id="Vector_14" d="M139.575 95.625L106.265 70L139.575 44.375C141.245 43.09 141.56 40.69 140.275 39.02C138.99 37.35 136.59 37.035 134.92 38.32L99.9999 65.18L65.0799 38.32C63.4099 37.035 61.0099 37.345 59.7249 39.02C58.4399 40.69 58.7499 43.09 60.4249 44.375L93.7349 70L60.4249 95.625C58.7549 96.91 58.4399 99.31 59.7249 100.98C61.0099 102.65 63.4099 102.965 65.0799 101.68L99.9999 74.82L134.92 101.68C136.59 102.965 138.99 102.655 140.275 100.98C141.56 99.31 141.25 96.91 139.575 95.625Z" fill="#FFB87E"></path>
</g>
</g>
</g>
</g>
<defs>
<clipPath id="clip0_70_4705">
<rect width="200" height="140" fill="white"></rect>
</clipPath>
</defs>
</svg>