<svg width="200" height="140" viewBox="0 0 200 140" fill="none" xmlns="http://www.w3.org/2000/svg">
<g id="illu_spot_add-participants-public-access/Default" clip-path="url(#clip0_70_5428)">
<g id="illu_spot_add-participants-public-access">
<g id="background">
<path d="M193.046 13.7874C194.338 12.8214 194.769 11.2155 194.01 10.2006C193.25 9.18564 191.588 9.14601 190.297 10.112C189.005 11.0781 188.574 12.6839 189.333 13.6989C190.093 14.7138 191.755 14.7534 193.046 13.7874Z" fill="#2BF5BA"></path>
<path d="M40.1083 133.794C41.3996 132.828 41.8309 131.222 41.0716 130.207C40.3124 129.192 38.65 129.152 37.3587 130.118C36.0674 131.085 35.6361 132.69 36.3954 133.705C37.1546 134.72 38.8169 134.76 40.1083 133.794Z" fill="#2BF5BA"></path>
<path d="M23.325 9.66985C-11.99 30.0448 7.04499 112.025 37.135 122.005C74.62 134.44 51.865 106.425 151.565 135.295C184.765 144.91 183.875 130.82 171.69 102.28C158.775 72.0398 194.995 72.3848 195.76 37.9698C196.235 16.5698 177.31 -5.75515 147.62 4.09985C89.42 23.4198 56.57 -9.51015 23.325 9.66985Z" fill="#2BF5BA"></path>
<path d="M9.70499 126.12C9.10999 123.565 11.07 120.815 14.08 119.985C17.09 119.155 20.01 120.555 20.605 123.11C21.2 125.665 19.24 128.415 16.23 129.245C13.22 130.075 10.3 128.675 9.70499 126.12Z" fill="#2BF5BA"></path>
</g>
<g id="illu_spot_add-participants-public-access_2">
<g id="stroke">
<path id="Vector" d="M134.8 93.9398V99.5148C134.8 101.865 132.895 103.765 130.55 103.765H74.795C72.445 103.765 70.545 101.86 70.545 99.5148V85.0498V93.9448H66.675V112.3C66.675 114.65 68.58 116.55 70.925 116.55H134.42C136.77 116.55 138.67 114.645 138.67 112.3V93.9448H134.8V93.9398Z" fill="#2AEDB4"></path>
<path id="Vector_2" d="M70.54 85.4247V31.3896C70.54 29.0396 72.445 27.1396 74.79 27.1396H130.545C132.895 27.1396 134.795 29.0446 134.795 31.3896V97.0497C134.795 99.3997 132.89 101.3 130.545 101.3H74.79C72.44 101.3 70.54 99.3947 70.54 97.0497V82.5846" fill="white"></path>
<g id="Vector_3">
<path d="M130.545 27.475H74.79C72.44 27.475 70.54 29.38 70.54 31.725V33.85C70.54 31.5 72.445 29.6 74.79 29.6H130.545C132.895 29.6 134.795 31.505 134.795 33.85V31.725C134.795 29.375 132.89 27.475 130.545 27.475Z" fill="#EDEDED"></path>
<path d="M134.415 18.73H70.92C68.57 18.73 66.67 20.635 66.67 22.98V110.17C66.67 112.52 68.575 114.42 70.92 114.42H134.415C136.765 114.42 138.665 112.515 138.665 110.17V22.98C138.665 20.63 136.76 18.73 134.415 18.73ZM134.8 97.385C134.8 99.735 132.895 101.635 130.55 101.635H74.795C72.445 101.635 70.545 99.73 70.545 97.385V31.725C70.545 29.375 72.45 27.475 74.795 27.475H130.55C132.9 27.475 134.8 29.38 134.8 31.725V97.385Z" fill="#EDEDED"></path>
</g>
<g id="Vector_4">
<path d="M134.415 114.67H70.9201C68.4401 114.67 66.4201 112.65 66.4201 110.17V22.98C66.4201 20.5 68.4401 18.48 70.9201 18.48H134.415C136.895 18.48 138.915 20.5 138.915 22.98V110.17C138.915 112.65 136.895 114.67 134.415 114.67ZM70.9201 18.98C68.7151 18.98 66.9201 20.775 66.9201 22.98V110.17C66.9201 112.375 68.7151 114.17 70.9201 114.17H134.415C136.62 114.17 138.415 112.375 138.415 110.17V22.98C138.415 20.775 136.62 18.98 134.415 18.98H70.9201Z" fill="#07064E"></path>
<path d="M130.545 101.89H74.7901C72.3101 101.89 70.2901 99.87 70.2901 97.39V31.725C70.2901 29.245 72.3101 27.225 74.7901 27.225H130.545C133.025 27.225 135.045 29.245 135.045 31.725V97.385C135.045 99.865 133.025 101.885 130.545 101.885V101.89ZM74.7901 27.725C72.5851 27.725 70.7901 29.52 70.7901 31.725V97.385C70.7901 99.59 72.5851 101.385 74.7901 101.385H130.545C132.75 101.385 134.545 99.59 134.545 97.385V31.725C134.545 29.52 132.75 27.725 130.545 27.725H74.7901Z" fill="#07064E"></path>
</g>
<path id="Vector_5" d="M110.08 23.7696H106.355C106.215 23.7696 106.105 23.6546 106.105 23.5146C106.105 23.3746 106.215 23.2646 106.355 23.2646H110.08C110.22 23.2646 110.33 23.3796 110.33 23.5196C110.33 23.6596 110.22 23.7696 110.08 23.7696Z" fill="white"></path>
<path id="Vector_6" d="M103.92 23.77H95.2599C95.1199 23.77 95.0099 23.66 95.0099 23.52C95.0099 23.38 95.1199 23.27 95.2599 23.27H103.92C104.06 23.27 104.17 23.38 104.17 23.52C104.17 23.66 104.06 23.77 103.92 23.77Z" fill="#07064E"></path>
<g id="Vector_7">
<path d="M106.28 80.5497H97.5601C96.0164 80.5497 94.7651 81.801 94.7651 83.3447V92.0647C94.7651 93.6083 96.0164 94.8597 97.5601 94.8597H106.28C107.824 94.8597 109.075 93.6083 109.075 92.0647V83.3447C109.075 81.801 107.824 80.5497 106.28 80.5497Z" fill="#EDEDED"></path>
<path d="M125.26 36.9097H116.54C114.996 36.9097 113.745 38.161 113.745 39.7047V48.4247C113.745 49.9683 114.996 51.2197 116.54 51.2197H125.26C126.804 51.2197 128.055 49.9683 128.055 48.4247V39.7047C128.055 38.161 126.804 36.9097 125.26 36.9097Z" fill="#EDEDED"></path>
</g>
<g id="Vector_8">
<path d="M106.28 78.4499H97.5601C96.0164 78.4499 94.7651 79.7013 94.7651 81.2449V89.9649C94.7651 91.5085 96.0164 92.7599 97.5601 92.7599H106.28C107.824 92.7599 109.075 91.5085 109.075 89.9649V81.2449C109.075 79.7013 107.824 78.4499 106.28 78.4499Z" fill="#07064E"></path>
<path d="M125.26 34.8149H116.54C114.996 34.8149 113.745 36.0663 113.745 37.6099V46.3299C113.745 47.8736 114.996 49.1249 116.54 49.1249H125.26C126.804 49.1249 128.055 47.8736 128.055 46.3299V37.6099C128.055 36.0663 126.804 34.8149 125.26 34.8149Z" fill="#07064E"></path>
</g>
<g id="Vector_9">
<path d="M125.26 78.4499H116.54C114.996 78.4499 113.745 79.7013 113.745 81.2449V89.9649C113.745 91.5085 114.996 92.7599 116.54 92.7599H125.26C126.804 92.7599 128.055 91.5085 128.055 89.9649V81.2449C128.055 79.7013 126.804 78.4499 125.26 78.4499Z" fill="#2BF5BA"></path>
<path d="M87.3051 78.4499H78.5851C77.0415 78.4499 75.7901 79.7013 75.7901 81.2449V89.9649C75.7901 91.5086 77.0415 92.7599 78.5851 92.7599H87.3051C88.8487 92.7599 90.1001 91.5086 90.1001 89.9649V81.2449C90.1001 79.7013 88.8487 78.4499 87.3051 78.4499Z" fill="#2BF5BA"></path>
<path d="M87.3052 34.8149H78.5852C77.0415 34.8149 75.7902 36.0663 75.7902 37.6099V46.3299C75.7902 47.8736 77.0415 49.1249 78.5852 49.1249H87.3052C88.8488 49.1249 90.1002 47.8736 90.1002 46.3299V37.6099C90.1002 36.0663 88.8488 34.8149 87.3052 34.8149Z" fill="#2BF5BA"></path>
<path d="M106.28 34.815H97.5602C96.0166 34.815 94.7652 36.0663 94.7652 37.61V46.33C94.7652 47.8736 96.0166 49.125 97.5602 49.125H106.28C107.824 49.125 109.075 47.8736 109.075 46.33V37.61C109.075 36.0663 107.824 34.815 106.28 34.815Z" fill="#2BF5BA"></path>
<path d="M87.3053 56.495H78.5853C77.0417 56.495 75.7903 57.7464 75.7903 59.29V68.01C75.7903 69.5537 77.0417 70.805 78.5853 70.805H87.3053C88.849 70.805 90.1003 69.5537 90.1003 68.01V59.29C90.1003 57.7464 88.849 56.495 87.3053 56.495Z" fill="#2BF5BA"></path>
<path d="M125.26 56.495H116.54C114.997 56.495 113.745 57.7464 113.745 59.29V68.01C113.745 69.5537 114.997 70.805 116.54 70.805H125.26C126.804 70.805 128.055 69.5537 128.055 68.01V59.29C128.055 57.7464 126.804 56.495 125.26 56.495Z" fill="#2BF5BA"></path>
</g>
<g id="Vector_10">
<path d="M87.2051 90.155H86.2501C86.1401 90.155 86.0501 90.125 85.9851 90.075C85.9151 90.02 85.8651 89.95 85.8351 89.865L84.9851 87.67H80.9001L80.0501 89.865C80.0251 89.94 79.9751 90.01 79.9051 90.07C79.8351 90.13 79.7451 90.16 79.6401 90.16H78.6851L82.3251 81.06H83.5701L87.2101 90.16L87.2051 90.155ZM84.6401 86.78L83.2101 83.075C83.1651 82.965 83.1251 82.835 83.0751 82.69C83.0301 82.545 82.9851 82.39 82.9401 82.225C82.8501 82.57 82.7601 82.855 82.6651 83.085L81.2351 86.78H84.6401Z" fill="white"></path>
<path d="M101.615 81.055C102.175 81.055 102.655 81.11 103.06 81.22C103.465 81.33 103.795 81.485 104.055 81.69C104.315 81.895 104.505 82.14 104.63 82.435C104.755 82.73 104.815 83.06 104.815 83.43C104.815 83.655 104.78 83.87 104.71 84.075C104.64 84.28 104.535 84.47 104.395 84.65C104.255 84.83 104.08 84.99 103.865 85.13C103.65 85.27 103.4 85.385 103.115 85.475C103.785 85.6 104.285 85.84 104.625 86.19C104.96 86.54 105.13 86.995 105.13 87.565C105.13 87.95 105.06 88.3 104.915 88.62C104.775 88.935 104.565 89.21 104.29 89.44C104.015 89.67 103.68 89.845 103.285 89.97C102.885 90.095 102.435 90.155 101.925 90.155H98.7101V81.055H101.615ZM99.9401 82.025V85.13H101.565C101.91 85.13 102.215 85.09 102.47 85.015C102.725 84.94 102.94 84.835 103.105 84.7C103.27 84.565 103.395 84.4 103.475 84.21C103.555 84.02 103.595 83.805 103.595 83.58C103.595 83.045 103.435 82.65 103.11 82.4C102.79 82.15 102.29 82.03 101.61 82.03H99.9351L99.9401 82.025ZM101.91 89.18C102.26 89.18 102.565 89.14 102.82 89.06C103.075 88.98 103.28 88.865 103.445 88.72C103.61 88.575 103.725 88.4 103.805 88.2C103.88 88 103.92 87.78 103.92 87.535C103.92 87.065 103.755 86.695 103.42 86.42C103.085 86.145 102.585 86.01 101.915 86.01H99.9451V89.18H101.915H101.91Z" fill="white"></path>
<path d="M124.04 88.275C124.11 88.275 124.165 88.305 124.22 88.355L124.71 88.88C124.335 89.31 123.885 89.65 123.355 89.89C122.825 90.13 122.18 90.25 121.425 90.25C120.775 90.25 120.18 90.135 119.645 89.91C119.11 89.685 118.655 89.365 118.28 88.955C117.905 88.545 117.61 88.055 117.405 87.485C117.195 86.915 117.095 86.285 117.095 85.6C117.095 84.915 117.205 84.285 117.42 83.715C117.635 83.145 117.94 82.65 118.33 82.24C118.72 81.83 119.19 81.51 119.735 81.285C120.28 81.06 120.885 80.945 121.545 80.945C122.205 80.945 122.765 81.05 123.26 81.255C123.755 81.465 124.19 81.745 124.57 82.1L124.165 82.665C124.14 82.705 124.105 82.74 124.065 82.77C124.025 82.8 123.97 82.81 123.905 82.81C123.83 82.81 123.735 82.77 123.625 82.685C123.515 82.605 123.37 82.51 123.195 82.41C123.015 82.31 122.795 82.215 122.53 82.135C122.265 82.055 121.935 82.01 121.545 82.01C121.075 82.01 120.645 82.09 120.255 82.255C119.865 82.42 119.53 82.655 119.25 82.965C118.97 83.275 118.75 83.65 118.595 84.095C118.44 84.54 118.36 85.04 118.36 85.6C118.36 86.16 118.44 86.675 118.605 87.12C118.77 87.565 118.99 87.94 119.27 88.245C119.55 88.55 119.885 88.785 120.265 88.945C120.65 89.105 121.06 89.185 121.505 89.185C121.775 89.185 122.02 89.17 122.24 89.14C122.46 89.11 122.66 89.06 122.845 88.99C123.03 88.92 123.2 88.835 123.36 88.735C123.52 88.63 123.675 88.505 123.835 88.365C123.905 88.3 123.98 88.27 124.05 88.27L124.04 88.275Z" fill="white"></path>
<path d="M87.2052 46.52H86.2502C86.1402 46.52 86.0502 46.49 85.9852 46.44C85.9152 46.385 85.8652 46.315 85.8352 46.23L84.9852 44.035H80.9002L80.0502 46.23C80.0252 46.305 79.9752 46.375 79.9052 46.435C79.8352 46.495 79.7452 46.525 79.6402 46.525H78.6852L82.3252 37.425H83.5702L87.2102 46.525L87.2052 46.52ZM84.6402 43.14L83.2102 39.435C83.1652 39.325 83.1252 39.195 83.0752 39.05C83.0302 38.905 82.9852 38.75 82.9402 38.585C82.8502 38.93 82.7602 39.215 82.6652 39.445L81.2352 43.14H84.6402Z" fill="white"></path>
<path d="M101.615 37.4151C102.175 37.4151 102.655 37.4701 103.06 37.5801C103.465 37.6901 103.795 37.8451 104.055 38.0501C104.315 38.2551 104.505 38.5001 104.63 38.7951C104.755 39.0901 104.815 39.4201 104.815 39.7901C104.815 40.0151 104.78 40.2301 104.71 40.4351C104.64 40.6401 104.535 40.8301 104.395 41.0101C104.255 41.1901 104.08 41.3501 103.865 41.4901C103.65 41.6301 103.4 41.7451 103.115 41.8351C103.785 41.9601 104.285 42.2001 104.625 42.5501C104.96 42.9001 105.13 43.3551 105.13 43.9251C105.13 44.3101 105.06 44.6601 104.915 44.9801C104.77 45.3001 104.565 45.5701 104.29 45.8001C104.015 46.0301 103.68 46.2051 103.285 46.3301C102.885 46.4551 102.435 46.5151 101.925 46.5151H98.7103V37.4151H101.615ZM99.9403 38.3901V41.4951H101.565C101.91 41.4951 102.215 41.4551 102.47 41.3801C102.725 41.3051 102.94 41.2001 103.105 41.0651C103.27 40.9301 103.395 40.7651 103.475 40.5751C103.555 40.3851 103.595 40.1701 103.595 39.9451C103.595 39.4101 103.435 39.0151 103.11 38.7651C102.79 38.5151 102.29 38.3951 101.61 38.3951H99.9353L99.9403 38.3901ZM101.91 45.5401C102.26 45.5401 102.565 45.5001 102.82 45.4201C103.075 45.3401 103.28 45.2251 103.445 45.0801C103.61 44.9351 103.725 44.7601 103.805 44.5601C103.88 44.3601 103.92 44.1401 103.92 43.8951C103.92 43.4251 103.755 43.0551 103.42 42.7801C103.085 42.5051 102.585 42.3701 101.915 42.3701H99.9453V45.5401H101.915H101.91Z" fill="white"></path>
<path d="M124.04 44.6401C124.11 44.6401 124.165 44.6701 124.22 44.7201L124.71 45.2451C124.335 45.6751 123.885 46.0151 123.355 46.2551C122.825 46.4951 122.18 46.6151 121.425 46.6151C120.775 46.6151 120.18 46.5001 119.645 46.2751C119.11 46.0501 118.655 45.7301 118.28 45.3201C117.905 44.9101 117.61 44.4201 117.405 43.8501C117.195 43.2801 117.095 42.6501 117.095 41.9651C117.095 41.2801 117.205 40.6501 117.42 40.0801C117.635 39.5101 117.94 39.0151 118.33 38.6051C118.72 38.1951 119.19 37.8751 119.735 37.6501C120.28 37.4251 120.885 37.3101 121.545 37.3101C122.205 37.3101 122.765 37.4151 123.26 37.6201C123.755 37.8301 124.19 38.1101 124.57 38.4651L124.165 39.0301C124.14 39.0701 124.105 39.1051 124.065 39.1351C124.025 39.1651 123.97 39.1751 123.905 39.1751C123.83 39.1751 123.735 39.1351 123.625 39.0501C123.515 38.9701 123.37 38.8751 123.195 38.7751C123.015 38.6751 122.795 38.5801 122.53 38.5001C122.265 38.4201 121.935 38.3751 121.545 38.3751C121.075 38.3751 120.645 38.4551 120.255 38.6201C119.865 38.7851 119.53 39.0201 119.25 39.3301C118.97 39.6401 118.75 40.0151 118.595 40.4601C118.44 40.9051 118.36 41.4051 118.36 41.9651C118.36 42.5251 118.44 43.0401 118.605 43.4851C118.77 43.9301 118.99 44.3051 119.27 44.6101C119.55 44.9151 119.885 45.1501 120.265 45.3101C120.65 45.4701 121.06 45.5501 121.505 45.5501C121.775 45.5501 122.02 45.5351 122.24 45.5051C122.46 45.4751 122.66 45.4251 122.845 45.3551C123.03 45.2851 123.2 45.2001 123.36 45.1001C123.52 44.9951 123.675 44.8701 123.835 44.7301C123.905 44.6651 123.98 44.6351 124.05 44.6351L124.04 44.6401Z" fill="white"></path>
<path d="M87.2053 68.2H86.2503C86.1403 68.2 86.0503 68.17 85.9853 68.12C85.9153 68.065 85.8653 67.995 85.8353 67.91L84.9853 65.715H80.9003L80.0503 67.91C80.0253 67.985 79.9753 68.055 79.9053 68.115C79.8353 68.175 79.7453 68.205 79.6403 68.205H78.6853L82.3253 59.105H83.5703L87.2103 68.205L87.2053 68.2ZM84.6403 64.825L83.2103 61.12C83.1653 61.01 83.1253 60.88 83.0753 60.735C83.0303 60.59 82.9853 60.435 82.9403 60.27C82.8503 60.615 82.7603 60.9 82.6653 61.13L81.2353 64.825H84.6403Z" fill="white"></path>
<path d="M124.04 66.325C124.11 66.325 124.165 66.355 124.22 66.405L124.71 66.93C124.335 67.36 123.885 67.7 123.355 67.94C122.825 68.18 122.18 68.3 121.425 68.3C120.775 68.3 120.18 68.185 119.645 67.96C119.11 67.735 118.655 67.415 118.28 67.005C117.905 66.595 117.61 66.105 117.405 65.535C117.195 64.965 117.095 64.335 117.095 63.65C117.095 62.965 117.205 62.335 117.42 61.765C117.635 61.195 117.94 60.7 118.33 60.29C118.72 59.88 119.19 59.56 119.735 59.335C120.28 59.11 120.885 58.995 121.545 58.995C122.205 58.995 122.765 59.1 123.26 59.305C123.755 59.515 124.19 59.795 124.57 60.15L124.165 60.715C124.14 60.755 124.105 60.79 124.065 60.82C124.025 60.85 123.97 60.86 123.905 60.86C123.83 60.86 123.735 60.82 123.625 60.735C123.515 60.655 123.37 60.56 123.195 60.46C123.015 60.36 122.795 60.265 122.53 60.185C122.265 60.105 121.935 60.06 121.545 60.06C121.075 60.06 120.645 60.14 120.255 60.305C119.865 60.47 119.53 60.705 119.25 61.015C118.97 61.325 118.75 61.7 118.595 62.145C118.44 62.59 118.36 63.09 118.36 63.65C118.36 64.21 118.44 64.725 118.605 65.17C118.77 65.615 118.99 65.99 119.27 66.295C119.55 66.6 119.885 66.835 120.265 66.995C120.65 67.155 121.06 67.235 121.505 67.235C121.775 67.235 122.02 67.22 122.24 67.19C122.46 67.16 122.66 67.11 122.845 67.04C123.03 66.97 123.2 66.885 123.36 66.785C123.52 66.68 123.675 66.555 123.835 66.415C123.905 66.35 123.98 66.32 124.05 66.32L124.04 66.325Z" fill="white"></path>
</g>
<g id="Vector_11">
<path d="M107.675 58.1489L94.2544 71.5698C93.8287 71.9955 93.8288 72.6856 94.2544 73.1113L94.3039 73.1608C94.7296 73.5865 95.4197 73.5865 95.8454 73.1608L109.266 59.7399C109.692 59.3142 109.692 58.6241 109.266 58.1984L109.217 58.1489C108.791 57.7233 108.101 57.7233 107.675 58.1489Z" fill="#EDEDED"></path>
<path d="M107.674 56.0575L94.253 69.4784C93.8274 69.9041 93.8274 70.5942 94.253 71.0199L94.3025 71.0694C94.7282 71.4951 95.4183 71.4951 95.844 71.0694L109.265 57.6485C109.691 57.2228 109.691 56.5327 109.265 56.107L109.215 56.0575C108.79 55.6319 108.1 55.6319 107.674 56.0575Z" fill="#EDEDED"></path>
</g>
<path id="Vector_12" d="M95.075 71.6351C94.72 71.6351 94.385 71.4951 94.13 71.2451L94.08 71.1951C93.56 70.6751 93.56 69.8251 94.08 69.3051L107.5 55.8851C108.005 55.3801 108.885 55.3801 109.39 55.8851L109.44 55.9351C109.695 56.1901 109.83 56.5251 109.83 56.8801C109.83 57.2351 109.69 57.5751 109.44 57.8251L96.02 71.2451C95.77 71.4951 95.43 71.6351 95.075 71.6351ZM108.445 55.9801C108.22 55.9801 108.01 56.0701 107.85 56.2251L94.43 69.6451C94.27 69.8051 94.185 70.0151 94.185 70.2401C94.185 70.4651 94.275 70.6801 94.43 70.8351L94.48 70.8851C94.8 71.2051 95.355 71.2051 95.675 70.8851L109.095 57.4651C109.255 57.3051 109.34 57.0951 109.34 56.8701C109.34 56.6451 109.25 56.4301 109.095 56.2751L109.045 56.2251C108.885 56.0651 108.675 55.9751 108.45 55.9751L108.445 55.9801Z" fill="#07064E"></path>
<g id="Vector_13">
<path d="M100.785 59.2401L105.4 54.6251C107.37 52.6551 110.575 52.4251 112.665 54.2601C114.955 56.2751 115.04 59.7701 112.92 61.8901L108.18 66.6301C107.735 67.0751 107.735 67.7901 108.18 68.2351C108.625 68.6801 109.34 68.6801 109.785 68.2351L114.485 63.5351C117.405 60.6151 117.625 55.8301 114.76 52.8601C111.84 49.8351 107.025 49.8001 104.065 52.7601L99.19 57.6351C98.745 58.0801 98.745 58.7951 99.19 59.2401C99.635 59.6851 100.35 59.6851 100.795 59.2401H100.785Z" fill="#EDEDED"></path>
<path d="M102.735 72.0751L98.12 76.6901C96.15 78.6601 92.945 78.8901 90.855 77.0551C88.565 75.0401 88.48 71.5451 90.6 69.4251L95.34 64.6851C95.785 64.2401 95.785 63.5251 95.34 63.0801C94.895 62.6351 94.18 62.6351 93.735 63.0801L89.035 67.7801C86.115 70.7001 85.895 75.4851 88.76 78.4551C90.4 80.1551 92.64 80.9101 94.81 80.7201C94.885 80.7151 94.96 80.5051 95.035 80.4951C95.665 80.4201 96.215 79.1301 96.815 78.8951C97.75 78.5301 98.58 79.2851 99.335 78.5301L99.555 78.4451L104.33 73.6701C104.775 73.2251 104.775 72.5101 104.33 72.0651C103.885 71.6201 103.17 71.6201 102.725 72.0651L102.735 72.0751Z" fill="#EDEDED"></path>
</g>
<path id="Vector_14" d="M114.405 57.4896C114.56 58.6196 114.335 59.7896 113.745 60.8096V64.2746L114.485 63.5346C116.38 61.6396 117.13 58.9596 116.64 56.4946H116.54C115.685 56.4946 114.915 56.8796 114.405 57.4896Z" fill="#2AEDB4"></path>
<path id="Vector_15" d="M99.465 78.5547L99.57 78.4497H97.565C96.2 78.4497 95.065 79.4247 94.82 80.7197C96.515 80.5747 98.17 79.8497 99.465 78.5547Z" fill="#07064E"></path>
<g id="Vector_16">
<path d="M100.785 57.1449L105.4 52.5299C107.37 50.5599 110.575 50.3299 112.665 52.1649C114.955 54.1799 115.04 57.6749 112.92 59.7949L108.18 64.5349C107.735 64.9799 107.735 65.6949 108.18 66.1399C108.625 66.5849 109.34 66.5849 109.785 66.1399L114.485 61.4399C117.405 58.5199 117.625 53.7349 114.76 50.7649C111.84 47.7399 107.025 47.7049 104.065 50.6649L99.19 55.5399C98.745 55.9849 98.745 56.6999 99.19 57.1449C99.635 57.5899 100.35 57.5899 100.795 57.1449H100.785Z" fill="white"></path>
<path d="M102.735 69.9799L98.12 74.5949C96.15 76.5649 92.945 76.7949 90.855 74.9599C88.565 72.9449 88.48 69.4499 90.6 67.3299L95.34 62.5899C95.785 62.1449 95.785 61.4299 95.34 60.9849C94.895 60.5399 94.18 60.5399 93.735 60.9849L89.035 65.6849C86.115 68.6049 85.895 73.3899 88.76 76.3599C91.68 79.3849 96.495 79.4199 99.455 76.4599L104.33 71.5849C104.775 71.1399 104.775 70.4249 104.33 69.9799C103.885 69.5349 103.17 69.5349 102.725 69.9799H102.735Z" fill="white"></path>
</g>
<g id="Vector_17">
<path d="M108.98 66.7148C108.61 66.7148 108.265 66.5698 108.005 66.3098C107.745 66.0498 107.6 65.7048 107.6 65.3348C107.6 64.9648 107.745 64.6198 108.005 64.3598L112.745 59.6198C113.73 58.6348 114.245 57.3298 114.2 55.9348C114.155 54.5448 113.55 53.2698 112.5 52.3498C110.535 50.6248 107.495 50.7798 105.57 52.7048L100.955 57.3198C100.415 57.8598 99.54 57.8598 99.005 57.3198C98.465 56.7798 98.465 55.9048 99.005 55.3698L103.88 50.4948C105.36 49.0148 107.325 48.1998 109.425 48.2298C111.52 48.2498 113.475 49.0898 114.93 50.5998C117.835 53.6148 117.715 58.5598 114.655 61.6198L109.955 66.3198C109.695 66.5798 109.35 66.7248 108.98 66.7248V66.7148ZM109.285 50.6598C110.56 50.6598 111.82 51.0948 112.83 51.9798C113.985 52.9948 114.645 54.3948 114.695 55.9198C114.745 57.4248 114.16 58.9048 113.095 59.9698L108.355 64.7098C108.185 64.8748 108.095 65.0998 108.095 65.3348C108.095 65.5698 108.185 65.7948 108.355 65.9598C108.69 66.2948 109.275 66.2948 109.61 65.9598L114.31 61.2598C117.18 58.3898 117.305 53.7548 114.58 50.9298C113.215 49.5148 111.385 48.7298 109.425 48.7098C107.465 48.7098 105.62 49.4448 104.235 50.8348L99.36 55.7098C99.015 56.0548 99.015 56.6198 99.36 56.9648C99.705 57.3098 100.27 57.3098 100.615 56.9648L105.23 52.3498C106.355 51.2248 107.83 50.6548 109.29 50.6548L109.285 50.6598Z" fill="#07064E"></path>
<path d="M94.165 78.8998H94.09C91.995 78.8798 90.04 78.0398 88.585 76.5298C85.68 73.5148 85.8 68.5698 88.86 65.5098L93.56 60.8098C94.08 60.2898 94.99 60.2898 95.51 60.8098C95.77 61.0698 95.915 61.4148 95.915 61.7848C95.915 62.1548 95.77 62.4998 95.51 62.7598L90.765 67.4998C89.78 68.4848 89.265 69.7898 89.31 71.1848C89.355 72.5748 89.96 73.8498 91.01 74.7698C92.97 76.4948 96.015 76.3398 97.94 74.4148L102.555 69.7998C103.075 69.2798 103.985 69.2798 104.505 69.7998C105.045 70.3398 105.045 71.2148 104.505 71.7498L99.63 76.6248C98.165 78.0898 96.225 78.8898 94.16 78.8898L94.165 78.8998ZM94.545 60.8998C94.31 60.8998 94.085 60.9898 93.92 61.1598L89.22 65.8598C86.35 68.7298 86.225 73.3648 88.95 76.1898C90.315 77.6048 92.145 78.3898 94.105 78.4098C96.075 78.4098 97.91 77.6748 99.295 76.2848L104.17 71.4098C104.515 71.0648 104.515 70.4998 104.17 70.1548C103.835 69.8198 103.25 69.8198 102.915 70.1548L98.3 74.7698C96.195 76.8748 92.855 77.0398 90.7 75.1448C89.545 74.1298 88.885 72.7298 88.835 71.2048C88.785 69.6998 89.37 68.2198 90.435 67.1548L95.18 62.4148C95.345 62.2498 95.44 62.0248 95.44 61.7898C95.44 61.5548 95.35 61.3298 95.18 61.1648C95.01 60.9998 94.79 60.9048 94.555 60.9048L94.545 60.8998Z" fill="#07064E"></path>
</g>
<g id="Vector_18">
<path d="M94.0151 57.9648L90.9401 56.8298C90.8601 56.7998 90.8151 56.7098 90.8451 56.6248C90.8751 56.5398 90.9651 56.4998 91.0501 56.5298L94.1251 57.6648C94.2051 57.6948 94.2501 57.7848 94.2201 57.8698C94.1901 57.9548 94.1001 57.9948 94.0151 57.9648Z" fill="#07064E"></path>
<path d="M95.9852 55.9948L94.8502 52.9198C94.8202 52.8398 94.7302 52.7948 94.6452 52.8248C94.5602 52.8548 94.5202 52.9448 94.5502 53.0298L95.6852 56.1048C95.7152 56.1848 95.8052 56.2298 95.8902 56.1998C95.9752 56.1698 96.0152 56.0798 95.9852 55.9948Z" fill="#07064E"></path>
<path d="M107.855 71.8098L108.99 74.8848C109.02 74.9648 109.11 75.0098 109.195 74.9798C109.28 74.9498 109.32 74.8598 109.29 74.7748L108.155 71.6998C108.125 71.6198 108.035 71.5748 107.95 71.6048C107.865 71.6348 107.825 71.7248 107.855 71.8098Z" fill="#07064E"></path>
<path d="M109.83 69.8349L112.905 70.9699C112.985 70.9999 113.03 71.0899 113 71.1749C112.97 71.2599 112.88 71.2999 112.795 71.2699L109.72 70.1349C109.64 70.1049 109.595 70.0149 109.625 69.9299C109.655 69.8449 109.745 69.8049 109.83 69.8349Z" fill="#07064E"></path>
</g>
<g id="Vector_19">
<path d="M88.6101 55.9748L86.8251 55.3148C86.7451 55.2848 86.7001 55.1948 86.7301 55.1098C86.7601 55.0248 86.8501 54.9848 86.9351 55.0148L88.7201 55.6748C88.8001 55.7048 88.8451 55.7948 88.8151 55.8798C88.7851 55.9648 88.6951 56.0048 88.6101 55.9748Z" fill="#2BF5BA"></path>
<path d="M93.9952 50.5847L93.3352 48.7997C93.3052 48.7197 93.2152 48.6747 93.1302 48.7047C93.0452 48.7347 93.0052 48.8247 93.0352 48.9097L93.6952 50.6947C93.7252 50.7747 93.8152 50.8197 93.9002 50.7897C93.9852 50.7597 94.0252 50.6697 93.9952 50.5847Z" fill="#2BF5BA"></path>
<path d="M109.85 77.2148L110.51 78.9999C110.54 79.0799 110.63 79.1249 110.715 79.0949C110.8 79.0649 110.84 78.9749 110.81 78.8899L110.15 77.1049C110.12 77.0249 110.03 76.9799 109.945 77.0099C109.86 77.0399 109.82 77.1299 109.85 77.2148Z" fill="#2BF5BA"></path>
<path d="M115.235 71.8248L117.02 72.4848C117.1 72.5148 117.145 72.6048 117.115 72.6898C117.085 72.7748 116.995 72.8148 116.91 72.7848L115.125 72.1248C115.045 72.0948 115 72.0048 115.03 71.9198C115.06 71.8348 115.15 71.7948 115.235 71.8248Z" fill="#2BF5BA"></path>
</g>
<path id="Vector_20" d="M102.67 111.895C104.589 111.895 106.145 110.339 106.145 108.42C106.145 106.501 104.589 104.945 102.67 104.945C100.751 104.945 99.195 106.501 99.195 108.42C99.195 110.339 100.751 111.895 102.67 111.895Z" fill="white"></path>
<path id="Vector_21" d="M102.645 112.145C100.81 112.145 99.265 110.83 98.97 109.025C98.95 108.89 99.04 108.76 99.175 108.74C99.31 108.72 99.44 108.81 99.46 108.945C99.715 110.51 101.055 111.645 102.645 111.645C104.425 111.645 105.87 110.2 105.87 108.42C105.87 106.64 104.425 105.195 102.645 105.195C101.54 105.195 100.525 105.75 99.925 106.685C99.85 106.8 99.695 106.835 99.58 106.76C99.465 106.685 99.43 106.53 99.505 106.415C100.195 105.34 101.365 104.695 102.645 104.695C104.7 104.695 106.37 106.365 106.37 108.42C106.37 110.475 104.7 112.145 102.645 112.145Z" fill="#07064E"></path>
</g>
</g>
</g>
</g>
<defs>
<clipPath id="clip0_70_5428">
<rect width="200" height="140" fill="white"></rect>
</clipPath>
</defs>
</svg>