<svg width="200" height="140" viewBox="0 0 200 140" fill="none" xmlns="http://www.w3.org/2000/svg">
<g id="illu_spot_automatic-voting-start/Default" clip-path="url(#clip0_77_157)">
<g id="illu_spot_automatic-voting-start">
<g id="background">
<path d="M61.2699 8.09522C21.7449 3.85022 -5.24506 6.82022 9.62494 66.2052C15.2299 88.6002 36.3849 142.585 97.6599 121.56C152.05 102.895 160.495 137.965 168.095 108.625C180.615 60.2702 193.78 74.7052 194.51 41.1852C194.96 20.3452 179.765 0.625216 151.66 10.2202C96.5649 29.0402 109.52 13.2802 61.2699 8.10022V8.09522Z" fill="#2BF5BA"></path>
<path d="M18.5055 120.807C20.0715 118.44 19.739 115.461 17.7628 114.154C15.7866 112.847 12.9151 113.706 11.3491 116.074C9.78315 118.442 10.1157 121.421 12.0919 122.728C14.0681 124.035 16.9395 123.175 18.5055 120.807Z" fill="#2BF5BA"></path>
<path d="M27.6851 121.138C28.2586 120.536 28.0706 119.426 27.2651 118.658C26.4596 117.89 25.3417 117.756 24.7682 118.357C24.1946 118.959 24.3827 120.069 25.1882 120.837C25.9937 121.605 27.1116 121.74 27.6851 121.138Z" fill="#2BF5BA"></path>
<path d="M180.742 132.531C181.847 131.334 181.256 128.989 179.42 127.293C177.585 125.597 175.201 125.192 174.095 126.389C172.989 127.585 173.581 129.93 175.416 131.626C177.252 133.323 179.636 133.727 180.742 132.531Z" fill="#2BF5BA"></path>
</g>
<g id="illu_spot_automatic-voting-start_2">
<g id="stroke">
<path id="Vector" d="M125.625 101.245H56.57C54.22 101.245 52.32 99.3403 52.32 96.9953V45.4653C52.135 46.1003 129.74 45.2903 129.88 45.4653V96.9953C129.88 99.3453 127.975 101.245 125.63 101.245H125.625Z" fill="#2AEDB4"></path>
<path id="Vector_2" d="M125.625 99.1203H56.57C54.22 99.1203 52.32 97.2153 52.32 94.8703V43.3403C52.135 43.9753 129.74 43.1653 129.88 43.3403V94.8703C129.88 97.2203 127.975 99.1203 125.63 99.1203H125.625Z" fill="white"></path>
<path id="Vector_3" d="M125.625 37.7202H113.82V39.2952C114.43 39.6452 114.84 40.2902 114.84 41.0402C114.84 42.1552 113.935 43.0602 112.82 43.0602C111.705 43.0602 110.8 42.1552 110.8 41.0402C110.8 40.2902 111.215 39.6402 111.82 39.2952V37.7202H67.0399V39.2952C67.6449 39.6452 68.0599 40.2902 68.0599 41.0402C68.0599 42.1552 67.1549 43.0602 66.0399 43.0602C64.9249 43.0602 64.0199 42.1552 64.0199 41.0402C64.0199 40.2902 64.4349 39.6402 65.0399 39.2952V37.7202H56.5699C54.2199 37.7202 52.3199 39.6252 52.3199 41.9702V45.4402H129.88V41.9702C129.88 39.6202 127.975 37.7202 125.63 37.7202H125.625Z" fill="#07064E"></path>
<g id="Vector_4">
<path d="M112.82 41.7751C112.27 41.7751 111.82 41.3251 111.82 40.7751V29.2051C111.82 28.6551 112.27 28.2051 112.82 28.2051C113.37 28.2051 113.82 28.6551 113.82 29.2051V40.7751C113.82 41.3251 113.37 41.7751 112.82 41.7751Z" fill="white"></path>
<path d="M66.0399 41.7751C65.4899 41.7751 65.0399 41.3251 65.0399 40.7751V29.2051C65.0399 28.6551 65.4899 28.2051 66.0399 28.2051C66.5899 28.2051 67.0399 28.6551 67.0399 29.2051V40.7751C67.0399 41.3251 66.5899 41.7751 66.0399 41.7751Z" fill="white"></path>
</g>
<path id="Vector_5" d="M79.94 67.9253H73.075C72.2935 67.9253 71.66 68.5588 71.66 69.3403V76.8953C71.66 77.6768 72.2935 78.3103 73.075 78.3103H79.94C80.7215 78.3103 81.355 77.6768 81.355 76.8953V69.3403C81.355 68.5588 80.7215 67.9253 79.94 67.9253Z" fill="#EDEDED"></path>
<path id="Vector_6" d="M79.94 66.5054H73.075C72.2935 66.5054 71.66 67.1389 71.66 67.9204V75.4754C71.66 76.2569 72.2935 76.8904 73.075 76.8904H79.94C80.7215 76.8904 81.355 76.2569 81.355 75.4754V67.9204C81.355 67.1389 80.7215 66.5054 79.94 66.5054Z" fill="#07064E"></path>
<g id="Vector_7">
<path d="M79.9399 52.0601H73.0749C72.2934 52.0601 71.6599 52.6936 71.6599 53.4751V61.0301C71.6599 61.8115 72.2934 62.4451 73.0749 62.4451H79.9399C80.7214 62.4451 81.3549 61.8115 81.3549 61.0301V53.4751C81.3549 52.6936 80.7214 52.0601 79.9399 52.0601Z" fill="#2BF5BA"></path>
<path d="M92.8599 52.0601H85.9949C85.2134 52.0601 84.5799 52.6936 84.5799 53.4751V61.0301C84.5799 61.8115 85.2134 62.4451 85.9949 62.4451H92.8599C93.6414 62.4451 94.2749 61.8115 94.2749 61.0301V53.4751C94.2749 52.6936 93.6414 52.0601 92.8599 52.0601Z" fill="#2BF5BA"></path>
<path d="M105.785 52.0601H98.9199C98.1384 52.0601 97.5049 52.6936 97.5049 53.4751V61.0301C97.5049 61.8115 98.1384 62.4451 98.9199 62.4451H105.785C106.566 62.4451 107.2 61.8115 107.2 61.0301V53.4751C107.2 52.6936 106.566 52.0601 105.785 52.0601Z" fill="#2BF5BA"></path>
<path d="M118.71 52.0601H111.845C111.063 52.0601 110.43 52.6936 110.43 53.4751V61.0301C110.43 61.8115 111.063 62.4451 111.845 62.4451H118.71C119.491 62.4451 120.125 61.8115 120.125 61.0301V53.4751C120.125 52.6936 119.491 52.0601 118.71 52.0601Z" fill="#2BF5BA"></path>
<path d="M67.0149 66.5051H60.1499C59.3684 66.5051 58.7349 67.1386 58.7349 67.9201V75.4751C58.7349 76.2565 59.3684 76.8901 60.1499 76.8901H67.0149C67.7964 76.8901 68.4299 76.2565 68.4299 75.4751V67.9201C68.4299 67.1386 67.7964 66.5051 67.0149 66.5051Z" fill="#2BF5BA"></path>
<path d="M92.8599 66.505H85.9949C85.2135 66.505 84.5799 67.1385 84.5799 67.92V75.475C84.5799 76.2565 85.2135 76.89 85.9949 76.89H92.8599C93.6414 76.89 94.2749 76.2565 94.2749 75.475V67.92C94.2749 67.1385 93.6414 66.505 92.8599 66.505Z" fill="#2BF5BA"></path>
<path d="M105.785 66.5049H98.92C98.1385 66.5049 97.505 67.1385 97.505 67.9199V75.4749C97.505 76.2564 98.1385 76.8899 98.92 76.8899H105.785C106.566 76.8899 107.2 76.2564 107.2 75.4749V67.9199C107.2 67.1385 106.566 66.5049 105.785 66.5049Z" fill="#2BF5BA"></path>
<path d="M67.015 80.9549H60.15C59.3685 80.9549 58.735 81.5885 58.735 82.3699V89.9249C58.735 90.7064 59.3685 91.3399 60.15 91.3399H67.015C67.7964 91.3399 68.43 90.7064 68.43 89.9249V82.3699C68.43 81.5885 67.7964 80.9549 67.015 80.9549Z" fill="#2BF5BA"></path>
<path d="M79.94 80.9549H73.075C72.2935 80.9549 71.66 81.5885 71.66 82.3699V89.9249C71.66 90.7064 72.2935 91.3399 73.075 91.3399H79.94C80.7214 91.3399 81.355 90.7064 81.355 89.9249V82.3699C81.355 81.5885 80.7214 80.9549 79.94 80.9549Z" fill="#2BF5BA"></path>
<path d="M92.86 80.9549H85.995C85.2135 80.9549 84.58 81.5885 84.58 82.3699V89.9249C84.58 90.7064 85.2135 91.3399 85.995 91.3399H92.86C93.6414 91.3399 94.275 90.7064 94.275 89.9249V82.3699C94.275 81.5885 93.6414 80.9549 92.86 80.9549Z" fill="#2BF5BA"></path>
<path d="M114.57 67.7899L115.71 66.5099H111.85C111.065 66.5099 110.435 67.1449 110.435 67.9249V71.5399C111.98 70.5049 113.375 69.2399 114.575 67.7899H114.57Z" fill="#2BF5BA"></path>
<path d="M114.57 67.7899L115.71 66.5099H111.85C111.065 66.5099 110.435 67.1449 110.435 67.9249V71.5399C111.98 70.5049 113.375 69.2399 114.575 67.7899H114.57Z" fill="#2BF5BA"></path>
</g>
<path id="Vector_8" d="M132.42 94.2753C131.92 90.1853 132.975 86.0603 135.145 82.5603L139.47 74.9753C142.735 69.7053 141.36 62.8103 136.325 59.1953C131.29 55.5803 124.315 56.4853 120.37 61.2603L114.57 67.7853C111.945 70.9603 108.375 73.2803 104.34 74.1153C101.64 74.6753 99.1401 76.2053 97.4051 78.6203L97.1401 78.9903L130.105 102.655L130.37 102.285C132.105 99.8703 132.755 97.0053 132.42 94.2703V94.2753Z" fill="white"></path>
<g id="Vector_9">
<path d="M107.35 85.89C105.28 89.42 106.205 94.01 109.595 96.445C112.955 98.855 117.545 98.295 120.24 95.28" fill="#EDEDED"></path>
<path d="M142.475 50.8299L142.27 50.6849C141.245 49.9499 139.815 50.1849 139.08 51.2099L134.245 57.9399C134.245 57.9399 134.225 57.9799 134.21 57.9999C134.94 58.3249 135.65 58.7199 136.32 59.1999C136.985 59.6799 137.585 60.2149 138.12 60.7999C138.135 60.7849 138.15 60.7699 138.16 60.7549L142.995 54.0249C143.73 52.9999 143.495 51.5699 142.47 50.8349L142.475 50.8299Z" fill="#EDEDED"></path>
<path d="M132.42 94.2748C131.92 90.1848 132.975 86.0598 135.145 82.5598L139.47 74.9748C139.945 74.2048 140.32 73.4048 140.6 72.5798C139.335 72.9748 138.19 73.6098 137.385 74.1948C131.215 77.8548 129.17 82.1148 121.91 84.4848C113.835 87.2798 107.84 79.4398 100.585 78.2748C99.5899 78.1148 98.6249 78.1298 97.6749 78.2598C97.5849 78.3798 97.4899 78.4998 97.3999 78.6198L97.1349 78.9898L130.1 102.655L130.365 102.285C132.1 99.8698 132.75 97.0048 132.415 94.2698L132.42 94.2748Z" fill="#EDEDED"></path>
<path d="M142.475 50.8299L142.27 50.6849C141.245 49.9499 139.815 50.1849 139.08 51.2099L134.245 57.9399C134.245 57.9399 134.225 57.9799 134.21 57.9999C134.94 58.3249 135.65 58.7199 136.32 59.1999C136.985 59.6799 137.585 60.2149 138.12 60.7999C138.135 60.7849 138.15 60.7699 138.16 60.7549L142.995 54.0249C143.73 52.9999 143.495 51.5699 142.47 50.8349L142.475 50.8299Z" fill="#EDEDED"></path>
</g>
<g id="Vector_10">
<path d="M144.66 81.3051C144.58 81.2251 144.575 81.0951 144.655 81.0151C145.125 80.5301 145.56 80.0101 145.96 79.4651C146.025 79.3751 146.155 79.3551 146.245 79.4201C146.335 79.4901 146.355 79.6201 146.29 79.7101C145.88 80.2651 145.43 80.8001 144.95 81.3001C144.88 81.3751 144.765 81.3851 144.68 81.3251C144.67 81.3201 144.665 81.3151 144.655 81.3051H144.66Z" fill="white"></path>
<path d="M141.61 78.4848C141.53 78.4048 141.53 78.2748 141.61 78.1948C142.085 77.7348 142.515 77.2298 142.9 76.6948L142.92 76.6648C142.985 76.5748 143.105 76.5648 143.195 76.6348C143.285 76.7048 143.295 76.8448 143.23 76.9348C142.835 77.4848 142.385 78.0098 141.895 78.4848C141.825 78.5548 141.71 78.5598 141.63 78.5048C141.62 78.4998 141.61 78.4898 141.605 78.4798L141.61 78.4848Z" fill="white"></path>
<path d="M144.66 81.3051C144.58 81.2251 144.575 81.0951 144.655 81.0151C145.125 80.5301 145.56 80.0101 145.96 79.4651C146.025 79.3751 146.155 79.3551 146.245 79.4201C146.335 79.4901 146.355 79.6201 146.29 79.7101C145.88 80.2651 145.43 80.8001 144.95 81.3001C144.88 81.3751 144.765 81.3851 144.68 81.3251C144.67 81.3201 144.665 81.3151 144.655 81.3051H144.66Z" fill="white"></path>
<path d="M116.625 60.5499C116.545 60.4949 116.515 60.3849 116.56 60.2949C116.855 59.6799 117.21 59.0849 117.605 58.5349C117.67 58.4449 117.81 58.4049 117.905 58.4699C118 58.5349 118.03 58.6499 117.965 58.7399L117.945 58.7699C117.565 59.2999 117.225 59.8749 116.935 60.4699C116.885 60.5699 116.765 60.6149 116.66 60.5649C116.65 60.5599 116.64 60.5549 116.63 60.5449L116.625 60.5499Z" fill="white"></path>
<path d="M112.985 58.5649C112.905 58.5049 112.875 58.3949 112.925 58.3049C113.245 57.6899 113.605 57.0899 114 56.5249C114.065 56.4299 114.195 56.4099 114.285 56.4749C114.375 56.5399 114.4 56.6699 114.335 56.7599C113.95 57.3099 113.6 57.8949 113.285 58.4899C113.235 58.5899 113.11 58.6299 113.01 58.5749C113 58.5749 112.995 58.5649 112.985 58.5599V58.5649Z" fill="white"></path>
</g>
<g id="Vector_11">
<path d="M119.32 56.9653C119.32 56.9653 119.295 56.9453 119.285 56.9353C119.21 56.8503 119.215 56.7203 119.3 56.6453C121.515 54.6653 124.37 53.6003 127.335 53.6553C127.45 53.6553 127.54 53.7503 127.535 53.8653C127.535 53.9803 127.44 54.0703 127.325 54.0653C124.46 54.0153 121.71 55.0353 119.57 56.9503C119.495 57.0153 119.39 57.0203 119.315 56.9653H119.32Z" fill="#07064E"></path>
<path d="M144.11 74.5603C145.24 71.9203 145.33 68.9853 144.365 66.2903C144.325 66.1853 144.38 66.0653 144.49 66.0303C144.595 65.9903 144.715 66.0453 144.75 66.1553C145.75 68.9503 145.655 71.9903 144.49 74.7253C144.445 74.8303 144.325 74.8803 144.22 74.8353C144.205 74.8303 144.195 74.8203 144.18 74.8153C144.105 74.7603 144.07 74.6603 144.11 74.5653V74.5603Z" fill="#07064E"></path>
<path d="M147.245 77.4053C149.445 73.1553 149.545 68.0353 147.52 63.7103C147.47 63.6053 147.52 63.4853 147.62 63.4353C147.725 63.3853 147.845 63.4353 147.895 63.5353C149.975 67.9753 149.87 73.2303 147.61 77.5903C147.56 77.6903 147.435 77.7303 147.335 77.6803C147.325 77.6803 147.32 77.6703 147.31 77.6653C147.23 77.6053 147.2 77.4953 147.25 77.4053H147.245Z" fill="#07064E"></path>
<path d="M144.11 74.5603C145.24 71.9203 145.33 68.9853 144.365 66.2903C144.325 66.1853 144.38 66.0653 144.49 66.0303C144.595 65.9903 144.715 66.0453 144.75 66.1553C145.75 68.9503 145.655 71.9903 144.49 74.7253C144.445 74.8303 144.325 74.8803 144.22 74.8353C144.205 74.8303 144.195 74.8203 144.18 74.8153C144.105 74.7603 144.07 74.6603 144.11 74.5653V74.5603Z" fill="#07064E"></path>
<path d="M147.245 77.4053C149.445 73.1553 149.545 68.0353 147.52 63.7103C147.47 63.6053 147.52 63.4853 147.62 63.4353C147.725 63.3853 147.845 63.4353 147.895 63.5353C149.975 67.9753 149.87 73.2303 147.61 77.5903C147.56 77.6903 147.435 77.7303 147.335 77.6803C147.325 77.6803 147.32 77.6703 147.31 77.6653C147.23 77.6053 147.2 77.4953 147.25 77.4053H147.245Z" fill="#07064E"></path>
<path d="M142.62 50.7652L142.415 50.6202C141.28 49.8052 139.695 50.0652 138.875 51.2002L134.125 57.8202C129.31 55.7702 123.635 57.0552 120.18 61.2402L114.375 67.7702C111.7 71.0052 108.12 73.2202 104.29 74.0152C101.425 74.6052 98.9099 76.2452 97.1999 78.6202L96.9349 78.9902C96.8949 79.0452 96.8799 79.1102 96.8899 79.1752C96.8999 79.2402 96.9349 79.3002 96.9899 79.3402L106.86 86.4252C105.07 90.0352 106.12 94.4002 109.445 96.7902C110.905 97.8352 112.59 98.3452 114.27 98.3452C116.4 98.3452 118.5 97.5152 120.095 95.9252L129.96 103.005C130.005 103.035 130.055 103.05 130.105 103.05C130.185 103.05 130.26 103.015 130.31 102.945L130.575 102.575C132.195 100.32 132.935 97.5802 132.705 94.8252C132.71 94.7902 132.705 94.7502 132.695 94.7152C132.685 94.6052 132.685 94.4952 132.67 94.3852C132.195 90.5002 133.15 86.3952 135.365 82.8252L139.69 75.2502C142.49 70.7352 141.97 64.8802 138.455 60.9252L143.205 54.3052C144.02 53.1702 143.76 51.5802 142.625 50.7652H142.62ZM109.74 96.3852C106.64 94.1602 105.645 90.1002 107.275 86.7252L119.685 95.6352C117.01 98.2552 112.825 98.6052 109.74 96.3852ZM130.165 102.285L130.045 102.455L97.4849 79.0802L97.6049 78.9152C99.1449 76.7702 101.385 75.2652 103.935 74.6252L132.205 94.9202C132.415 97.5402 131.705 100.14 130.165 102.29V102.285ZM142.795 54.0152L137.96 60.7452C137.86 60.8402 137.85 60.9952 137.945 61.1002C141.435 64.8902 141.975 70.6002 139.255 74.9952L134.93 82.5702C132.695 86.1752 131.715 90.3202 132.15 94.2652L104.57 74.4652C108.445 73.6202 112.06 71.3652 114.755 68.1002L120.56 61.5702C124.375 56.9552 130.98 56.0102 135.93 59.3752C136.045 59.4552 136.2 59.4252 136.275 59.3102C136.355 59.1952 136.325 59.0402 136.21 58.9652C135.685 58.6102 135.14 58.3102 134.585 58.0452L139.28 51.5002C139.675 50.9452 140.3 50.6502 140.935 50.6502C141.345 50.6502 141.76 50.7752 142.12 51.0302L142.325 51.1752C143.235 51.8302 143.445 53.1052 142.79 54.0152H142.795Z" fill="#07064E"></path>
<path d="M115.615 54.9102C115.615 54.9102 115.6 54.9002 115.59 54.8902C115.51 54.8102 115.505 54.6802 115.585 54.6002C118.995 51.0652 123.94 49.2852 128.81 49.8352C128.92 49.8502 129.005 49.9502 128.99 50.0602C128.975 50.1752 128.875 50.2552 128.765 50.2402C124.02 49.7052 119.205 51.4402 115.88 54.8802C115.81 54.9552 115.695 54.9652 115.615 54.9052V54.9102Z" fill="#07064E"></path>
</g>
</g>
</g>
</g>
</g>
<defs>
<clipPath id="clip0_77_157">
<rect width="200" height="140" fill="white"></rect>
</clipPath>
</defs>
</svg>