<svg width="200" height="140" viewBox="0 0 200 140" fill="none" xmlns="http://www.w3.org/2000/svg">
<g id="illu_spot_multiple-response-method/Default" clip-path="url(#clip0_77_325)">
<g id="illu_spot_multiple-response-method">
<g id="background">
<path d="M14.6315 78.1126C15.83 76.0368 14.6399 73.1061 11.9734 71.5666C9.30695 70.0271 6.1738 70.4618 4.97534 72.5376C3.77688 74.6134 4.96695 77.5442 7.63343 79.0837C10.2999 80.6232 13.4331 80.1884 14.6315 78.1126Z" fill="#2BF5BA"></path>
<path d="M192.82 130.994C193.728 128.5 191.338 125.341 187.482 123.937C183.626 122.534 179.764 123.418 178.856 125.911C177.949 128.405 180.339 131.564 184.195 132.968C188.051 134.371 191.913 133.488 192.82 130.994Z" fill="#2BF5BA"></path>
<path d="M182.035 13.9947C209.555 34.8647 186.145 55.2797 177.535 88.7347C160.125 156.39 120.99 115.605 55.0551 131.585C-6.07993 146.4 14.7951 114.88 22.5101 88.3447C30.2501 61.7347 7.93007 60.2897 7.14007 30.4297C6.65007 11.8697 15.0451 -4.85032 69.8701 10.8647C143.595 31.9947 148.17 -11.6853 182.035 13.9947Z" fill="#2BF5BA"></path>
<path d="M193.436 111.286C195.512 110.088 196.119 107.253 194.792 104.955C193.465 102.657 190.707 101.765 188.631 102.964C186.555 104.162 185.948 106.997 187.275 109.295C188.602 111.593 191.36 112.485 193.436 111.286Z" fill="#2BF5BA"></path>
</g>
<g id="illu_spot_multiple-response-method_2">
<g id="stroke">
<path id="Vector" d="M140.4 33.6597H58.23C54.9163 33.6597 52.23 36.346 52.23 39.6597V105.795C52.23 109.108 54.9163 111.795 58.23 111.795H140.4C143.714 111.795 146.4 109.108 146.4 105.795V39.6597C146.4 36.346 143.714 33.6597 140.4 33.6597Z" fill="#2AEDB4"></path>
<path id="Vector_2" d="M140.4 31.5347H58.23C54.9163 31.5347 52.23 34.221 52.23 37.5347V103.67C52.23 106.983 54.9163 109.67 58.23 109.67H140.4C143.714 109.67 146.4 106.983 146.4 103.67V37.5347C146.4 34.221 143.714 31.5347 140.4 31.5347Z" fill="white"></path>
<path id="Vector_3" d="M78.9951 61.4897H63.51C61.9443 61.4897 60.675 62.759 60.675 64.3247V79.8097C60.675 81.3755 61.9443 82.6447 63.51 82.6447H78.9951C80.5608 82.6447 81.8301 81.3755 81.8301 79.8097V64.3247C81.8301 62.759 80.5608 61.4897 78.9951 61.4897Z" fill="#2BF5BA"></path>
<path id="Vector_4" d="M107.055 63.6196H91.5701C90.0044 63.6196 88.7351 64.8889 88.7351 66.4546V81.9396C88.7351 83.5054 90.0044 84.7746 91.5701 84.7746H107.055C108.621 84.7746 109.89 83.5054 109.89 81.9396V66.4546C109.89 64.8889 108.621 63.6196 107.055 63.6196Z" fill="#EDEDED"></path>
<path id="Vector_5" d="M135.12 63.6196H119.635C118.069 63.6196 116.8 64.8889 116.8 66.4546V81.9396C116.8 83.5054 118.069 84.7746 119.635 84.7746H135.12C136.686 84.7746 137.955 83.5054 137.955 81.9396V66.4546C137.955 64.8889 136.686 63.6196 135.12 63.6196Z" fill="#EDEDED"></path>
<g id="Vector_6">
<path d="M107.055 61.4897H91.5701C90.0044 61.4897 88.7351 62.759 88.7351 64.3247V79.8097C88.7351 81.3755 90.0044 82.6447 91.5701 82.6447H107.055C108.621 82.6447 109.89 81.3755 109.89 79.8097V64.3247C109.89 62.759 108.621 61.4897 107.055 61.4897Z" fill="#07064E"></path>
<path d="M135.12 61.4897H119.635C118.069 61.4897 116.8 62.759 116.8 64.3247V79.8097C116.8 81.3755 118.069 82.6447 119.635 82.6447H135.12C136.686 82.6447 137.955 81.3755 137.955 79.8097V64.3247C137.955 62.759 136.686 61.4897 135.12 61.4897Z" fill="#07064E"></path>
</g>
<g id="Vector_7">
<path d="M77.5551 78.8001H76.1451C75.9801 78.8001 75.8501 78.7601 75.7501 78.6801C75.6501 78.6001 75.5751 78.4951 75.5251 78.3701L74.2651 75.1201H68.2251L66.9651 78.3701C66.9251 78.4851 66.8551 78.5851 66.7501 78.6701C66.6451 78.7601 66.5101 78.8001 66.3551 78.8001H64.9451L70.3251 65.3451H72.1651L77.5451 78.8001H77.5551ZM73.7601 73.8051L71.6451 68.3301C71.5801 68.1651 71.5151 67.9751 71.4501 67.7601C71.3801 67.5451 71.3151 67.3151 71.2501 67.0701C71.1201 67.5801 70.9851 68.0001 70.8451 68.3401L68.7301 73.8051H73.7601Z" fill="white"></path>
<path d="M98.8651 65.3401C99.6901 65.3401 100.405 65.4201 101 65.5851C101.6 65.7501 102.09 65.9801 102.475 66.2801C102.86 66.5801 103.145 66.9501 103.325 67.3851C103.505 67.8201 103.595 68.3101 103.595 68.8551C103.595 69.1901 103.545 69.5051 103.44 69.8101C103.335 70.1151 103.18 70.3951 102.975 70.6601C102.77 70.9251 102.505 71.1601 102.19 71.3701C101.875 71.5801 101.505 71.7501 101.075 71.8801C102.065 72.0701 102.805 72.4201 103.305 72.9351C103.805 73.4501 104.05 74.1301 104.05 74.9701C104.05 75.5401 103.945 76.0601 103.735 76.5301C103.525 77.0001 103.22 77.4051 102.815 77.7401C102.41 78.0801 101.915 78.3401 101.325 78.5251C100.735 78.7101 100.065 78.8001 99.3151 78.8001H94.5651V65.3451H98.8551L98.8651 65.3401ZM96.3851 66.7801V71.3701H98.7901C99.3051 71.3701 99.7501 71.3151 100.13 71.2001C100.51 71.0851 100.82 70.9301 101.07 70.7301C101.315 70.5301 101.5 70.2851 101.62 70.0001C101.74 69.7151 101.8 69.4051 101.8 69.0651C101.8 68.2701 101.56 67.6901 101.085 67.3251C100.61 66.9601 99.8701 66.7751 98.8701 66.7751H96.3901L96.3851 66.7801ZM99.2951 77.3501C99.8151 77.3501 100.26 77.2901 100.64 77.1701C101.015 77.0501 101.325 76.8851 101.565 76.6701C101.805 76.4551 101.985 76.1951 102.095 75.9001C102.21 75.6001 102.265 75.2751 102.265 74.9201C102.265 74.2251 102.02 73.6751 101.525 73.2701C101.03 72.8651 100.29 72.6651 99.3001 72.6651H96.3901V77.3501H99.3001H99.2951Z" fill="white"></path>
<path d="M132.02 76.0201C132.12 76.0201 132.21 76.0601 132.285 76.1401L133.01 76.9201C132.46 77.5601 131.79 78.0551 131.005 78.4151C130.22 78.7701 129.27 78.9501 128.155 78.9501C127.19 78.9501 126.315 78.7801 125.525 78.4501C124.735 78.1151 124.065 77.6451 123.505 77.0401C122.95 76.4351 122.515 75.7101 122.21 74.8651C121.905 74.0201 121.75 73.0901 121.75 72.0751C121.75 71.0601 121.91 70.1301 122.23 69.2851C122.55 68.4401 123 67.7151 123.58 67.1051C124.16 66.5001 124.85 66.0251 125.66 65.6901C126.465 65.3551 127.36 65.1851 128.335 65.1851C129.31 65.1851 130.14 65.3401 130.87 65.6451C131.6 65.9501 132.245 66.3701 132.805 66.8951L132.205 67.7301C132.165 67.7951 132.12 67.8451 132.06 67.8851C132 67.9251 131.92 67.9451 131.82 67.9451C131.705 67.9451 131.57 67.8851 131.405 67.7601C131.24 67.6401 131.03 67.5001 130.765 67.3501C130.5 67.2001 130.175 67.0651 129.78 66.9401C129.385 66.8201 128.9 66.7551 128.325 66.7551C127.63 66.7551 126.995 66.8751 126.42 67.1151C125.845 67.3551 125.35 67.7051 124.93 68.1601C124.515 68.6201 124.19 69.1751 123.96 69.8301C123.73 70.4901 123.615 71.2301 123.615 72.0551C123.615 72.8801 123.735 73.6401 123.975 74.3001C124.215 74.9601 124.545 75.5151 124.96 75.9651C125.375 76.4201 125.87 76.7651 126.435 77.0051C127 77.2451 127.615 77.3601 128.27 77.3601C128.67 77.3601 129.03 77.3351 129.355 77.2901C129.675 77.2401 129.975 77.1701 130.245 77.0701C130.515 76.9701 130.77 76.8451 131.005 76.6901C131.24 76.5351 131.475 76.3551 131.705 76.1401C131.81 76.0451 131.92 76.0001 132.025 76.0001L132.02 76.0201Z" fill="white"></path>
</g>
<path id="Vector_8" d="M56.765 31.5347H141.87C144.37 31.5347 146.4 33.5647 146.4 36.0647V42.8247H52.23V36.0647C52.23 33.5647 54.26 31.5347 56.76 31.5347H56.765Z" fill="#07064E"></path>
<path id="Vector_9" d="M128.945 39.9399C130.469 39.9399 131.705 38.7042 131.705 37.1799C131.705 35.6556 130.469 34.4199 128.945 34.4199C127.421 34.4199 126.185 35.6556 126.185 37.1799C126.185 38.7042 127.421 39.9399 128.945 39.9399Z" fill="white"></path>
<path id="Vector_10" d="M136.945 39.9399C138.469 39.9399 139.705 38.7042 139.705 37.1799C139.705 35.6556 138.469 34.4199 136.945 34.4199C135.421 34.4199 134.185 35.6556 134.185 37.1799C134.185 38.7042 135.421 39.9399 136.945 39.9399Z" fill="#2BF5BA"></path>
<path id="Vector_11" d="M124.21 96.1296C124.21 95.4646 123.555 94.9146 122.74 94.9046C121.94 94.8946 121.29 95.4096 121.27 96.0646C121.25 95.4146 120.605 94.8797 119.805 94.8697C119.005 94.8597 118.355 95.3746 118.335 96.0296C118.315 95.3796 117.67 94.8446 116.87 94.8346C116.08 94.8246 115.44 95.3246 115.4 95.9646L115.415 88.8896C115.415 88.0746 114.76 87.4046 113.945 87.3946C113.13 87.3846 112.47 88.0397 112.47 88.8547L112.44 101.92L109.985 99.4196C109.41 98.8346 108.48 98.8246 107.9 99.3946C107.325 99.9646 107.32 100.9 107.895 101.485L113.25 106.935C113.375 107.085 113.515 107.23 113.665 107.355L113.695 107.385C113.79 107.48 113.895 107.555 114.01 107.62C114.595 108.02 115.295 108.255 116.045 108.265L120.495 108.32C122.2 108.34 123.715 107.16 124.135 105.585C124.175 105.43 124.2 105.285 124.2 105.1L124.22 96.1296H124.21Z" fill="#EDEDED"></path>
<path id="Vector_12" d="M124.21 93.9998C124.21 93.3348 123.555 92.7848 122.74 92.7748C121.94 92.7648 121.29 93.2798 121.27 93.9348C121.25 93.2848 120.605 92.7498 119.805 92.7398C119.005 92.7298 118.355 93.2448 118.335 93.8998C118.315 93.2498 117.67 92.7148 116.87 92.7048C116.08 92.6948 115.44 93.1948 115.4 93.8348L115.415 86.7598C115.415 85.9448 114.76 85.2748 113.945 85.2648C113.13 85.2548 112.47 85.9098 112.47 86.7248L112.44 99.7898L109.985 97.2898C109.41 96.7048 108.48 96.6948 107.9 97.2648C107.325 97.8348 107.32 98.7698 107.895 99.3548L113.25 104.805C113.375 104.955 113.515 105.1 113.665 105.225L113.695 105.255C113.79 105.35 113.895 105.425 114.01 105.49C114.595 105.89 115.295 106.125 116.045 106.135L120.495 106.19C122.2 106.21 123.715 105.03 124.135 103.455C124.175 103.3 124.2 103.155 124.2 102.97L124.22 93.9998H124.21Z" fill="white"></path>
<path id="Vector_13" d="M113.69 105.615C113.62 105.565 113.555 105.51 113.495 105.45C113.32 105.3 113.17 105.15 113.035 104.99L107.65 99.5997C107.325 99.2747 107.145 98.8447 107.145 98.3847C107.145 97.9247 107.325 97.4947 107.65 97.1697C108.32 96.4997 109.41 96.4997 110.08 97.1697L112.155 99.2447V86.7097C112.155 86.2497 112.34 85.8197 112.665 85.4947C112.99 85.1697 113.42 84.9897 113.88 84.9947C114.34 84.9947 114.77 85.1747 115.095 85.4997C115.42 85.8247 115.6 86.2547 115.6 86.7147V92.8697C115.91 92.5947 116.35 92.4197 116.84 92.4247C117.475 92.4247 118.02 92.7047 118.32 93.1347C118.615 92.7097 119.165 92.4247 119.8 92.4247C120.435 92.4247 120.98 92.7097 121.28 93.1347C121.575 92.7097 122.125 92.4247 122.76 92.4247C123.21 92.4247 123.635 92.5697 123.955 92.8297C124.29 93.1047 124.475 93.4747 124.475 93.8647V102.865C124.475 103.06 124.455 103.23 124.405 103.41C123.955 105.125 122.325 106.37 120.525 106.37H116.05C115.27 106.37 114.515 106.14 113.87 105.705C113.815 105.675 113.76 105.64 113.71 105.605L113.69 105.615ZM109.59 97.3747C109.105 97.0297 108.42 97.0747 107.985 97.5097C107.75 97.7447 107.62 98.0597 107.62 98.3897C107.62 98.7247 107.75 99.0347 107.985 99.2697L113.385 104.67C113.52 104.825 113.65 104.955 113.79 105.075C113.795 105.075 113.83 105.11 113.835 105.115C113.905 105.185 113.99 105.245 114.1 105.31C114.685 105.7 115.35 105.9 116.035 105.9H120.51C122.1 105.9 123.54 104.805 123.94 103.29C123.98 103.145 123.995 103.015 123.995 102.865V93.8647C123.995 93.6147 123.87 93.3747 123.645 93.1897C123.405 92.9947 123.085 92.8897 122.745 92.8897C122.075 92.8897 121.515 93.3147 121.5 93.8397C121.5 93.9647 121.39 94.0697 121.265 94.0697C121.14 94.0697 121.035 93.9697 121.03 93.8397C121.015 93.3147 120.455 92.8847 119.785 92.8847C119.115 92.8847 118.555 93.3097 118.54 93.8347C118.54 93.9597 118.43 94.0647 118.305 94.0647C118.18 94.0647 118.075 93.9647 118.07 93.8347C118.055 93.3097 117.495 92.8797 116.825 92.8797C116.16 92.8797 115.615 93.2897 115.585 93.8097C115.575 93.9347 115.47 94.0347 115.345 94.0297C115.22 94.0297 115.115 93.9197 115.115 93.7947V86.6997C115.115 86.3647 114.99 86.0547 114.75 85.8197C114.515 85.5847 114.2 85.4547 113.87 85.4547C113.535 85.4547 113.225 85.5847 112.99 85.8197C112.755 86.0547 112.625 86.3697 112.625 86.6997V99.8047C112.625 99.8997 112.565 99.9847 112.475 100.02C112.385 100.055 112.285 100.04 112.22 99.9697L109.745 97.4897C109.695 97.4397 109.64 97.3947 109.585 97.3547L109.59 97.3747Z" fill="#07064E"></path>
</g>
</g>
</g>
</g>
<defs>
<clipPath id="clip0_77_325">
<rect width="200" height="140" fill="white"></rect>
</clipPath>
</defs>
</svg>