<svg width="200" height="140" viewBox="0 0 200 140" fill="none" xmlns="http://www.w3.org/2000/svg">
<g id="illu_spot_proxy-v2/Default" clip-path="url(#clip0_70_4942)">
<g id="illu_spot_proxy-v2">
<g id="background">
<path d="M16.48 131.415C20.0036 131.415 22.86 128.558 22.86 125.035C22.86 121.511 20.0036 118.655 16.48 118.655C12.9564 118.655 10.1 121.511 10.1 125.035C10.1 128.558 12.9564 131.415 16.48 131.415Z" fill="#2BF5BA"></path>
<path d="M187.48 23.5799C191.004 23.5799 193.86 20.7234 193.86 17.1999C193.86 13.6763 191.004 10.8199 187.48 10.8199C183.956 10.8199 181.1 13.6763 181.1 17.1999C181.1 20.7234 183.956 23.5799 187.48 23.5799Z" fill="#2BF5BA"></path>
<path d="M168.89 16.3099C170.964 16.3099 172.645 14.6287 172.645 12.5549C172.645 10.481 170.964 8.79986 168.89 8.79986C166.816 8.79986 165.135 10.481 165.135 12.5549C165.135 14.6287 166.816 16.3099 168.89 16.3099Z" fill="#2BF5BA"></path>
<path d="M190.76 117.445C192.022 117.445 193.045 116.422 193.045 115.16C193.045 113.898 192.022 112.875 190.76 112.875C189.498 112.875 188.475 113.898 188.475 115.16C188.475 116.422 189.498 117.445 190.76 117.445Z" fill="#2BF5BA"></path>
<path d="M36.96 124.77C4.28499 105.275 1.20999 72.5949 11.125 34.4299C21.69 -6.25014 66.895 5.03485 103.485 11.3149C128.825 15.6649 158.49 7.49486 177.97 29.5749C191.315 44.6999 193.36 65.9849 186.69 96.9049C182.7 115.4 166.76 120.93 148.29 127.82C119.905 138.405 57.965 137.305 36.96 124.77Z" fill="#2BF5BA"></path>
</g>
<g id="illu_spot_proxy-v2_2">
<g id="stroke">
<path id="Vector" d="M149.445 29.22H50.555C47.2413 29.22 44.555 31.9063 44.555 35.22V109.03C44.555 112.344 47.2413 115.03 50.555 115.03H149.445C152.759 115.03 155.445 112.344 155.445 109.03V35.22C155.445 31.9063 152.759 29.22 149.445 29.22Z" fill="#2AEDB4"></path>
<path id="Vector_2" d="M149.445 27.095H50.555C47.2413 27.095 44.555 29.7813 44.555 33.095V106.905C44.555 110.219 47.2413 112.905 50.555 112.905H149.445C152.759 112.905 155.445 110.219 155.445 106.905V33.095C155.445 29.7813 152.759 27.095 149.445 27.095Z" fill="white"></path>
<path id="Vector_3" d="M96.1949 50.855C95.6399 50.3 94.9099 49.995 94.1299 49.99L56.8399 49.915H56.8349C56.0599 49.915 55.3249 50.22 54.7699 50.77C54.2149 51.325 53.9099 52.055 53.9049 52.835L53.8699 69.83C53.8699 70.61 54.1699 71.345 54.7249 71.9C55.2799 72.455 56.0099 72.76 56.7899 72.765L94.0799 72.84H94.0849C94.8599 72.84 95.5949 72.535 96.1449 71.985C96.6999 71.43 97.0049 70.7 97.0099 69.92L97.0449 52.925C97.0449 52.145 96.7449 51.41 96.1899 50.855H96.1949Z" fill="#EDEDED"></path>
<g id="Vector_4">
<path d="M54.0958 50.7094L54.0602 67.7043C54.057 69.2176 55.2812 70.4469 56.7944 70.4501L94.0843 70.5282C95.5976 70.5313 96.8269 69.3072 96.8301 67.7939L96.8657 50.7989C96.8688 49.2857 95.6447 48.0564 94.1314 48.0532L56.8415 47.9751C55.3282 47.9719 54.0989 49.1961 54.0958 50.7094Z" fill="#EDEDED"></path>
<path d="M96.2401 84.0699C95.6751 83.5049 94.9251 83.1899 94.1301 83.1899L56.8401 83.1149H56.8351C56.0401 83.1149 55.2951 83.4249 54.7301 83.9899C54.1651 84.5549 53.8501 85.3049 53.8501 86.0999L53.8151 103.095C53.8151 103.89 54.1251 104.64 54.6901 105.21C55.2551 105.775 56.0051 106.09 56.8001 106.09L94.0901 106.165H94.0951C94.8901 106.165 95.6351 105.855 96.2001 105.29C96.7651 104.725 97.0801 103.975 97.0801 103.18L97.1151 86.1849C97.1151 85.3899 96.8051 84.6399 96.2401 84.0699Z" fill="#EDEDED"></path>
<path d="M54.0958 83.969L54.0602 100.964C54.057 102.477 55.2812 103.707 56.7945 103.71L94.0844 103.788C95.5976 103.791 96.8269 102.567 96.8301 101.054L96.8657 84.0586C96.8689 82.5453 95.6447 81.316 94.1315 81.3129L56.8415 81.2348C55.3283 81.2316 54.099 82.4558 54.0958 83.969Z" fill="#EDEDED"></path>
</g>
<g id="Vector_5">
<path d="M94.085 70.715L56.795 70.64C56.015 70.64 55.285 70.33 54.73 69.775C54.175 69.22 53.875 68.485 53.875 67.705L53.91 50.71C53.91 49.93 54.22 49.2 54.775 48.645C55.33 48.095 56.06 47.79 56.84 47.79H56.845L94.135 47.865C94.915 47.865 95.645 48.175 96.2 48.73C96.755 49.285 97.055 50.02 97.055 50.8L97.02 67.795C97.02 68.575 96.71 69.305 96.155 69.86C95.6 70.41 94.87 70.715 94.095 70.715H94.085ZM56.835 48.165C56.16 48.165 55.52 48.43 55.035 48.91C54.55 49.39 54.285 50.03 54.28 50.71L54.245 67.705C54.245 68.385 54.51 69.025 54.99 69.51C55.47 69.995 56.11 70.26 56.79 70.265L94.08 70.34H94.085C94.76 70.34 95.4 70.075 95.885 69.595C96.37 69.115 96.635 68.475 96.64 67.795L96.675 50.8C96.675 50.12 96.41 49.48 95.93 48.995C95.45 48.51 94.81 48.245 94.13 48.24L56.84 48.165H56.835Z" fill="#07064E"></path>
<path d="M94.0901 104.035H94.0851L56.7951 103.96C56.0001 103.96 55.2501 103.645 54.6851 103.08C54.1201 102.515 53.8101 101.76 53.8101 100.965L53.8451 83.9701C53.8451 83.1751 54.1601 82.4251 54.7251 81.8601C55.2901 81.2951 56.0401 80.9851 56.8301 80.9851H56.8351L94.1251 81.0601C94.9201 81.0601 95.6701 81.3751 96.2351 81.9401C96.8001 82.5051 97.1101 83.2601 97.1101 84.0551L97.0751 101.05C97.0751 101.845 96.7601 102.595 96.1951 103.16C95.6301 103.725 94.8801 104.035 94.0901 104.035ZM56.8351 81.4851C56.1751 81.4851 55.5501 81.7451 55.0801 82.2151C54.6051 82.6851 54.3451 83.3101 54.3451 83.9701L54.3101 100.965C54.3101 101.625 54.5651 102.25 55.0401 102.725C55.5101 103.2 56.1351 103.46 56.7951 103.46L94.0851 103.535H94.0901C94.7501 103.535 95.3701 103.275 95.8451 102.805C96.3201 102.335 96.5801 101.71 96.5801 101.05L96.6151 84.0551C96.6151 83.3951 96.3601 82.7701 95.8851 82.2951C95.4151 81.8201 94.7901 81.5601 94.1301 81.5601L56.8401 81.4851H56.8351Z" fill="#07064E"></path>
</g>
<path id="Vector_6" d="M49.085 27.095H150.91C153.41 27.095 155.44 29.125 155.44 31.625V39.835H44.555V31.625C44.555 29.125 46.585 27.095 49.085 27.095Z" fill="#07064E"></path>
<path id="Vector_7" d="M133.43 36.5799C135.15 36.5799 136.545 35.1852 136.545 33.4649C136.545 31.7445 135.15 30.3499 133.43 30.3499C131.71 30.3499 130.315 31.7445 130.315 33.4649C130.315 35.1852 131.71 36.5799 133.43 36.5799Z" fill="white"></path>
<path id="Vector_8" d="M142.46 36.5799C144.18 36.5799 145.575 35.1852 145.575 33.4649C145.575 31.7445 144.18 30.3499 142.46 30.3499C140.74 30.3499 139.345 31.7445 139.345 33.4649C139.345 35.1852 140.74 36.5799 142.46 36.5799Z" fill="#2BF5BA"></path>
<g id="Vector_9">
<path d="M63.805 57.8351C65.0725 57.8351 66.1 56.8076 66.1 55.5401C66.1 54.2726 65.0725 53.2451 63.805 53.2451C62.5375 53.2451 61.51 54.2726 61.51 55.5401C61.51 56.8076 62.5375 57.8351 63.805 57.8351Z" fill="#2BF5BA"></path>
<path d="M63.8068 58.8471C66.3768 58.844 68.4644 60.9264 68.4675 63.4964L68.4697 65.2464L59.1547 65.2578L59.1525 63.5078C59.1494 60.9378 61.2318 58.8503 63.8018 58.8471L63.8068 58.8471Z" fill="#2BF5BA"></path>
</g>
<g id="Vector_10">
<path d="M63.8051 91.09C65.0781 91.09 66.1101 90.058 66.1101 88.785C66.1101 87.512 65.0781 86.48 63.8051 86.48C62.5321 86.48 61.5001 87.512 61.5001 88.785C61.5001 90.058 62.5321 91.09 63.8051 91.09Z" fill="#07064E"></path>
<path d="M63.8126 92.102C66.3926 92.0988 68.4901 94.1912 68.4933 96.7712L68.4954 98.5262L59.1405 98.5377L59.1383 96.7827C59.1352 94.2027 61.2276 92.1051 63.8076 92.102L63.8126 92.102Z" fill="#07064E"></path>
</g>
<path id="Vector_11" d="M139.775 86.7451H117.725C113.387 86.7451 109.87 90.2619 109.87 94.6001C109.87 98.9383 113.387 102.455 117.725 102.455H139.775C144.113 102.455 147.63 98.9383 147.63 94.6001C147.63 90.2619 144.113 86.7451 139.775 86.7451Z" fill="#EDEDED"></path>
<path id="Vector_12" d="M139.775 84.6147H117.725C113.387 84.6147 109.87 88.1316 109.87 92.4697C109.87 96.8079 113.387 100.325 117.725 100.325H139.775C144.113 100.325 147.63 96.8079 147.63 92.4697C147.63 88.1316 144.113 84.6147 139.775 84.6147Z" fill="#07064E"></path>
<path id="Vector_13" d="M117.84 99.4797C121.72 99.4797 124.865 96.3345 124.865 92.4547C124.865 88.5749 121.72 85.4297 117.84 85.4297C113.96 85.4297 110.815 88.5749 110.815 92.4547C110.815 96.3345 113.96 99.4797 117.84 99.4797Z" fill="white"></path>
<path id="Vector_14" d="M139.775 54.6401H117.725C113.387 54.6401 109.87 58.1569 109.87 62.4951C109.87 66.8333 113.387 70.3501 117.725 70.3501H139.775C144.113 70.3501 147.63 66.8333 147.63 62.4951C147.63 58.1569 144.113 54.6401 139.775 54.6401Z" fill="#EDEDED"></path>
<path id="Vector_15" d="M139.775 52.5151H117.725C113.387 52.5151 109.87 56.0319 109.87 60.3701C109.87 64.7083 113.387 68.2251 117.725 68.2251H139.775C144.113 68.2251 147.63 64.7083 147.63 60.3701C147.63 56.0319 144.113 52.5151 139.775 52.5151Z" fill="#2BF5BA"></path>
<path id="Vector_16" d="M139.495 67.3747C143.375 67.3747 146.52 64.2295 146.52 60.3497C146.52 56.4699 143.375 53.3247 139.495 53.3247C135.615 53.3247 132.47 56.4699 132.47 60.3497C132.47 64.2295 135.615 67.3747 139.495 67.3747Z" fill="white"></path>
<g id="Vector_17">
<path d="M91.81 89.165H73.64C73.5 89.165 73.39 89.055 73.39 88.915C73.39 88.775 73.5 88.665 73.64 88.665H91.81C91.95 88.665 92.06 88.775 92.06 88.915C92.06 89.055 91.95 89.165 91.81 89.165Z" fill="#07064E"></path>
<path d="M82.17 96.285H73.64C73.5 96.285 73.39 96.175 73.39 96.035C73.39 95.895 73.5 95.785 73.64 95.785H82.17C82.31 95.785 82.42 95.895 82.42 96.035C82.42 96.175 82.31 96.285 82.17 96.285Z" fill="#07064E"></path>
</g>
<path id="Vector_18" d="M91.515 96.3601L86.64 96.3501C86.5 96.3501 86.39 96.2351 86.39 96.1001C86.39 95.9651 86.5 95.8501 86.64 95.8501L91.515 95.8601C91.655 95.8601 91.765 95.9751 91.765 96.1101C91.765 96.2451 91.655 96.3601 91.515 96.3601Z" fill="#2BF5BA"></path>
<g id="Vector_19">
<path d="M82.17 63.0253H73.64C73.5 63.0253 73.39 62.9153 73.39 62.7753C73.39 62.6353 73.5 62.5253 73.64 62.5253H82.17C82.31 62.5253 82.42 62.6353 82.42 62.7753C82.42 62.9153 82.31 63.0253 82.17 63.0253Z" fill="#07064E"></path>
<path d="M91.81 55.9053H73.64C73.5 55.9053 73.39 55.7953 73.39 55.6553C73.39 55.5153 73.5 55.4053 73.64 55.4053H91.81C91.95 55.4053 92.06 55.5153 92.06 55.6553C92.06 55.7953 91.95 55.9053 91.81 55.9053Z" fill="#07064E"></path>
</g>
<path id="Vector_20" d="M91.515 63.0999L86.64 63.0899C86.5 63.0899 86.39 62.9749 86.39 62.8399C86.39 62.6999 86.48 62.5799 86.64 62.5899L91.515 62.5999C91.655 62.5999 91.765 62.7149 91.765 62.8499C91.765 62.9849 91.655 63.0999 91.515 63.0999Z" fill="#2BF5BA"></path>
</g>
</g>
</g>
</g>
<defs>
<clipPath id="clip0_70_4942">
<rect width="200" height="140" fill="white"></rect>
</clipPath>
</defs>
</svg>