<svg width="200" height="140" viewBox="0 0 200 140" fill="none" xmlns="http://www.w3.org/2000/svg">
<g id="illu_spot_answer-method-open-ended-questions/Default" clip-path="url(#clip0_70_4911)">
<g id="illu_spot_answer-method-open-ended-questions">
<g id="background">
<path d="M15.8889 90.9288C19.9932 88.3362 21.948 84.0617 20.2549 81.3816C18.5619 78.7014 13.8623 78.6304 9.75796 81.223C5.65366 83.8157 3.69894 88.0901 5.39196 90.7703C7.08498 93.4505 11.7846 93.5214 15.8889 90.9288Z" fill="#2BF5BA"></path>
<path d="M6.55004 17.0601C-4.20996 28.8001 32.655 60.0901 22.79 89.5401C-2.25496 164.28 66.03 113.135 131.965 129.115C193.1 143.93 177.115 115.2 169.4 88.6651C161.66 62.0551 197.41 69.7451 195.355 39.9501C193.79 17.2551 154.01 -2.73986 104.965 10.2101C24.94 31.3401 18.21 4.33514 6.55004 17.0601Z" fill="#2BF5BA"></path>
<path d="M183.594 81.9525C184.989 79.2508 184.224 76.0822 181.885 74.8752C179.547 73.6682 176.52 74.8799 175.126 77.5816C173.731 80.2833 174.497 83.4519 176.835 84.6589C179.174 85.8659 182.2 84.6542 183.594 81.9525Z" fill="#2BF5BA"></path>
<path d="M188.024 93.9236C188.188 92.3775 187.285 91.0146 186.008 90.8795C184.731 90.7444 183.563 91.8882 183.4 93.4343C183.236 94.9803 184.139 96.3432 185.416 96.4783C186.693 96.6134 187.86 95.4696 188.024 93.9236Z" fill="#2BF5BA"></path>
</g>
<g id="illu_spot_answer-method-open-ended-questions_2">
<g id="stroke">
<path id="Vector" d="M141.085 29.5249H58.915C55.6013 29.5249 52.915 32.2112 52.915 35.5249V101.66C52.915 104.974 55.6013 107.66 58.915 107.66H141.085C144.399 107.66 147.085 104.974 147.085 101.66V35.5249C147.085 32.2112 144.399 29.5249 141.085 29.5249Z" fill="#2AEDB4"></path>
<path id="Vector_2" d="M141.085 27.3999H58.915C55.6013 27.3999 52.915 30.0862 52.915 33.3999V99.5349C52.915 102.849 55.6013 105.535 58.915 105.535H141.085C144.399 105.535 147.085 102.849 147.085 99.5349V33.3999C147.085 30.0862 144.399 27.3999 141.085 27.3999Z" fill="white"></path>
<path id="Vector_3" d="M57.445 27.3999H142.55C145.05 27.3999 147.08 29.4299 147.08 31.9299V38.6899H52.915V31.9299C52.915 29.4299 54.945 27.3999 57.445 27.3999Z" fill="#07064E"></path>
<path id="Vector_4" d="M129.63 35.8049C131.154 35.8049 132.39 34.5692 132.39 33.0449C132.39 31.5206 131.154 30.2849 129.63 30.2849C128.106 30.2849 126.87 31.5206 126.87 33.0449C126.87 34.5692 128.106 35.8049 129.63 35.8049Z" fill="white"></path>
<path id="Vector_5" d="M137.63 35.8049C139.154 35.8049 140.39 34.5692 140.39 33.0449C140.39 31.5206 139.154 30.2849 137.63 30.2849C136.106 30.2849 134.87 31.5206 134.87 33.0449C134.87 34.5692 136.106 35.8049 137.63 35.8049Z" fill="#2BF5BA"></path>
<path id="Vector_6" d="M133.395 47.4299H79.21C76.4072 47.4299 74.135 49.7021 74.135 52.5049V94.6799C74.135 97.4828 76.4072 99.7549 79.21 99.7549H133.395C136.198 99.7549 138.47 97.4828 138.47 94.6799V52.5049C138.47 49.7021 136.198 47.4299 133.395 47.4299Z" fill="#EDEDED"></path>
<g id="Vector_7">
<path d="M115.555 80.3498H80.48C80.34 80.3498 80.23 80.2398 80.23 80.0998C80.23 79.9598 80.34 79.8498 80.48 79.8498H115.555C115.695 79.8498 115.805 79.9598 115.805 80.0998C115.805 80.2398 115.695 80.3498 115.555 80.3498Z" fill="#07064E"></path>
<path d="M132.26 57.3848H97.185C97.045 57.3848 96.935 57.2748 96.935 57.1348C96.935 56.9948 97.045 56.8848 97.185 56.8848H132.26C132.4 56.8848 132.51 56.9948 132.51 57.1348C132.51 57.2748 132.4 57.3848 132.26 57.3848Z" fill="#07064E"></path>
<path d="M92.395 57.3848H80.525C80.385 57.3848 80.275 57.2748 80.275 57.1348C80.275 56.9948 80.385 56.8848 80.525 56.8848H92.395C92.535 56.8848 92.645 56.9948 92.645 57.1348C92.645 57.2748 92.535 57.3848 92.395 57.3848Z" fill="#07064E"></path>
<path d="M132.575 65.0648H80.525C80.385 65.0648 80.275 64.9548 80.275 64.8148C80.275 64.6748 80.385 64.5648 80.525 64.5648H132.575C132.715 64.5648 132.825 64.6748 132.825 64.8148C132.825 64.9548 132.715 65.0648 132.575 65.0648Z" fill="#07064E"></path>
<path d="M132.53 72.7248H80.48C80.34 72.7248 80.23 72.6148 80.23 72.4748C80.23 72.3348 80.34 72.2248 80.48 72.2248H132.53C132.67 72.2248 132.78 72.3348 132.78 72.4748C132.78 72.6148 132.67 72.7248 132.53 72.7248Z" fill="#07064E"></path>
</g>
<path id="Vector_8" d="M132.53 80.3499H120.66C120.52 80.3499 120.41 80.2399 120.41 80.0999C120.41 79.9599 120.52 79.8499 120.66 79.8499H132.53C132.67 79.8499 132.78 79.9599 132.78 80.0999C132.78 80.2399 132.67 80.3499 132.53 80.3499Z" fill="#2BF5BA"></path>
<path id="Vector_9" d="M86.465 80.3698L84.76 88.2898L91.975 84.5498C92.105 84.4798 92.22 84.3848 92.31 84.2698L115.565 53.5748C115.895 53.1398 115.81 52.5198 115.375 52.1898L111.285 49.0898C110.85 48.7598 110.23 48.8448 109.9 49.2798L86.64 79.9798C86.555 80.0948 86.49 80.2298 86.46 80.3698H86.465Z" fill="#DDDDDD"></path>
<path id="Vector_10" d="M86.465 78.9498L84.76 86.8699L91.975 83.1298C92.105 83.0598 92.22 82.9648 92.31 82.8498L115.565 52.1548C115.895 51.7198 115.81 51.0998 115.375 50.7698L111.285 47.6698C110.85 47.3398 110.23 47.4248 109.9 47.8598L86.64 78.5598C86.555 78.6748 86.49 78.8098 86.46 78.9498H86.465Z" fill="white"></path>
<path id="Vector_11" d="M91.95 83.2499L114.33 53.6399C111 51.5149 97.865 73.8999 89.265 81.2999L91.95 83.2499Z" fill="#EDEDED"></path>
<path id="Vector_12" d="M84.87 87.0949L92.01 83.6149C92.045 83.5999 92.075 83.5699 92.1 83.5399L113.025 55.9149L114.645 53.7799L115.715 52.3699C115.945 52.0699 116.03 51.6999 115.98 51.3549C115.93 51.0049 115.75 50.6749 115.45 50.4449L111.575 47.5099C110.97 47.0549 110.11 47.1699 109.65 47.7749L108.58 49.1849L106.96 51.3199L86.035 78.9449C86.01 78.9749 85.995 79.0099 85.99 79.0499L84.515 86.8249C84.495 86.9199 84.535 87.0099 84.61 87.0699C84.685 87.1249 84.785 87.1349 84.87 87.0949ZM112.78 55.4199L107.51 51.4299L108.01 50.7699L109.905 52.2049C110.015 52.2899 110.17 52.2649 110.255 52.1549C110.295 52.0999 110.31 52.0349 110.305 51.9699C110.3 51.9049 110.265 51.8449 110.21 51.8049L108.315 50.3699L108.83 49.6899L114.1 53.6799L113.58 54.3649L111.08 52.4699C110.97 52.3849 110.815 52.4099 110.73 52.5199C110.645 52.6299 110.67 52.7849 110.78 52.8699L113.28 54.7649L112.785 55.4199H112.78ZM114.4 53.2849L109.13 49.2949L110.05 48.0799C110.34 47.6949 110.89 47.6199 111.275 47.9099L115.15 50.8449C115.535 51.1349 115.61 51.6849 115.32 52.0699L114.4 53.2849ZM87.245 85.3849L85.545 84.0949L86.425 79.4699L87.215 80.0699C87.325 80.1549 87.48 80.1299 87.565 80.0199C87.605 79.9649 87.62 79.8999 87.615 79.8349C87.61 79.7699 87.575 79.7099 87.52 79.6699L86.63 78.9949L107.215 51.8199L112.485 55.8099L91.9 82.9799L88.65 80.5199C88.54 80.4349 88.385 80.4599 88.3 80.5699C88.215 80.6799 88.24 80.8349 88.35 80.9199L91.5 83.3049L87.25 85.3749L87.245 85.3849Z" fill="#07064E"></path>
<path id="Vector_13" d="M68.59 47.5698H62.365C60.7993 47.5698 59.53 48.8391 59.53 50.4048V56.6298C59.53 58.1956 60.7993 59.4648 62.365 59.4648H68.59C70.1558 59.4648 71.425 58.1956 71.425 56.6298V50.4048C71.425 48.8391 70.1558 47.5698 68.59 47.5698Z" fill="#07064E"></path>
<path id="Vector_14" d="M63.765 50.8648C63.86 50.7748 63.97 50.6898 64.09 50.6048C64.21 50.5248 64.335 50.4498 64.475 50.3898C64.615 50.3248 64.765 50.2798 64.925 50.2398C65.085 50.2048 65.26 50.1848 65.45 50.1848C65.7 50.1848 65.93 50.2198 66.14 50.2948C66.35 50.3648 66.535 50.4698 66.69 50.5998C66.845 50.7298 66.965 50.8898 67.055 51.0798C67.145 51.2698 67.185 51.4798 67.185 51.7148C67.185 51.9498 67.15 52.1598 67.08 52.3298C67.01 52.5048 66.92 52.6548 66.81 52.7848C66.7 52.9148 66.585 53.0298 66.455 53.1248C66.33 53.2198 66.21 53.3098 66.095 53.3948C65.98 53.4798 65.885 53.5648 65.805 53.6498C65.725 53.7348 65.68 53.8298 65.665 53.9348L65.58 54.6548H65.005L64.95 53.8748C64.935 53.7348 64.965 53.6098 65.03 53.5048C65.095 53.3998 65.18 53.2998 65.29 53.2098C65.395 53.1148 65.515 53.0248 65.645 52.9348C65.775 52.8448 65.895 52.7448 66.005 52.6348C66.115 52.5248 66.21 52.3998 66.285 52.2598C66.36 52.1198 66.4 51.9548 66.4 51.7598C66.4 51.6248 66.375 51.5048 66.32 51.3948C66.265 51.2848 66.195 51.1898 66.105 51.1148C66.015 51.0398 65.905 50.9798 65.78 50.9398C65.655 50.8998 65.525 50.8798 65.38 50.8798C65.19 50.8798 65.025 50.9048 64.89 50.9498C64.755 50.9948 64.64 51.0498 64.545 51.1048C64.45 51.1598 64.375 51.2148 64.315 51.2598C64.255 51.3048 64.21 51.3298 64.17 51.3298C64.09 51.3298 64.03 51.2948 63.985 51.2198L63.765 50.8648ZM64.685 56.4948C64.685 56.4148 64.7 56.3348 64.73 56.2648C64.76 56.1948 64.8 56.1298 64.85 56.0748C64.9 56.0198 64.965 55.9798 65.035 55.9498C65.105 55.9198 65.185 55.9048 65.265 55.9048C65.345 55.9048 65.425 55.9198 65.495 55.9498C65.565 55.9798 65.63 56.0248 65.685 56.0748C65.74 56.1298 65.78 56.1898 65.81 56.2648C65.84 56.3348 65.855 56.4148 65.855 56.4948C65.855 56.5748 65.84 56.6548 65.81 56.7298C65.78 56.7998 65.735 56.8648 65.685 56.9148C65.635 56.9648 65.57 57.0098 65.495 57.0398C65.425 57.0698 65.345 57.0848 65.265 57.0848C65.185 57.0848 65.105 57.0698 65.035 57.0398C64.965 57.0098 64.9 56.9698 64.85 56.9148C64.8 56.8598 64.755 56.7998 64.73 56.7298C64.7 56.6598 64.685 56.5798 64.685 56.4948Z" fill="white"></path>
</g>
</g>
</g>
</g>
<defs>
<clipPath id="clip0_70_4911">
<rect width="200" height="140" fill="white"></rect>
</clipPath>
</defs>
</svg>