<svg width="200" height="140" viewBox="0 0 200 140" fill="none" xmlns="http://www.w3.org/2000/svg">
<g id="illu_spot_voting-yes-no-v2/Default">
<g id="illu_spot_voting-yes-no-v2">
<g id="background">
<g id="Vector">
<path d="M175.509 11.2746C210.529 29.8696 193.674 102.6 163.769 111.495C132.204 120.885 144.464 107.255 45.5939 133.605C12.6689 142.38 13.5539 129.52 25.6389 103.475C38.4439 75.8746 5.26893 68.5146 4.50893 37.1046C4.03393 17.5746 22.8089 -2.80543 52.2489 6.18957C109.964 23.8246 142.539 -6.23043 175.509 11.2746Z" fill="#2BF5BA"></path>
<path d="M166.727 131.767C168.036 130.788 168.474 129.161 167.704 128.132C166.935 127.104 165.25 127.065 163.941 128.044C162.632 129.023 162.195 130.65 162.964 131.679C163.733 132.707 165.418 132.746 166.727 131.767Z" fill="#2BF5BA"></path>
</g>
<g id="Vector_2">
<path d="M191.522 119.634C192.583 117.072 190.348 113.714 186.531 112.134C182.715 110.554 178.761 111.349 177.7 113.911C176.64 116.473 178.874 119.83 182.691 121.411C186.508 122.991 190.462 122.195 191.522 119.634Z" fill="#FFC391"></path>
<path d="M5.24379 84.2746C4.64379 81.6796 6.62879 78.8946 9.68379 78.0546C12.7338 77.2096 15.6988 78.6296 16.2988 81.2246C16.8988 83.8196 14.9138 86.6046 11.8588 87.4446C8.80879 88.2896 5.84379 86.8696 5.24379 84.2746Z" fill="#FFC391"></path>
</g>
</g>
<g id="illu_spot_voting-yes-no-v2_2">
<g id="stroke">
<path id="Vector_3" d="M117.935 113.93H57.765C55.54 113.93 53.735 112.125 53.735 109.9V113.25C53.735 115.475 55.54 117.28 57.765 117.28H117.935C120.16 117.28 121.965 115.475 121.965 113.25V109.905C121.965 112.13 120.16 113.93 117.935 113.93Z" fill="#2AEDB4"></path>
<path id="Vector_4" d="M156.485 91.0098C156.37 91.0098 156.26 91.0098 156.145 91.0098C156.005 91.0098 155.895 90.8948 155.9 90.7548C155.9 90.6148 156 90.4898 156.155 90.5098C157.885 90.5398 159.525 90.3348 161.02 89.8998C161.15 89.8598 161.29 89.9398 161.33 90.0698C161.37 90.1998 161.29 90.3398 161.16 90.3798C159.715 90.7998 158.14 91.0098 156.485 91.0098ZM151.2 90.3848C151.2 90.3848 151.165 90.3848 151.145 90.3798C149.625 90.0398 148 89.5548 146.325 88.9398C146.195 88.8898 146.13 88.7498 146.175 88.6198C146.225 88.4898 146.365 88.4248 146.495 88.4698C148.15 89.0798 149.75 89.5548 151.25 89.8948C151.385 89.9248 151.47 90.0598 151.44 90.1948C151.415 90.3098 151.31 90.3898 151.195 90.3898L151.2 90.3848ZM165.545 88.1848C165.47 88.1848 165.395 88.1498 165.345 88.0848C165.265 87.9748 165.285 87.8148 165.4 87.7348C166.65 86.8098 167.81 85.6348 168.84 84.2398C168.92 84.1298 169.08 84.1048 169.19 84.1898C169.3 84.2748 169.325 84.4298 169.24 84.5398C168.18 85.9748 166.985 87.1848 165.695 88.1398C165.65 88.1748 165.6 88.1898 165.545 88.1898V88.1848ZM38.64 83.8398C38.575 83.8398 38.505 83.8148 38.46 83.7598C37.295 82.5198 36.17 81.2648 35.115 80.0298C35.025 79.9248 35.04 79.7648 35.145 79.6748C35.25 79.5848 35.41 79.5998 35.5 79.6998C36.55 80.9298 37.67 82.1798 38.83 83.4148C38.925 83.5148 38.92 83.6748 38.82 83.7698C38.77 83.8148 38.71 83.8398 38.65 83.8398H38.64ZM133.02 82.2148C132.975 82.2148 132.93 82.2048 132.89 82.1798C131.55 81.3648 130.12 80.4648 128.65 79.5048C128.535 79.4298 128.5 79.2748 128.575 79.1598C128.65 79.0448 128.805 79.0148 128.92 79.0848C130.385 80.0398 131.81 80.9398 133.145 81.7548C133.265 81.8248 133.3 81.9798 133.23 82.0998C133.185 82.1798 133.1 82.2198 133.015 82.2198L133.02 82.2148ZM171.56 80.3348C171.525 80.3348 171.485 80.3248 171.45 80.3098C171.325 80.2498 171.275 80.0998 171.335 79.9748C172.1 78.3898 172.755 76.8498 173.285 75.3998C173.33 75.2698 173.475 75.2048 173.605 75.2498C173.735 75.2948 173.8 75.4398 173.755 75.5698C173.22 77.0348 172.555 78.5898 171.785 80.1898C171.74 80.2798 171.655 80.3298 171.56 80.3298V80.3348ZM124.63 76.7598C124.58 76.7598 124.53 76.7448 124.49 76.7148C123.225 75.8498 121.88 74.9148 120.375 73.8598C120.26 73.7798 120.235 73.6248 120.315 73.5098C120.395 73.3998 120.55 73.3698 120.665 73.4498C122.17 74.5098 123.51 75.4398 124.775 76.3048C124.89 76.3848 124.92 76.5398 124.84 76.6548C124.79 76.7248 124.715 76.7648 124.635 76.7648L124.63 76.7598ZM32.16 76.2348C32.085 76.2348 32.01 76.1998 31.96 76.1348C30.92 74.7748 29.935 73.4048 29.04 72.0598C28.965 71.9448 28.995 71.7898 29.11 71.7148C29.225 71.6398 29.38 71.6698 29.455 71.7848C30.345 73.1198 31.325 74.4798 32.36 75.8348C32.445 75.9448 32.425 76.0998 32.315 76.1848C32.27 76.2198 32.215 76.2348 32.165 76.2348H32.16ZM26.625 67.9148C26.54 67.9148 26.455 67.8698 26.405 67.7898C25.56 66.2848 24.8 64.7748 24.145 63.3048C24.09 63.1798 24.145 63.0298 24.27 62.9748C24.395 62.9198 24.545 62.9748 24.6 63.0998C25.245 64.5548 26 66.0498 26.84 67.5398C26.91 67.6598 26.865 67.8148 26.745 67.8798C26.705 67.8998 26.665 67.9098 26.625 67.9098V67.9148ZM174.345 61.1248C174.245 61.1248 174.15 61.0648 174.11 60.9648C173.52 59.4748 172.69 58.1148 171.56 56.8148C171.47 56.7098 171.48 56.5548 171.585 56.4598C171.69 56.3698 171.845 56.3798 171.94 56.4848C173.09 57.8098 173.975 59.2548 174.58 60.7748C174.63 60.9048 174.57 61.0498 174.44 61.0998C174.41 61.1098 174.38 61.1198 174.35 61.1198L174.345 61.1248ZM22.605 58.7798C22.5 58.7798 22.4 58.7098 22.365 58.6048C21.85 56.9398 21.465 55.2948 21.225 53.7048C21.205 53.5698 21.3 53.4398 21.435 53.4198C21.57 53.3998 21.7 53.4948 21.72 53.6298C21.955 55.1948 22.335 56.8198 22.84 58.4598C22.88 58.5898 22.805 58.7298 22.675 58.7698C22.65 58.7798 22.625 58.7798 22.6 58.7798H22.605ZM168.04 53.5798C167.99 53.5798 167.94 53.5648 167.895 53.5348C166.69 52.6648 165.305 51.8148 163.665 50.9248C163.545 50.8598 163.5 50.7098 163.565 50.5848C163.63 50.4648 163.785 50.4198 163.905 50.4848C165.565 51.3798 166.965 52.2448 168.185 53.1248C168.295 53.2048 168.325 53.3598 168.24 53.4748C168.19 53.5448 168.115 53.5798 168.035 53.5798H168.04ZM21.18 48.9348H21.17C21.03 48.9298 20.925 48.8148 20.93 48.6748C21 46.9448 21.255 45.2648 21.695 43.6898C21.73 43.5548 21.87 43.4798 22.005 43.5148C22.14 43.5498 22.215 43.6898 22.18 43.8248C21.75 45.3648 21.5 46.9998 21.43 48.6948C21.425 48.8298 21.315 48.9348 21.18 48.9348ZM150.26 44.4298C150.22 44.4298 150.18 44.4198 150.145 44.3998C148.475 43.5248 147.055 42.6948 145.805 41.8598C145.69 41.7848 145.66 41.6298 145.735 41.5148C145.81 41.3998 145.97 41.3698 146.08 41.4448C147.31 42.2748 148.715 43.0948 150.37 43.9598C150.49 44.0248 150.54 44.1748 150.475 44.2948C150.43 44.3798 150.345 44.4298 150.255 44.4298H150.26ZM142.08 38.7548C142.015 38.7548 141.95 38.7298 141.9 38.6798C140.64 37.3998 139.67 36.0698 138.93 34.6098C138.87 34.4848 138.915 34.3348 139.04 34.2748C139.165 34.2098 139.315 34.2598 139.375 34.3848C140.09 35.7948 141.035 37.0848 142.26 38.3298C142.355 38.4298 142.355 38.5848 142.26 38.6848C142.21 38.7348 142.15 38.7548 142.085 38.7548H142.08ZM30.955 32.4998C30.87 32.4998 30.785 32.4548 30.74 32.3748C30.67 32.2548 30.71 32.1048 30.83 32.0348C32.235 31.2048 33.775 30.4998 35.41 29.9298C35.54 29.8848 35.685 29.9548 35.73 30.0848C35.775 30.2148 35.705 30.3548 35.575 30.4048C33.97 30.9598 32.46 31.6548 31.085 32.4648C31.045 32.4898 31 32.4998 30.96 32.4998H30.955ZM137.695 30.0148C137.57 30.0148 137.465 29.9248 137.45 29.7998C137.345 29.0298 137.295 28.2298 137.295 27.4098C137.295 26.5898 137.35 25.6648 137.465 24.7548C137.48 24.6198 137.61 24.5148 137.745 24.5398C137.88 24.5548 137.98 24.6798 137.96 24.8198C137.85 25.7098 137.795 26.5798 137.795 27.4148C137.795 28.2498 137.845 28.9948 137.945 29.7398C137.965 29.8748 137.87 30.0048 137.73 30.0198C137.72 30.0198 137.705 30.0198 137.695 30.0198V30.0148ZM55.24 29.6898C55.24 29.6898 55.205 29.6898 55.19 29.6848C53.54 29.3398 51.89 29.0848 50.28 28.9248C50.145 28.9098 50.04 28.7898 50.055 28.6498C50.07 28.5098 50.19 28.4198 50.33 28.4248C51.96 28.5848 53.63 28.8448 55.295 29.1898C55.43 29.2198 55.515 29.3498 55.49 29.4848C55.465 29.6048 55.36 29.6848 55.245 29.6848L55.24 29.6898ZM40.33 29.1998C40.21 29.1998 40.105 29.1148 40.085 28.9898C40.06 28.8548 40.155 28.7248 40.29 28.6998C41.9 28.4298 43.585 28.2748 45.3 28.2348C45.435 28.2198 45.555 28.3398 45.555 28.4798C45.555 28.6198 45.45 28.7298 45.31 28.7348C43.62 28.7748 41.955 28.9298 40.37 29.1948C40.355 29.1948 40.34 29.1948 40.33 29.1948V29.1998Z" fill="#07064E"></path>
<path id="Vector_5" d="M57.405 86.77V35.57C57.405 33.345 59.21 31.54 61.435 31.54H114.27C116.495 31.54 118.3 33.345 118.3 35.57V97.79C118.3 100.015 116.495 101.82 114.27 101.82H61.435C59.21 101.82 57.405 100.015 57.405 97.79V84.08" fill="white"></path>
<path id="Vector_6" d="M117.935 23.2549H57.765C55.54 23.2549 53.735 25.0599 53.735 27.2849V109.905C53.735 112.13 55.54 113.935 57.765 113.935H117.935C120.16 113.935 121.965 112.13 121.965 109.905V27.2849C121.965 25.0599 120.16 23.2549 117.935 23.2549ZM118.295 97.7899C118.295 100.015 116.49 101.82 114.265 101.82H61.43C59.205 101.82 57.4 100.015 57.4 97.7899V35.5699C57.4 33.3449 59.205 31.5399 61.43 31.5399H114.265C116.49 31.5399 118.295 33.3449 118.295 35.5699V97.7899Z" fill="#EDEDED"></path>
<path id="Vector_7" d="M117.935 114.18H57.765C55.405 114.18 53.485 112.26 53.485 109.9V27.28C53.485 24.92 55.405 23 57.765 23H117.935C120.295 23 122.215 24.92 122.215 27.28V109.9C122.215 112.26 120.295 114.18 117.935 114.18ZM57.765 23.505C55.68 23.505 53.985 25.2 53.985 27.285V109.905C53.985 111.99 55.68 113.685 57.765 113.685H117.935C120.02 113.685 121.715 111.99 121.715 109.905V27.28C121.715 25.195 120.02 23.5 117.935 23.5H57.765V23.505Z" fill="#07064E"></path>
<g id="Group">
<path id="Vector_8" d="M87.8501 111.54C89.6698 111.54 91.1451 110.065 91.1451 108.245C91.1451 106.425 89.6698 104.95 87.8501 104.95C86.0303 104.95 84.5551 106.425 84.5551 108.245C84.5551 110.065 86.0303 111.54 87.8501 111.54Z" fill="white"></path>
<path id="Vector_9" d="M87.83 111.79C86.085 111.79 84.6151 110.54 84.3351 108.82C84.3151 108.685 84.405 108.555 84.54 108.535C84.675 108.515 84.8051 108.605 84.8251 108.74C85.0651 110.215 86.33 111.29 87.83 111.29C89.51 111.29 90.875 109.925 90.875 108.245C90.875 106.565 89.51 105.205 87.83 105.205C86.785 105.205 85.8301 105.73 85.2651 106.61C85.1901 106.725 85.0351 106.76 84.9201 106.685C84.8051 106.61 84.77 106.455 84.845 106.34C85.5 105.315 86.615 104.705 87.83 104.705C89.785 104.705 91.375 106.295 91.375 108.245C91.375 110.195 89.785 111.79 87.83 111.79Z" fill="#07064E"></path>
</g>
<g id="Group_2">
<path id="Vector_10" d="M94.87 28.045H91.34C91.2 28.045 91.09 27.93 91.09 27.79C91.09 27.65 91.2 27.54 91.34 27.54H94.87C95.01 27.54 95.12 27.655 95.12 27.795C95.12 27.935 95.01 28.045 94.87 28.045Z" fill="white"></path>
<path id="Vector_11" d="M89.035 28.04H80.83C80.69 28.04 80.58 27.93 80.58 27.79C80.58 27.65 80.69 27.54 80.83 27.54H89.035C89.175 27.54 89.285 27.65 89.285 27.79C89.285 27.93 89.175 28.04 89.035 28.04Z" fill="#07064E"></path>
</g>
<g id="Vector_12">
<path d="M72.045 38.7903H65.895C64.749 38.7903 63.8199 39.7193 63.8199 40.8653V47.0153C63.8199 48.1613 64.749 49.0903 65.895 49.0903H72.045C73.1909 49.0903 74.1199 48.1613 74.1199 47.0153V40.8653C74.1199 39.7193 73.1909 38.7903 72.045 38.7903Z" fill="#07064E"></path>
<path d="M110.41 49.0902H78.72C77.585 49.0902 76.665 48.1602 76.665 47.0152V40.8602C76.665 39.7152 77.585 38.7852 78.72 38.7852H110.41C111.545 38.7852 112.465 39.7152 112.465 40.8602V47.0152C112.465 48.1602 111.545 49.0902 110.41 49.0902Z" fill="#07064E"></path>
</g>
<g id="Vector_13">
<path d="M72.045 60.51H65.895C64.749 60.51 63.8199 61.439 63.8199 62.585V68.735C63.8199 69.881 64.749 70.81 65.895 70.81H72.045C73.1909 70.81 74.1199 69.881 74.1199 68.735V62.585C74.1199 61.439 73.1909 60.51 72.045 60.51Z" fill="#FFC391"></path>
<path d="M110.41 70.8099H78.72C77.585 70.8099 76.665 69.8799 76.665 68.7349V62.5799C76.665 61.4349 77.585 60.5049 78.72 60.5049H110.41C111.545 60.5049 112.465 61.4349 112.465 62.5799V68.7349C112.465 69.8799 111.545 70.8099 110.41 70.8099Z" fill="#FFC391"></path>
</g>
<g id="Vector_14">
<path d="M72.045 83.5901H65.895C64.749 83.5901 63.8199 84.5191 63.8199 85.6651V91.8151C63.8199 92.9611 64.749 93.8901 65.895 93.8901H72.045C73.1909 93.8901 74.1199 92.9611 74.1199 91.8151V85.6651C74.1199 84.5191 73.1909 83.5901 72.045 83.5901Z" fill="#2BF5BA"></path>
<path d="M110.41 93.89H78.72C77.585 93.89 76.665 92.96 76.665 91.815V85.66C76.665 84.515 77.585 83.585 78.72 83.585H110.41C111.545 83.585 112.465 84.515 112.465 85.66V91.815C112.465 92.96 111.545 93.89 110.41 93.89Z" fill="#2BF5BA"></path>
</g>
<g id="Group_3">
<path id="Vector_15" d="M30.91 27.79H19.755C17.6812 27.79 16 29.4712 16 31.545V42.7C16 44.7739 17.6812 46.455 19.755 46.455H30.91C32.9838 46.455 34.665 44.7739 34.665 42.7V31.545C34.665 29.4712 32.9838 27.79 30.91 27.79Z" fill="#07064E"></path>
<path id="Vector_16" d="M25.065 41.6551C24.995 41.6551 24.925 41.6251 24.875 41.5701L21.085 37.1801C20.995 37.0751 21.005 36.9151 21.11 36.8251C21.215 36.7351 21.37 36.7451 21.465 36.8501L25.01 40.9551L29.17 32.7301C29.23 32.6051 29.385 32.5601 29.505 32.6201C29.63 32.6801 29.68 32.8351 29.615 32.9551L25.285 41.5151C25.245 41.5901 25.175 41.6401 25.09 41.6501C25.08 41.6501 25.07 41.6501 25.06 41.6501L25.065 41.6551Z" fill="white"></path>
</g>
<g id="Group_4">
<path id="Vector_17" d="M144.41 79.0452L137.357 82.8317C136.046 83.5357 135.553 85.1695 136.257 86.4809L140.044 93.5337C140.748 94.8451 142.382 95.3375 143.693 94.6334L150.746 90.847C152.057 90.1429 152.549 88.5091 151.845 87.1977L148.059 80.1449C147.355 78.8335 145.721 78.3412 144.41 79.0452Z" fill="#07064E"></path>
<path id="Vector_18" d="M145.335 89.8747C145.305 89.8747 145.275 89.8697 145.245 89.8597L141.36 88.3747C141.23 88.3247 141.165 88.1797 141.215 88.0497C141.265 87.9197 141.41 87.8547 141.54 87.9047L145.075 89.2597L144.915 82.7547C144.915 82.6147 145.02 82.4997 145.16 82.4997C145.295 82.4797 145.415 82.6047 145.415 82.7447L145.585 89.6247C145.585 89.7097 145.545 89.7897 145.48 89.8347C145.435 89.8647 145.385 89.8797 145.335 89.8797V89.8747Z" fill="white"></path>
</g>
<g id="Group_5">
<path id="Vector_19" d="M155.94 35.4502H144.785C142.711 35.4502 141.03 37.1314 141.03 39.2052V50.3602C141.03 52.434 142.711 54.1152 144.785 54.1152H155.94C158.014 54.1152 159.695 52.434 159.695 50.3602V39.2052C159.695 37.1314 158.014 35.4502 155.94 35.4502Z" fill="#FFC391"></path>
<path id="Vector_20" d="M150.72 44.7851L153.89 41.6151C153.99 41.5151 153.99 41.3601 153.89 41.2601C153.79 41.1601 153.635 41.1601 153.535 41.2601L150.365 44.4301L147.195 41.2601C147.095 41.1601 146.94 41.1601 146.84 41.2601C146.74 41.3601 146.74 41.5151 146.84 41.6151L150.01 44.7851L146.84 47.9551C146.74 48.0551 146.74 48.2101 146.84 48.3101C146.89 48.3601 146.955 48.3851 147.015 48.3851C147.075 48.3851 147.145 48.3601 147.19 48.3101L150.36 45.1401L153.53 48.3101C153.58 48.3601 153.645 48.3851 153.705 48.3851C153.765 48.3851 153.835 48.3601 153.88 48.3101C153.98 48.2101 153.98 48.0551 153.88 47.9551L150.71 44.7851H150.72Z" fill="white"></path>
</g>
<g id="Group_6">
<path id="Vector_21" d="M38.53 73.375H31.78C30.5263 73.375 29.51 74.3913 29.51 75.645V82.395C29.51 83.6487 30.5263 84.665 31.78 84.665H38.53C39.7837 84.665 40.8 83.6487 40.8 82.395V75.645C40.8 74.3913 39.7837 73.375 38.53 73.375Z" fill="#FFC391"></path>
<g id="Group_7">
<path id="Vector_22" d="M37.175 81.2902C37.11 81.2902 37.045 81.2652 37 81.2152L32.955 77.1702C32.855 77.0702 32.855 76.9152 32.955 76.8152C33.055 76.7152 33.21 76.7152 33.31 76.8152L37.355 80.8602C37.455 80.9602 37.455 81.1152 37.355 81.2152C37.305 81.2652 37.24 81.2902 37.18 81.2902H37.175Z" fill="white"></path>
<path id="Vector_23" d="M33.13 81.2902C33.065 81.2902 33 81.2652 32.955 81.2152C32.855 81.1152 32.855 80.9602 32.955 80.8602L37 76.8152C37.1 76.7152 37.255 76.7152 37.355 76.8152C37.455 76.9152 37.455 77.0702 37.355 77.1702L33.31 81.2152C33.26 81.2652 33.195 81.2902 33.135 81.2902H33.13Z" fill="white"></path>
</g>
</g>
<path id="Vector_24" d="M172.763 65.5548L168.139 71.1323C167.279 72.1698 167.423 73.708 168.46 74.568L174.038 79.192C175.075 80.0521 176.613 79.9083 177.473 78.8709L182.097 73.2933C182.957 72.2559 182.814 70.7177 181.776 69.8576L176.199 65.2337C175.161 64.3736 173.623 64.5174 172.763 65.5548Z" fill="#2AEDB4"></path>
<path id="Vector_25" d="M172.764 64.1417L168.14 69.7192C167.28 70.7567 167.423 72.2949 168.461 73.1549L174.038 77.7789C175.076 78.639 176.614 78.4952 177.474 77.4578L182.098 71.8803C182.958 70.8428 182.814 69.3046 181.777 68.4445L176.199 63.8206C175.162 62.9605 173.624 63.1043 172.764 64.1417Z" fill="#2BF5BA"></path>
<path id="Vector_26" d="M177.49 73.0201C177.435 73.0201 177.375 73.0001 177.33 72.9601L172.6 69.0401C172.495 68.9501 172.48 68.7951 172.565 68.6901C172.655 68.5851 172.81 68.5701 172.915 68.6551L177.645 72.5751C177.75 72.6651 177.765 72.8201 177.68 72.9251C177.63 72.9851 177.56 73.0151 177.485 73.0151L177.49 73.0201Z" fill="white"></path>
<path id="Vector_27" d="M68.82 46.5499C68.75 46.5499 68.68 46.5199 68.63 46.4649L66.54 44.0449C66.45 43.9399 66.46 43.7799 66.565 43.6899C66.67 43.5999 66.825 43.6099 66.92 43.7149L68.77 45.8549L70.99 41.4649C71.05 41.3399 71.205 41.2949 71.325 41.3549C71.45 41.4149 71.5 41.5699 71.435 41.6899L69.045 46.4149C69.005 46.4899 68.935 46.5399 68.85 46.5499C68.84 46.5499 68.83 46.5499 68.82 46.5499Z" fill="white"></path>
<path id="Vector_28" d="M69.325 65.6601L70.995 63.9901C71.095 63.8901 71.095 63.7351 70.995 63.6351C70.895 63.5351 70.74 63.5351 70.64 63.6351L68.97 65.3051L67.3 63.6351C67.2 63.5351 67.045 63.5351 66.945 63.6351C66.845 63.7351 66.845 63.8901 66.945 63.9901L68.615 65.6601L66.945 67.3301C66.845 67.4301 66.845 67.5851 66.945 67.6851C66.995 67.7351 67.06 67.7601 67.12 67.7601C67.18 67.7601 67.25 67.7351 67.295 67.6851L68.965 66.0151L70.635 67.6851C70.685 67.7351 70.75 67.7601 70.81 67.7601C70.87 67.7601 70.94 67.7351 70.985 67.6851C71.085 67.5851 71.085 67.4301 70.985 67.3301L69.315 65.6601H69.325Z" fill="white"></path>
<path id="Vector_29" d="M71.58 88.9902H66.36C66.22 88.9902 66.11 88.8802 66.11 88.7402C66.11 88.6002 66.22 88.4902 66.36 88.4902H71.58C71.72 88.4902 71.83 88.6002 71.83 88.7402C71.83 88.8802 71.72 88.9902 71.58 88.9902Z" fill="white"></path>
<path id="Vector_30" d="M114.265 31.54H61.43C59.205 31.54 57.4 33.345 57.4 35.57V97.79V88.895V37.695C57.4 35.47 59.205 33.665 61.43 33.665H114.265C116.49 33.665 118.295 35.47 118.295 37.695V97.795V35.575C118.295 33.35 116.49 31.545 114.265 31.545V31.54Z" fill="#EDEDED"></path>
<path id="Vector_31" d="M114.265 102.07H61.43C59.07 102.07 57.15 100.15 57.15 97.79V35.57C57.15 33.21 59.07 31.29 61.43 31.29H114.265C116.625 31.29 118.545 33.21 118.545 35.57V97.79C118.545 100.15 116.625 102.07 114.265 102.07ZM61.435 31.79C59.35 31.79 57.655 33.485 57.655 35.57V97.79C57.655 99.875 59.35 101.57 61.435 101.57H114.27C116.355 101.57 118.05 99.875 118.05 97.79V35.57C118.05 33.485 116.355 31.79 114.27 31.79H61.435Z" fill="#07064E"></path>
</g>
</g>
</g>
</g>
</svg>