<svg width="200" height="140" viewBox="0 0 200 140" fill="none" xmlns="http://www.w3.org/2000/svg">
<g id="illu_spot_voting-uneditable/Default" clip-path="url(#clip0_70_5166)">
<g id="illu_spot_voting-uneditable">
<g id="background">
<path d="M196.923 92.5981C197.086 91.052 196.184 89.6892 194.907 89.5541C193.63 89.419 192.462 90.5627 192.299 92.1088C192.135 93.6548 193.038 95.0177 194.315 95.1528C195.592 95.2879 196.759 94.1441 196.923 92.5981Z" fill="#2BF5BA"></path>
<path d="M187.509 125.902C191.613 123.31 193.568 119.035 191.875 116.355C190.182 113.675 185.482 113.604 181.378 116.196C177.274 118.789 175.319 123.064 177.012 125.744C178.705 128.424 183.405 128.495 187.509 125.902Z" fill="#2BF5BA"></path>
<path d="M7.69314 14.6725C7.85673 13.1265 6.95418 11.7636 5.67725 11.6285C4.40032 11.4934 3.23254 12.6372 3.06896 14.1833C2.90537 15.7293 3.80791 17.0922 5.08485 17.2273C6.36178 17.3624 7.52955 16.2186 7.69314 14.6725Z" fill="#2BF5BA"></path>
<path d="M17.7201 14.6147C18.3856 14.6147 18.9251 14.0752 18.9251 13.4097C18.9251 12.7442 18.3856 12.2047 17.7201 12.2047C17.0546 12.2047 16.5151 12.7442 16.5151 13.4097C16.5151 14.0752 17.0546 14.6147 17.7201 14.6147Z" fill="#2BF5BA"></path>
<path d="M170.265 21.8597C197.435 43.3747 194.535 84.0497 186.4 98.2797C147.3 166.72 130.12 116.66 64.1851 132.635C3.05505 147.45 0.0350571 122.845 12.6401 100.77C19.4201 88.8947 5.98506 76.4947 5.98506 48.0747C5.98006 -1.37033 129.395 -10.5053 170.265 21.8597Z" fill="#2BF5BA"></path>
</g>
<g id="illu_spot_voting-uneditable_2">
<g id="stroke">
<path id="Vector" d="M141.085 31.9946H58.915C55.6013 31.9946 52.915 34.6809 52.915 37.9946V104.13C52.915 107.443 55.6013 110.13 58.915 110.13H141.085C144.399 110.13 147.085 107.443 147.085 104.13V37.9946C147.085 34.6809 144.399 31.9946 141.085 31.9946Z" fill="#2AEDB4"></path>
<path id="Vector_2" d="M141.085 29.8696H58.915C55.6013 29.8696 52.915 32.5559 52.915 35.8696V102.005C52.915 105.318 55.6013 108.005 58.915 108.005H141.085C144.399 108.005 147.085 105.318 147.085 102.005V35.8696C147.085 32.5559 144.399 29.8696 141.085 29.8696Z" fill="white"></path>
<path id="Vector_3" d="M57.445 29.8696H142.55C145.05 29.8696 147.08 31.8996 147.08 34.3996V41.1596H52.915V34.3996C52.915 31.8996 54.945 29.8696 57.445 29.8696Z" fill="#07064E"></path>
<path id="Vector_4" d="M129.63 38.2749C131.154 38.2749 132.39 37.0392 132.39 35.5149C132.39 33.9906 131.154 32.7549 129.63 32.7549C128.106 32.7549 126.87 33.9906 126.87 35.5149C126.87 37.0392 128.106 38.2749 129.63 38.2749Z" fill="white"></path>
<path id="Vector_5" d="M137.63 38.2749C139.154 38.2749 140.39 37.0392 140.39 35.5149C140.39 33.9906 139.154 32.7549 137.63 32.7549C136.106 32.7549 134.87 33.9906 134.87 35.5149C134.87 37.0392 136.106 38.2749 137.63 38.2749Z" fill="#2BF5BA"></path>
<g id="Vector_6">
<path d="M134.88 67.5151H115.29C115.15 67.5151 115.04 67.4051 115.04 67.2651C115.04 67.1251 115.15 67.0151 115.29 67.0151H134.88C135.02 67.0151 135.13 67.1251 135.13 67.2651C135.13 67.4051 135.02 67.5151 134.88 67.5151Z" fill="#07064E"></path>
<path d="M97.935 58.0352H65.12C64.98 58.0352 64.87 57.9252 64.87 57.7852C64.87 57.6452 64.98 57.5352 65.12 57.5352H97.935C98.075 57.5352 98.185 57.6452 98.185 57.7852C98.185 57.9252 98.075 58.0352 97.935 58.0352Z" fill="#07064E"></path>
<path d="M106.07 67.5151H65.495C65.355 67.5151 65.245 67.4051 65.245 67.2651C65.245 67.1251 65.355 67.0151 65.495 67.0151H106.07C106.21 67.0151 106.32 67.1251 106.32 67.2651C106.32 67.4051 106.21 67.5151 106.07 67.5151Z" fill="#07064E"></path>
<path d="M134.88 73.03H65.495C65.355 73.03 65.245 72.92 65.245 72.78C65.245 72.64 65.355 72.53 65.495 72.53H134.88C135.02 72.53 135.13 72.64 135.13 72.78C135.13 72.92 135.02 73.03 134.88 73.03Z" fill="#07064E"></path>
<path d="M134.88 78.55H107.755C107.615 78.55 107.505 78.44 107.505 78.3C107.505 78.16 107.615 78.05 107.755 78.05H134.88C135.02 78.05 135.13 78.16 135.13 78.3C135.13 78.44 135.02 78.55 134.88 78.55Z" fill="#07064E"></path>
<path d="M96.465 78.55H65.49C65.35 78.55 65.24 78.44 65.24 78.3C65.24 78.16 65.35 78.05 65.49 78.05H96.465C96.605 78.05 96.715 78.16 96.715 78.3C96.715 78.44 96.605 78.55 96.465 78.55Z" fill="#07064E"></path>
<path d="M134.88 84.0652H119.88C119.74 84.0652 119.63 83.9552 119.63 83.8152C119.63 83.6752 119.74 83.5652 119.88 83.5652H134.88C135.02 83.5652 135.13 83.6752 135.13 83.8152C135.13 83.9552 135.02 84.0652 134.88 84.0652Z" fill="#07064E"></path>
<path d="M115.035 84.0652H65.495C65.355 84.0652 65.245 83.9552 65.245 83.8152C65.245 83.6752 65.355 83.5652 65.495 83.5652H115.035C115.175 83.5652 115.285 83.6752 115.285 83.8152C115.285 83.9552 115.175 84.0652 115.035 84.0652Z" fill="#07064E"></path>
</g>
<path id="Vector_7" d="M128.885 53.1596L136.5 50.3896L133.78 58.0496C133.73 58.1896 133.65 58.3146 133.545 58.4196L106.315 85.6497C105.93 86.0346 105.305 86.0346 104.915 85.6497L101.285 82.0196C100.9 81.6346 100.9 81.0097 101.285 80.6197L128.52 53.3846C128.62 53.2846 128.745 53.2046 128.88 53.1546L128.885 53.1596Z" fill="#DDDDDD"></path>
<path id="Vector_8" d="M128.885 51.0346L136.5 48.2646L133.78 55.9246C133.73 56.0646 133.65 56.1896 133.545 56.2946L106.315 83.5247C105.93 83.9096 105.305 83.9096 104.915 83.5247L101.285 79.8946C100.9 79.5096 100.9 78.8847 101.285 78.4947L128.52 51.2596C128.62 51.1596 128.745 51.0796 128.88 51.0296L128.885 51.0346Z" fill="white"></path>
<path id="Vector_9" d="M102.585 77.1997L101.345 78.4397C100.905 78.8797 100.905 79.5897 101.345 80.0297L104.78 83.4647C105.22 83.9047 105.93 83.9047 106.37 83.4647L107.61 82.2247" fill="#2BF5BA"></path>
<path id="Vector_10" d="M133.89 55.8799L107.615 82.0949C105.055 79.0849 125.435 63.0149 131.595 53.4849L133.89 55.8799Z" fill="#EDEDED"></path>
<g id="Vector_11">
<path d="M107.625 82.4648C107.56 82.4648 107.495 82.4398 107.45 82.3898L102.425 77.3648C102.325 77.2648 102.325 77.1098 102.425 77.0098L128.825 50.6098C128.85 50.5848 128.885 50.5598 128.92 50.5498L136.42 48.0248C136.51 47.9948 136.61 48.0198 136.675 48.0848C136.74 48.1498 136.765 48.2498 136.735 48.3398L134.265 55.8898C134.255 55.9248 134.23 55.9598 134.205 55.9898L107.805 82.3898C107.76 82.4348 107.695 82.4648 107.63 82.4648H107.625ZM102.95 77.1898L107.625 81.8648L133.805 55.6848L136.105 48.6648L129.135 51.0098L102.955 77.1898H102.95Z" fill="#07064E"></path>
<path d="M129.915 52.05C129.85 52.05 129.785 52.025 129.74 51.975L128.805 51.04C128.705 50.94 128.705 50.785 128.805 50.685C128.905 50.585 129.06 50.585 129.16 50.685L130.095 51.62C130.195 51.72 130.195 51.875 130.095 51.975C130.045 52.025 129.98 52.05 129.92 52.05H129.915Z" fill="#07064E"></path>
<path d="M133.965 56.0999C133.9 56.0999 133.835 56.0749 133.79 56.0249L130.745 52.9799C130.645 52.8799 130.645 52.7249 130.745 52.6249C130.845 52.5249 131 52.5249 131.1 52.6249L134.145 55.6699C134.245 55.7699 134.245 55.9249 134.145 56.0249C134.095 56.0749 134.03 56.0999 133.97 56.0999H133.965Z" fill="#07064E"></path>
<path d="M135.595 51.0599C135.53 51.0599 135.465 51.0349 135.42 50.9849L133.75 49.3149C133.65 49.2149 133.65 49.0599 133.75 48.9599C133.85 48.8599 134.005 48.8599 134.105 48.9599L135.775 50.6299C135.875 50.7299 135.875 50.8849 135.775 50.9849C135.725 51.0349 135.66 51.0599 135.6 51.0599H135.595Z" fill="#07064E"></path>
<path d="M105.575 84.0501C105.225 84.0501 104.87 83.9151 104.605 83.6501L101.165 80.2151C100.63 79.6801 100.63 78.8101 101.165 78.2701L103.38 76.0551C103.48 75.9551 103.635 75.9551 103.735 76.0551C103.835 76.1551 103.835 76.3101 103.735 76.4101L101.52 78.6251C101.18 78.9651 101.18 79.5201 101.52 79.8601L104.96 83.2951C105.3 83.6351 105.855 83.6351 106.195 83.2951L108.41 81.0801C108.51 80.9801 108.665 80.9801 108.765 81.0801C108.865 81.1801 108.865 81.3351 108.765 81.4351L106.55 83.6501C106.28 83.9201 105.93 84.0501 105.58 84.0501H105.575Z" fill="#07064E"></path>
<path d="M108.585 81.5052C108.52 81.5052 108.455 81.4802 108.41 81.4302L106.015 79.0352C105.915 78.9352 105.915 78.7802 106.015 78.6802C106.115 78.5802 106.27 78.5802 106.37 78.6802L108.765 81.0752C108.865 81.1752 108.865 81.3302 108.765 81.4302C108.715 81.4802 108.65 81.5052 108.59 81.5052H108.585Z" fill="#07064E"></path>
<path d="M109.52 80.5701C109.455 80.5701 109.39 80.5451 109.345 80.4951L104.32 75.4701C104.22 75.3701 104.22 75.2151 104.32 75.1151C104.42 75.0151 104.575 75.0151 104.675 75.1151L109.7 80.1401C109.8 80.2401 109.8 80.3951 109.7 80.4951C109.65 80.5451 109.585 80.5701 109.525 80.5701H109.52Z" fill="#07064E"></path>
<path d="M105.41 78.34C105.345 78.34 105.28 78.315 105.235 78.265L103.41 76.44C103.31 76.34 103.31 76.185 103.41 76.085C103.51 75.985 103.665 75.985 103.765 76.085L105.59 77.91C105.69 78.01 105.69 78.165 105.59 78.265C105.54 78.315 105.475 78.34 105.415 78.34H105.41Z" fill="#07064E"></path>
<path d="M133.685 49.1447L136.54 48.3597L135.645 50.8697L133.685 49.1447Z" fill="#07064E"></path>
</g>
<g id="Vector_12">
<path d="M134.42 97.7949H114.83C114.69 97.7949 114.58 97.6849 114.58 97.5449C114.58 97.4049 114.69 97.2949 114.83 97.2949H134.42C134.56 97.2949 134.67 97.4049 134.67 97.5449C134.67 97.6849 134.56 97.7949 134.42 97.7949Z" fill="#07064E"></path>
<path d="M98.14 89.585H65.385C65.245 89.585 65.135 89.475 65.135 89.335C65.135 89.195 65.245 89.085 65.385 89.085H98.14C98.28 89.085 98.39 89.195 98.39 89.335C98.39 89.475 98.28 89.585 98.14 89.585Z" fill="#07064E"></path>
</g>
<path id="Vector_13" d="M111.17 97.7949H107.365C107.225 97.7949 107.115 97.6849 107.115 97.5449C107.115 97.4049 107.225 97.2949 107.365 97.2949H111.17C111.31 97.2949 111.42 97.4049 111.42 97.5449C111.42 97.6849 111.31 97.7949 111.17 97.7949Z" fill="#2BF5BA"></path>
<path id="Vector_14" d="M141.415 96.5747L108.105 70.9497L141.415 45.3247C143.085 44.0397 143.4 41.6397 142.115 39.9697C140.83 38.2997 138.43 37.9847 136.76 39.2697L101.84 66.1297L66.92 39.2697C65.25 37.9847 62.85 38.2947 61.565 39.9697C60.28 41.6397 60.59 44.0397 62.265 45.3247L95.575 70.9497L62.265 96.5747C60.595 97.8597 60.28 100.26 61.565 101.93C62.85 103.6 65.25 103.915 66.92 102.63L101.84 75.7697L136.76 102.63C138.43 103.915 140.83 103.605 142.115 101.93C143.4 100.26 143.09 97.8597 141.415 96.5747Z" fill="#DDDDDD"></path>
<path id="Vector_15" d="M141.415 94.4497L108.105 68.8247L141.415 43.1997C143.085 41.9147 143.4 39.5147 142.115 37.8447C140.83 36.1747 138.43 35.8597 136.76 37.1447L101.84 64.0047L66.92 37.1447C65.25 35.8597 62.85 36.1697 61.565 37.8447C60.28 39.5147 60.59 41.9147 62.265 43.1997L95.575 68.8247L62.265 94.4497C60.595 95.7347 60.28 98.1347 61.565 99.8047C62.85 101.475 65.25 101.79 66.92 100.505L101.84 73.6447L136.76 100.505C138.43 101.79 140.83 101.48 142.115 99.8047C143.4 98.1347 143.09 95.7347 141.415 94.4497Z" fill="#FFB87E"></path>
</g>
</g>
</g>
</g>
<defs>
<clipPath id="clip0_70_5166">
<rect width="200" height="140" fill="white"></rect>
</clipPath>
</defs>
</svg>