<svg width="200" height="140" viewBox="0 0 200 140" fill="none" xmlns="http://www.w3.org/2000/svg">
<g id="illu_spot_report-pdf/Default" clip-path="url(#clip0_70_4486)">
<g id="illu_spot_report-pdf">
<g id="background">
<path d="M12.46 31.5401C6.29997 31.4551 1.70497 27.2851 2.18997 22.2301C2.67497 17.1751 8.06497 13.1501 14.225 13.2351C20.385 13.3201 24.98 17.4901 24.495 22.5451C24.01 27.6001 18.62 31.6251 12.46 31.5401Z" fill="#2BF5BA"></path>
<path d="M188.645 58.7551C192.169 58.7551 195.025 55.8986 195.025 52.3751C195.025 48.8515 192.169 45.9951 188.645 45.9951C185.121 45.9951 182.265 48.8515 182.265 52.3751C182.265 55.8986 185.121 58.7551 188.645 58.7551Z" fill="#2BF5BA"></path>
<path d="M190.28 37.0451C191.68 37.0451 192.815 35.9101 192.815 34.5101C192.815 33.11 191.68 31.9751 190.28 31.9751C188.88 31.9751 187.745 33.11 187.745 34.5101C187.745 35.9101 188.88 37.0451 190.28 37.0451Z" fill="#2BF5BA"></path>
<path d="M28.71 9.74506C27.985 11.1551 26.15 11.7651 24.61 11.1051C23.07 10.4451 22.405 8.77006 23.13 7.36006C23.855 5.95006 25.69 5.34006 27.23 6.00006C28.77 6.66006 29.435 8.33506 28.71 9.74506Z" fill="#2BF5BA"></path>
<path d="M38.66 136.325C0.284973 127.795 -3.41003 76.5751 16.575 42.5851C42.33 -1.21494 96.04 2.89506 124.73 5.84006C157.54 9.20506 183.82 10.3651 178.965 37.9751C172.705 73.5851 196.65 58.9451 197.825 94.0501C198.46 112.96 181.84 126.995 151.18 128.445C74.255 132.085 75.825 144.585 38.655 136.325H38.66Z" fill="#2BF5BA"></path>
</g>
<g id="stroke">
<path id="Vector" d="M129.985 114.485H69.92V29.7651H116.52L129.985 43.2351V114.485Z" fill="#2AEDB4"></path>
<path id="Vector_2" d="M129.985 112.36H69.92V27.6401H116.52L129.985 41.1101V112.36Z" fill="white"></path>
<g id="Vector_3">
<path d="M116.52 99.705C108.02 108.205 96.82 103.17 76.19 109.88C70.85 112.105 70.015 112.36 70.015 112.36H130.08V42.445C124.635 71.795 128.21 87.6 116.52 99.705Z" fill="#EDEDED"></path>
<path d="M120.595 43.235C118.345 43.235 116.52 41.41 116.52 39.16V29.77L129.99 41.11V43.235H120.595Z" fill="#EDEDED"></path>
</g>
<path id="Vector_4" d="M129.985 41.11H120.595C118.345 41.11 116.52 39.285 116.52 37.035V27.645L129.99 41.115L129.985 41.11Z" fill="white"></path>
<path id="Vector_5" d="M130.23 41.08C130.23 41.08 130.23 41.06 130.225 41.05C130.215 41.01 130.195 40.97 130.165 40.935L116.695 27.465C116.665 27.435 116.625 27.415 116.58 27.405C116.57 27.405 116.56 27.405 116.55 27.4C116.54 27.4 116.53 27.395 116.515 27.395H69.92C69.78 27.395 69.67 27.505 69.67 27.645V112.36C69.67 112.5 69.78 112.61 69.92 112.61H129.985C130.125 112.61 130.235 112.5 130.235 112.36V41.11C130.235 41.11 130.235 41.09 130.23 41.08ZM129.385 40.86H120.595C118.485 40.86 116.77 39.145 116.77 37.035V28.245L129.385 40.86ZM70.17 112.11V27.89H116.265V37.03C116.265 39.415 118.205 41.355 120.59 41.355H129.735V112.105H70.17V112.11Z" fill="#07064E"></path>
<g id="Vector_6">
<path d="M120.49 61.4451H79.76C79.62 61.4451 79.51 61.3351 79.51 61.1951C79.51 61.0551 79.62 60.9451 79.76 60.9451H120.49C120.63 60.9451 120.74 61.0551 120.74 61.1951C120.74 61.3351 120.63 61.4451 120.49 61.4451Z" fill="#07064E"></path>
<path d="M120.49 66.9601H79.76C79.62 66.9601 79.51 66.8501 79.51 66.7101C79.51 66.5701 79.62 66.4601 79.76 66.4601H120.49C120.63 66.4601 120.74 66.5701 120.74 66.7101C120.74 66.8501 120.63 66.9601 120.49 66.9601Z" fill="#07064E"></path>
<path d="M97.94 72.7351H79.76C79.62 72.7351 79.51 72.6251 79.51 72.4851C79.51 72.3451 79.62 72.2351 79.76 72.2351H97.94C98.08 72.2351 98.19 72.3451 98.19 72.4851C98.19 72.6251 98.08 72.7351 97.94 72.7351Z" fill="#07064E"></path>
<path d="M103.23 78.2501H79.76C79.62 78.2501 79.51 78.1401 79.51 78.0001C79.51 77.8601 79.62 77.7501 79.76 77.7501H103.23C103.37 77.7501 103.48 77.8601 103.48 78.0001C103.48 78.1401 103.37 78.2501 103.23 78.2501Z" fill="#07064E"></path>
</g>
<path id="Vector_7" d="M120.775 82.1399C120.205 81.1549 118.945 80.8199 117.96 81.3849C117.485 81.6599 117.145 82.1049 117 82.6349C116.86 83.1649 116.93 83.7199 117.205 84.1999C117.275 84.3199 117.355 84.4299 117.44 84.5299L110.01 91.7499C109.365 91.1199 108.36 90.9599 107.545 91.4299C107.125 91.6749 106.83 92.0449 106.665 92.4649L92.27 89.4299C92.24 89.1449 92.155 88.8649 92.01 88.6049C91.44 87.6199 90.18 87.2849 89.195 87.8499C88.21 88.4199 87.875 89.6799 88.44 90.6649C88.535 90.8299 88.655 90.9699 88.79 91.0999C88.765 91.1149 88.735 91.1349 88.715 91.1599L80.725 100.735C80.425 100.565 80.085 100.465 79.72 100.465C78.585 100.465 77.66 101.39 77.66 102.525C77.66 103.66 78.585 104.585 79.72 104.585C80.855 104.585 81.78 103.66 81.78 102.525C81.78 101.935 81.53 101.405 81.13 101.03L89.095 91.4849C89.12 91.4549 89.135 91.4199 89.145 91.3849C89.315 91.4899 89.49 91.5749 89.69 91.6299C89.865 91.6749 90.05 91.6999 90.225 91.6999C90.58 91.6999 90.935 91.6049 91.25 91.4249C91.725 91.1499 92.065 90.7049 92.21 90.1749C92.23 90.0999 92.235 90.0199 92.25 89.9449L106.54 92.9599C106.485 93.3949 106.555 93.8499 106.79 94.2549C107.065 94.7299 107.51 95.0699 108.04 95.2149C108.215 95.2599 108.4 95.2849 108.575 95.2849C108.93 95.2849 109.285 95.1899 109.6 95.0099C110.075 94.7349 110.415 94.2899 110.56 93.7599C110.705 93.2299 110.63 92.6749 110.355 92.1949C110.345 92.1799 110.335 92.1649 110.325 92.1499L117.82 84.8699C118.01 85.0049 118.225 85.1099 118.455 85.1699C118.63 85.2199 118.815 85.2399 118.99 85.2399C119.345 85.2399 119.7 85.1449 120.015 84.9649C121 84.3949 121.335 83.1349 120.77 82.1499L120.775 82.1399ZM81.29 102.525C81.29 103.385 80.59 104.085 79.73 104.085C78.87 104.085 78.17 103.385 78.17 102.525C78.17 101.665 78.87 100.965 79.73 100.965C80.59 100.965 81.29 101.665 81.29 102.525ZM91.735 90.0399C91.625 90.4399 91.37 90.7799 91.01 90.9849C90.65 91.1949 90.23 91.2499 89.825 91.1399C89.425 91.0299 89.085 90.7749 88.88 90.4149C88.45 89.6699 88.705 88.7149 89.45 88.2849C89.695 88.1449 89.965 88.0749 90.225 88.0749C90.765 88.0749 91.29 88.3549 91.58 88.8549C91.79 89.2149 91.845 89.6349 91.735 90.0399ZM110.085 93.6199C109.975 94.0199 109.72 94.3599 109.36 94.5649C109 94.7749 108.58 94.8299 108.175 94.7199C107.775 94.6099 107.435 94.3549 107.23 93.9949C106.8 93.2499 107.055 92.2949 107.8 91.8649C108.045 91.7249 108.315 91.6549 108.575 91.6549C109.115 91.6549 109.64 91.9349 109.93 92.4349C110.14 92.7949 110.195 93.2149 110.085 93.6199ZM119.775 84.5249C119.415 84.7349 118.995 84.7899 118.59 84.6799C118.19 84.5699 117.85 84.3149 117.645 83.9549C117.44 83.5949 117.38 83.1749 117.49 82.7699C117.6 82.3699 117.855 82.0299 118.215 81.8249C118.46 81.6849 118.73 81.6149 118.99 81.6149C119.53 81.6149 120.055 81.8949 120.345 82.3949C120.775 83.1399 120.52 84.0949 119.775 84.5249Z" fill="#07064E"></path>
<g id="Vector_8">
<path d="M80.73 44.8201V46.5151H79.97V41.8351H81.425C81.73 41.8351 81.995 41.8701 82.22 41.9401C82.445 42.0101 82.63 42.1101 82.775 42.2401C82.92 42.3701 83.03 42.5251 83.1 42.7051C83.17 42.8851 83.205 43.0851 83.205 43.3051C83.205 43.5251 83.165 43.7301 83.09 43.9201C83.015 44.1051 82.9 44.2651 82.75 44.4001C82.6 44.5351 82.415 44.6351 82.195 44.7101C81.975 44.7851 81.715 44.8201 81.42 44.8201H80.725H80.73ZM81.425 44.2151C81.595 44.2151 81.745 44.1951 81.87 44.1501C82 44.1051 82.105 44.0451 82.19 43.9651C82.275 43.8851 82.34 43.7901 82.385 43.6751C82.43 43.5601 82.45 43.4351 82.45 43.3001C82.45 43.1651 82.43 43.0401 82.385 42.9351C82.34 42.8301 82.28 42.7351 82.195 42.6601C82.11 42.5851 82.005 42.5251 81.875 42.4851C81.745 42.4451 81.595 42.4251 81.42 42.4251H80.725V44.2151H81.425Z" fill="#2BF5BA"></path>
<path d="M88.045 44.1701C88.045 44.5151 87.99 44.8351 87.875 45.1201C87.76 45.4051 87.605 45.6551 87.4 45.8601C87.195 46.0651 86.95 46.2251 86.66 46.3401C86.37 46.4551 86.055 46.5101 85.705 46.5101H83.935V41.8301H85.705C86.055 41.8301 86.375 41.8851 86.66 42.0001C86.945 42.1151 87.195 42.2751 87.4 42.4801C87.605 42.6851 87.765 42.9301 87.875 43.2201C87.99 43.5051 88.045 43.8251 88.045 44.1701ZM87.265 44.1701C87.265 43.9001 87.23 43.6601 87.155 43.4451C87.08 43.2301 86.98 43.0501 86.845 42.9001C86.71 42.7551 86.545 42.6401 86.355 42.5601C86.165 42.4801 85.945 42.4401 85.705 42.4401H84.7V45.8901H85.705C85.945 45.8901 86.16 45.8501 86.355 45.7751C86.55 45.6951 86.71 45.5851 86.845 45.4351C86.98 45.2851 87.085 45.1051 87.155 44.8901C87.225 44.6751 87.265 44.4351 87.265 44.1651V44.1701Z" fill="#2BF5BA"></path>
<path d="M91.8 41.8301V42.4451H89.645V43.9451H91.475V44.5601H89.645V46.5151H88.88V41.8351H91.8V41.8301Z" fill="#2BF5BA"></path>
</g>
</g>
</g>
</g>
<defs>
<clipPath id="clip0_70_4486">
<rect width="200" height="140" fill="white"></rect>
</clipPath>
</defs>
</svg>