<svg width="200" height="140" viewBox="0 0 200 140" fill="none" xmlns="http://www.w3.org/2000/svg">
<g id="illu_spot_agenda-no-visible-v2/Default" clip-path="url(#clip0_70_4888)">
<g id="illu_spot_agenda-no-visible-v2">
<g id="background">
<path d="M38.66 136.325C0.284966 127.795 -5.48503 90.785 14.5 56.79C40.25 12.99 71.27 4.51999 102.51 2.86999C135.45 1.12999 165.995 4.23499 161.14 31.845C154.88 67.455 196.65 58.945 197.83 94.05C198.465 112.96 177.2 122.925 146.795 118.715C61.975 106.97 75.835 144.585 38.665 136.325H38.66Z" fill="#2BF5BA"></path>
<path d="M12.46 31.54C6.29997 31.455 1.70497 27.285 2.18997 22.23C2.67497 17.175 8.06497 13.15 14.225 13.235C20.385 13.32 24.98 17.49 24.495 22.545C24.01 27.6 18.62 31.625 12.46 31.54Z" fill="#2BF5BA"></path>
<path d="M28.71 9.74499C27.985 11.155 26.15 11.765 24.61 11.105C23.07 10.445 22.405 8.76999 23.13 7.35999C23.855 5.95 25.69 5.33999 27.23 5.99999C28.77 6.65999 29.435 8.33499 28.71 9.74499Z" fill="#2BF5BA"></path>
</g>
<g id="illu_spot_agenda-no-visible-v2_2">
<g id="stroke">
<path id="Vector" d="M141.085 32.135H58.915C55.6013 32.135 52.915 34.8213 52.915 38.135V104.27C52.915 107.584 55.6013 110.27 58.915 110.27H141.085C144.399 110.27 147.085 107.584 147.085 104.27V38.135C147.085 34.8213 144.399 32.135 141.085 32.135Z" fill="#2AEDB4"></path>
<path id="Vector_2" d="M141.085 30.01H58.915C55.6013 30.01 52.915 32.6963 52.915 36.01V102.145C52.915 105.459 55.6013 108.145 58.915 108.145H141.085C144.399 108.145 147.085 105.459 147.085 102.145V36.01C147.085 32.6963 144.399 30.01 141.085 30.01Z" fill="white"></path>
<path id="Vector_3" d="M57.445 29.73H142.55C145.05 29.73 147.08 31.76 147.08 34.26V41.02H52.915V34.26C52.915 31.76 54.945 29.73 57.445 29.73Z" fill="#07064E"></path>
<path id="Vector_4" d="M129.63 38.135C131.154 38.135 132.39 36.8993 132.39 35.375C132.39 33.8507 131.154 32.615 129.63 32.615C128.106 32.615 126.87 33.8507 126.87 35.375C126.87 36.8993 128.106 38.135 129.63 38.135Z" fill="white"></path>
<path id="Vector_5" d="M137.63 38.135C139.154 38.135 140.39 36.8993 140.39 35.375C140.39 33.8507 139.154 32.615 137.63 32.615C136.106 32.615 134.87 33.8507 134.87 35.375C134.87 36.8993 136.106 38.135 137.63 38.135Z" fill="#2BF5BA"></path>
<g id="Vector_6">
<path d="M76.47 90.3549H61.345C59.9863 90.3549 58.8849 91.4563 58.8849 92.8149V98.3949C58.8849 99.7535 59.9863 100.855 61.345 100.855H76.47C77.8286 100.855 78.93 99.7535 78.93 98.3949V92.8149C78.93 91.4563 77.8286 90.3549 76.47 90.3549Z" fill="#EDEDED"></path>
<path d="M76.47 75.6499H61.345C59.9863 75.6499 58.8849 76.7513 58.8849 78.1099V83.6899C58.8849 85.0485 59.9863 86.1499 61.345 86.1499H76.47C77.8286 86.1499 78.93 85.0485 78.93 83.6899V78.1099C78.93 76.7513 77.8286 75.6499 76.47 75.6499Z" fill="#EDEDED"></path>
<path d="M76.47 60.9499H61.345C59.9863 60.9499 58.8849 62.0513 58.8849 63.4099V68.9899C58.8849 70.3485 59.9863 71.4499 61.345 71.4499H76.47C77.8286 71.4499 78.93 70.3485 78.93 68.9899V63.4099C78.93 62.0513 77.8286 60.9499 76.47 60.9499Z" fill="#EDEDED"></path>
<path d="M76.47 46.2449H61.345C59.9863 46.2449 58.8849 47.3463 58.8849 48.7049V54.2849C58.8849 55.6435 59.9863 56.7449 61.345 56.7449H76.47C77.8286 56.7449 78.93 55.6435 78.93 54.2849V48.7049C78.93 47.3463 77.8286 46.2449 76.47 46.2449Z" fill="#EDEDED"></path>
</g>
<g id="Vector_7">
<path d="M137.735 58.2398H83.525C83.385 58.2398 83.275 58.1298 83.275 57.9898C83.275 57.8498 83.385 57.7398 83.525 57.7398H137.735C137.875 57.7398 137.985 57.8498 137.985 57.9898C137.985 58.1298 137.875 58.2398 137.735 58.2398Z" fill="#07064E"></path>
<path d="M137.735 73.5148H83.525C83.385 73.5148 83.275 73.4048 83.275 73.2648C83.275 73.1248 83.385 73.0148 83.525 73.0148H137.735C137.875 73.0148 137.985 73.1248 137.985 73.2648C137.985 73.4048 137.875 73.5148 137.735 73.5148Z" fill="#07064E"></path>
<path d="M137.735 88.7898H83.525C83.385 88.7898 83.275 88.6798 83.275 88.5398C83.275 88.3998 83.385 88.2898 83.525 88.2898H137.735C137.875 88.2898 137.985 88.3998 137.985 88.5398C137.985 88.6798 137.875 88.7898 137.735 88.7898Z" fill="#07064E"></path>
<path d="M83.52 101.935C83.38 101.935 83.27 101.825 83.27 101.685V42.7148C83.27 42.5748 83.38 42.4648 83.52 42.4648C83.66 42.4648 83.77 42.5748 83.77 42.7148V101.685C83.77 101.825 83.66 101.935 83.52 101.935Z" fill="#07064E"></path>
<path d="M111.69 101.935C111.55 101.935 111.44 101.825 111.44 101.685V42.7148C111.44 42.5748 111.55 42.4648 111.69 42.4648C111.83 42.4648 111.94 42.5748 111.94 42.7148V101.685C111.94 101.825 111.83 101.935 111.69 101.935Z" fill="#07064E"></path>
</g>
<g id="Vector_8">
<path d="M125.595 70.3099C128.18 70.3099 130.275 68.2146 130.275 65.6299C130.275 63.0452 128.18 60.9499 125.595 60.9499C123.01 60.9499 120.915 63.0452 120.915 65.6299C120.915 68.2146 123.01 70.3099 125.595 70.3099Z" fill="#2BF5BA"></path>
<path d="M125.955 55.0348C128.54 55.0348 130.635 52.9395 130.635 50.3548C130.635 47.7701 128.54 45.6748 125.955 45.6748C123.37 45.6748 121.275 47.7701 121.275 50.3548C121.275 52.9395 123.37 55.0348 125.955 55.0348Z" fill="#2BF5BA"></path>
<path d="M125.775 100.855C128.36 100.855 130.455 98.7596 130.455 96.1749C130.455 93.5902 128.36 91.4949 125.775 91.4949C123.19 91.4949 121.095 93.5902 121.095 96.1749C121.095 98.7596 123.19 100.855 125.775 100.855Z" fill="#2BF5BA"></path>
<path d="M97.245 85.5798C99.8297 85.5798 101.925 83.4845 101.925 80.8998C101.925 78.3152 99.8297 76.2198 97.245 76.2198C94.6603 76.2198 92.565 78.3152 92.565 80.8998C92.565 83.4845 94.6603 85.5798 97.245 85.5798Z" fill="#2BF5BA"></path>
</g>
<g id="Vector_9">
<path d="M124.675 67.3899C124.675 67.3899 124.665 67.3899 124.655 67.3899C124.58 67.3849 124.515 67.3499 124.47 67.2899L123.29 65.6949C123.21 65.5849 123.23 65.4249 123.345 65.3449C123.46 65.2649 123.61 65.2849 123.695 65.3999L124.7 66.7649L127.515 63.9499C127.615 63.8499 127.77 63.8499 127.87 63.9499C127.97 64.0499 127.97 64.2049 127.87 64.3049L124.85 67.3249C124.805 67.3699 124.74 67.3999 124.675 67.3999V67.3899Z" fill="#07064E"></path>
<path d="M125.035 52.1149C125.035 52.1149 125.025 52.1149 125.015 52.1149C124.94 52.1099 124.875 52.0749 124.83 52.0149L123.65 50.4199C123.57 50.3099 123.59 50.1499 123.705 50.0699C123.82 49.9899 123.975 50.0099 124.055 50.1249L125.06 51.4899L127.875 48.6749C127.975 48.5749 128.13 48.5749 128.23 48.6749C128.33 48.7749 128.33 48.9299 128.23 49.0299L125.21 52.0499C125.165 52.0949 125.1 52.1249 125.035 52.1249V52.1149Z" fill="#07064E"></path>
<path d="M124.855 97.9349C124.855 97.9349 124.845 97.9349 124.835 97.9349C124.76 97.9299 124.695 97.8949 124.65 97.8349L123.47 96.2399C123.39 96.1299 123.41 95.9699 123.525 95.8899C123.635 95.8099 123.795 95.8299 123.875 95.9449L124.88 97.3099L127.695 94.4949C127.795 94.3949 127.95 94.3949 128.05 94.4949C128.15 94.5949 128.15 94.7499 128.05 94.8499L125.03 97.8699C124.985 97.9149 124.92 97.9449 124.855 97.9449V97.9349Z" fill="#07064E"></path>
<path d="M96.325 82.6649C96.325 82.6649 96.315 82.6649 96.305 82.6649C96.23 82.6599 96.165 82.6249 96.12 82.5649L94.94 80.9699C94.86 80.8599 94.88 80.6999 94.995 80.6199C95.105 80.5399 95.265 80.5599 95.345 80.6749L96.35 82.0399L99.165 79.2249C99.265 79.1249 99.42 79.1249 99.52 79.2249C99.62 79.3249 99.62 79.4799 99.52 79.5799L96.5 82.5999C96.455 82.6449 96.39 82.6749 96.325 82.6749V82.6649Z" fill="#07064E"></path>
</g>
<path id="Vector_10" d="M126.08 88.9499L104.125 72.0599L126.08 55.17C127.18 54.32 127.39 52.74 126.54 51.64C125.69 50.54 124.11 50.33 123.01 51.18L99.9999 68.8799L76.9899 51.18C75.8899 50.33 74.3099 50.54 73.4599 51.64C72.6099 52.74 72.8199 54.32 73.9199 55.17L95.8749 72.0599L73.9199 88.9499C72.8199 89.7999 72.6099 91.38 73.4599 92.48C74.3099 93.58 75.8899 93.79 76.9899 92.94L99.9999 75.24L123.01 92.94C124.11 93.79 125.69 93.58 126.54 92.48C127.39 91.38 127.18 89.7999 126.08 88.9499Z" fill="#DDDDDD"></path>
<path id="Vector_11" d="M124.545 91.335C123.765 91.335 123.025 91.085 122.4 90.605L100 73.37L77.6 90.605C76.98 91.085 76.24 91.335 75.455 91.335C74.355 91.335 73.335 90.835 72.665 89.965C71.48 88.43 71.77 86.215 73.31 85.035L94.23 68.94L73.31 52.845C71.775 51.665 71.485 49.45 72.665 47.915C73.335 47.04 74.355 46.54 75.455 46.54C76.235 46.54 76.975 46.79 77.595 47.27L99.995 64.505L122.395 47.27C123.015 46.795 123.755 46.54 124.535 46.54C125.635 46.54 126.65 47.04 127.325 47.91C128.51 49.445 128.22 51.66 126.685 52.845L105.76 68.94L126.68 85.035C128.215 86.22 128.505 88.43 127.325 89.965C126.655 90.835 125.635 91.335 124.535 91.335H124.545Z" fill="#FFB87E"></path>
</g>
</g>
</g>
</g>
<defs>
<clipPath id="clip0_70_4888">
<rect width="200" height="140" fill="white"></rect>
</clipPath>
</defs>
</svg>