<svg width="200" height="140" viewBox="0 0 200 140" fill="none" xmlns="http://www.w3.org/2000/svg">
<g id="illu_spot_interactive-video-conference/Default" clip-path="url(#clip0_77_64)">
<g id="illu_spot_interactive-video-conference">
<g id="background">
<path d="M12.685 31.5403C6.525 31.4553 1.93 27.2853 2.415 22.2303C2.9 17.1753 8.29 13.1503 14.45 13.2353C20.61 13.3203 25.205 17.4903 24.72 22.5453C24.235 27.6003 18.845 31.6253 12.685 31.5403Z" fill="#2BF5BA"></path>
<path d="M188.865 58.7553C192.389 58.7553 195.245 55.8989 195.245 52.3753C195.245 48.8517 192.389 45.9953 188.865 45.9953C185.341 45.9953 182.485 48.8517 182.485 52.3753C182.485 55.8989 185.341 58.7553 188.865 58.7553Z" fill="#2BF5BA"></path>
<path d="M190.5 37.0453C191.9 37.0453 193.035 35.9103 193.035 34.5103C193.035 33.1103 191.9 31.9753 190.5 31.9753C189.1 31.9753 187.965 33.1103 187.965 34.5103C187.965 35.9103 189.1 37.0453 190.5 37.0453Z" fill="#2BF5BA"></path>
<path d="M28.93 9.74531C28.205 11.1553 26.37 11.7653 24.83 11.1053C23.29 10.4453 22.625 8.77031 23.35 7.36031C24.075 5.95031 25.91 5.34031 27.45 6.00031C28.99 6.66031 29.655 8.33531 28.93 9.74531Z" fill="#2BF5BA"></path>
<path d="M38.885 136.325C0.505001 127.795 -3.19 76.5753 16.795 42.5853C42.55 -1.21469 96.265 2.89531 124.955 5.84031C157.765 9.20531 184.045 10.3653 179.19 37.9753C172.93 73.5853 196.875 58.9453 198.05 94.0503C198.685 112.96 182.065 126.995 151.405 128.445C74.48 132.085 76.05 144.585 38.88 136.325H38.885Z" fill="#2BF5BA"></path>
</g>
<g id="stroke">
<path id="Vector" d="M132.56 22.9697H67.44C65.03 22.9697 63.08 24.9197 63.08 27.3297V116.745C63.08 119.155 65.03 121.105 67.44 121.105H132.56C134.97 121.105 136.92 119.155 136.92 116.745V27.3297C136.92 24.9197 134.97 22.9697 132.56 22.9697Z" fill="#2AEDB4"></path>
<path id="Vector_2" d="M67.05 89.67V34.255C67.05 31.845 69 29.895 71.41 29.895H128.59C131 29.895 132.95 31.845 132.95 34.255V101.595C132.95 104.005 131 105.955 128.59 105.955H71.41C69 105.955 67.05 104.005 67.05 101.595V86.76" fill="white"></path>
<path id="Vector_3" d="M132.56 20.9302H67.44C65.03 20.9302 63.08 22.8802 63.08 25.2902V114.705C63.08 117.115 65.03 119.065 67.44 119.065H132.56C134.97 119.065 136.92 117.115 136.92 114.705V25.2902C136.92 22.8802 134.97 20.9302 132.56 20.9302ZM132.95 101.6C132.95 104.01 131 105.96 128.59 105.96H71.41C69 105.96 67.05 104.01 67.05 101.6V34.2602C67.05 31.8502 69 29.9002 71.41 29.9002H128.59C131 29.9002 132.95 31.8502 132.95 34.2602V101.6Z" fill="#EDEDED"></path>
<path id="Vector_4" d="M132.84 119.31H67.155C64.775 119.31 62.835 117.375 62.835 114.99V25.0099C62.835 22.6299 64.77 20.6899 67.155 20.6899H132.84C135.22 20.6899 137.16 22.6249 137.16 25.0099V114.99C137.16 117.37 135.225 119.31 132.84 119.31ZM67.16 21.1699C65.045 21.1699 63.32 22.8899 63.32 25.0099V114.99C63.32 117.105 65.04 118.83 67.16 118.83H132.845C134.96 118.83 136.685 117.11 136.685 114.99V25.0099C136.685 22.8949 134.965 21.1699 132.845 21.1699H67.16Z" fill="#07064E"></path>
<g id="Group">
<path id="Vector_5" d="M100 116.48C101.969 116.48 103.565 114.884 103.565 112.915C103.565 110.946 101.969 109.35 100 109.35C98.0311 109.35 96.435 110.946 96.435 112.915C96.435 114.884 98.0311 116.48 100 116.48Z" fill="white"></path>
<path id="Vector_6" d="M99.975 116.72C98.1 116.72 96.525 115.38 96.22 113.535C96.2 113.405 96.285 113.28 96.42 113.26C96.55 113.24 96.675 113.325 96.695 113.46C96.96 115.075 98.34 116.245 99.975 116.245C101.81 116.245 103.3 114.755 103.3 112.92C103.3 111.085 101.81 109.595 99.975 109.595C98.835 109.595 97.79 110.17 97.175 111.13C97.105 111.24 96.955 111.275 96.845 111.205C96.735 111.135 96.7 110.985 96.77 110.875C97.475 109.775 98.67 109.12 99.975 109.12C102.07 109.12 103.78 110.825 103.78 112.925C103.78 115.025 102.075 116.73 99.975 116.73V116.72Z" fill="#07064E"></path>
</g>
<g id="Group_2">
<path id="Vector_7" d="M107.6 26.0948H103.78C103.64 26.0948 103.53 25.9798 103.53 25.8398C103.53 25.6998 103.64 25.5898 103.78 25.5898H107.6C107.74 25.5898 107.85 25.7048 107.85 25.8448C107.85 25.9848 107.74 26.0948 107.6 26.0948Z" fill="white"></path>
<path id="Vector_8" d="M101.28 26.0796H92.4C92.27 26.0796 92.16 25.9746 92.16 25.8396C92.16 25.7046 92.265 25.5996 92.4 25.5996H101.28C101.41 25.5996 101.52 25.7046 101.52 25.8396C101.52 25.9746 101.415 26.0796 101.28 26.0796Z" fill="#07064E"></path>
</g>
<path id="Vector_9" d="M123.155 37.5552H76.74C74.2189 37.5552 72.175 39.599 72.175 42.1202V56.9002C72.175 59.4214 74.2189 61.4652 76.74 61.4652H123.155C125.676 61.4652 127.72 59.4214 127.72 56.9002V42.1202C127.72 39.599 125.676 37.5552 123.155 37.5552Z" fill="#EDEDED"></path>
<path id="Vector_10" d="M123.155 35.4302H76.74C74.2189 35.4302 72.175 37.474 72.175 39.9952V54.7752C72.175 57.2964 74.2189 59.3402 76.74 59.3402H123.155C125.676 59.3402 127.72 57.2964 127.72 54.7752V39.9952C127.72 37.474 125.676 35.4302 123.155 35.4302Z" fill="white"></path>
<g id="Vector_11">
<path d="M103.205 43.4698H101.785C100.775 43.4698 99.9551 44.2898 99.9551 45.2998V45.3348H99.1751V45.0298C99.1751 43.8348 98.2051 42.8648 97.0101 42.8648H91.2551C90.0601 42.8648 89.0901 43.8348 89.0901 45.0298V49.7348C89.0901 50.9298 90.0601 51.8998 91.2551 51.8998H97.0101C98.2051 51.8998 99.1751 50.9298 99.1751 49.7348V49.4298H99.9551V49.4648C99.9551 50.4748 100.775 51.2948 101.785 51.2948H103.205C103.335 51.2948 103.445 51.1898 103.445 51.0548V43.7048C103.445 43.5748 103.34 43.4648 103.205 43.4648V43.4698ZM98.6951 49.7398C98.6951 50.6698 97.9401 51.4248 97.0101 51.4248H91.2551C90.3251 51.4248 89.5701 50.6698 89.5701 49.7398V45.0348C89.5701 44.1048 90.3251 43.3498 91.2551 43.3498H97.0101C97.9401 43.3498 98.6951 44.1048 98.6951 45.0348V49.7398ZM99.1751 48.9548V45.8148H99.9551V48.9548H99.1751ZM102.965 50.8198H101.785C101.04 50.8198 100.435 50.2148 100.435 49.4698V45.2998C100.435 44.5548 101.04 43.9498 101.785 43.9498H102.965V50.8198Z" fill="#07064E"></path>
<path d="M108.025 52.9448C107.985 52.9448 107.95 52.9348 107.915 52.9148C107.8 52.8548 107.755 52.7098 107.815 52.5898C109.92 48.5948 109.92 45.9648 107.815 42.1698C107.75 42.0548 107.795 41.9098 107.91 41.8448C108.025 41.7798 108.17 41.8248 108.235 41.9398C110.435 45.9048 110.435 48.6448 108.235 52.8148C108.19 52.8948 108.11 52.9448 108.025 52.9448Z" fill="#07064E"></path>
<path d="M109.95 54.5748C109.9 54.5748 109.85 54.5598 109.805 54.5248C109.7 54.4448 109.68 54.2948 109.76 54.1898C112.75 50.2448 112.81 44.6448 109.905 40.5748C109.83 40.4648 109.855 40.3148 109.96 40.2398C110.07 40.1598 110.22 40.1898 110.295 40.2948C113.32 44.5348 113.26 50.3648 110.14 54.4748C110.095 54.5348 110.02 54.5698 109.95 54.5698V54.5748Z" fill="#07064E"></path>
<path d="M107.055 47.4348C106.925 47.4348 106.82 47.3298 106.815 47.1998C106.79 45.8648 106.65 45.1898 106.145 43.9248C106.095 43.7998 106.155 43.6648 106.28 43.6148C106.405 43.5648 106.54 43.6248 106.59 43.7498C107.12 45.0798 107.265 45.7898 107.295 47.1948C107.295 47.3248 107.19 47.4348 107.06 47.4398L107.055 47.4348Z" fill="#07064E"></path>
</g>
<path id="Vector_12" d="M106.365 51.1748C106.335 51.1748 106.305 51.1698 106.275 51.1598C106.15 51.1098 106.09 50.9698 106.14 50.8498C106.485 49.9898 106.6 49.5598 106.725 48.6598C106.745 48.5298 106.86 48.4398 106.995 48.4548C107.125 48.4748 107.215 48.5948 107.2 48.7248C107.07 49.6598 106.94 50.1348 106.585 51.0298C106.545 51.1248 106.455 51.1798 106.36 51.1798L106.365 51.1748Z" fill="#2BF5BA"></path>
<path id="Vector_13" d="M123.185 59.5901H76.705C74.07 59.5901 71.925 57.4451 71.925 54.8101V39.9651C71.925 37.3301 74.07 35.1851 76.705 35.1851H123.185C125.82 35.1851 127.965 37.3301 127.965 39.9651V54.8101C127.965 57.4451 125.82 59.5901 123.185 59.5901ZM76.705 35.6801C74.345 35.6801 72.425 37.6001 72.425 39.9601V54.8051C72.425 57.1651 74.345 59.0851 76.705 59.0851H123.185C125.545 59.0851 127.465 57.1651 127.465 54.8051V39.9601C127.465 37.6001 125.545 35.6801 123.185 35.6801H76.705Z" fill="#2BF5BA"></path>
<g id="Group_3">
<g id="Vector_14">
<path d="M125.095 63.3347H106.03C104.486 63.3347 103.235 64.5861 103.235 66.1297V78.0897C103.235 79.6334 104.486 80.8847 106.03 80.8847H125.095C126.639 80.8847 127.89 79.6334 127.89 78.0897V66.1297C127.89 64.5861 126.639 63.3347 125.095 63.3347Z" fill="#EDEDED"></path>
<path d="M125.095 83.9847H106.03C104.486 83.9847 103.235 85.2361 103.235 86.7797V98.7397C103.235 100.283 104.486 101.535 106.03 101.535H125.095C126.639 101.535 127.89 100.283 127.89 98.7397V86.7797C127.89 85.2361 126.639 83.9847 125.095 83.9847Z" fill="#EDEDED"></path>
<path d="M93.7101 83.9847H74.6451C73.1015 83.9847 71.8501 85.2361 71.8501 86.7797V98.7397C71.8501 100.283 73.1015 101.535 74.6451 101.535H93.7101C95.2537 101.535 96.5051 100.283 96.5051 98.7397V86.7797C96.5051 85.2361 95.2537 83.9847 93.7101 83.9847Z" fill="#EDEDED"></path>
<path d="M93.7101 63.1147H74.6451C73.1015 63.1147 71.8501 64.3661 71.8501 65.9097V77.8697C71.8501 79.4134 73.1015 80.6647 74.6451 80.6647H93.7101C95.2537 80.6647 96.5051 79.4134 96.5051 77.8697V65.9097C96.5051 64.3661 95.2537 63.1147 93.7101 63.1147Z" fill="#EDEDED"></path>
</g>
<g id="Vector_15">
<path d="M123.885 65.1546H107.245C106.256 65.1546 105.455 65.956 105.455 66.9446V77.2746C105.455 78.2632 106.256 79.0646 107.245 79.0646H123.885C124.874 79.0646 125.675 78.2632 125.675 77.2746V66.9446C125.675 65.956 124.874 65.1546 123.885 65.1546Z" fill="white"></path>
<path d="M123.885 85.8045H107.245C106.256 85.8045 105.455 86.6059 105.455 87.5945V97.9245C105.455 98.9131 106.256 99.7145 107.245 99.7145H123.885C124.874 99.7145 125.675 98.9131 125.675 97.9245V87.5945C125.675 86.6059 124.874 85.8045 123.885 85.8045Z" fill="white"></path>
<path d="M92.5 85.8045H75.86C74.8714 85.8045 74.07 86.6059 74.07 87.5945V97.9245C74.07 98.9131 74.8714 99.7145 75.86 99.7145H92.5C93.4886 99.7145 94.29 98.9131 94.29 97.9245V87.5945C94.29 86.6059 93.4886 85.8045 92.5 85.8045Z" fill="white"></path>
<path d="M92.5 64.9346H75.86C74.8714 64.9346 74.07 65.736 74.07 66.7246V77.0546C74.07 78.0432 74.8714 78.8446 75.86 78.8446H92.5C93.4886 78.8446 94.29 78.0432 94.29 77.0546V66.7246C94.29 65.736 93.4886 64.9346 92.5 64.9346Z" fill="white"></path>
</g>
</g>
<g id="Vector_16">
<path d="M84.1351 71.1048C85.2894 71.1048 86.2251 70.1691 86.2251 69.0148C86.2251 67.8605 85.2894 66.9248 84.1351 66.9248C82.9808 66.9248 82.0451 67.8605 82.0451 69.0148C82.0451 70.1691 82.9808 71.1048 84.1351 71.1048Z" fill="#07064E"></path>
<path d="M84.1351 72.0248C86.4751 72.0248 88.3701 73.9248 88.3701 76.2598V77.8498H79.9001V76.2598C79.9001 73.9198 81.8001 72.0248 84.1351 72.0248Z" fill="#07064E"></path>
</g>
<g id="Vector_17">
<path d="M84.1801 91.8148C85.3343 91.8148 86.2701 90.879 86.2701 89.7248C86.2701 88.5705 85.3343 87.6348 84.1801 87.6348C83.0258 87.6348 82.0901 88.5705 82.0901 89.7248C82.0901 90.879 83.0258 91.8148 84.1801 91.8148Z" fill="#2BF5BA"></path>
<path d="M84.1801 92.7348C86.5201 92.7348 88.4151 94.6348 88.4151 96.9698V98.5598H79.9451V96.9698C79.9451 94.6298 81.8451 92.7348 84.1801 92.7348Z" fill="#2BF5BA"></path>
</g>
<g id="Vector_18">
<path d="M115.295 91.7996C116.449 91.7996 117.385 90.8639 117.385 89.7096C117.385 88.5554 116.449 87.6196 115.295 87.6196C114.141 87.6196 113.205 88.5554 113.205 89.7096C113.205 90.8639 114.141 91.7996 115.295 91.7996Z" fill="#07064E"></path>
<path d="M115.295 92.7196C117.635 92.7196 119.53 94.6196 119.53 96.9546V98.5446H111.06V96.9546C111.06 94.6146 112.96 92.7196 115.295 92.7196Z" fill="#07064E"></path>
</g>
<g id="Vector_19">
<path d="M115.355 70.9696C116.509 70.9696 117.445 70.0338 117.445 68.8795C117.445 67.7253 116.509 66.7896 115.355 66.7896C114.201 66.7896 113.265 67.7253 113.265 68.8795C113.265 70.0338 114.201 70.9696 115.355 70.9696Z" fill="#2BF5BA"></path>
<path d="M115.355 71.8895C117.695 71.8895 119.59 73.7895 119.59 76.1245V77.7145H111.12V76.1245C111.12 73.7845 113.02 71.8895 115.355 71.8895Z" fill="#2BF5BA"></path>
</g>
<path id="Vector_20" d="M128.59 29.895H71.41C69 29.895 67.05 31.845 67.05 34.255V101.595V91.705V36.29C67.05 33.88 69 31.93 71.41 31.93H128.59C131 31.93 132.95 33.88 132.95 36.29V101.595V34.26C132.95 31.85 131 29.9 128.59 29.9V29.895Z" fill="#EDEDED"></path>
<path id="Vector_21" d="M128.59 106.2H71.41C68.875 106.2 66.81 104.135 66.81 101.6V34.2602C66.81 31.7252 68.875 29.6602 71.41 29.6602H128.59C131.125 29.6602 133.19 31.7252 133.19 34.2602V101.6C133.19 104.135 131.125 106.2 128.59 106.2ZM71.41 30.1352C69.14 30.1352 67.29 31.9852 67.29 34.2552V101.595C67.29 103.865 69.14 105.715 71.41 105.715H128.59C130.86 105.715 132.71 103.865 132.71 101.595V34.2602C132.71 31.9902 130.86 30.1402 128.59 30.1402H71.41V30.1352Z" fill="#07064E"></path>
</g>
</g>
</g>
<defs>
<clipPath id="clip0_77_64">
<rect width="200" height="140" fill="white"></rect>
</clipPath>
</defs>
</svg>