<svg width="200" height="140" viewBox="0 0 200 140" fill="none" xmlns="http://www.w3.org/2000/svg">
<g id="illu_spot_agenda-no-visible/Default" clip-path="url(#clip0_70_4863)">
<g id="illu_spot_agenda-no-visible">
<g id="background">
<path d="M38.66 136.325C0.285027 127.795 -5.48497 90.785 14.5 56.79C40.25 12.99 71.27 4.51999 102.51 2.86999C135.45 1.12999 165.995 4.23499 161.14 31.845C154.88 67.455 196.65 58.945 197.83 94.05C198.465 112.96 177.2 122.925 146.795 118.715C61.975 106.97 75.835 144.585 38.665 136.325H38.66Z" fill="#2BF5BA"></path>
<path d="M12.46 31.54C6.30003 31.455 1.70503 27.285 2.19003 22.23C2.67503 17.175 8.06503 13.15 14.225 13.235C20.385 13.32 24.98 17.49 24.495 22.545C24.01 27.6 18.62 31.625 12.46 31.54Z" fill="#2BF5BA"></path>
<path d="M28.71 9.74499C27.985 11.155 26.15 11.765 24.61 11.105C23.07 10.445 22.405 8.76999 23.13 7.35999C23.855 5.95 25.69 5.33999 27.23 5.99999C28.77 6.65999 29.435 8.33499 28.71 9.74499Z" fill="#2BF5BA"></path>
</g>
<g id="illu_spot_agenda-no-visible_2">
<g id="stroke">
<path id="Vector" d="M141.085 32.135H58.915C55.6013 32.135 52.915 34.8213 52.915 38.135V104.27C52.915 107.584 55.6013 110.27 58.915 110.27H141.085C144.399 110.27 147.085 107.584 147.085 104.27V38.135C147.085 34.8213 144.399 32.135 141.085 32.135Z" fill="#2AEDB4"></path>
<path id="Vector_2" d="M141.085 30.01H58.915C55.6013 30.01 52.915 32.6963 52.915 36.01V102.145C52.915 105.459 55.6013 108.145 58.915 108.145H141.085C144.399 108.145 147.085 105.459 147.085 102.145V36.01C147.085 32.6963 144.399 30.01 141.085 30.01Z" fill="white"></path>
<path id="Vector_3" d="M57.445 29.73H142.55C145.05 29.73 147.08 31.76 147.08 34.26V41.02H52.915V34.26C52.915 31.76 54.945 29.73 57.445 29.73Z" fill="#07064E"></path>
<path id="Vector_4" d="M129.63 38.135C131.154 38.135 132.39 36.8993 132.39 35.375C132.39 33.8507 131.154 32.615 129.63 32.615C128.106 32.615 126.87 33.8507 126.87 35.375C126.87 36.8993 128.106 38.135 129.63 38.135Z" fill="white"></path>
<path id="Vector_5" d="M137.63 38.135C139.154 38.135 140.39 36.8993 140.39 35.375C140.39 33.8507 139.154 32.615 137.63 32.615C136.106 32.615 134.87 33.8507 134.87 35.375C134.87 36.8993 136.106 38.135 137.63 38.135Z" fill="#2BF5BA"></path>
<g id="Vector_6">
<path d="M76.47 90.3549H61.345C59.9864 90.3549 58.885 91.4563 58.885 92.8149V98.3949C58.885 99.7535 59.9864 100.855 61.345 100.855H76.47C77.8286 100.855 78.93 99.7535 78.93 98.3949V92.8149C78.93 91.4563 77.8286 90.3549 76.47 90.3549Z" fill="#EDEDED"></path>
<path d="M76.47 75.6499H61.345C59.9864 75.6499 58.885 76.7513 58.885 78.1099V83.6899C58.885 85.0485 59.9864 86.1499 61.345 86.1499H76.47C77.8286 86.1499 78.93 85.0485 78.93 83.6899V78.1099C78.93 76.7513 77.8286 75.6499 76.47 75.6499Z" fill="#EDEDED"></path>
<path d="M76.47 60.9499H61.345C59.9864 60.9499 58.885 62.0513 58.885 63.4099V68.9899C58.885 70.3485 59.9864 71.4499 61.345 71.4499H76.47C77.8286 71.4499 78.93 70.3485 78.93 68.9899V63.4099C78.93 62.0513 77.8286 60.9499 76.47 60.9499Z" fill="#EDEDED"></path>
<path d="M76.47 46.2449H61.345C59.9864 46.2449 58.885 47.3463 58.885 48.7049V54.2849C58.885 55.6435 59.9864 56.7449 61.345 56.7449H76.47C77.8286 56.7449 78.93 55.6435 78.93 54.2849V48.7049C78.93 47.3463 77.8286 46.2449 76.47 46.2449Z" fill="#EDEDED"></path>
</g>
<g id="Vector_7">
<path d="M137.735 58.2401H83.525C83.385 58.2401 83.275 58.1301 83.275 57.9901C83.275 57.8501 83.385 57.7401 83.525 57.7401H137.735C137.875 57.7401 137.985 57.8501 137.985 57.9901C137.985 58.1301 137.875 58.2401 137.735 58.2401Z" fill="#07064E"></path>
<path d="M137.735 73.5151H83.525C83.385 73.5151 83.275 73.4051 83.275 73.2651C83.275 73.1251 83.385 73.0151 83.525 73.0151H137.735C137.875 73.0151 137.985 73.1251 137.985 73.2651C137.985 73.4051 137.875 73.5151 137.735 73.5151Z" fill="#07064E"></path>
<path d="M137.735 88.7901H83.525C83.385 88.7901 83.275 88.6801 83.275 88.5401C83.275 88.4001 83.385 88.2901 83.525 88.2901H137.735C137.875 88.2901 137.985 88.4001 137.985 88.5401C137.985 88.6801 137.875 88.7901 137.735 88.7901Z" fill="#07064E"></path>
<path d="M83.52 101.935C83.38 101.935 83.27 101.825 83.27 101.685V42.7151C83.27 42.5751 83.38 42.4651 83.52 42.4651C83.66 42.4651 83.77 42.5751 83.77 42.7151V101.685C83.77 101.825 83.66 101.935 83.52 101.935Z" fill="#07064E"></path>
<path d="M111.69 101.935C111.55 101.935 111.44 101.825 111.44 101.685V42.7151C111.44 42.5751 111.55 42.4651 111.69 42.4651C111.83 42.4651 111.94 42.5751 111.94 42.7151V101.685C111.94 101.825 111.83 101.935 111.69 101.935Z" fill="#07064E"></path>
</g>
<g id="Vector_8">
<path d="M125.595 70.31C128.18 70.31 130.275 68.2147 130.275 65.63C130.275 63.0454 128.18 60.9501 125.595 60.9501C123.01 60.9501 120.915 63.0454 120.915 65.63C120.915 68.2147 123.01 70.31 125.595 70.31Z" fill="#2BF5BA"></path>
<path d="M125.955 55.035C128.54 55.035 130.635 52.9397 130.635 50.355C130.635 47.7704 128.54 45.675 125.955 45.675C123.37 45.675 121.275 47.7704 121.275 50.355C121.275 52.9397 123.37 55.035 125.955 55.035Z" fill="#2BF5BA"></path>
<path d="M125.775 100.855C128.36 100.855 130.455 98.7597 130.455 96.1751C130.455 93.5904 128.36 91.4951 125.775 91.4951C123.19 91.4951 121.095 93.5904 121.095 96.1751C121.095 98.7597 123.19 100.855 125.775 100.855Z" fill="#2BF5BA"></path>
<path d="M97.2451 85.58C99.8298 85.58 101.925 83.4847 101.925 80.9C101.925 78.3153 99.8298 76.22 97.2451 76.22C94.6604 76.22 92.5651 78.3153 92.5651 80.9C92.5651 83.4847 94.6604 85.58 97.2451 85.58Z" fill="#2BF5BA"></path>
</g>
<g id="Vector_9">
<path d="M124.675 67.3901C124.675 67.3901 124.665 67.3901 124.655 67.3901C124.58 67.3851 124.515 67.3501 124.47 67.2901L123.29 65.6951C123.21 65.5851 123.23 65.4251 123.345 65.3451C123.46 65.2651 123.61 65.2851 123.695 65.4001L124.7 66.7651L127.515 63.9501C127.615 63.8501 127.77 63.8501 127.87 63.9501C127.97 64.0501 127.97 64.2051 127.87 64.3051L124.85 67.3251C124.805 67.3701 124.74 67.4001 124.675 67.4001V67.3901Z" fill="#07064E"></path>
<path d="M125.035 52.1151C125.035 52.1151 125.025 52.1151 125.015 52.1151C124.94 52.1101 124.875 52.0751 124.83 52.0151L123.65 50.4201C123.57 50.3101 123.59 50.1501 123.705 50.0701C123.82 49.9901 123.975 50.0101 124.055 50.1251L125.06 51.4901L127.875 48.6751C127.975 48.5751 128.13 48.5751 128.23 48.6751C128.33 48.7751 128.33 48.9301 128.23 49.0301L125.21 52.0501C125.165 52.0951 125.1 52.1251 125.035 52.1251V52.1151Z" fill="#07064E"></path>
<path d="M124.855 97.9351C124.855 97.9351 124.845 97.9351 124.835 97.9351C124.76 97.9301 124.695 97.8951 124.65 97.8351L123.47 96.2401C123.39 96.1301 123.41 95.9701 123.525 95.8901C123.635 95.8101 123.795 95.8301 123.875 95.9451L124.88 97.3101L127.695 94.4951C127.795 94.3951 127.95 94.3951 128.05 94.4951C128.15 94.5951 128.15 94.7501 128.05 94.8501L125.03 97.8701C124.985 97.9151 124.92 97.9451 124.855 97.9451V97.9351Z" fill="#07064E"></path>
<path d="M96.325 82.6651C96.325 82.6651 96.315 82.6651 96.305 82.6651C96.23 82.6601 96.165 82.6251 96.12 82.5651L94.94 80.9701C94.86 80.8601 94.88 80.7001 94.995 80.6201C95.105 80.5401 95.265 80.5601 95.345 80.6751L96.35 82.0401L99.165 79.2251C99.265 79.1251 99.42 79.1251 99.52 79.2251C99.62 79.3251 99.62 79.4801 99.52 79.5801L96.5 82.6001C96.455 82.6451 96.39 82.6751 96.325 82.6751V82.6651Z" fill="#07064E"></path>
</g>
<path id="Vector_10" d="M140.5 95.5698L107.19 69.9448L140.5 44.3198C142.17 43.0348 142.485 40.6348 141.2 38.9648C139.915 37.2948 137.515 36.9798 135.845 38.2648L100.925 65.1248L66.0051 38.2648C64.3351 36.9798 61.9351 37.2898 60.6501 38.9648C59.3651 40.6348 59.6751 43.0348 61.3501 44.3198L94.6601 69.9448L61.3501 95.5698C59.6801 96.8548 59.3651 99.2548 60.6501 100.925C61.9351 102.595 64.3351 102.91 66.0051 101.625L100.925 74.7648L135.845 101.625C137.515 102.91 139.915 102.6 141.2 100.925C142.485 99.2548 142.175 96.8548 140.5 95.5698Z" fill="#EDEDED"></path>
<path id="Vector_11" d="M140.5 93.4448L107.19 67.8198L140.5 42.1948C142.17 40.9098 142.485 38.5098 141.2 36.8398C139.915 35.1698 137.515 34.8548 135.845 36.1398L100.925 62.9998L66.0051 36.1398C64.3351 34.8548 61.9351 35.1648 60.6501 36.8398C59.3651 38.5098 59.6751 40.9098 61.3501 42.1948L94.6601 67.8198L61.3501 93.4448C59.6801 94.7298 59.3651 97.1298 60.6501 98.7998C61.9351 100.47 64.3351 100.785 66.0051 99.4998L100.925 72.6398L135.845 99.4998C137.515 100.785 139.915 100.475 141.2 98.7998C142.485 97.1298 142.175 94.7298 140.5 93.4448Z" fill="#FFB87E"></path>
</g>
</g>
</g>
</g>
<defs>
<clipPath id="clip0_70_4863">
<rect width="200" height="140" fill="white"></rect>
</clipPath>
</defs>
</svg>