<svg width="200" height="140" viewBox="0 0 200 140" fill="none" xmlns="http://www.w3.org/2000/svg">
<g id="illu_spot_forum/Default" clip-path="url(#clip0_70_5261)">
<g id="illu_spot_forum">
<g id="background">
<path d="M15.6351 19.0851C11.8101 21.8351 7.08506 21.3651 5.08506 18.0351C3.08506 14.7051 4.56506 9.77512 8.39506 7.03012C12.2201 4.28012 16.9451 4.75012 18.9451 8.08012C20.9451 11.4101 19.4651 16.3401 15.6351 19.0851Z" fill="#2BF5BA"></path>
<path d="M183.875 41.0901C187.399 41.0901 190.255 38.2337 190.255 34.7101C190.255 31.1865 187.399 28.3301 183.875 28.3301C180.351 28.3301 177.495 31.1865 177.495 34.7101C177.495 38.2337 180.351 41.0901 183.875 41.0901Z" fill="#2BF5BA"></path>
<path d="M31.2601 115.05C17.0701 101.6 11.1201 85.7051 9.34506 80.4451C5.51506 69.1051 -0.114944 51.6801 7.78006 35.4201C17.4701 15.4701 41.2451 9.91512 52.4151 7.30512C61.6251 5.15512 79.5851 0.625116 110.975 10.7801C142.355 20.9351 171.825 12.7851 172.215 45.1301C172.65 81.2801 193.33 59.7801 194.51 94.8851C194.555 96.2151 194.305 103.895 190.93 110.355C184.715 122.235 169.64 126.28 158.045 128.55C114.87 137.01 64.7901 146.82 31.2601 115.05Z" fill="#2BF5BA"></path>
<path d="M180.03 55.6851C181.43 55.6851 182.565 54.5502 182.565 53.1501C182.565 51.7501 181.43 50.6151 180.03 50.6151C178.63 50.6151 177.495 51.7501 177.495 53.1501C177.495 54.5502 178.63 55.6851 180.03 55.6851Z" fill="#2BF5BA"></path>
</g>
<g id="illu_spot_forum_2">
<g id="stroke">
<path id="Vector" d="M126.465 117.945H66.2951C64.0701 117.945 62.2651 116.14 62.2651 113.915V117.265C62.2651 119.49 64.0701 121.295 66.2951 121.295H126.465C128.69 121.295 130.495 119.49 130.495 117.265V113.92C130.495 116.145 128.69 117.945 126.465 117.945Z" fill="#2AEDB4"></path>
<path id="Vector_2" d="M65.9351 90.7852V39.5852C65.9351 37.3602 67.7401 35.5552 69.9651 35.5552H122.8C125.025 35.5552 126.83 37.3602 126.83 39.5852V101.805C126.83 104.03 125.025 105.835 122.8 105.835H69.9651C67.7401 105.835 65.9351 104.03 65.9351 101.805V88.0952" fill="white"></path>
<path id="Vector_3" d="M126.465 27.2701H66.2951C64.0701 27.2701 62.2651 29.0751 62.2651 31.3001V113.92C62.2651 116.145 64.0701 117.95 66.2951 117.95H126.465C128.69 117.95 130.495 116.145 130.495 113.92V31.2951C130.495 29.0701 128.69 27.2651 126.465 27.2651V27.2701ZM126.825 101.805C126.825 104.03 125.02 105.835 122.795 105.835H69.9601C67.7351 105.835 65.9301 104.03 65.9301 101.805V39.5851C65.9301 37.3601 67.7351 35.5551 69.9601 35.5551H122.795C125.02 35.5551 126.825 37.3601 126.825 39.5851V101.805Z" fill="#EDEDED"></path>
<path id="Vector_4" d="M126.465 118.195H66.2951C63.9351 118.195 62.0151 116.275 62.0151 113.915V31.2951C62.0151 28.9351 63.9351 27.0151 66.2951 27.0151H126.465C128.825 27.0151 130.745 28.9351 130.745 31.2951V113.915C130.745 116.275 128.825 118.195 126.465 118.195ZM66.2951 27.5201C64.2101 27.5201 62.5151 29.2151 62.5151 31.3001V113.92C62.5151 116.005 64.2101 117.7 66.2951 117.7H126.465C128.55 117.7 130.245 116.005 130.245 113.92V31.2951C130.245 29.2101 128.55 27.5151 126.465 27.5151H66.2951V27.5201Z" fill="#07064E"></path>
<path id="Vector_5" d="M96.3801 115.555C98.1999 115.555 99.6751 114.08 99.6751 112.26C99.6751 110.441 98.1999 108.965 96.3801 108.965C94.5603 108.965 93.0851 110.441 93.0851 112.26C93.0851 114.08 94.5603 115.555 96.3801 115.555Z" fill="white"></path>
<path id="Vector_6" d="M96.3601 115.805C94.6151 115.805 93.1451 114.555 92.8651 112.835C92.8451 112.7 92.9351 112.57 93.0701 112.55C93.2051 112.53 93.3351 112.62 93.3551 112.755C93.5951 114.23 94.8601 115.305 96.3601 115.305C98.0401 115.305 99.4051 113.94 99.4051 112.26C99.4051 110.58 98.0401 109.22 96.3601 109.22C95.3151 109.22 94.3601 109.745 93.7951 110.625C93.7201 110.74 93.5651 110.775 93.4501 110.7C93.3351 110.625 93.3001 110.47 93.3751 110.355C94.0301 109.33 95.1451 108.72 96.3601 108.72C98.3151 108.72 99.9051 110.31 99.9051 112.26C99.9051 114.21 98.3151 115.805 96.3601 115.805Z" fill="#07064E"></path>
<path id="Vector_7" d="M103.4 32.0553H99.8701C99.7301 32.0553 99.6201 31.9403 99.6201 31.8003C99.6201 31.6603 99.7301 31.5503 99.8701 31.5503H103.4C103.54 31.5503 103.65 31.6653 103.65 31.8053C103.65 31.9453 103.54 32.0553 103.4 32.0553Z" fill="white"></path>
<path id="Vector_8" d="M97.5651 32.0552H89.3601C89.2201 32.0552 89.1101 31.9452 89.1101 31.8052C89.1101 31.6652 89.2201 31.5552 89.3601 31.5552H97.5651C97.7051 31.5552 97.8151 31.6652 97.8151 31.8052C97.8151 31.9452 97.7051 32.0552 97.5651 32.0552Z" fill="#07064E"></path>
<path id="Vector_9" d="M122.795 35.5552H69.9601C67.7351 35.5552 65.9301 37.3602 65.9301 39.5852V101.805V92.9102V41.7102C65.9301 39.4852 67.7351 37.6802 69.9601 37.6802H122.795C125.02 37.6802 126.825 39.4852 126.825 41.7102V101.81V39.5902C126.825 37.3652 125.02 35.5602 122.795 35.5602V35.5552Z" fill="#EDEDED"></path>
<path id="Vector_10" d="M122.795 106.085H69.9601C67.6001 106.085 65.6801 104.165 65.6801 101.805V39.5852C65.6801 37.2252 67.6001 35.3052 69.9601 35.3052H122.795C125.155 35.3052 127.075 37.2252 127.075 39.5852V101.805C127.075 104.165 125.155 106.085 122.795 106.085ZM69.965 35.8052C67.88 35.8052 66.1851 37.5002 66.1851 39.5852V101.805C66.1851 103.89 67.88 105.585 69.965 105.585H122.8C124.885 105.585 126.58 103.89 126.58 101.805V39.5852C126.58 37.5002 124.885 35.8052 122.8 35.8052H69.965Z" fill="#07064E"></path>
<g id="Vector_11">
<path d="M81.105 81.4951H75.54C74.4355 81.4951 73.54 82.3905 73.54 83.4951V89.0601C73.54 90.1647 74.4355 91.0601 75.54 91.0601H81.105C82.2096 91.0601 83.105 90.1647 83.105 89.0601V83.4951C83.105 82.3905 82.2096 81.4951 81.105 81.4951Z" fill="#EDEDED"></path>
<path d="M118.865 83.0401H86.385C85.9046 83.0401 85.515 83.4296 85.515 83.9101V84.3551C85.515 84.8356 85.9046 85.2251 86.385 85.2251H118.865C119.346 85.2251 119.735 84.8356 119.735 84.3551V83.9101C119.735 83.4296 119.346 83.0401 118.865 83.0401Z" fill="#EDEDED"></path>
<path d="M118.865 87.3351H86.385C85.9046 87.3351 85.515 87.7246 85.515 88.2051V88.6501C85.515 89.1306 85.9046 89.5201 86.385 89.5201H118.865C119.346 89.5201 119.735 89.1306 119.735 88.6501V88.2051C119.735 87.7246 119.346 87.3351 118.865 87.3351Z" fill="#EDEDED"></path>
</g>
<g id="Vector_12">
<path d="M81.105 42.5449H75.54C74.4355 42.5449 73.54 43.4404 73.54 44.5449V50.1099C73.54 51.2145 74.4355 52.1099 75.54 52.1099H81.105C82.2096 52.1099 83.105 51.2145 83.105 50.1099V44.5449C83.105 43.4404 82.2096 42.5449 81.105 42.5449Z" fill="#2BF5BA"></path>
<path d="M118.865 44.0849H86.385C85.9046 44.0849 85.515 44.4744 85.515 44.9549V45.3999C85.515 45.8804 85.9046 46.2699 86.385 46.2699H118.865C119.346 46.2699 119.735 45.8804 119.735 45.3999V44.9549C119.735 44.4744 119.346 44.0849 118.865 44.0849Z" fill="#2BF5BA"></path>
<path d="M118.865 48.3849H86.385C85.9046 48.3849 85.515 48.7744 85.515 49.2549V49.6999C85.515 50.1804 85.9046 50.5699 86.385 50.5699H118.865C119.346 50.5699 119.735 50.1804 119.735 49.6999V49.2549C119.735 48.7744 119.346 48.3849 118.865 48.3849Z" fill="#2BF5BA"></path>
</g>
<path id="Vector_13" d="M78.0051 49.975C77.8401 49.975 77.6851 49.895 77.5951 49.76L76.3201 47.905C76.1651 47.68 76.2201 47.365 76.4501 47.21C76.6801 47.055 76.9901 47.11 77.1451 47.34L77.9151 48.46L79.4651 44.975C79.5751 44.725 79.8751 44.61 80.1251 44.72C80.3751 44.83 80.4901 45.13 80.3801 45.38L78.4651 49.68C78.3901 49.845 78.2351 49.96 78.0551 49.975C78.0401 49.975 78.0251 49.975 78.0101 49.975H78.0051Z" fill="#07064E"></path>
<g id="Vector_14">
<path d="M81.105 55.1948H75.54C74.4355 55.1948 73.54 56.0903 73.54 57.1948V62.7598C73.54 63.8644 74.4355 64.7598 75.54 64.7598H81.105C82.2096 64.7598 83.105 63.8644 83.105 62.7598V57.1948C83.105 56.0903 82.2096 55.1948 81.105 55.1948Z" fill="#2BF5BA"></path>
<path d="M118.865 56.7348H86.385C85.9046 56.7348 85.515 57.1243 85.515 57.6048V58.0498C85.515 58.5303 85.9046 58.9198 86.385 58.9198H118.865C119.346 58.9198 119.735 58.5303 119.735 58.0498V57.6048C119.735 57.1243 119.346 56.7348 118.865 56.7348Z" fill="#2BF5BA"></path>
<path d="M118.865 61.0348H86.385C85.9046 61.0348 85.515 61.4243 85.515 61.9048V62.3498C85.515 62.8303 85.9046 63.2198 86.385 63.2198H118.865C119.346 63.2198 119.735 62.8303 119.735 62.3498V61.9048C119.735 61.4243 119.346 61.0348 118.865 61.0348Z" fill="#2BF5BA"></path>
</g>
<path id="Vector_15" d="M78.0051 62.6303C77.8401 62.6303 77.6851 62.5503 77.5951 62.4153L76.3201 60.5603C76.1651 60.3353 76.2201 60.0203 76.4501 59.8653C76.6751 59.7103 76.9901 59.7652 77.1451 59.9952L77.9151 61.1153L79.4651 57.6303C79.5751 57.3803 79.8751 57.2653 80.1251 57.3753C80.3751 57.4853 80.4901 57.7853 80.3801 58.0353L78.4651 62.3352C78.3901 62.5002 78.2351 62.6153 78.0551 62.6303C78.0401 62.6303 78.0251 62.6303 78.0101 62.6303H78.0051Z" fill="#07064E"></path>
<g id="Vector_16">
<path d="M81.105 68.3447H75.54C74.4355 68.3447 73.54 69.2402 73.54 70.3447V75.9097C73.54 77.0143 74.4355 77.9097 75.54 77.9097H81.105C82.2096 77.9097 83.105 77.0143 83.105 75.9097V70.3447C83.105 69.2402 82.2096 68.3447 81.105 68.3447Z" fill="#2BF5BA"></path>
<path d="M118.865 69.8895H86.385C85.9045 69.8895 85.515 70.279 85.515 70.7595V71.2045C85.515 71.685 85.9045 72.0745 86.385 72.0745H118.865C119.345 72.0745 119.735 71.685 119.735 71.2045V70.7595C119.735 70.279 119.345 69.8895 118.865 69.8895Z" fill="#2BF5BA"></path>
<path d="M118.865 74.1845H86.385C85.9045 74.1845 85.515 74.574 85.515 75.0545V75.4995C85.515 75.98 85.9045 76.3695 86.385 76.3695H118.865C119.345 76.3695 119.735 75.98 119.735 75.4995V75.0545C119.735 74.574 119.345 74.1845 118.865 74.1845Z" fill="#2BF5BA"></path>
</g>
<path id="Vector_17" d="M78.0051 75.7802C77.8401 75.7802 77.6851 75.7002 77.5951 75.5652L76.3201 73.7102C76.1651 73.4852 76.2201 73.1702 76.4501 73.0152C76.6801 72.8602 76.9901 72.9151 77.1451 73.1451L77.9151 74.2652L79.4651 70.7802C79.5751 70.5302 79.8751 70.4152 80.1251 70.5252C80.3751 70.6352 80.4901 70.9351 80.3801 71.1851L78.4651 75.4852C78.3901 75.6502 78.2351 75.7652 78.0551 75.7802C78.0401 75.7802 78.0251 75.7802 78.0101 75.7802H78.0051Z" fill="#07064E"></path>
<g id="Vector_18">
<path d="M97.505 95.78C98.3528 95.78 99.04 95.0927 99.04 94.245C99.04 93.3972 98.3528 92.71 97.505 92.71C96.6573 92.71 95.97 93.3972 95.97 94.245C95.97 95.0927 96.6573 95.78 97.505 95.78Z" fill="#07064E"></path>
<path d="M97.5128 96.4508C99.2328 96.4487 100.63 97.842 100.632 99.5619L100.633 100.732L94.408 100.74L94.4066 99.5696C94.4045 97.8496 95.7978 96.4529 97.5178 96.4508L97.5128 96.4508Z" fill="#07064E"></path>
<path d="M104.455 95.36C104.505 95.015 104.6 94.71 104.745 94.445C104.89 94.185 105.065 93.965 105.285 93.79C105.5 93.615 105.745 93.485 106.025 93.395C106.305 93.305 106.605 93.265 106.92 93.265C107.235 93.265 107.555 93.31 107.825 93.41C108.095 93.505 108.32 93.635 108.515 93.805C108.705 93.975 108.85 94.17 108.955 94.395C109.055 94.62 109.105 94.865 109.105 95.13C109.105 95.36 109.08 95.56 109.025 95.735C108.975 95.91 108.9 96.065 108.8 96.195C108.7 96.325 108.585 96.435 108.44 96.525C108.295 96.615 108.135 96.69 107.955 96.75C108.39 96.885 108.71 97.095 108.925 97.375C109.14 97.655 109.245 98.005 109.245 98.43C109.245 98.79 109.18 99.11 109.045 99.385C108.91 99.66 108.73 99.895 108.505 100.08C108.28 100.27 108.015 100.41 107.72 100.51C107.42 100.605 107.105 100.655 106.77 100.655C106.405 100.655 106.09 100.615 105.82 100.53C105.55 100.445 105.315 100.325 105.115 100.16C104.915 99.995 104.745 99.795 104.605 99.56C104.465 99.325 104.345 99.05 104.245 98.74L104.79 98.515C104.935 98.455 105.065 98.44 105.19 98.47C105.315 98.5 105.405 98.565 105.46 98.675C105.52 98.79 105.585 98.905 105.66 99.02C105.735 99.135 105.815 99.235 105.915 99.325C106.015 99.415 106.135 99.485 106.27 99.54C106.405 99.595 106.565 99.625 106.75 99.625C106.96 99.625 107.145 99.59 107.3 99.52C107.455 99.45 107.59 99.36 107.695 99.25C107.8 99.14 107.88 99.02 107.93 98.885C107.98 98.75 108.01 98.615 108.01 98.475C108.01 98.3 107.99 98.145 107.955 98C107.92 97.86 107.84 97.74 107.725 97.64C107.61 97.54 107.44 97.46 107.225 97.405C107.01 97.35 106.715 97.32 106.35 97.32V96.44C106.655 96.44 106.905 96.41 107.105 96.355C107.305 96.3 107.465 96.23 107.585 96.135C107.705 96.04 107.785 95.925 107.835 95.79C107.88 95.655 107.905 95.51 107.905 95.35C107.905 95.01 107.81 94.75 107.62 94.575C107.43 94.4 107.175 94.31 106.86 94.31C106.715 94.31 106.58 94.33 106.455 94.37C106.33 94.41 106.22 94.47 106.12 94.545C106.02 94.62 105.94 94.71 105.875 94.81C105.81 94.91 105.76 95.02 105.725 95.14C105.67 95.295 105.595 95.395 105.505 95.445C105.415 95.495 105.285 95.505 105.115 95.48L104.465 95.365L104.455 95.36Z" fill="#07064E"></path>
<path d="M111.185 100.59C111.13 100.745 111.035 100.86 110.91 100.935C110.785 101.01 110.66 101.05 110.53 101.05H110.005L112.925 93.58C112.98 93.44 113.06 93.33 113.17 93.26C113.28 93.185 113.41 93.145 113.555 93.145H114.085L111.185 100.59Z" fill="#07064E"></path>
<path d="M119.32 98.565C119.32 98.63 119.3 98.69 119.255 98.735C119.21 98.78 119.15 98.805 119.07 98.805H118.41V100.57H117.335V98.805H114.285C114.2 98.805 114.13 98.78 114.065 98.73C114 98.68 113.96 98.615 113.945 98.535L113.815 97.91L117.24 93.335H118.41V97.845H119.32V98.565ZM117.335 97.85V95.485C117.335 95.26 117.35 95.015 117.38 94.745L115.135 97.85H117.335Z" fill="#07064E"></path>
</g>
</g>
</g>
</g>
</g>
<defs>
<clipPath id="clip0_70_5261">
<rect width="200" height="140" fill="white"></rect>
</clipPath>
</defs>
</svg>