<svg width="200" height="140" viewBox="0 0 200 140" fill="none" xmlns="http://www.w3.org/2000/svg">
<g id="illu_spot_add-participants-SMS/Default" clip-path="url(#clip0_70_5317)">
<g id="illu_spot_add-participants-SMS">
<g id="background">
<path d="M4.64497 61.6246C4.06997 59.1396 5.97497 56.4646 8.89997 55.6596C11.83 54.8496 14.67 56.2146 15.245 58.6996C15.82 61.1846 13.915 63.8596 10.99 64.6646C8.05997 65.4746 5.21997 64.1096 4.64497 61.6246Z" fill="#2BF5BA"></path>
<path d="M183.45 10.5096C211.095 29.8396 195.835 95.4546 148.67 125.29C116.53 145.625 57.425 131.19 41.96 128.165C5.89497 121.12 -4.11003 97.7996 13.935 74.6196C40.335 40.7196 3.54497 61.4246 2.80497 28.9596C2.34497 8.77464 24.625 2.11464 54.155 8.07964C122.84 21.9546 156.21 -8.53536 183.45 10.5096Z" fill="#2BF5BA"></path>
<path d="M195.887 120.119C196.904 117.662 194.761 114.442 191.1 112.926C187.438 111.41 183.646 112.173 182.628 114.63C181.611 117.087 183.755 120.308 187.416 121.824C191.077 123.339 194.87 122.576 195.887 120.119Z" fill="#2BF5BA"></path>
<path d="M165.966 131.757C167.222 130.817 167.642 129.256 166.905 128.27C166.167 127.284 164.551 127.246 163.295 128.186C162.039 129.125 161.619 130.686 162.356 131.673C163.094 132.659 164.71 132.697 165.966 131.757Z" fill="#2BF5BA"></path>
</g>
<g id="illu_spot_add-participants-SMS_2">
<g id="stroke">
<path id="Vector" d="M155.715 36.3599H123.31C120.96 36.3599 119.06 38.2649 119.06 40.6099V111.345C119.06 113.695 120.965 115.595 123.31 115.595H155.715C158.065 115.595 159.965 113.69 159.965 111.345V40.6099C159.965 38.2599 158.06 36.3599 155.715 36.3599ZM156.97 100.195C156.97 102.545 155.065 104.445 152.72 104.445H126.315C123.965 104.445 122.065 102.54 122.065 100.195V48.2399C122.065 45.8899 123.97 43.9899 126.315 43.9899H152.72C155.07 43.9899 156.97 45.8949 156.97 48.2399V100.195Z" fill="#2AEDB4"></path>
<path id="Vector_2" d="M155.715 34.2295H123.31C120.96 34.2295 119.06 36.1345 119.06 38.4795V109.214C119.06 111.564 120.965 113.464 123.31 113.464H155.715C158.065 113.464 159.965 111.559 159.965 109.214V38.4845C159.965 36.1345 158.06 34.2345 155.715 34.2345V34.2295ZM156.97 98.0645C156.97 100.414 155.065 102.314 152.72 102.314H126.315C123.965 102.314 122.065 100.409 122.065 98.0645V46.1095C122.065 43.7595 123.97 41.8595 126.315 41.8595H152.72C155.07 41.8595 156.97 43.7645 156.97 46.1095V98.0645Z" fill="#EDEDED"></path>
<path id="Vector_3" d="M152.72 41.8647H126.31C123.963 41.8647 122.06 43.7675 122.06 46.1147V98.0697C122.06 100.417 123.963 102.32 126.31 102.32H152.72C155.067 102.32 156.97 100.417 156.97 98.0697V46.1147C156.97 43.7675 155.067 41.8647 152.72 41.8647Z" fill="white"></path>
<g id="Vector_4">
<path d="M155.715 113.72H123.31C120.83 113.72 118.81 111.7 118.81 109.22V38.4849C118.81 36.0049 120.83 33.9849 123.31 33.9849H155.715C158.195 33.9849 160.215 36.0049 160.215 38.4849V109.22C160.215 111.7 158.195 113.72 155.715 113.72ZM123.31 34.4799C121.105 34.4799 119.31 36.2749 119.31 38.4799V109.215C119.31 111.42 121.105 113.215 123.31 113.215H155.715C157.92 113.215 159.715 111.42 159.715 109.215V38.4849C159.715 36.2799 157.92 34.4849 155.715 34.4849H123.31V34.4799Z" fill="#07064E"></path>
<path d="M152.715 102.57H126.31C123.83 102.57 121.81 100.55 121.81 98.0699V46.1149C121.81 43.6349 123.83 41.6149 126.31 41.6149H152.715C155.195 41.6149 157.215 43.6349 157.215 46.1149V98.0699C157.215 100.55 155.195 102.57 152.715 102.57ZM126.31 42.1149C124.105 42.1149 122.31 43.9099 122.31 46.1149V98.0699C122.31 100.275 124.105 102.07 126.31 102.07H152.715C154.92 102.07 156.715 100.275 156.715 98.0699V46.1149C156.715 43.9099 154.92 42.1149 152.715 42.1149H126.31Z" fill="#07064E"></path>
</g>
<path id="Vector_5" d="M139.515 111.19C141.191 111.19 142.55 109.831 142.55 108.155C142.55 106.478 141.191 105.12 139.515 105.12C137.839 105.12 136.48 106.478 136.48 108.155C136.48 109.831 137.839 111.19 139.515 111.19Z" fill="white"></path>
<path id="Vector_6" d="M139.515 111.44C137.9 111.44 136.535 110.285 136.275 108.69C136.255 108.555 136.345 108.425 136.48 108.405C136.61 108.385 136.745 108.475 136.765 108.61C136.985 109.96 138.14 110.94 139.51 110.94C141.045 110.94 142.295 109.69 142.295 108.155C142.295 106.62 141.045 105.375 139.51 105.375C138.555 105.375 137.68 105.855 137.165 106.66C137.09 106.775 136.935 106.81 136.82 106.735C136.705 106.66 136.67 106.505 136.745 106.39C137.35 105.44 138.385 104.875 139.51 104.875C141.32 104.875 142.795 106.345 142.795 108.155C142.795 109.965 141.32 111.44 139.51 111.44H139.515Z" fill="#07064E"></path>
<path id="Vector_7" d="M145.98 38.6647H142.73C142.59 38.6647 142.48 38.5497 142.48 38.4097C142.48 38.2697 142.59 38.1597 142.73 38.1597H145.98C146.12 38.1597 146.23 38.2747 146.23 38.4147C146.23 38.5547 146.12 38.6647 145.98 38.6647Z" fill="white"></path>
<path id="Vector_8" d="M140.605 38.6597H133.05C132.91 38.6597 132.8 38.5497 132.8 38.4097C132.8 38.2697 132.91 38.1597 133.05 38.1597H140.605C140.745 38.1597 140.855 38.2697 140.855 38.4097C140.855 38.5497 140.745 38.6597 140.605 38.6597Z" fill="#07064E"></path>
<path id="Vector_9" d="M41.975 86.4098V34.5898C41.975 32.3398 43.8 30.5098 46.055 30.5098H99.53C101.78 30.5098 103.61 32.3348 103.61 34.5898V97.5648C103.61 99.8148 101.785 101.645 99.53 101.645H46.055C43.805 101.645 41.975 99.8198 41.975 97.5648V83.6898" fill="white"></path>
<path id="Vector_10" d="M103.235 24.1647H42.3349C40.0849 24.1647 38.2549 25.9897 38.2549 28.2447V111.865C38.2549 114.115 40.0799 115.945 42.3349 115.945H103.235C105.485 115.945 107.315 114.12 107.315 111.865V28.2397C107.315 25.9897 105.49 24.1597 103.235 24.1597V24.1647ZM103.605 99.6047C103.605 101.855 101.78 103.685 99.5249 103.685H46.0499C43.7999 103.685 41.9699 101.86 41.9699 99.6047V36.6297C41.9699 34.3797 43.7949 32.5497 46.0499 32.5497H99.5249C101.775 32.5497 103.605 34.3747 103.605 36.6297V99.6047Z" fill="#2AEDB4"></path>
<path id="Vector_11" d="M103.235 22.1245H42.3349C40.0849 22.1245 38.2549 23.9495 38.2549 26.2045V109.825C38.2549 112.075 40.0799 113.905 42.3349 113.905H103.235C105.485 113.905 107.315 112.08 107.315 109.825V26.2045C107.315 23.9545 105.49 22.1245 103.235 22.1245ZM103.605 97.5645C103.605 99.8145 101.78 101.645 99.5249 101.645H46.0499C43.7999 101.645 41.9699 99.8195 41.9699 97.5645V34.5895C41.9699 32.3395 43.7949 30.5095 46.0499 30.5095H99.5249C101.775 30.5095 103.605 32.3345 103.605 34.5895V97.5645Z" fill="#EDEDED"></path>
<path id="Vector_12" d="M103.235 114.145H42.3349C39.9549 114.145 38.0149 112.21 38.0149 109.825V26.2048C38.0149 23.8248 39.9499 21.8848 42.3349 21.8848H103.235C105.615 21.8848 107.555 23.8198 107.555 26.2048V109.825C107.555 112.205 105.62 114.145 103.235 114.145ZM42.3399 22.3648C40.2249 22.3648 38.4999 24.0848 38.4999 26.2048V109.825C38.4999 111.94 40.2199 113.665 42.3399 113.665H103.24C105.355 113.665 107.08 111.945 107.08 109.825V26.2048C107.08 24.0898 105.36 22.3648 103.24 22.3648H42.3399Z" fill="#07064E"></path>
<path id="Vector_13" d="M72.79 111.484C74.6318 111.484 76.125 109.991 76.125 108.149C76.125 106.308 74.6318 104.814 72.79 104.814C70.9481 104.814 69.455 106.308 69.455 108.149C69.455 109.991 70.9481 111.484 72.79 111.484Z" fill="white"></path>
<path id="Vector_14" d="M72.765 111.72C71.005 111.72 69.525 110.46 69.24 108.725C69.22 108.595 69.305 108.47 69.44 108.45C69.57 108.43 69.695 108.515 69.715 108.65C69.96 110.15 71.245 111.24 72.765 111.24C74.47 111.24 75.86 109.855 75.86 108.145C75.86 106.435 74.47 105.05 72.765 105.05C71.705 105.05 70.73 105.585 70.16 106.48C70.09 106.59 69.94 106.625 69.83 106.555C69.72 106.485 69.685 106.335 69.755 106.225C70.415 105.19 71.54 104.575 72.765 104.575C74.735 104.575 76.34 106.18 76.34 108.145C76.34 110.11 74.735 111.72 72.765 111.72Z" fill="#07064E"></path>
<path id="Vector_15" d="M79.895 26.9596H76.32C76.185 26.9596 76.08 26.8496 76.08 26.7146C76.08 26.5796 76.185 26.4746 76.32 26.4746H79.895C80.03 26.4746 80.135 26.5846 80.135 26.7196C80.135 26.8546 80.03 26.9596 79.895 26.9596Z" fill="white"></path>
<path id="Vector_16" d="M73.9849 26.9595H65.6799C65.5499 26.9595 65.4399 26.8545 65.4399 26.7195C65.4399 26.5845 65.5449 26.4795 65.6799 26.4795H73.9849C74.1149 26.4795 74.2249 26.5845 74.2249 26.7195C74.2249 26.8545 74.1199 26.9595 73.9849 26.9595Z" fill="#07064E"></path>
<g id="Vector_17">
<path d="M50.1949 44.0898H95.0999C95.8799 44.0898 96.5149 44.7248 96.5149 45.5048V48.6648C96.5149 49.4448 95.8799 50.0798 95.0999 50.0798H50.1949C49.4149 50.0798 48.7799 49.4448 48.7799 48.6648V45.5048C48.7799 44.7248 49.4149 44.0898 50.1949 44.0898Z" fill="#2BF5BA"></path>
<path d="M50.1949 57.6948H95.0999C95.8799 57.6948 96.5149 58.3298 96.5149 59.1098V62.2698C96.5149 63.0498 95.8799 63.6848 95.0999 63.6848H50.1949C49.4149 63.6848 48.7799 63.0498 48.7799 62.2698V59.1098C48.7799 58.3298 49.4149 57.6948 50.1949 57.6948Z" fill="#2BF5BA"></path>
<path d="M95.0999 71.2998H50.1899C49.4084 71.2998 48.7749 71.9334 48.7749 72.7148V75.8748C48.7749 76.6563 49.4084 77.2898 50.1899 77.2898H95.0999C95.8814 77.2898 96.5149 76.6563 96.5149 75.8748V72.7148C96.5149 71.9334 95.8814 71.2998 95.0999 71.2998Z" fill="#2BF5BA"></path>
<path d="M95.0999 84.9048H50.1899C49.4084 84.9048 48.7749 85.5384 48.7749 86.3198V89.4798C48.7749 90.2613 49.4084 90.8948 50.1899 90.8948H95.0999C95.8814 90.8948 96.5149 90.2613 96.5149 89.4798V86.3198C96.5149 85.5384 95.8814 84.9048 95.0999 84.9048Z" fill="#2BF5BA"></path>
</g>
<path id="Vector_18" d="M43.525 75.9797C44.34 75.9797 45 75.1947 45 74.2247C45 73.5797 44.71 73.0197 44.275 72.7147C44.71 72.4097 45 71.8497 45 71.2047C45 70.5597 44.71 69.9997 44.275 69.6947C44.71 69.3897 45 68.8297 45 68.1847C45 67.6897 44.825 67.2397 44.54 66.9197H50.825C51.79 66.9197 52.575 66.1347 52.575 65.1647C52.575 64.1947 51.79 63.4097 50.825 63.4097H42.21V75.9747H43.525V75.9797Z" fill="#EDEDED"></path>
<path id="Vector_19" d="M41.7349 63.4146H38.5049V75.9745H41.7349V63.4146Z" fill="#DDDDDD"></path>
<path id="Vector_20" d="M99.525 30.5098H46.05C43.8 30.5098 41.97 32.3348 41.97 34.5898V36.6298C41.97 34.3798 43.795 32.5498 46.05 32.5498H99.525C101.775 32.5498 103.605 34.3748 103.605 36.6298V34.5898C103.605 32.3398 101.78 30.5098 99.525 30.5098Z" fill="#EDEDED"></path>
<path id="Vector_21" d="M99.525 101.885H46.05C43.67 101.885 41.73 99.9495 41.73 97.5645V34.5895C41.73 32.2095 43.665 30.2695 46.05 30.2695H99.525C101.905 30.2695 103.845 32.2045 103.845 34.5895V97.5645C103.845 99.9445 101.91 101.885 99.525 101.885ZM46.05 30.7495C43.935 30.7495 42.21 32.4695 42.21 34.5895V97.5645C42.21 99.6795 43.93 101.405 46.05 101.405H99.525C101.64 101.405 103.365 99.6845 103.365 97.5645V34.5895C103.365 32.4745 101.645 30.7495 99.525 30.7495H46.05Z" fill="#07064E"></path>
<path id="Vector_22" d="M97.5549 47.1997H142.915C146.1 47.1997 148.68 49.7797 148.68 52.9647V74.1747C148.68 77.2697 146.175 79.7747 143.08 79.7747H137.78V87.2297C137.78 88.2297 136.425 88.7297 135.63 88.0247L126.385 79.7797H97.3949C94.2999 79.7797 91.7899 77.2697 91.7899 74.1747V52.9697C91.7899 49.7847 94.3699 47.2047 97.5549 47.2047V47.1997Z" fill="white"></path>
<g id="Vector_23">
<path d="M136.515 88.8298C136.135 88.8298 135.76 88.6948 135.47 88.4348L126.295 80.2498H97.3999C94.1799 80.2498 91.5549 77.6298 91.5549 74.4048V53.1998C91.5549 49.8898 94.2499 47.1948 97.5599 47.1948H142.92C146.23 47.1948 148.925 49.8898 148.925 53.1998V74.4098C148.925 77.6298 146.305 80.2498 143.085 80.2498H138.025V87.4648C138.025 87.9948 137.715 88.4548 137.19 88.6848C136.975 88.7798 136.745 88.8298 136.52 88.8298H136.515ZM97.5549 47.6798C94.5099 47.6798 92.0299 50.1598 92.0299 53.2048V74.4098C92.0299 77.3698 94.4349 79.7748 97.3949 79.7748H126.385C126.445 79.7748 126.5 79.7948 126.545 79.8348L135.79 88.0848C136.11 88.3698 136.58 88.4398 136.99 88.2548C137.335 88.0998 137.54 87.8098 137.54 87.4698V80.0148C137.54 79.8848 137.645 79.7748 137.78 79.7748H143.08C146.035 79.7748 148.44 77.3698 148.44 74.4148V53.2048C148.44 50.1598 145.96 47.6798 142.915 47.6798H97.5549Z" fill="#07064E"></path>
<path d="M107.99 65.1198C108.18 65.0548 108.345 64.9798 108.495 64.8848C108.645 64.7898 108.77 64.6748 108.87 64.5398C108.975 64.4048 109.05 64.2448 109.105 64.0598C109.16 63.8748 109.185 63.6648 109.185 63.4248C109.185 63.1498 109.13 62.8948 109.025 62.6548C108.92 62.4198 108.765 62.2098 108.565 62.0348C108.365 61.8598 108.125 61.7198 107.845 61.6198C107.565 61.5198 107.25 61.4698 106.9 61.4698C106.55 61.4698 106.25 61.5148 105.96 61.6098C105.67 61.6998 105.41 61.8398 105.185 62.0248C104.96 62.2098 104.77 62.4348 104.62 62.7098C104.47 62.9848 104.37 63.3048 104.315 63.6648L104.995 63.7848C105.06 63.7948 105.115 63.7998 105.175 63.7998C105.295 63.7998 105.39 63.7698 105.465 63.7148C105.54 63.6598 105.595 63.5598 105.64 63.4298C105.72 63.1748 105.86 62.9648 106.065 62.8048C106.265 62.6448 106.52 62.5598 106.83 62.5598C107.17 62.5598 107.435 62.6498 107.63 62.8348C107.825 63.0198 107.925 63.2898 107.925 63.6498C107.925 63.8198 107.9 63.9698 107.85 64.1098C107.8 64.2498 107.715 64.3698 107.59 64.4698C107.465 64.5698 107.3 64.6448 107.09 64.7048C106.88 64.7598 106.615 64.7898 106.3 64.7898V65.7148C106.685 65.7148 106.99 65.7448 107.22 65.8048C107.45 65.8648 107.625 65.9448 107.745 66.0498C107.865 66.1548 107.945 66.2798 107.985 66.4298C108.025 66.5798 108.045 66.7448 108.045 66.9248C108.045 67.0698 108.02 67.2098 107.965 67.3498C107.91 67.4898 107.83 67.6198 107.72 67.7348C107.61 67.8498 107.475 67.9448 107.31 68.0148C107.145 68.0848 106.955 68.1198 106.735 68.1198C106.54 68.1198 106.37 68.0898 106.23 68.0348C106.09 67.9798 105.965 67.8998 105.86 67.8098C105.755 67.7198 105.665 67.6098 105.59 67.4948C105.515 67.3748 105.445 67.2548 105.385 67.1348C105.345 67.0598 105.29 67.0048 105.22 66.9648C105.15 66.9248 105.065 66.9048 104.975 66.9048C104.875 66.9048 104.775 66.9248 104.675 66.9698L104.105 67.2048C104.21 67.5298 104.335 67.8148 104.48 68.0648C104.625 68.3148 104.805 68.5198 105.015 68.6948C105.225 68.8648 105.47 68.9948 105.755 69.0848C106.04 69.1698 106.37 69.2148 106.75 69.2148C107.1 69.2148 107.43 69.1648 107.74 69.0648C108.05 68.9648 108.325 68.8148 108.565 68.6148C108.8 68.4198 108.99 68.1748 109.13 67.8848C109.27 67.5948 109.34 67.2598 109.34 66.8848C109.34 66.4398 109.23 66.0748 109.005 65.7798C108.78 65.4848 108.445 65.2698 107.99 65.1248V65.1198Z" fill="#07064E"></path>
<path d="M114.645 61.5498H113.42L109.835 66.3398L109.965 66.9948C109.985 67.0748 110.025 67.1448 110.09 67.1948C110.155 67.2498 110.235 67.2748 110.32 67.2748H113.515V69.1248H114.645V67.2748H115.33C115.415 67.2748 115.485 67.2498 115.53 67.1998C115.575 67.1498 115.6 67.0898 115.6 67.0198V66.2698H114.645V61.5448V61.5498ZM113.52 63.4348C113.515 63.5648 113.51 63.6848 113.51 63.7948V66.2698H111.205L113.555 63.0298C113.535 63.1698 113.525 63.3048 113.52 63.4348Z" fill="#07064E"></path>
<path d="M120.845 64.9648C120.64 64.7748 120.4 64.6348 120.13 64.5398C119.86 64.4448 119.58 64.3998 119.295 64.3998C119.095 64.3998 118.91 64.4198 118.745 64.4648C118.575 64.5048 118.42 64.5648 118.27 64.6398C118.31 64.5848 118.355 64.5298 118.4 64.4798C118.445 64.4298 118.49 64.3698 118.54 64.3098L120.785 61.5598H119.635C119.48 61.5598 119.34 61.5898 119.22 61.6498C119.1 61.7098 119.01 61.7798 118.945 61.8648L117.14 64.2898C116.835 64.6948 116.61 65.0848 116.465 65.4598C116.32 65.8348 116.245 66.1998 116.245 66.5548C116.245 66.9548 116.305 67.3148 116.425 67.6398C116.545 67.9648 116.72 68.2448 116.945 68.4798C117.17 68.7098 117.445 68.8948 117.765 69.0198C118.085 69.1498 118.45 69.2148 118.855 69.2148C119.26 69.2148 119.615 69.1498 119.945 69.0148C120.275 68.8798 120.555 68.6998 120.79 68.4698C121.025 68.2398 121.205 67.9698 121.335 67.6598C121.465 67.3498 121.53 67.0198 121.53 66.6698C121.53 66.2948 121.465 65.9648 121.34 65.6798C121.215 65.3948 121.05 65.1598 120.845 64.9698V64.9648ZM120.13 67.3098C120.06 67.4798 119.965 67.6248 119.84 67.7548C119.715 67.8798 119.57 67.9798 119.395 68.0498C119.22 68.1198 119.035 68.1548 118.825 68.1548C118.605 68.1548 118.41 68.1198 118.245 68.0548C118.08 67.9848 117.935 67.8898 117.825 67.7698C117.71 67.6498 117.625 67.4998 117.57 67.3248C117.51 67.1498 117.485 66.9598 117.485 66.7498C117.485 66.5548 117.515 66.3698 117.58 66.2048C117.645 66.0348 117.735 65.8898 117.855 65.7648C117.975 65.6398 118.12 65.5448 118.285 65.4748C118.45 65.4048 118.64 65.3698 118.845 65.3698C119.05 65.3698 119.24 65.3998 119.41 65.4648C119.58 65.5298 119.725 65.6198 119.85 65.7398C119.97 65.8598 120.065 66.0048 120.135 66.1798C120.2 66.3548 120.235 66.5448 120.235 66.7648C120.235 66.9648 120.2 67.1498 120.13 67.3148V67.3098Z" fill="#07064E"></path>
<path d="M122.36 62.4298C122.36 62.5098 122.39 62.5798 122.45 62.6398C122.51 62.6998 122.58 62.7298 122.66 62.7298H126.285C126.135 62.8998 126 63.1048 125.875 63.3448L122.94 69.1298H123.88C124.065 69.1298 124.21 69.0848 124.32 68.9998C124.43 68.9148 124.51 68.8098 124.57 68.6898L127.435 62.7848C127.47 62.7148 127.505 62.6298 127.54 62.5248C127.575 62.4198 127.595 62.2848 127.595 62.1198V61.5598H122.36V62.4348V62.4298Z" fill="#07064E"></path>
<path d="M133.11 67.9198H131.165C131.02 67.9198 130.865 67.9348 130.705 67.9598C130.545 67.9848 130.38 68.0248 130.215 68.0748L131.92 66.3298C132.125 66.1198 132.315 65.9148 132.5 65.7098C132.685 65.5098 132.845 65.2998 132.985 65.0798C133.125 64.8648 133.235 64.6348 133.315 64.3998C133.395 64.1648 133.44 63.9048 133.44 63.6248C133.44 63.2998 133.38 63.0048 133.265 62.7398C133.15 62.4748 132.99 62.2498 132.785 62.0598C132.58 61.8698 132.33 61.7248 132.04 61.6248C131.75 61.5198 131.43 61.4698 131.08 61.4698C130.73 61.4698 130.43 61.5148 130.14 61.6098C129.85 61.6998 129.59 61.8398 129.365 62.0248C129.14 62.2098 128.95 62.4348 128.8 62.7098C128.65 62.9848 128.55 63.3048 128.495 63.6648L129.175 63.7848C129.24 63.7948 129.295 63.7998 129.35 63.7998C129.47 63.7998 129.565 63.7698 129.645 63.7148C129.725 63.6598 129.78 63.5598 129.82 63.4298C129.9 63.1648 130.04 62.9548 130.24 62.7948C130.44 62.6348 130.695 62.5598 131.005 62.5598C131.17 62.5598 131.325 62.5848 131.46 62.6298C131.595 62.6748 131.71 62.7498 131.81 62.8398C131.905 62.9348 131.985 63.0498 132.035 63.1898C132.085 63.3298 132.115 63.4898 132.115 63.6698C132.115 63.8698 132.09 64.0598 132.035 64.2398C131.98 64.4198 131.9 64.5948 131.8 64.7698C131.695 64.9448 131.57 65.1198 131.42 65.2998C131.27 65.4798 131.095 65.6648 130.905 65.8598L128.605 68.1648C128.525 68.2448 128.465 68.3348 128.43 68.4248C128.395 68.5198 128.375 68.6098 128.375 68.6948V69.1248H133.57V68.3498C133.57 68.2198 133.53 68.1148 133.445 68.0398C133.365 67.9598 133.25 67.9198 133.11 67.9198Z" fill="#07064E"></path>
<path d="M138.245 68.1548V61.5398H137.18L134.87 63.5048L135.28 64.0648C135.31 64.1048 135.35 64.1348 135.41 64.1648C135.47 64.1948 135.53 64.2098 135.6 64.2098C135.645 64.2098 135.69 64.2048 135.74 64.1898C135.785 64.1748 135.835 64.1498 135.88 64.1098L136.97 63.1998C136.96 63.3898 136.955 63.5698 136.955 63.7398V68.1548H135.42V69.1248H139.61V68.1548H138.245Z" fill="#07064E"></path>
</g>
<path id="Vector_24" d="M37.6749 58.8196L32.1749 64.3196C32.0149 64.4596 31.8599 64.6096 31.7049 64.7896C31.5999 64.8896 31.5149 65.0096 31.4349 65.1496C30.9949 65.8096 30.7599 66.5796 30.7599 67.3796V71.9496C30.7599 73.7846 32.0299 75.4546 33.7799 75.9096C33.9699 75.9596 34.1399 75.9846 34.3399 75.9846H38.0149V58.5596C37.8899 58.6346 37.7799 58.7196 37.6749 58.8246V58.8196Z" fill="#2AEDB4"></path>
<path id="Vector_25" d="M40.1499 61.2998C40.8349 60.6148 40.8349 59.5048 40.1499 58.8198C39.7049 58.3698 39.0699 58.2248 38.4999 58.3648V62.9548L40.1499 61.3048V61.2998Z" fill="#DDDDDD"></path>
<path id="Vector_26" d="M64.1899 52.6694H44.8849C44.0199 52.6694 43.3199 53.3694 43.3199 54.2344C43.3199 55.0994 44.0199 55.7994 44.8849 55.7994H61.8099C62.4099 55.7994 62.8949 56.2844 62.8949 56.8844V77.3944C62.8949 77.9944 62.4099 78.4794 61.8099 78.4794H44.8849C44.0199 78.4794 43.3199 79.1794 43.3199 80.0444C43.3199 80.9094 44.0199 81.6094 44.8849 81.6094H64.1899C65.0549 81.6094 65.7549 80.9094 65.7549 80.0444V54.2344C65.7549 53.3694 65.0549 52.6694 64.1899 52.6694Z" fill="#EDEDED"></path>
<g id="Vector_27">
<path d="M43.5299 74.3797C44.2099 74.3797 44.7649 73.7047 44.7649 72.8647C44.7649 72.0397 44.2299 71.3747 43.5599 71.3547C44.2299 71.3347 44.7649 70.6697 44.7649 69.8447C44.7649 69.0197 44.2299 68.3547 43.5599 68.3347C44.2299 68.3147 44.7649 67.6497 44.7649 66.8247C44.7649 66.0147 44.2449 65.3597 43.5899 65.3197H50.8299C51.6649 65.3197 52.3449 64.6447 52.3449 63.8047C52.3449 62.9697 51.6699 62.2897 50.8299 62.2897H37.4549L39.9849 59.7597C40.5749 59.1697 40.5749 58.2097 39.9849 57.6197C39.3949 57.0297 38.4349 57.0297 37.8449 57.6197L32.3299 63.1347C32.1749 63.2647 32.0349 63.4097 31.9049 63.5597L31.8749 63.5897C31.7749 63.6897 31.6999 63.7997 31.6349 63.9097C31.2349 64.5097 30.9999 65.2297 30.9999 66.0047V70.5747C30.9999 72.3297 32.2249 73.8797 33.8449 74.3047C34.0049 74.3497 34.1549 74.3697 34.3399 74.3697H43.5249L43.5299 74.3797Z" fill="white"></path>
<path d="M43.5599 52.8797C43.5599 53.6097 44.1549 54.2047 44.8849 54.2047H61.8099C62.5399 54.2047 63.1349 54.7997 63.1349 55.5297V76.0397C63.1349 76.7697 62.5399 77.3647 61.8099 77.3647H44.8849C44.1549 77.3647 43.5599 77.9597 43.5599 78.6897C43.5599 79.4197 44.1549 80.0147 44.8849 80.0147H64.1899C64.9199 80.0147 65.5149 79.4197 65.5149 78.6897V52.8797C65.5149 52.1497 64.9199 51.5547 64.1899 51.5547H44.8849C44.1549 51.5547 43.5599 52.1497 43.5599 52.8797Z" fill="white"></path>
</g>
<g id="Vector_28">
<path d="M43.5249 74.6198H34.3399C34.1399 74.6198 33.9699 74.5998 33.7799 74.5448C32.0299 74.0848 30.7599 72.4198 30.7599 70.5848V66.0148C30.7599 65.2198 30.9949 64.4498 31.4349 63.7848C31.5149 63.6448 31.5999 63.5298 31.7049 63.4248C31.8599 63.2448 32.0149 63.0948 32.1749 62.9548L37.6749 57.4548C38.3599 56.7698 39.4699 56.7698 40.1549 57.4548C40.8399 58.1398 40.8399 59.2498 40.1549 59.9348L38.0349 62.0548H50.8299C51.7949 62.0548 52.5799 62.8398 52.5799 63.8098C52.5799 64.7798 51.7949 65.5648 50.8299 65.5648H44.5449C44.8299 65.8848 45.0049 66.3348 45.0049 66.8298C45.0049 67.4748 44.7149 68.0348 44.2799 68.3398C44.7149 68.6448 45.0049 69.2048 45.0049 69.8498C45.0049 70.4948 44.7149 71.0548 44.2799 71.3598C44.7149 71.6648 45.0049 72.2248 45.0049 72.8698C45.0049 73.8348 44.3449 74.6248 43.5299 74.6248L43.5249 74.6198ZM38.9149 57.4248C38.5899 57.4248 38.2649 57.5498 38.0149 57.7948L32.4999 63.3048C32.3449 63.4398 32.2099 63.5748 32.0849 63.7198C32.0849 63.7198 32.0499 63.7598 32.0449 63.7598C31.9749 63.8298 31.9099 63.9198 31.8449 64.0298C31.4499 64.6248 31.2399 65.3048 31.2399 66.0048V70.5748C31.2399 72.1948 32.3599 73.6698 33.9049 74.0748C34.0549 74.1148 34.1849 74.1298 34.3399 74.1298H43.5249C44.0749 74.1298 44.5199 73.5598 44.5199 72.8548C44.5199 72.1498 44.0849 71.5998 43.5449 71.5848C43.4149 71.5848 43.3149 71.4748 43.3149 71.3448C43.3149 71.2148 43.4199 71.1098 43.5449 71.1048C44.0799 71.0898 44.5199 70.5198 44.5199 69.8348C44.5199 69.1498 44.0849 68.5798 43.5449 68.5648C43.4149 68.5648 43.3149 68.4548 43.3149 68.3248C43.3149 68.1948 43.4199 68.0898 43.5449 68.0848C44.0799 68.0698 44.5199 67.4998 44.5199 66.8148C44.5199 66.1298 44.1049 65.5798 43.5699 65.5498C43.4399 65.5398 43.3399 65.4348 43.3449 65.3048C43.3499 65.1748 43.4549 65.0698 43.5849 65.0698H50.8249C51.5249 65.0698 52.0999 64.4998 52.0999 63.7948C52.0999 63.0898 51.5299 62.5198 50.8249 62.5198H37.4499C37.3549 62.5198 37.2649 62.4598 37.2299 62.3698C37.1949 62.2798 37.2149 62.1748 37.2799 62.1098L39.8099 59.5798C40.0499 59.3398 40.1849 59.0198 40.1849 58.6798C40.1849 58.3398 40.0549 58.0198 39.8099 57.7798C39.5599 57.5298 39.2349 57.4098 38.9099 57.4098L38.9149 57.4248Z" fill="#07064E"></path>
<path d="M64.1899 80.2549H44.8849C44.0199 80.2549 43.3199 79.5549 43.3199 78.6899C43.3199 77.8249 44.0199 77.1249 44.8849 77.1249H61.8099C62.4099 77.1249 62.8949 76.6399 62.8949 76.0399V55.5299C62.8949 54.9299 62.4099 54.4449 61.8099 54.4449H44.8849C44.0199 54.4449 43.3199 53.7449 43.3199 52.8799C43.3199 52.0149 44.0199 51.3149 44.8849 51.3149H64.1899C65.0549 51.3149 65.7549 52.0149 65.7549 52.8799V78.6899C65.7549 79.5549 65.0549 80.2549 64.1899 80.2549ZM44.8849 77.5999C44.2849 77.5999 43.7999 78.0849 43.7999 78.6849C43.7999 79.2849 44.2849 79.7699 44.8849 79.7699H64.1899C64.7899 79.7699 65.2749 79.2849 65.2749 78.6849V52.8749C65.2749 52.2749 64.7899 51.7899 64.1899 51.7899H44.8849C44.2849 51.7899 43.7999 52.2749 43.7999 52.8749C43.7999 53.4749 44.2849 53.9599 44.8849 53.9599H61.8099C62.6749 53.9599 63.3749 54.6599 63.3749 55.5249V76.0349C63.3749 76.8999 62.6749 77.5999 61.8099 77.5999H44.8849Z" fill="#07064E"></path>
</g>
</g>
</g>
</g>
</g>
<defs>
<clipPath id="clip0_70_5317">
<rect width="200" height="140" fill="white"></rect>
</clipPath>
</defs>
</svg>