<svg width="200" height="140" viewBox="0 0 200 140" fill="none" xmlns="http://www.w3.org/2000/svg">
<g id="illu_spot_agenda/Default" clip-path="url(#clip0_70_4840)">
<g id="illu_spot_agenda">
<g id="background">
<path d="M12.46 31.54C6.30003 31.455 1.70503 27.285 2.19003 22.23C2.67503 17.175 8.06503 13.15 14.225 13.235C20.385 13.32 24.98 17.49 24.495 22.545C24.01 27.6 18.62 31.625 12.46 31.54Z" fill="#2BF5BA"></path>
<path d="M28.71 9.74499C27.985 11.155 26.15 11.765 24.61 11.105C23.07 10.445 22.405 8.76999 23.13 7.35999C23.855 5.95 25.69 5.33999 27.23 5.99999C28.77 6.65999 29.435 8.33499 28.71 9.74499Z" fill="#2BF5BA"></path>
<path d="M38.66 136.325C0.285027 127.795 -5.48497 90.785 14.5 56.79C40.25 12.99 71.27 4.51999 102.51 2.86999C135.45 1.12999 165.995 4.23499 161.14 31.845C154.88 67.455 196.65 58.945 197.83 94.05C198.465 112.96 177.2 122.925 146.795 118.715C61.975 106.97 75.835 144.585 38.665 136.325H38.66Z" fill="#2BF5BA"></path>
</g>
<g id="illu_spot_agenda_2">
<g id="stroke">
<path id="Vector" d="M141.085 31.2703H58.915C55.6013 31.2703 52.915 33.9566 52.915 37.2703V103.405C52.915 106.719 55.6013 109.405 58.915 109.405H141.085C144.399 109.405 147.085 106.719 147.085 103.405V37.2703C147.085 33.9566 144.399 31.2703 141.085 31.2703Z" fill="#2AEDB4"></path>
<path id="Vector_2" d="M141.085 29.1453H58.915C55.6013 29.1453 52.915 31.8316 52.915 35.1453V101.28C52.915 104.594 55.6013 107.28 58.915 107.28H141.085C144.399 107.28 147.085 104.594 147.085 101.28V35.1453C147.085 31.8316 144.399 29.1453 141.085 29.1453Z" fill="white"></path>
<path id="Vector_3" d="M57.445 28.8601H142.55C145.05 28.8601 147.08 30.8901 147.08 33.3901V40.1501H52.915V33.3901C52.915 30.8901 54.945 28.8601 57.445 28.8601Z" fill="#07064E"></path>
<path id="Vector_4" d="M129.63 37.2702C131.154 37.2702 132.39 36.0345 132.39 34.5102C132.39 32.9859 131.154 31.7502 129.63 31.7502C128.106 31.7502 126.87 32.9859 126.87 34.5102C126.87 36.0345 128.106 37.2702 129.63 37.2702Z" fill="white"></path>
<path id="Vector_5" d="M137.63 37.2702C139.154 37.2702 140.39 36.0345 140.39 34.5102C140.39 32.9859 139.154 31.7502 137.63 31.7502C136.106 31.7502 134.87 32.9859 134.87 34.5102C134.87 36.0345 136.106 37.2702 137.63 37.2702Z" fill="#2BF5BA"></path>
<g id="Vector_6">
<path d="M76.47 89.4902H61.345C59.9864 89.4902 58.885 90.5916 58.885 91.9502V97.5302C58.885 98.8889 59.9864 99.9902 61.345 99.9902H76.47C77.8286 99.9902 78.93 98.8889 78.93 97.5302V91.9502C78.93 90.5916 77.8286 89.4902 76.47 89.4902Z" fill="#EDEDED"></path>
<path d="M76.47 74.7853H61.345C59.9864 74.7853 58.885 75.8867 58.885 77.2453V82.8253C58.885 84.1839 59.9864 85.2853 61.345 85.2853H76.47C77.8286 85.2853 78.93 84.1839 78.93 82.8253V77.2453C78.93 75.8867 77.8286 74.7853 76.47 74.7853Z" fill="#EDEDED"></path>
<path d="M76.47 60.0802H61.345C59.9864 60.0802 58.885 61.1816 58.885 62.5402V68.1202C58.885 69.4788 59.9864 70.5802 61.345 70.5802H76.47C77.8286 70.5802 78.93 69.4788 78.93 68.1202V62.5402C78.93 61.1816 77.8286 60.0802 76.47 60.0802Z" fill="#EDEDED"></path>
<path d="M76.47 45.3752H61.345C59.9864 45.3752 58.885 46.4766 58.885 47.8352V53.4152C58.885 54.7739 59.9864 55.8752 61.345 55.8752H76.47C77.8286 55.8752 78.93 54.7739 78.93 53.4152V47.8352C78.93 46.4766 77.8286 45.3752 76.47 45.3752Z" fill="#EDEDED"></path>
</g>
<g id="Vector_7">
<path d="M137.735 57.3751H83.525C83.385 57.3751 83.275 57.2651 83.275 57.1251C83.275 56.9851 83.385 56.8751 83.525 56.8751H137.735C137.875 56.8751 137.985 56.9851 137.985 57.1251C137.985 57.2651 137.875 57.3751 137.735 57.3751Z" fill="#07064E"></path>
<path d="M137.735 72.6501H83.525C83.385 72.6501 83.275 72.5401 83.275 72.4001C83.275 72.2601 83.385 72.1501 83.525 72.1501H137.735C137.875 72.1501 137.985 72.2601 137.985 72.4001C137.985 72.5401 137.875 72.6501 137.735 72.6501Z" fill="#07064E"></path>
<path d="M137.735 87.9252H83.525C83.385 87.9252 83.275 87.8152 83.275 87.6752C83.275 87.5352 83.385 87.4252 83.525 87.4252H137.735C137.875 87.4252 137.985 87.5352 137.985 87.6752C137.985 87.8152 137.875 87.9252 137.735 87.9252Z" fill="#07064E"></path>
<path d="M83.52 101.07C83.38 101.07 83.27 100.96 83.27 100.82V41.8501C83.27 41.7101 83.38 41.6001 83.52 41.6001C83.66 41.6001 83.77 41.7101 83.77 41.8501V100.82C83.77 100.96 83.66 101.07 83.52 101.07Z" fill="#07064E"></path>
<path d="M111.69 101.07C111.55 101.07 111.44 100.96 111.44 100.82V41.8501C111.44 41.7101 111.55 41.6001 111.69 41.6001C111.83 41.6001 111.94 41.7101 111.94 41.8501V100.82C111.94 100.96 111.83 101.07 111.69 101.07Z" fill="#07064E"></path>
</g>
<g id="Vector_8">
<path d="M125.595 69.4401C128.18 69.4401 130.275 67.3448 130.275 64.7601C130.275 62.1754 128.18 60.0801 125.595 60.0801C123.01 60.0801 120.915 62.1754 120.915 64.7601C120.915 67.3448 123.01 69.4401 125.595 69.4401Z" fill="#2BF5BA"></path>
<path d="M125.955 54.1701C128.54 54.1701 130.635 52.0748 130.635 49.4901C130.635 46.9054 128.54 44.8101 125.955 44.8101C123.37 44.8101 121.275 46.9054 121.275 49.4901C121.275 52.0748 123.37 54.1701 125.955 54.1701Z" fill="#2BF5BA"></path>
<path d="M125.775 99.9901C128.36 99.9901 130.455 97.8948 130.455 95.3101C130.455 92.7254 128.36 90.6301 125.775 90.6301C123.19 90.6301 121.095 92.7254 121.095 95.3101C121.095 97.8948 123.19 99.9901 125.775 99.9901Z" fill="#2BF5BA"></path>
<path d="M97.2451 84.7151C99.8298 84.7151 101.925 82.6198 101.925 80.0351C101.925 77.4504 99.8298 75.3551 97.2451 75.3551C94.6604 75.3551 92.5651 77.4504 92.5651 80.0351C92.5651 82.6198 94.6604 84.7151 97.2451 84.7151Z" fill="#2BF5BA"></path>
</g>
<g id="Vector_9">
<path d="M124.675 66.5254C124.675 66.5254 124.665 66.5254 124.655 66.5254C124.58 66.5204 124.515 66.4854 124.47 66.4254L123.29 64.8304C123.21 64.7204 123.23 64.5604 123.345 64.4804C123.46 64.4004 123.61 64.4204 123.695 64.5354L124.7 65.9004L127.515 63.0854C127.615 62.9854 127.77 62.9854 127.87 63.0854C127.97 63.1854 127.97 63.3404 127.87 63.4404L124.85 66.4604C124.805 66.5054 124.74 66.5354 124.675 66.5354V66.5254Z" fill="#07064E"></path>
<path d="M125.035 51.2504C125.035 51.2504 125.025 51.2504 125.015 51.2504C124.94 51.2454 124.875 51.2104 124.83 51.1504L123.65 49.5554C123.57 49.4454 123.59 49.2854 123.705 49.2054C123.82 49.1254 123.975 49.1453 124.055 49.2603L125.06 50.6254L127.875 47.8104C127.975 47.7104 128.13 47.7104 128.23 47.8104C128.33 47.9104 128.33 48.0654 128.23 48.1654L125.21 51.1854C125.165 51.2304 125.1 51.2603 125.035 51.2603V51.2504Z" fill="#07064E"></path>
<path d="M124.855 97.0703C124.855 97.0703 124.845 97.0703 124.835 97.0703C124.76 97.0653 124.695 97.0303 124.65 96.9703L123.47 95.3753C123.39 95.2653 123.41 95.1053 123.525 95.0253C123.635 94.9453 123.795 94.9653 123.875 95.0803L124.88 96.4453L127.695 93.6303C127.795 93.5303 127.95 93.5303 128.05 93.6303C128.15 93.7303 128.15 93.8853 128.05 93.9853L125.03 97.0053C124.985 97.0503 124.92 97.0803 124.855 97.0803V97.0703Z" fill="#07064E"></path>
<path d="M96.325 81.7954C96.325 81.7954 96.315 81.7954 96.305 81.7954C96.23 81.7904 96.165 81.7554 96.12 81.6954L94.94 80.1004C94.86 79.9904 94.88 79.8304 94.995 79.7504C95.105 79.6704 95.265 79.6904 95.345 79.8054L96.35 81.1704L99.165 78.3554C99.265 78.2554 99.42 78.2554 99.52 78.3554C99.62 78.4554 99.62 78.6104 99.52 78.7104L96.5 81.7304C96.455 81.7754 96.39 81.8054 96.325 81.8054V81.7954Z" fill="#07064E"></path>
</g>
</g>
</g>
</g>
</g>
<defs>
<clipPath id="clip0_70_4840">
<rect width="200" height="140" fill="white"></rect>
</clipPath>
</defs>
</svg>