<svg width="200" height="140" viewBox="0 0 200 140" fill="none" xmlns="http://www.w3.org/2000/svg">
<g id="illu_spot_voice-communication/Default" clip-path="url(#clip0_70_5600)">
<g id="illu_spot_voice-communication">
<g id="background">
<path d="M12.46 29.9099C6.30003 29.8249 1.70503 25.6549 2.19003 20.5999C2.67503 15.5449 8.06503 11.5199 14.225 11.6049C20.385 11.6899 24.98 15.8599 24.495 20.9149C24.01 25.9699 18.62 29.9949 12.46 29.9099Z" fill="#2BF5BA"></path>
<path d="M188.64 57.1249C192.164 57.1249 195.02 54.2685 195.02 50.7449C195.02 47.2214 192.164 44.3649 188.64 44.3649C185.116 44.3649 182.26 47.2214 182.26 50.7449C182.26 54.2685 185.116 57.1249 188.64 57.1249Z" fill="#2BF5BA"></path>
<path d="M190.28 35.4199C191.68 35.4199 192.815 34.285 192.815 32.8849C192.815 31.4849 191.68 30.3499 190.28 30.3499C188.88 30.3499 187.745 31.4849 187.745 32.8849C187.745 34.285 188.88 35.4199 190.28 35.4199Z" fill="#2BF5BA"></path>
<path d="M28.71 8.11494C27.985 9.52494 26.15 10.1349 24.61 9.47494C23.07 8.81494 22.405 7.13994 23.13 5.72994C23.855 4.31994 25.69 3.70994 27.23 4.36994C28.77 5.02994 29.435 6.70494 28.71 8.11494Z" fill="#2BF5BA"></path>
<path d="M38.66 134.695C0.285027 126.165 -3.40997 74.9449 16.575 40.9549C42.33 -2.84506 96.04 1.26494 124.73 4.20994C157.54 7.57494 183.82 8.73494 178.965 36.3449C172.705 71.9549 196.65 57.3149 197.825 92.4199C198.46 111.33 181.84 125.365 151.18 126.815C74.255 130.455 75.825 142.955 38.655 134.695H38.66Z" fill="#2BF5BA"></path>
</g>
<g id="illu_spot_voice-communication_2">
<g id="stroke">
<path id="Vector" d="M130.085 117.751H69.915C67.69 117.751 65.885 115.946 65.885 113.721V117.071C65.885 119.296 67.69 121.101 69.915 121.101H130.085C132.31 121.101 134.115 119.296 134.115 117.071V113.726C134.115 115.951 132.31 117.751 130.085 117.751Z" fill="#2AEDB4"></path>
<path id="Vector_2" d="M69.555 90.5855V39.3855C69.555 37.1605 71.36 35.3555 73.585 35.3555H126.42C128.645 35.3555 130.45 37.1605 130.45 39.3855V101.605C130.45 103.83 128.645 105.635 126.42 105.635H73.585C71.36 105.635 69.555 103.83 69.555 101.605V87.8955" fill="white"></path>
<path id="Vector_3" d="M130.085 27.0703H69.915C67.69 27.0703 65.885 28.8753 65.885 31.1003V113.72C65.885 115.945 67.69 117.75 69.915 117.75H130.085C132.31 117.75 134.115 115.945 134.115 113.72V31.1003C134.115 28.8753 132.31 27.0703 130.085 27.0703ZM130.445 101.61C130.445 103.835 128.64 105.64 126.415 105.64H73.58C71.355 105.64 69.55 103.835 69.55 101.61V39.3903C69.55 37.1653 71.355 35.3603 73.58 35.3603H126.415C128.64 35.3603 130.445 37.1653 130.445 39.3903V101.61Z" fill="#EDEDED"></path>
<path id="Vector_4" d="M130.085 118H69.915C67.555 118 65.635 116.08 65.635 113.72V31.1003C65.635 28.7403 67.555 26.8203 69.915 26.8203H130.085C132.445 26.8203 134.365 28.7403 134.365 31.1003V113.72C134.365 116.08 132.445 118 130.085 118ZM69.915 27.3203C67.83 27.3203 66.135 29.0153 66.135 31.1003V113.72C66.135 115.805 67.83 117.5 69.915 117.5H130.085C132.17 117.5 133.865 115.805 133.865 113.72V31.1003C133.865 29.0153 132.17 27.3203 130.085 27.3203H69.915Z" fill="#07064E"></path>
<path id="Vector_5" d="M100 115.361C101.82 115.361 103.295 113.885 103.295 112.066C103.295 110.246 101.82 108.771 100 108.771C98.1802 108.771 96.705 110.246 96.705 112.066C96.705 113.885 98.1802 115.361 100 115.361Z" fill="white"></path>
<path id="Vector_6" d="M99.98 115.606C98.235 115.606 96.765 114.356 96.485 112.636C96.465 112.501 96.555 112.371 96.69 112.351C96.825 112.331 96.955 112.421 96.975 112.556C97.215 114.031 98.48 115.106 99.98 115.106C101.66 115.106 103.025 113.741 103.025 112.061C103.025 110.381 101.66 109.021 99.98 109.021C98.935 109.021 97.98 109.546 97.415 110.426C97.34 110.541 97.185 110.576 97.07 110.501C96.955 110.426 96.92 110.271 96.995 110.156C97.65 109.131 98.765 108.521 99.98 108.521C101.935 108.521 103.525 110.111 103.525 112.061C103.525 114.011 101.935 115.606 99.98 115.606Z" fill="#07064E"></path>
<path id="Vector_7" d="M107.02 31.8605H103.49C103.35 31.8605 103.24 31.7455 103.24 31.6055C103.24 31.4655 103.35 31.3555 103.49 31.3555H107.02C107.16 31.3555 107.27 31.4705 107.27 31.6105C107.27 31.7505 107.16 31.8605 107.02 31.8605Z" fill="white"></path>
<path id="Vector_8" d="M101.185 31.8604H92.98C92.84 31.8604 92.73 31.7504 92.73 31.6104C92.73 31.4704 92.84 31.3604 92.98 31.3604H101.185C101.325 31.3604 101.435 31.4704 101.435 31.6104C101.435 31.7504 101.325 31.8604 101.185 31.8604Z" fill="#07064E"></path>
<path id="Vector_9" d="M126.415 35.3555H73.58C71.355 35.3555 69.55 37.1605 69.55 39.3855V101.605V92.7105V41.5105C69.55 39.2855 71.355 37.4805 73.58 37.4805H126.415C128.64 37.4805 130.445 39.2855 130.445 41.5105V101.61V39.3905C130.445 37.1655 128.64 35.3605 126.415 35.3605V35.3555Z" fill="#EDEDED"></path>
<path id="Vector_10" d="M126.415 105.885H73.58C71.22 105.885 69.3 103.965 69.3 101.605V39.3855C69.3 37.0255 71.22 35.1055 73.58 35.1055H126.415C128.775 35.1055 130.695 37.0255 130.695 39.3855V101.605C130.695 103.965 128.775 105.885 126.415 105.885ZM73.585 35.6055C71.5 35.6055 69.805 37.3005 69.805 39.3855V101.605C69.805 103.69 71.5 105.385 73.585 105.385H126.42C128.505 105.385 130.2 103.69 130.2 101.605V39.3855C130.2 37.3005 128.505 35.6055 126.42 35.6055H73.585Z" fill="#07064E"></path>
<g id="Vector_11">
<path d="M92.215 41.7207H78.53C75.5172 41.7207 73.075 44.163 73.075 47.1757V61.4707C73.075 64.4834 75.5172 66.9257 78.53 66.9257H92.215C95.2277 66.9257 97.67 64.4834 97.67 61.4707V47.1757C97.67 44.163 95.2277 41.7207 92.215 41.7207Z" fill="#DDDDDD"></path>
<path d="M92.215 73.5957H78.53C75.5172 73.5957 73.075 76.038 73.075 79.0507V93.3457C73.075 96.3584 75.5172 98.8007 78.53 98.8007H92.215C95.2277 98.8007 97.67 96.3584 97.67 93.3457V79.0507C97.67 76.038 95.2277 73.5957 92.215 73.5957Z" fill="#DDDDDD"></path>
<path d="M121.465 73.5957H107.78C104.767 73.5957 102.325 76.038 102.325 79.0507V93.3457C102.325 96.3584 104.767 98.8007 107.78 98.8007H121.465C124.478 98.8007 126.92 96.3584 126.92 93.3457V79.0507C126.92 76.038 124.478 73.5957 121.465 73.5957Z" fill="#DDDDDD"></path>
<path d="M121.465 41.7207H107.78C104.767 41.7207 102.325 44.163 102.325 47.1757V61.4707C102.325 64.4834 104.767 66.9257 107.78 66.9257H121.465C124.478 66.9257 126.92 64.4834 126.92 61.4707V47.1757C126.92 44.163 124.478 41.7207 121.465 41.7207Z" fill="#DDDDDD"></path>
</g>
<g id="Vector_12">
<path d="M92.215 39.1855H78.53C75.5172 39.1855 73.075 41.6278 73.075 44.6405V58.9355C73.075 61.9483 75.5172 64.3905 78.53 64.3905H92.215C95.2277 64.3905 97.67 61.9483 97.67 58.9355V44.6405C97.67 41.6278 95.2277 39.1855 92.215 39.1855Z" fill="#EDEDED"></path>
<path d="M92.215 71.0555H78.53C75.5172 71.0555 73.075 73.4978 73.075 76.5105V90.8055C73.075 93.8183 75.5172 96.2605 78.53 96.2605H92.215C95.2277 96.2605 97.67 93.8183 97.67 90.8055V76.5105C97.67 73.4978 95.2277 71.0555 92.215 71.0555Z" fill="#EDEDED"></path>
<path d="M121.465 71.0557H107.78C104.767 71.0557 102.325 73.498 102.325 76.5107V90.8057C102.325 93.8184 104.767 96.2607 107.78 96.2607H121.465C124.478 96.2607 126.92 93.8184 126.92 90.8057V76.5107C126.92 73.498 124.478 71.0557 121.465 71.0557Z" fill="#EDEDED"></path>
<path d="M121.465 39.1855H107.78C104.767 39.1855 102.325 41.6278 102.325 44.6405V58.9355C102.325 61.9483 104.767 64.3905 107.78 64.3905H121.465C124.478 64.3905 126.92 61.9483 126.92 58.9355V44.6405C126.92 41.6278 124.478 39.1855 121.465 39.1855Z" fill="#EDEDED"></path>
</g>
<g id="Vector_13">
<path d="M99.785 58.9258H99.975C102.105 58.9258 103.835 60.6558 103.835 62.7858V73.2358C103.835 75.4158 102.065 77.1908 99.88 77.1908C97.7 77.1908 95.925 75.4208 95.925 73.2358V62.7858C95.925 60.6558 97.655 58.9258 99.785 58.9258Z" fill="white"></path>
<path d="M100.73 79.1708H99.035V83.6258H100.73V79.1708Z" fill="white"></path>
<path d="M106.93 83.6258H93.305C93.051 83.6258 92.845 83.8317 92.845 84.0858V84.3708C92.845 84.6248 93.051 84.8308 93.305 84.8308H106.93C107.184 84.8308 107.39 84.6248 107.39 84.3708V84.0858C107.39 83.8317 107.184 83.6258 106.93 83.6258Z" fill="white"></path>
</g>
<g id="Vector_14">
<path d="M99.88 79.4207C96.865 79.4207 94.41 76.9657 94.41 73.9507V68.1357H94.91V73.9507C94.91 76.6907 97.14 78.9207 99.88 78.9207C102.62 78.9207 104.85 76.6907 104.85 73.9507V68.1357H105.35V73.9507C105.35 76.9657 102.895 79.4207 99.88 79.4207Z" fill="#07064E"></path>
<path d="M99.88 77.4408C97.56 77.4408 95.675 75.5558 95.675 73.2358V62.7858C95.675 60.5208 97.52 58.6758 99.785 58.6758H99.975C102.24 58.6758 104.085 60.5208 104.085 62.7858V73.2358C104.085 75.5558 102.2 77.4408 99.88 77.4408ZM99.785 59.1758C97.795 59.1758 96.175 60.7958 96.175 62.7858V73.2358C96.175 75.2758 97.835 76.9408 99.88 76.9408C101.925 76.9408 103.585 75.2808 103.585 73.2358V62.7858C103.585 60.7958 101.965 59.1758 99.975 59.1758H99.785Z" fill="#07064E"></path>
<path d="M100.98 83.8759H98.785V78.9209H100.98V83.8759ZM99.285 83.3759H100.48V79.4209H99.285V83.3759Z" fill="#07064E"></path>
<path d="M106.93 85.0858H93.305C92.915 85.0858 92.595 84.7658 92.595 84.3758V84.0858C92.595 83.6958 92.915 83.3758 93.305 83.3758H106.93C107.32 83.3758 107.64 83.6958 107.64 84.0858V84.3758C107.64 84.7658 107.32 85.0858 106.93 85.0858ZM93.305 83.8758C93.19 83.8758 93.095 83.9708 93.095 84.0858V84.3758C93.095 84.4908 93.19 84.5858 93.305 84.5858H106.93C107.045 84.5858 107.14 84.4908 107.14 84.3758V84.0858C107.14 83.9708 107.045 83.8758 106.93 83.8758H93.305Z" fill="#07064E"></path>
<path d="M111.415 71.8358C111.375 71.8358 111.34 71.8258 111.305 71.8058C111.19 71.7458 111.145 71.6008 111.205 71.4808C113.375 67.3658 113.375 64.6558 111.205 60.7458C111.14 60.6308 111.185 60.4858 111.3 60.4208C111.415 60.3558 111.56 60.4008 111.625 60.5158C113.885 64.5958 113.885 67.4208 111.625 71.7058C111.58 71.7858 111.5 71.8358 111.415 71.8358Z" fill="#07064E"></path>
<path d="M113.395 73.5108C113.345 73.5108 113.295 73.4958 113.25 73.4608C113.145 73.3808 113.125 73.2308 113.205 73.1258C116.29 69.0608 116.35 63.2908 113.355 59.0958C113.28 58.9858 113.305 58.8358 113.41 58.7608C113.52 58.6808 113.67 58.7108 113.745 58.8158C116.86 63.1808 116.795 69.1808 113.585 73.4108C113.54 73.4708 113.465 73.5058 113.395 73.5058V73.5108Z" fill="#07064E"></path>
<path d="M110.41 66.1608C110.28 66.1608 110.175 66.0558 110.17 65.9258C110.14 64.5508 110 63.8558 109.48 62.5508C109.43 62.4258 109.49 62.2908 109.615 62.2408C109.74 62.1908 109.875 62.2508 109.925 62.3758C110.47 63.7458 110.62 64.4758 110.65 65.9208C110.65 66.0508 110.545 66.1608 110.415 66.1658L110.41 66.1608Z" fill="#07064E"></path>
<path d="M88.585 71.8358C88.5 71.8358 88.415 71.7908 88.375 71.7058C86.115 67.4158 86.115 64.5908 88.375 60.5158C88.44 60.4008 88.585 60.3558 88.7 60.4208C88.815 60.4858 88.86 60.6308 88.795 60.7458C86.625 64.6558 86.63 67.3658 88.795 71.4808C88.855 71.5958 88.81 71.7408 88.695 71.8058C88.66 71.8258 88.62 71.8358 88.585 71.8358Z" fill="#07064E"></path>
<path d="M86.605 73.5108C86.53 73.5108 86.46 73.4758 86.415 73.4158C83.205 69.1858 83.14 63.1808 86.255 58.8208C86.33 58.7158 86.48 58.6858 86.59 58.7658C86.7 58.8408 86.725 58.9908 86.645 59.1008C83.65 63.2958 83.71 69.0658 86.795 73.1308C86.875 73.2358 86.855 73.3858 86.75 73.4658C86.705 73.5008 86.655 73.5158 86.605 73.5158V73.5108Z" fill="#07064E"></path>
<path d="M89.59 66.1609C89.46 66.1609 89.35 66.0509 89.355 65.9159C89.385 64.4709 89.535 63.7409 90.08 62.3709C90.13 62.2459 90.27 62.1859 90.39 62.2359C90.515 62.2859 90.575 62.4259 90.525 62.5459C90.005 63.8509 89.86 64.5459 89.835 65.9209C89.835 66.0509 89.725 66.1559 89.595 66.1559L89.59 66.1609Z" fill="#07064E"></path>
</g>
<g id="Vector_15">
<path d="M109.705 70.0104C109.675 70.0104 109.645 70.0054 109.615 69.9954C109.49 69.9454 109.43 69.8054 109.48 69.6854C109.835 68.8004 109.955 68.3554 110.085 67.4254C110.105 67.2954 110.225 67.2004 110.355 67.2204C110.485 67.2404 110.575 67.3604 110.56 67.4904C110.425 68.4554 110.295 68.9404 109.925 69.8604C109.885 69.9554 109.795 70.0104 109.7 70.0104H109.705Z" fill="#2BF5BA"></path>
<path d="M90.295 70.0105C90.2 70.0105 90.11 69.9555 90.07 69.8605C89.705 68.9405 89.57 68.4555 89.435 67.4905C89.415 67.3605 89.51 67.2405 89.64 67.2205C89.77 67.2005 89.89 67.2955 89.91 67.4255C90.04 68.3555 90.16 68.7955 90.515 69.6855C90.565 69.8105 90.505 69.9455 90.38 69.9955C90.35 70.0055 90.32 70.0105 90.29 70.0105H90.295Z" fill="#2BF5BA"></path>
</g>
</g>
</g>
</g>
</g>
<defs>
<clipPath id="clip0_70_5600">
<rect width="200" height="140" fill="white"></rect>
</clipPath>
</defs>
</svg>