<svg width="200" height="140" viewBox="0 0 200 140" fill="none" xmlns="http://www.w3.org/2000/svg">
<g id="illu_spot_voting-uneditable-v2/Default" clip-path="url(#clip0_70_5194)">
<g id="illu_spot_voting-uneditable-v2">
<g id="background">
<path d="M187.509 125.902C191.613 123.31 193.568 119.035 191.875 116.355C190.182 113.675 185.482 113.604 181.378 116.196C177.273 118.789 175.319 123.064 177.012 125.744C178.705 128.424 183.404 128.495 187.509 125.902Z" fill="#2BF5BA"></path>
<path d="M8.29116 14.6759C8.45475 13.1298 7.55221 11.767 6.27527 11.6319C4.99834 11.4967 3.83057 12.6405 3.66698 14.1866C3.50339 15.7326 4.40594 17.0955 5.68287 17.2306C6.9598 17.3657 8.12758 16.2219 8.29116 14.6759Z" fill="#2BF5BA"></path>
<path d="M17.7199 14.6147C18.3854 14.6147 18.9249 14.0752 18.9249 13.4097C18.9249 12.7442 18.3854 12.2047 17.7199 12.2047C17.0544 12.2047 16.5149 12.7442 16.5149 13.4097C16.5149 14.0752 17.0544 14.6147 17.7199 14.6147Z" fill="#2BF5BA"></path>
<path d="M170.265 21.8597C197.435 43.3747 194.535 84.0497 186.4 98.2797C147.3 166.72 130.12 116.66 64.1849 132.635C3.05494 147.45 0.0349455 122.845 12.6399 100.77C19.4199 88.8947 5.98495 76.4947 5.98495 48.0747C5.97994 -1.37033 129.395 -10.5053 170.265 21.8597Z" fill="#2BF5BA"></path>
<path d="M196.923 92.5981C197.086 91.052 196.184 89.6892 194.907 89.5541C193.63 89.419 192.462 90.5627 192.299 92.1088C192.135 93.6548 193.038 95.0177 194.314 95.1528C195.591 95.2879 196.759 94.1441 196.923 92.5981Z" fill="#2BF5BA"></path>
</g>
<g id="illu_spot_voting-uneditable-v2_2">
<g id="stroke">
<path id="Vector" d="M138.24 33.0601H56.0699C52.7562 33.0601 50.0699 35.7464 50.0699 39.0601V105.195C50.0699 108.509 52.7562 111.195 56.0699 111.195H138.24C141.554 111.195 144.24 108.509 144.24 105.195V39.0601C144.24 35.7464 141.554 33.0601 138.24 33.0601Z" fill="#2AEDB4"></path>
<path id="Vector_2" d="M138.24 30.9297H56.0699C52.7562 30.9297 50.0699 33.616 50.0699 36.9297V103.065C50.0699 106.378 52.7562 109.065 56.0699 109.065H138.24C141.554 109.065 144.24 106.378 144.24 103.065V36.9297C144.24 33.616 141.554 30.9297 138.24 30.9297Z" fill="white"></path>
<path id="Vector_3" d="M54.5999 30.9297H139.705C142.21 30.9297 144.235 32.9597 144.235 35.4597V42.2197H50.0699V35.4597C50.0699 32.9547 52.0999 30.9297 54.5999 30.9297Z" fill="#07064E"></path>
<path id="Vector_4" d="M126.78 39.3398C128.304 39.3398 129.54 38.1041 129.54 36.5798C129.54 35.0555 128.304 33.8198 126.78 33.8198C125.256 33.8198 124.02 35.0555 124.02 36.5798C124.02 38.1041 125.256 39.3398 126.78 39.3398Z" fill="white"></path>
<path id="Vector_5" d="M134.785 39.3398C136.309 39.3398 137.545 38.1041 137.545 36.5798C137.545 35.0555 136.309 33.8198 134.785 33.8198C133.261 33.8198 132.025 35.0555 132.025 36.5798C132.025 38.1041 133.261 39.3398 134.785 39.3398Z" fill="#2BF5BA"></path>
<g id="Vector_6">
<path d="M132.035 68.5747H112.445C112.305 68.5747 112.195 68.4647 112.195 68.3247C112.195 68.1847 112.305 68.0747 112.445 68.0747H132.035C132.175 68.0747 132.285 68.1847 132.285 68.3247C132.285 68.4647 132.175 68.5747 132.035 68.5747Z" fill="#07064E"></path>
<path d="M95.0848 59.0947H62.2698C62.1298 59.0947 62.0198 58.9847 62.0198 58.8447C62.0198 58.7047 62.1298 58.5947 62.2698 58.5947H95.0848C95.2248 58.5947 95.3348 58.7047 95.3348 58.8447C95.3348 58.9847 95.2248 59.0947 95.0848 59.0947Z" fill="#07064E"></path>
<path d="M103.22 68.5747H62.6448C62.5048 68.5747 62.3948 68.4647 62.3948 68.3247C62.3948 68.1847 62.5048 68.0747 62.6448 68.0747H103.22C103.36 68.0747 103.47 68.1847 103.47 68.3247C103.47 68.4647 103.36 68.5747 103.22 68.5747Z" fill="#07064E"></path>
<path d="M132.035 74.0947H62.6448C62.5048 74.0947 62.3948 73.9847 62.3948 73.8447C62.3948 73.7047 62.5048 73.5947 62.6448 73.5947H132.03C132.17 73.5947 132.28 73.7047 132.28 73.8447C132.28 73.9847 132.17 74.0947 132.03 74.0947H132.035Z" fill="#07064E"></path>
<path d="M132.035 79.6096H104.91C104.77 79.6096 104.66 79.4996 104.66 79.3596C104.66 79.2196 104.77 79.1096 104.91 79.1096H132.035C132.175 79.1096 132.285 79.2196 132.285 79.3596C132.285 79.4996 132.175 79.6096 132.035 79.6096Z" fill="#07064E"></path>
<path d="M93.6198 79.6096H62.6448C62.5048 79.6096 62.3948 79.4996 62.3948 79.3596C62.3948 79.2196 62.5048 79.1096 62.6448 79.1096H93.6198C93.7598 79.1096 93.8698 79.2196 93.8698 79.3596C93.8698 79.4996 93.7598 79.6096 93.6198 79.6096Z" fill="#07064E"></path>
<path d="M132.035 85.1296H117.035C116.895 85.1296 116.785 85.0196 116.785 84.8796C116.785 84.7396 116.895 84.6296 117.035 84.6296H132.035C132.175 84.6296 132.285 84.7396 132.285 84.8796C132.285 85.0196 132.175 85.1296 132.035 85.1296Z" fill="#07064E"></path>
<path d="M112.185 85.1296H62.6448C62.5048 85.1296 62.3948 85.0196 62.3948 84.8796C62.3948 84.7396 62.5048 84.6296 62.6448 84.6296H112.185C112.325 84.6296 112.435 84.7396 112.435 84.8796C112.435 85.0196 112.325 85.1296 112.185 85.1296Z" fill="#07064E"></path>
</g>
<path id="Vector_7" d="M126.035 54.2246L133.65 51.4546L130.93 59.1146C130.88 59.2546 130.8 59.3796 130.695 59.4846L103.465 86.7146C103.08 87.0996 102.455 87.0996 102.065 86.7146L98.435 83.0846C98.05 82.6996 98.05 82.0746 98.435 81.6846L125.67 54.4496C125.77 54.3496 125.895 54.2696 126.03 54.2196L126.035 54.2246Z" fill="#EDEDED"></path>
<path id="Vector_8" d="M126.035 52.0996L133.65 49.3296L130.93 56.9896C130.88 57.1296 130.8 57.2546 130.695 57.3596L103.465 84.5896C103.08 84.9746 102.455 84.9746 102.065 84.5896L98.435 80.9596C98.05 80.5746 98.05 79.9496 98.435 79.5596L125.67 52.3246C125.77 52.2246 125.895 52.1446 126.03 52.0946L126.035 52.0996Z" fill="white"></path>
<path id="Vector_9" d="M99.7399 78.2646L98.4999 79.5046C98.0599 79.9446 98.0599 80.6547 98.4999 81.0947L101.935 84.5296C102.375 84.9696 103.085 84.9696 103.525 84.5296L104.765 83.2896" fill="#2BF5BA"></path>
<path id="Vector_10" d="M131.04 56.9448L104.765 83.1598C102.205 80.1498 122.585 64.0798 128.745 54.5498L131.04 56.9398V56.9448Z" fill="#EDEDED"></path>
<g id="Vector_11">
<path d="M133.885 49.2497C133.84 49.1197 133.7 49.0497 133.57 49.0947L126.07 51.6197C126.035 51.6297 126 51.6547 125.975 51.6797L98.3199 79.3347C97.7849 79.8697 97.7849 80.7397 98.3199 81.2797L101.76 84.7147C102.015 84.9747 102.365 85.1147 102.73 85.1147C103.095 85.1147 103.445 84.9697 103.7 84.7147L131.355 57.0597C131.385 57.0297 131.405 56.9997 131.415 56.9597L133.885 49.4097C133.9 49.3597 133.9 49.3047 133.885 49.2497ZM103.35 84.3547C103.01 84.6947 102.455 84.6947 102.115 84.3547L98.6749 80.9197C98.3349 80.5797 98.3349 80.0247 98.6749 79.6847L99.7499 78.6097L104.425 83.2847L103.35 84.3597V84.3547ZM131.045 56.4847L128.25 53.6897C128.15 53.5947 127.995 53.5947 127.895 53.6897C127.8 53.7897 127.8 53.9447 127.895 54.0447L130.78 56.9247L104.78 82.9247L100.105 78.2497L126.105 52.2497L126.895 53.0397C126.94 53.0847 127.005 53.1147 127.07 53.1147C127.135 53.1147 127.2 53.0897 127.245 53.0397C127.345 52.9397 127.345 52.7847 127.245 52.6847L126.54 51.9797L131 50.4797L132.51 51.9897L131.04 56.4797L131.045 56.4847Z" fill="#07064E"></path>
<path d="M105.74 82.5696C105.675 82.5696 105.61 82.5446 105.565 82.4946L103.17 80.0996C103.075 79.9996 103.075 79.8446 103.17 79.7446C103.265 79.6496 103.425 79.6496 103.52 79.7446L105.915 82.1396C106.015 82.2396 106.015 82.3946 105.915 82.4946C105.87 82.5396 105.805 82.5696 105.74 82.5696Z" fill="#07064E"></path>
<path d="M106.675 81.6347C106.61 81.6347 106.545 81.6096 106.5 81.5596L101.475 76.5347C101.38 76.4347 101.38 76.2796 101.475 76.1796C101.57 76.0847 101.73 76.0847 101.825 76.1796L106.85 81.2047C106.95 81.3046 106.95 81.4596 106.85 81.5596C106.805 81.6046 106.74 81.6347 106.675 81.6347Z" fill="#07064E"></path>
<path d="M102.565 79.4046C102.5 79.4046 102.435 79.3796 102.39 79.3296L100.565 77.5046C100.47 77.4046 100.47 77.2496 100.565 77.1496C100.66 77.0546 100.82 77.0546 100.915 77.1496L102.74 78.9746C102.84 79.0746 102.84 79.2296 102.74 79.3296C102.695 79.3746 102.63 79.4046 102.565 79.4046Z" fill="#07064E"></path>
</g>
<g id="Vector_12">
<path d="M131.57 98.8599H111.98C111.84 98.8599 111.73 98.7499 111.73 98.6099C111.73 98.4699 111.84 98.3599 111.98 98.3599H131.57C131.71 98.3599 131.82 98.4699 131.82 98.6099C131.82 98.7499 131.71 98.8599 131.57 98.8599Z" fill="#07064E"></path>
<path d="M95.2949 90.645H62.5399C62.3999 90.645 62.2899 90.535 62.2899 90.395C62.2899 90.255 62.3999 90.145 62.5399 90.145H95.2949C95.4349 90.145 95.5449 90.255 95.5449 90.395C95.5449 90.535 95.4349 90.645 95.2949 90.645Z" fill="#07064E"></path>
</g>
<path id="Vector_13" d="M108.32 98.8599H104.515C104.375 98.8599 104.265 98.7499 104.265 98.6099C104.265 98.4699 104.375 98.3599 104.515 98.3599H108.32C108.46 98.3599 108.57 98.4699 108.57 98.6099C108.57 98.7499 108.46 98.8599 108.32 98.8599Z" fill="#2BF5BA"></path>
<path id="Vector_14" d="M124.23 92.8748L102.275 75.9848L124.23 59.0948C125.33 58.2448 125.54 56.6648 124.69 55.5648C123.84 54.4648 122.26 54.2548 121.16 55.1048L98.15 72.8048L75.14 55.1048C74.04 54.2548 72.46 54.4648 71.61 55.5648C70.76 56.6648 70.97 58.2448 72.07 59.0948L94.025 75.9848L72.07 92.8748C70.97 93.7248 70.76 95.3048 71.61 96.4048C72.46 97.5048 74.04 97.7148 75.14 96.8648L98.15 79.1648L121.16 96.8648C122.26 97.7148 123.84 97.5048 124.69 96.4048C125.54 95.3048 125.33 93.7248 124.23 92.8748Z" fill="#DDDDDD"></path>
<path id="Vector_15" d="M122.695 95.2647C121.915 95.2647 121.175 95.0147 120.55 94.5347L98.15 77.2997L75.75 94.5347C75.13 95.0147 74.39 95.2647 73.605 95.2647C72.505 95.2647 71.485 94.7647 70.815 93.8947C69.63 92.3597 69.92 90.1447 71.46 88.9647L92.38 72.8697L71.46 56.7747C69.925 55.5947 69.635 53.3797 70.815 51.8447C71.485 50.9697 72.505 50.4697 73.605 50.4697C74.385 50.4697 75.125 50.7197 75.745 51.1997L98.145 68.4347L120.545 51.1997C121.165 50.7247 121.905 50.4697 122.685 50.4697C123.785 50.4697 124.8 50.9697 125.475 51.8397C126.66 53.3747 126.37 55.5897 124.835 56.7747L103.91 72.8697L124.83 88.9647C126.365 90.1497 126.655 92.3597 125.475 93.8947C124.805 94.7647 123.785 95.2647 122.685 95.2647H122.695Z" fill="#FFB87E"></path>
</g>
</g>
</g>
</g>
<defs>
<clipPath id="clip0_70_5194">
<rect width="200" height="140" fill="white"></rect>
</clipPath>
</defs>
</svg>