<svg width="200" height="140" viewBox="0 0 200 140" fill="none" xmlns="http://www.w3.org/2000/svg">
<g id="illu_spot_can-vote-v2/Default" clip-path="url(#clip0_70_4731)">
<g id="illu_spot_can-vote-v2">
<g id="backgrpund">
<path d="M177.505 26.35C171.345 26.265 166.75 22.095 167.235 17.04C167.72 11.985 173.11 7.96001 179.27 8.04501C185.43 8.13001 190.025 12.3 189.54 17.355C189.055 22.41 183.665 26.435 177.505 26.35Z" fill="#2BF5BA"></path>
<path d="M189.575 57.125C193.099 57.125 195.955 54.2686 195.955 50.745C195.955 47.2214 193.099 44.365 189.575 44.365C186.051 44.365 183.195 47.2214 183.195 50.745C183.195 54.2686 186.051 57.125 189.575 57.125Z" fill="#2BF5BA"></path>
<path d="M191.21 35.42C192.61 35.42 193.745 34.285 193.745 32.885C193.745 31.485 192.61 30.35 191.21 30.35C189.81 30.35 188.675 31.485 188.675 32.885C188.675 34.285 189.81 35.42 191.21 35.42Z" fill="#2BF5BA"></path>
<path d="M18.1601 18.39C17.4351 19.8 15.6001 20.41 14.0601 19.75C12.5201 19.09 11.8551 17.415 12.5801 16.005C13.3051 14.595 15.1401 13.985 16.6801 14.645C18.2201 15.305 18.8851 16.98 18.1601 18.39Z" fill="#2BF5BA"></path>
<path d="M46.2701 128.62C5.88008 111.44 -8.17492 73.915 11.8101 39.925C37.5651 -3.87999 69.8351 -1.02999 105.16 10.4C136.54 20.555 166.01 12.405 166.4 44.75C166.835 80.9 187.515 59.4 188.695 94.505C189.33 113.415 177.005 123.195 146.42 125.785C86.2751 130.88 68.7801 138.19 46.2701 128.62Z" fill="#2BF5BA"></path>
</g>
<g id="illu_spot_can-vote-v2_2">
<g id="stroke">
<path id="Vector" d="M139.57 58.7849C139.21 58.0499 138.585 57.4999 137.81 57.2349C137.035 56.9699 136.205 57.0199 135.47 57.3799C135.28 57.4749 135.1 57.5849 134.935 57.7149L136.005 54.5949C136.27 53.8199 136.22 52.9899 135.86 52.2549C135.5 51.5199 134.875 50.9699 134.1 50.7049C133.14 50.3749 132.12 50.5399 131.335 51.0999L132.07 48.9649C132.62 47.3649 131.765 45.6199 130.165 45.0699C128.57 44.5199 126.82 45.3749 126.27 46.9749L125.485 49.2549C125.435 49.0399 125.355 48.8249 125.255 48.6199C124.895 47.8849 124.27 47.3349 123.5 47.0699C122.73 46.8049 121.895 46.8549 121.16 47.2149C120.425 47.5749 119.875 48.1999 119.61 48.9699L111.73 71.9149L109.075 66.4849C108.715 65.7499 108.09 65.1999 107.32 64.9349C106.55 64.6699 105.715 64.7199 104.98 65.0799C104.245 65.4399 103.695 66.0649 103.43 66.8349C103.165 67.6049 103.215 68.4399 103.575 69.1749L109.93 82.1749C110.07 82.5349 110.24 82.8849 110.43 83.2049L110.465 83.2699C110.575 83.4949 110.72 83.7049 110.915 83.9249C111.205 84.3049 111.54 84.6549 111.91 84.9749H92.025C92.85 83.9099 93.385 82.6549 93.53 81.3349C93.57 80.9949 93.565 80.6849 93.51 80.3399L89.715 54.9499C89.465 53.2799 87.905 52.1249 86.23 52.3749C85.42 52.4949 84.705 52.9249 84.22 53.5849C84.095 53.7549 83.985 53.9399 83.9 54.1299L83.41 50.8649C83.29 50.0549 82.86 49.3399 82.2 48.8549C81.54 48.3699 80.735 48.1649 79.925 48.2899C78.925 48.4399 78.095 49.0599 77.655 49.9149L77.32 47.6849C77.2 46.8749 76.77 46.1599 76.11 45.6749C75.45 45.1899 74.645 44.9849 73.835 45.1099C73.025 45.2299 72.31 45.6599 71.825 46.3199C71.34 46.9799 71.135 47.7849 71.26 48.5949L71.615 50.9799C71.47 50.8099 71.305 50.6599 71.12 50.5199C70.46 50.0349 69.655 49.8349 68.845 49.9549C68.035 50.0749 67.325 50.5049 66.835 51.1599C66.35 51.8149 66.145 52.6249 66.27 53.4349L69.855 77.4299L64.995 73.8349C63.635 72.8299 61.715 73.1199 60.71 74.4749C59.705 75.8299 59.995 77.7549 61.35 78.7599L72.985 87.3649C73.275 87.6199 73.59 87.8499 73.905 88.0449L73.965 88.0899C74.165 88.2399 74.395 88.3599 74.665 88.4649C75.135 88.6899 75.645 88.8599 76.17 88.9799L76.35 90.1999L75.54 90.3199C74.5 90.4749 73.78 91.4449 73.94 92.4849L74.37 95.3599C74.445 95.8649 74.71 96.3049 75.12 96.6099C75.265 96.7149 75.42 96.7949 75.58 96.8549L78.32 115.19L78.355 115.435L91.25 113.505V115.4H113.535V113.62L118.915 115.47L125.02 97.6949C125.19 97.6649 125.36 97.6149 125.515 97.5399C125.975 97.3149 126.315 96.9299 126.48 96.4449L127.425 93.6949C127.59 93.2149 127.56 92.6949 127.335 92.2399C127.11 91.7849 126.725 91.4399 126.24 91.2749L125.56 91.0399L126.115 89.4199C128.095 89.0499 129.84 87.9199 130.91 86.3049C131.1 86.0199 131.24 85.7449 131.35 85.4149L139.685 61.1349C139.95 60.3599 139.9 59.5299 139.54 58.7949L139.57 58.7849ZM90.71 86.3049C91 86.0749 91.265 85.8249 91.515 85.5599V87.9149L90.96 87.9999L90.705 86.3049H90.71Z" fill="#2AEDB4"></path>
<path id="Vector_2" d="M92.4301 86.2201L90.8001 86.4651L90.4401 84.0701C92.0051 82.8951 93.0701 81.1201 93.2801 79.1751C93.3151 78.8751 93.3151 78.5901 93.2651 78.2451L89.4701 52.8551C89.2401 51.3201 87.8101 50.2601 86.2701 50.4901C84.7351 50.7201 83.6751 52.1501 83.9051 53.6901L85.4001 63.6751C85.4001 63.6751 85.4001 63.6651 85.4001 63.6601L83.1751 48.7651C82.9451 47.2301 81.5151 46.1701 79.9751 46.4001C78.6601 46.5951 77.6951 47.6751 77.5901 48.9501L77.0851 45.5851C76.8551 44.0501 75.4251 42.9901 73.8851 43.2201C72.3451 43.4501 71.2901 44.8801 71.5201 46.4201L74.3701 65.4851L72.0951 50.4301C71.8651 48.8951 70.4351 47.8351 68.9001 48.0651C67.3651 48.2951 66.3051 49.7251 66.5351 51.2601L70.2101 75.8501L64.8651 71.8951C63.6151 70.9701 61.8551 71.2351 60.9301 72.4851C60.0051 73.7351 60.2701 75.4951 61.5201 76.4201L73.1701 85.0401C73.4551 85.2851 73.7551 85.5101 74.0751 85.7101L74.1351 85.7551C74.3401 85.9101 74.5651 86.0151 74.7951 86.1051C75.3051 86.3451 75.8501 86.5251 76.4151 86.6351L76.7051 88.5801L74.9801 88.8401L78.5951 113.025L96.0551 110.415L92.4401 86.2301L92.4301 86.2201Z" fill="#EDEDED"></path>
<path id="Vector_3" d="M91.7084 86.0204L75.5874 88.4297C74.6835 88.5648 74.0601 89.4071 74.1952 90.3111L74.6246 93.1842C74.7597 94.0882 75.6021 94.7115 76.5061 94.5764L92.627 92.1671C93.531 92.032 94.1543 91.1897 94.0192 90.2857L93.5898 87.4126C93.4547 86.5086 92.6124 85.8853 91.7084 86.0204Z" fill="white"></path>
<path id="Vector_4" d="M93.55 92.0251C93.685 91.9201 93.815 91.8001 93.92 91.6601C94.22 91.2501 94.35 90.7501 94.27 90.2451L93.84 87.3701C93.685 86.3301 92.715 85.6151 91.675 85.7651L90.96 85.8701L90.705 84.1751C92.29 82.9351 93.315 81.1301 93.525 79.2001C93.565 78.8601 93.56 78.5501 93.505 78.2051L89.71 52.8151C89.46 51.1451 87.9 49.9901 86.225 50.2401C85.415 50.3601 84.7 50.7901 84.215 51.4501C84.09 51.6201 83.98 51.8051 83.895 51.9951L83.405 48.7301C83.285 47.9201 82.855 47.2051 82.195 46.7201C81.535 46.2351 80.73 46.0301 79.92 46.1551C78.92 46.3051 78.09 46.9251 77.65 47.7801L77.315 45.5501C77.195 44.7401 76.765 44.0251 76.105 43.5401C75.445 43.0551 74.64 42.8501 73.83 42.9751C73.02 43.0951 72.305 43.5251 71.82 44.1851C71.335 44.8451 71.13 45.6501 71.255 46.4601L71.61 48.8451C71.465 48.6751 71.3 48.5251 71.115 48.3851C70.455 47.9001 69.65 47.7001 68.84 47.8201C68.03 47.9401 67.32 48.3701 66.83 49.0251C66.345 49.6801 66.14 50.4901 66.265 51.3001L69.85 75.2951L64.99 71.7001C63.63 70.6951 61.71 70.9851 60.705 72.3401C59.7 73.6951 59.99 75.6201 61.345 76.6251L72.98 85.2301C73.27 85.4851 73.585 85.7151 73.9 85.9101L73.96 85.9551C74.16 86.1051 74.39 86.2251 74.66 86.3301C75.13 86.5551 75.64 86.7251 76.165 86.8451L76.345 88.0651L75.535 88.1851C74.495 88.3401 73.775 89.3101 73.935 90.3501L74.365 93.2251C74.44 93.7301 74.705 94.1701 75.115 94.4751C75.26 94.5801 75.415 94.6601 75.575 94.7201L78.315 113.055L78.35 113.3L96.305 110.615L93.525 92.0251H93.55ZM74.87 85.8651C74.625 85.7701 74.435 85.6701 74.27 85.5451L74.19 85.4901C73.885 85.3001 73.59 85.0801 73.305 84.8351L61.655 76.2151C60.52 75.3751 60.28 73.7651 61.12 72.6301C61.62 71.9501 62.395 71.5951 63.18 71.5951C63.71 71.5951 64.245 71.7601 64.7 72.0951L70.045 76.0501C70.13 76.1101 70.235 76.1151 70.325 76.0651C70.415 76.0151 70.46 75.9151 70.445 75.8151L66.77 51.2251C66.67 50.5501 66.835 49.8701 67.245 49.3201C67.655 48.7701 68.25 48.4101 68.925 48.3101C69.6 48.2051 70.28 48.3751 70.83 48.7851C71.38 49.1951 71.74 49.7901 71.84 50.4651C71.845 50.5051 71.86 50.5401 71.88 50.5701L74.115 65.5201C74.135 65.6551 74.265 65.7501 74.4 65.7301C74.535 65.7101 74.63 65.5801 74.61 65.4451L71.76 46.3801C71.66 45.7051 71.825 45.0251 72.235 44.4751C72.645 43.9251 73.24 43.5651 73.92 43.4651C74.6 43.3651 75.275 43.5301 75.825 43.9401C76.375 44.3451 76.735 44.9451 76.835 45.6201L76.85 45.7251L79.66 64.5251C79.68 64.6501 79.785 64.7401 79.905 64.7401C79.92 64.7401 79.93 64.7401 79.945 64.7401C80.08 64.7201 80.175 64.5901 80.155 64.4551L77.835 48.9501C77.94 47.7701 78.83 46.8251 80.005 46.6501C80.68 46.5501 81.36 46.7151 81.91 47.1251C82.46 47.5301 82.82 48.1301 82.92 48.8051L85.15 63.7151C85.15 63.7151 85.155 63.7501 85.16 63.7651C85.2 63.8801 85.32 63.9501 85.445 63.9251C85.575 63.9001 85.665 63.7751 85.645 63.6451L84.15 53.6551C84.05 52.9801 84.215 52.3001 84.625 51.7501C85.035 51.2001 85.63 50.8401 86.305 50.7401C87.705 50.5251 89.01 51.5001 89.22 52.8951L93.015 78.2851C93.06 78.5901 93.065 78.8451 93.03 79.1501C92.83 80.9901 91.83 82.7101 90.285 83.8701C90.21 83.9251 90.175 84.0151 90.19 84.1051L90.465 85.9451L76.85 87.9801L76.64 86.5901C76.625 86.4851 76.545 86.4001 76.44 86.3801C75.89 86.2701 75.365 86.1001 74.86 85.8601L74.87 85.8651ZM74.875 93.1451L74.445 90.2701C74.33 89.5051 74.86 88.7851 75.625 88.6751L91.75 86.2651C91.82 86.2551 91.89 86.2501 91.96 86.2501C92.645 86.2501 93.245 86.7501 93.35 87.4501L93.78 90.3251C93.835 90.6951 93.745 91.0651 93.52 91.3701C93.295 91.6751 92.97 91.8701 92.6 91.9251L76.475 94.3351C76.105 94.3901 75.735 94.3001 75.43 94.0751C75.125 93.8501 74.93 93.5251 74.875 93.1551V93.1451ZM76.115 94.8301C76.165 94.8301 76.21 94.8401 76.26 94.8401C76.355 94.8401 76.45 94.8351 76.545 94.8201L92.67 92.4101C92.815 92.3901 92.95 92.3451 93.085 92.2951L95.76 110.195L78.79 112.73L76.115 94.8301Z" fill="#07064E"></path>
<path id="Vector_5" d="M137.73 55.3449C136.26 54.8399 134.66 55.6249 134.155 57.0899L130.875 66.6399C130.875 66.6399 130.875 66.6299 130.875 66.6249L135.765 52.3849C136.27 50.9149 135.485 49.3149 134.02 48.8099C132.76 48.3799 131.41 48.8899 130.73 49.9699L131.835 46.7499C132.34 45.2799 131.555 43.6799 130.09 43.1749C128.62 42.6699 127.02 43.4549 126.515 44.9249L120.255 63.1549L125.175 48.7449C125.68 47.2749 124.895 45.6749 123.43 45.1699C121.96 44.6649 120.36 45.4499 119.855 46.9149L111.78 70.4299L108.86 64.4549C108.18 63.0599 106.495 62.4799 105.1 63.1649C103.705 63.8449 103.125 65.5299 103.81 66.9249L110.175 79.9449C110.31 80.2949 110.475 80.6299 110.67 80.9549L110.705 81.0249C110.82 81.2549 110.965 81.4549 111.13 81.6399C111.475 82.0899 111.875 82.4999 112.325 82.8599L111.685 84.7199L110.035 84.1549L102.095 107.28L118.795 113.015L126.735 89.8899L125.175 89.3549L125.96 87.0649C127.89 86.7449 129.655 85.6599 130.735 84.0349C130.905 83.7849 131.035 83.5349 131.15 83.2049L139.485 58.9249C139.99 57.4549 139.205 55.8549 137.735 55.3499L137.73 55.3449Z" fill="#EDEDED"></path>
<path id="Vector_6" d="M108.659 85.1039L107.715 87.8514C107.418 88.7159 107.879 89.6574 108.743 89.9542L124.16 95.2475C125.024 95.5443 125.966 95.0841 126.262 94.2197L127.206 91.4721C127.503 90.6076 127.042 89.6662 126.178 89.3693L110.761 84.076C109.897 83.7792 108.955 84.2394 108.659 85.1039Z" fill="white"></path>
<path id="Vector_7" d="M139.57 56.6599C139.21 55.9249 138.585 55.3749 137.81 55.1099C137.035 54.8449 136.205 54.8949 135.47 55.2549C135.28 55.3499 135.1 55.4599 134.935 55.5899L136.005 52.4699C136.27 51.6949 136.22 50.8649 135.86 50.1299C135.5 49.3949 134.875 48.8449 134.1 48.5799C133.14 48.2499 132.12 48.4149 131.335 48.9749L132.07 46.8399C132.62 45.2399 131.765 43.4949 130.165 42.9449C128.57 42.3949 126.82 43.2499 126.27 44.8499L125.485 47.1299C125.435 46.9149 125.355 46.6999 125.255 46.4949C124.895 45.7599 124.27 45.2099 123.5 44.9449C122.73 44.6799 121.895 44.7299 121.16 45.0899C120.425 45.4499 119.875 46.0749 119.61 46.8449L111.73 69.7899L109.075 64.3599C108.715 63.6249 108.09 63.0749 107.32 62.8099C106.55 62.5449 105.715 62.5949 104.98 62.9549C104.245 63.3149 103.695 63.9399 103.43 64.7099C103.165 65.4799 103.215 66.3149 103.575 67.0499L109.93 80.0499C110.07 80.4099 110.24 80.7599 110.43 81.0799L110.465 81.1449C110.575 81.3699 110.72 81.5799 110.915 81.7999C111.23 82.2149 111.6 82.5999 112.015 82.9499L111.615 84.1149L110.84 83.8499C109.845 83.5099 108.76 84.0399 108.42 85.0349L107.475 87.7849C107.245 88.4599 107.42 89.1699 107.865 89.6649L101.76 107.445L118.93 113.34L125.035 95.5649C125.205 95.5349 125.375 95.4849 125.535 95.4099C125.995 95.1849 126.335 94.7999 126.5 94.3149L127.445 91.5649C127.61 91.0849 127.58 90.5649 127.355 90.1099C127.13 89.6549 126.745 89.3099 126.26 89.1449L125.58 88.9099L126.135 87.2899C128.115 86.9199 129.86 85.7899 130.93 84.1749C131.12 83.8899 131.26 83.6149 131.37 83.2849L139.705 59.0049C139.97 58.2299 139.92 57.3999 139.56 56.6649L139.57 56.6599ZM118.625 112.695L102.4 107.125L108.275 90.0099C108.395 90.0849 108.525 90.1499 108.66 90.1999L124.08 95.4949C124.22 95.5449 124.36 95.5699 124.5 95.5849L118.62 112.705L118.625 112.695ZM126.1 89.6099C126.455 89.7299 126.74 89.9849 126.905 90.3199C127.07 90.6549 127.095 91.0399 126.97 91.3949L126.025 94.1449C125.905 94.4999 125.65 94.7849 125.315 94.9499C124.98 95.1149 124.6 95.1399 124.24 95.0149L108.82 89.7199C108.085 89.4699 107.695 88.6649 107.945 87.9349L108.89 85.1849C109.01 84.8299 109.265 84.5449 109.6 84.3799C109.935 84.2149 110.315 84.1899 110.675 84.3149L126.095 89.6099H126.1ZM139.24 58.8399L130.905 83.1199C130.805 83.4149 130.69 83.6449 130.52 83.8949C129.495 85.4349 127.815 86.4999 125.91 86.8199C125.82 86.8349 125.745 86.8999 125.715 86.9849L125.11 88.7449L112.09 84.2749L112.545 82.9449C112.58 82.8449 112.545 82.7349 112.465 82.6699C112.03 82.3199 111.64 81.9249 111.305 81.4799C111.13 81.2799 111.01 81.1049 110.92 80.9199L110.88 80.8349C110.695 80.5249 110.535 80.1949 110.395 79.8449L104.03 66.8249C103.73 66.2099 103.685 65.5149 103.91 64.8699C104.13 64.2249 104.595 63.6999 105.21 63.3999C105.825 63.0999 106.52 63.0549 107.165 63.2799C107.81 63.4999 108.335 63.9649 108.635 64.5799L111.555 70.5549C111.6 70.6449 111.69 70.6999 111.795 70.6949C111.895 70.6899 111.985 70.6199 112.015 70.5249L120.09 47.0099C120.31 46.3649 120.775 45.8399 121.39 45.5399C122.005 45.2399 122.7 45.1949 123.35 45.4199C124 45.6449 124.52 46.1049 124.82 46.7199C125.12 47.3349 125.165 48.0299 124.94 48.6749C124.925 48.7149 124.925 48.7499 124.93 48.7899L120.02 63.0849C119.975 63.2149 120.045 63.3599 120.175 63.4049C120.305 63.4499 120.445 63.3799 120.49 63.2499L126.75 45.0199C127.21 43.6849 128.67 42.9699 130.01 43.4249C131.345 43.8849 132.06 45.3449 131.6 46.6799L125.39 64.7599C125.345 64.8899 125.415 65.0349 125.545 65.0799C125.57 65.0899 125.6 65.0949 125.625 65.0949C125.73 65.0949 125.825 65.0299 125.86 64.9249L130.95 50.0999C131.59 49.0999 132.815 48.6749 133.935 49.0599C134.58 49.2799 135.105 49.7449 135.405 50.3599C135.705 50.9749 135.75 51.6699 135.525 52.3199L130.63 66.5799C130.63 66.5799 130.62 66.6099 130.62 66.6249C130.6 66.7449 130.675 66.8649 130.795 66.8999C130.92 66.9399 131.06 66.8699 131.1 66.7399L134.38 57.1899C134.84 55.8549 136.3 55.1399 137.64 55.5999C138.29 55.8199 138.81 56.2849 139.11 56.8999C139.41 57.5149 139.455 58.2099 139.23 58.8599L139.24 58.8399Z" fill="#07064E"></path>
<path id="Vector_8" d="M112.305 38.125C110.39 38.125 108.835 39.68 108.835 41.595V54.055C108.835 54.055 108.835 54.04 108.835 54.035V35.455C108.835 33.54 107.28 31.985 105.365 31.985C103.725 31.985 102.35 33.125 101.99 34.66V30.46C101.99 28.545 100.435 26.99 98.5201 26.99C96.6051 26.99 95.0501 28.545 95.0501 30.46V54.24L95.0201 35.45C95.0201 33.535 93.4651 31.98 91.5501 31.98C89.6351 31.98 88.0801 33.535 88.0801 35.45V66.13L82.2801 60.33C80.9251 58.975 78.7301 58.975 77.3751 60.33C76.0201 61.685 76.0201 63.88 77.3751 65.235L90.0201 77.88C90.3201 78.23 90.6501 78.56 91.0001 78.86L91.0651 78.925C91.2901 79.15 91.5401 79.32 91.8051 79.47C92.3851 79.86 93.0151 80.175 93.6851 80.415V82.46H91.9801C91.0651 82.46 90.3251 83.2 90.3251 84.115V88.475C90.3251 89.235 90.8351 89.865 91.5301 90.06V113.01H113.315V90.06C114.01 89.865 114.52 89.23 114.52 88.475V84.115C114.52 83.2 113.78 82.46 112.865 82.46H111.28V79.855C113.4 78.705 115.03 76.735 115.64 74.4C115.74 74.04 115.79 73.695 115.79 73.265V41.59C115.79 39.675 114.235 38.12 112.32 38.12L112.305 38.125Z" fill="white"></path>
<path id="Vector_9" d="M111.27 82.2099V79.8549C113.39 78.7049 115.02 76.7349 115.63 74.3999C115.73 74.0399 115.78 73.6949 115.78 73.2649V41.5899C115.78 39.6749 114.225 38.1199 112.31 38.1199C112.26 38.1199 112.215 38.1249 112.165 38.1249C113.515 48.4699 111.74 64.0699 110.86 68.7499C110.295 71.7549 109.035 78.1599 102.775 78.1599C95.015 77.9649 91.525 77.2899 79.825 67.6949L90.01 77.8799C90.31 78.2299 90.64 78.5599 90.99 78.8599L91.055 78.9249C91.28 79.1499 91.53 79.3199 91.795 79.4699C92.375 79.8599 93.005 80.1749 93.675 80.4149V82.2099" fill="#EDEDED"></path>
<path id="Vector_10" d="M91.5201 91.415C100.28 91.575 107.285 95.335 113.305 101.1V90.01H91.5201V91.415Z" fill="#EDEDED"></path>
<path id="Vector_11" d="M112.305 37.875C110.93 37.875 109.725 38.625 109.08 39.74V35.455C109.08 33.405 107.41 31.735 105.36 31.735C104.065 31.735 102.9 32.395 102.235 33.435V30.46C102.235 28.41 100.565 26.74 98.515 26.74C96.465 26.74 94.795 28.41 94.795 30.46V33.65C94.16 32.51 92.94 31.735 91.545 31.735C89.495 31.735 87.825 33.405 87.825 35.455V65.53L82.45 60.155C81.745 59.45 80.815 59.065 79.82 59.065C78.825 59.065 77.89 59.45 77.19 60.155C75.74 61.605 75.74 63.965 77.19 65.415L89.82 78.045C90.13 78.405 90.465 78.745 90.815 79.04L90.88 79.105C91.095 79.32 91.345 79.505 91.655 79.685C92.2 80.05 92.795 80.355 93.425 80.595V82.215H91.97C90.92 82.215 90.065 83.07 90.065 84.12V88.48C90.065 89.285 90.565 89.97 91.27 90.25V113.27H113.555V90.25C114.26 89.97 114.76 89.285 114.76 88.48V84.12C114.76 83.07 113.905 82.215 112.855 82.215H111.52V80.01C113.685 78.795 115.265 76.785 115.87 74.475C115.98 74.07 116.03 73.7 116.03 73.275V41.6C116.03 39.55 114.36 37.88 112.31 37.88L112.305 37.875ZM113.055 112.765H91.77V90.365C91.835 90.37 91.9 90.385 91.97 90.385H112.855C112.925 90.385 112.985 90.37 113.055 90.365V112.765ZM112.855 82.71C113.63 82.71 114.26 83.34 114.26 84.115V88.475C114.26 89.25 113.63 89.88 112.855 89.88H91.97C91.195 89.88 90.565 89.25 90.565 88.475V84.115C90.565 83.34 91.195 82.71 91.97 82.71H112.855ZM115.53 73.27C115.53 73.655 115.49 73.975 115.39 74.34C114.805 76.565 113.265 78.495 111.155 79.635C111.075 79.68 111.025 79.765 111.025 79.855V82.21H93.925V80.415C93.925 80.31 93.86 80.215 93.76 80.18C93.105 79.945 92.49 79.635 91.92 79.255C91.635 79.09 91.415 78.93 91.235 78.745L91.155 78.665C90.815 78.375 90.495 78.055 90.19 77.7L77.545 65.055C76.29 63.8 76.29 61.755 77.545 60.5C78.155 59.89 78.96 59.555 79.82 59.555C80.68 59.555 81.49 59.89 82.095 60.5L87.895 66.3C87.965 66.37 88.075 66.395 88.165 66.355C88.26 66.315 88.32 66.225 88.32 66.125V35.445C88.32 33.67 89.765 32.225 91.54 32.225C93.315 32.225 94.76 33.67 94.76 35.445C94.76 35.49 94.77 35.53 94.79 35.565V54.23C94.79 54.37 94.9 54.48 95.04 54.48C95.18 54.48 95.29 54.37 95.29 54.23V30.45C95.29 28.675 96.735 27.23 98.51 27.23C100.285 27.23 101.73 28.675 101.73 30.45V54.035C101.73 54.175 101.84 54.285 101.98 54.285C102.12 54.285 102.23 54.175 102.23 54.035V34.685C102.58 33.235 103.865 32.225 105.355 32.225C107.13 32.225 108.575 33.67 108.575 35.445V54.045C108.575 54.045 108.575 54.075 108.58 54.085C108.6 54.205 108.69 54.31 108.835 54.295C108.97 54.295 109.075 54.18 109.075 54.045V41.585C109.075 39.81 110.52 38.365 112.295 38.365C114.07 38.365 115.515 39.81 115.515 41.585V73.26L115.53 73.27Z" fill="#07064E"></path>
</g>
</g>
</g>
</g>
<defs>
<clipPath id="clip0_70_4731">
<rect width="200" height="140" fill="white"></rect>
</clipPath>
</defs>
</svg>