<svg width="200" height="140" viewBox="0 0 200 140" fill="none" xmlns="http://www.w3.org/2000/svg">
<g id="illu_spot_forum-none/Default" clip-path="url(#clip0_70_5225)">
<g id="illu_spot_forum-none">
<g id="background">
<path d="M181.725 41.11C185.249 41.11 188.105 38.2536 188.105 34.73C188.105 31.2064 185.249 28.35 181.725 28.35C178.201 28.35 175.345 31.2064 175.345 34.73C175.345 38.2536 178.201 41.11 181.725 41.11Z" fill="#2BF5BA"></path>
<path d="M177.88 55.71C179.28 55.71 180.415 54.5751 180.415 53.175C180.415 51.775 179.28 50.64 177.88 50.64C176.48 50.64 175.345 51.775 175.345 53.175C175.345 54.5751 176.48 55.71 177.88 55.71Z" fill="#2BF5BA"></path>
<path d="M13.09 20.745C9.26503 23.495 4.54003 23.025 2.54003 19.695C0.540032 16.365 2.02003 11.435 5.85003 8.69002C9.67503 5.94002 14.4 6.41002 16.4 9.74002C18.4 13.07 16.92 18 13.09 20.745Z" fill="#2BF5BA"></path>
<path d="M29.11 115.075C14.92 101.625 8.97003 85.73 7.19503 80.47C3.36503 69.13 -2.26497 51.705 5.63003 35.445C15.325 15.495 39.095 9.94002 50.265 7.33002C59.475 5.18002 77.435 0.650019 108.825 10.805C140.205 20.96 169.675 12.81 170.065 45.155C170.5 81.305 191.18 59.805 192.36 94.91C192.405 96.24 192.155 103.92 188.78 110.38C182.565 122.26 167.49 126.305 155.895 128.575C112.72 137.035 62.64 146.845 29.11 115.075Z" fill="#2BF5BA"></path>
</g>
<g id="illu_spot_forum-none_2">
<g id="stroke">
<g id="Vector">
<path d="M133.355 50.3953L138.565 46.3853C140.235 45.1003 140.55 42.7003 139.265 41.0303C137.98 39.3603 135.58 39.0453 133.91 40.3303L133.355 40.7553V50.3953Z" fill="#2AEDB4"></path>
<path d="M59.415 46.3853L64.625 50.3953V40.7553L64.07 40.3303C62.4 39.0453 60 39.3553 58.715 41.0303C57.43 42.7003 57.74 45.1003 59.415 46.3853Z" fill="#2AEDB4"></path>
<path d="M138.565 97.6403L133.355 93.6302V103.27L133.91 103.695C135.58 104.98 137.98 104.67 139.265 102.995C140.55 101.325 140.24 98.9253 138.565 97.6403Z" fill="#2AEDB4"></path>
<path d="M64.625 93.6302L59.415 97.6403C57.745 98.9253 57.43 101.325 58.715 102.995C60 104.665 62.4 104.98 64.07 103.695L64.625 103.27V93.6302Z" fill="#2AEDB4"></path>
</g>
<path id="Vector_2" d="M129.075 117.945H68.905C66.68 117.945 64.875 116.14 64.875 113.915V117.265C64.875 119.49 66.68 121.295 68.905 121.295H129.075C131.3 121.295 133.105 119.49 133.105 117.265V113.92C133.105 116.145 131.3 117.945 129.075 117.945Z" fill="#2AEDB4"></path>
<path id="Vector_3" d="M68.545 90.7847V39.5847C68.545 37.3597 70.35 35.5547 72.575 35.5547H125.41C127.635 35.5547 129.44 37.3597 129.44 39.5847V101.805C129.44 104.03 127.635 105.835 125.41 105.835H72.575C70.35 105.835 68.545 104.03 68.545 101.805V88.0947" fill="white"></path>
<path id="Vector_4" d="M129.075 27.2701H68.905C66.68 27.2701 64.875 29.0751 64.875 31.3001V113.92C64.875 116.145 66.68 117.95 68.905 117.95H129.075C131.3 117.95 133.105 116.145 133.105 113.92V31.2951C133.105 29.0701 131.3 27.2651 129.075 27.2651V27.2701ZM129.435 101.805C129.435 104.03 127.63 105.835 125.405 105.835H72.57C70.345 105.835 68.54 104.03 68.54 101.805V39.5851C68.54 37.3601 70.345 35.5551 72.57 35.5551H125.405C127.63 35.5551 129.435 37.3601 129.435 39.5851V101.805Z" fill="#EDEDED"></path>
<path id="Vector_5" d="M98.9901 115.555C100.81 115.555 102.285 114.08 102.285 112.26C102.285 110.44 100.81 108.965 98.9901 108.965C97.1703 108.965 95.6951 110.44 95.6951 112.26C95.6951 114.08 97.1703 115.555 98.9901 115.555Z" fill="white"></path>
<path id="Vector_6" d="M98.9701 115.805C97.2251 115.805 95.7551 114.555 95.4751 112.835C95.4551 112.7 95.5451 112.57 95.6801 112.55C95.8151 112.53 95.9451 112.62 95.9651 112.755C96.2051 114.23 97.4701 115.305 98.9701 115.305C100.65 115.305 102.015 113.94 102.015 112.26C102.015 110.58 100.65 109.22 98.9701 109.22C97.9251 109.22 96.9701 109.745 96.4051 110.625C96.3301 110.74 96.1751 110.775 96.0601 110.7C95.9451 110.625 95.9101 110.47 95.9851 110.355C96.6401 109.33 97.7551 108.72 98.9701 108.72C100.925 108.72 102.515 110.31 102.515 112.26C102.515 114.21 100.925 115.805 98.9701 115.805Z" fill="#07064E"></path>
<path id="Vector_7" d="M106.01 32.0548H102.48C102.34 32.0548 102.23 31.9398 102.23 31.7998C102.23 31.6598 102.34 31.5498 102.48 31.5498H106.01C106.15 31.5498 106.26 31.6648 106.26 31.8048C106.26 31.9448 106.15 32.0548 106.01 32.0548Z" fill="white"></path>
<path id="Vector_8" d="M100.175 32.0547H91.97C91.83 32.0547 91.72 31.9447 91.72 31.8047C91.72 31.6647 91.83 31.5547 91.97 31.5547H100.175C100.315 31.5547 100.425 31.6647 100.425 31.8047C100.425 31.9447 100.315 32.0547 100.175 32.0547Z" fill="#07064E"></path>
<path id="Vector_9" d="M125.405 35.5547H72.57C70.345 35.5547 68.54 37.3597 68.54 39.5847V101.805V92.9097V41.7097C68.54 39.4847 70.345 37.6797 72.57 37.6797H125.405C127.63 37.6797 129.435 39.4847 129.435 41.7097V101.81V39.5897C129.435 37.3647 127.63 35.5597 125.405 35.5597V35.5547Z" fill="#EDEDED"></path>
<g id="Vector_10">
<path d="M133.105 40.9502L129.435 43.7752V53.4102L133.105 50.5902V40.9502Z" fill="#DDDDDD"></path>
<path d="M64.875 50.5902L68.545 53.4102V43.7752L64.875 40.9502V50.5902Z" fill="#DDDDDD"></path>
<path d="M133.105 93.4402L129.435 90.6152V100.255L133.105 103.075V93.4402Z" fill="#DDDDDD"></path>
<path d="M68.545 100.255V90.6152L64.875 93.4402V103.075L68.545 100.255Z" fill="#DDDDDD"></path>
</g>
<path id="Vector_11" d="M129.075 118.195H68.905C66.545 118.195 64.625 116.275 64.625 113.915V31.2951C64.625 28.9351 66.545 27.0151 68.905 27.0151H129.075C131.435 27.0151 133.355 28.9351 133.355 31.2951V113.915C133.355 116.275 131.435 118.195 129.075 118.195ZM68.905 27.5201C66.82 27.5201 65.125 29.2151 65.125 31.3001V113.92C65.125 116.005 66.82 117.7 68.905 117.7H129.075C131.16 117.7 132.855 116.005 132.855 113.92V31.2951C132.855 29.2101 131.16 27.5151 129.075 27.5151H68.905V27.5201Z" fill="#07064E"></path>
<g id="Vector_12">
<path d="M68.545 51.2852V53.4102L91.345 70.9502L92.725 69.8902L68.545 51.2852Z" fill="#EDEDED"></path>
<path d="M129.435 51.2852L105.255 69.8902L106.635 70.9502L129.435 53.4102V51.2852Z" fill="#EDEDED"></path>
<path d="M98.99 74.7052L68.545 98.1302V100.255L98.99 76.8302L129.435 100.255V98.1302L98.99 74.7052Z" fill="#EDEDED"></path>
</g>
<path id="Vector_13" d="M125.405 106.085H72.57C70.21 106.085 68.29 104.165 68.29 101.805V39.5847C68.29 37.2247 70.21 35.3047 72.57 35.3047H125.405C127.765 35.3047 129.685 37.2247 129.685 39.5847V101.805C129.685 104.165 127.765 106.085 125.405 106.085ZM72.575 35.8047C70.49 35.8047 68.795 37.4997 68.795 39.5847V101.805C68.795 103.89 70.49 105.585 72.575 105.585H125.41C127.495 105.585 129.19 103.89 129.19 101.805V39.5847C129.19 37.4997 127.495 35.8047 125.41 35.8047H72.575Z" fill="#07064E"></path>
<g id="Vector_14">
<path d="M83.715 42.5449H78.15C77.0455 42.5449 76.15 43.4404 76.15 44.5449V50.1099C76.15 51.2145 77.0455 52.1099 78.15 52.1099H83.715C84.8196 52.1099 85.715 51.2145 85.715 50.1099V44.5449C85.715 43.4404 84.8196 42.5449 83.715 42.5449Z" fill="#2BF5BA"></path>
<path d="M121.475 44.0849H88.995C88.5145 44.0849 88.125 44.4744 88.125 44.9549V45.3999C88.125 45.8804 88.5145 46.2699 88.995 46.2699H121.475C121.956 46.2699 122.345 45.8804 122.345 45.3999V44.9549C122.345 44.4744 121.956 44.0849 121.475 44.0849Z" fill="#2BF5BA"></path>
<path d="M121.475 48.3849H88.995C88.5145 48.3849 88.125 48.7744 88.125 49.2549V49.6999C88.125 50.1804 88.5145 50.5699 88.995 50.5699H121.475C121.956 50.5699 122.345 50.1804 122.345 49.6999V49.2549C122.345 48.7744 121.956 48.3849 121.475 48.3849Z" fill="#2BF5BA"></path>
</g>
<path id="Vector_15" d="M80.6151 49.9752C80.4501 49.9752 80.2951 49.8952 80.2051 49.7602L78.9301 47.9052C78.7751 47.6802 78.8301 47.3652 79.0601 47.2102C79.2851 47.0552 79.6001 47.1102 79.7551 47.3402L80.5251 48.4602L82.0751 44.9752C82.1851 44.7202 82.4851 44.6102 82.7351 44.7202C82.9851 44.8302 83.1001 45.1302 82.9901 45.3802L81.0751 49.6802C81.0001 49.8452 80.8451 49.9602 80.6651 49.9752C80.6501 49.9752 80.6351 49.9752 80.6201 49.9752H80.6151Z" fill="#07064E"></path>
<g id="Vector_16">
<path d="M83.715 55.1953H78.15C77.0455 55.1953 76.15 56.0907 76.15 57.1953V62.7603C76.15 63.8649 77.0455 64.7603 78.15 64.7603H83.715C84.8196 64.7603 85.715 63.8649 85.715 62.7603V57.1953C85.715 56.0907 84.8196 55.1953 83.715 55.1953Z" fill="#EDEDED"></path>
<path d="M121.475 56.7353H88.995C88.5145 56.7353 88.125 57.1248 88.125 57.6053V58.0503C88.125 58.5308 88.5145 58.9203 88.995 58.9203H121.475C121.956 58.9203 122.345 58.5308 122.345 58.0503V57.6053C122.345 57.1248 121.956 56.7353 121.475 56.7353Z" fill="#EDEDED"></path>
<path d="M121.475 61.0353H88.995C88.5145 61.0353 88.125 61.4248 88.125 61.9053V62.3503C88.125 62.8308 88.5145 63.2203 88.995 63.2203H121.475C121.956 63.2203 122.345 62.8308 122.345 62.3503V61.9053C122.345 61.4248 121.956 61.0353 121.475 61.0353Z" fill="#EDEDED"></path>
</g>
<path id="Vector_17" d="M138.565 95.5151L105.255 69.8901L138.565 44.2651C140.235 42.9801 140.55 40.5801 139.265 38.9101C137.98 37.2401 135.58 36.9251 133.91 38.2101L98.99 65.0701L64.07 38.2101C62.4 36.9251 60 37.2351 58.715 38.9101C57.43 40.5801 57.74 42.9801 59.415 44.2651L92.725 69.8901L59.415 95.5151C57.745 96.8001 57.43 99.2001 58.715 100.87C60 102.54 62.4 102.855 64.07 101.57L98.99 74.7101L133.91 101.57C135.58 102.855 137.98 102.545 139.265 100.87C140.55 99.2001 140.24 96.8001 138.565 95.5151Z" fill="#FFB87E"></path>
<path id="Vector_18" d="M138.565 95.5151L105.255 69.8901L138.565 44.2651C140.235 42.9801 140.55 40.5801 139.265 38.9101C137.98 37.2401 135.58 36.9251 133.91 38.2101L98.99 65.0701L64.07 38.2101C62.4 36.9251 60 37.2351 58.715 38.9101C57.43 40.5801 57.74 42.9801 59.415 44.2651L92.725 69.8901L59.415 95.5151C57.745 96.8001 57.43 99.2001 58.715 100.87C60 102.54 62.4 102.855 64.07 101.57L98.99 74.7101L133.91 101.57C135.58 102.855 137.98 102.545 139.265 100.87C140.55 99.2001 140.24 96.8001 138.565 95.5151Z" fill="#FFB87E"></path>
</g>
</g>
</g>
</g>
<defs>
<clipPath id="clip0_70_5225">
<rect width="200" height="140" fill="white"></rect>
</clipPath>
</defs>
</svg>