<svg width="26" height="26" viewBox="0 0 26 26" fill="none" xmlns="http://www.w3.org/2000/svg">
<g id="icon_menu_dashboard" clip-path="url(#clip0_51_8)">
<g id="icon_menu_dashboard_2">
<g id="color_stroke">
<path id="Vector" d="M25.1781 11.0597L13.4781 1.98371C13.3413 1.87764 13.1731 1.82007 13 1.82007C12.8269 1.82007 12.6587 1.87764 12.5219 1.98371L0.821938 11.0597C0.740505 11.1223 0.672239 11.2003 0.621059 11.2894C0.569879 11.3785 0.536792 11.4767 0.523698 11.5786C0.510604 11.6805 0.51776 11.784 0.544757 11.8831C0.571754 11.9822 0.618058 12.075 0.681013 12.1561C0.743968 12.2373 0.822333 12.3052 0.911609 12.356C1.00089 12.4068 1.09932 12.4395 1.20125 12.4521C1.30318 12.4648 1.40661 12.4572 1.50559 12.4297C1.60458 12.4023 1.69718 12.3556 1.77806 12.2923L3.11999 11.2513V23.4C3.11999 23.5025 3.14016 23.6039 3.17936 23.6985C3.21856 23.7932 3.27601 23.8791 3.34844 23.9516C3.42087 24.024 3.50686 24.0815 3.6015 24.1207C3.69613 24.1599 3.79756 24.18 3.89999 24.18H10.0533C10.1558 24.18 10.2572 24.1599 10.3518 24.1207C10.4465 24.0815 10.5324 24.024 10.6049 23.9516C10.6773 23.8791 10.7348 23.7932 10.774 23.6985C10.8132 23.6039 10.8333 23.5025 10.8333 23.4V16.7374C10.8334 16.6427 10.8711 16.5518 10.9381 16.4848C11.0052 16.4178 11.096 16.3801 11.1908 16.38H14.8092C14.904 16.3801 14.9948 16.4178 15.0618 16.4848C15.1289 16.5518 15.1666 16.6427 15.1667 16.7374V23.4C15.1667 23.5025 15.1868 23.6039 15.226 23.6985C15.2652 23.7932 15.3227 23.8791 15.3951 23.9516C15.4675 24.024 15.5535 24.0815 15.6482 24.1207C15.7428 24.1599 15.8442 24.18 15.9467 24.18H22.1C22.2024 24.18 22.3039 24.1599 22.3985 24.1207C22.4931 24.0815 22.5791 24.024 22.6515 23.9516C22.724 23.8791 22.7814 23.7932 22.8206 23.6985C22.8598 23.6039 22.88 23.5025 22.88 23.4V11.2513L24.2219 12.2923C24.3028 12.3556 24.3954 12.4023 24.4944 12.4297C24.5934 12.4572 24.6968 12.4648 24.7987 12.4521C24.9007 12.4395 24.9991 12.4068 25.0884 12.356C25.1777 12.3052 25.256 12.2373 25.319 12.1561C25.3819 12.075 25.4282 11.9822 25.4552 11.8831C25.4822 11.784 25.4894 11.6805 25.4763 11.5786C25.4632 11.4767 25.4301 11.3785 25.3789 11.2894C25.3278 11.2003 25.2595 11.1223 25.1781 11.0597ZM21.32 22.62H16.7267V16.7374C16.7261 16.2291 16.5239 15.7417 16.1644 15.3822C15.8049 15.0228 15.3176 14.8206 14.8092 14.82H11.1908C10.6824 14.8206 10.195 15.0228 9.83558 15.3822C9.4761 15.7417 9.2739 16.2291 9.27332 16.7374V22.62H4.67999V10.0412L13 3.58721L21.32 10.0412V22.62Z" fill="white"></path>
</g>
</g>
</g>
<defs>
<clipPath id="clip0_51_8">
<rect width="26" height="26" fill="white"></rect>
</clipPath>
</defs>
</svg>